<svg width="87" height="31" viewBox="0 0 87 31" fill="none" xmlns="http://www.w3.org/2000/svg">
<g clip-path="url(#clip0_4016_2848)">
<path d="M40.9626 22.55V4.59375H37.5703V21.9657C38.9693 23.3714 39.7539 24.156 41.1495 25.555H49.49V22.55H40.9626Z" fill="white"/>
<path d="M64.6526 19.4241C64.2719 20.4492 63.6876 21.2839 62.8963 21.9349C62.105 22.586 61.08 22.9065 59.8179 22.9065C58.1953 22.9065 56.9265 22.3523 56.005 21.2538C55.0868 20.1487 54.6227 18.6161 54.6227 16.6729V13.4743C54.6227 11.5311 55.0868 9.99859 56.005 8.89344C56.9232 7.79496 58.1953 7.24071 59.8179 7.24071C61.0433 7.24071 62.0316 7.53119 62.7795 8.12217C63.5274 8.71314 64.0883 9.51112 64.4456 10.5061L67.2936 8.9502C66.5991 7.38762 65.6342 6.21569 64.4022 5.42105C63.1701 4.62974 61.6443 4.23242 59.8213 4.23242C58.4624 4.23242 57.2337 4.47282 56.1452 4.93358C55.0534 5.40435 54.1352 6.09883 53.3706 7.02703C52.6094 7.94521 52.0251 9.07374 51.6278 10.4126C51.2238 11.7582 51.0234 13.304 51.0234 15.0703C51.0234 18.5894 51.8081 21.2805 53.3706 23.1269C54.9332 24.98 57.0767 25.9082 59.8213 25.9082C61.6443 25.9082 63.1835 25.4808 64.4489 24.6294C65.711 23.778 66.6926 22.5893 67.3938 21.0702L64.6592 19.4175L64.6526 19.4241Z" fill="white"/>
<path d="M84.4922 6.30657C83.4304 5.16469 81.9279 4.59375 79.9847 4.59375H70.9766V25.5516H74.3688V7.5987H79.7744C80.6325 7.5987 81.3069 7.82241 81.7844 8.26313C82.2718 8.71054 82.5089 9.35493 82.5089 10.183V11.612C82.5089 12.45 82.2685 13.0844 81.7844 13.5318C81.3069 13.9792 80.6325 14.2063 79.7744 14.2063H75.1034L76.8295 17.2045H79.9847C81.9279 17.2045 83.4304 16.6369 84.4922 15.4917C85.5539 14.3565 86.0848 12.824 86.0848 10.9008C86.0848 8.97764 85.5539 7.44846 84.4922 6.30323V6.30657Z" fill="white"/>
<path d="M32.8639 30.0984H6.66406V4.7666C8.5071 2.92357 9.5388 1.89187 11.3818 0.0488281H32.8639V30.0984Z" fill="#007777"/>
<path d="M6.66341 30.0984L0.867188 23.8347V0.0488281L6.66341 4.7666V30.0984Z" fill="#41D882"/>
<path d="M15.8704 4.5918V7.41645H22.7083V19.5097C22.7083 20.6449 22.4379 21.5063 21.9003 22.0673C21.3628 22.6282 20.6382 22.9053 19.7401 22.9053C18.8419 22.9053 18.1041 22.6516 17.5932 22.1274C17.079 21.6032 16.7351 20.8953 16.5548 19.9972L13.4297 20.685C13.7135 22.2476 14.3779 23.5096 15.4263 24.4679C16.4814 25.4328 17.9171 25.9103 19.7401 25.9103C20.6983 25.9103 21.5698 25.7667 22.3644 25.4762C23.1557 25.1857 23.8302 24.7751 24.3744 24.2442C24.9286 23.7133 25.3527 23.0789 25.6532 22.3377C25.9537 21.5965 26.1006 20.7685 26.1006 19.8469V4.5918H15.867H15.8704Z" fill="white"/>
<path d="M22.7129 7.41979L26.1085 4.5918H15.875V7.41979H22.7129Z" fill="white"/>
<path d="M0.867188 0.0488281H11.3778L6.66341 4.7666L0.867188 0.0488281Z" fill="#E8DF38"/>
</g>
<defs>
<clipPath id="clip0_4016_2848">
<rect width="85.2205" height="30.0495" fill="white" transform="translate(0.867188 0.0488281)"/>
</clipPath>
</defs>
</svg>
