<svg width="144" height="54" viewBox="0 0 144 54" fill="none" xmlns="http://www.w3.org/2000/svg">
<path d="M121.834 37.7812H22.6968C19.0828 37.7812 16.0627 40.3718 15.3867 43.7967H129.144C128.469 40.3718 125.448 37.7812 121.834 37.7812Z" fill="url(#paint0_linear_3932_1438)"/>
<path d="M129.285 46.6973H15.2422V53.1493H129.285V46.6973Z" fill="url(#paint1_linear_3932_1438)"/>
<path d="M136.228 0.501953H8.29959C4.19061 0.501953 0.847656 3.85095 0.847656 7.96736V45.6836C0.847656 49.8 4.19061 53.149 8.29959 53.149H12.3469V45.2465C12.3469 39.5303 16.9891 34.8799 22.695 34.8799H121.833C127.538 34.8799 132.181 39.5303 132.181 45.2465V53.149H136.228C140.337 53.149 143.68 49.8 143.68 45.6836V7.96736C143.68 3.85095 140.337 0.501953 136.228 0.501953ZM17.3671 16.9171H8.12571C7.32624 16.9171 6.67792 16.2678 6.67792 15.4667C6.67792 14.6657 7.32624 14.0163 8.12571 14.0163H17.3671C18.1667 14.0163 18.8149 14.6657 18.8149 15.4667C18.8149 16.2678 18.1667 16.9171 17.3671 16.9171ZM17.3671 9.84521H8.12571C7.32624 9.84521 6.67792 9.19586 6.67792 8.3948C6.67792 7.59374 7.32624 6.94439 8.12571 6.94439H17.3671C18.1667 6.94439 18.8149 7.59374 18.8149 8.3948C18.8149 9.19586 18.1667 9.84521 17.3671 9.84521Z" fill="url(#paint2_linear_3932_1438)"/>
<defs>
<linearGradient id="paint0_linear_3932_1438" x1="-2672.64" y1="44.4375" x2="-2672.62" y2="32.5883" gradientUnits="userSpaceOnUse">
<stop stop-color="#E8DF38"/>
<stop offset="1" stop-color="#41D882"/>
</linearGradient>
<linearGradient id="paint1_linear_3932_1438" x1="-2679.51" y1="53.8366" x2="-2679.49" y2="41.1275" gradientUnits="userSpaceOnUse">
<stop stop-color="#E8DF38"/>
<stop offset="1" stop-color="#41D882"/>
</linearGradient>
<linearGradient id="paint2_linear_3932_1438" x1="-3374.19" y1="58.757" x2="-3373.26" y2="-44.9383" gradientUnits="userSpaceOnUse">
<stop stop-color="#E8DF38"/>
<stop offset="1" stop-color="#41D882"/>
</linearGradient>
</defs>
</svg>
