<svg width="50" height="66" viewBox="0 0 50 66" fill="none" xmlns="http://www.w3.org/2000/svg">
<path d="M12.5 15.5C12.5 14.837 12.7634 14.2011 13.2322 13.7322C13.7011 13.2634 14.337 13 15 13H35C35.663 13 36.2989 13.2634 36.7678 13.7322C37.2366 14.2011 37.5 14.837 37.5 15.5C37.5 16.163 37.2366 16.7989 36.7678 17.2678C36.2989 17.7366 35.663 18 35 18H15C14.337 18 13.7011 17.7366 13.2322 17.2678C12.7634 16.7989 12.5 16.163 12.5 15.5ZM15 28H35C35.663 28 36.2989 27.7366 36.7678 27.2678C37.2366 26.7989 37.5 26.163 37.5 25.5C37.5 24.837 37.2366 24.2011 36.7678 23.7322C36.2989 23.2634 35.663 23 35 23H15C14.337 23 13.7011 23.2634 13.2322 23.7322C12.7634 24.2011 12.5 24.837 12.5 25.5C12.5 26.163 12.7634 26.7989 13.2322 27.2678C13.7011 27.7366 14.337 28 15 28ZM50 5.5V60.5C50 61.8261 49.4732 63.0979 48.5355 64.0355C47.5979 64.9732 46.3261 65.5 45 65.5H5C3.67392 65.5 2.40215 64.9732 1.46447 64.0355C0.526784 63.0979 0 61.8261 0 60.5V5.5C0 4.17392 0.526784 2.90215 1.46447 1.96447C2.40215 1.02678 3.67392 0.5 5 0.5H45C46.3261 0.5 47.5979 1.02678 48.5355 1.96447C49.4732 2.90215 50 4.17392 50 5.5ZM45 5.5H5V60.5H45V5.5ZM25 45.5C24.2583 45.5 23.5333 45.7199 22.9166 46.132C22.2999 46.544 21.8193 47.1297 21.5355 47.8149C21.2516 48.5002 21.1774 49.2542 21.3221 49.9816C21.4667 50.709 21.8239 51.3772 22.3483 51.9016C22.8728 52.4261 23.541 52.7832 24.2684 52.9279C24.9958 53.0726 25.7498 52.9984 26.4351 52.7145C27.1203 52.4307 27.706 51.9501 28.118 51.3334C28.5301 50.7167 28.75 49.9917 28.75 49.25C28.75 48.2554 28.3549 47.3016 27.6516 46.5984C26.9484 45.8951 25.9946 45.5 25 45.5Z" fill="url(#paint0_linear_3932_1507)"/>
<defs>
<linearGradient id="paint0_linear_3932_1507" x1="-1181.47" y1="72.424" x2="-1177.43" y2="-55.4852" gradientUnits="userSpaceOnUse">
<stop stop-color="#E8DF38"/>
<stop offset="1" stop-color="#41D882"/>
</linearGradient>
</defs>
</svg>
