<svg width="53" height="48" viewBox="0 0 53 48" fill="none" xmlns="http://www.w3.org/2000/svg">
<path d="M52.1931 28.8899V43.8971C52.1931 44.8922 51.7978 45.8464 51.0942 46.55C50.3906 47.2536 49.4363 47.6489 48.4413 47.6489H3.41976C2.42473 47.6489 1.47044 47.2536 0.766844 46.55C0.0632459 45.8464 -0.332031 44.8922 -0.332031 43.8971V28.8899C-0.332031 27.8949 0.0632459 26.9406 0.766844 26.237C1.47044 25.5334 2.42473 25.1381 3.41976 25.1381H14.6751C15.1727 25.1381 15.6498 25.3358 16.0016 25.6876C16.3534 26.0394 16.551 26.5165 16.551 27.014C16.551 27.5116 16.3534 27.9887 16.0016 28.3405C15.6498 28.6923 15.1727 28.8899 14.6751 28.8899H3.41976V43.8971H48.4413V28.8899H37.1859C36.6884 28.8899 36.2113 28.6923 35.8595 28.3405C35.5077 27.9887 35.31 27.5116 35.31 27.014C35.31 26.5165 35.5077 26.0394 35.8595 25.6876C36.2113 25.3358 36.6884 25.1381 37.1859 25.1381H48.4413C49.4363 25.1381 50.3906 25.5334 51.0942 26.237C51.7978 26.9406 52.1931 27.8949 52.1931 28.8899ZM16.0023 15.21L24.0546 7.15532V27.014C24.0546 27.5116 24.2523 27.9887 24.6041 28.3405C24.9559 28.6923 25.433 28.8899 25.9305 28.8899C26.4281 28.8899 26.9052 28.6923 27.257 28.3405C27.6088 27.9887 27.8064 27.5116 27.8064 27.014V7.15532L35.8587 15.21C36.2107 15.562 36.6881 15.7597 37.1859 15.7597C37.6837 15.7597 38.1611 15.562 38.5131 15.21C38.8651 14.858 39.0629 14.3806 39.0629 13.8828C39.0629 13.385 38.8651 12.9076 38.5131 12.5556L27.2577 1.30018C27.0835 1.12576 26.8766 0.987397 26.6489 0.892994C26.4212 0.798591 26.1771 0.75 25.9305 0.75C25.684 0.75 25.4399 0.798591 25.2122 0.892994C24.9844 0.987397 24.7776 1.12576 24.6033 1.30018L13.348 12.5556C12.996 12.9076 12.7982 13.385 12.7982 13.8828C12.7982 14.3806 12.996 14.858 13.348 15.21C13.6999 15.5619 14.1774 15.7597 14.6751 15.7597C15.1729 15.7597 15.6504 15.562 16.0023 15.21ZM42.8136 36.3935C42.8136 35.837 42.6486 35.293 42.3394 34.8302C42.0302 34.3675 41.5907 34.0068 41.0766 33.7939C40.5624 33.5809 39.9966 33.5252 39.4508 33.6337C38.905 33.7423 38.4036 34.0103 38.0101 34.4038C37.6166 34.7974 37.3486 35.2987 37.24 35.8446C37.1314 36.3904 37.1871 36.9562 37.4001 37.4703C37.6131 37.9845 37.9737 38.424 38.4365 38.7332C38.8992 39.0423 39.4432 39.2074 39.9998 39.2074C40.746 39.2074 41.4618 38.9109 41.9895 38.3832C42.5172 37.8555 42.8136 37.1398 42.8136 36.3935Z" fill="white"/>
</svg>
