<svg width="50" height="36" viewBox="0 0 50 36" fill="none" xmlns="http://www.w3.org/2000/svg">
<path d="M39 21.75C39 22.2141 38.8156 22.6593 38.4874 22.9874C38.1592 23.3156 37.7141 23.5 37.25 23.5H35.5V25.25C35.5 25.7141 35.3156 26.1593 34.9874 26.4874C34.6592 26.8156 34.2141 27 33.75 27C33.2859 27 32.8408 26.8156 32.5126 26.4874C32.1844 26.1593 32 25.7141 32 25.25V23.5H30.25C29.7859 23.5 29.3407 23.3156 29.0126 22.9874C28.6844 22.6593 28.5 22.2141 28.5 21.75C28.5 21.2859 28.6844 20.8407 29.0126 20.5126C29.3407 20.1844 29.7859 20 30.25 20H32V18.25C32 17.7859 32.1844 17.3408 32.5126 17.0126C32.8408 16.6844 33.2859 16.5 33.75 16.5C34.2141 16.5 34.6592 16.6844 34.9874 17.0126C35.3156 17.3408 35.5 17.7859 35.5 18.25V20H37.25C37.7141 20 38.1592 20.1844 38.4874 20.5126C38.8156 20.8407 39 21.2859 39 21.75ZM19.75 20H12.75C12.2859 20 11.8408 20.1844 11.5126 20.5126C11.1844 20.8407 11 21.2859 11 21.75C11 22.2141 11.1844 22.6593 11.5126 22.9874C11.8408 23.3156 12.2859 23.5 12.75 23.5H19.75C20.2141 23.5 20.6592 23.3156 20.9874 22.9874C21.3156 22.6593 21.5 22.2141 21.5 21.75C21.5 21.2859 21.3156 20.8407 20.9874 20.5126C20.6592 20.1844 20.2141 20 19.75 20ZM49.5 11.25V32.25C49.5 33.1783 49.1312 34.0685 48.4749 34.7249C47.8185 35.3812 46.9283 35.75 46 35.75H4C3.07174 35.75 2.1815 35.3812 1.52513 34.7249C0.868749 34.0685 0.5 33.1783 0.5 32.25V11.25C0.5 10.3217 0.868749 9.4315 1.52513 8.77513C2.1815 8.11875 3.07174 7.75 4 7.75H7.5V4.25C7.5 3.32174 7.86875 2.4315 8.52513 1.77513C9.1815 1.11875 10.0717 0.75 11 0.75H18C18.9283 0.75 19.8185 1.11875 20.4749 1.77513C21.1313 2.4315 21.5 3.32174 21.5 4.25V7.75H28.5V4.25C28.5 3.32174 28.8687 2.4315 29.5251 1.77513C30.1815 1.11875 31.0717 0.75 32 0.75H39C39.9283 0.75 40.8185 1.11875 41.4749 1.77513C42.1312 2.4315 42.5 3.32174 42.5 4.25V7.75H46C46.9283 7.75 47.8185 8.11875 48.4749 8.77513C49.1312 9.4315 49.5 10.3217 49.5 11.25ZM32 7.75H39V4.25H32V7.75ZM11 7.75H18V4.25H11V7.75ZM46 32.25V11.25H4V32.25H46Z" fill="url(#paint0_linear_3958_2950)"/>
<defs>
<linearGradient id="paint0_linear_3958_2950" x1="-1157.34" y1="39.4783" x2="-1156.15" y2="-29.4437" gradientUnits="userSpaceOnUse">
<stop stop-color="#E8DF38"/>
<stop offset="1" stop-color="#41D882"/>
</linearGradient>
</defs>
</svg>
