<svg width="43" height="43" viewBox="0 0 43 43" fill="none" xmlns="http://www.w3.org/2000/svg">
<path d="M33.1865 23.377C27.7762 23.377 23.375 27.7789 23.375 33.1884C23.375 38.5987 27.7769 42.9999 33.1865 42.9999C38.5968 42.9999 42.9987 38.5987 42.9987 33.1884C42.998 27.7781 38.5961 23.377 33.1865 23.377ZM33.1865 41.5553C28.5729 41.5553 24.8197 37.802 24.8197 33.1884C24.8197 28.5749 28.5729 24.8216 33.1865 24.8216C37.8001 24.8216 41.554 28.5749 41.554 33.1884C41.5533 37.802 37.8001 41.5553 33.1865 41.5553Z" fill="url(#paint0_linear_3957_2228)"/>
<path d="M42.999 24.0039H39.6719C40.2743 24.4301 40.8312 24.9148 41.339 25.4486H42.999V24.0039Z" fill="url(#paint1_linear_3957_2228)"/>
<path d="M21.9316 33.1885C21.9316 30.5917 22.8237 28.2051 24.3066 26.2981H16.7011V16.7011H26.2981V24.3066C28.2051 22.8244 30.5917 21.9323 33.1877 21.9323C34.9452 21.9323 36.6037 22.3491 38.0866 23.07V22.222H42.9992V20.7773H38.0866V18.996H42.9992V17.5513H38.0866V15.77H42.9992V14.3254H38.0866V12.5441H42.9992V11.0994H38.0866V9.31814H42.9992V7.87347H38.0866V4.91261H35.1258V0H33.6811V4.91261H31.8998V0H30.4551V4.91261H28.6739V0H27.2292V4.91261H25.4479V0H24.0032V4.91261H22.222V0H20.7773V4.91261H18.996V0H17.5513V4.91261H15.77V0H14.3254V4.91261H12.5441V0H11.0994V4.91261H9.31814V0H7.87347V4.91261H4.91261V7.87347H0V9.31814H4.91261V11.0994H0V12.5441H4.91261V14.3254H0V15.77H4.91261V17.5513H0V18.996H4.91261V20.7773H0V22.222H4.91261V24.0032H0V25.4479H4.91261V27.2292H0V28.6739H4.91261V30.4551H0V31.8998H4.91261V33.6811H0V35.1258H4.91261V38.0866H7.87347V42.9992H9.31814V38.0866H11.0994V42.9992H12.5441V38.0866H14.3254V42.9992H15.77V38.0866H17.5513V42.9992H18.996V38.0866H20.7773V42.9992H22.222V38.0866H23.0693C22.3484 36.6037 21.9316 34.9459 21.9316 33.1885Z" fill="url(#paint2_linear_3957_2228)"/>
<path d="M36.4012 34.4731C36.5399 34.1257 36.6172 33.7493 36.6367 33.3578C36.9646 33.3203 37.3106 33.2747 37.7021 33.2126C39.2262 32.9714 40.2375 32.7648 41.1975 32.2064C40.9902 30.514 40.2577 28.9862 39.1685 27.7828C38.4172 29.1025 37.6096 29.7844 36.2921 30.7697C36.152 30.8744 36.0248 30.9647 35.8977 31.0557C35.6608 30.7552 35.3834 30.4916 35.0612 30.2828C35.192 29.9816 35.3242 29.6602 35.465 29.2925C36.0198 27.8493 36.3434 26.8683 36.3383 25.7559C35.3704 25.3442 34.305 25.1152 33.189 25.1152C32.606 25.1152 32.039 25.1802 31.4907 25.298C32.2622 26.6134 32.4493 27.6542 32.645 29.2925C32.6653 29.4651 32.6804 29.6204 32.6949 29.775C32.3084 29.8306 31.9458 29.9498 31.6114 30.1225C31.4142 29.8559 31.2025 29.5793 30.9519 29.2694C29.9825 28.0725 29.2992 27.3003 28.3385 26.7492C27.026 27.7402 26.0219 29.1163 25.5055 30.7148C27.0303 30.7039 28.025 31.063 29.5412 31.7131C29.6979 31.7802 29.8366 31.8438 29.976 31.9074C29.8366 32.2548 29.7593 32.6304 29.7398 33.0226C29.4119 33.0602 29.0659 33.1064 28.6751 33.1678C27.1502 33.4098 26.139 33.6157 25.1797 34.1741C25.3863 35.8665 26.1194 37.3942 27.2087 38.5976C27.9607 37.2779 28.7683 36.596 30.0858 35.6108C30.2252 35.506 30.3523 35.4158 30.4802 35.3247C30.7171 35.6245 30.9945 35.8896 31.3167 36.0976C31.1859 36.3989 31.0537 36.7203 30.9129 37.088C30.3581 38.5312 30.0345 39.5128 30.0396 40.6252C31.0075 41.037 32.0722 41.2652 33.189 41.2652C33.7719 41.2652 34.3389 41.2002 34.8872 41.0818C34.1157 39.7664 33.9286 38.7255 33.7336 37.088C33.7126 36.9153 33.6982 36.76 33.6838 36.6054C34.0702 36.5498 34.4328 36.4306 34.7673 36.258C34.9645 36.5245 35.1761 36.8012 35.4267 37.1104C36.3961 38.308 37.0795 39.0794 38.0394 39.6313C39.3519 38.6403 40.3567 37.2642 40.8724 35.6657C39.3483 35.6765 38.3529 35.3182 36.8368 34.6681C36.6786 34.5995 36.5399 34.5359 36.4012 34.4731ZM33.1882 35.2099C32.0737 35.2099 31.1671 34.3034 31.1671 33.1895C31.1671 32.0749 32.0737 31.1684 33.1882 31.1684C34.3028 31.1684 35.2093 32.0749 35.2093 33.1895C35.2086 34.3041 34.3028 35.2099 33.1882 35.2099Z" fill="url(#paint3_linear_3957_2228)"/>
<defs>
<linearGradient id="paint0_linear_3957_2228" x1="-440.321" y1="45.0902" x2="-439.384" y2="6.45977" gradientUnits="userSpaceOnUse">
<stop stop-color="#E8DF38"/>
<stop offset="1" stop-color="#41D882"/>
</linearGradient>
<linearGradient id="paint1_linear_3957_2228" x1="-38.9451" y1="25.6025" x2="-38.9151" y2="22.7571" gradientUnits="userSpaceOnUse">
<stop stop-color="#E8DF38"/>
<stop offset="1" stop-color="#41D882"/>
</linearGradient>
<linearGradient id="paint2_linear_3957_2228" x1="-1016.05" y1="47.5796" x2="-1013.99" y2="-37.0701" gradientUnits="userSpaceOnUse">
<stop stop-color="#E8DF38"/>
<stop offset="1" stop-color="#41D882"/>
</linearGradient>
<linearGradient id="paint3_linear_3957_2228" x1="-353.311" y1="42.9856" x2="-352.533" y2="11.1925" gradientUnits="userSpaceOnUse">
<stop stop-color="#E8DF38"/>
<stop offset="1" stop-color="#41D882"/>
</linearGradient>
</defs>
</svg>
