<svg width="54" height="58" viewBox="0 0 54 58" fill="none" xmlns="http://www.w3.org/2000/svg">
<path d="M27.2344 0.330078C12.5152 0.330078 0.984375 7.05664 0.984375 15.6426V41.8926C0.984375 50.4785 12.5152 57.2051 27.2344 57.2051C41.9535 57.2051 53.4844 50.4785 53.4844 41.8926V15.6426C53.4844 7.05664 41.9535 0.330078 27.2344 0.330078ZM49.1094 28.7676C49.1094 31.398 46.9547 34.0805 43.2004 36.1285C38.973 38.4336 33.302 39.7051 27.2344 39.7051C21.1668 39.7051 15.4957 38.4336 11.2684 36.1285C7.51406 34.0805 5.35938 31.398 5.35938 28.7676V24.2176C10.0242 28.3191 18.0004 30.9551 27.2344 30.9551C36.4684 30.9551 44.4445 28.3082 49.1094 24.2176V28.7676ZM11.2684 8.28164C15.4957 5.97656 21.1668 4.70508 27.2344 4.70508C33.302 4.70508 38.973 5.97656 43.2004 8.28164C46.9547 10.3297 49.1094 13.0121 49.1094 15.6426C49.1094 18.273 46.9547 20.9555 43.2004 23.0035C38.973 25.3086 33.302 26.5801 27.2344 26.5801C21.1668 26.5801 15.4957 25.3086 11.2684 23.0035C7.51406 20.9555 5.35938 18.273 5.35938 15.6426C5.35938 13.0121 7.51406 10.3297 11.2684 8.28164ZM43.2004 49.2535C38.973 51.5586 33.302 52.8301 27.2344 52.8301C21.1668 52.8301 15.4957 51.5586 11.2684 49.2535C7.51406 47.2055 5.35938 44.523 5.35938 41.8926V37.3426C10.0242 41.4441 18.0004 44.0801 27.2344 44.0801C36.4684 44.0801 44.4445 41.4332 49.1094 37.3426V41.8926C49.1094 44.523 46.9547 47.2055 43.2004 49.2535Z" fill="url(#paint0_linear_3957_1900)"/>
<defs>
<linearGradient id="paint0_linear_3957_1900" x1="-1239.56" y1="63.2635" x2="-1236.62" y2="-48.691" gradientUnits="userSpaceOnUse">
<stop stop-color="#E8DF38"/>
<stop offset="1" stop-color="#41D882"/>
</linearGradient>
</defs>
</svg>
