<svg width="47" height="45" viewBox="0 0 47 45" fill="none" xmlns="http://www.w3.org/2000/svg">
<path d="M45.9699 26.5328C45.4399 24.5533 44.4538 22.7254 43.0906 21.1954C41.7273 19.6655 40.0247 18.476 38.1191 17.7222C36.2135 16.9684 34.1579 16.6714 32.1169 16.8547C30.0759 17.0381 28.1062 17.6968 26.3655 18.7782L29.9508 4.46316C30.0398 4.1075 30.0148 3.73289 29.8794 3.39221C29.7439 3.05152 29.505 2.76197 29.1961 2.56441C27.7077 1.62456 26.0455 0.993718 24.3083 0.709418C22.5711 0.425119 20.7945 0.493173 19.0841 0.909531C17.3738 1.32589 15.7646 2.08204 14.3525 3.133C12.9403 4.18395 11.754 5.50824 10.8641 7.02704C9.97426 8.54585 9.39898 10.2281 9.17255 11.9738C8.94612 13.7195 9.07316 15.4929 9.54611 17.1885C10.0191 18.884 10.8283 20.4672 11.9255 21.8436C13.0228 23.2201 14.3858 24.3617 15.9333 25.2007L1.74301 29.2541C1.39047 29.3545 1.07836 29.5631 0.85072 29.8504C0.623078 30.1377 0.491397 30.4892 0.474258 30.8553C0.339576 33.8433 1.22946 36.7876 2.99655 39.2007C4.76365 41.6139 7.30195 43.3511 10.1911 44.1247C11.3055 44.4239 12.4542 44.5761 13.608 44.5775C15.3662 44.5729 17.1056 44.2154 18.7232 43.5263C20.3408 42.8373 21.8036 41.8306 23.025 40.5659C24.2465 39.3012 25.2017 37.8042 25.8341 36.1637C26.4665 34.5231 26.7633 32.7724 26.7068 31.015L37.3118 41.2788C37.5755 41.5339 37.9128 41.6997 38.2759 41.7527C38.639 41.8057 39.0095 41.7432 39.3352 41.5741C41.9887 40.1973 44.0927 37.956 45.2992 35.2209C46.5056 32.4858 46.7422 29.4207 45.9699 26.5328ZM23.5349 29.3438C22.676 29.4494 21.8052 29.2979 21.0324 28.9086C20.2597 28.5192 19.6197 27.9095 19.1935 27.1564C18.7673 26.4034 18.574 25.5408 18.638 24.6779C18.702 23.8149 19.0204 22.9904 19.5531 22.3084C20.0857 21.6265 20.8086 21.1178 21.6304 20.8467C22.4521 20.5756 23.3358 20.5543 24.1696 20.7855C25.0035 21.0166 25.7501 21.4898 26.315 22.1453C26.8799 22.8007 27.2378 23.609 27.3433 24.4678C27.4848 25.6195 27.1631 26.7801 26.4489 27.6945C25.7347 28.6089 24.6865 29.2022 23.5349 29.3438Z" fill="url(#paint0_linear_3957_2128)"/>
<path d="M25.8805 18.6567L25.5805 19.8544L26.6294 19.2029C28.3037 18.1627 30.1984 17.5291 32.1617 17.3527C34.1249 17.1763 36.1022 17.4621 37.9352 18.1872C39.7682 18.9122 41.4059 20.0564 42.7173 21.5281C44.0286 22.9997 44.9771 24.758 45.4869 26.662C46.2298 29.4399 46.0022 32.3882 44.8417 35.0191C43.6812 37.65 41.6573 39.806 39.1049 41.1303L39.1047 41.1304C38.8721 41.2512 38.6074 41.2958 38.3481 41.258C38.0887 41.2201 37.8478 41.1017 37.6594 40.9194L27.0545 30.6558L26.1673 29.7972L26.207 31.0311C26.2614 32.7216 25.9759 34.4057 25.3676 35.9838C24.7592 37.562 23.8403 39.002 22.6654 40.2185C21.4904 41.4351 20.0833 42.4035 18.5272 43.0663C16.9714 43.7291 15.2984 44.073 13.6073 44.0775C12.4975 44.0761 11.3926 43.9296 10.3208 43.6418L10.3205 43.6417C7.54134 42.8976 5.09973 41.2266 3.39996 38.9053C1.70028 36.5843 0.844297 33.7523 0.973728 30.8784C0.986042 30.6169 1.08009 30.366 1.24261 30.1609C1.40521 29.9557 1.62815 29.8067 1.87996 29.735L1.88034 29.7349L16.0707 25.6814L17.2486 25.3449L16.1716 24.7611C14.683 23.9541 13.372 22.856 12.3165 21.5319C11.261 20.2079 10.4827 18.6851 10.0277 17.0541C9.57279 15.4231 9.45059 13.7173 9.6684 12.0381C9.8862 10.359 10.4396 8.74075 11.2955 7.27981C12.1515 5.81886 13.2926 4.54503 14.651 3.53411C16.0093 2.52319 17.5572 1.79584 19.2024 1.39534C20.8476 0.994847 22.5565 0.929385 24.2275 1.20285C25.898 1.47624 27.4965 2.08274 28.9278 2.98631C29.1479 3.1274 29.3182 3.33395 29.4147 3.57689C29.5114 3.82018 29.5293 4.08769 29.4658 4.34168C29.4658 4.34174 29.4658 4.3418 29.4658 4.34185L25.8805 18.6567ZM20.8074 29.3551C21.6685 29.7889 22.6389 29.9577 23.5959 29.84C24.8791 29.6823 26.0471 29.0212 26.8429 28.0023C27.6388 26.9834 27.9973 25.6901 27.8396 24.4069C27.722 23.4499 27.3232 22.5492 26.6938 21.8189C26.0643 21.0885 25.2324 20.5612 24.3032 20.3036C23.374 20.0461 22.3894 20.0698 21.4737 20.3719C20.5581 20.674 19.7525 21.2408 19.159 22.0007C18.5655 22.7605 18.2107 23.6793 18.1393 24.6409C18.068 25.6025 18.2834 26.5636 18.7584 27.4027C19.2333 28.2418 19.9464 28.9213 20.8074 29.3551Z" stroke="white" stroke-opacity="0.3"/>
<defs>
<linearGradient id="paint0_linear_3957_2128" x1="-1085.42" y1="49.2688" x2="-1083.4" y2="-37.4348" gradientUnits="userSpaceOnUse">
<stop stop-color="#E8DF38"/>
<stop offset="1" stop-color="#41D882"/>
</linearGradient>
</defs>
</svg>
