<svg width="47" height="46" viewBox="0 0 47 46" fill="none" xmlns="http://www.w3.org/2000/svg">
<path d="M23.7496 12.4996C21.6729 12.4996 19.6428 13.1154 17.9161 14.2692C16.1894 15.4229 14.8436 17.0628 14.0489 18.9814C13.2542 20.9001 13.0462 23.0113 13.4514 25.0481C13.8565 27.0849 14.8565 28.9558 16.325 30.4242C17.7934 31.8927 19.6644 32.8927 21.7012 33.2979C23.738 33.703 25.8492 33.4951 27.7678 32.7003C29.6864 31.9056 31.3263 30.5598 32.48 28.8331C33.6338 27.1064 34.2496 25.0763 34.2496 22.9996C34.2467 20.2157 33.1395 17.5467 31.171 15.5782C29.2025 13.6097 26.5335 12.5025 23.7496 12.4996ZM23.7496 29.9996C22.3651 29.9996 21.0118 29.5891 19.8606 28.8199C18.7095 28.0507 17.8123 26.9575 17.2825 25.6784C16.7526 24.3993 16.614 22.9918 16.8841 21.634C17.1542 20.2761 17.8209 19.0288 18.7999 18.0499C19.7788 17.0709 21.0261 16.4042 22.384 16.1341C23.7418 15.864 25.1493 16.0026 26.4284 16.5325C27.7075 17.0623 28.8007 17.9595 29.5699 19.1106C30.3391 20.2618 30.7496 21.6151 30.7496 22.9996C30.7496 24.8561 30.0121 26.6366 28.6994 27.9494C27.3866 29.2621 25.6061 29.9996 23.7496 29.9996ZM42.9996 23.4721C43.0084 23.1571 43.0084 22.8421 42.9996 22.5271L46.2634 18.4496C46.4345 18.2355 46.5529 17.9842 46.6092 17.716C46.6654 17.4477 46.6579 17.17 46.5871 16.9052C46.0511 14.8944 45.2508 12.9635 44.2071 11.163C44.0703 10.9275 43.8805 10.7271 43.6526 10.5779C43.4247 10.4286 43.1652 10.3346 42.8946 10.3034L37.7059 9.72586C37.49 9.49836 37.2713 9.27961 37.0496 9.06961L36.4371 3.86774C36.4056 3.59695 36.3113 3.33727 36.1616 3.1094C36.012 2.88152 35.8112 2.69176 35.5752 2.55524C33.7749 1.51234 31.8439 0.713467 29.833 0.179612C29.5683 0.108868 29.2906 0.101309 29.0223 0.157542C28.7541 0.213776 28.5028 0.33223 28.2887 0.503362L24.2221 3.74961C23.9071 3.74961 23.5921 3.74961 23.2771 3.74961L19.1996 0.492424C18.9855 0.321292 18.7342 0.202838 18.466 0.146605C18.1977 0.0903713 17.92 0.0979305 17.6552 0.168674C15.6444 0.704671 13.7135 1.50498 11.913 2.54867C11.6775 2.68545 11.4771 2.87532 11.3279 3.10318C11.1786 3.33104 11.0846 3.59059 11.0534 3.86117L10.4759 9.05867C10.2484 9.27597 10.0296 9.49472 9.81961 9.71492L4.61774 10.3121C4.34695 10.3436 4.08727 10.4379 3.8594 10.5876C3.63152 10.7372 3.44176 10.938 3.30524 11.174C2.26256 12.9747 1.463 14.9055 0.927424 16.9162C0.85698 17.1811 0.849775 17.4589 0.90639 17.7272C0.963005 17.9955 1.08186 18.2467 1.25336 18.4605L4.49961 22.5271C4.49961 22.8421 4.49961 23.1571 4.49961 23.4721L1.24242 27.5496C1.07129 27.7637 0.952838 28.015 0.896605 28.2832C0.840371 28.5515 0.84793 28.8292 0.918674 29.094C1.45467 31.1048 2.25498 33.0357 3.29867 34.8362C3.43545 35.0717 3.62532 35.2721 3.85318 35.4214C4.08104 35.5706 4.34059 35.6646 4.61117 35.6959L9.79992 36.2734C10.0172 36.5009 10.236 36.7196 10.4562 36.9296L11.0621 42.1315C11.0936 42.4023 11.1879 42.662 11.3376 42.8898C11.4872 43.1177 11.688 43.3075 11.924 43.444C13.7247 44.4867 15.6555 45.2862 17.6662 45.8218C17.9311 45.8922 18.2089 45.8994 18.4772 45.8428C18.7455 45.7862 18.9967 45.6674 19.2105 45.4959L23.2771 42.2496C23.5921 42.2584 23.9071 42.2584 24.2221 42.2496L28.2996 45.5134C28.5137 45.6845 28.765 45.8029 29.0332 45.8592C29.3015 45.9154 29.5792 45.9079 29.844 45.8371C31.8552 45.3021 33.7862 44.5017 35.5862 43.4571C35.8217 43.3203 36.0221 43.1305 36.1714 42.9026C36.3206 42.6747 36.4146 42.4152 36.4459 42.1446L37.0234 36.9559C37.2509 36.74 37.4696 36.5213 37.6796 36.2996L42.8815 35.6871C43.1523 35.6556 43.412 35.5613 43.6398 35.4116C43.8677 35.262 44.0575 35.0612 44.194 34.8252C45.2367 33.0246 46.0362 31.0937 46.5718 29.083C46.6422 28.8181 46.6494 28.5403 46.5928 28.272C46.5362 28.0038 46.4174 27.7526 46.2459 27.5387L42.9996 23.4721ZM39.4777 22.0502C39.5149 22.6826 39.5149 23.3166 39.4777 23.949C39.4517 24.3819 39.5873 24.8091 39.8584 25.1477L42.9624 29.0262C42.6062 30.1581 42.1502 31.2562 41.5996 32.3074L36.6559 32.8674C36.2253 32.9152 35.8278 33.121 35.5402 33.4449C35.1192 33.9185 34.6707 34.367 34.1971 34.788C33.8732 35.0756 33.6674 35.4731 33.6196 35.9037L33.0705 40.8431C32.0194 41.3939 30.9214 41.85 29.7893 42.2059L25.9087 39.1018C25.5981 38.8537 25.2124 38.7187 24.8149 38.719H24.7099C24.0776 38.7562 23.4435 38.7562 22.8112 38.719C22.3784 38.6942 21.9516 38.8297 21.6124 39.0996L17.723 42.2059C16.5911 41.8497 15.493 41.3936 14.4418 40.8431L13.8818 35.9059C13.834 35.4753 13.6282 35.0778 13.3043 34.7902C12.8307 34.3692 12.3822 33.9207 11.9612 33.4471C11.6736 33.1232 11.2761 32.9174 10.8455 32.8696L5.90617 32.3184C5.35534 31.2673 4.89927 30.1692 4.54336 29.0371L7.64742 25.1565C7.91847 24.8179 8.05411 24.3907 8.02805 23.9577C7.99086 23.3254 7.99086 22.6914 8.02805 22.059C8.05411 21.626 7.91847 21.1988 7.64742 20.8602L4.54336 16.973C4.89954 15.8411 5.35561 14.743 5.90617 13.6918L10.8434 13.1318C11.2739 13.084 11.6714 12.8782 11.959 12.5543C12.3801 12.0807 12.8285 11.6322 13.3021 11.2112C13.6273 10.9234 13.834 10.525 13.8818 10.0934L14.4309 5.15617C15.482 4.60534 16.5801 4.14927 17.7121 3.79336L21.5927 6.89742C21.9313 7.16847 22.3585 7.30411 22.7915 7.27805C23.4239 7.24086 24.0579 7.24086 24.6902 7.27805C25.123 7.30286 25.5498 7.16735 25.889 6.89742L29.7762 3.79336C30.9081 4.14954 32.0062 4.60561 33.0574 5.15617L33.6174 10.0934C33.6652 10.5239 33.871 10.9214 34.1949 11.209C34.6685 11.6301 35.117 12.0785 35.538 12.5521C35.8256 12.8761 36.2231 13.0818 36.6537 13.1296L41.5931 13.6787C42.1439 14.7298 42.6 15.8279 42.9559 16.9599L39.8518 20.8405C39.5781 21.182 39.4423 21.6136 39.4712 22.0502H39.4777Z" fill="black"/>
<path d="M23.7496 12.4996C21.6729 12.4996 19.6428 13.1154 17.9161 14.2692C16.1894 15.4229 14.8436 17.0628 14.0489 18.9814C13.2542 20.9001 13.0462 23.0113 13.4514 25.0481C13.8565 27.0849 14.8565 28.9558 16.325 30.4242C17.7934 31.8927 19.6644 32.8927 21.7012 33.2979C23.738 33.703 25.8492 33.4951 27.7678 32.7003C29.6864 31.9056 31.3263 30.5598 32.48 28.8331C33.6338 27.1064 34.2496 25.0763 34.2496 22.9996C34.2467 20.2157 33.1395 17.5467 31.171 15.5782C29.2025 13.6097 26.5335 12.5025 23.7496 12.4996ZM23.7496 29.9996C22.3651 29.9996 21.0118 29.5891 19.8606 28.8199C18.7095 28.0507 17.8123 26.9575 17.2825 25.6784C16.7526 24.3993 16.614 22.9918 16.8841 21.634C17.1542 20.2761 17.8209 19.0288 18.7999 18.0499C19.7788 17.0709 21.0261 16.4042 22.384 16.1341C23.7418 15.864 25.1493 16.0026 26.4284 16.5325C27.7075 17.0623 28.8007 17.9595 29.5699 19.1106C30.3391 20.2618 30.7496 21.6151 30.7496 22.9996C30.7496 24.8561 30.0121 26.6366 28.6994 27.9494C27.3866 29.2621 25.6061 29.9996 23.7496 29.9996ZM42.9996 23.4721C43.0084 23.1571 43.0084 22.8421 42.9996 22.5271L46.2634 18.4496C46.4345 18.2355 46.5529 17.9842 46.6092 17.716C46.6654 17.4477 46.6579 17.17 46.5871 16.9052C46.0511 14.8944 45.2508 12.9635 44.2071 11.163C44.0703 10.9275 43.8805 10.7271 43.6526 10.5779C43.4247 10.4286 43.1652 10.3346 42.8946 10.3034L37.7059 9.72586C37.49 9.49836 37.2713 9.27961 37.0496 9.06961L36.4371 3.86774C36.4056 3.59695 36.3113 3.33727 36.1616 3.1094C36.012 2.88152 35.8112 2.69176 35.5752 2.55524C33.7749 1.51234 31.8439 0.713467 29.833 0.179612C29.5683 0.108868 29.2906 0.101309 29.0223 0.157542C28.7541 0.213776 28.5028 0.33223 28.2887 0.503362L24.2221 3.74961C23.9071 3.74961 23.5921 3.74961 23.2771 3.74961L19.1996 0.492424C18.9855 0.321292 18.7342 0.202838 18.466 0.146605C18.1977 0.0903713 17.92 0.0979305 17.6552 0.168674C15.6444 0.704671 13.7135 1.50498 11.913 2.54867C11.6775 2.68545 11.4771 2.87532 11.3279 3.10318C11.1786 3.33104 11.0846 3.59059 11.0534 3.86117L10.4759 9.05867C10.2484 9.27597 10.0296 9.49472 9.81961 9.71492L4.61774 10.3121C4.34695 10.3436 4.08727 10.4379 3.8594 10.5876C3.63152 10.7372 3.44176 10.938 3.30524 11.174C2.26256 12.9747 1.463 14.9055 0.927424 16.9162C0.85698 17.1811 0.849775 17.4589 0.90639 17.7272C0.963005 17.9955 1.08186 18.2467 1.25336 18.4605L4.49961 22.5271C4.49961 22.8421 4.49961 23.1571 4.49961 23.4721L1.24242 27.5496C1.07129 27.7637 0.952838 28.015 0.896605 28.2832C0.840371 28.5515 0.84793 28.8292 0.918674 29.094C1.45467 31.1048 2.25498 33.0357 3.29867 34.8362C3.43545 35.0717 3.62532 35.2721 3.85318 35.4214C4.08104 35.5706 4.34059 35.6646 4.61117 35.6959L9.79992 36.2734C10.0172 36.5009 10.236 36.7196 10.4562 36.9296L11.0621 42.1315C11.0936 42.4023 11.1879 42.662 11.3376 42.8898C11.4872 43.1177 11.688 43.3075 11.924 43.444C13.7247 44.4867 15.6555 45.2862 17.6662 45.8218C17.9311 45.8922 18.2089 45.8994 18.4772 45.8428C18.7455 45.7862 18.9967 45.6674 19.2105 45.4959L23.2771 42.2496C23.5921 42.2584 23.9071 42.2584 24.2221 42.2496L28.2996 45.5134C28.5137 45.6845 28.765 45.8029 29.0332 45.8592C29.3015 45.9154 29.5792 45.9079 29.844 45.8371C31.8552 45.3021 33.7862 44.5017 35.5862 43.4571C35.8217 43.3203 36.0221 43.1305 36.1714 42.9026C36.3206 42.6747 36.4146 42.4152 36.4459 42.1446L37.0234 36.9559C37.2509 36.74 37.4696 36.5213 37.6796 36.2996L42.8815 35.6871C43.1523 35.6556 43.412 35.5613 43.6398 35.4116C43.8677 35.262 44.0575 35.0612 44.194 34.8252C45.2367 33.0246 46.0362 31.0937 46.5718 29.083C46.6422 28.8181 46.6494 28.5403 46.5928 28.272C46.5362 28.0038 46.4174 27.7526 46.2459 27.5387L42.9996 23.4721ZM39.4777 22.0502C39.5149 22.6826 39.5149 23.3166 39.4777 23.949C39.4517 24.3819 39.5873 24.8091 39.8584 25.1477L42.9624 29.0262C42.6062 30.1581 42.1502 31.2562 41.5996 32.3074L36.6559 32.8674C36.2253 32.9152 35.8278 33.121 35.5402 33.4449C35.1192 33.9185 34.6707 34.367 34.1971 34.788C33.8732 35.0756 33.6674 35.4731 33.6196 35.9037L33.0705 40.8431C32.0194 41.3939 30.9214 41.85 29.7893 42.2059L25.9087 39.1018C25.5981 38.8537 25.2124 38.7187 24.8149 38.719H24.7099C24.0776 38.7562 23.4435 38.7562 22.8112 38.719C22.3784 38.6942 21.9516 38.8297 21.6124 39.0996L17.723 42.2059C16.5911 41.8497 15.493 41.3936 14.4418 40.8431L13.8818 35.9059C13.834 35.4753 13.6282 35.0778 13.3043 34.7902C12.8307 34.3692 12.3822 33.9207 11.9612 33.4471C11.6736 33.1232 11.2761 32.9174 10.8455 32.8696L5.90617 32.3184C5.35534 31.2673 4.89927 30.1692 4.54336 29.0371L7.64742 25.1565C7.91847 24.8179 8.05411 24.3907 8.02805 23.9577C7.99086 23.3254 7.99086 22.6914 8.02805 22.059C8.05411 21.626 7.91847 21.1988 7.64742 20.8602L4.54336 16.973C4.89954 15.8411 5.35561 14.743 5.90617 13.6918L10.8434 13.1318C11.2739 13.084 11.6714 12.8782 11.959 12.5543C12.3801 12.0807 12.8285 11.6322 13.3021 11.2112C13.6273 10.9234 13.834 10.525 13.8818 10.0934L14.4309 5.15617C15.482 4.60534 16.5801 4.14927 17.7121 3.79336L21.5927 6.89742C21.9313 7.16847 22.3585 7.30411 22.7915 7.27805C23.4239 7.24086 24.0579 7.24086 24.6902 7.27805C25.123 7.30286 25.5498 7.16735 25.889 6.89742L29.7762 3.79336C30.9081 4.14954 32.0062 4.60561 33.0574 5.15617L33.6174 10.0934C33.6652 10.5239 33.871 10.9214 34.1949 11.209C34.6685 11.6301 35.117 12.0785 35.538 12.5521C35.8256 12.8761 36.2231 13.0818 36.6537 13.1296L41.5931 13.6787C42.1439 14.7298 42.6 15.8279 42.9559 16.9599L39.8518 20.8405C39.5781 21.182 39.4423 21.6136 39.4712 22.0502H39.4777Z" fill="url(#paint0_linear_3957_1733)"/>
<defs>
<linearGradient id="paint0_linear_3957_1733" x1="-1081.06" y1="50.7738" x2="-1078.87" y2="-39.3641" gradientUnits="userSpaceOnUse">
<stop stop-color="#E8DF38"/>
<stop offset="1" stop-color="#41D882"/>
</linearGradient>
</defs>
</svg>
