<svg width="46" height="46" viewBox="0 0 46 46" fill="none" xmlns="http://www.w3.org/2000/svg">
<path d="M23.25 0.25C18.7505 0.25 14.352 1.58426 10.6108 4.08407C6.86957 6.58387 3.95364 10.1369 2.23175 14.294C0.509857 18.451 0.0593314 23.0252 0.937145 27.4383C1.81496 31.8514 3.98169 35.905 7.16333 39.0867C10.345 42.2683 14.3986 44.435 18.8117 45.3129C23.2248 46.1907 27.799 45.7402 31.9561 44.0183C36.1131 42.2964 39.6661 39.3804 42.1659 35.6392C44.6657 31.898 46 27.4995 46 23C45.9936 16.9683 43.5947 11.1854 39.3297 6.92035C35.0646 2.65528 29.2817 0.25637 23.25 0.25ZM42.5 23C42.5019 25.4696 42.0265 27.9164 41.1 30.2056L31.3219 24.1922C30.9061 23.9356 30.4411 23.7694 29.9569 23.7044L24.965 23.0306C24.2772 22.9409 23.5781 23.0562 22.9555 23.3621C22.3329 23.6679 21.8144 24.1507 21.465 24.75H19.5575L18.7263 23.0306C18.4965 22.5519 18.1601 22.132 17.7431 21.8033C17.326 21.4746 16.8392 21.2457 16.32 21.1341L14.57 20.7556L16.2806 17.75H19.9359C20.5274 17.7488 21.1091 17.5984 21.6269 17.3125L24.3066 15.8337C24.542 15.7025 24.7621 15.5455 24.9628 15.3656L30.8494 10.0413C31.4396 9.51234 31.8318 8.79805 31.9615 8.01622C32.0911 7.23439 31.9504 6.43172 31.5625 5.74062L31.4838 5.59844C34.7777 7.1603 37.5611 9.6243 39.5111 12.7044C41.461 15.7846 42.4974 19.3545 42.5 23ZM26.5991 4.04312L28.5 7.44687L22.6134 12.7712L19.9359 14.25H16.2806C15.6654 14.2491 15.0608 14.4104 14.5277 14.7176C13.9947 15.0249 13.552 15.4672 13.2444 16L11.3347 19.3316L9.11438 13.4166L11.5075 7.7575C13.6258 6.1208 16.0625 4.94459 18.6617 4.30421C21.2608 3.66384 23.9651 3.57342 26.6013 4.03875L26.5991 4.04312ZM4.00001 23C3.99709 20.1388 4.63544 17.3133 5.86813 14.7312L8.34876 21.3528C8.55549 21.9011 8.89654 22.3886 9.34065 22.7708C9.78476 23.153 10.3177 23.4176 10.8906 23.5403L15.5784 24.5487L16.4119 26.2812C16.7011 26.8705 17.1494 27.3671 17.706 27.715C18.2626 28.0629 18.9055 28.2482 19.5619 28.25H19.8856L18.3041 31.8003C18.0254 32.4255 17.9362 33.1186 18.0473 33.7939C18.1585 34.4693 18.4653 35.0972 18.9297 35.6L18.9603 35.6306L23.25 40.0494L22.8256 42.2369C17.7984 42.1199 13.0159 40.0428 9.49878 36.4488C5.98163 32.8548 4.00835 28.0286 4.00001 23ZM26.4394 41.9831L26.6866 40.7122C26.7882 40.1722 26.7619 39.616 26.61 39.088C26.4581 38.56 26.1846 38.0749 25.8116 37.6716C25.8008 37.6619 25.7906 37.6517 25.7809 37.6409L21.5 33.2244L24.4969 26.5L29.4888 27.1737L39.49 33.325C38.0411 35.6005 36.1309 37.5468 33.8829 39.0382C31.635 40.5295 29.0992 41.5328 26.4394 41.9831Z" fill="url(#paint0_linear_3957_2256)"/>
<defs>
<linearGradient id="paint0_linear_3957_2256" x1="-1074.64" y1="50.5968" x2="-1072.46" y2="-38.976" gradientUnits="userSpaceOnUse">
<stop stop-color="#E8DF38"/>
<stop offset="1" stop-color="#41D882"/>
</linearGradient>
</defs>
</svg>
