<svg width="43" height="42" viewBox="0 0 43 42" fill="none" xmlns="http://www.w3.org/2000/svg">
<path d="M39.2542 0H3.6751C2.73148 0 1.82651 0.368749 1.15927 1.02513C0.492037 1.6815 0.117188 2.57174 0.117188 3.5V38.5C0.117188 39.4283 0.492037 40.3185 1.15927 40.9749C1.82651 41.6312 2.73148 42 3.6751 42H39.2542C40.1978 42 41.1028 41.6312 41.77 40.9749C42.4372 40.3185 42.8121 39.4283 42.8121 38.5V3.5C42.8121 2.57174 42.4372 1.6815 41.77 1.02513C41.1028 0.368749 40.1978 0 39.2542 0ZM12.5699 28C12.9217 28 13.2657 28.1026 13.5582 28.2949C13.8508 28.4872 14.0788 28.7605 14.2134 29.0803C14.3481 29.4001 14.3833 29.7519 14.3146 30.0914C14.246 30.4309 14.0766 30.7427 13.8278 30.9874C13.579 31.2322 13.262 31.3988 12.9169 31.4664C12.5718 31.5339 12.2142 31.4992 11.8891 31.3668C11.564 31.2343 11.2862 31.01 11.0907 30.7222C10.8952 30.4345 10.7909 30.0961 10.7909 29.75C10.7909 29.2859 10.9783 28.8407 11.312 28.5126C11.6456 28.1844 12.0981 28 12.5699 28ZM3.6751 3.5H10.7909V24.8019C9.60397 25.2147 8.60359 26.027 7.96659 27.0952C7.32959 28.1634 7.09697 29.4188 7.30986 30.6394C7.52275 31.86 8.16744 32.9673 9.12998 33.7656C10.0925 34.5638 11.3109 35.0016 12.5699 35.0016C13.8288 35.0016 15.0472 34.5638 16.0098 33.7656C16.9723 32.9673 17.617 31.86 17.8299 30.6394C18.0428 29.4188 17.8101 28.1634 17.1731 27.0952C16.5361 26.027 15.5358 25.2147 14.3488 24.8019V18.2241L25.0225 28.7241V38.5H3.6751V3.5ZM39.2542 38.5H28.5805V28C28.5806 27.7701 28.5348 27.5425 28.4455 27.33C28.3562 27.1176 28.2253 26.9245 28.0601 26.7619L14.3488 13.2759V3.5H21.4646V8.75C21.4645 8.97988 21.5103 9.20755 21.5996 9.41999C21.6889 9.63243 21.8198 9.82549 21.985 9.98813L25.5429 13.4881C25.1983 14.1939 25.0205 14.9671 25.0225 15.75C25.0225 16.7884 25.3355 17.8034 25.922 18.6667C26.5084 19.5301 27.3419 20.203 28.3171 20.6004C29.2923 20.9977 30.3653 21.1017 31.4006 20.8991C32.4358 20.6966 33.3868 20.1965 34.1331 19.4623C34.8795 18.7281 35.3878 17.7926 35.5937 16.7742C35.7997 15.7558 35.694 14.7002 35.29 13.7409C34.8861 12.7816 34.2021 11.9617 33.3244 11.3848C32.4468 10.8079 31.4149 10.5 30.3594 10.5C29.5634 10.4986 28.7773 10.6744 28.0601 11.0141L25.0225 8.02594V3.5H39.2542V38.5ZM30.3594 14C30.7113 14 31.0552 14.1026 31.3477 14.2949C31.6403 14.4872 31.8683 14.7605 32.003 15.0803C32.1376 15.4001 32.1728 15.7519 32.1042 16.0914C32.0355 16.4309 31.8661 16.7427 31.6173 16.9874C31.3685 17.2322 31.0516 17.3988 30.7065 17.4664C30.3614 17.5339 30.0037 17.4992 29.6786 17.3668C29.3536 17.2343 29.0757 17.01 28.8803 16.7222C28.6848 16.4345 28.5805 16.0961 28.5805 15.75C28.5805 15.2859 28.7679 14.8408 29.1015 14.5126C29.4351 14.1844 29.8876 14 30.3594 14Z" fill="black"/>
<path d="M39.2542 0H3.6751C2.73148 0 1.82651 0.368749 1.15927 1.02513C0.492037 1.6815 0.117188 2.57174 0.117188 3.5V38.5C0.117188 39.4283 0.492037 40.3185 1.15927 40.9749C1.82651 41.6312 2.73148 42 3.6751 42H39.2542C40.1978 42 41.1028 41.6312 41.77 40.9749C42.4372 40.3185 42.8121 39.4283 42.8121 38.5V3.5C42.8121 2.57174 42.4372 1.6815 41.77 1.02513C41.1028 0.368749 40.1978 0 39.2542 0ZM12.5699 28C12.9217 28 13.2657 28.1026 13.5582 28.2949C13.8508 28.4872 14.0788 28.7605 14.2134 29.0803C14.3481 29.4001 14.3833 29.7519 14.3146 30.0914C14.246 30.4309 14.0766 30.7427 13.8278 30.9874C13.579 31.2322 13.262 31.3988 12.9169 31.4664C12.5718 31.5339 12.2142 31.4992 11.8891 31.3668C11.564 31.2343 11.2862 31.01 11.0907 30.7222C10.8952 30.4345 10.7909 30.0961 10.7909 29.75C10.7909 29.2859 10.9783 28.8407 11.312 28.5126C11.6456 28.1844 12.0981 28 12.5699 28ZM3.6751 3.5H10.7909V24.8019C9.60397 25.2147 8.60359 26.027 7.96659 27.0952C7.32959 28.1634 7.09697 29.4188 7.30986 30.6394C7.52275 31.86 8.16744 32.9673 9.12998 33.7656C10.0925 34.5638 11.3109 35.0016 12.5699 35.0016C13.8288 35.0016 15.0472 34.5638 16.0098 33.7656C16.9723 32.9673 17.617 31.86 17.8299 30.6394C18.0428 29.4188 17.8101 28.1634 17.1731 27.0952C16.5361 26.027 15.5358 25.2147 14.3488 24.8019V18.2241L25.0225 28.7241V38.5H3.6751V3.5ZM39.2542 38.5H28.5805V28C28.5806 27.7701 28.5348 27.5425 28.4455 27.33C28.3562 27.1176 28.2253 26.9245 28.0601 26.7619L14.3488 13.2759V3.5H21.4646V8.75C21.4645 8.97988 21.5103 9.20755 21.5996 9.41999C21.6889 9.63243 21.8198 9.82549 21.985 9.98813L25.5429 13.4881C25.1983 14.1939 25.0205 14.9671 25.0225 15.75C25.0225 16.7884 25.3355 17.8034 25.922 18.6667C26.5084 19.5301 27.3419 20.203 28.3171 20.6004C29.2923 20.9977 30.3653 21.1017 31.4006 20.8991C32.4358 20.6966 33.3868 20.1965 34.1331 19.4623C34.8795 18.7281 35.3878 17.7926 35.5937 16.7742C35.7997 15.7558 35.694 14.7002 35.29 13.7409C34.8861 12.7816 34.2021 11.9617 33.3244 11.3848C32.4468 10.8079 31.4149 10.5 30.3594 10.5C29.5634 10.4986 28.7773 10.6744 28.0601 11.0141L25.0225 8.02594V3.5H39.2542V38.5ZM30.3594 14C30.7113 14 31.0552 14.1026 31.3477 14.2949C31.6403 14.4872 31.8683 14.7605 32.003 15.0803C32.1376 15.4001 32.1728 15.7519 32.1042 16.0914C32.0355 16.4309 31.8661 16.7427 31.6173 16.9874C31.3685 17.2322 31.0516 17.3988 30.7065 17.4664C30.3614 17.5339 30.0037 17.4992 29.6786 17.3668C29.3536 17.2343 29.0757 17.01 28.8803 16.7222C28.6848 16.4345 28.5805 16.0961 28.5805 15.75C28.5805 15.2859 28.7679 14.8408 29.1015 14.5126C29.4351 14.1844 29.8876 14 30.3594 14Z" fill="url(#paint0_linear_3957_1725)"/>
<defs>
<linearGradient id="paint0_linear_3957_1725" x1="-1008.74" y1="46.4739" x2="-1006.76" y2="-36.2102" gradientUnits="userSpaceOnUse">
<stop stop-color="#E8DF38"/>
<stop offset="1" stop-color="#41D882"/>
</linearGradient>
</defs>
</svg>
