<svg width="54" height="34" viewBox="0 0 54 34" fill="none" xmlns="http://www.w3.org/2000/svg">
<path d="M49.75 0.25H4.25C3.32174 0.25 2.4315 0.618749 1.77513 1.27513C1.11875 1.9315 0.75 2.82174 0.75 3.75V31.75C0.75 32.2141 0.934374 32.6592 1.26256 32.9874C1.59075 33.3156 2.03587 33.5 2.5 33.5C2.96413 33.5 3.40925 33.3156 3.73744 32.9874C4.06563 32.6592 4.25 32.2141 4.25 31.75V28.25H7.75V31.75C7.75 32.2141 7.93437 32.6592 8.26256 32.9874C8.59075 33.3156 9.03587 33.5 9.5 33.5C9.96413 33.5 10.4092 33.3156 10.7374 32.9874C11.0656 32.6592 11.25 32.2141 11.25 31.75V28.25H14.75V31.75C14.75 32.2141 14.9344 32.6592 15.2626 32.9874C15.5908 33.3156 16.0359 33.5 16.5 33.5C16.9641 33.5 17.4092 33.3156 17.7374 32.9874C18.0656 32.6592 18.25 32.2141 18.25 31.75V28.25H21.75V31.75C21.75 32.2141 21.9344 32.6592 22.2626 32.9874C22.5908 33.3156 23.0359 33.5 23.5 33.5C23.9641 33.5 24.4092 33.3156 24.7374 32.9874C25.0656 32.6592 25.25 32.2141 25.25 31.75V28.25H28.75V31.75C28.75 32.2141 28.9344 32.6592 29.2626 32.9874C29.5907 33.3156 30.0359 33.5 30.5 33.5C30.9641 33.5 31.4093 33.3156 31.7374 32.9874C32.0656 32.6592 32.25 32.2141 32.25 31.75V28.25H35.75V31.75C35.75 32.2141 35.9344 32.6592 36.2626 32.9874C36.5908 33.3156 37.0359 33.5 37.5 33.5C37.9641 33.5 38.4092 33.3156 38.7374 32.9874C39.0656 32.6592 39.25 32.2141 39.25 31.75V28.25H42.75V31.75C42.75 32.2141 42.9344 32.6592 43.2626 32.9874C43.5908 33.3156 44.0359 33.5 44.5 33.5C44.9641 33.5 45.4092 33.3156 45.7374 32.9874C46.0656 32.6592 46.25 32.2141 46.25 31.75V28.25H49.75V31.75C49.75 32.2141 49.9344 32.6592 50.2626 32.9874C50.5908 33.3156 51.0359 33.5 51.5 33.5C51.9641 33.5 52.4092 33.3156 52.7374 32.9874C53.0656 32.6592 53.25 32.2141 53.25 31.75V3.75C53.25 2.82174 52.8812 1.9315 52.2249 1.27513C51.5685 0.618749 50.6783 0.25 49.75 0.25ZM4.25 3.75H49.75V24.75H4.25V3.75ZM23.5 21.25C23.9641 21.25 24.4092 21.0656 24.7374 20.7374C25.0656 20.4093 25.25 19.9641 25.25 19.5V9C25.25 8.53587 25.0656 8.09075 24.7374 7.76256C24.4092 7.43437 23.9641 7.25 23.5 7.25H9.5C9.03587 7.25 8.59075 7.43437 8.26256 7.76256C7.93437 8.09075 7.75 8.53587 7.75 9V19.5C7.75 19.9641 7.93437 20.4093 8.26256 20.7374C8.59075 21.0656 9.03587 21.25 9.5 21.25H23.5ZM11.25 10.75H21.75V17.75H11.25V10.75ZM30.5 21.25H44.5C44.9641 21.25 45.4092 21.0656 45.7374 20.7374C46.0656 20.4093 46.25 19.9641 46.25 19.5V9C46.25 8.53587 46.0656 8.09075 45.7374 7.76256C45.4092 7.43437 44.9641 7.25 44.5 7.25H30.5C30.0359 7.25 29.5907 7.43437 29.2626 7.76256C28.9344 8.09075 28.75 8.53587 28.75 9V19.5C28.75 19.9641 28.9344 20.4093 29.2626 20.7374C29.5907 21.0656 30.0359 21.25 30.5 21.25ZM32.25 10.75H42.75V17.75H32.25V10.75Z" fill="url(#paint0_linear_3958_2947)"/>
<defs>
<linearGradient id="paint0_linear_3958_2947" x1="-1239.79" y1="37.0419" x2="-1238.79" y2="-28.4383" gradientUnits="userSpaceOnUse">
<stop stop-color="#E8DF38"/>
<stop offset="1" stop-color="#41D882"/>
</linearGradient>
</defs>
</svg>
