<svg width="40" height="54" viewBox="0 0 40 54" fill="none" xmlns="http://www.w3.org/2000/svg">
<path d="M39.1988 24.8507C39.1325 24.5702 38.998 24.3104 38.8072 24.0944C38.6164 23.8784 38.3752 23.7129 38.105 23.6126L25.5028 18.8854L28.7097 2.84444C28.7823 2.47173 28.7317 2.08552 28.5656 1.74408C28.3995 1.40265 28.1268 1.12451 27.7887 0.95164C27.4506 0.778773 27.0655 0.720556 26.6914 0.785774C26.3174 0.850993 25.9746 1.03611 25.715 1.31319L1.21501 27.5632C1.01603 27.7729 0.872078 28.0286 0.796027 28.3074C0.719976 28.5863 0.714191 28.8797 0.77919 29.1614C0.844189 29.443 0.977947 29.7042 1.16851 29.9215C1.35908 30.1389 1.60052 30.3057 1.87126 30.4069L14.4778 35.1341L11.2797 51.1576C11.2071 51.5303 11.2577 51.9165 11.4238 52.2579C11.5899 52.5993 11.8626 52.8775 12.2007 53.0504C12.5388 53.2232 12.9239 53.2814 13.298 53.2162C13.672 53.151 14.0148 52.9659 14.2744 52.6888L38.7744 26.4388C38.9698 26.2291 39.1107 25.9746 39.1847 25.6977C39.2586 25.4208 39.2635 25.1299 39.1988 24.8507ZM15.9194 45.8135L18.2097 34.3554C18.2917 33.949 18.2267 33.5267 18.0264 33.1638C17.8261 32.8008 17.5035 32.5208 17.1159 32.3735L5.5572 28.0313L24.0678 8.19944L21.7797 19.6576C21.6977 20.0639 21.7627 20.4862 21.963 20.8492C22.1633 21.2121 22.4859 21.4922 22.8734 21.6394L34.4235 25.9707L15.9194 45.8135Z" fill="url(#paint0_linear_3958_6165)"/>
<defs>
<linearGradient id="paint0_linear_3958_6165" x1="-909.224" y1="58.8328" x2="-905.808" y2="-44.4338" gradientUnits="userSpaceOnUse">
<stop stop-color="#E8DF38"/>
<stop offset="1" stop-color="#41D882"/>
</linearGradient>
</defs>
</svg>
