<svg width="50" height="42" viewBox="0 0 50 42" fill="none" xmlns="http://www.w3.org/2000/svg">
<path d="M49.7344 21.768C49.7344 22.2322 49.55 22.6773 49.2218 23.0055C48.8936 23.3337 48.4485 23.518 47.9844 23.518H42.065L33.8006 40.0512C33.6551 40.3419 33.4315 40.5864 33.1549 40.7572C32.8782 40.9279 32.5595 41.0183 32.2344 41.018H32.1469C31.8074 41.0013 31.4802 40.886 31.2052 40.6863C30.9302 40.4867 30.7192 40.2112 30.5981 39.8937L18.0922 7.05929L11.0769 22.4921C10.9379 22.7979 10.7138 23.0573 10.4314 23.2392C10.1491 23.4211 9.82029 23.5179 9.48438 23.518H2.48438C2.02025 23.518 1.57513 23.3337 1.24694 23.0055C0.918749 22.6773 0.734375 22.2322 0.734375 21.768C0.734375 21.3039 0.918749 20.8588 1.24694 20.5306C1.57513 20.2024 2.02025 20.018 2.48438 20.018H8.35781L16.6419 1.79397C16.7847 1.47949 17.0174 1.2143 17.3106 1.0318C17.6039 0.849308 17.9446 0.757669 18.2898 0.768428C18.635 0.779187 18.9693 0.891863 19.2506 1.09227C19.532 1.29267 19.7477 1.57183 19.8706 1.8946L32.4509 34.9258L39.4181 20.9893C39.563 20.6977 39.7863 20.4524 40.063 20.2808C40.3397 20.1092 40.6588 20.0182 40.9844 20.018H47.9844C48.4485 20.018 48.8936 20.2024 49.2218 20.5306C49.55 20.8588 49.7344 21.3039 49.7344 21.768Z" fill="url(#paint0_linear_3957_1908)"/>
<defs>
<linearGradient id="paint0_linear_3957_1908" x1="-1157.11" y1="45.3056" x2="-1155.53" y2="-33.9479" gradientUnits="userSpaceOnUse">
<stop stop-color="#E8DF38"/>
<stop offset="1" stop-color="#41D882"/>
</linearGradient>
</defs>
</svg>
