<svg width="42" height="40" viewBox="0 0 42 40" fill="none" xmlns="http://www.w3.org/2000/svg">
<path d="M38.5 21.75H3.5C2.57174 21.75 1.6815 22.1187 1.02513 22.7751C0.368749 23.4315 0 24.3217 0 25.25V35.75C0 36.6783 0.368749 37.5685 1.02513 38.2249C1.6815 38.8812 2.57174 39.25 3.5 39.25H38.5C39.4283 39.25 40.3185 38.8812 40.9749 38.2249C41.6312 37.5685 42 36.6783 42 35.75V25.25C42 24.3217 41.6312 23.4315 40.9749 22.7751C40.3185 22.1187 39.4283 21.75 38.5 21.75ZM38.5 35.75H3.5V25.25H38.5V35.75ZM38.5 0.75H3.5C2.57174 0.75 1.6815 1.11875 1.02513 1.77513C0.368749 2.4315 0 3.32174 0 4.25V14.75C0 15.6783 0.368749 16.5685 1.02513 17.2249C1.6815 17.8813 2.57174 18.25 3.5 18.25H38.5C39.4283 18.25 40.3185 17.8813 40.9749 17.2249C41.6312 16.5685 42 15.6783 42 14.75V4.25C42 3.32174 41.6312 2.4315 40.9749 1.77513C40.3185 1.11875 39.4283 0.75 38.5 0.75ZM38.5 14.75H3.5V4.25H38.5V14.75ZM35 9.5C35 10.0192 34.846 10.5267 34.5576 10.9584C34.2692 11.39 33.8592 11.7265 33.3795 11.9252C32.8999 12.1239 32.3721 12.1758 31.8629 12.0746C31.3537 11.9733 30.886 11.7233 30.5188 11.3562C30.1517 10.989 29.9017 10.5213 29.8004 10.0121C29.6992 9.50291 29.7511 8.97511 29.9498 8.49546C30.1485 8.0158 30.4849 7.60583 30.9166 7.31739C31.3483 7.02895 31.8558 6.875 32.375 6.875C33.0712 6.875 33.7389 7.15156 34.2312 7.64384C34.7234 8.13613 35 8.80381 35 9.5ZM35 30.5C35 31.0192 34.846 31.5267 34.5576 31.9584C34.2692 32.3901 33.8592 32.7265 33.3795 32.9252C32.8999 33.1239 32.3721 33.1758 31.8629 33.0746C31.3537 32.9733 30.886 32.7233 30.5188 32.3562C30.1517 31.989 29.9017 31.5213 29.8004 31.0121C29.6992 30.5029 29.7511 29.9751 29.9498 29.4955C30.1485 29.0158 30.4849 28.6058 30.9166 28.3174C31.3483 28.029 31.8558 27.875 32.375 27.875C33.0712 27.875 33.7389 28.1516 34.2312 28.6438C34.7234 29.1361 35 29.8038 35 30.5Z" fill="url(#paint0_linear_3958_2944)"/>
<defs>
<linearGradient id="paint0_linear_3958_2944" x1="-992.435" y1="43.3511" x2="-990.748" y2="-32.4484" gradientUnits="userSpaceOnUse">
<stop stop-color="#E8DF38"/>
<stop offset="1" stop-color="#41D882"/>
</linearGradient>
</defs>
</svg>
