<svg width="46" height="40" viewBox="0 0 46 40" fill="none" xmlns="http://www.w3.org/2000/svg">
<path d="M45.75 2.5V11.25C45.75 11.7141 45.5656 12.1592 45.2374 12.4874C44.9092 12.8156 44.4641 13 44 13C43.5359 13 43.0908 12.8156 42.7626 12.4874C42.4344 12.1592 42.25 11.7141 42.25 11.25V4.25H35.25C34.7859 4.25 34.3408 4.06563 34.0126 3.73744C33.6844 3.40925 33.5 2.96413 33.5 2.5C33.5 2.03587 33.6844 1.59075 34.0126 1.26256C34.3408 0.934375 34.7859 0.75 35.25 0.75H44C44.4641 0.75 44.9092 0.934375 45.2374 1.26256C45.5656 1.59075 45.75 2.03587 45.75 2.5ZM10.75 35.75H3.75V28.75C3.75 28.2859 3.56563 27.8407 3.23744 27.5126C2.90925 27.1844 2.46413 27 2 27C1.53587 27 1.09075 27.1844 0.762563 27.5126C0.434374 27.8407 0.25 28.2859 0.25 28.75V37.5C0.25 37.9641 0.434374 38.4092 0.762563 38.7374C1.09075 39.0656 1.53587 39.25 2 39.25H10.75C11.2141 39.25 11.6592 39.0656 11.9874 38.7374C12.3156 38.4092 12.5 37.9641 12.5 37.5C12.5 37.0359 12.3156 36.5908 11.9874 36.2626C11.6592 35.9344 11.2141 35.75 10.75 35.75ZM44 27C43.5359 27 43.0908 27.1844 42.7626 27.5126C42.4344 27.8407 42.25 28.2859 42.25 28.75V35.75H35.25C34.7859 35.75 34.3408 35.9344 34.0126 36.2626C33.6844 36.5908 33.5 37.0359 33.5 37.5C33.5 37.9641 33.6844 38.4092 34.0126 38.7374C34.3408 39.0656 34.7859 39.25 35.25 39.25H44C44.4641 39.25 44.9092 39.0656 45.2374 38.7374C45.5656 38.4092 45.75 37.9641 45.75 37.5V28.75C45.75 28.2859 45.5656 27.8407 45.2374 27.5126C44.9092 27.1844 44.4641 27 44 27ZM2 13C2.46413 13 2.90925 12.8156 3.23744 12.4874C3.56563 12.1592 3.75 11.7141 3.75 11.25V4.25H10.75C11.2141 4.25 11.6592 4.06563 11.9874 3.73744C12.3156 3.40925 12.5 2.96413 12.5 2.5C12.5 2.03587 12.3156 1.59075 11.9874 1.26256C11.6592 0.934375 11.2141 0.75 10.75 0.75H2C1.53587 0.75 1.09075 0.934375 0.762563 1.26256C0.434374 1.59075 0.25 2.03587 0.25 2.5V11.25C0.25 11.7141 0.434374 12.1592 0.762563 12.4874C1.09075 12.8156 1.53587 13 2 13ZM12.5 9.5C12.0359 9.5 11.5908 9.68437 11.2626 10.0126C10.9344 10.3408 10.75 10.7859 10.75 11.25V28.75C10.75 29.2141 10.9344 29.6593 11.2626 29.9874C11.5908 30.3156 12.0359 30.5 12.5 30.5C12.9641 30.5 13.4092 30.3156 13.7374 29.9874C14.0656 29.6593 14.25 29.2141 14.25 28.75V11.25C14.25 10.7859 14.0656 10.3408 13.7374 10.0126C13.4092 9.68437 12.9641 9.5 12.5 9.5ZM35.25 28.75V11.25C35.25 10.7859 35.0656 10.3408 34.7374 10.0126C34.4092 9.68437 33.9641 9.5 33.5 9.5C33.0359 9.5 32.5908 9.68437 32.2626 10.0126C31.9344 10.3408 31.75 10.7859 31.75 11.25V28.75C31.75 29.2141 31.9344 29.6593 32.2626 29.9874C32.5908 30.3156 33.0359 30.5 33.5 30.5C33.9641 30.5 34.4092 30.3156 34.7374 29.9874C35.0656 29.6593 35.25 29.2141 35.25 28.75ZM26.5 9.5C26.0359 9.5 25.5907 9.68437 25.2626 10.0126C24.9344 10.3408 24.75 10.7859 24.75 11.25V28.75C24.75 29.2141 24.9344 29.6593 25.2626 29.9874C25.5907 30.3156 26.0359 30.5 26.5 30.5C26.9641 30.5 27.4093 30.3156 27.7374 29.9874C28.0656 29.6593 28.25 29.2141 28.25 28.75V11.25C28.25 10.7859 28.0656 10.3408 27.7374 10.0126C27.4093 9.68437 26.9641 9.5 26.5 9.5ZM19.5 9.5C19.0359 9.5 18.5908 9.68437 18.2626 10.0126C17.9344 10.3408 17.75 10.7859 17.75 11.25V28.75C17.75 29.2141 17.9344 29.6593 18.2626 29.9874C18.5908 30.3156 19.0359 30.5 19.5 30.5C19.9641 30.5 20.4092 30.3156 20.7374 29.9874C21.0656 29.6593 21.25 29.2141 21.25 28.75V11.25C21.25 10.7859 21.0656 10.3408 20.7374 10.0126C20.4092 9.68437 19.9641 9.5 19.5 9.5Z" fill="url(#paint0_linear_3958_2941)"/>
<defs>
<linearGradient id="paint0_linear_3958_2941" x1="-1074.89" y1="43.3511" x2="-1073.33" y2="-32.4539" gradientUnits="userSpaceOnUse">
<stop stop-color="#E8DF38"/>
<stop offset="1" stop-color="#41D882"/>
</linearGradient>
</defs>
</svg>
