<svg width="44" height="54" viewBox="0 0 44 54" fill="none" xmlns="http://www.w3.org/2000/svg">
<path d="M42.4491 16.0013L38.0741 17.4209L40.7734 21.1397C40.9161 21.325 41.0201 21.5371 41.0794 21.7634C41.1387 21.9896 41.1521 22.2255 41.1187 22.457C41.0853 22.6884 41.0058 22.9109 40.885 23.1112C40.7641 23.3114 40.6044 23.4854 40.4151 23.6229C40.2259 23.7603 40.011 23.8585 39.7832 23.9115C39.5554 23.9645 39.3193 23.9713 39.0888 23.9315C38.8583 23.8917 38.6382 23.8061 38.4413 23.6798C38.2445 23.5534 38.075 23.3889 37.9428 23.1959L35.25 19.4772L32.5506 23.1959C32.2727 23.5571 31.8648 23.7956 31.4137 23.8607C30.9627 23.9257 30.504 23.8123 30.1353 23.5445C29.7666 23.2766 29.5169 22.8755 29.4393 22.4264C29.3618 21.9773 29.4625 21.5157 29.72 21.1397L32.4194 17.4209L28.0444 16.0013C27.6029 15.858 27.2364 15.5451 27.0255 15.1316C26.8147 14.7181 26.7767 14.2378 26.92 13.7962C27.0633 13.3547 27.3761 12.9883 27.7896 12.7774C28.2032 12.5665 28.6835 12.5286 29.125 12.6719L33.5 14.0938V9.5C33.5 9.03587 33.6844 8.59075 34.0126 8.26256C34.3408 7.93437 34.7859 7.75 35.25 7.75C35.7141 7.75 36.1593 7.93437 36.4874 8.26256C36.8156 8.59075 37 9.03587 37 9.5V14.0938L41.375 12.6741C41.8165 12.5305 42.297 12.5681 42.7107 12.7788C43.1244 12.9895 43.4375 13.3558 43.5811 13.7973C43.7247 14.2388 43.687 14.7193 43.4764 15.133C43.2657 15.5468 42.8993 15.8598 42.4578 16.0034L42.4491 16.0013ZM21.25 39.25C21.2493 40.5591 20.8816 41.8418 20.1886 42.9523C19.4955 44.0629 18.5049 44.9569 17.3293 45.5328C16.1537 46.1087 14.8402 46.3433 13.5379 46.2102C12.2356 46.077 10.9967 45.5813 9.962 44.7794C8.92728 43.9775 8.13816 42.9015 7.68426 41.6736C7.23035 40.4457 7.12986 39.1152 7.39418 37.8331C7.65851 36.5509 8.27707 35.3686 9.1796 34.4204C10.0821 33.4722 11.2325 32.796 12.5 32.4688V25.25C12.5 24.7859 12.6844 24.3408 13.0126 24.0126C13.3408 23.6844 13.7859 23.5 14.25 23.5C14.7141 23.5 15.1593 23.6844 15.4874 24.0126C15.8156 24.3408 16 24.7859 16 25.25V32.4688C17.5021 32.8589 18.8323 33.7363 19.7823 34.9634C20.7324 36.1905 21.2485 37.6981 21.25 39.25ZM17.75 39.25C17.75 38.5578 17.5447 37.8811 17.1601 37.3055C16.7756 36.7299 16.2289 36.2813 15.5894 36.0164C14.9499 35.7515 14.2461 35.6822 13.5672 35.8173C12.8883 35.9523 12.2646 36.2856 11.7751 36.7751C11.2856 37.2646 10.9523 37.8883 10.8173 38.5672C10.6822 39.2461 10.7515 39.9499 11.0164 40.5894C11.2813 41.2289 11.7299 41.7756 12.3055 42.1601C12.8811 42.5447 13.5578 42.75 14.25 42.75C15.1783 42.75 16.0685 42.3812 16.7249 41.7249C17.3813 41.0685 17.75 40.1783 17.75 39.25ZM28.25 39.25C28.2485 41.6173 27.6468 43.9455 26.5011 46.0171C25.3553 48.0886 23.703 49.8358 21.6986 51.0953C19.6942 52.3548 17.4032 53.0854 15.0397 53.219C12.6762 53.3525 10.3174 52.8845 8.18388 51.8588C6.05037 50.8331 4.2118 49.2831 2.84005 47.3538C1.4683 45.4244 0.608166 43.1788 0.340073 40.8267C0.0719793 38.4747 0.404678 36.0931 1.30706 33.9046C2.20945 31.716 3.65205 29.792 5.5 28.3125V9.5C5.5 7.17936 6.42187 4.95376 8.06282 3.31282C9.70376 1.67187 11.9294 0.75 14.25 0.75C16.5706 0.75 18.7962 1.67187 20.4372 3.31282C22.0781 4.95376 23 7.17936 23 9.5V28.3125C24.6385 29.6259 25.9609 31.2907 26.8696 33.1838C27.7783 35.077 28.2501 37.1501 28.25 39.25ZM24.75 39.25C24.7486 37.5571 24.3386 35.8896 23.5549 34.3891C22.7711 32.8886 21.6367 31.5995 20.2481 30.6313C20.0159 30.4691 19.8265 30.253 19.6962 30.0015C19.5659 29.7501 19.4986 29.4707 19.5 29.1875V9.5C19.5 8.10761 18.9469 6.77226 17.9623 5.78769C16.9777 4.80312 15.6424 4.25 14.25 4.25C12.8576 4.25 11.5223 4.80312 10.5377 5.78769C9.55313 6.77226 9 8.10761 9 9.5V29.1875C9.00003 29.4692 8.93203 29.7468 8.80178 29.9967C8.67153 30.2465 8.48288 30.4612 8.25188 30.6225C6.77023 31.6537 5.57947 33.0495 4.79455 34.6751C4.00963 36.3007 3.65707 38.1012 3.7709 39.9028C3.88473 41.7043 4.46111 43.4461 5.44439 44.96C6.42767 46.4739 7.78464 47.7087 9.3843 48.5452C10.9839 49.3817 12.7723 49.7917 14.5766 49.7356C16.3809 49.6794 18.1402 49.1591 19.6848 48.2247C21.2293 47.2904 22.5069 45.9736 23.3942 44.4015C24.2814 42.8294 24.7484 41.0552 24.75 39.25Z" fill="url(#paint0_linear_3958_2964)"/>
<defs>
<linearGradient id="paint0_linear_3958_2964" x1="-1025.67" y1="58.8327" x2="-1022.63" y2="-44.4752" gradientUnits="userSpaceOnUse">
<stop stop-color="#E8DF38"/>
<stop offset="1" stop-color="#41D882"/>
</linearGradient>
</defs>
</svg>
