<svg width="33" height="47" viewBox="0 0 33 47" fill="none" xmlns="http://www.w3.org/2000/svg">
<path d="M32.25 12.0462V4.25C32.25 3.32174 31.8813 2.4315 31.2249 1.77513C30.5685 1.11875 29.6783 0.75 28.75 0.75H4.25C3.32174 0.75 2.4315 1.11875 1.77513 1.77513C1.11875 2.4315 0.75 3.32174 0.75 4.25V12.125C0.751182 12.6681 0.878209 13.2036 1.12111 13.6894C1.36402 14.1753 1.71619 14.5982 2.15 14.925L13.5841 23.5L2.15 32.075C1.71619 32.4018 1.36402 32.8247 1.12111 33.3106C0.878209 33.7964 0.751182 34.3319 0.75 34.875V42.75C0.75 43.6783 1.11875 44.5685 1.77513 45.2249C2.4315 45.8812 3.32174 46.25 4.25 46.25H28.75C29.6783 46.25 30.5685 45.8812 31.2249 45.2249C31.8813 44.5685 32.25 43.6783 32.25 42.75V34.9538C32.2486 34.413 32.1225 33.8799 31.8816 33.3958C31.6407 32.9117 31.2914 32.4897 30.8609 32.1625L19.4028 23.5L30.8609 14.8397C31.2916 14.5122 31.641 14.0897 31.8819 13.6053C32.1228 13.1208 32.2488 12.5873 32.25 12.0462ZM27.4878 34H5.41594L16.5 25.6875L27.4878 34ZM4.25 42.75V37.5H28.75V42.75H4.25ZM28.75 12.0462L16.5 21.3125L4.25 12.125V4.25H28.75V12.0462Z" fill="black"/>
<path d="M32.25 12.0462V4.25C32.25 3.32174 31.8813 2.4315 31.2249 1.77513C30.5685 1.11875 29.6783 0.75 28.75 0.75H4.25C3.32174 0.75 2.4315 1.11875 1.77513 1.77513C1.11875 2.4315 0.75 3.32174 0.75 4.25V12.125C0.751182 12.6681 0.878209 13.2036 1.12111 13.6894C1.36402 14.1753 1.71619 14.5982 2.15 14.925L13.5841 23.5L2.15 32.075C1.71619 32.4018 1.36402 32.8247 1.12111 33.3106C0.878209 33.7964 0.751182 34.3319 0.75 34.875V42.75C0.75 43.6783 1.11875 44.5685 1.77513 45.2249C2.4315 45.8812 3.32174 46.25 4.25 46.25H28.75C29.6783 46.25 30.5685 45.8812 31.2249 45.2249C31.8813 44.5685 32.25 43.6783 32.25 42.75V34.9538C32.2486 34.413 32.1225 33.8799 31.8816 33.3958C31.6407 32.9117 31.2914 32.4897 30.8609 32.1625L19.4028 23.5L30.8609 14.8397C31.2916 14.5122 31.641 14.0897 31.8819 13.6053C32.1228 13.1208 32.2488 12.5873 32.25 12.0462ZM27.4878 34H5.41594L16.5 25.6875L27.4878 34ZM4.25 42.75V37.5H28.75V42.75H4.25ZM28.75 12.0462L16.5 21.3125L4.25 12.125V4.25H28.75V12.0462Z" fill="url(#paint0_linear_3958_6190)"/>
<defs>
<linearGradient id="paint0_linear_3958_6190" x1="-743.576" y1="51.0968" x2="-740.438" y2="-38.4188" gradientUnits="userSpaceOnUse">
<stop stop-color="#E8DF38"/>
<stop offset="1" stop-color="#41D882"/>
</linearGradient>
</defs>
</svg>
