<svg width="46" height="46" viewBox="0 0 46 46" fill="none" xmlns="http://www.w3.org/2000/svg">
<path d="M26.5 33.5C26.5 33.9641 26.3156 34.4092 25.9874 34.7374C25.6593 35.0656 25.2141 35.25 24.75 35.25C23.8218 35.25 22.9315 34.8812 22.2751 34.2249C21.6188 33.5685 21.25 32.6783 21.25 31.75V23C20.7859 23 20.3408 22.8156 20.0126 22.4874C19.6844 22.1592 19.5 21.7141 19.5 21.25C19.5 20.7859 19.6844 20.3408 20.0126 20.0126C20.3408 19.6844 20.7859 19.5 21.25 19.5C22.1783 19.5 23.0685 19.8687 23.7249 20.5251C24.3813 21.1815 24.75 22.0717 24.75 23V31.75C25.2141 31.75 25.6593 31.9344 25.9874 32.2626C26.3156 32.5907 26.5 33.0359 26.5 33.5ZM45.75 23C45.75 27.4995 44.4157 31.898 41.9159 35.6392C39.4161 39.3804 35.8631 42.2964 31.7061 44.0183C27.549 45.7402 22.9748 46.1907 18.5617 45.3129C14.1486 44.435 10.095 42.2683 6.91333 39.0867C3.73169 35.905 1.56496 31.8514 0.687145 27.4383C-0.190669 23.0252 0.259857 18.451 1.98175 14.294C3.70364 10.1369 6.61957 6.58387 10.3608 4.08407C14.102 1.58426 18.5005 0.25 23 0.25C29.0317 0.25637 34.8146 2.65528 39.0797 6.92035C43.3447 11.1854 45.7436 16.9683 45.75 23ZM42.25 23C42.25 19.1927 41.121 15.4709 39.0058 12.3053C36.8906 9.13963 33.8841 6.67231 30.3667 5.21532C26.8492 3.75833 22.9787 3.37712 19.2445 4.11988C15.5104 4.86265 12.0804 6.69603 9.3882 9.38819C6.69604 12.0804 4.86266 15.5104 4.11989 19.2445C3.37713 22.9786 3.75834 26.8492 5.21533 30.3667C6.67232 33.8841 9.13964 36.8906 12.3053 39.0058C15.4709 41.121 19.1927 42.25 23 42.25C28.1036 42.2442 32.9966 40.2142 36.6054 36.6054C40.2142 32.9966 42.2442 28.1036 42.25 23ZM22.125 16C22.6442 16 23.1517 15.846 23.5834 15.5576C24.0151 15.2692 24.3515 14.8592 24.5502 14.3795C24.7489 13.8999 24.8009 13.3721 24.6996 12.8629C24.5983 12.3537 24.3483 11.886 23.9812 11.5188C23.614 11.1517 23.1463 10.9017 22.6371 10.8004C22.1279 10.6992 21.6001 10.7511 21.1205 10.9498C20.6408 11.1485 20.2308 11.4849 19.9424 11.9166C19.654 12.3483 19.5 12.8558 19.5 13.375C19.5 14.0712 19.7766 14.7389 20.2689 15.2312C20.7611 15.7234 21.4288 16 22.125 16Z" fill="url(#paint0_linear_3958_2956)"/>
<defs>
<linearGradient id="paint0_linear_3958_2956" x1="-1074.89" y1="50.5968" x2="-1072.71" y2="-38.976" gradientUnits="userSpaceOnUse">
<stop stop-color="#E8DF38"/>
<stop offset="1" stop-color="#41D882"/>
</linearGradient>
</defs>
</svg>
