<svg width="54" height="40" viewBox="0 0 54 40" fill="none" xmlns="http://www.w3.org/2000/svg">
<path d="M53.2347 19.2387C52.8366 8.96187 44.2966 0.75 34.0131 0.75C30.4359 0.75056 26.9294 1.74676 23.8862 3.62707C20.843 5.50739 18.3832 8.1976 16.7822 11.3966C15.4515 14.0486 14.7558 16.9738 14.75 19.9409C14.7569 20.3918 14.5932 20.8286 14.2919 21.164C13.9906 21.4994 13.5737 21.7087 13.1247 21.75C12.8846 21.7672 12.6436 21.7346 12.4166 21.6544C12.1897 21.5741 11.9818 21.4479 11.8058 21.2837C11.6299 21.1194 11.4897 20.9207 11.3941 20.6998C11.2984 20.4789 11.2494 20.2407 11.25 20C11.2482 17.5523 11.6426 15.1204 12.4181 12.7987C12.4692 12.6499 12.4792 12.49 12.4471 12.3359C12.4149 12.1819 12.3418 12.0393 12.2354 11.9233C12.1291 11.8073 11.9934 11.7222 11.8427 11.6768C11.6919 11.6315 11.5318 11.6276 11.3791 11.6656C8.3468 12.4214 5.65397 14.1686 3.72824 16.6298C1.8025 19.091 0.754264 22.125 0.75 25.25C0.75 32.9478 7.25781 39.25 14.9688 39.25H34C36.5912 39.2472 39.1552 38.7218 41.5387 37.7053C43.9222 36.6888 46.0762 35.202 47.8719 33.3338C49.6676 31.4657 51.068 29.2545 51.9894 26.8327C52.9109 24.4109 53.3344 21.828 53.2347 19.2387ZM42.2381 17.7381L31.7381 28.2381C31.5756 28.4008 31.3826 28.5299 31.1701 28.618C30.9577 28.706 30.73 28.7514 30.5 28.7514C30.27 28.7514 30.0423 28.706 29.8299 28.618C29.6174 28.5299 29.4244 28.4008 29.2619 28.2381L24.0119 22.9881C23.6835 22.6598 23.499 22.2144 23.499 21.75C23.499 21.2856 23.6835 20.8402 24.0119 20.5119C24.3402 20.1835 24.7856 19.999 25.25 19.999C25.7144 19.999 26.1598 20.1835 26.4881 20.5119L30.5 24.5259L39.7619 15.2619C39.9245 15.0993 40.1175 14.9703 40.3299 14.8823C40.5424 14.7943 40.7701 14.749 41 14.749C41.2299 14.749 41.4576 14.7943 41.6701 14.8823C41.8825 14.9703 42.0755 15.0993 42.2381 15.2619C42.4007 15.4245 42.5297 15.6175 42.6177 15.8299C42.7057 16.0424 42.751 16.2701 42.751 16.5C42.751 16.7299 42.7057 16.9576 42.6177 17.1701C42.5297 17.3825 42.4007 17.5755 42.2381 17.7381Z" fill="#121A26"/>
<path d="M53.2347 19.2387C52.8366 8.96187 44.2966 0.75 34.0131 0.75C30.4359 0.75056 26.9294 1.74676 23.8862 3.62707C20.843 5.50739 18.3832 8.1976 16.7822 11.3966C15.4515 14.0486 14.7558 16.9738 14.75 19.9409C14.7569 20.3918 14.5932 20.8286 14.2919 21.164C13.9906 21.4994 13.5737 21.7087 13.1247 21.75C12.8846 21.7672 12.6436 21.7346 12.4166 21.6544C12.1897 21.5741 11.9818 21.4479 11.8058 21.2837C11.6299 21.1194 11.4897 20.9207 11.3941 20.6998C11.2984 20.4789 11.2494 20.2407 11.25 20C11.2482 17.5523 11.6426 15.1204 12.4181 12.7987C12.4692 12.6499 12.4792 12.49 12.4471 12.3359C12.4149 12.1819 12.3418 12.0393 12.2354 11.9233C12.1291 11.8073 11.9934 11.7222 11.8427 11.6768C11.6919 11.6315 11.5318 11.6276 11.3791 11.6656C8.3468 12.4214 5.65397 14.1686 3.72824 16.6298C1.8025 19.091 0.754264 22.125 0.75 25.25C0.75 32.9478 7.25781 39.25 14.9688 39.25H34C36.5912 39.2472 39.1552 38.7218 41.5387 37.7053C43.9222 36.6888 46.0762 35.202 47.8719 33.3338C49.6676 31.4657 51.068 29.2545 51.9894 26.8327C52.9109 24.4109 53.3344 21.828 53.2347 19.2387ZM42.2381 17.7381L31.7381 28.2381C31.5756 28.4008 31.3826 28.5299 31.1701 28.618C30.9577 28.706 30.73 28.7514 30.5 28.7514C30.27 28.7514 30.0423 28.706 29.8299 28.618C29.6174 28.5299 29.4244 28.4008 29.2619 28.2381L24.0119 22.9881C23.6835 22.6598 23.499 22.2144 23.499 21.75C23.499 21.2856 23.6835 20.8402 24.0119 20.5119C24.3402 20.1835 24.7856 19.999 25.25 19.999C25.7144 19.999 26.1598 20.1835 26.4881 20.5119L30.5 24.5259L39.7619 15.2619C39.9245 15.0993 40.1175 14.9703 40.3299 14.8823C40.5424 14.7943 40.7701 14.749 41 14.749C41.2299 14.749 41.4576 14.7943 41.6701 14.8823C41.8825 14.9703 42.0755 15.0993 42.2381 15.2619C42.4007 15.4245 42.5297 15.6175 42.6177 15.8299C42.7057 16.0424 42.751 16.2701 42.751 16.5C42.751 16.7299 42.7057 16.9576 42.6177 17.1701C42.5297 17.3825 42.4007 17.5755 42.2381 17.7381Z" fill="url(#paint0_linear_4744_2591)"/>
<path d="M34.0127 1C44.0033 1 52.3284 8.85442 52.9609 18.7744L52.9854 19.248C53.0776 21.644 52.7159 24.0349 51.9209 26.2939L51.7559 26.7441C50.9033 28.9849 49.6349 31.0428 48.0195 32.8105L47.6914 33.1602C46.0297 34.8889 44.0576 36.2875 41.8789 37.2822L41.4404 37.4756C39.088 38.4788 36.5574 38.9972 34 39H14.9688C7.39098 39 1 32.8049 1 25.25L1.0127 24.6758C1.13622 21.8108 2.15184 19.0503 3.9248 16.7842C5.69793 14.5181 8.13344 12.8676 10.8848 12.0586L11.4395 11.9082C11.5485 11.881 11.6629 11.8837 11.7705 11.916C11.878 11.9484 11.9749 12.0092 12.0508 12.0918C12.1267 12.1746 12.1791 12.2768 12.2021 12.3867C12.2194 12.4693 12.2195 12.5545 12.2031 12.6367L12.1816 12.7178L12.1807 12.7197C11.3968 15.0665 10.9983 17.5248 11 19.999C10.9993 20.2741 11.0558 20.5464 11.165 20.7988C11.247 20.9881 11.3572 21.1635 11.4922 21.3184L11.6348 21.4668C11.7857 21.6077 11.9577 21.7235 12.1436 21.8115L12.333 21.8896C12.5274 21.9584 12.7312 21.9974 12.9365 22.0039L13.1426 21.999H13.1475C13.5951 21.9579 14.0148 21.77 14.3428 21.4678L14.4775 21.3311C14.82 20.9498 15.0067 20.4537 15 19.9414C15.0054 17.1962 15.6092 14.4874 16.7666 12.0029L17.0059 11.5088C18.5861 8.35135 21.0139 5.69576 24.0176 3.83984C26.8334 2.1 30.0512 1.12707 33.3516 1.01172L34.0127 1ZM41 14.499C40.8028 14.499 40.607 14.5279 40.4189 14.585L40.2344 14.6514C40.0522 14.7268 39.8823 14.8285 39.7305 14.9531L39.585 15.085L30.5 24.1719L26.665 20.335C26.2898 19.9597 25.7807 19.749 25.25 19.749C24.7855 19.749 24.3375 19.9103 23.9814 20.2021L23.835 20.335C23.4597 20.7102 23.249 21.2193 23.249 21.75C23.249 22.2145 23.4103 22.6625 23.7021 23.0186L23.835 23.165L29.085 28.415C29.2707 28.6009 29.4916 28.748 29.7344 28.8486C29.9771 28.9493 30.2372 29.001 30.5 29.001C30.7628 29.001 31.0229 28.9493 31.2656 28.8486C31.4478 28.7731 31.6177 28.6716 31.7695 28.5469L31.915 28.415L42.415 17.915C42.6008 17.7292 42.7481 17.5084 42.8486 17.2656C42.9492 17.0229 43.001 16.7627 43.001 16.5L42.9912 16.3037C42.9719 16.1083 42.924 15.9164 42.8486 15.7344C42.7481 15.4916 42.6008 15.2708 42.415 15.085C42.2757 14.9456 42.1166 14.8279 41.9434 14.7354L41.7656 14.6514C41.5229 14.5508 41.2627 14.499 41 14.499Z" stroke="white" stroke-opacity="0.3" stroke-width="0.5"/>
<defs>
<linearGradient id="paint0_linear_4744_2591" x1="-30.5209" y1="-15.1154" x2="52.3703" y2="11.1839" gradientUnits="userSpaceOnUse">
<stop stop-color="#FF3C4F" stop-opacity="0"/>
<stop offset="1" stop-color="#FF3C4F"/>
</linearGradient>
</defs>
</svg>
