<svg width="57" height="57" viewBox="0 0 57 57" fill="none" xmlns="http://www.w3.org/2000/svg">
<path d="M54.7347 27.8911C54.3366 17.6142 45.7966 9.40234 35.5131 9.40234C31.9359 9.4029 28.4294 10.3991 25.3862 12.2794C22.343 14.1597 19.8832 16.8499 18.2822 20.0489C16.9515 22.701 16.2558 25.6261 16.25 28.5933C16.2569 29.0441 16.0932 29.4809 15.7919 29.8164C15.4906 30.1518 15.0737 30.3611 14.6247 30.4023C14.3846 30.4195 14.1436 30.3869 13.9166 30.3067C13.6897 30.2265 13.4818 30.1003 13.3058 29.936C13.1299 29.7718 12.9897 29.573 12.8941 29.3521C12.7984 29.1313 12.7494 28.893 12.75 28.6523C12.7482 26.2046 13.1426 23.7727 13.9181 21.4511C13.9692 21.3022 13.9792 21.1423 13.9471 20.9883C13.9149 20.8342 13.8418 20.6917 13.7354 20.5757C13.6291 20.4597 13.4934 20.3745 13.3427 20.3291C13.1919 20.2838 13.0318 20.2799 12.8791 20.318C9.8468 21.0737 7.15397 22.821 5.22824 25.2821C3.3025 27.7433 2.25426 30.7773 2.25 33.9023C2.25 41.6002 8.75781 47.9023 16.4688 47.9023H35.5C38.0912 47.8996 40.6552 47.3742 43.0387 46.3577C45.4222 45.3411 47.5762 43.8543 49.3719 41.9862C51.1676 40.118 52.568 37.9069 53.4894 35.485C54.4109 33.0632 54.8344 30.4804 54.7347 27.8911ZM43.7381 26.3905L33.2381 36.8905C33.0756 37.0532 32.8826 37.1823 32.6701 37.2703C32.4577 37.3584 32.23 37.4037 32 37.4037C31.77 37.4037 31.5423 37.3584 31.3299 37.2703C31.1174 37.1823 30.9244 37.0532 30.7619 36.8905L25.5119 31.6405C25.1835 31.3121 24.999 30.8667 24.999 30.4023C24.999 29.938 25.1835 29.4926 25.5119 29.1642C25.8402 28.8358 26.2856 28.6514 26.75 28.6514C27.2144 28.6514 27.6598 28.8358 27.9881 29.1642L32 33.1783L41.2619 23.9142C41.4245 23.7516 41.6175 23.6226 41.8299 23.5347C42.0424 23.4467 42.2701 23.4014 42.5 23.4014C42.7299 23.4014 42.9576 23.4467 43.1701 23.5347C43.3825 23.6226 43.5755 23.7516 43.7381 23.9142C43.9007 24.0768 44.0297 24.2698 44.1177 24.4823C44.2057 24.6947 44.251 24.9224 44.251 25.1523C44.251 25.3823 44.2057 25.61 44.1177 25.8224C44.0297 26.0349 43.9007 26.2279 43.7381 26.3905Z" fill="url(#paint0_linear_4736_1728)"/>
<path d="M35.5127 9.65234C45.5033 9.65234 53.8284 17.5068 54.4609 27.4268L54.4854 27.9004C54.5776 30.2964 54.2159 32.6872 53.4209 34.9463L53.2559 35.3965C52.4033 37.6373 51.1349 39.6952 49.5195 41.4629L49.1914 41.8125C47.5297 43.5413 45.5576 44.9399 43.3789 45.9346L42.9404 46.1279C40.588 47.1312 38.0574 47.6496 35.5 47.6523H16.4688C8.89098 47.6523 2.5 41.4572 2.5 33.9023L2.5127 33.3281C2.63622 30.4631 3.65184 27.7026 5.4248 25.4365C7.19793 23.1704 9.63344 21.52 12.3848 20.7109L12.9395 20.5605C13.0485 20.5334 13.1629 20.536 13.2705 20.5684C13.378 20.6007 13.4749 20.6615 13.5508 20.7441C13.6267 20.8269 13.6791 20.9291 13.7021 21.0391C13.7194 21.1217 13.7195 21.2069 13.7031 21.2891L13.6816 21.3701L13.6807 21.3721C12.8968 23.7189 12.4983 26.1771 12.5 28.6514C12.4993 28.9264 12.5558 29.1988 12.665 29.4512C12.747 29.6405 12.8572 29.8158 12.9922 29.9707L13.1348 30.1191C13.2857 30.26 13.4577 30.3758 13.6436 30.4639L13.833 30.542C14.0274 30.6107 14.2312 30.6497 14.4365 30.6562L14.6426 30.6514H14.6475C15.0951 30.6102 15.5148 30.4224 15.8428 30.1201L15.9775 29.9834C16.32 29.6022 16.5067 29.1061 16.5 28.5938C16.5054 25.8485 17.1092 23.1397 18.2666 20.6553L18.5059 20.1611C20.0861 17.0037 22.5139 14.3481 25.5176 12.4922C28.3334 10.7523 31.5512 9.77942 34.8516 9.66406L35.5127 9.65234ZM42.5 23.1514C42.3028 23.1514 42.107 23.1803 41.9189 23.2373L41.7344 23.3037C41.5522 23.3792 41.3823 23.4808 41.2305 23.6055L41.085 23.7373L32 32.8242L28.165 28.9873C27.7898 28.612 27.2807 28.4014 26.75 28.4014C26.2855 28.4014 25.8375 28.5626 25.4814 28.8545L25.335 28.9873C24.9597 29.3626 24.749 29.8717 24.749 30.4023C24.749 30.8668 24.9103 31.3148 25.2021 31.6709L25.335 31.8174L30.585 37.0674C30.7707 37.2533 30.9916 37.4003 31.2344 37.501C31.4771 37.6016 31.7372 37.6533 32 37.6533C32.2628 37.6533 32.5229 37.6016 32.7656 37.501C32.9478 37.4255 33.1177 37.3239 33.2695 37.1992L33.415 37.0674L43.915 26.5674C44.1008 26.3816 44.2481 26.1607 44.3486 25.918C44.4492 25.6752 44.501 25.4151 44.501 25.1523L44.4912 24.9561C44.4719 24.7606 44.424 24.5688 44.3486 24.3867C44.2481 24.144 44.1008 23.9231 43.915 23.7373C43.7757 23.5979 43.6166 23.4803 43.4434 23.3877L43.2656 23.3037C43.0229 23.2032 42.7627 23.1514 42.5 23.1514Z" stroke="white" stroke-opacity="0.3" stroke-width="0.5"/>
<defs>
<linearGradient id="paint0_linear_4736_1728" x1="-1238.27" y1="52.0035" x2="-1236.92" y2="-23.8095" gradientUnits="userSpaceOnUse">
<stop stop-color="#E8DF38"/>
<stop offset="1" stop-color="#41D882"/>
</linearGradient>
</defs>
</svg>
