<svg width="48" height="42" viewBox="0 0 48 42" fill="none" xmlns="http://www.w3.org/2000/svg">
<path d="M47.3542 16.3333V39.6667C47.3542 40.9554 46.3096 42 45.0209 42H3.02083C1.73218 42 0.6875 40.9554 0.6875 39.6667V16.3333H47.3542ZM47.3542 11.6667H0.6875V2.33333C0.6875 1.04466 1.73218 0 3.02083 0H45.0209C46.3096 0 47.3542 1.04466 47.3542 2.33333V11.6667ZM31.0209 30.3334V35H40.3542V30.3334H31.0209Z" fill="black"/>
<path d="M47.3542 16.3333V39.6667C47.3542 40.9554 46.3096 42 45.0209 42H3.02083C1.73218 42 0.6875 40.9554 0.6875 39.6667V16.3333H47.3542ZM47.3542 11.6667H0.6875V2.33333C0.6875 1.04466 1.73218 0 3.02083 0H45.0209C46.3096 0 47.3542 1.04466 47.3542 2.33333V11.6667ZM31.0209 30.3334V35H40.3542V30.3334H31.0209Z" fill="url(#paint0_linear_4914_1820)"/>
<defs>
<linearGradient id="paint0_linear_4914_1820" x1="-1102.02" y1="46.474" x2="-1100.21" y2="-36.2179" gradientUnits="userSpaceOnUse">
<stop stop-color="#E8DF38"/>
<stop offset="1" stop-color="#41D882"/>
</linearGradient>
</defs>
</svg>
