<svg width="72" height="73" viewBox="0 0 72 73" fill="none" xmlns="http://www.w3.org/2000/svg">
<path d="M44.998 3.29297C45.5398 3.29298 46.0766 3.40007 46.5771 3.60742C47.015 3.78887 47.4181 4.04371 47.7686 4.36133L47.915 4.50195L53.0762 9.65137L63.6738 20.252V20.251C64.4468 21.0244 64.8808 22.0736 64.8809 23.167C64.8809 24.1921 64.499 25.178 63.8145 25.9346L63.6738 26.083L49.5156 40.2441L49.251 40.5088L49.5156 40.7744L54.665 45.9326L54.7744 46.042H67.874V41.167C67.8741 40.7319 68.0254 40.3121 68.2988 39.9785L68.4238 39.8418C68.7754 39.4903 69.2519 39.2921 69.749 39.292C70.1841 39.292 70.6039 39.4435 70.9375 39.7168L71.0752 39.8418C71.4267 40.1933 71.6239 40.6699 71.624 41.167V54.667C71.624 55.102 71.4734 55.5219 71.2002 55.8555L71.0752 55.9932C70.7236 56.3448 70.2463 56.542 69.749 56.542C69.314 56.5419 68.8951 56.3905 68.5615 56.1172L68.4238 55.9932C68.0722 55.6415 67.874 55.1643 67.874 54.667V49.792H54.9287C54.455 49.7935 53.9851 49.7129 53.54 49.5537L53.3516 49.4805C52.914 49.299 52.5113 49.0432 52.1621 48.7246L52.0156 48.584L52.0146 48.583L46.8564 43.4336L46.5908 43.1689L46.3262 43.4336L29.915 59.833C29.1415 60.6059 28.0925 61.04 26.999 61.04C25.9738 61.0399 24.988 60.6584 24.2314 59.9736L24.084 59.833L14.1494 49.9023L14.04 49.792H2.81152L2.63184 49.7852C2.27342 49.7585 1.92513 49.6535 1.6123 49.4766L1.45898 49.3818C1.10858 49.1478 0.82568 48.8275 0.636719 48.4531L0.561523 48.2891C0.399928 47.8997 0.341768 47.476 0.392578 47.0596L0.420898 46.8818C0.502694 46.4682 0.690334 46.0838 0.963867 45.7656L1.08594 45.6338L42.0801 4.50098L42.0811 4.50195C42.464 4.1189 42.9186 3.81478 43.4189 3.60742C43.9195 3.40006 44.4563 3.29297 44.998 3.29297ZM44.7334 7.15234L6.61328 45.4023L5.97559 46.042H14.04L14.1494 45.9326L48.834 11.252L49.0986 10.9863L48.834 10.7207L45.2646 7.15234L44.999 6.88672L44.7334 7.15234Z" fill="url(#paint0_linear_4736_1672)" stroke="white" stroke-width="0.75"/>
<defs>
<linearGradient id="paint0_linear_4736_1672" x1="35.9997" y1="2.91797" x2="35.9997" y2="61.4152" gradientUnits="userSpaceOnUse">
<stop stop-color="white"/>
<stop offset="1" stop-color="white" stop-opacity="0.4"/>
</linearGradient>
</defs>
</svg>
