<svg width="72" height="73" viewBox="0 0 72 73" fill="none" xmlns="http://www.w3.org/2000/svg">
<path d="M13.5 11.7656H58.5C59.594 11.7656 60.6434 12.2 61.417 12.9736C62.1906 13.7472 62.625 14.7966 62.625 15.8906V31.6406C62.625 46.3273 55.5227 55.2147 49.5811 60.0908C43.9494 64.6908 38.3554 66.6304 36.873 67.0898L36.501 67.2002C36.2189 67.2769 35.9231 67.2861 35.6377 67.2285L35.5166 67.2002H35.5156C35.2601 67.1312 28.8648 65.3483 22.4365 60.0908H22.4355C16.4774 55.2149 9.375 46.3274 9.375 31.6406V15.8906L9.37988 15.6865C9.43036 14.6668 9.85766 13.699 10.583 12.9736C11.3084 12.2483 12.2762 11.821 13.2959 11.7705L13.5 11.7656ZM47.25 26.7646C46.9915 26.7646 46.7348 26.8023 46.4883 26.877L46.2451 26.9639C46.0061 27.0629 45.7833 27.1968 45.584 27.3604L45.3926 27.5332L31.5 41.4277L26.6133 36.5342L26.6123 36.5332C26.1199 36.041 25.4521 35.7647 24.7559 35.7646C24.1462 35.7646 23.5582 35.9763 23.0908 36.3594L22.8984 36.5332C22.4059 37.0257 22.1289 37.6941 22.1289 38.3906L22.1426 38.6504C22.1938 39.1656 22.3964 39.6542 22.7246 40.0547L22.8984 40.248L29.6484 46.998V46.9971C29.8921 47.241 30.1815 47.4353 30.5 47.5674C30.8187 47.6995 31.1609 47.7676 31.5059 47.7676C31.7644 47.7676 32.021 47.7291 32.2676 47.6543L32.5107 47.5674C32.8292 47.4354 33.1186 47.2419 33.3623 46.998L49.7529 30.6074H49.5762C49.6123 30.5383 49.6468 30.4678 49.6768 30.3955C49.8087 30.077 49.876 29.7354 49.876 29.3906C49.876 29.0458 49.8087 28.7043 49.6768 28.3857C49.5778 28.1467 49.4438 27.9239 49.2803 27.7246L49.1074 27.5332C48.9245 27.3503 48.7156 27.1958 48.4883 27.0742L48.2549 26.9639C47.9363 26.832 47.5948 26.7646 47.25 26.7646Z" fill="url(#paint0_linear_4738_2478)" stroke="white" stroke-width="0.75"/>
<defs>
<linearGradient id="paint0_linear_4738_2478" x1="36" y1="11.3906" x2="36" y2="67.6408" gradientUnits="userSpaceOnUse">
<stop stop-color="white"/>
<stop offset="1" stop-color="white" stop-opacity="0.4"/>
</linearGradient>
</defs>
</svg>
