<svg width="46" height="43" viewBox="0 0 46 43" fill="none" xmlns="http://www.w3.org/2000/svg">
<path d="M45.75 6V30.5C45.75 31.8924 45.1969 33.2277 44.2123 34.2123C43.2277 35.1969 41.8924 35.75 40.5 35.75H5.5C4.10761 35.75 2.77226 35.1969 1.78769 34.2123C0.803124 33.2277 0.25 31.8924 0.25 30.5V6C0.25 4.60761 0.803124 3.27226 1.78769 2.28769C2.77226 1.30312 4.10761 0.75 5.5 0.75H40.5C41.8924 0.75 43.2277 1.30312 44.2123 2.28769C45.1969 3.27226 45.75 4.60761 45.75 6ZM30 39.25H16C15.5359 39.25 15.0908 39.4344 14.7626 39.7626C14.4344 40.0908 14.25 40.5359 14.25 41C14.25 41.4641 14.4344 41.9092 14.7626 42.2374C15.0908 42.5656 15.5359 42.75 16 42.75H30C30.4641 42.75 30.9093 42.5656 31.2374 42.2374C31.5656 41.9092 31.75 41.4641 31.75 41C31.75 40.5359 31.5656 40.0908 31.2374 39.7626C30.9093 39.4344 30.4641 39.25 30 39.25Z" fill="#121A26"/>
<path d="M45.75 6V30.5C45.75 31.8924 45.1969 33.2277 44.2123 34.2123C43.2277 35.1969 41.8924 35.75 40.5 35.75H5.5C4.10761 35.75 2.77226 35.1969 1.78769 34.2123C0.803124 33.2277 0.25 31.8924 0.25 30.5V6C0.25 4.60761 0.803124 3.27226 1.78769 2.28769C2.77226 1.30312 4.10761 0.75 5.5 0.75H40.5C41.8924 0.75 43.2277 1.30312 44.2123 2.28769C45.1969 3.27226 45.75 4.60761 45.75 6ZM30 39.25H16C15.5359 39.25 15.0908 39.4344 14.7626 39.7626C14.4344 40.0908 14.25 40.5359 14.25 41C14.25 41.4641 14.4344 41.9092 14.7626 42.2374C15.0908 42.5656 15.5359 42.75 16 42.75H30C30.4641 42.75 30.9093 42.5656 31.2374 42.2374C31.5656 41.9092 31.75 41.4641 31.75 41C31.75 40.5359 31.5656 40.0908 31.2374 39.7626C30.9093 39.4344 30.4641 39.25 30 39.25Z" fill="url(#paint0_linear_4744_2595)"/>
<path d="M16 39.5H30C30.3978 39.5 30.7792 39.6581 31.0605 39.9395C31.3419 40.2208 31.5 40.6022 31.5 41C31.5 41.3978 31.3419 41.7792 31.0605 42.0605C30.7792 42.3419 30.3978 42.5 30 42.5H16C15.652 42.5 15.3167 42.3788 15.0498 42.1602L14.9395 42.0605C14.6581 41.7792 14.5 41.3978 14.5 41C14.5 40.652 14.6212 40.3167 14.8398 40.0498L14.9395 39.9395C15.2208 39.6581 15.6022 39.5 16 39.5ZM5.5 1H40.5C41.7432 1 42.9383 1.46344 43.8555 2.29395L44.0352 2.46484C44.9728 3.40253 45.5 4.67392 45.5 6V30.5C45.5 31.8261 44.9728 33.0975 44.0352 34.0352C43.0975 34.9728 41.8261 35.5 40.5 35.5H5.5C4.2568 35.5 3.06173 35.0366 2.14453 34.2061L1.96484 34.0352C1.02716 33.0975 0.5 31.8261 0.5 30.5V6C0.5 4.7568 0.963443 3.56173 1.79395 2.64453L1.96484 2.46484C2.90253 1.52716 4.17392 1 5.5 1Z" stroke="white" stroke-opacity="0.3" stroke-width="0.5"/>
<defs>
<linearGradient id="paint0_linear_4744_2595" x1="-26.852" y1="-16.5577" x2="47.4964" y2="2.18271" gradientUnits="userSpaceOnUse">
<stop stop-color="#FF3C4F" stop-opacity="0"/>
<stop offset="1" stop-color="#FF3C4F"/>
</linearGradient>
</defs>
</svg>
