<svg width="57" height="57" viewBox="0 0 57 57" fill="none" xmlns="http://www.w3.org/2000/svg">
<path d="M51.25 14.6523V39.1523C51.25 40.5447 50.6969 41.8801 49.7123 42.8647C48.7277 43.8492 47.3924 44.4023 46 44.4023H11C9.60761 44.4023 8.27226 43.8492 7.28769 42.8647C6.30312 41.8801 5.75 40.5447 5.75 39.1523V14.6523C5.75 13.26 6.30312 11.9246 7.28769 10.94C8.27226 9.95547 9.60761 9.40234 11 9.40234H46C47.3924 9.40234 48.7277 9.95547 49.7123 10.94C50.6969 11.9246 51.25 13.26 51.25 14.6523ZM35.5 47.9023H21.5C21.0359 47.9023 20.5908 48.0867 20.2626 48.4149C19.9344 48.7431 19.75 49.1882 19.75 49.6523C19.75 50.1165 19.9344 50.5616 20.2626 50.8898C20.5908 51.218 21.0359 51.4023 21.5 51.4023H35.5C35.9641 51.4023 36.4093 51.218 36.7374 50.8898C37.0656 50.5616 37.25 50.1165 37.25 49.6523C37.25 49.1882 37.0656 48.7431 36.7374 48.4149C36.4093 48.0867 35.9641 47.9023 35.5 47.9023Z" fill="url(#paint0_linear_4737_2381)"/>
<path d="M21.5 48.1523H35.5C35.8978 48.1523 36.2792 48.3105 36.5605 48.5918C36.8419 48.8731 37 49.2545 37 49.6523C37 50.0502 36.8419 50.4316 36.5605 50.7129C36.2792 50.9942 35.8978 51.1523 35.5 51.1523H21.5C21.152 51.1523 20.8167 51.0311 20.5498 50.8125L20.4395 50.7129C20.1581 50.4316 20 50.0502 20 49.6523C20 49.3043 20.1212 48.969 20.3398 48.7021L20.4395 48.5918C20.7208 48.3105 21.1022 48.1523 21.5 48.1523ZM11 9.65234H46C47.2432 9.65234 48.4383 10.1158 49.3555 10.9463L49.5352 11.1172C50.4728 12.0549 51 13.3263 51 14.6523V39.1523C51 40.4784 50.4728 41.7498 49.5352 42.6875C48.5975 43.6252 47.3261 44.1523 46 44.1523H11C9.7568 44.1523 8.56173 43.6889 7.64453 42.8584L7.46484 42.6875C6.52716 41.7498 6 40.4784 6 39.1523V14.6523C6 13.4091 6.46344 12.2141 7.29395 11.2969L7.46484 11.1172C8.40253 10.1795 9.67392 9.65234 11 9.65234Z" stroke="white" stroke-opacity="0.3" stroke-width="0.5"/>
<defs>
<linearGradient id="paint0_linear_4737_2381" x1="-1069.39" y1="55.8763" x2="-1067.53" y2="-26.8135" gradientUnits="userSpaceOnUse">
<stop stop-color="#E8DF38"/>
<stop offset="1" stop-color="#41D882"/>
</linearGradient>
</defs>
</svg>
