<svg width="46" height="40" viewBox="0 0 46 40" fill="none" xmlns="http://www.w3.org/2000/svg">
<path d="M42.25 0.75H3.75C2.82174 0.75 1.9315 1.11875 1.27513 1.77513C0.618749 2.4315 0.25 3.32174 0.25 4.25V37.5C0.250159 37.7983 0.326551 38.0915 0.471921 38.352C0.617292 38.6124 0.826818 38.8314 1.08061 38.9881C1.33439 39.1448 1.62402 39.234 1.92199 39.2473C2.21996 39.2606 2.51639 39.1975 2.78313 39.0641L9 35.9556L15.2169 39.0641C15.46 39.1857 15.7281 39.2491 16 39.2491C16.2719 39.2491 16.54 39.1857 16.7831 39.0641L23 35.9556L29.2169 39.0641C29.46 39.1857 29.7281 39.2491 30 39.2491C30.2719 39.2491 30.54 39.1857 30.7831 39.0641L37 35.9556L43.2169 39.0641C43.4836 39.1975 43.78 39.2606 44.078 39.2473C44.376 39.234 44.6656 39.1448 44.9194 38.9881C45.1732 38.8314 45.3827 38.6124 45.5281 38.352C45.6735 38.0915 45.7498 37.7983 45.75 37.5V4.25C45.75 3.32174 45.3812 2.4315 44.7249 1.77513C44.0685 1.11875 43.1783 0.75 42.25 0.75ZM33.5 23.5H12.5C12.0359 23.5 11.5908 23.3156 11.2626 22.9874C10.9344 22.6593 10.75 22.2141 10.75 21.75C10.75 21.2859 10.9344 20.8407 11.2626 20.5126C11.5908 20.1844 12.0359 20 12.5 20H33.5C33.9641 20 34.4092 20.1844 34.7374 20.5126C35.0656 20.8407 35.25 21.2859 35.25 21.75C35.25 22.2141 35.0656 22.6593 34.7374 22.9874C34.4092 23.3156 33.9641 23.5 33.5 23.5ZM33.5 16.5H12.5C12.0359 16.5 11.5908 16.3156 11.2626 15.9874C10.9344 15.6592 10.75 15.2141 10.75 14.75C10.75 14.2859 10.9344 13.8408 11.2626 13.5126C11.5908 13.1844 12.0359 13 12.5 13H33.5C33.9641 13 34.4092 13.1844 34.7374 13.5126C35.0656 13.8408 35.25 14.2859 35.25 14.75C35.25 15.2141 35.0656 15.6592 34.7374 15.9874C34.4092 16.3156 33.9641 16.5 33.5 16.5Z" fill="url(#paint0_linear_4744_2593)"/>
<path d="M42.25 0.75H3.75C2.82174 0.75 1.9315 1.11875 1.27513 1.77513C0.618749 2.4315 0.25 3.32174 0.25 4.25V37.5C0.250159 37.7983 0.326551 38.0915 0.471921 38.352C0.617292 38.6124 0.826818 38.8314 1.08061 38.9881C1.33439 39.1448 1.62402 39.234 1.92199 39.2473C2.21996 39.2606 2.51639 39.1975 2.78313 39.0641L9 35.9556L15.2169 39.0641C15.46 39.1857 15.7281 39.2491 16 39.2491C16.2719 39.2491 16.54 39.1857 16.7831 39.0641L23 35.9556L29.2169 39.0641C29.46 39.1857 29.7281 39.2491 30 39.2491C30.2719 39.2491 30.54 39.1857 30.7831 39.0641L37 35.9556L43.2169 39.0641C43.4836 39.1975 43.78 39.2606 44.078 39.2473C44.376 39.234 44.6656 39.1448 44.9194 38.9881C45.1732 38.8314 45.3827 38.6124 45.5281 38.352C45.6735 38.0915 45.7498 37.7983 45.75 37.5V4.25C45.75 3.32174 45.3812 2.4315 44.7249 1.77513C44.0685 1.11875 43.1783 0.75 42.25 0.75ZM33.5 23.5H12.5C12.0359 23.5 11.5908 23.3156 11.2626 22.9874C10.9344 22.6593 10.75 22.2141 10.75 21.75C10.75 21.2859 10.9344 20.8407 11.2626 20.5126C11.5908 20.1844 12.0359 20 12.5 20H33.5C33.9641 20 34.4092 20.1844 34.7374 20.5126C35.0656 20.8407 35.25 21.2859 35.25 21.75C35.25 22.2141 35.0656 22.6593 34.7374 22.9874C34.4092 23.3156 33.9641 23.5 33.5 23.5ZM33.5 16.5H12.5C12.0359 16.5 11.5908 16.3156 11.2626 15.9874C10.9344 15.6592 10.75 15.2141 10.75 14.75C10.75 14.2859 10.9344 13.8408 11.2626 13.5126C11.5908 13.1844 12.0359 13 12.5 13H33.5C33.9641 13 34.4092 13.1844 34.7374 13.5126C35.0656 13.8408 35.25 14.2859 35.25 14.75C35.25 15.2141 35.0656 15.6592 34.7374 15.9874C34.4092 16.3156 33.9641 16.5 33.5 16.5Z" fill="#121A26"/>
<path d="M42.25 0.75H3.75C2.82174 0.75 1.9315 1.11875 1.27513 1.77513C0.618749 2.4315 0.25 3.32174 0.25 4.25V37.5C0.250159 37.7983 0.326551 38.0915 0.471921 38.352C0.617292 38.6124 0.826818 38.8314 1.08061 38.9881C1.33439 39.1448 1.62402 39.234 1.92199 39.2473C2.21996 39.2606 2.51639 39.1975 2.78313 39.0641L9 35.9556L15.2169 39.0641C15.46 39.1857 15.7281 39.2491 16 39.2491C16.2719 39.2491 16.54 39.1857 16.7831 39.0641L23 35.9556L29.2169 39.0641C29.46 39.1857 29.7281 39.2491 30 39.2491C30.2719 39.2491 30.54 39.1857 30.7831 39.0641L37 35.9556L43.2169 39.0641C43.4836 39.1975 43.78 39.2606 44.078 39.2473C44.376 39.234 44.6656 39.1448 44.9194 38.9881C45.1732 38.8314 45.3827 38.6124 45.5281 38.352C45.6735 38.0915 45.7498 37.7983 45.75 37.5V4.25C45.75 3.32174 45.3812 2.4315 44.7249 1.77513C44.0685 1.11875 43.1783 0.75 42.25 0.75ZM33.5 23.5H12.5C12.0359 23.5 11.5908 23.3156 11.2626 22.9874C10.9344 22.6593 10.75 22.2141 10.75 21.75C10.75 21.2859 10.9344 20.8407 11.2626 20.5126C11.5908 20.1844 12.0359 20 12.5 20H33.5C33.9641 20 34.4092 20.1844 34.7374 20.5126C35.0656 20.8407 35.25 21.2859 35.25 21.75C35.25 22.2141 35.0656 22.6593 34.7374 22.9874C34.4092 23.3156 33.9641 23.5 33.5 23.5ZM33.5 16.5H12.5C12.0359 16.5 11.5908 16.3156 11.2626 15.9874C10.9344 15.6592 10.75 15.2141 10.75 14.75C10.75 14.2859 10.9344 13.8408 11.2626 13.5126C11.5908 13.1844 12.0359 13 12.5 13H33.5C33.9641 13 34.4092 13.1844 34.7374 13.5126C35.0656 13.8408 35.25 14.2859 35.25 14.75C35.25 15.2141 35.0656 15.6592 34.7374 15.9874C34.4092 16.3156 33.9641 16.5 33.5 16.5Z" fill="url(#paint1_linear_4744_2593)"/>
<defs>
<linearGradient id="paint0_linear_4744_2593" x1="-1074.89" y1="43.3501" x2="-1073.33" y2="-32.4531" gradientUnits="userSpaceOnUse">
<stop stop-color="#E8DF38"/>
<stop offset="1" stop-color="#41D882"/>
</linearGradient>
<linearGradient id="paint1_linear_4744_2593" x1="-26.852" y1="-15.115" x2="46.6614" y2="5.09996" gradientUnits="userSpaceOnUse">
<stop stop-color="#FF3C4F" stop-opacity="0"/>
<stop offset="1" stop-color="#FF3C4F"/>
</linearGradient>
</defs>
</svg>
