<svg width="57" height="57" viewBox="0 0 57 57" fill="none" xmlns="http://www.w3.org/2000/svg">
<path d="M47.75 9.40234H9.25C8.32174 9.40234 7.4315 9.77109 6.77513 10.4275C6.11875 11.0838 5.75 11.9741 5.75 12.9023V46.1523C5.75016 46.4506 5.82655 46.7439 5.97192 47.0043C6.11729 47.2648 6.32682 47.4837 6.58061 47.6404C6.83439 47.7971 7.12402 47.8864 7.42199 47.8997C7.71996 47.913 8.01639 47.8499 8.28313 47.7164L14.5 44.608L20.7169 47.7164C20.96 47.8381 21.2281 47.9014 21.5 47.9014C21.7719 47.9014 22.04 47.8381 22.2831 47.7164L28.5 44.608L34.7169 47.7164C34.96 47.8381 35.2281 47.9014 35.5 47.9014C35.7719 47.9014 36.04 47.8381 36.2831 47.7164L42.5 44.608L48.7169 47.7164C48.9836 47.8499 49.28 47.913 49.578 47.8997C49.876 47.8864 50.1656 47.7971 50.4194 47.6404C50.6732 47.4837 50.8827 47.2648 51.0281 47.0043C51.1735 46.7439 51.2498 46.4506 51.25 46.1523V12.9023C51.25 11.9741 50.8812 11.0838 50.2249 10.4275C49.5685 9.77109 48.6783 9.40234 47.75 9.40234ZM39 32.1523H18C17.5359 32.1523 17.0908 31.968 16.7626 31.6398C16.4344 31.3116 16.25 30.8665 16.25 30.4023C16.25 29.9382 16.4344 29.4931 16.7626 29.1649C17.0908 28.8367 17.5359 28.6523 18 28.6523H39C39.4641 28.6523 39.9092 28.8367 40.2374 29.1649C40.5656 29.4931 40.75 29.9382 40.75 30.4023C40.75 30.8665 40.5656 31.3116 40.2374 31.6398C39.9092 31.968 39.4641 32.1523 39 32.1523ZM39 25.1523H18C17.5359 25.1523 17.0908 24.968 16.7626 24.6398C16.4344 24.3116 16.25 23.8665 16.25 23.4023C16.25 22.9382 16.4344 22.4931 16.7626 22.1649C17.0908 21.8367 17.5359 21.6523 18 21.6523H39C39.4641 21.6523 39.9092 21.8367 40.2374 22.1649C40.5656 22.4931 40.75 22.9382 40.75 23.4023C40.75 23.8665 40.5656 24.3116 40.2374 24.6398C39.9092 24.968 39.4641 25.1523 39 25.1523Z" fill="url(#paint0_linear_4739_2483)"/>
<defs>
<linearGradient id="paint0_linear_4739_2483" x1="-1069.39" y1="52.0024" x2="-1067.83" y2="-23.8008" gradientUnits="userSpaceOnUse">
<stop stop-color="#E8DF38"/>
<stop offset="1" stop-color="#41D882"/>
</linearGradient>
</defs>
</svg>
