<svg width="57" height="57" viewBox="0 0 57 57" fill="none" xmlns="http://www.w3.org/2000/svg">
<path d="M5.75 14.6523L5.75 42.6523C5.75 43.5806 6.11875 44.4708 6.77513 45.1272C7.4315 45.7836 8.32174 46.1523 9.25 46.1523L47.75 46.1523C48.6783 46.1523 49.5685 45.7836 50.2249 45.1272C50.8812 44.4708 51.25 43.5806 51.25 42.6523L51.25 14.6523C51.25 13.7241 50.8812 12.8338 50.2249 12.1775C49.5685 11.5211 48.6783 11.1523 47.75 11.1523L9.25 11.1523C8.32174 11.1523 7.4315 11.5211 6.77512 12.1775C6.11875 12.8338 5.75 13.7241 5.75 14.6523ZM42.5 28.6523C42.5 29.1715 42.346 29.679 42.0576 30.1107C41.7692 30.5424 41.3592 30.8788 40.8795 31.0775C40.3999 31.2762 39.8721 31.3282 39.3629 31.2269C38.8537 31.1256 38.386 30.8756 38.0188 30.5085C37.6517 30.1414 37.4017 29.6737 37.3004 29.1645C37.1992 28.6553 37.2511 28.1275 37.4498 27.6478C37.6485 27.1681 37.985 26.7582 38.4166 26.4697C38.8483 26.1813 39.3558 26.0273 39.875 26.0273C40.5712 26.0273 41.2389 26.3039 41.7312 26.7962C42.2234 27.2885 42.5 27.9561 42.5 28.6523ZM25 21.6523L25 35.6523C25 36.1165 24.8156 36.5616 24.4874 36.8898C24.1592 37.218 23.7141 37.4023 23.25 37.4023C22.7859 37.4023 22.3408 37.218 22.0126 36.8898C21.6844 36.5616 21.5 36.1165 21.5 35.6523L21.5 21.6523C21.5 21.1882 21.6844 20.7431 22.0126 20.4149C22.3408 20.0867 22.7859 19.9023 23.25 19.9023C23.7141 19.9023 24.1592 20.0867 24.4874 20.4149C24.8156 20.7431 25 21.1882 25 21.6523ZM18 21.6523L18 35.6523C18 36.1165 17.8156 36.5616 17.4874 36.8898C17.1592 37.218 16.7141 37.4023 16.25 37.4023C15.7859 37.4023 15.3408 37.218 15.0126 36.8898C14.6844 36.5616 14.5 36.1165 14.5 35.6523L14.5 21.6523C14.5 21.1882 14.6844 20.7431 15.0126 20.4149C15.3408 20.0867 15.7859 19.9023 16.25 19.9023C16.7141 19.9023 17.1592 20.0867 17.4874 20.4149C17.8156 20.7431 18 21.1882 18 21.6523Z" fill="url(#paint0_linear_4737_2179)"/>
<path d="M6 42.6523L6 14.6523C6 13.7904 6.34265 12.964 6.95215 12.3545C7.56164 11.745 8.38805 11.4023 9.25 11.4023L47.75 11.4023C48.612 11.4023 49.4384 11.745 50.0479 12.3545C50.6573 12.964 51 13.7904 51 14.6523L51 42.6523C51 43.5143 50.6573 44.3407 50.0479 44.9502C49.4384 45.5597 48.612 45.9023 47.75 45.9023L9.25 45.9023L9.08887 45.8984C8.28558 45.8586 7.52356 45.5216 6.95215 44.9502C6.34266 44.3407 6 43.5143 6 42.6523ZM37.2187 27.5518C37.0284 28.0113 36.9611 28.5116 37.0215 29.0029L37.0557 29.2129C37.1527 29.7008 37.374 30.1543 37.6973 30.5293L37.8418 30.6855C38.1937 31.0374 38.6302 31.2906 39.1074 31.4229L39.3145 31.4717C39.8721 31.5825 40.4503 31.5262 40.9756 31.3086C41.4351 31.1182 41.8359 30.812 42.1406 30.4219L42.2656 30.25C42.5815 29.7772 42.75 29.221 42.75 28.6523C42.75 27.8898 42.4474 27.1583 41.9082 26.6191C41.369 26.08 40.6375 25.7773 39.875 25.7773C39.3775 25.7773 38.8899 25.9065 38.459 26.1504L38.2773 26.2617C37.8639 26.538 37.5304 26.9164 37.3076 27.3584L37.2187 27.5518ZM21.25 35.6523C21.25 36.1165 21.4115 36.564 21.7031 36.9199L21.8359 37.0664C22.211 37.4415 22.7196 37.6523 23.25 37.6523C23.7142 37.6523 24.1617 37.4909 24.5176 37.1992L24.6641 37.0664C25.0391 36.6913 25.25 36.1828 25.25 35.6523L25.25 21.6523C25.25 21.1219 25.0391 20.6134 24.6641 20.2383C24.289 19.8632 23.7804 19.6523 23.25 19.6523C22.7858 19.6523 22.3383 19.8138 21.9824 20.1055L21.8359 20.2383C21.4609 20.6134 21.25 21.1219 21.25 21.6523L21.25 35.6523ZM14.25 35.6523C14.25 36.1165 14.4115 36.564 14.7031 36.9199L14.8359 37.0664C15.211 37.4415 15.7196 37.6523 16.25 37.6523C16.7142 37.6523 17.1617 37.4909 17.5176 37.1992L17.6641 37.0664C18.0391 36.6913 18.25 36.1828 18.25 35.6523L18.25 21.6523C18.25 21.1882 18.0885 20.7407 17.7969 20.3848L17.6641 20.2383C17.289 19.8632 16.7804 19.6523 16.25 19.6523C15.7858 19.6523 15.3383 19.8138 14.9824 20.1055L14.8359 20.2383C14.4609 20.6134 14.25 21.1219 14.25 21.6523L14.25 35.6523Z" stroke="white" stroke-opacity="0.3" stroke-width="0.5"/>
<defs>
<linearGradient id="paint0_linear_4737_2179" x1="56.0968" y1="873.181" x2="-33.4396" y2="870.356" gradientUnits="userSpaceOnUse">
<stop stop-color="#E8DF38"/>
<stop offset="1" stop-color="#41D882"/>
</linearGradient>
</defs>
</svg>
