<svg width="46" height="36" viewBox="0 0 46 36" fill="none" xmlns="http://www.w3.org/2000/svg">
<path d="M0.249999 3.65234L0.25 31.6523C0.25 32.5806 0.618749 33.4708 1.27513 34.1272C1.9315 34.7836 2.82174 35.1523 3.75 35.1523L42.25 35.1523C43.1783 35.1523 44.0685 34.7836 44.7249 34.1272C45.3812 33.4708 45.75 32.5806 45.75 31.6523L45.75 3.65234C45.75 2.72408 45.3812 1.83385 44.7249 1.17747C44.0685 0.521093 43.1783 0.152342 42.25 0.152342L3.75 0.152344C2.82174 0.152344 1.9315 0.521095 1.27512 1.17747C0.618747 1.83385 0.249999 2.72409 0.249999 3.65234ZM37 17.6523C37 18.1715 36.846 18.679 36.5576 19.1107C36.2692 19.5424 35.8592 19.8788 35.3795 20.0775C34.8999 20.2762 34.3721 20.3282 33.8629 20.2269C33.3537 20.1256 32.886 19.8756 32.5188 19.5085C32.1517 19.1414 31.9017 18.6737 31.8004 18.1645C31.6992 17.6553 31.7511 17.1275 31.9498 16.6478C32.1485 16.1681 32.485 15.7582 32.9166 15.4697C33.3483 15.1813 33.8558 15.0273 34.375 15.0273C35.0712 15.0273 35.7389 15.3039 36.2312 15.7962C36.7234 16.2885 37 16.9561 37 17.6523ZM19.5 10.6523L19.5 24.6523C19.5 25.1165 19.3156 25.5616 18.9874 25.8898C18.6592 26.218 18.2141 26.4023 17.75 26.4023C17.2859 26.4023 16.8408 26.218 16.5126 25.8898C16.1844 25.5616 16 25.1165 16 24.6523L16 10.6523C16 10.1882 16.1844 9.74309 16.5126 9.4149C16.8408 9.08672 17.2859 8.90234 17.75 8.90234C18.2141 8.90234 18.6592 9.08672 18.9874 9.4149C19.3156 9.74309 19.5 10.1882 19.5 10.6523ZM12.5 10.6523L12.5 24.6523C12.5 25.1165 12.3156 25.5616 11.9874 25.8898C11.6592 26.218 11.2141 26.4023 10.75 26.4023C10.2859 26.4023 9.84075 26.218 9.51256 25.8898C9.18437 25.5616 9 25.1165 9 24.6523L9 10.6523C9 10.1882 9.18437 9.74309 9.51256 9.41491C9.84075 9.08672 10.2859 8.90234 10.75 8.90234C11.2141 8.90234 11.6592 9.08672 11.9874 9.41491C12.3156 9.74309 12.5 10.1882 12.5 10.6523Z" fill="#121A26"/>
<path d="M0.249999 3.65234L0.25 31.6523C0.25 32.5806 0.618749 33.4708 1.27513 34.1272C1.9315 34.7836 2.82174 35.1523 3.75 35.1523L42.25 35.1523C43.1783 35.1523 44.0685 34.7836 44.7249 34.1272C45.3812 33.4708 45.75 32.5806 45.75 31.6523L45.75 3.65234C45.75 2.72408 45.3812 1.83385 44.7249 1.17747C44.0685 0.521093 43.1783 0.152342 42.25 0.152342L3.75 0.152344C2.82174 0.152344 1.9315 0.521095 1.27512 1.17747C0.618747 1.83385 0.249999 2.72409 0.249999 3.65234ZM37 17.6523C37 18.1715 36.846 18.679 36.5576 19.1107C36.2692 19.5424 35.8592 19.8788 35.3795 20.0775C34.8999 20.2762 34.3721 20.3282 33.8629 20.2269C33.3537 20.1256 32.886 19.8756 32.5188 19.5085C32.1517 19.1414 31.9017 18.6737 31.8004 18.1645C31.6992 17.6553 31.7511 17.1275 31.9498 16.6478C32.1485 16.1681 32.485 15.7582 32.9166 15.4697C33.3483 15.1813 33.8558 15.0273 34.375 15.0273C35.0712 15.0273 35.7389 15.3039 36.2312 15.7962C36.7234 16.2885 37 16.9561 37 17.6523ZM19.5 10.6523L19.5 24.6523C19.5 25.1165 19.3156 25.5616 18.9874 25.8898C18.6592 26.218 18.2141 26.4023 17.75 26.4023C17.2859 26.4023 16.8408 26.218 16.5126 25.8898C16.1844 25.5616 16 25.1165 16 24.6523L16 10.6523C16 10.1882 16.1844 9.74309 16.5126 9.4149C16.8408 9.08672 17.2859 8.90234 17.75 8.90234C18.2141 8.90234 18.6592 9.08672 18.9874 9.4149C19.3156 9.74309 19.5 10.1882 19.5 10.6523ZM12.5 10.6523L12.5 24.6523C12.5 25.1165 12.3156 25.5616 11.9874 25.8898C11.6592 26.218 11.2141 26.4023 10.75 26.4023C10.2859 26.4023 9.84075 26.218 9.51256 25.8898C9.18437 25.5616 9 25.1165 9 24.6523L9 10.6523C9 10.1882 9.18437 9.74309 9.51256 9.41491C9.84075 9.08672 10.2859 8.90234 10.75 8.90234C11.2141 8.90234 11.6592 9.08672 11.9874 9.41491C12.3156 9.74309 12.5 10.1882 12.5 10.6523Z" fill="url(#paint0_linear_4744_2597)"/>
<path d="M0.5 31.6523L0.499999 3.65234C0.499999 2.79039 0.842654 1.96398 1.45215 1.35449C2.06164 0.745 2.88805 0.402344 3.75 0.402344L42.25 0.402342C43.112 0.402342 43.9384 0.744998 44.5479 1.35449C45.1573 1.96398 45.5 2.79039 45.5 3.65234L45.5 31.6523C45.5 32.5143 45.1573 33.3407 44.5479 33.9502C43.9384 34.5597 43.112 34.9023 42.25 34.9023L3.75 34.9023L3.58887 34.8984C2.78558 34.8586 2.02356 34.5216 1.45215 33.9502C0.842655 33.3407 0.5 32.5143 0.5 31.6523ZM31.7187 16.5518C31.5284 17.0113 31.4611 17.5116 31.5215 18.0029L31.5557 18.2129C31.6527 18.7008 31.874 19.1543 32.1973 19.5293L32.3418 19.6855C32.6937 20.0374 33.1302 20.2906 33.6074 20.4229L33.8145 20.4717C34.3721 20.5825 34.9503 20.5262 35.4756 20.3086C35.9351 20.1182 36.3359 19.812 36.6406 19.4219L36.7656 19.25C37.0815 18.7772 37.25 18.221 37.25 17.6523C37.25 16.8898 36.9474 16.1583 36.4082 15.6191C35.869 15.08 35.1375 14.7773 34.375 14.7773C33.8775 14.7773 33.3899 14.9065 32.959 15.1504L32.7773 15.2617C32.3639 15.538 32.0304 15.9164 31.8076 16.3584L31.7187 16.5518ZM15.75 24.6523C15.75 25.1165 15.9115 25.564 16.2031 25.9199L16.3359 26.0664C16.711 26.4415 17.2196 26.6523 17.75 26.6523C18.2142 26.6523 18.6617 26.4909 19.0176 26.1992L19.1641 26.0664C19.5391 25.6913 19.75 25.1828 19.75 24.6523L19.75 10.6523C19.75 10.1219 19.5391 9.61335 19.1641 9.23828C18.789 8.86321 18.2804 8.65234 17.75 8.65234C17.2858 8.65234 16.8383 8.8138 16.4824 9.10547L16.3359 9.23828C15.9609 9.61335 15.75 10.1219 15.75 10.6523L15.75 24.6523ZM8.75 24.6523C8.75 25.1165 8.91145 25.564 9.20312 25.9199L9.33594 26.0664C9.71101 26.4415 10.2196 26.6523 10.75 26.6523C11.2142 26.6523 11.6617 26.4909 12.0176 26.1992L12.1641 26.0664C12.5391 25.6913 12.75 25.1828 12.75 24.6523L12.75 10.6523C12.75 10.1882 12.5885 9.74068 12.2969 9.38477L12.1641 9.23828C11.789 8.86321 11.2804 8.65234 10.75 8.65234C10.2858 8.65234 9.83833 8.8138 9.48242 9.10547L9.33594 9.23828C8.96086 9.61335 8.75 10.1219 8.75 10.6523L8.75 24.6523Z" stroke="white" stroke-opacity="0.3" stroke-width="0.5"/>
<defs>
<linearGradient id="paint0_linear_4744_2597" x1="-18.5" y1="56" x2="-7.95156" y2="-2.93674" gradientUnits="userSpaceOnUse">
<stop stop-color="#FF3C4F" stop-opacity="0"/>
<stop offset="1" stop-color="#FF3C4F"/>
</linearGradient>
</defs>
</svg>
