<svg width="42" height="46" viewBox="0 0 42 46" fill="none" xmlns="http://www.w3.org/2000/svg">
<path d="M38.5 4H33.25V2.25C33.25 1.78587 33.0656 1.34075 32.7374 1.01256C32.4092 0.684374 31.9641 0.5 31.5 0.5C31.0359 0.5 30.5907 0.684374 30.2626 1.01256C29.9344 1.34075 29.75 1.78587 29.75 2.25V4H12.25V2.25C12.25 1.78587 12.0656 1.34075 11.7374 1.01256C11.4092 0.684374 10.9641 0.5 10.5 0.5C10.0359 0.5 9.59075 0.684374 9.26256 1.01256C8.93437 1.34075 8.75 1.78587 8.75 2.25V4H3.5C2.57174 4 1.6815 4.36875 1.02513 5.02513C0.368749 5.6815 0 6.57174 0 7.5V42.5C0 43.4283 0.368749 44.3185 1.02513 44.9749C1.6815 45.6312 2.57174 46 3.5 46H38.5C39.4283 46 40.3185 45.6312 40.9749 44.9749C41.6312 44.3185 42 43.4283 42 42.5V7.5C42 6.57174 41.6312 5.6815 40.9749 5.02513C40.3185 4.36875 39.4283 4 38.5 4ZM8.75 7.5V9.25C8.75 9.71413 8.93437 10.1592 9.26256 10.4874C9.59075 10.8156 10.0359 11 10.5 11C10.9641 11 11.4092 10.8156 11.7374 10.4874C12.0656 10.1592 12.25 9.71413 12.25 9.25V7.5H29.75V9.25C29.75 9.71413 29.9344 10.1592 30.2626 10.4874C30.5907 10.8156 31.0359 11 31.5 11C31.9641 11 32.4092 10.8156 32.7374 10.4874C33.0656 10.1592 33.25 9.71413 33.25 9.25V7.5H38.5V14.5H3.5V7.5H8.75ZM38.5 42.5H3.5V18H38.5V42.5ZM30.1131 23.7619C30.2758 23.9244 30.4049 24.1174 30.493 24.3299C30.581 24.5423 30.6264 24.77 30.6264 25C30.6264 25.23 30.581 25.4577 30.493 25.6701C30.4049 25.8826 30.2758 26.0756 30.1131 26.2381L19.6131 36.7381C19.4506 36.9008 19.2576 37.0299 19.0451 37.118C18.8327 37.206 18.605 37.2514 18.375 37.2514C18.145 37.2514 17.9173 37.206 17.7049 37.118C17.4924 37.0299 17.2994 36.9008 17.1369 36.7381L11.8869 31.4881C11.5585 31.1598 11.374 30.7144 11.374 30.25C11.374 29.7856 11.5585 29.3402 11.8869 29.0119C12.2152 28.6835 12.6606 28.499 13.125 28.499C13.5894 28.499 14.0348 28.6835 14.3631 29.0119L18.375 33.0259L27.6369 23.7619C27.7994 23.5992 27.9924 23.4701 28.2049 23.382C28.4173 23.294 28.645 23.2486 28.875 23.2486C29.105 23.2486 29.3327 23.294 29.5451 23.382C29.7576 23.4701 29.9506 23.5992 30.1131 23.7619Z" fill="black"/>
<path d="M38.5 4H33.25V2.25C33.25 1.78587 33.0656 1.34075 32.7374 1.01256C32.4092 0.684374 31.9641 0.5 31.5 0.5C31.0359 0.5 30.5907 0.684374 30.2626 1.01256C29.9344 1.34075 29.75 1.78587 29.75 2.25V4H12.25V2.25C12.25 1.78587 12.0656 1.34075 11.7374 1.01256C11.4092 0.684374 10.9641 0.5 10.5 0.5C10.0359 0.5 9.59075 0.684374 9.26256 1.01256C8.93437 1.34075 8.75 1.78587 8.75 2.25V4H3.5C2.57174 4 1.6815 4.36875 1.02513 5.02513C0.368749 5.6815 0 6.57174 0 7.5V42.5C0 43.4283 0.368749 44.3185 1.02513 44.9749C1.6815 45.6312 2.57174 46 3.5 46H38.5C39.4283 46 40.3185 45.6312 40.9749 44.9749C41.6312 44.3185 42 43.4283 42 42.5V7.5C42 6.57174 41.6312 5.6815 40.9749 5.02513C40.3185 4.36875 39.4283 4 38.5 4ZM8.75 7.5V9.25C8.75 9.71413 8.93437 10.1592 9.26256 10.4874C9.59075 10.8156 10.0359 11 10.5 11C10.9641 11 11.4092 10.8156 11.7374 10.4874C12.0656 10.1592 12.25 9.71413 12.25 9.25V7.5H29.75V9.25C29.75 9.71413 29.9344 10.1592 30.2626 10.4874C30.5907 10.8156 31.0359 11 31.5 11C31.9641 11 32.4092 10.8156 32.7374 10.4874C33.0656 10.1592 33.25 9.71413 33.25 9.25V7.5H38.5V14.5H3.5V7.5H8.75ZM38.5 42.5H3.5V18H38.5V42.5ZM30.1131 23.7619C30.2758 23.9244 30.4049 24.1174 30.493 24.3299C30.581 24.5423 30.6264 24.77 30.6264 25C30.6264 25.23 30.581 25.4577 30.493 25.6701C30.4049 25.8826 30.2758 26.0756 30.1131 26.2381L19.6131 36.7381C19.4506 36.9008 19.2576 37.0299 19.0451 37.118C18.8327 37.206 18.605 37.2514 18.375 37.2514C18.145 37.2514 17.9173 37.206 17.7049 37.118C17.4924 37.0299 17.2994 36.9008 17.1369 36.7381L11.8869 31.4881C11.5585 31.1598 11.374 30.7144 11.374 30.25C11.374 29.7856 11.5585 29.3402 11.8869 29.0119C12.2152 28.6835 12.6606 28.499 13.125 28.499C13.5894 28.499 14.0348 28.6835 14.3631 29.0119L18.375 33.0259L27.6369 23.7619C27.7994 23.5992 27.9924 23.4701 28.2049 23.382C28.4173 23.294 28.645 23.2486 28.875 23.2486C29.105 23.2486 29.3327 23.294 29.5451 23.382C29.7576 23.4701 29.9506 23.5992 30.1131 23.7619Z" fill="url(#paint0_linear_3301_14799)"/>
<defs>
<linearGradient id="paint0_linear_3301_14799" x1="-992.435" y1="50.8468" x2="-990.08" y2="-38.7169" gradientUnits="userSpaceOnUse">
<stop stop-color="#E8DF38"/>
<stop offset="1" stop-color="#41D882"/>
</linearGradient>
</defs>
</svg>
