<svg width="138" height="51" viewBox="0 0 138 51" fill="none" xmlns="http://www.w3.org/2000/svg">
<path d="M116.335 35.9612H21.6679C18.2169 35.9612 15.333 38.4349 14.6875 41.7053H123.315C122.67 38.4349 119.786 35.9612 116.335 35.9612Z" fill="url(#paint0_linear_3905_2186)"/>
<path d="M123.45 44.4749H14.5508V50.6359H123.45V44.4749Z" fill="url(#paint1_linear_3905_2186)"/>
<path d="M130.079 0.363525H7.92055C3.99688 0.363525 0.804688 3.56149 0.804688 7.49226V43.5075C0.804688 47.4383 3.99688 50.6363 7.92055 50.6363H11.7853V43.0902C11.7853 37.6318 16.2182 33.1911 21.6667 33.1911H116.333C121.782 33.1911 126.215 37.6318 126.215 43.0902V50.6363H130.079C134.003 50.6363 137.195 47.4383 137.195 43.5075V7.49226C137.195 3.56149 134.003 0.363525 130.079 0.363525ZM16.5791 16.0384H7.75451C6.9911 16.0384 6.37201 15.4183 6.37201 14.6534C6.37201 13.8885 6.9911 13.2684 7.75451 13.2684H16.5791C17.3427 13.2684 17.9616 13.8885 17.9616 14.6534C17.9616 15.4183 17.3427 16.0384 16.5791 16.0384ZM16.5791 9.28542H7.75451C6.9911 9.28542 6.37201 8.66536 6.37201 7.90042C6.37201 7.13549 6.9911 6.51542 7.75451 6.51542H16.5791C17.3427 6.51542 17.9616 7.13549 17.9616 7.90042C17.9616 8.66536 17.3427 9.28542 16.5791 9.28542Z" fill="url(#paint2_linear_3905_2186)"/>
<defs>
<linearGradient id="paint0_linear_3905_2186" x1="-2552.11" y1="42.3172" x2="-2552.1" y2="31.0024" gradientUnits="userSpaceOnUse">
<stop stop-color="#E8DF38"/>
<stop offset="1" stop-color="#41D882"/>
</linearGradient>
<linearGradient id="paint1_linear_3905_2186" x1="-2558.67" y1="51.2922" x2="-2558.66" y2="39.1562" gradientUnits="userSpaceOnUse">
<stop stop-color="#E8DF38"/>
<stop offset="1" stop-color="#41D882"/>
</linearGradient>
<linearGradient id="paint2_linear_3905_2186" x1="-3222.03" y1="55.9914" x2="-3221.14" y2="-43.0275" gradientUnits="userSpaceOnUse">
<stop stop-color="#E8DF38"/>
<stop offset="1" stop-color="#41D882"/>
</linearGradient>
</defs>
</svg>
