<svg width="47" height="43" viewBox="0 0 47 43" fill="none" xmlns="http://www.w3.org/2000/svg">
<path d="M41 0.75H6C4.60761 0.75 3.27226 1.30312 2.28769 2.28769C1.30312 3.27226 0.75 4.60761 0.75 6V30.5C0.75 31.8924 1.30312 33.2277 2.28769 34.2123C3.27226 35.1969 4.60761 35.75 6 35.75H41C42.3924 35.75 43.7277 35.1969 44.7123 34.2123C45.6969 33.2277 46.25 31.8924 46.25 30.5V6C46.25 4.60761 45.6969 3.27226 44.7123 2.28769C43.7277 1.30312 42.3924 0.75 41 0.75ZM42.75 30.5C42.75 30.9641 42.5656 31.4093 42.2374 31.7374C41.9092 32.0656 41.4641 32.25 41 32.25H6C5.53587 32.25 5.09075 32.0656 4.76256 31.7374C4.43437 31.4093 4.25 30.9641 4.25 30.5V6C4.25 5.53587 4.43437 5.09075 4.76256 4.76256C5.09075 4.43437 5.53587 4.25 6 4.25H41C41.4641 4.25 41.9092 4.43437 42.2374 4.76256C42.5656 5.09075 42.75 5.53587 42.75 6V30.5ZM32.25 41C32.25 41.4641 32.0656 41.9092 31.7374 42.2374C31.4093 42.5656 30.9641 42.75 30.5 42.75H16.5C16.0359 42.75 15.5908 42.5656 15.2626 42.2374C14.9344 41.9092 14.75 41.4641 14.75 41C14.75 40.5359 14.9344 40.0908 15.2626 39.7626C15.5908 39.4344 16.0359 39.25 16.5 39.25H30.5C30.9641 39.25 31.4093 39.4344 31.7374 39.7626C32.0656 40.0908 32.25 40.5359 32.25 41Z" fill="black"/>
<path d="M41 0.75H6C4.60761 0.75 3.27226 1.30312 2.28769 2.28769C1.30312 3.27226 0.75 4.60761 0.75 6V30.5C0.75 31.8924 1.30312 33.2277 2.28769 34.2123C3.27226 35.1969 4.60761 35.75 6 35.75H41C42.3924 35.75 43.7277 35.1969 44.7123 34.2123C45.6969 33.2277 46.25 31.8924 46.25 30.5V6C46.25 4.60761 45.6969 3.27226 44.7123 2.28769C43.7277 1.30312 42.3924 0.75 41 0.75ZM42.75 30.5C42.75 30.9641 42.5656 31.4093 42.2374 31.7374C41.9092 32.0656 41.4641 32.25 41 32.25H6C5.53587 32.25 5.09075 32.0656 4.76256 31.7374C4.43437 31.4093 4.25 30.9641 4.25 30.5V6C4.25 5.53587 4.43437 5.09075 4.76256 4.76256C5.09075 4.43437 5.53587 4.25 6 4.25H41C41.4641 4.25 41.9092 4.43437 42.2374 4.76256C42.5656 5.09075 42.75 5.53587 42.75 6V30.5ZM32.25 41C32.25 41.4641 32.0656 41.9092 31.7374 42.2374C31.4093 42.5656 30.9641 42.75 30.5 42.75H16.5C16.0359 42.75 15.5908 42.5656 15.2626 42.2374C14.9344 41.9092 14.75 41.4641 14.75 41C14.75 40.5359 14.9344 40.0908 15.2626 39.7626C15.5908 39.4344 16.0359 39.25 16.5 39.25H30.5C30.9641 39.25 31.4093 39.4344 31.7374 39.7626C32.0656 40.0908 32.25 40.5359 32.25 41Z" fill="url(#paint0_linear_3905_2054)"/>
<defs>
<linearGradient id="paint0_linear_3905_2054" x1="-1074.39" y1="47.2239" x2="-1072.53" y2="-35.4658" gradientUnits="userSpaceOnUse">
<stop stop-color="#E8DF38"/>
<stop offset="1" stop-color="#41D882"/>
</linearGradient>
</defs>
</svg>
