<svg width="50" height="46" viewBox="0 0 50 46" fill="none" xmlns="http://www.w3.org/2000/svg">
<path d="M47.75 42.25H42.5V3.75C42.5 2.82174 42.1312 1.9315 41.4749 1.27513C40.8185 0.618749 39.9283 0.25 39 0.25H11C10.0717 0.25 9.1815 0.618749 8.52513 1.27513C7.86875 1.9315 7.5 2.82174 7.5 3.75V42.25H2.25C1.78587 42.25 1.34075 42.4344 1.01256 42.7626C0.684374 43.0908 0.5 43.5359 0.5 44C0.5 44.4641 0.684374 44.9092 1.01256 45.2374C1.34075 45.5656 1.78587 45.75 2.25 45.75H47.75C48.2141 45.75 48.6592 45.5656 48.9874 45.2374C49.3156 44.9092 49.5 44.4641 49.5 44C49.5 43.5359 49.3156 43.0908 48.9874 42.7626C48.6592 42.4344 48.2141 42.25 47.75 42.25ZM11 3.75H39V42.25H11V3.75ZM33.75 23.875C33.75 24.3942 33.596 24.9017 33.3076 25.3334C33.0192 25.7651 32.6092 26.1015 32.1295 26.3002C31.6499 26.4989 31.1221 26.5508 30.6129 26.4496C30.1037 26.3483 29.636 26.0983 29.2688 25.7312C28.9017 25.364 28.6517 24.8963 28.5504 24.3871C28.4492 23.8779 28.5011 23.3501 28.6998 22.8705C28.8985 22.3908 29.2349 21.9808 29.6666 21.6924C30.0983 21.404 30.6058 21.25 31.125 21.25C31.8212 21.25 32.4889 21.5266 32.9812 22.0188C33.4734 22.5111 33.75 23.1788 33.75 23.875Z" fill="black"/>
<path d="M47.75 42.25H42.5V3.75C42.5 2.82174 42.1312 1.9315 41.4749 1.27513C40.8185 0.618749 39.9283 0.25 39 0.25H11C10.0717 0.25 9.1815 0.618749 8.52513 1.27513C7.86875 1.9315 7.5 2.82174 7.5 3.75V42.25H2.25C1.78587 42.25 1.34075 42.4344 1.01256 42.7626C0.684374 43.0908 0.5 43.5359 0.5 44C0.5 44.4641 0.684374 44.9092 1.01256 45.2374C1.34075 45.5656 1.78587 45.75 2.25 45.75H47.75C48.2141 45.75 48.6592 45.5656 48.9874 45.2374C49.3156 44.9092 49.5 44.4641 49.5 44C49.5 43.5359 49.3156 43.0908 48.9874 42.7626C48.6592 42.4344 48.2141 42.25 47.75 42.25ZM11 3.75H39V42.25H11V3.75ZM33.75 23.875C33.75 24.3942 33.596 24.9017 33.3076 25.3334C33.0192 25.7651 32.6092 26.1015 32.1295 26.3002C31.6499 26.4989 31.1221 26.5508 30.6129 26.4496C30.1037 26.3483 29.636 26.0983 29.2688 25.7312C28.9017 25.364 28.6517 24.8963 28.5504 24.3871C28.4492 23.8779 28.5011 23.3501 28.6998 22.8705C28.8985 22.3908 29.2349 21.9808 29.6666 21.6924C30.0983 21.404 30.6058 21.25 31.125 21.25C31.8212 21.25 32.4889 21.5266 32.9812 22.0188C33.4734 22.5111 33.75 23.1788 33.75 23.875Z" fill="url(#paint0_linear_3905_2038)"/>
<defs>
<linearGradient id="paint0_linear_3905_2038" x1="-1157.34" y1="50.5968" x2="-1155.32" y2="-38.9833" gradientUnits="userSpaceOnUse">
<stop stop-color="#E8DF38"/>
<stop offset="1" stop-color="#41D882"/>
</linearGradient>
</defs>
</svg>
