<svg width="138" height="51" viewBox="0 0 138 51" fill="none" xmlns="http://www.w3.org/2000/svg">
<path d="M130.079 0.363525H7.92055C3.99688 0.363525 0.804688 3.56149 0.804688 7.49226V43.5075C0.804688 47.4383 3.99688 50.6363 7.92055 50.6363H11.7853V43.0902C11.7853 37.6318 16.2182 33.1911 21.6667 33.1911H116.333C121.782 33.1911 126.215 37.6318 126.215 43.0902V50.6363H130.079C134.003 50.6363 137.195 47.4383 137.195 43.5075V7.49226C137.195 3.56149 134.003 0.363525 130.079 0.363525ZM16.5791 16.0384H7.75451C6.9911 16.0384 6.37201 15.4183 6.37201 14.6534C6.37201 13.8885 6.9911 13.2684 7.75451 13.2684H16.5791C17.3427 13.2684 17.9616 13.8885 17.9616 14.6534C17.9616 15.4183 17.3427 16.0384 16.5791 16.0384ZM16.5791 9.28542H7.75451C6.9911 9.28542 6.37201 8.66536 6.37201 7.90042C6.37201 7.13549 6.9911 6.51542 7.75451 6.51542H16.5791C17.3427 6.51542 17.9616 7.13549 17.9616 7.90042C17.9616 8.66536 17.3427 9.28542 16.5791 9.28542Z" fill="url(#paint0_linear_3905_2202)"/>
<path d="M7.92055 0.613525H130.079C133.865 0.613525 136.945 3.69914 136.945 7.49226V43.5075C136.945 47.3006 133.865 50.3863 130.079 50.3863H126.465V43.0902C126.465 37.4942 121.921 32.9411 116.333 32.9411H21.6667C16.0797 32.9411 11.5353 37.4942 11.5353 43.0902V50.3863H7.92055C4.13537 50.3863 1.05469 47.3007 1.05469 43.5075V7.49226C1.05469 3.69914 4.13537 0.613525 7.92055 0.613525ZM7.75451 16.2884H16.5791C17.4812 16.2884 18.2116 15.556 18.2116 14.6534C18.2116 13.7508 17.4812 13.0184 16.5791 13.0184H7.75451C6.85262 13.0184 6.12201 13.7508 6.12201 14.6534C6.12201 15.556 6.85262 16.2884 7.75451 16.2884ZM7.75451 9.53542H16.5791C17.4812 9.53542 18.2116 8.803 18.2116 7.90042C18.2116 6.99784 17.4812 6.26542 16.5791 6.26542H7.75451C6.85262 6.26542 6.12201 6.99783 6.12201 7.90042C6.12201 8.80302 6.85262 9.53542 7.75451 9.53542Z" stroke="white" stroke-opacity="0.5" stroke-width="0.5"/>
<defs>
<linearGradient id="paint0_linear_3905_2202" x1="69.0001" y1="0.363525" x2="69.0001" y2="50.6363" gradientUnits="userSpaceOnUse">
<stop stop-color="#FF4444"/>
<stop offset="1" stop-color="#992929"/>
</linearGradient>
</defs>
</svg>
