<svg width="39" height="50" viewBox="0 0 39 50" fill="none" xmlns="http://www.w3.org/2000/svg">
<path d="M29.5625 9.44482C26.8605 6.32421 23.8193 3.51419 20.4953 1.0667C20.2011 0.860571 19.8505 0.75 19.4912 0.75C19.132 0.75 18.7814 0.860571 18.4872 1.0667C15.1693 3.51521 12.1341 6.3252 9.4375 9.44482C3.42406 16.3508 0.25 23.6308 0.25 30.4995C0.25 35.6049 2.27812 40.5012 5.8882 44.1113C9.49827 47.7214 14.3946 49.7495 19.5 49.7495C24.6054 49.7495 29.5017 47.7214 33.1118 44.1113C36.7219 40.5012 38.75 35.6049 38.75 30.4995C38.75 23.6308 35.5759 16.3508 29.5625 9.44482ZM19.5 46.2495C15.3243 46.2449 11.3209 44.584 8.36819 41.6313C5.41549 38.6786 3.75463 34.6753 3.75 30.4995C3.75 17.9804 15.8841 7.53076 19.5 4.68701C23.1159 7.53076 35.25 17.9761 35.25 30.4995C35.2454 34.6753 33.5845 38.6786 30.6318 41.6313C27.6791 44.584 23.6757 46.2449 19.5 46.2495ZM31.7259 32.5426C31.2722 35.0773 30.0527 37.4121 28.2317 39.2327C26.4107 41.0533 24.0757 42.2722 21.5409 42.7254C21.4447 42.7409 21.3475 42.7489 21.25 42.7495C20.811 42.7494 20.3881 42.5843 20.0652 42.287C19.7422 41.9897 19.5428 41.5819 19.5065 41.1444C19.4701 40.7069 19.5995 40.2718 19.869 39.9252C20.1385 39.5787 20.5283 39.3461 20.9612 39.2736C24.5859 38.6633 27.6616 35.5876 28.2762 31.9564C28.354 31.4986 28.6104 31.0905 28.989 30.8218C29.3677 30.5531 29.8376 30.4458 30.2953 30.5236C30.7531 30.6013 31.1612 30.8577 31.4299 31.2364C31.6986 31.615 31.8059 32.0849 31.7281 32.5426H31.7259Z" fill="black"/>
<path d="M29.5625 9.44482C26.8605 6.32421 23.8193 3.51419 20.4953 1.0667C20.2011 0.860571 19.8505 0.75 19.4912 0.75C19.132 0.75 18.7814 0.860571 18.4872 1.0667C15.1693 3.51521 12.1341 6.3252 9.4375 9.44482C3.42406 16.3508 0.25 23.6308 0.25 30.4995C0.25 35.6049 2.27812 40.5012 5.8882 44.1113C9.49827 47.7214 14.3946 49.7495 19.5 49.7495C24.6054 49.7495 29.5017 47.7214 33.1118 44.1113C36.7219 40.5012 38.75 35.6049 38.75 30.4995C38.75 23.6308 35.5759 16.3508 29.5625 9.44482ZM19.5 46.2495C15.3243 46.2449 11.3209 44.584 8.36819 41.6313C5.41549 38.6786 3.75463 34.6753 3.75 30.4995C3.75 17.9804 15.8841 7.53076 19.5 4.68701C23.1159 7.53076 35.25 17.9761 35.25 30.4995C35.2454 34.6753 33.5845 38.6786 30.6318 41.6313C27.6791 44.584 23.6757 46.2449 19.5 46.2495ZM31.7259 32.5426C31.2722 35.0773 30.0527 37.4121 28.2317 39.2327C26.4107 41.0533 24.0757 42.2722 21.5409 42.7254C21.4447 42.7409 21.3475 42.7489 21.25 42.7495C20.811 42.7494 20.3881 42.5843 20.0652 42.287C19.7422 41.9897 19.5428 41.5819 19.5065 41.1444C19.4701 40.7069 19.5995 40.2718 19.869 39.9252C20.1385 39.5787 20.5283 39.3461 20.9612 39.2736C24.5859 38.6633 27.6616 35.5876 28.2762 31.9564C28.354 31.4986 28.6104 31.0905 28.989 30.8218C29.3677 30.5531 29.8376 30.4458 30.2953 30.5236C30.7531 30.6013 31.1612 30.8577 31.4299 31.2364C31.6986 31.615 31.8059 32.0849 31.7281 32.5426H31.7259Z" fill="url(#paint0_linear_3905_2046)"/>
<defs>
<linearGradient id="paint0_linear_3905_2046" x1="-909.482" y1="54.9691" x2="-906.503" y2="-41.4578" gradientUnits="userSpaceOnUse">
<stop stop-color="#E8DF38"/>
<stop offset="1" stop-color="#41D882"/>
</linearGradient>
</defs>
</svg>
