<svg width="50" height="41" viewBox="0 0 50 41" fill="none" xmlns="http://www.w3.org/2000/svg">
<path d="M49.5 21.0005C49.5 21.4646 49.3156 21.9097 48.9874 22.2379C48.6592 22.5661 48.2141 22.7505 47.75 22.7505H41.8306L33.5662 39.2836C33.4208 39.5743 33.1972 39.8188 32.9205 39.9896C32.6439 40.1604 32.3251 40.2507 32 40.2505H31.9125C31.5731 40.2337 31.2458 40.1184 30.9708 39.9187C30.6958 39.7191 30.4848 39.4436 30.3638 39.1261L17.8578 6.29171L10.8425 21.7245C10.7035 22.0303 10.4795 22.2897 10.1971 22.4716C9.91469 22.6535 9.58591 22.7503 9.25 22.7505H2.25C1.78587 22.7505 1.34075 22.5661 1.01256 22.2379C0.684374 21.9097 0.5 21.4646 0.5 21.0005C0.5 20.5363 0.684374 20.0912 1.01256 19.763C1.34075 19.4348 1.78587 19.2505 2.25 19.2505H8.12344L16.4075 1.0264C16.5503 0.711912 16.783 0.446722 17.0762 0.264226C17.3695 0.0817301 17.7102 -0.00990955 18.0554 0.000849527C18.4006 0.0116086 18.735 0.124285 19.0163 0.324687C19.2976 0.525089 19.5133 0.804255 19.6363 1.12702L32.2166 34.1583L39.1838 20.2217C39.3286 19.9301 39.552 19.6848 39.8287 19.5132C40.1054 19.3416 40.4244 19.2506 40.75 19.2505H47.75C48.2141 19.2505 48.6592 19.4348 48.9874 19.763C49.3156 20.0912 49.5 20.5363 49.5 21.0005Z" fill="url(#paint0_linear_3905_2132)"/>
<defs>
<linearGradient id="paint0_linear_3905_2132" x1="-1157.34" y1="44.538" x2="-1155.76" y2="-34.7155" gradientUnits="userSpaceOnUse">
<stop stop-color="#E8DF38"/>
<stop offset="1" stop-color="#41D882"/>
</linearGradient>
</defs>
</svg>
