<svg width="70" height="60" viewBox="0 0 70 60" fill="none" xmlns="http://www.w3.org/2000/svg">
<path d="M17.5 32.5H5C4.33696 32.5 3.70107 32.2366 3.23223 31.7678C2.76339 31.2989 2.5 30.663 2.5 30C2.5 29.337 2.76339 28.7011 3.23223 28.2322C3.70107 27.7634 4.33696 27.5 5 27.5H16.1625L20.4187 21.1125C20.647 20.7696 20.9564 20.4884 21.3195 20.2939C21.6826 20.0993 22.0881 19.9976 22.5 19.9976C22.9119 19.9976 23.3174 20.0993 23.6805 20.2939C24.0436 20.4884 24.353 20.7696 24.5813 21.1125L32.5 32.9875L35.4187 28.6125C35.6472 28.27 35.9568 27.9893 36.3198 27.7952C36.6829 27.6011 37.0883 27.4997 37.5 27.5H45C45.663 27.5 46.2989 27.7634 46.7678 28.2322C47.2366 28.7011 47.5 29.337 47.5 30C47.5 30.663 47.2366 31.2989 46.7678 31.7678C46.2989 32.2366 45.663 32.5 45 32.5H38.8375L34.5813 38.8875C34.353 39.2304 34.0436 39.5116 33.6805 39.7061C33.3174 39.9007 32.9119 40.0024 32.5 40.0024C32.0881 40.0024 31.6826 39.9007 31.3195 39.7061C30.9564 39.5116 30.647 39.2304 30.4187 38.8875L22.5 27.0062L19.5813 31.3812C19.3535 31.7249 19.0443 32.0068 18.6811 32.202C18.318 32.3972 17.9123 32.4996 17.5 32.5ZM50.625 0C44.1719 0 38.5219 2.775 35 7.46562C31.4781 2.775 25.8281 0 19.375 0C14.2382 0.0057898 9.31346 2.04894 5.6812 5.6812C2.04894 9.31346 0.0057898 14.2382 0 19.375C0 19.6094 0 19.8438 0 20.0781C0.02072 20.7412 0.303983 21.3688 0.787476 21.823C1.27097 22.2772 1.91508 22.5207 2.57812 22.5C3.24117 22.4793 3.86882 22.196 4.32301 21.7125C4.7772 21.229 5.02072 20.5849 5 19.9219C5 19.7406 5 19.5562 5 19.375C5.00496 15.564 6.52106 11.9106 9.21582 9.21582C11.9106 6.52106 15.564 5.00496 19.375 5C25.4531 5 30.5562 8.2375 32.6875 13.4375C32.8759 13.896 33.1963 14.2882 33.608 14.5642C34.0198 14.8402 34.5043 14.9876 35 14.9876C35.4957 14.9876 35.9802 14.8402 36.392 14.5642C36.8037 14.2882 37.1241 13.896 37.3125 13.4375C39.4437 8.22812 44.5469 5 50.625 5C54.436 5.00496 58.0894 6.52106 60.7842 9.21582C63.4789 11.9106 64.995 15.564 65 19.375C65 36.1281 40.7 51.2969 35 54.625C31.6156 52.6531 21.6781 46.5 14.1625 38.3094C13.9405 38.0672 13.673 37.8712 13.3752 37.7325C13.0774 37.5938 12.7552 37.515 12.427 37.5008C12.0988 37.4866 11.771 37.5372 11.4624 37.6496C11.1537 37.7621 10.8702 37.9342 10.6281 38.1562C10.386 38.3783 10.19 38.6458 10.0512 38.9436C9.91251 39.2413 9.83379 39.5635 9.81957 39.8917C9.80535 40.2199 9.85591 40.5477 9.96837 40.8564C10.0808 41.165 10.253 41.4485 10.475 41.6906C20.2156 52.3156 33.2656 59.4031 33.8156 59.7C34.1797 59.8958 34.5866 59.9984 35 59.9984C35.4134 59.9984 35.8203 59.8958 36.1844 59.7C37.5656 58.9562 70 41.25 70 19.375C69.9942 14.2382 67.9511 9.31346 64.3188 5.6812C60.6865 2.04894 55.7618 0.0057898 50.625 0Z" fill="url(#paint0_linear_3905_2248)"/>
<defs>
<linearGradient id="paint0_linear_3905_2248" x1="-1654.06" y1="66.3895" x2="-1651.6" y2="-51.7436" gradientUnits="userSpaceOnUse">
<stop stop-color="#E8DF38"/>
<stop offset="1" stop-color="#41D882"/>
</linearGradient>
</defs>
</svg>
