<svg width="1623" height="1359" viewBox="0 0 1623 1359" fill="none" xmlns="http://www.w3.org/2000/svg">
<g clip-path="url(#clip0_4553_1516)">
<rect width="1623" height="1359" fill="#0B131F"/>
<g style="mix-blend-mode:plus-lighter" filter="url(#filter0_f_4553_1516)">
<ellipse cx="1860.88" cy="320.059" rx="376.5" ry="376" transform="rotate(-120 1860.88 320.059)" fill="#74D960"/>
</g>
<g opacity="0.75">
<g opacity="0.5" filter="url(#filter1_f_4553_1516)">
<circle cx="141.049" cy="1194.63" r="216.37" fill="#2BBA69" fill-opacity="0.34"/>
</g>
<g opacity="0.5" filter="url(#filter2_f_4553_1516)">
<circle cx="521.073" cy="569.426" r="216.37" fill="#2BBA69" fill-opacity="0.34"/>
</g>
<g opacity="0.5" filter="url(#filter3_f_4553_1516)">
<circle cx="1548.28" cy="153.123" r="153.123" fill="#2BBA69"/>
</g>
<g opacity="0.5" clip-path="url(#clip1_4553_1516)">
<mask id="mask0_4553_1516" style="mask-type:alpha" maskUnits="userSpaceOnUse" x="-33" y="207" width="1766" height="1766">
<rect width="1765.28" height="1467.39" transform="translate(-32.4141 207.184)" fill="url(#paint0_radial_4553_1516)"/>
</mask>
<g mask="url(#mask0_4553_1516)">
<g clip-path="url(#clip2_4553_1516)">
<mask id="path-7-inside-1_4553_1516" fill="white">
<path d="M-91.2578 207.184H26.4277V324.869H-91.2578V207.184Z"/>
</mask>
<path d="M26.4277 324.869V326.095H27.6536V324.869H26.4277ZM25.2018 207.184V324.869H27.6536V207.184H25.2018ZM26.4277 323.643H-91.2578V326.095H26.4277V323.643Z" fill="white" fill-opacity="0.25" mask="url(#path-7-inside-1_4553_1516)"/>
<mask id="path-9-inside-2_4553_1516" fill="white">
<path d="M26.4297 207.184H144.115V324.869H26.4297V207.184Z"/>
</mask>
<path d="M144.115 324.869V326.095H145.341V324.869H144.115ZM142.889 207.184V324.869H145.341V207.184H142.889ZM144.115 323.643H26.4297V326.095H144.115V323.643Z" fill="white" fill-opacity="0.25" mask="url(#path-9-inside-2_4553_1516)"/>
<mask id="path-11-inside-3_4553_1516" fill="white">
<path d="M144.117 207.184H261.803V324.869H144.117V207.184Z"/>
</mask>
<path d="M261.803 324.869V326.095H263.029V324.869H261.803ZM260.577 207.184V324.869H263.029V207.184H260.577ZM261.803 323.643H144.117V326.095H261.803V323.643Z" fill="white" fill-opacity="0.25" mask="url(#path-11-inside-3_4553_1516)"/>
<mask id="path-13-inside-4_4553_1516" fill="white">
<path d="M261.805 207.184H379.49V324.869H261.805V207.184Z"/>
</mask>
<path d="M379.49 324.869V326.095H380.716V324.869H379.49ZM378.264 207.184V324.869H380.716V207.184H378.264ZM379.49 323.643H261.805V326.095H379.49V323.643Z" fill="white" fill-opacity="0.25" mask="url(#path-13-inside-4_4553_1516)"/>
<mask id="path-15-inside-5_4553_1516" fill="white">
<path d="M379.484 207.184H497.17V324.869H379.484V207.184Z"/>
</mask>
<path d="M497.17 324.869V326.095H498.396V324.869H497.17ZM495.944 207.184V324.869H498.396V207.184H495.944ZM497.17 323.643H379.484V326.095H497.17V323.643Z" fill="white" fill-opacity="0.25" mask="url(#path-15-inside-5_4553_1516)"/>
<mask id="path-17-inside-6_4553_1516" fill="white">
<path d="M497.172 207.184H614.857V324.869H497.172V207.184Z"/>
</mask>
<path d="M614.857 324.869V326.095H616.083V324.869H614.857ZM613.631 207.184V324.869H616.083V207.184H613.631ZM614.857 323.643H497.172V326.095H614.857V323.643Z" fill="white" fill-opacity="0.25" mask="url(#path-17-inside-6_4553_1516)"/>
<mask id="path-19-inside-7_4553_1516" fill="white">
<path d="M614.859 207.184H732.545V324.869H614.859V207.184Z"/>
</mask>
<path d="M732.545 324.869V326.095H733.771V324.869H732.545ZM731.319 207.184V324.869H733.771V207.184H731.319ZM732.545 323.643H614.859V326.095H732.545V323.643Z" fill="white" fill-opacity="0.25" mask="url(#path-19-inside-7_4553_1516)"/>
<mask id="path-21-inside-8_4553_1516" fill="white">
<path d="M732.547 207.184H850.232V324.869H732.547V207.184Z"/>
</mask>
<path d="M850.232 324.869V326.095H851.458V324.869H850.232ZM849.006 207.184V324.869H851.458V207.184H849.006ZM850.232 323.643H732.547V326.095H850.232V323.643Z" fill="white" fill-opacity="0.25" mask="url(#path-21-inside-8_4553_1516)"/>
<mask id="path-23-inside-9_4553_1516" fill="white">
<path d="M850.227 207.184H967.912V324.869H850.227V207.184Z"/>
</mask>
<path d="M967.912 324.869V326.095H969.138V324.869H967.912ZM966.686 207.184V324.869H969.138V207.184H966.686ZM967.912 323.643H850.227V326.095H967.912V323.643Z" fill="white" fill-opacity="0.25" mask="url(#path-23-inside-9_4553_1516)"/>
<mask id="path-25-inside-10_4553_1516" fill="white">
<path d="M967.914 207.184H1085.6V324.869H967.914V207.184Z"/>
</mask>
<path d="M1085.6 324.869V326.095H1086.83V324.869H1085.6ZM1084.37 207.184V324.869H1086.83V207.184H1084.37ZM1085.6 323.643H967.914V326.095H1085.6V323.643Z" fill="white" fill-opacity="0.25" mask="url(#path-25-inside-10_4553_1516)"/>
<mask id="path-27-inside-11_4553_1516" fill="white">
<path d="M1085.6 207.184H1203.29V324.869H1085.6V207.184Z"/>
</mask>
<path d="M1203.29 324.869V326.095H1204.51V324.869H1203.29ZM1202.06 207.184V324.869H1204.51V207.184H1202.06ZM1203.29 323.643H1085.6V326.095H1203.29V323.643Z" fill="white" fill-opacity="0.25" mask="url(#path-27-inside-11_4553_1516)"/>
<mask id="path-29-inside-12_4553_1516" fill="white">
<path d="M1203.29 207.184H1320.97V324.869H1203.29V207.184Z"/>
</mask>
<path d="M1320.97 324.869V326.095H1322.2V324.869H1320.97ZM1319.75 207.184V324.869H1322.2V207.184H1319.75ZM1320.97 323.643H1203.29V326.095H1320.97V323.643Z" fill="white" fill-opacity="0.25" mask="url(#path-29-inside-12_4553_1516)"/>
<mask id="path-31-inside-13_4553_1516" fill="white">
<path d="M1320.97 207.184H1438.65V324.869H1320.97V207.184Z"/>
</mask>
<path d="M1438.65 324.869V326.095H1439.88V324.869H1438.65ZM1437.43 207.184V324.869H1439.88V207.184H1437.43ZM1438.65 323.643H1320.97V326.095H1438.65V323.643Z" fill="white" fill-opacity="0.25" mask="url(#path-31-inside-13_4553_1516)"/>
<mask id="path-33-inside-14_4553_1516" fill="white">
<path d="M1438.66 207.184H1556.34V324.869H1438.66V207.184Z"/>
</mask>
<path d="M1556.34 324.869V326.095H1557.57V324.869H1556.34ZM1555.12 207.184V324.869H1557.57V207.184H1555.12ZM1556.34 323.643H1438.66V326.095H1556.34V323.643Z" fill="white" fill-opacity="0.25" mask="url(#path-33-inside-14_4553_1516)"/>
<mask id="path-35-inside-15_4553_1516" fill="white">
<path d="M1556.34 207.184H1674.03V324.869H1556.34V207.184Z"/>
</mask>
<path d="M1674.03 324.869V326.095H1675.26V324.869H1674.03ZM1672.8 207.184V324.869H1675.26V207.184H1672.8ZM1674.03 323.643H1556.34V326.095H1674.03V323.643Z" fill="white" fill-opacity="0.25" mask="url(#path-35-inside-15_4553_1516)"/>
<mask id="path-37-inside-16_4553_1516" fill="white">
<path d="M-91.2578 324.869H26.4277V442.555H-91.2578V324.869Z"/>
</mask>
<path d="M26.4277 442.555V443.781H27.6536V442.555H26.4277ZM25.2018 324.869V442.555H27.6536V324.869H25.2018ZM26.4277 441.329H-91.2578V443.781H26.4277V441.329Z" fill="white" fill-opacity="0.25" mask="url(#path-37-inside-16_4553_1516)"/>
<mask id="path-39-inside-17_4553_1516" fill="white">
<path d="M26.4297 324.869H144.115V442.555H26.4297V324.869Z"/>
</mask>
<path d="M144.115 442.555V443.781H145.341V442.555H144.115ZM142.889 324.869V442.555H145.341V324.869H142.889ZM144.115 441.329H26.4297V443.781H144.115V441.329Z" fill="white" fill-opacity="0.25" mask="url(#path-39-inside-17_4553_1516)"/>
<mask id="path-41-inside-18_4553_1516" fill="white">
<path d="M144.117 324.869H261.803V442.555H144.117V324.869Z"/>
</mask>
<path d="M261.803 442.555V443.781H263.029V442.555H261.803ZM260.577 324.869V442.555H263.029V324.869H260.577ZM261.803 441.329H144.117V443.781H261.803V441.329Z" fill="white" fill-opacity="0.25" mask="url(#path-41-inside-18_4553_1516)"/>
<mask id="path-43-inside-19_4553_1516" fill="white">
<path d="M261.805 324.869H379.49V442.555H261.805V324.869Z"/>
</mask>
<path d="M261.805 324.869H379.49V442.555H261.805V324.869Z" fill="white" fill-opacity="0.2"/>
<path d="M379.49 442.555V443.781H380.716V442.555H379.49ZM378.264 324.869V442.555H380.716V324.869H378.264ZM379.49 441.329H261.805V443.781H379.49V441.329Z" fill="white" fill-opacity="0.25" mask="url(#path-43-inside-19_4553_1516)"/>
<mask id="path-45-inside-20_4553_1516" fill="white">
<path d="M379.484 324.869H497.17V442.555H379.484V324.869Z"/>
</mask>
<path d="M497.17 442.555V443.781H498.396V442.555H497.17ZM495.944 324.869V442.555H498.396V324.869H495.944ZM497.17 441.329H379.484V443.781H497.17V441.329Z" fill="white" fill-opacity="0.25" mask="url(#path-45-inside-20_4553_1516)"/>
<mask id="path-47-inside-21_4553_1516" fill="white">
<path d="M497.172 324.869H614.857V442.555H497.172V324.869Z"/>
</mask>
<path d="M614.857 442.555V443.781H616.083V442.555H614.857ZM613.631 324.869V442.555H616.083V324.869H613.631ZM614.857 441.329H497.172V443.781H614.857V441.329Z" fill="white" fill-opacity="0.25" mask="url(#path-47-inside-21_4553_1516)"/>
<mask id="path-49-inside-22_4553_1516" fill="white">
<path d="M614.859 324.869H732.545V442.555H614.859V324.869Z"/>
</mask>
<path d="M732.545 442.555V443.781H733.771V442.555H732.545ZM731.319 324.869V442.555H733.771V324.869H731.319ZM732.545 441.329H614.859V443.781H732.545V441.329Z" fill="white" fill-opacity="0.25" mask="url(#path-49-inside-22_4553_1516)"/>
<mask id="path-51-inside-23_4553_1516" fill="white">
<path d="M732.547 324.869H850.232V442.555H732.547V324.869Z"/>
</mask>
<path d="M850.232 442.555V443.781H851.458V442.555H850.232ZM849.006 324.869V442.555H851.458V324.869H849.006ZM850.232 441.329H732.547V443.781H850.232V441.329Z" fill="white" fill-opacity="0.25" mask="url(#path-51-inside-23_4553_1516)"/>
<mask id="path-53-inside-24_4553_1516" fill="white">
<path d="M850.227 324.869H967.912V442.555H850.227V324.869Z"/>
</mask>
<path d="M967.912 442.555V443.781H969.138V442.555H967.912ZM966.686 324.869V442.555H969.138V324.869H966.686ZM967.912 441.329H850.227V443.781H967.912V441.329Z" fill="white" fill-opacity="0.25" mask="url(#path-53-inside-24_4553_1516)"/>
<mask id="path-55-inside-25_4553_1516" fill="white">
<path d="M967.914 324.869H1085.6V442.555H967.914V324.869Z"/>
</mask>
<path d="M1085.6 442.555V443.781H1086.83V442.555H1085.6ZM1084.37 324.869V442.555H1086.83V324.869H1084.37ZM1085.6 441.329H967.914V443.781H1085.6V441.329Z" fill="white" fill-opacity="0.25" mask="url(#path-55-inside-25_4553_1516)"/>
<mask id="path-57-inside-26_4553_1516" fill="white">
<path d="M1085.6 324.869H1203.29V442.555H1085.6V324.869Z"/>
</mask>
<path d="M1203.29 442.555V443.781H1204.51V442.555H1203.29ZM1202.06 324.869V442.555H1204.51V324.869H1202.06ZM1203.29 441.329H1085.6V443.781H1203.29V441.329Z" fill="white" fill-opacity="0.25" mask="url(#path-57-inside-26_4553_1516)"/>
<mask id="path-59-inside-27_4553_1516" fill="white">
<path d="M1203.29 324.869H1320.97V442.555H1203.29V324.869Z"/>
</mask>
<path d="M1320.97 442.555V443.781H1322.2V442.555H1320.97ZM1319.75 324.869V442.555H1322.2V324.869H1319.75ZM1320.97 441.329H1203.29V443.781H1320.97V441.329Z" fill="white" fill-opacity="0.25" mask="url(#path-59-inside-27_4553_1516)"/>
<mask id="path-61-inside-28_4553_1516" fill="white">
<path d="M1320.97 324.869H1438.65V442.555H1320.97V324.869Z"/>
</mask>
<path d="M1320.97 324.869H1438.65V442.555H1320.97V324.869Z" fill="white" fill-opacity="0.2"/>
<path d="M1438.65 442.555V443.781H1439.88V442.555H1438.65ZM1437.43 324.869V442.555H1439.88V324.869H1437.43ZM1438.65 441.329H1320.97V443.781H1438.65V441.329Z" fill="white" fill-opacity="0.25" mask="url(#path-61-inside-28_4553_1516)"/>
<mask id="path-63-inside-29_4553_1516" fill="white">
<path d="M1438.66 324.869H1556.34V442.555H1438.66V324.869Z"/>
</mask>
<path d="M1556.34 442.555V443.781H1557.57V442.555H1556.34ZM1555.12 324.869V442.555H1557.57V324.869H1555.12ZM1556.34 441.329H1438.66V443.781H1556.34V441.329Z" fill="white" fill-opacity="0.25" mask="url(#path-63-inside-29_4553_1516)"/>
<mask id="path-65-inside-30_4553_1516" fill="white">
<path d="M1556.34 324.869H1674.03V442.555H1556.34V324.869Z"/>
</mask>
<path d="M1674.03 442.555V443.781H1675.26V442.555H1674.03ZM1672.8 324.869V442.555H1675.26V324.869H1672.8ZM1674.03 441.329H1556.34V443.781H1674.03V441.329Z" fill="white" fill-opacity="0.25" mask="url(#path-65-inside-30_4553_1516)"/>
<mask id="path-67-inside-31_4553_1516" fill="white">
<path d="M-91.2578 442.555H26.4277V560.24H-91.2578V442.555Z"/>
</mask>
<path d="M26.4277 560.24V561.466H27.6536V560.24H26.4277ZM25.2018 442.555V560.24H27.6536V442.555H25.2018ZM26.4277 559.014H-91.2578V561.466H26.4277V559.014Z" fill="white" fill-opacity="0.25" mask="url(#path-67-inside-31_4553_1516)"/>
<mask id="path-69-inside-32_4553_1516" fill="white">
<path d="M26.4297 442.555H144.115V560.24H26.4297V442.555Z"/>
</mask>
<path d="M144.115 560.24V561.466H145.341V560.24H144.115ZM142.889 442.555V560.24H145.341V442.555H142.889ZM144.115 559.014H26.4297V561.466H144.115V559.014Z" fill="white" fill-opacity="0.25" mask="url(#path-69-inside-32_4553_1516)"/>
<mask id="path-71-inside-33_4553_1516" fill="white">
<path d="M144.117 442.555H261.803V560.24H144.117V442.555Z"/>
</mask>
<path d="M261.803 560.24V561.466H263.029V560.24H261.803ZM260.577 442.555V560.24H263.029V442.555H260.577ZM261.803 559.014H144.117V561.466H261.803V559.014Z" fill="white" fill-opacity="0.25" mask="url(#path-71-inside-33_4553_1516)"/>
<mask id="path-73-inside-34_4553_1516" fill="white">
<path d="M261.805 442.555H379.49V560.24H261.805V442.555Z"/>
</mask>
<path d="M379.49 560.24V561.466H380.716V560.24H379.49ZM378.264 442.555V560.24H380.716V442.555H378.264ZM379.49 559.014H261.805V561.466H379.49V559.014Z" fill="white" fill-opacity="0.25" mask="url(#path-73-inside-34_4553_1516)"/>
<mask id="path-75-inside-35_4553_1516" fill="white">
<path d="M379.484 442.555H497.17V560.24H379.484V442.555Z"/>
</mask>
<path d="M497.17 560.24V561.466H498.396V560.24H497.17ZM495.944 442.555V560.24H498.396V442.555H495.944ZM497.17 559.014H379.484V561.466H497.17V559.014Z" fill="white" fill-opacity="0.25" mask="url(#path-75-inside-35_4553_1516)"/>
<mask id="path-77-inside-36_4553_1516" fill="white">
<path d="M497.172 442.555H614.857V560.24H497.172V442.555Z"/>
</mask>
<path d="M497.172 442.555H614.857V560.24H497.172V442.555Z" fill="white" fill-opacity="0.2"/>
<path d="M614.857 560.24V561.466H616.083V560.24H614.857ZM613.631 442.555V560.24H616.083V442.555H613.631ZM614.857 559.014H497.172V561.466H614.857V559.014Z" fill="white" fill-opacity="0.25" mask="url(#path-77-inside-36_4553_1516)"/>
<mask id="path-79-inside-37_4553_1516" fill="white">
<path d="M614.859 442.555H732.545V560.24H614.859V442.555Z"/>
</mask>
<path d="M732.545 560.24V561.466H733.771V560.24H732.545ZM731.319 442.555V560.24H733.771V442.555H731.319ZM732.545 559.014H614.859V561.466H732.545V559.014Z" fill="white" fill-opacity="0.25" mask="url(#path-79-inside-37_4553_1516)"/>
<mask id="path-81-inside-38_4553_1516" fill="white">
<path d="M732.547 442.555H850.232V560.24H732.547V442.555Z"/>
</mask>
<path d="M850.232 560.24V561.466H851.458V560.24H850.232ZM849.006 442.555V560.24H851.458V442.555H849.006ZM850.232 559.014H732.547V561.466H850.232V559.014Z" fill="white" fill-opacity="0.25" mask="url(#path-81-inside-38_4553_1516)"/>
<mask id="path-83-inside-39_4553_1516" fill="white">
<path d="M850.227 442.555H967.912V560.24H850.227V442.555Z"/>
</mask>
<path d="M967.912 560.24V561.466H969.138V560.24H967.912ZM966.686 442.555V560.24H969.138V442.555H966.686ZM967.912 559.014H850.227V561.466H967.912V559.014Z" fill="white" fill-opacity="0.25" mask="url(#path-83-inside-39_4553_1516)"/>
<mask id="path-85-inside-40_4553_1516" fill="white">
<path d="M967.914 442.555H1085.6V560.24H967.914V442.555Z"/>
</mask>
<path d="M967.914 442.555H1085.6V560.24H967.914V442.555Z" fill="white" fill-opacity="0.2"/>
<path d="M1085.6 560.24V561.466H1086.83V560.24H1085.6ZM1084.37 442.555V560.24H1086.83V442.555H1084.37ZM1085.6 559.014H967.914V561.466H1085.6V559.014Z" fill="white" fill-opacity="0.25" mask="url(#path-85-inside-40_4553_1516)"/>
<mask id="path-87-inside-41_4553_1516" fill="white">
<path d="M1085.6 442.555H1203.29V560.24H1085.6V442.555Z"/>
</mask>
<path d="M1203.29 560.24V561.466H1204.51V560.24H1203.29ZM1202.06 442.555V560.24H1204.51V442.555H1202.06ZM1203.29 559.014H1085.6V561.466H1203.29V559.014Z" fill="white" fill-opacity="0.25" mask="url(#path-87-inside-41_4553_1516)"/>
<mask id="path-89-inside-42_4553_1516" fill="white">
<path d="M1203.29 442.555H1320.97V560.24H1203.29V442.555Z"/>
</mask>
<path d="M1320.97 560.24V561.466H1322.2V560.24H1320.97ZM1319.75 442.555V560.24H1322.2V442.555H1319.75ZM1320.97 559.014H1203.29V561.466H1320.97V559.014Z" fill="white" fill-opacity="0.25" mask="url(#path-89-inside-42_4553_1516)"/>
<mask id="path-91-inside-43_4553_1516" fill="white">
<path d="M1320.97 442.555H1438.65V560.24H1320.97V442.555Z"/>
</mask>
<path d="M1438.65 560.24V561.466H1439.88V560.24H1438.65ZM1437.43 442.555V560.24H1439.88V442.555H1437.43ZM1438.65 559.014H1320.97V561.466H1438.65V559.014Z" fill="white" fill-opacity="0.25" mask="url(#path-91-inside-43_4553_1516)"/>
<mask id="path-93-inside-44_4553_1516" fill="white">
<path d="M1438.66 442.555H1556.34V560.24H1438.66V442.555Z"/>
</mask>
<path d="M1556.34 560.24V561.466H1557.57V560.24H1556.34ZM1555.12 442.555V560.24H1557.57V442.555H1555.12ZM1556.34 559.014H1438.66V561.466H1556.34V559.014Z" fill="white" fill-opacity="0.25" mask="url(#path-93-inside-44_4553_1516)"/>
<mask id="path-95-inside-45_4553_1516" fill="white">
<path d="M1556.34 442.555H1674.03V560.24H1556.34V442.555Z"/>
</mask>
<path d="M1674.03 560.24V561.466H1675.26V560.24H1674.03ZM1672.8 442.555V560.24H1675.26V442.555H1672.8ZM1674.03 559.014H1556.34V561.466H1674.03V559.014Z" fill="white" fill-opacity="0.25" mask="url(#path-95-inside-45_4553_1516)"/>
<mask id="path-97-inside-46_4553_1516" fill="white">
<path d="M-91.2578 560.24H26.4277V677.926H-91.2578V560.24Z"/>
</mask>
<path d="M-91.2578 560.24H26.4277V677.926H-91.2578V560.24Z" fill="white" fill-opacity="0.2"/>
<path d="M26.4277 677.926V679.152H27.6536V677.926H26.4277ZM25.2018 560.24V677.926H27.6536V560.24H25.2018ZM26.4277 676.7H-91.2578V679.152H26.4277V676.7Z" fill="white" fill-opacity="0.25" mask="url(#path-97-inside-46_4553_1516)"/>
<mask id="path-99-inside-47_4553_1516" fill="white">
<path d="M26.4297 560.24H144.115V677.926H26.4297V560.24Z"/>
</mask>
<path d="M144.115 677.926V679.152H145.341V677.926H144.115ZM142.889 560.24V677.926H145.341V560.24H142.889ZM144.115 676.7H26.4297V679.152H144.115V676.7Z" fill="white" fill-opacity="0.25" mask="url(#path-99-inside-47_4553_1516)"/>
<mask id="path-101-inside-48_4553_1516" fill="white">
<path d="M144.117 560.24H261.803V677.926H144.117V560.24Z"/>
</mask>
<path d="M261.803 677.926V679.152H263.029V677.926H261.803ZM260.577 560.24V677.926H263.029V560.24H260.577ZM261.803 676.7H144.117V679.152H261.803V676.7Z" fill="white" fill-opacity="0.25" mask="url(#path-101-inside-48_4553_1516)"/>
<mask id="path-103-inside-49_4553_1516" fill="white">
<path d="M261.805 560.24H379.49V677.926H261.805V560.24Z"/>
</mask>
<path d="M379.49 677.926V679.152H380.716V677.926H379.49ZM378.264 560.24V677.926H380.716V560.24H378.264ZM379.49 676.7H261.805V679.152H379.49V676.7Z" fill="white" fill-opacity="0.25" mask="url(#path-103-inside-49_4553_1516)"/>
<mask id="path-105-inside-50_4553_1516" fill="white">
<path d="M379.484 560.24H497.17V677.926H379.484V560.24Z"/>
</mask>
<path d="M497.17 677.926V679.152H498.396V677.926H497.17ZM495.944 560.24V677.926H498.396V560.24H495.944ZM497.17 676.7H379.484V679.152H497.17V676.7Z" fill="white" fill-opacity="0.25" mask="url(#path-105-inside-50_4553_1516)"/>
<mask id="path-107-inside-51_4553_1516" fill="white">
<path d="M497.172 560.24H614.857V677.926H497.172V560.24Z"/>
</mask>
<path d="M614.857 677.926V679.152H616.083V677.926H614.857ZM613.631 560.24V677.926H616.083V560.24H613.631ZM614.857 676.7H497.172V679.152H614.857V676.7Z" fill="white" fill-opacity="0.25" mask="url(#path-107-inside-51_4553_1516)"/>
<mask id="path-109-inside-52_4553_1516" fill="white">
<path d="M614.859 560.24H732.545V677.926H614.859V560.24Z"/>
</mask>
<path d="M732.545 677.926V679.152H733.771V677.926H732.545ZM731.319 560.24V677.926H733.771V560.24H731.319ZM732.545 676.7H614.859V679.152H732.545V676.7Z" fill="white" fill-opacity="0.25" mask="url(#path-109-inside-52_4553_1516)"/>
<mask id="path-111-inside-53_4553_1516" fill="white">
<path d="M732.547 560.24H850.232V677.926H732.547V560.24Z"/>
</mask>
<path d="M850.232 677.926V679.152H851.458V677.926H850.232ZM849.006 560.24V677.926H851.458V560.24H849.006ZM850.232 676.7H732.547V679.152H850.232V676.7Z" fill="white" fill-opacity="0.25" mask="url(#path-111-inside-53_4553_1516)"/>
<mask id="path-113-inside-54_4553_1516" fill="white">
<path d="M850.227 560.24H967.912V677.926H850.227V560.24Z"/>
</mask>
<path d="M967.912 677.926V679.152H969.138V677.926H967.912ZM966.686 560.24V677.926H969.138V560.24H966.686ZM967.912 676.7H850.227V679.152H967.912V676.7Z" fill="white" fill-opacity="0.25" mask="url(#path-113-inside-54_4553_1516)"/>
<mask id="path-115-inside-55_4553_1516" fill="white">
<path d="M967.914 560.24H1085.6V677.926H967.914V560.24Z"/>
</mask>
<path d="M1085.6 677.926V679.152H1086.83V677.926H1085.6ZM1084.37 560.24V677.926H1086.83V560.24H1084.37ZM1085.6 676.7H967.914V679.152H1085.6V676.7Z" fill="white" fill-opacity="0.25" mask="url(#path-115-inside-55_4553_1516)"/>
<mask id="path-117-inside-56_4553_1516" fill="white">
<path d="M1085.6 560.24H1203.29V677.926H1085.6V560.24Z"/>
</mask>
<path d="M1203.29 677.926V679.152H1204.51V677.926H1203.29ZM1202.06 560.24V677.926H1204.51V560.24H1202.06ZM1203.29 676.7H1085.6V679.152H1203.29V676.7Z" fill="white" fill-opacity="0.25" mask="url(#path-117-inside-56_4553_1516)"/>
<mask id="path-119-inside-57_4553_1516" fill="white">
<path d="M1203.29 560.24H1320.97V677.926H1203.29V560.24Z"/>
</mask>
<path d="M1320.97 677.926V679.152H1322.2V677.926H1320.97ZM1319.75 560.24V677.926H1322.2V560.24H1319.75ZM1320.97 676.7H1203.29V679.152H1320.97V676.7Z" fill="white" fill-opacity="0.25" mask="url(#path-119-inside-57_4553_1516)"/>
<mask id="path-121-inside-58_4553_1516" fill="white">
<path d="M1320.97 560.24H1438.65V677.926H1320.97V560.24Z"/>
</mask>
<path d="M1320.97 560.24H1438.65V677.926H1320.97V560.24Z" fill="white" fill-opacity="0.2"/>
<path d="M1438.65 677.926V679.152H1439.88V677.926H1438.65ZM1437.43 560.24V677.926H1439.88V560.24H1437.43ZM1438.65 676.7H1320.97V679.152H1438.65V676.7Z" fill="white" fill-opacity="0.25" mask="url(#path-121-inside-58_4553_1516)"/>
<mask id="path-123-inside-59_4553_1516" fill="white">
<path d="M1438.66 560.24H1556.34V677.926H1438.66V560.24Z"/>
</mask>
<path d="M1556.34 677.926V679.152H1557.57V677.926H1556.34ZM1555.12 560.24V677.926H1557.57V560.24H1555.12ZM1556.34 676.7H1438.66V679.152H1556.34V676.7Z" fill="white" fill-opacity="0.25" mask="url(#path-123-inside-59_4553_1516)"/>
<mask id="path-125-inside-60_4553_1516" fill="white">
<path d="M1556.34 560.24H1674.03V677.926H1556.34V560.24Z"/>
</mask>
<path d="M1674.03 677.926V679.152H1675.26V677.926H1674.03ZM1672.8 560.24V677.926H1675.26V560.24H1672.8ZM1674.03 676.7H1556.34V679.152H1674.03V676.7Z" fill="white" fill-opacity="0.25" mask="url(#path-125-inside-60_4553_1516)"/>
<mask id="path-127-inside-61_4553_1516" fill="white">
<path d="M-91.2578 677.926H26.4277V795.611H-91.2578V677.926Z"/>
</mask>
<path d="M26.4277 795.611V796.837H27.6536V795.611H26.4277ZM25.2018 677.926V795.611H27.6536V677.926H25.2018ZM26.4277 794.385H-91.2578V796.837H26.4277V794.385Z" fill="white" fill-opacity="0.25" mask="url(#path-127-inside-61_4553_1516)"/>
<mask id="path-129-inside-62_4553_1516" fill="white">
<path d="M26.4297 677.926H144.115V795.611H26.4297V677.926Z"/>
</mask>
<path d="M144.115 795.611V796.837H145.341V795.611H144.115ZM142.889 677.926V795.611H145.341V677.926H142.889ZM144.115 794.385H26.4297V796.837H144.115V794.385Z" fill="white" fill-opacity="0.25" mask="url(#path-129-inside-62_4553_1516)"/>
<mask id="path-131-inside-63_4553_1516" fill="white">
<path d="M144.117 677.926H261.803V795.611H144.117V677.926Z"/>
</mask>
<path d="M261.803 795.611V796.837H263.029V795.611H261.803ZM260.577 677.926V795.611H263.029V677.926H260.577ZM261.803 794.385H144.117V796.837H261.803V794.385Z" fill="white" fill-opacity="0.25" mask="url(#path-131-inside-63_4553_1516)"/>
<mask id="path-133-inside-64_4553_1516" fill="white">
<path d="M261.805 677.926H379.49V795.611H261.805V677.926Z"/>
</mask>
<path d="M379.49 795.611V796.837H380.716V795.611H379.49ZM378.264 677.926V795.611H380.716V677.926H378.264ZM379.49 794.385H261.805V796.837H379.49V794.385Z" fill="white" fill-opacity="0.25" mask="url(#path-133-inside-64_4553_1516)"/>
<mask id="path-135-inside-65_4553_1516" fill="white">
<path d="M379.484 677.926H497.17V795.611H379.484V677.926Z"/>
</mask>
<path d="M497.17 795.611V796.837H498.396V795.611H497.17ZM495.944 677.926V795.611H498.396V677.926H495.944ZM497.17 794.385H379.484V796.837H497.17V794.385Z" fill="white" fill-opacity="0.25" mask="url(#path-135-inside-65_4553_1516)"/>
<mask id="path-137-inside-66_4553_1516" fill="white">
<path d="M497.172 677.926H614.857V795.611H497.172V677.926Z"/>
</mask>
<path d="M614.857 795.611V796.837H616.083V795.611H614.857ZM613.631 677.926V795.611H616.083V677.926H613.631ZM614.857 794.385H497.172V796.837H614.857V794.385Z" fill="white" fill-opacity="0.25" mask="url(#path-137-inside-66_4553_1516)"/>
<mask id="path-139-inside-67_4553_1516" fill="white">
<path d="M614.859 677.926H732.545V795.611H614.859V677.926Z"/>
</mask>
<path d="M614.859 677.926H732.545V795.611H614.859V677.926Z" fill="white" fill-opacity="0.2"/>
<path d="M732.545 795.611V796.837H733.771V795.611H732.545ZM731.319 677.926V795.611H733.771V677.926H731.319ZM732.545 794.385H614.859V796.837H732.545V794.385Z" fill="white" fill-opacity="0.25" mask="url(#path-139-inside-67_4553_1516)"/>
<mask id="path-141-inside-68_4553_1516" fill="white">
<path d="M732.547 677.926H850.232V795.611H732.547V677.926Z"/>
</mask>
<path d="M850.232 795.611V796.837H851.458V795.611H850.232ZM849.006 677.926V795.611H851.458V677.926H849.006ZM850.232 794.385H732.547V796.837H850.232V794.385Z" fill="white" fill-opacity="0.25" mask="url(#path-141-inside-68_4553_1516)"/>
<mask id="path-143-inside-69_4553_1516" fill="white">
<path d="M850.227 677.926H967.912V795.611H850.227V677.926Z"/>
</mask>
<path d="M967.912 795.611V796.837H969.138V795.611H967.912ZM966.686 677.926V795.611H969.138V677.926H966.686ZM967.912 794.385H850.227V796.837H967.912V794.385Z" fill="white" fill-opacity="0.25" mask="url(#path-143-inside-69_4553_1516)"/>
<mask id="path-145-inside-70_4553_1516" fill="white">
<path d="M967.914 677.926H1085.6V795.611H967.914V677.926Z"/>
</mask>
<path d="M1085.6 795.611V796.837H1086.83V795.611H1085.6ZM1084.37 677.926V795.611H1086.83V677.926H1084.37ZM1085.6 794.385H967.914V796.837H1085.6V794.385Z" fill="white" fill-opacity="0.25" mask="url(#path-145-inside-70_4553_1516)"/>
<mask id="path-147-inside-71_4553_1516" fill="white">
<path d="M1085.6 677.926H1203.29V795.611H1085.6V677.926Z"/>
</mask>
<path d="M1203.29 795.611V796.837H1204.51V795.611H1203.29ZM1202.06 677.926V795.611H1204.51V677.926H1202.06ZM1203.29 794.385H1085.6V796.837H1203.29V794.385Z" fill="white" fill-opacity="0.25" mask="url(#path-147-inside-71_4553_1516)"/>
<mask id="path-149-inside-72_4553_1516" fill="white">
<path d="M1203.29 677.926H1320.97V795.611H1203.29V677.926Z"/>
</mask>
<path d="M1320.97 795.611V796.837H1322.2V795.611H1320.97ZM1319.75 677.926V795.611H1322.2V677.926H1319.75ZM1320.97 794.385H1203.29V796.837H1320.97V794.385Z" fill="white" fill-opacity="0.25" mask="url(#path-149-inside-72_4553_1516)"/>
<mask id="path-151-inside-73_4553_1516" fill="white">
<path d="M1320.97 677.926H1438.65V795.611H1320.97V677.926Z"/>
</mask>
<path d="M1438.65 795.611V796.837H1439.88V795.611H1438.65ZM1437.43 677.926V795.611H1439.88V677.926H1437.43ZM1438.65 794.385H1320.97V796.837H1438.65V794.385Z" fill="white" fill-opacity="0.25" mask="url(#path-151-inside-73_4553_1516)"/>
<mask id="path-153-inside-74_4553_1516" fill="white">
<path d="M1438.66 677.926H1556.34V795.611H1438.66V677.926Z"/>
</mask>
<path d="M1556.34 795.611V796.837H1557.57V795.611H1556.34ZM1555.12 677.926V795.611H1557.57V677.926H1555.12ZM1556.34 794.385H1438.66V796.837H1556.34V794.385Z" fill="white" fill-opacity="0.25" mask="url(#path-153-inside-74_4553_1516)"/>
<mask id="path-155-inside-75_4553_1516" fill="white">
<path d="M1556.34 677.926H1674.03V795.611H1556.34V677.926Z"/>
</mask>
<path d="M1674.03 795.611V796.837H1675.26V795.611H1674.03ZM1672.8 677.926V795.611H1675.26V677.926H1672.8ZM1674.03 794.385H1556.34V796.837H1674.03V794.385Z" fill="white" fill-opacity="0.25" mask="url(#path-155-inside-75_4553_1516)"/>
<mask id="path-157-inside-76_4553_1516" fill="white">
<path d="M-91.2578 795.611H26.4277V913.297H-91.2578V795.611Z"/>
</mask>
<path d="M26.4277 913.297V914.523H27.6536V913.297H26.4277ZM25.2018 795.611V913.297H27.6536V795.611H25.2018ZM26.4277 912.071H-91.2578V914.523H26.4277V912.071Z" fill="white" fill-opacity="0.25" mask="url(#path-157-inside-76_4553_1516)"/>
<mask id="path-159-inside-77_4553_1516" fill="white">
<path d="M26.4297 795.611H144.115V913.297H26.4297V795.611Z"/>
</mask>
<path d="M144.115 913.297V914.523H145.341V913.297H144.115ZM142.889 795.611V913.297H145.341V795.611H142.889ZM144.115 912.071H26.4297V914.523H144.115V912.071Z" fill="white" fill-opacity="0.25" mask="url(#path-159-inside-77_4553_1516)"/>
<mask id="path-161-inside-78_4553_1516" fill="white">
<path d="M144.117 795.611H261.803V913.297H144.117V795.611Z"/>
</mask>
<path d="M261.803 913.297V914.523H263.029V913.297H261.803ZM260.577 795.611V913.297H263.029V795.611H260.577ZM261.803 912.071H144.117V914.523H261.803V912.071Z" fill="white" fill-opacity="0.25" mask="url(#path-161-inside-78_4553_1516)"/>
<mask id="path-163-inside-79_4553_1516" fill="white">
<path d="M261.805 795.611H379.49V913.297H261.805V795.611Z"/>
</mask>
<path d="M261.805 795.611H379.49V913.297H261.805V795.611Z" fill="white" fill-opacity="0.2"/>
<path d="M379.49 913.297V914.523H380.716V913.297H379.49ZM378.264 795.611V913.297H380.716V795.611H378.264ZM379.49 912.071H261.805V914.523H379.49V912.071Z" fill="white" fill-opacity="0.25" mask="url(#path-163-inside-79_4553_1516)"/>
<mask id="path-165-inside-80_4553_1516" fill="white">
<path d="M379.484 795.611H497.17V913.297H379.484V795.611Z"/>
</mask>
<path d="M497.17 913.297V914.523H498.396V913.297H497.17ZM495.944 795.611V913.297H498.396V795.611H495.944ZM497.17 912.071H379.484V914.523H497.17V912.071Z" fill="white" fill-opacity="0.25" mask="url(#path-165-inside-80_4553_1516)"/>
<mask id="path-167-inside-81_4553_1516" fill="white">
<path d="M497.172 795.611H614.857V913.297H497.172V795.611Z"/>
</mask>
<path d="M614.857 913.297V914.523H616.083V913.297H614.857ZM613.631 795.611V913.297H616.083V795.611H613.631ZM614.857 912.071H497.172V914.523H614.857V912.071Z" fill="white" fill-opacity="0.25" mask="url(#path-167-inside-81_4553_1516)"/>
<mask id="path-169-inside-82_4553_1516" fill="white">
<path d="M614.859 795.611H732.545V913.297H614.859V795.611Z"/>
</mask>
<path d="M732.545 913.297V914.523H733.771V913.297H732.545ZM731.319 795.611V913.297H733.771V795.611H731.319ZM732.545 912.071H614.859V914.523H732.545V912.071Z" fill="white" fill-opacity="0.25" mask="url(#path-169-inside-82_4553_1516)"/>
<mask id="path-171-inside-83_4553_1516" fill="white">
<path d="M732.547 795.611H850.232V913.297H732.547V795.611Z"/>
</mask>
<path d="M850.232 913.297V914.523H851.458V913.297H850.232ZM849.006 795.611V913.297H851.458V795.611H849.006ZM850.232 912.071H732.547V914.523H850.232V912.071Z" fill="white" fill-opacity="0.25" mask="url(#path-171-inside-83_4553_1516)"/>
<mask id="path-173-inside-84_4553_1516" fill="white">
<path d="M850.227 795.611H967.912V913.297H850.227V795.611Z"/>
</mask>
<path d="M967.912 913.297V914.523H969.138V913.297H967.912ZM966.686 795.611V913.297H969.138V795.611H966.686ZM967.912 912.071H850.227V914.523H967.912V912.071Z" fill="white" fill-opacity="0.25" mask="url(#path-173-inside-84_4553_1516)"/>
<mask id="path-175-inside-85_4553_1516" fill="white">
<path d="M967.914 795.611H1085.6V913.297H967.914V795.611Z"/>
</mask>
<path d="M967.914 795.611H1085.6V913.297H967.914V795.611Z" fill="white" fill-opacity="0.2"/>
<path d="M1085.6 913.297V914.523H1086.83V913.297H1085.6ZM1084.37 795.611V913.297H1086.83V795.611H1084.37ZM1085.6 912.071H967.914V914.523H1085.6V912.071Z" fill="white" fill-opacity="0.25" mask="url(#path-175-inside-85_4553_1516)"/>
<mask id="path-177-inside-86_4553_1516" fill="white">
<path d="M1085.6 795.611H1203.29V913.297H1085.6V795.611Z"/>
</mask>
<path d="M1203.29 913.297V914.523H1204.51V913.297H1203.29ZM1202.06 795.611V913.297H1204.51V795.611H1202.06ZM1203.29 912.071H1085.6V914.523H1203.29V912.071Z" fill="white" fill-opacity="0.25" mask="url(#path-177-inside-86_4553_1516)"/>
<mask id="path-179-inside-87_4553_1516" fill="white">
<path d="M1203.29 795.611H1320.97V913.297H1203.29V795.611Z"/>
</mask>
<path d="M1320.97 913.297V914.523H1322.2V913.297H1320.97ZM1319.75 795.611V913.297H1322.2V795.611H1319.75ZM1320.97 912.071H1203.29V914.523H1320.97V912.071Z" fill="white" fill-opacity="0.25" mask="url(#path-179-inside-87_4553_1516)"/>
<mask id="path-181-inside-88_4553_1516" fill="white">
<path d="M1320.97 795.611H1438.65V913.297H1320.97V795.611Z"/>
</mask>
<path d="M1438.65 913.297V914.523H1439.88V913.297H1438.65ZM1437.43 795.611V913.297H1439.88V795.611H1437.43ZM1438.65 912.071H1320.97V914.523H1438.65V912.071Z" fill="white" fill-opacity="0.25" mask="url(#path-181-inside-88_4553_1516)"/>
<mask id="path-183-inside-89_4553_1516" fill="white">
<path d="M1438.66 795.611H1556.34V913.297H1438.66V795.611Z"/>
</mask>
<path d="M1556.34 913.297V914.523H1557.57V913.297H1556.34ZM1555.12 795.611V913.297H1557.57V795.611H1555.12ZM1556.34 912.071H1438.66V914.523H1556.34V912.071Z" fill="white" fill-opacity="0.25" mask="url(#path-183-inside-89_4553_1516)"/>
<mask id="path-185-inside-90_4553_1516" fill="white">
<path d="M1556.34 795.611H1674.03V913.297H1556.34V795.611Z"/>
</mask>
<path d="M1674.03 913.297V914.523H1675.26V913.297H1674.03ZM1672.8 795.611V913.297H1675.26V795.611H1672.8ZM1674.03 912.071H1556.34V914.523H1674.03V912.071Z" fill="white" fill-opacity="0.25" mask="url(#path-185-inside-90_4553_1516)"/>
<mask id="path-187-inside-91_4553_1516" fill="white">
<path d="M-91.2578 913.297H26.4277V1030.98H-91.2578V913.297Z"/>
</mask>
<path d="M26.4277 1030.98V1032.21H27.6536V1030.98H26.4277ZM25.2018 913.297V1030.98H27.6536V913.297H25.2018ZM26.4277 1029.76H-91.2578V1032.21H26.4277V1029.76Z" fill="white" fill-opacity="0.25" mask="url(#path-187-inside-91_4553_1516)"/>
<mask id="path-189-inside-92_4553_1516" fill="white">
<path d="M26.4297 913.297H144.115V1030.98H26.4297V913.297Z"/>
</mask>
<path d="M26.4297 913.297H144.115V1030.98H26.4297V913.297Z" fill="white" fill-opacity="0.2"/>
<path d="M144.115 1030.98V1032.21H145.341V1030.98H144.115ZM142.889 913.297V1030.98H145.341V913.297H142.889ZM144.115 1029.76H26.4297V1032.21H144.115V1029.76Z" fill="white" fill-opacity="0.25" mask="url(#path-189-inside-92_4553_1516)"/>
<mask id="path-191-inside-93_4553_1516" fill="white">
<path d="M144.117 913.297H261.803V1030.98H144.117V913.297Z"/>
</mask>
<path d="M261.803 1030.98V1032.21H263.029V1030.98H261.803ZM260.577 913.297V1030.98H263.029V913.297H260.577ZM261.803 1029.76H144.117V1032.21H261.803V1029.76Z" fill="white" fill-opacity="0.25" mask="url(#path-191-inside-93_4553_1516)"/>
<mask id="path-193-inside-94_4553_1516" fill="white">
<path d="M261.805 913.297H379.49V1030.98H261.805V913.297Z"/>
</mask>
<path d="M379.49 1030.98V1032.21H380.716V1030.98H379.49ZM378.264 913.297V1030.98H380.716V913.297H378.264ZM379.49 1029.76H261.805V1032.21H379.49V1029.76Z" fill="white" fill-opacity="0.25" mask="url(#path-193-inside-94_4553_1516)"/>
<mask id="path-195-inside-95_4553_1516" fill="white">
<path d="M379.484 913.297H497.17V1030.98H379.484V913.297Z"/>
</mask>
<path d="M497.17 1030.98V1032.21H498.396V1030.98H497.17ZM495.944 913.297V1030.98H498.396V913.297H495.944ZM497.17 1029.76H379.484V1032.21H497.17V1029.76Z" fill="white" fill-opacity="0.25" mask="url(#path-195-inside-95_4553_1516)"/>
<mask id="path-197-inside-96_4553_1516" fill="white">
<path d="M497.172 913.297H614.857V1030.98H497.172V913.297Z"/>
</mask>
<path d="M614.857 1030.98V1032.21H616.083V1030.98H614.857ZM613.631 913.297V1030.98H616.083V913.297H613.631ZM614.857 1029.76H497.172V1032.21H614.857V1029.76Z" fill="white" fill-opacity="0.25" mask="url(#path-197-inside-96_4553_1516)"/>
<mask id="path-199-inside-97_4553_1516" fill="white">
<path d="M614.859 913.297H732.545V1030.98H614.859V913.297Z"/>
</mask>
<path d="M732.545 1030.98V1032.21H733.771V1030.98H732.545ZM731.319 913.297V1030.98H733.771V913.297H731.319ZM732.545 1029.76H614.859V1032.21H732.545V1029.76Z" fill="white" fill-opacity="0.25" mask="url(#path-199-inside-97_4553_1516)"/>
<mask id="path-201-inside-98_4553_1516" fill="white">
<path d="M732.547 913.297H850.232V1030.98H732.547V913.297Z"/>
</mask>
<path d="M850.232 1030.98V1032.21H851.458V1030.98H850.232ZM849.006 913.297V1030.98H851.458V913.297H849.006ZM850.232 1029.76H732.547V1032.21H850.232V1029.76Z" fill="white" fill-opacity="0.25" mask="url(#path-201-inside-98_4553_1516)"/>
<mask id="path-203-inside-99_4553_1516" fill="white">
<path d="M850.227 913.297H967.912V1030.98H850.227V913.297Z"/>
</mask>
<path d="M967.912 1030.98V1032.21H969.138V1030.98H967.912ZM966.686 913.297V1030.98H969.138V913.297H966.686ZM967.912 1029.76H850.227V1032.21H967.912V1029.76Z" fill="white" fill-opacity="0.25" mask="url(#path-203-inside-99_4553_1516)"/>
<mask id="path-205-inside-100_4553_1516" fill="white">
<path d="M967.914 913.297H1085.6V1030.98H967.914V913.297Z"/>
</mask>
<path d="M1085.6 1030.98V1032.21H1086.83V1030.98H1085.6ZM1084.37 913.297V1030.98H1086.83V913.297H1084.37ZM1085.6 1029.76H967.914V1032.21H1085.6V1029.76Z" fill="white" fill-opacity="0.25" mask="url(#path-205-inside-100_4553_1516)"/>
<mask id="path-207-inside-101_4553_1516" fill="white">
<path d="M1085.6 913.297H1203.29V1030.98H1085.6V913.297Z"/>
</mask>
<path d="M1203.29 1030.98V1032.21H1204.51V1030.98H1203.29ZM1202.06 913.297V1030.98H1204.51V913.297H1202.06ZM1203.29 1029.76H1085.6V1032.21H1203.29V1029.76Z" fill="white" fill-opacity="0.25" mask="url(#path-207-inside-101_4553_1516)"/>
<mask id="path-209-inside-102_4553_1516" fill="white">
<path d="M1203.29 913.297H1320.97V1030.98H1203.29V913.297Z"/>
</mask>
<path d="M1320.97 1030.98V1032.21H1322.2V1030.98H1320.97ZM1319.75 913.297V1030.98H1322.2V913.297H1319.75ZM1320.97 1029.76H1203.29V1032.21H1320.97V1029.76Z" fill="white" fill-opacity="0.25" mask="url(#path-209-inside-102_4553_1516)"/>
<mask id="path-211-inside-103_4553_1516" fill="white">
<path d="M1320.97 913.297H1438.65V1030.98H1320.97V913.297Z"/>
</mask>
<path d="M1438.65 1030.98V1032.21H1439.88V1030.98H1438.65ZM1437.43 913.297V1030.98H1439.88V913.297H1437.43ZM1438.65 1029.76H1320.97V1032.21H1438.65V1029.76Z" fill="white" fill-opacity="0.25" mask="url(#path-211-inside-103_4553_1516)"/>
<mask id="path-213-inside-104_4553_1516" fill="white">
<path d="M1438.66 913.297H1556.34V1030.98H1438.66V913.297Z"/>
</mask>
<path d="M1556.34 1030.98V1032.21H1557.57V1030.98H1556.34ZM1555.12 913.297V1030.98H1557.57V913.297H1555.12ZM1556.34 1029.76H1438.66V1032.21H1556.34V1029.76Z" fill="white" fill-opacity="0.25" mask="url(#path-213-inside-104_4553_1516)"/>
<mask id="path-215-inside-105_4553_1516" fill="white">
<path d="M1556.34 913.297H1674.03V1030.98H1556.34V913.297Z"/>
</mask>
<path d="M1556.34 913.297H1674.03V1030.98H1556.34V913.297Z" fill="white" fill-opacity="0.2"/>
<path d="M1674.03 1030.98V1032.21H1675.26V1030.98H1674.03ZM1672.8 913.297V1030.98H1675.26V913.297H1672.8ZM1674.03 1029.76H1556.34V1032.21H1674.03V1029.76Z" fill="white" fill-opacity="0.25" mask="url(#path-215-inside-105_4553_1516)"/>
<mask id="path-217-inside-106_4553_1516" fill="white">
<path d="M-91.2578 1030.98H26.4277V1148.67H-91.2578V1030.98Z"/>
</mask>
<path d="M26.4277 1148.67V1149.89H27.6536V1148.67H26.4277ZM25.2018 1030.98V1148.67H27.6536V1030.98H25.2018ZM26.4277 1147.44H-91.2578V1149.89H26.4277V1147.44Z" fill="white" fill-opacity="0.25" mask="url(#path-217-inside-106_4553_1516)"/>
<mask id="path-219-inside-107_4553_1516" fill="white">
<path d="M26.4297 1030.98H144.115V1148.67H26.4297V1030.98Z"/>
</mask>
<path d="M144.115 1148.67V1149.89H145.341V1148.67H144.115ZM142.889 1030.98V1148.67H145.341V1030.98H142.889ZM144.115 1147.44H26.4297V1149.89H144.115V1147.44Z" fill="white" fill-opacity="0.25" mask="url(#path-219-inside-107_4553_1516)"/>
<mask id="path-221-inside-108_4553_1516" fill="white">
<path d="M144.117 1030.98H261.803V1148.67H144.117V1030.98Z"/>
</mask>
<path d="M261.803 1148.67V1149.89H263.029V1148.67H261.803ZM260.577 1030.98V1148.67H263.029V1030.98H260.577ZM261.803 1147.44H144.117V1149.89H261.803V1147.44Z" fill="white" fill-opacity="0.25" mask="url(#path-221-inside-108_4553_1516)"/>
<mask id="path-223-inside-109_4553_1516" fill="white">
<path d="M261.805 1030.98H379.49V1148.67H261.805V1030.98Z"/>
</mask>
<path d="M379.49 1148.67V1149.89H380.716V1148.67H379.49ZM378.264 1030.98V1148.67H380.716V1030.98H378.264ZM379.49 1147.44H261.805V1149.89H379.49V1147.44Z" fill="white" fill-opacity="0.25" mask="url(#path-223-inside-109_4553_1516)"/>
<mask id="path-225-inside-110_4553_1516" fill="white">
<path d="M379.484 1030.98H497.17V1148.67H379.484V1030.98Z"/>
</mask>
<path d="M497.17 1148.67V1149.89H498.396V1148.67H497.17ZM495.944 1030.98V1148.67H498.396V1030.98H495.944ZM497.17 1147.44H379.484V1149.89H497.17V1147.44Z" fill="white" fill-opacity="0.25" mask="url(#path-225-inside-110_4553_1516)"/>
<mask id="path-227-inside-111_4553_1516" fill="white">
<path d="M497.172 1030.98H614.857V1148.67H497.172V1030.98Z"/>
</mask>
<path d="M614.857 1148.67V1149.89H616.083V1148.67H614.857ZM613.631 1030.98V1148.67H616.083V1030.98H613.631ZM614.857 1147.44H497.172V1149.89H614.857V1147.44Z" fill="white" fill-opacity="0.25" mask="url(#path-227-inside-111_4553_1516)"/>
<mask id="path-229-inside-112_4553_1516" fill="white">
<path d="M614.859 1030.98H732.545V1148.67H614.859V1030.98Z"/>
</mask>
<path d="M614.859 1030.98H732.545V1148.67H614.859V1030.98Z" fill="white" fill-opacity="0.2"/>
<path d="M732.545 1148.67V1149.89H733.771V1148.67H732.545ZM731.319 1030.98V1148.67H733.771V1030.98H731.319ZM732.545 1147.44H614.859V1149.89H732.545V1147.44Z" fill="white" fill-opacity="0.25" mask="url(#path-229-inside-112_4553_1516)"/>
<mask id="path-231-inside-113_4553_1516" fill="white">
<path d="M732.547 1030.98H850.232V1148.67H732.547V1030.98Z"/>
</mask>
<path d="M850.232 1148.67V1149.89H851.458V1148.67H850.232ZM849.006 1030.98V1148.67H851.458V1030.98H849.006ZM850.232 1147.44H732.547V1149.89H850.232V1147.44Z" fill="white" fill-opacity="0.25" mask="url(#path-231-inside-113_4553_1516)"/>
<mask id="path-233-inside-114_4553_1516" fill="white">
<path d="M850.227 1030.98H967.912V1148.67H850.227V1030.98Z"/>
</mask>
<path d="M967.912 1148.67V1149.89H969.138V1148.67H967.912ZM966.686 1030.98V1148.67H969.138V1030.98H966.686ZM967.912 1147.44H850.227V1149.89H967.912V1147.44Z" fill="white" fill-opacity="0.25" mask="url(#path-233-inside-114_4553_1516)"/>
<mask id="path-235-inside-115_4553_1516" fill="white">
<path d="M967.914 1030.98H1085.6V1148.67H967.914V1030.98Z"/>
</mask>
<path d="M1085.6 1148.67V1149.89H1086.83V1148.67H1085.6ZM1084.37 1030.98V1148.67H1086.83V1030.98H1084.37ZM1085.6 1147.44H967.914V1149.89H1085.6V1147.44Z" fill="white" fill-opacity="0.25" mask="url(#path-235-inside-115_4553_1516)"/>
<mask id="path-237-inside-116_4553_1516" fill="white">
<path d="M1085.6 1030.98H1203.29V1148.67H1085.6V1030.98Z"/>
</mask>
<path d="M1203.29 1148.67V1149.89H1204.51V1148.67H1203.29ZM1202.06 1030.98V1148.67H1204.51V1030.98H1202.06ZM1203.29 1147.44H1085.6V1149.89H1203.29V1147.44Z" fill="white" fill-opacity="0.25" mask="url(#path-237-inside-116_4553_1516)"/>
<mask id="path-239-inside-117_4553_1516" fill="white">
<path d="M1203.29 1030.98H1320.97V1148.67H1203.29V1030.98Z"/>
</mask>
<path d="M1320.97 1148.67V1149.89H1322.2V1148.67H1320.97ZM1319.75 1030.98V1148.67H1322.2V1030.98H1319.75ZM1320.97 1147.44H1203.29V1149.89H1320.97V1147.44Z" fill="white" fill-opacity="0.25" mask="url(#path-239-inside-117_4553_1516)"/>
<mask id="path-241-inside-118_4553_1516" fill="white">
<path d="M1320.97 1030.98H1438.65V1148.67H1320.97V1030.98Z"/>
</mask>
<path d="M1320.97 1030.98H1438.65V1148.67H1320.97V1030.98Z" fill="white" fill-opacity="0.2"/>
<path d="M1438.65 1148.67V1149.89H1439.88V1148.67H1438.65ZM1437.43 1030.98V1148.67H1439.88V1030.98H1437.43ZM1438.65 1147.44H1320.97V1149.89H1438.65V1147.44Z" fill="white" fill-opacity="0.25" mask="url(#path-241-inside-118_4553_1516)"/>
<mask id="path-243-inside-119_4553_1516" fill="white">
<path d="M1438.66 1030.98H1556.34V1148.67H1438.66V1030.98Z"/>
</mask>
<path d="M1556.34 1148.67V1149.89H1557.57V1148.67H1556.34ZM1555.12 1030.98V1148.67H1557.57V1030.98H1555.12ZM1556.34 1147.44H1438.66V1149.89H1556.34V1147.44Z" fill="white" fill-opacity="0.25" mask="url(#path-243-inside-119_4553_1516)"/>
<mask id="path-245-inside-120_4553_1516" fill="white">
<path d="M1556.34 1030.98H1674.03V1148.67H1556.34V1030.98Z"/>
</mask>
<path d="M1674.03 1148.67V1149.89H1675.26V1148.67H1674.03ZM1672.8 1030.98V1148.67H1675.26V1030.98H1672.8ZM1674.03 1147.44H1556.34V1149.89H1674.03V1147.44Z" fill="white" fill-opacity="0.25" mask="url(#path-245-inside-120_4553_1516)"/>
<mask id="path-247-inside-121_4553_1516" fill="white">
<path d="M-91.2578 1148.67H26.4277V1266.35H-91.2578V1148.67Z"/>
</mask>
<path d="M26.4277 1266.35V1267.58H27.6536V1266.35H26.4277ZM25.2018 1148.67V1266.35H27.6536V1148.67H25.2018ZM26.4277 1265.13H-91.2578V1267.58H26.4277V1265.13Z" fill="white" fill-opacity="0.25" mask="url(#path-247-inside-121_4553_1516)"/>
<mask id="path-249-inside-122_4553_1516" fill="white">
<path d="M26.4297 1148.67H144.115V1266.35H26.4297V1148.67Z"/>
</mask>
<path d="M144.115 1266.35V1267.58H145.341V1266.35H144.115ZM142.889 1148.67V1266.35H145.341V1148.67H142.889ZM144.115 1265.13H26.4297V1267.58H144.115V1265.13Z" fill="white" fill-opacity="0.25" mask="url(#path-249-inside-122_4553_1516)"/>
<mask id="path-251-inside-123_4553_1516" fill="white">
<path d="M144.117 1148.67H261.803V1266.35H144.117V1148.67Z"/>
</mask>
<path d="M261.803 1266.35V1267.58H263.029V1266.35H261.803ZM260.577 1148.67V1266.35H263.029V1148.67H260.577ZM261.803 1265.13H144.117V1267.58H261.803V1265.13Z" fill="white" fill-opacity="0.25" mask="url(#path-251-inside-123_4553_1516)"/>
<mask id="path-253-inside-124_4553_1516" fill="white">
<path d="M261.805 1148.67H379.49V1266.35H261.805V1148.67Z"/>
</mask>
<path d="M261.805 1148.67H379.49V1266.35H261.805V1148.67Z" fill="white" fill-opacity="0.2"/>
<path d="M379.49 1266.35V1267.58H380.716V1266.35H379.49ZM378.264 1148.67V1266.35H380.716V1148.67H378.264ZM379.49 1265.13H261.805V1267.58H379.49V1265.13Z" fill="white" fill-opacity="0.25" mask="url(#path-253-inside-124_4553_1516)"/>
<mask id="path-255-inside-125_4553_1516" fill="white">
<path d="M379.484 1148.67H497.17V1266.35H379.484V1148.67Z"/>
</mask>
<path d="M497.17 1266.35V1267.58H498.396V1266.35H497.17ZM495.944 1148.67V1266.35H498.396V1148.67H495.944ZM497.17 1265.13H379.484V1267.58H497.17V1265.13Z" fill="white" fill-opacity="0.25" mask="url(#path-255-inside-125_4553_1516)"/>
<mask id="path-257-inside-126_4553_1516" fill="white">
<path d="M497.172 1148.67H614.857V1266.35H497.172V1148.67Z"/>
</mask>
<path d="M614.857 1266.35V1267.58H616.083V1266.35H614.857ZM613.631 1148.67V1266.35H616.083V1148.67H613.631ZM614.857 1265.13H497.172V1267.58H614.857V1265.13Z" fill="white" fill-opacity="0.25" mask="url(#path-257-inside-126_4553_1516)"/>
<mask id="path-259-inside-127_4553_1516" fill="white">
<path d="M614.859 1148.67H732.545V1266.35H614.859V1148.67Z"/>
</mask>
<path d="M732.545 1266.35V1267.58H733.771V1266.35H732.545ZM731.319 1148.67V1266.35H733.771V1148.67H731.319ZM732.545 1265.13H614.859V1267.58H732.545V1265.13Z" fill="white" fill-opacity="0.25" mask="url(#path-259-inside-127_4553_1516)"/>
<mask id="path-261-inside-128_4553_1516" fill="white">
<path d="M732.547 1148.67H850.232V1266.35H732.547V1148.67Z"/>
</mask>
<path d="M850.232 1266.35V1267.58H851.458V1266.35H850.232ZM849.006 1148.67V1266.35H851.458V1148.67H849.006ZM850.232 1265.13H732.547V1267.58H850.232V1265.13Z" fill="white" fill-opacity="0.25" mask="url(#path-261-inside-128_4553_1516)"/>
<mask id="path-263-inside-129_4553_1516" fill="white">
<path d="M850.227 1148.67H967.912V1266.35H850.227V1148.67Z"/>
</mask>
<path d="M967.912 1266.35V1267.58H969.138V1266.35H967.912ZM966.686 1148.67V1266.35H969.138V1148.67H966.686ZM967.912 1265.13H850.227V1267.58H967.912V1265.13Z" fill="white" fill-opacity="0.25" mask="url(#path-263-inside-129_4553_1516)"/>
<mask id="path-265-inside-130_4553_1516" fill="white">
<path d="M967.914 1148.67H1085.6V1266.35H967.914V1148.67Z"/>
</mask>
<path d="M967.914 1148.67H1085.6V1266.35H967.914V1148.67Z" fill="white" fill-opacity="0.2"/>
<path d="M1085.6 1266.35V1267.58H1086.83V1266.35H1085.6ZM1084.37 1148.67V1266.35H1086.83V1148.67H1084.37ZM1085.6 1265.13H967.914V1267.58H1085.6V1265.13Z" fill="white" fill-opacity="0.25" mask="url(#path-265-inside-130_4553_1516)"/>
<mask id="path-267-inside-131_4553_1516" fill="white">
<path d="M1085.6 1148.67H1203.29V1266.35H1085.6V1148.67Z"/>
</mask>
<path d="M1203.29 1266.35V1267.58H1204.51V1266.35H1203.29ZM1202.06 1148.67V1266.35H1204.51V1148.67H1202.06ZM1203.29 1265.13H1085.6V1267.58H1203.29V1265.13Z" fill="white" fill-opacity="0.25" mask="url(#path-267-inside-131_4553_1516)"/>
<mask id="path-269-inside-132_4553_1516" fill="white">
<path d="M1203.29 1148.67H1320.97V1266.35H1203.29V1148.67Z"/>
</mask>
<path d="M1320.97 1266.35V1267.58H1322.2V1266.35H1320.97ZM1319.75 1148.67V1266.35H1322.2V1148.67H1319.75ZM1320.97 1265.13H1203.29V1267.58H1320.97V1265.13Z" fill="white" fill-opacity="0.25" mask="url(#path-269-inside-132_4553_1516)"/>
<mask id="path-271-inside-133_4553_1516" fill="white">
<path d="M1320.97 1148.67H1438.65V1266.35H1320.97V1148.67Z"/>
</mask>
<path d="M1438.65 1266.35V1267.58H1439.88V1266.35H1438.65ZM1437.43 1148.67V1266.35H1439.88V1148.67H1437.43ZM1438.65 1265.13H1320.97V1267.58H1438.65V1265.13Z" fill="white" fill-opacity="0.25" mask="url(#path-271-inside-133_4553_1516)"/>
<mask id="path-273-inside-134_4553_1516" fill="white">
<path d="M1438.66 1148.67H1556.34V1266.35H1438.66V1148.67Z"/>
</mask>
<path d="M1556.34 1266.35V1267.58H1557.57V1266.35H1556.34ZM1555.12 1148.67V1266.35H1557.57V1148.67H1555.12ZM1556.34 1265.13H1438.66V1267.58H1556.34V1265.13Z" fill="white" fill-opacity="0.25" mask="url(#path-273-inside-134_4553_1516)"/>
<mask id="path-275-inside-135_4553_1516" fill="white">
<path d="M1556.34 1148.67H1674.03V1266.35H1556.34V1148.67Z"/>
</mask>
<path d="M1674.03 1266.35V1267.58H1675.26V1266.35H1674.03ZM1672.8 1148.67V1266.35H1675.26V1148.67H1672.8ZM1674.03 1265.13H1556.34V1267.58H1674.03V1265.13Z" fill="white" fill-opacity="0.25" mask="url(#path-275-inside-135_4553_1516)"/>
<mask id="path-277-inside-136_4553_1516" fill="white">
<path d="M-91.2578 1266.35H26.4277V1384.04H-91.2578V1266.35Z"/>
</mask>
<path d="M26.4277 1384.04V1385.26H27.6536V1384.04H26.4277ZM25.2018 1266.35V1384.04H27.6536V1266.35H25.2018ZM26.4277 1382.81H-91.2578V1385.26H26.4277V1382.81Z" fill="white" fill-opacity="0.25" mask="url(#path-277-inside-136_4553_1516)"/>
<mask id="path-279-inside-137_4553_1516" fill="white">
<path d="M26.4297 1266.35H144.115V1384.04H26.4297V1266.35Z"/>
</mask>
<path d="M144.115 1384.04V1385.26H145.341V1384.04H144.115ZM142.889 1266.35V1384.04H145.341V1266.35H142.889ZM144.115 1382.81H26.4297V1385.26H144.115V1382.81Z" fill="white" fill-opacity="0.25" mask="url(#path-279-inside-137_4553_1516)"/>
<mask id="path-281-inside-138_4553_1516" fill="white">
<path d="M144.117 1266.35H261.803V1384.04H144.117V1266.35Z"/>
</mask>
<path d="M261.803 1384.04V1385.26H263.029V1384.04H261.803ZM260.577 1266.35V1384.04H263.029V1266.35H260.577ZM261.803 1382.81H144.117V1385.26H261.803V1382.81Z" fill="white" fill-opacity="0.25" mask="url(#path-281-inside-138_4553_1516)"/>
<mask id="path-283-inside-139_4553_1516" fill="white">
<path d="M261.805 1266.35H379.49V1384.04H261.805V1266.35Z"/>
</mask>
<path d="M379.49 1384.04V1385.26H380.716V1384.04H379.49ZM378.264 1266.35V1384.04H380.716V1266.35H378.264ZM379.49 1382.81H261.805V1385.26H379.49V1382.81Z" fill="white" fill-opacity="0.25" mask="url(#path-283-inside-139_4553_1516)"/>
<mask id="path-285-inside-140_4553_1516" fill="white">
<path d="M379.484 1266.35H497.17V1384.04H379.484V1266.35Z"/>
</mask>
<path d="M497.17 1384.04V1385.26H498.396V1384.04H497.17ZM495.944 1266.35V1384.04H498.396V1266.35H495.944ZM497.17 1382.81H379.484V1385.26H497.17V1382.81Z" fill="white" fill-opacity="0.25" mask="url(#path-285-inside-140_4553_1516)"/>
<mask id="path-287-inside-141_4553_1516" fill="white">
<path d="M497.172 1266.35H614.857V1384.04H497.172V1266.35Z"/>
</mask>
<path d="M614.857 1384.04V1385.26H616.083V1384.04H614.857ZM613.631 1266.35V1384.04H616.083V1266.35H613.631ZM614.857 1382.81H497.172V1385.26H614.857V1382.81Z" fill="white" fill-opacity="0.25" mask="url(#path-287-inside-141_4553_1516)"/>
<mask id="path-289-inside-142_4553_1516" fill="white">
<path d="M614.859 1266.35H732.545V1384.04H614.859V1266.35Z"/>
</mask>
<path d="M732.545 1384.04V1385.26H733.771V1384.04H732.545ZM731.319 1266.35V1384.04H733.771V1266.35H731.319ZM732.545 1382.81H614.859V1385.26H732.545V1382.81Z" fill="white" fill-opacity="0.25" mask="url(#path-289-inside-142_4553_1516)"/>
<mask id="path-291-inside-143_4553_1516" fill="white">
<path d="M732.547 1266.35H850.232V1384.04H732.547V1266.35Z"/>
</mask>
<path d="M850.232 1384.04V1385.26H851.458V1384.04H850.232ZM849.006 1266.35V1384.04H851.458V1266.35H849.006ZM850.232 1382.81H732.547V1385.26H850.232V1382.81Z" fill="white" fill-opacity="0.25" mask="url(#path-291-inside-143_4553_1516)"/>
<mask id="path-293-inside-144_4553_1516" fill="white">
<path d="M850.227 1266.35H967.912V1384.04H850.227V1266.35Z"/>
</mask>
<path d="M967.912 1384.04V1385.26H969.138V1384.04H967.912ZM966.686 1266.35V1384.04H969.138V1266.35H966.686ZM967.912 1382.81H850.227V1385.26H967.912V1382.81Z" fill="white" fill-opacity="0.25" mask="url(#path-293-inside-144_4553_1516)"/>
<mask id="path-295-inside-145_4553_1516" fill="white">
<path d="M967.914 1266.35H1085.6V1384.04H967.914V1266.35Z"/>
</mask>
<path d="M1085.6 1384.04V1385.26H1086.83V1384.04H1085.6ZM1084.37 1266.35V1384.04H1086.83V1266.35H1084.37ZM1085.6 1382.81H967.914V1385.26H1085.6V1382.81Z" fill="white" fill-opacity="0.25" mask="url(#path-295-inside-145_4553_1516)"/>
<mask id="path-297-inside-146_4553_1516" fill="white">
<path d="M1085.6 1266.35H1203.29V1384.04H1085.6V1266.35Z"/>
</mask>
<path d="M1203.29 1384.04V1385.26H1204.51V1384.04H1203.29ZM1202.06 1266.35V1384.04H1204.51V1266.35H1202.06ZM1203.29 1382.81H1085.6V1385.26H1203.29V1382.81Z" fill="white" fill-opacity="0.25" mask="url(#path-297-inside-146_4553_1516)"/>
<mask id="path-299-inside-147_4553_1516" fill="white">
<path d="M1203.29 1266.35H1320.97V1384.04H1203.29V1266.35Z"/>
</mask>
<path d="M1320.97 1384.04V1385.26H1322.2V1384.04H1320.97ZM1319.75 1266.35V1384.04H1322.2V1266.35H1319.75ZM1320.97 1382.81H1203.29V1385.26H1320.97V1382.81Z" fill="white" fill-opacity="0.25" mask="url(#path-299-inside-147_4553_1516)"/>
<mask id="path-301-inside-148_4553_1516" fill="white">
<path d="M1320.97 1266.35H1438.65V1384.04H1320.97V1266.35Z"/>
</mask>
<path d="M1438.65 1384.04V1385.26H1439.88V1384.04H1438.65ZM1437.43 1266.35V1384.04H1439.88V1266.35H1437.43ZM1438.65 1382.81H1320.97V1385.26H1438.65V1382.81Z" fill="white" fill-opacity="0.25" mask="url(#path-301-inside-148_4553_1516)"/>
<mask id="path-303-inside-149_4553_1516" fill="white">
<path d="M1438.66 1266.35H1556.34V1384.04H1438.66V1266.35Z"/>
</mask>
<path d="M1556.34 1384.04V1385.26H1557.57V1384.04H1556.34ZM1555.12 1266.35V1384.04H1557.57V1266.35H1555.12ZM1556.34 1382.81H1438.66V1385.26H1556.34V1382.81Z" fill="white" fill-opacity="0.25" mask="url(#path-303-inside-149_4553_1516)"/>
<mask id="path-305-inside-150_4553_1516" fill="white">
<path d="M1556.34 1266.35H1674.03V1384.04H1556.34V1266.35Z"/>
</mask>
<path d="M1674.03 1384.04V1385.26H1675.26V1384.04H1674.03ZM1672.8 1266.35V1384.04H1675.26V1266.35H1672.8ZM1674.03 1382.81H1556.34V1385.26H1674.03V1382.81Z" fill="white" fill-opacity="0.25" mask="url(#path-305-inside-150_4553_1516)"/>
</g>
<rect x="-326.012" y="207.797" width="2352.48" height="1764.06" stroke="white" stroke-opacity="0.32" stroke-width="1.22589"/>
</g>
</g>
</g>
<g style="mix-blend-mode:plus-lighter" filter="url(#filter4_f_4553_1516)">
<ellipse cx="-287.124" cy="1010.06" rx="376.5" ry="376" transform="rotate(-120 -287.124 1010.06)" fill="#74D960"/>
</g>
</g>
<defs>
<filter id="filter0_f_4553_1516" x="1084.69" y="-456.379" width="1552.38" height="1552.88" filterUnits="userSpaceOnUse" color-interpolation-filters="sRGB">
<feFlood flood-opacity="0" result="BackgroundImageFix"/>
<feBlend mode="normal" in="SourceGraphic" in2="BackgroundImageFix" result="shape"/>
<feGaussianBlur stdDeviation="200" result="effect1_foregroundBlur_4553_1516"/>
</filter>
<filter id="filter1_f_4553_1516" x="-565.677" y="487.904" width="1413.45" height="1413.45" filterUnits="userSpaceOnUse" color-interpolation-filters="sRGB">
<feFlood flood-opacity="0" result="BackgroundImageFix"/>
<feBlend mode="normal" in="SourceGraphic" in2="BackgroundImageFix" result="shape"/>
<feGaussianBlur stdDeviation="245.178" result="effect1_foregroundBlur_4553_1516"/>
</filter>
<filter id="filter2_f_4553_1516" x="-185.653" y="-137.3" width="1413.45" height="1413.45" filterUnits="userSpaceOnUse" color-interpolation-filters="sRGB">
<feFlood flood-opacity="0" result="BackgroundImageFix"/>
<feBlend mode="normal" in="SourceGraphic" in2="BackgroundImageFix" result="shape"/>
<feGaussianBlur stdDeviation="245.178" result="effect1_foregroundBlur_4553_1516"/>
</filter>
<filter id="filter3_f_4553_1516" x="904.8" y="-490.356" width="1286.96" height="1286.96" filterUnits="userSpaceOnUse" color-interpolation-filters="sRGB">
<feFlood flood-opacity="0" result="BackgroundImageFix"/>
<feBlend mode="normal" in="SourceGraphic" in2="BackgroundImageFix" result="shape"/>
<feGaussianBlur stdDeviation="245.178" result="effect1_foregroundBlur_4553_1516"/>
</filter>
<filter id="filter4_f_4553_1516" x="-1063.31" y="233.621" width="1552.38" height="1552.88" filterUnits="userSpaceOnUse" color-interpolation-filters="sRGB">
<feFlood flood-opacity="0" result="BackgroundImageFix"/>
<feBlend mode="normal" in="SourceGraphic" in2="BackgroundImageFix" result="shape"/>
<feGaussianBlur stdDeviation="200" result="effect1_foregroundBlur_4553_1516"/>
</filter>
<radialGradient id="paint0_radial_4553_1516" cx="0" cy="0" r="1" gradientUnits="userSpaceOnUse" gradientTransform="translate(882.641 -0.000174927) rotate(90) scale(1467.39 921.364)">
<stop/>
<stop offset="0.953125" stop-opacity="0"/>
</radialGradient>
<clipPath id="clip0_4553_1516">
<rect width="1623" height="1359" fill="white"/>
</clipPath>
<clipPath id="clip1_4553_1516">
<rect width="1759.86" height="1203.82" fill="white" transform="translate(-29.9609 207.184)"/>
</clipPath>
<clipPath id="clip2_4553_1516">
<rect x="-326.625" y="207.184" width="2353.71" height="1765.28" fill="white"/>
</clipPath>
</defs>
</svg>
