<svg width="49" height="48" viewBox="0 0 49 48" fill="none" xmlns="http://www.w3.org/2000/svg">
<path opacity="0.2" d="M41.2969 25.5C41.2969 28.7634 40.3292 31.9535 38.5161 34.6669C36.7031 37.3803 34.1261 39.4952 31.1112 40.744C28.0962 41.9929 24.7786 42.3196 21.5779 41.683C18.3772 41.0463 15.4372 39.4748 13.1296 37.1673C10.8221 34.8597 9.25058 31.9197 8.61393 28.719C7.97727 25.5183 8.30402 22.2007 9.55287 19.1857C10.8017 16.1707 12.9166 13.5938 15.63 11.7808C18.3434 9.96771 21.5335 9 24.7969 9C29.173 9 33.3698 10.7384 36.4641 13.8327C39.5585 16.9271 41.2969 21.1239 41.2969 25.5Z" fill="url(#paint0_linear_4411_3395)"/>
<path d="M24.7977 7.50083C21.2376 7.50083 17.7575 8.55652 14.7974 10.5344C11.8374 12.5122 9.53025 15.3235 8.16788 18.6125C6.8055 21.9016 6.44904 25.5208 7.14357 29.0125C7.83811 32.5041 9.55244 35.7114 12.0698 38.2288C14.5871 40.7461 17.7944 42.4604 21.2861 43.155C24.7777 43.8495 28.3969 43.493 31.686 42.1307C34.9751 40.7683 37.7863 38.4612 39.7642 35.5011C41.742 32.541 42.7977 29.0609 42.7977 25.5008C42.7923 20.7286 40.8941 16.1534 37.5196 12.7789C34.1451 9.40447 29.5699 7.50629 24.7977 7.50083ZM24.7977 40.5008C21.831 40.5008 18.9309 39.6211 16.4642 37.9729C13.9974 36.3247 12.0748 33.982 10.9395 31.2411C9.8042 28.5002 9.50715 25.4842 10.0859 22.5745C10.6647 19.6648 12.0933 16.992 14.1911 14.8942C16.2889 12.7964 18.9616 11.3678 21.8714 10.7891C24.7811 10.2103 27.7971 10.5073 30.538 11.6426C33.2789 12.778 35.6215 14.7005 37.2698 17.1673C38.918 19.634 39.7977 22.5341 39.7977 25.5008C39.7932 29.4777 38.2115 33.2904 35.3994 36.1025C32.5873 38.9146 28.7746 40.4964 24.7977 40.5008ZM12.359 7.06208L6.35896 13.0621C6.0775 13.3435 5.69576 13.5017 5.29771 13.5017C4.89966 13.5017 4.51792 13.3435 4.23646 13.0621C3.955 12.7806 3.79688 12.3989 3.79688 12.0008C3.79687 11.6028 3.955 11.221 4.23646 10.9396L10.2365 4.93958C10.5179 4.65812 10.8997 4.5 11.2977 4.5C11.6958 4.5 12.0775 4.65812 12.359 4.93958C12.6404 5.22104 12.7985 5.60279 12.7985 6.00083C12.7985 6.39888 12.6404 6.78062 12.359 7.06208ZM45.359 13.0621C45.2197 13.2015 45.0542 13.3122 44.8721 13.3877C44.69 13.4632 44.4948 13.502 44.2977 13.502C44.1006 13.502 43.9054 13.4632 43.7233 13.3877C43.5412 13.3122 43.3758 13.2015 43.2365 13.0621L37.2365 7.06208C36.955 6.78062 36.7969 6.39888 36.7969 6.00083C36.7969 5.60279 36.955 5.22104 37.2365 4.93958C37.5179 4.65812 37.8997 4.5 38.2977 4.5C38.6958 4.5 39.0775 4.65812 39.359 4.93958L45.359 10.9396C45.4984 11.0789 45.6091 11.2443 45.6846 11.4264C45.76 11.6085 45.7989 11.8037 45.7989 12.0008C45.7989 12.198 45.76 12.3931 45.6846 12.5752C45.6091 12.7573 45.4984 12.9228 45.359 13.0621ZM35.2977 24.0008C35.6955 24.0008 36.0771 24.1589 36.3584 24.4402C36.6397 24.7215 36.7977 25.103 36.7977 25.5008C36.7977 25.8987 36.6397 26.2802 36.3584 26.5615C36.0771 26.8428 35.6955 27.0008 35.2977 27.0008H24.7977C24.3999 27.0008 24.0184 26.8428 23.737 26.5615C23.4557 26.2802 23.2977 25.8987 23.2977 25.5008V15.0008C23.2977 14.603 23.4557 14.2215 23.737 13.9402C24.0184 13.6589 24.3999 13.5008 24.7977 13.5008C25.1955 13.5008 25.5771 13.6589 25.8584 13.9402C26.1397 14.2215 26.2977 14.603 26.2977 15.0008V24.0008H35.2977Z" fill="url(#paint1_linear_4411_3395)"/>
<defs>
<linearGradient id="paint0_linear_4411_3395" x1="-771.473" y1="45.5152" x2="-769.897" y2="-19.4496" gradientUnits="userSpaceOnUse">
<stop stop-color="#E8DF38"/>
<stop offset="1" stop-color="#41D882"/>
</linearGradient>
<linearGradient id="paint1_linear_4411_3395" x1="-988.685" y1="47.6553" x2="-986.955" y2="-29.1293" gradientUnits="userSpaceOnUse">
<stop stop-color="#E8DF38"/>
<stop offset="1" stop-color="#41D882"/>
</linearGradient>
</defs>
</svg>
