<svg width="57" height="56" viewBox="0 0 57 56" fill="none" xmlns="http://www.w3.org/2000/svg">
<path opacity="0.2" d="M49.2031 10.5V45.5H7.20312V10.5H49.2031Z" fill="url(#paint0_linear_4411_3954)"/>
<path d="M50.9531 10.5V19.25C50.9531 19.7141 50.7688 20.1592 50.4406 20.4874C50.1124 20.8156 49.6673 21 49.2031 21C48.739 21 48.2939 20.8156 47.9657 20.4874C47.6375 20.1592 47.4531 19.7141 47.4531 19.25V12.25H40.4531C39.989 12.25 39.5439 12.0656 39.2157 11.7374C38.8875 11.4092 38.7031 10.9641 38.7031 10.5C38.7031 10.0359 38.8875 9.59075 39.2157 9.26256C39.5439 8.93437 39.989 8.75 40.4531 8.75H49.2031C49.6673 8.75 50.1124 8.93437 50.4406 9.26256C50.7688 9.59075 50.9531 10.0359 50.9531 10.5ZM15.9531 43.75H8.95312V36.75C8.95312 36.2859 8.76875 35.8407 8.44056 35.5126C8.11237 35.1844 7.66725 35 7.20312 35C6.739 35 6.29388 35.1844 5.96569 35.5126C5.6375 35.8407 5.45313 36.2859 5.45312 36.75V45.5C5.45313 45.9641 5.6375 46.4092 5.96569 46.7374C6.29388 47.0656 6.739 47.25 7.20312 47.25H15.9531C16.4173 47.25 16.8624 47.0656 17.1906 46.7374C17.5188 46.4092 17.7031 45.9641 17.7031 45.5C17.7031 45.0359 17.5188 44.5908 17.1906 44.2626C16.8624 43.9344 16.4173 43.75 15.9531 43.75ZM49.2031 35C48.739 35 48.2939 35.1844 47.9657 35.5126C47.6375 35.8407 47.4531 36.2859 47.4531 36.75V43.75H40.4531C39.989 43.75 39.5439 43.9344 39.2157 44.2626C38.8875 44.5908 38.7031 45.0359 38.7031 45.5C38.7031 45.9641 38.8875 46.4092 39.2157 46.7374C39.5439 47.0656 39.989 47.25 40.4531 47.25H49.2031C49.6673 47.25 50.1124 47.0656 50.4406 46.7374C50.7688 46.4092 50.9531 45.9641 50.9531 45.5V36.75C50.9531 36.2859 50.7688 35.8407 50.4406 35.5126C50.1124 35.1844 49.6673 35 49.2031 35ZM7.20312 21C7.66725 21 8.11237 20.8156 8.44056 20.4874C8.76875 20.1592 8.95312 19.7141 8.95312 19.25V12.25H15.9531C16.4173 12.25 16.8624 12.0656 17.1906 11.7374C17.5188 11.4092 17.7031 10.9641 17.7031 10.5C17.7031 10.0359 17.5188 9.59075 17.1906 9.26256C16.8624 8.93437 16.4173 8.75 15.9531 8.75H7.20312C6.739 8.75 6.29388 8.93437 5.96569 9.26256C5.6375 9.59075 5.45313 10.0359 5.45312 10.5V19.25C5.45313 19.7141 5.6375 20.1592 5.96569 20.4874C6.29388 20.8156 6.739 21 7.20312 21ZM17.7031 17.5C17.239 17.5 16.7939 17.6844 16.4657 18.0126C16.1375 18.3408 15.9531 18.7859 15.9531 19.25V36.75C15.9531 37.2141 16.1375 37.6593 16.4657 37.9874C16.7939 38.3156 17.239 38.5 17.7031 38.5C18.1673 38.5 18.6124 38.3156 18.9406 37.9874C19.2688 37.6593 19.4531 37.2141 19.4531 36.75V19.25C19.4531 18.7859 19.2688 18.3408 18.9406 18.0126C18.6124 17.6844 18.1673 17.5 17.7031 17.5ZM40.4531 36.75V19.25C40.4531 18.7859 40.2688 18.3408 39.9406 18.0126C39.6124 17.6844 39.1673 17.5 38.7031 17.5C38.239 17.5 37.7939 17.6844 37.4657 18.0126C37.1375 18.3408 36.9531 18.7859 36.9531 19.25V36.75C36.9531 37.2141 37.1375 37.6593 37.4657 37.9874C37.7939 38.3156 38.239 38.5 38.7031 38.5C39.1673 38.5 39.6124 38.3156 39.9406 37.9874C40.2688 37.6593 40.4531 37.2141 40.4531 36.75ZM31.7031 17.5C31.239 17.5 30.7939 17.6844 30.4657 18.0126C30.1375 18.3408 29.9531 18.7859 29.9531 19.25V36.75C29.9531 37.2141 30.1375 37.6593 30.4657 37.9874C30.7939 38.3156 31.239 38.5 31.7031 38.5C32.1673 38.5 32.6124 38.3156 32.9406 37.9874C33.2688 37.6593 33.4531 37.2141 33.4531 36.75V19.25C33.4531 18.7859 33.2688 18.3408 32.9406 18.0126C32.6124 17.6844 32.1673 17.5 31.7031 17.5ZM24.7031 17.5C24.239 17.5 23.7939 17.6844 23.4657 18.0126C23.1375 18.3408 22.9531 18.7859 22.9531 19.25V36.75C22.9531 37.2141 23.1375 37.6593 23.4657 37.9874C23.7939 38.3156 24.239 38.5 24.7031 38.5C25.1673 38.5 25.6124 38.3156 25.9406 37.9874C26.2687 37.6593 26.4531 37.2141 26.4531 36.75V19.25C26.4531 18.7859 26.2687 18.3408 25.9406 18.0126C25.6124 17.6844 25.1673 17.5 24.7031 17.5Z" fill="url(#paint1_linear_4411_3954)"/>
<defs>
<linearGradient id="paint0_linear_4411_3954" x1="-985.232" y1="49.2283" x2="-983.838" y2="-19.6863" gradientUnits="userSpaceOnUse">
<stop stop-color="#E8DF38"/>
<stop offset="1" stop-color="#41D882"/>
</linearGradient>
<linearGradient id="paint1_linear_4411_3954" x1="-1069.68" y1="51.3511" x2="-1068.13" y2="-24.4539" gradientUnits="userSpaceOnUse">
<stop stop-color="#E8DF38"/>
<stop offset="1" stop-color="#41D882"/>
</linearGradient>
</defs>
</svg>
