<svg width="352" height="480" viewBox="0 0 352 480" fill="none" xmlns="http://www.w3.org/2000/svg">
<path fill-rule="evenodd" clip-rule="evenodd" d="M342.729 0.00515803L8.63016 0.00517263C3.85768 0.00517284 0 3.87148 0 8.63533L-3.77237e-07 471.376C-1.69002e-07 476.14 3.85768 480.006 8.63016 480.006L342.729 480.006C347.502 480.006 351.359 476.14 351.359 471.376L351.359 8.63535C351.359 3.88013 347.502 0.00515782 342.729 0.00515803ZM17.269 8.63533C22.0329 8.63533 25.8992 12.5016 25.8992 17.2655C25.8992 22.038 22.0329 25.8956 17.269 25.8956C12.4965 25.8956 8.63885 22.038 8.63885 17.2655C8.63885 12.5103 12.4965 8.63533 17.269 8.63533ZM17.269 471.384C12.4965 471.384 8.63885 467.518 8.63885 462.754C8.63885 457.982 12.4965 454.124 17.269 454.124C22.0329 454.124 25.8992 457.982 25.8992 462.754C25.8992 467.509 22.0242 471.384 17.269 471.384ZM175.684 336.676C152.849 336.676 131.222 331.697 111.64 322.937L94.1551 348.215C92.5326 351.442 90.5131 354.282 88.1657 356.655C81.9002 362.912 73.598 366.347 64.7694 366.347C54.5772 366.347 45.0924 361.73 38.7406 353.669C33.0965 346.506 30.9047 336.849 32.7084 327.183C34.7106 316.447 40.4754 308.628 49.8391 303.916L66.4952 292.386C37.006 263.829 18.6067 223.889 18.6067 179.607C18.6067 92.8485 88.9251 22.5298 175.684 22.5298C262.434 22.5298 332.761 92.8485 332.761 179.607C332.761 219.592 317.818 256.089 293.211 283.817C292.607 278.523 290.276 273.387 286.218 269.325C284.216 267.323 281.92 265.847 279.504 264.682L195.195 206.342C190.915 203.391 185.737 208.569 188.688 212.841L247.02 297.14C249.777 302.872 254.358 307.963 263.354 309.953C238.314 326.827 208.149 336.676 175.684 336.676ZM284.837 292.555C280.977 296.286 276.926 299.821 272.7 303.143C267.206 304.386 261.213 302.871 256.936 298.599C250.308 291.962 250.308 281.218 256.936 274.598C263.563 267.962 274.317 267.962 280.936 274.598C285.798 279.454 287.098 286.518 284.837 292.555ZM334.099 471.384C329.335 471.384 325.469 467.518 325.469 462.754C325.469 457.982 329.335 454.124 334.099 454.124C338.872 454.124 342.729 457.982 342.729 462.754C342.729 467.509 338.872 471.384 334.099 471.384ZM334.099 25.8957C329.335 25.8957 325.469 22.038 325.469 17.2655C325.469 12.5016 329.335 8.63535 334.099 8.63535C338.872 8.63535 342.729 12.5016 342.729 17.2655C342.729 22.038 338.872 25.8957 334.099 25.8957ZM115.284 225.499C87.762 225.499 65.4531 203.199 65.4531 175.669C65.4531 148.147 87.762 125.838 115.284 125.838C142.805 125.838 165.114 148.147 165.114 175.669C165.114 203.19 142.805 225.499 115.284 225.499ZM138.317 198.703C141.692 195.328 141.692 189.874 138.317 186.5C134.943 183.125 129.489 183.125 126.114 186.5C122.74 189.874 122.74 195.328 126.114 198.703C129.489 202.077 134.943 202.077 138.317 198.703ZM104.453 198.703C107.827 195.328 107.827 189.874 104.453 186.5C101.078 183.125 95.624 183.125 92.2496 186.5C88.8752 189.874 88.8752 195.328 92.2496 198.703C95.624 202.077 101.078 202.077 104.453 198.703ZM138.317 164.838C141.692 161.464 141.692 156.009 138.317 152.635C134.943 149.261 129.489 149.261 126.114 152.635C122.74 156.009 122.74 161.464 126.114 164.838C129.489 168.212 134.943 168.212 138.317 164.838ZM104.453 164.838C107.827 161.464 107.827 156.009 104.453 152.635C101.078 149.261 95.624 149.261 92.2496 152.635C88.8752 156.009 88.8752 161.464 92.2496 164.838C95.624 168.212 101.078 168.212 104.453 164.838ZM275.085 292.694C271.72 296.06 266.257 296.06 262.882 292.694C259.508 289.319 259.508 283.848 262.882 280.491C266.257 277.116 271.72 277.116 275.085 280.491C278.46 283.856 278.46 289.319 275.085 292.694Z" fill="#303641"/>
<path d="M128.006 428.1H117.656V398.903H128.091C131.028 398.903 133.556 399.487 135.675 400.656C137.795 401.816 139.425 403.484 140.565 405.66C141.715 407.837 142.29 410.441 142.29 413.473C142.29 416.514 141.715 419.128 140.565 421.314C139.425 423.5 137.785 425.177 135.647 426.346C133.518 427.515 130.971 428.1 128.006 428.1ZM123.829 422.811H127.749C129.574 422.811 131.109 422.487 132.354 421.841C133.608 421.185 134.549 420.173 135.177 418.805C135.813 417.426 136.132 415.649 136.132 413.473C136.132 411.315 135.813 409.552 135.177 408.184C134.549 406.815 133.613 405.808 132.368 405.161C131.123 404.515 129.588 404.192 127.763 404.192H123.829V422.811ZM153.036 398.903V428.1H146.863V398.903H153.036ZM173.953 407.3C173.839 406.15 173.35 405.256 172.485 404.62C171.62 403.983 170.446 403.664 168.964 403.664C167.956 403.664 167.106 403.807 166.412 404.092C165.718 404.368 165.186 404.753 164.815 405.247C164.454 405.741 164.273 406.302 164.273 406.929C164.254 407.452 164.364 407.908 164.601 408.298C164.848 408.687 165.186 409.025 165.613 409.31C166.041 409.586 166.535 409.828 167.096 410.037C167.657 410.237 168.256 410.408 168.892 410.55L171.516 411.178C172.789 411.463 173.958 411.843 175.023 412.318C176.087 412.793 177.009 413.378 177.788 414.072C178.568 414.765 179.171 415.583 179.599 416.524C180.036 417.464 180.259 418.543 180.269 419.76C180.259 421.547 179.803 423.096 178.9 424.407C178.007 425.709 176.714 426.722 175.023 427.444C173.34 428.157 171.311 428.513 168.935 428.513C166.578 428.513 164.525 428.152 162.777 427.43C161.037 426.707 159.678 425.638 158.699 424.222C157.73 422.796 157.221 421.033 157.174 418.933H163.147C163.214 419.912 163.494 420.729 163.988 421.385C164.492 422.031 165.162 422.521 165.998 422.853C166.844 423.176 167.799 423.338 168.864 423.338C169.909 423.338 170.817 423.186 171.587 422.882C172.366 422.578 172.97 422.155 173.397 421.613C173.825 421.071 174.039 420.449 174.039 419.745C174.039 419.09 173.844 418.538 173.454 418.092C173.074 417.645 172.513 417.265 171.772 416.951C171.04 416.638 170.142 416.353 169.078 416.096L165.899 415.298C163.437 414.699 161.493 413.763 160.068 412.489C158.642 411.216 157.934 409.5 157.944 407.343C157.934 405.575 158.405 404.03 159.355 402.709C160.315 401.388 161.631 400.357 163.304 399.616C164.977 398.874 166.878 398.504 169.006 398.504C171.173 398.504 173.065 398.874 174.68 399.616C176.306 400.357 177.57 401.388 178.473 402.709C179.375 404.03 179.841 405.561 179.87 407.3H173.953ZM184.421 428.1V398.903H190.594V411.776H190.979L201.486 398.903H208.885L198.05 411.976L209.013 428.1H201.628L193.63 416.096L190.594 419.803V428.1H184.421ZM227.703 407.3C227.589 406.15 227.099 405.256 226.234 404.62C225.37 403.983 224.196 403.664 222.713 403.664C221.706 403.664 220.855 403.807 220.161 404.092C219.467 404.368 218.935 404.753 218.565 405.247C218.203 405.741 218.023 406.302 218.023 406.929C218.004 407.452 218.113 407.908 218.351 408.298C218.598 408.687 218.935 409.025 219.363 409.31C219.791 409.586 220.285 409.828 220.846 410.037C221.406 410.237 222.005 410.408 222.642 410.55L225.265 411.178C226.539 411.463 227.708 411.843 228.772 412.318C229.836 412.793 230.758 413.378 231.538 414.072C232.317 414.765 232.921 415.583 233.348 416.524C233.785 417.464 234.009 418.543 234.018 419.76C234.009 421.547 233.553 423.096 232.65 424.407C231.756 425.709 230.464 426.722 228.772 427.444C227.09 428.157 225.061 428.513 222.685 428.513C220.328 428.513 218.275 428.152 216.526 427.43C214.787 426.707 213.428 425.638 212.449 424.222C211.479 422.796 210.971 421.033 210.923 418.933H216.897C216.963 419.912 217.244 420.729 217.738 421.385C218.241 422.031 218.911 422.521 219.748 422.853C220.594 423.176 221.549 423.338 222.613 423.338C223.659 423.338 224.566 423.186 225.336 422.882C226.116 422.578 226.719 422.155 227.147 421.613C227.574 421.071 227.788 420.449 227.788 419.745C227.788 419.09 227.594 418.538 227.204 418.092C226.824 417.645 226.263 417.265 225.522 416.951C224.79 416.638 223.892 416.353 222.827 416.096L219.648 415.298C217.186 414.699 215.243 413.763 213.817 412.489C212.392 411.216 211.684 409.5 211.693 407.343C211.684 405.575 212.154 404.03 213.104 402.709C214.064 401.388 215.381 400.357 217.053 399.616C218.726 398.874 220.627 398.504 222.756 398.504C224.923 398.504 226.814 398.874 228.43 399.616C230.055 400.357 231.319 401.388 232.222 402.709C233.125 404.03 233.591 405.561 233.619 407.3H227.703Z" fill="white"/>
</svg>
