<svg width="56" height="56" viewBox="0 0 56 56" fill="none" xmlns="http://www.w3.org/2000/svg">
<path d="M50.9699 29.5328C50.4399 27.5533 49.4538 25.7254 48.0906 24.1954C46.7273 22.6655 45.0247 21.476 43.1191 20.7222C41.2135 19.9684 39.1579 19.6714 37.1169 19.8547C35.0759 20.0381 33.1062 20.6968 31.3655 21.7782L34.9508 7.46316C35.0398 7.1075 35.0148 6.73289 34.8794 6.39221C34.7439 6.05152 34.505 5.76197 34.1961 5.56441C32.7077 4.62456 31.0455 3.99372 29.3083 3.70942C27.5711 3.42512 25.7945 3.49317 24.0841 3.90953C22.3738 4.32589 20.7646 5.08204 19.3525 6.133C17.9403 7.18395 16.754 8.50824 15.8641 10.027C14.9743 11.5458 14.399 13.2281 14.1726 14.9738C13.9461 16.7195 14.0732 18.4929 14.5461 20.1885C15.0191 21.884 15.8283 23.4672 16.9255 24.8436C18.0228 26.2201 19.3858 27.3617 20.9333 28.2007L6.74301 32.2541C6.39047 32.3545 6.07836 32.5631 5.85072 32.8504C5.62308 33.1377 5.4914 33.4892 5.47426 33.8553C5.33958 36.8433 6.22946 39.7876 7.99655 42.2007C9.76365 44.6139 12.3019 46.3511 15.1911 47.1247C16.3055 47.4239 17.4542 47.5761 18.608 47.5775C20.3662 47.5729 22.1056 47.2154 23.7232 46.5263C25.3408 45.8373 26.8036 44.8306 28.025 43.5659C29.2465 42.3012 30.2017 40.8042 30.8341 39.1637C31.4665 37.5231 31.7633 35.7724 31.7068 34.015L42.3118 44.2788C42.5755 44.5339 42.9128 44.6997 43.2759 44.7527C43.639 44.8057 44.0095 44.7432 44.3352 44.5741C46.9887 43.1973 49.0927 40.956 50.2992 38.2209C51.5056 35.4858 51.7422 32.4207 50.9699 29.5328ZM28.5349 32.3438C27.676 32.4494 26.8052 32.2979 26.0324 31.9086C25.2597 31.5192 24.6197 30.9095 24.1935 30.1564C23.7673 29.4034 23.574 28.5408 23.638 27.6779C23.702 26.8149 24.0204 25.9904 24.5531 25.3084C25.0857 24.6265 25.8086 24.1178 26.6304 23.8467C27.4521 23.5756 28.3358 23.5543 29.1696 23.7855C30.0035 24.0166 30.7501 24.4898 31.315 25.1453C31.8799 25.8007 32.2378 26.609 32.3433 27.4678C32.4848 28.6195 32.1631 29.7801 31.4489 30.6945C30.7347 31.6089 29.6865 32.2022 28.5349 32.3438Z" fill="url(#paint0_linear_4411_4417)"/>
<path d="M30.8805 21.6567L30.5805 22.8544L31.6294 22.2029C33.3037 21.1627 35.1984 20.5291 37.1617 20.3527C39.1249 20.1763 41.1022 20.4621 42.9352 21.1872C44.7682 21.9122 46.4059 23.0564 47.7173 24.5281C49.0286 25.9997 49.9771 27.758 50.4869 29.662C51.2298 32.4399 51.0022 35.3882 49.8417 38.0191C48.6812 40.65 46.6573 42.806 44.1049 44.1303L44.1047 44.1304C43.8721 44.2512 43.6074 44.2958 43.3481 44.258C43.0887 44.2201 42.8478 44.1017 42.6594 43.9194L32.0545 33.6558L31.1673 32.7972L31.207 34.0311C31.2614 35.7216 30.9759 37.4057 30.3676 38.9838C29.7592 40.562 28.8403 42.002 27.6654 43.2185C26.4904 44.4351 25.0833 45.4035 23.5272 46.0663C21.9714 46.7291 20.2984 47.073 18.6073 47.0775C17.4975 47.0761 16.3926 46.9296 15.3208 46.6418L15.3205 46.6417C12.5413 45.8976 10.0997 44.2266 8.39996 41.9053C6.70028 39.5843 5.8443 36.7523 5.97373 33.8784C5.98604 33.6169 6.08009 33.366 6.24261 33.1609C6.40521 32.9557 6.62815 32.8067 6.87996 32.735L6.88034 32.7349L21.0707 28.6814L22.2486 28.3449L21.1716 27.7611C19.683 26.9541 18.372 25.856 17.3165 24.5319C16.261 23.2079 15.4827 21.6851 15.0277 20.0541C14.5728 18.4231 14.4506 16.7173 14.6684 15.0381C14.8862 13.359 15.4396 11.7408 16.2955 10.2798C17.1515 8.81886 18.2926 7.54503 19.651 6.53411C21.0093 5.52319 22.5572 4.79584 24.2024 4.39534C25.8476 3.99485 27.5565 3.92939 29.2275 4.20285C30.898 4.47624 32.4965 5.08274 33.9278 5.98631C34.1479 6.1274 34.3182 6.33395 34.4147 6.57689C34.5114 6.82018 34.5293 7.08769 34.4658 7.34168C34.4658 7.34174 34.4658 7.3418 34.4658 7.34185L30.8805 21.6567ZM25.8074 32.3551C26.6685 32.7889 27.6389 32.9577 28.5959 32.84C29.8791 32.6823 31.0471 32.0212 31.8429 31.0023C32.6388 29.9834 32.9973 28.6901 32.8396 27.4069C32.722 26.4499 32.3232 25.5492 31.6938 24.8189C31.0643 24.0885 30.2324 23.5612 29.3032 23.3036C28.374 23.0461 27.3894 23.0698 26.4737 23.3719C25.5581 23.674 24.7525 24.2408 24.159 25.0007C23.5655 25.7605 23.2107 26.6793 23.1393 27.6409C23.068 28.6025 23.2834 29.5636 23.7584 30.4027C24.2333 31.2418 24.9464 31.9213 25.8074 32.3551Z" stroke="white" stroke-opacity="0.3"/>
<defs>
<linearGradient id="paint0_linear_4411_4417" x1="-1080.42" y1="52.2688" x2="-1078.4" y2="-34.4348" gradientUnits="userSpaceOnUse">
<stop stop-color="#E8DF38"/>
<stop offset="1" stop-color="#41D882"/>
</linearGradient>
</defs>
</svg>
