<svg width="351" height="351" viewBox="0 0 351 351" fill="none" xmlns="http://www.w3.org/2000/svg">
<path d="M319.47 185.108C316.148 172.7 309.968 161.243 301.423 151.653C292.878 142.064 282.206 134.608 270.263 129.884C258.319 125.159 245.435 123.297 232.642 124.446C219.849 125.596 207.503 129.725 196.593 136.502L219.065 46.7779C219.622 44.5486 219.466 42.2006 218.617 40.0653C217.768 37.9299 216.27 36.115 214.335 34.8768C205.006 28.9859 194.587 25.0319 183.698 23.2499C172.81 21.468 161.674 21.8945 150.954 24.5042C140.234 27.1139 130.148 31.8533 121.297 38.4406C112.446 45.0278 105.01 53.3282 99.4324 62.8479C93.8547 72.3675 90.249 82.9119 88.8297 93.8536C87.4105 104.795 88.2067 115.911 91.1711 126.538C94.1355 137.166 99.2074 147.089 106.085 155.716C112.963 164.343 121.506 171.499 131.205 176.758L42.2624 202.164C40.0527 202.793 38.0965 204.1 36.6697 205.901C35.2428 207.702 34.4175 209.905 34.3101 212.2C33.4659 230.928 39.0436 249.383 50.1194 264.508C61.1953 279.633 77.105 290.522 95.214 295.371C102.199 297.246 109.399 298.2 116.631 298.209C127.651 298.18 138.553 295.939 148.692 291.62C158.83 287.301 167.999 280.991 175.655 273.065C183.311 265.138 189.298 255.755 193.262 245.472C197.226 235.189 199.086 224.216 198.732 213.201L265.202 277.533C266.855 279.132 268.969 280.171 271.245 280.504C273.521 280.836 275.844 280.444 277.885 279.384C294.517 270.755 307.704 256.706 315.266 239.563C322.828 222.42 324.311 203.208 319.47 185.108ZM178.851 202.726C173.468 203.388 168.009 202.439 163.166 199.998C158.322 197.558 154.311 193.736 151.64 189.016C148.968 184.296 147.756 178.89 148.158 173.481C148.559 168.072 150.555 162.904 153.893 158.629C157.232 154.355 161.763 151.167 166.913 149.468C172.064 147.769 177.603 147.635 182.829 149.084C188.056 150.532 192.735 153.499 196.276 157.607C199.817 161.715 202.06 166.781 202.722 172.164C203.609 179.383 201.592 186.657 197.115 192.389C192.639 198.12 186.069 201.839 178.851 202.726Z" fill="white" fill-opacity="0.15"/>
<path d="M125.596 327.5V298.303H144.928V303.393H131.769V310.35H143.644V315.439H131.769V327.5H125.596ZM150.466 327.5H143.851L153.93 298.303H161.885L171.95 327.5H165.335L158.022 304.975H157.794L150.466 327.5ZM150.053 316.024H165.677V320.842H150.053V316.024ZM199.885 298.303V327.5H194.553L181.851 309.124H181.637V327.5H175.464V298.303H180.882L193.484 316.665H193.741V298.303H199.885ZM220.824 306.7C220.71 305.55 220.22 304.657 219.356 304.02C218.491 303.383 217.317 303.065 215.834 303.065C214.827 303.065 213.976 303.207 213.282 303.493C212.589 303.768 212.056 304.153 211.686 304.647C211.325 305.142 211.144 305.702 211.144 306.33C211.125 306.852 211.234 307.308 211.472 307.698C211.719 308.088 212.056 308.425 212.484 308.71C212.912 308.986 213.406 309.228 213.967 309.437C214.527 309.637 215.126 309.808 215.763 309.951L218.386 310.578C219.66 310.863 220.829 311.243 221.893 311.718C222.958 312.194 223.88 312.778 224.659 313.472C225.438 314.166 226.042 314.983 226.469 315.924C226.907 316.865 227.13 317.944 227.139 319.16C227.13 320.947 226.674 322.496 225.771 323.808C224.877 325.11 223.585 326.122 221.893 326.844C220.211 327.557 218.182 327.913 215.806 327.913C213.449 327.913 211.396 327.552 209.647 326.83C207.908 326.108 206.549 325.038 205.57 323.622C204.6 322.197 204.092 320.434 204.044 318.333H210.018C210.084 319.312 210.365 320.13 210.859 320.785C211.363 321.432 212.033 321.921 212.869 322.254C213.715 322.577 214.67 322.738 215.735 322.738C216.78 322.738 217.688 322.586 218.457 322.282C219.237 321.978 219.84 321.555 220.268 321.013C220.696 320.472 220.91 319.849 220.91 319.146C220.91 318.49 220.715 317.939 220.325 317.492C219.945 317.045 219.384 316.665 218.643 316.352C217.911 316.038 217.013 315.753 215.948 315.496L212.769 314.698C210.308 314.099 208.364 313.163 206.938 311.889C205.513 310.616 204.805 308.9 204.814 306.743C204.805 304.975 205.275 303.431 206.226 302.11C207.186 300.789 208.502 299.757 210.175 299.016C211.847 298.275 213.748 297.904 215.877 297.904C218.044 297.904 219.935 298.275 221.551 299.016C223.176 299.757 224.44 300.789 225.343 302.11C226.246 303.431 226.712 304.961 226.74 306.7H220.824Z" fill="white"/>
</svg>
