<svg width="57" height="56" viewBox="0 0 57 56" fill="none" xmlns="http://www.w3.org/2000/svg">
<path opacity="0.2" d="M45.8628 26.947L49.5334 22.3532C49.0383 20.4921 48.2976 18.7052 47.3306 17.0398L41.49 16.3835C41.0234 15.8578 40.526 15.3604 40.0003 14.8938L39.3441 9.05102C37.6768 8.08989 35.8893 7.35431 34.0284 6.86352L29.4347 10.532C28.7324 10.4904 28.0282 10.4904 27.3259 10.532L22.7322 6.86133C20.8771 7.35788 19.0962 8.09863 17.4363 9.06414L16.78 14.9048C16.2543 15.3713 15.7569 15.8688 15.2903 16.3945L9.4475 17.0507C8.48638 18.718 7.75079 20.5055 7.26 22.3663L10.9284 26.9601C10.8869 27.6624 10.8869 28.3665 10.9284 29.0688L7.25781 33.6626C7.75291 35.5237 8.49369 37.3105 9.46063 38.976L15.3013 39.6323C15.7678 40.1579 16.2653 40.6554 16.7909 41.122L17.4472 46.9648C19.1145 47.9259 20.902 48.6615 22.7628 49.1523L27.3566 45.4838C28.0589 45.5254 28.763 45.5254 29.4653 45.4838L34.0591 49.1545C35.9202 48.6594 37.707 47.9186 39.3725 46.9516L40.0287 41.111C40.5544 40.6444 41.0519 40.147 41.5184 39.6213L47.3612 38.9651C48.3224 37.2978 49.058 35.5103 49.5487 33.6495L45.8803 29.0557C45.916 28.3531 45.9102 27.6489 45.8628 26.947ZM28.3934 36.7513C26.6628 36.7513 24.9711 36.2381 23.5322 35.2767C22.0933 34.3152 20.9718 32.9487 20.3095 31.3498C19.6472 29.751 19.4739 27.9916 19.8116 26.2943C20.1492 24.597 20.9825 23.0379 22.2063 21.8141C23.43 20.5904 24.9891 19.7571 26.6864 19.4195C28.3837 19.0818 30.1431 19.2551 31.7419 19.9174C33.3408 20.5796 34.7073 21.7012 35.6688 23.1401C36.6303 24.579 37.1434 26.2707 37.1434 28.0013C37.1434 30.322 36.2216 32.5476 34.5806 34.1885C32.9397 35.8295 30.7141 36.7513 28.3934 36.7513Z" fill="black"/>
<path d="M28.398 17.4996C26.3213 17.4996 24.2913 18.1154 22.5646 19.2692C20.8378 20.4229 19.492 22.0628 18.6973 23.9814C17.9026 25.9001 17.6947 28.0113 18.0998 30.0481C18.5049 32.0849 19.505 33.9558 20.9734 35.4242C22.4419 36.8927 24.3128 37.8927 26.3496 38.2979C28.3864 38.703 30.4976 38.4951 32.4162 37.7003C34.3349 36.9056 35.9747 35.5598 37.1285 33.8331C38.2822 32.1064 38.898 30.0763 38.898 27.9996C38.8952 25.2157 37.788 22.5467 35.8195 20.5782C33.851 18.6097 31.1819 17.5025 28.398 17.4996ZM28.398 34.9996C27.0136 34.9996 25.6602 34.5891 24.5091 33.8199C23.3579 33.0507 22.4607 31.9575 21.9309 30.6784C21.4011 29.3993 21.2625 27.9918 21.5326 26.634C21.8026 25.2761 22.4693 24.0288 23.4483 23.0499C24.4273 22.0709 25.6746 21.4042 27.0324 21.1341C28.3903 20.864 29.7977 21.0026 31.0768 21.5325C32.3559 22.0623 33.4492 22.9595 34.2183 24.1106C34.9875 25.2618 35.398 26.6151 35.398 27.9996C35.398 29.8561 34.6605 31.6366 33.3478 32.9494C32.035 34.2621 30.2546 34.9996 28.398 34.9996ZM47.648 28.4721C47.6568 28.1571 47.6568 27.8421 47.648 27.5271L50.9118 23.4496C51.0829 23.2355 51.2014 22.9842 51.2576 22.716C51.3139 22.4477 51.3063 22.17 51.2355 21.9052C50.6996 19.8944 49.8992 17.9635 48.8555 16.163C48.7188 15.9275 48.5289 15.7271 48.301 15.5779C48.0732 15.4286 47.8136 15.3346 47.543 15.3034L42.3543 14.7259C42.1385 14.4984 41.9197 14.2796 41.6981 14.0696L41.0855 8.86774C41.054 8.59695 40.9597 8.33727 40.8101 8.1094C40.6604 7.88152 40.4596 7.69176 40.2237 7.55524C38.4234 6.51234 36.4924 5.71347 34.4815 5.17961C34.2167 5.10887 33.939 5.10131 33.6707 5.15754C33.4025 5.21378 33.1512 5.33223 32.9371 5.50336L28.8706 8.74961C28.5555 8.74961 28.2405 8.74961 27.9255 8.74961L23.848 5.49242C23.634 5.32129 23.3827 5.20284 23.1144 5.1466C22.8462 5.09037 22.5685 5.09793 22.3037 5.16867C20.2928 5.70467 18.3619 6.50498 16.5615 7.54867C16.3259 7.68545 16.1256 7.87532 15.9763 8.10318C15.8271 8.33104 15.7331 8.59059 15.7018 8.86117L15.1243 14.0587C14.8968 14.276 14.678 14.4947 14.468 14.7149L9.26617 15.3121C8.99539 15.3436 8.73571 15.4379 8.50783 15.5876C8.27996 15.7372 8.0902 15.938 7.95367 16.174C6.911 17.9747 6.11144 19.9055 5.57586 21.9162C5.50542 22.1811 5.49821 22.4589 5.55483 22.7272C5.61144 22.9955 5.73029 23.2467 5.9018 23.4605L9.14805 27.5271C9.14805 27.8421 9.14805 28.1571 9.14805 28.4721L5.89086 32.5496C5.71973 32.7637 5.60128 33.015 5.54504 33.2832C5.48881 33.5515 5.49637 33.8292 5.56711 34.094C6.10311 36.1048 6.90342 38.0357 7.94711 39.8362C8.08389 40.0717 8.27376 40.2721 8.50162 40.4214C8.72948 40.5706 8.98903 40.6646 9.25961 40.6959L14.4484 41.2734C14.6657 41.5009 14.8844 41.7196 15.1046 41.9296L15.7105 47.1315C15.7421 47.4023 15.8364 47.662 15.986 47.8898C16.1357 48.1177 16.3365 48.3075 16.5724 48.444C18.3731 49.4867 20.304 50.2862 22.3146 50.8218C22.5796 50.8922 22.8574 50.8994 23.1256 50.8428C23.3939 50.7862 23.6451 50.6674 23.859 50.4959L27.9255 47.2496C28.2405 47.2584 28.5555 47.2584 28.8706 47.2496L32.948 50.5134C33.1621 50.6845 33.4134 50.8029 33.6817 50.8592C33.9499 50.9154 34.2276 50.9079 34.4924 50.8371C36.5036 50.3021 38.4346 49.5017 40.2346 48.4571C40.4702 48.3203 40.6705 48.1305 40.8198 47.9026C40.969 47.6747 41.063 47.4152 41.0943 47.1446L41.6718 41.9559C41.8993 41.74 42.118 41.5213 42.328 41.2996L47.5299 40.6871C47.8007 40.6556 48.0604 40.5613 48.2883 40.4116C48.5161 40.262 48.7059 40.0612 48.8424 39.8252C49.8851 38.0246 50.6847 36.0937 51.2202 34.083C51.2907 33.8181 51.2979 33.5403 51.2413 33.272C51.1847 33.0038 51.0658 32.7526 50.8943 32.5387L47.648 28.4721ZM44.1262 27.0502C44.1634 27.6826 44.1634 28.3166 44.1262 28.949C44.1001 29.3819 44.2358 29.8091 44.5068 30.1477L47.6109 34.0262C47.2547 35.1581 46.7986 36.2562 46.2481 37.3074L41.3043 37.8674C40.8738 37.9152 40.4763 38.121 40.1887 38.4449C39.7676 38.9185 39.3191 39.367 38.8455 39.788C38.5216 40.0756 38.3158 40.4731 38.268 40.9037L37.719 45.8431C36.6679 46.3939 35.5698 46.85 34.4377 47.2059L30.5571 44.1018C30.2466 43.8537 29.8608 43.7187 29.4634 43.719H29.3584C28.726 43.7562 28.092 43.7562 27.4596 43.719C27.0268 43.6942 26.6001 43.8297 26.2609 44.0996L22.3715 47.2059C21.2395 46.8497 20.1415 46.3936 19.0902 45.8431L18.5302 40.9059C18.4824 40.4753 18.2767 40.0778 17.9527 39.7902C17.4792 39.3692 17.0307 38.9207 16.6096 38.4471C16.322 38.1232 15.9245 37.9174 15.494 37.8696L10.5546 37.3184C10.0038 36.2673 9.54771 35.1692 9.1918 34.0371L12.2959 30.1565C12.5669 29.8179 12.7025 29.3907 12.6765 28.9577C12.6393 28.3254 12.6393 27.6914 12.6765 27.059C12.7025 26.626 12.5669 26.1988 12.2959 25.8602L9.1918 21.973C9.54798 20.8411 10.004 19.743 10.5546 18.6918L15.4918 18.1318C15.9223 18.084 16.3198 17.8782 16.6074 17.5543C17.0285 17.0807 17.477 16.6322 17.9505 16.2112C18.2758 15.9234 18.4824 15.525 18.5302 15.0934L19.0793 10.1562C20.1304 9.60534 21.2285 9.14927 22.3605 8.79336L26.2412 11.8974C26.5798 12.1685 27.007 12.3041 27.4399 12.278C28.0723 12.2409 28.7063 12.2409 29.3387 12.278C29.7715 12.3029 30.1982 12.1674 30.5374 11.8974L34.4246 8.79336C35.5566 9.14954 36.6546 9.60561 37.7059 10.1562L38.2659 15.0934C38.3137 15.5239 38.5194 15.9214 38.8434 16.209C39.3169 16.6301 39.7654 17.0785 40.1865 17.5521C40.4741 17.8761 40.8716 18.0818 41.3021 18.1296L46.2415 18.6787C46.7923 19.7298 47.2484 20.8279 47.6043 21.9599L44.5002 25.8405C44.2266 26.182 44.0908 26.6136 44.1196 27.0502H44.1262Z" fill="black"/>
<path d="M28.398 17.4996C26.3213 17.4996 24.2913 18.1154 22.5646 19.2692C20.8378 20.4229 19.492 22.0628 18.6973 23.9814C17.9026 25.9001 17.6947 28.0113 18.0998 30.0481C18.5049 32.0849 19.505 33.9558 20.9734 35.4242C22.4419 36.8927 24.3128 37.8927 26.3496 38.2979C28.3864 38.703 30.4976 38.4951 32.4162 37.7003C34.3349 36.9056 35.9747 35.5598 37.1285 33.8331C38.2822 32.1064 38.898 30.0763 38.898 27.9996C38.8952 25.2157 37.788 22.5467 35.8195 20.5782C33.851 18.6097 31.1819 17.5025 28.398 17.4996ZM28.398 34.9996C27.0136 34.9996 25.6602 34.5891 24.5091 33.8199C23.3579 33.0507 22.4607 31.9575 21.9309 30.6784C21.4011 29.3993 21.2625 27.9918 21.5326 26.634C21.8026 25.2761 22.4693 24.0288 23.4483 23.0499C24.4273 22.0709 25.6746 21.4042 27.0324 21.1341C28.3903 20.864 29.7977 21.0026 31.0768 21.5325C32.3559 22.0623 33.4492 22.9595 34.2183 24.1106C34.9875 25.2618 35.398 26.6151 35.398 27.9996C35.398 29.8561 34.6605 31.6366 33.3478 32.9494C32.035 34.2621 30.2546 34.9996 28.398 34.9996ZM47.648 28.4721C47.6568 28.1571 47.6568 27.8421 47.648 27.5271L50.9118 23.4496C51.0829 23.2355 51.2014 22.9842 51.2576 22.716C51.3139 22.4477 51.3063 22.17 51.2355 21.9052C50.6996 19.8944 49.8992 17.9635 48.8555 16.163C48.7188 15.9275 48.5289 15.7271 48.301 15.5779C48.0732 15.4286 47.8136 15.3346 47.543 15.3034L42.3543 14.7259C42.1385 14.4984 41.9197 14.2796 41.6981 14.0696L41.0855 8.86774C41.054 8.59695 40.9597 8.33727 40.8101 8.1094C40.6604 7.88152 40.4596 7.69176 40.2237 7.55524C38.4234 6.51234 36.4924 5.71347 34.4815 5.17961C34.2167 5.10887 33.939 5.10131 33.6707 5.15754C33.4025 5.21378 33.1512 5.33223 32.9371 5.50336L28.8706 8.74961C28.5555 8.74961 28.2405 8.74961 27.9255 8.74961L23.848 5.49242C23.634 5.32129 23.3827 5.20284 23.1144 5.1466C22.8462 5.09037 22.5685 5.09793 22.3037 5.16867C20.2928 5.70467 18.3619 6.50498 16.5615 7.54867C16.3259 7.68545 16.1256 7.87532 15.9763 8.10318C15.8271 8.33104 15.7331 8.59059 15.7018 8.86117L15.1243 14.0587C14.8968 14.276 14.678 14.4947 14.468 14.7149L9.26617 15.3121C8.99539 15.3436 8.73571 15.4379 8.50783 15.5876C8.27996 15.7372 8.0902 15.938 7.95367 16.174C6.911 17.9747 6.11144 19.9055 5.57586 21.9162C5.50542 22.1811 5.49821 22.4589 5.55483 22.7272C5.61144 22.9955 5.73029 23.2467 5.9018 23.4605L9.14805 27.5271C9.14805 27.8421 9.14805 28.1571 9.14805 28.4721L5.89086 32.5496C5.71973 32.7637 5.60128 33.015 5.54504 33.2832C5.48881 33.5515 5.49637 33.8292 5.56711 34.094C6.10311 36.1048 6.90342 38.0357 7.94711 39.8362C8.08389 40.0717 8.27376 40.2721 8.50162 40.4214C8.72948 40.5706 8.98903 40.6646 9.25961 40.6959L14.4484 41.2734C14.6657 41.5009 14.8844 41.7196 15.1046 41.9296L15.7105 47.1315C15.7421 47.4023 15.8364 47.662 15.986 47.8898C16.1357 48.1177 16.3365 48.3075 16.5724 48.444C18.3731 49.4867 20.304 50.2862 22.3146 50.8218C22.5796 50.8922 22.8574 50.8994 23.1256 50.8428C23.3939 50.7862 23.6451 50.6674 23.859 50.4959L27.9255 47.2496C28.2405 47.2584 28.5555 47.2584 28.8706 47.2496L32.948 50.5134C33.1621 50.6845 33.4134 50.8029 33.6817 50.8592C33.9499 50.9154 34.2276 50.9079 34.4924 50.8371C36.5036 50.3021 38.4346 49.5017 40.2346 48.4571C40.4702 48.3203 40.6705 48.1305 40.8198 47.9026C40.969 47.6747 41.063 47.4152 41.0943 47.1446L41.6718 41.9559C41.8993 41.74 42.118 41.5213 42.328 41.2996L47.5299 40.6871C47.8007 40.6556 48.0604 40.5613 48.2883 40.4116C48.5161 40.262 48.7059 40.0612 48.8424 39.8252C49.8851 38.0246 50.6847 36.0937 51.2202 34.083C51.2907 33.8181 51.2979 33.5403 51.2413 33.272C51.1847 33.0038 51.0658 32.7526 50.8943 32.5387L47.648 28.4721ZM44.1262 27.0502C44.1634 27.6826 44.1634 28.3166 44.1262 28.949C44.1001 29.3819 44.2358 29.8091 44.5068 30.1477L47.6109 34.0262C47.2547 35.1581 46.7986 36.2562 46.2481 37.3074L41.3043 37.8674C40.8738 37.9152 40.4763 38.121 40.1887 38.4449C39.7676 38.9185 39.3191 39.367 38.8455 39.788C38.5216 40.0756 38.3158 40.4731 38.268 40.9037L37.719 45.8431C36.6679 46.3939 35.5698 46.85 34.4377 47.2059L30.5571 44.1018C30.2466 43.8537 29.8608 43.7187 29.4634 43.719H29.3584C28.726 43.7562 28.092 43.7562 27.4596 43.719C27.0268 43.6942 26.6001 43.8297 26.2609 44.0996L22.3715 47.2059C21.2395 46.8497 20.1415 46.3936 19.0902 45.8431L18.5302 40.9059C18.4824 40.4753 18.2767 40.0778 17.9527 39.7902C17.4792 39.3692 17.0307 38.9207 16.6096 38.4471C16.322 38.1232 15.9245 37.9174 15.494 37.8696L10.5546 37.3184C10.0038 36.2673 9.54771 35.1692 9.1918 34.0371L12.2959 30.1565C12.5669 29.8179 12.7025 29.3907 12.6765 28.9577C12.6393 28.3254 12.6393 27.6914 12.6765 27.059C12.7025 26.626 12.5669 26.1988 12.2959 25.8602L9.1918 21.973C9.54798 20.8411 10.004 19.743 10.5546 18.6918L15.4918 18.1318C15.9223 18.084 16.3198 17.8782 16.6074 17.5543C17.0285 17.0807 17.477 16.6322 17.9505 16.2112C18.2758 15.9234 18.4824 15.525 18.5302 15.0934L19.0793 10.1562C20.1304 9.60534 21.2285 9.14927 22.3605 8.79336L26.2412 11.8974C26.5798 12.1685 27.007 12.3041 27.4399 12.278C28.0723 12.2409 28.7063 12.2409 29.3387 12.278C29.7715 12.3029 30.1982 12.1674 30.5374 11.8974L34.4246 8.79336C35.5566 9.14954 36.6546 9.60561 37.7059 10.1562L38.2659 15.0934C38.3137 15.5239 38.5194 15.9214 38.8434 16.209C39.3169 16.6301 39.7654 17.0785 40.1865 17.5521C40.4741 17.8761 40.8716 18.0818 41.3021 18.1296L46.2415 18.6787C46.7923 19.7298 47.2484 20.8279 47.6043 21.9599L44.5002 25.8405C44.2266 26.182 44.0908 26.6136 44.1196 27.0502H44.1262Z" fill="url(#paint0_linear_4411_3950)"/>
<defs>
<linearGradient id="paint0_linear_4411_3950" x1="-1076.41" y1="55.7738" x2="-1074.22" y2="-34.3641" gradientUnits="userSpaceOnUse">
<stop stop-color="#E8DF38"/>
<stop offset="1" stop-color="#41D882"/>
</linearGradient>
</defs>
</svg>
