<svg width="48" height="48" viewBox="0 0 48 48" fill="none" xmlns="http://www.w3.org/2000/svg">
<path opacity="0.2" d="M40.5 28.5V37.5C40.5 37.8978 40.342 38.2794 40.0607 38.5607C39.7794 38.842 39.3978 39 39 39H9C8.60218 39 8.22064 38.842 7.93934 38.5607C7.65804 38.2794 7.5 37.8978 7.5 37.5V28.5C7.5 28.1022 7.65804 27.7206 7.93934 27.4393C8.22064 27.158 8.60218 27 9 27H39C39.3978 27 39.7794 27.158 40.0607 27.4393C40.342 27.7206 40.5 28.1022 40.5 28.5ZM39 9H9C8.60218 9 8.22064 9.15804 7.93934 9.43934C7.65804 9.72064 7.5 10.1022 7.5 10.5V19.5C7.5 19.8978 7.65804 20.2794 7.93934 20.5607C8.22064 20.842 8.60218 21 9 21H39C39.3978 21 39.7794 20.842 40.0607 20.5607C40.342 20.2794 40.5 19.8978 40.5 19.5V10.5C40.5 10.1022 40.342 9.72064 40.0607 9.43934C39.7794 9.15804 39.3978 9 39 9Z" fill="url(#paint0_linear_4411_3384)"/>
<path d="M39 25.5H9C8.20435 25.5 7.44129 25.8161 6.87868 26.3787C6.31607 26.9413 6 27.7044 6 28.5V37.5C6 38.2956 6.31607 39.0587 6.87868 39.6213C7.44129 40.1839 8.20435 40.5 9 40.5H39C39.7957 40.5 40.5587 40.1839 41.1213 39.6213C41.6839 39.0587 42 38.2956 42 37.5V28.5C42 27.7044 41.6839 26.9413 41.1213 26.3787C40.5587 25.8161 39.7957 25.5 39 25.5ZM39 37.5H9V28.5H39V37.5ZM39 7.5H9C8.20435 7.5 7.44129 7.81607 6.87868 8.37868C6.31607 8.94129 6 9.70435 6 10.5V19.5C6 20.2956 6.31607 21.0587 6.87868 21.6213C7.44129 22.1839 8.20435 22.5 9 22.5H39C39.7957 22.5 40.5587 22.1839 41.1213 21.6213C41.6839 21.0587 42 20.2956 42 19.5V10.5C42 9.70435 41.6839 8.94129 41.1213 8.37868C40.5587 7.81607 39.7957 7.5 39 7.5ZM39 19.5H9V10.5H39V19.5ZM36 15C36 15.445 35.868 15.88 35.6208 16.25C35.3736 16.62 35.0222 16.9084 34.611 17.0787C34.1999 17.249 33.7475 17.2936 33.311 17.2068C32.8746 17.12 32.4737 16.9057 32.159 16.591C31.8443 16.2763 31.63 15.8754 31.5432 15.439C31.4564 15.0025 31.501 14.5501 31.6713 14.139C31.8416 13.7278 32.13 13.3764 32.5 13.1292C32.87 12.882 33.305 12.75 33.75 12.75C34.3467 12.75 34.919 12.9871 35.341 13.409C35.7629 13.831 36 14.4033 36 15ZM36 33C36 33.445 35.868 33.88 35.6208 34.25C35.3736 34.62 35.0222 34.9084 34.611 35.0787C34.1999 35.249 33.7475 35.2936 33.311 35.2068C32.8746 35.12 32.4737 34.9057 32.159 34.591C31.8443 34.2763 31.63 33.8754 31.5432 33.439C31.4564 33.0025 31.501 32.5501 31.6713 32.139C31.8416 31.7278 32.13 31.3764 32.5 31.1292C32.87 30.882 33.305 30.75 33.75 30.75C34.3467 30.75 34.919 30.9871 35.341 31.409C35.7629 31.831 36 32.4033 36 33Z" fill="url(#paint1_linear_4411_3384)"/>
<defs>
<linearGradient id="paint0_linear_4411_3384" x1="-772.27" y1="42.1957" x2="-770.967" y2="-16.8693" gradientUnits="userSpaceOnUse">
<stop stop-color="#E8DF38"/>
<stop offset="1" stop-color="#41D882"/>
</linearGradient>
<linearGradient id="paint1_linear_4411_3384" x1="-844.658" y1="44.0152" x2="-843.213" y2="-20.9557" gradientUnits="userSpaceOnUse">
<stop stop-color="#E8DF38"/>
<stop offset="1" stop-color="#41D882"/>
</linearGradient>
</defs>
</svg>
