<svg width="49" height="48" viewBox="0 0 49 48" fill="none" xmlns="http://www.w3.org/2000/svg">
<path opacity="0.2" d="M40.549 32.34C39.0946 35.1219 36.938 37.4751 34.2933 39.166C31.6485 40.857 28.6075 41.8268 25.4721 41.9794L26.0665 38.8969C26.1107 38.6655 26.0998 38.4269 26.0346 38.2005C25.9695 37.9741 25.8519 37.7663 25.6915 37.5938L21.9902 33.7819C21.7907 33.5665 21.6588 33.2973 21.6108 33.0077C21.5628 32.7181 21.6008 32.4207 21.7202 32.1525L24.289 26.3888C24.421 26.0926 24.6455 25.8472 24.9288 25.6893C25.2121 25.5314 25.5389 25.4696 25.8602 25.5131L30.139 26.0906C30.3462 26.119 30.5454 26.1899 30.724 26.2988L40.549 32.34ZM22.4777 17.8125L24.7821 16.545C24.8838 16.49 24.9782 16.4226 25.0633 16.3444L30.109 11.7825C30.3601 11.5541 30.5263 11.2473 30.5805 10.9121C30.6346 10.577 30.5735 10.2334 30.4071 9.93752L28.4383 6.41065C27.1754 6.13708 25.8868 5.99942 24.5946 6.00002C20.4859 5.99375 16.4997 7.39904 13.3033 9.98065L11.0946 15.2025C10.9454 15.556 10.9374 15.9533 11.0721 16.3125L13.2283 22.0631C13.3169 22.2981 13.4631 22.5071 13.6534 22.6709C13.8438 22.8347 14.0722 22.9481 14.3177 23.0006L14.8221 23.1094L17.3196 18.75C17.4514 18.5217 17.6411 18.3321 17.8696 18.2004C18.098 18.0688 18.3572 17.9996 18.6208 18H21.754C22.0073 18.0004 22.2565 17.9359 22.4777 17.8125Z" fill="url(#paint0_linear_4411_3946)"/>
<path d="M24.6016 4.5C20.7448 4.5 16.9747 5.64366 13.768 7.78634C10.5612 9.92903 8.06183 12.9745 6.58592 16.5377C5.11001 20.1008 4.72385 24.0216 5.47626 27.8043C6.22867 31.5869 8.08587 35.0615 10.813 37.7886C13.5401 40.5157 17.0147 42.3729 20.7973 43.1253C24.5799 43.8777 28.5007 43.4916 32.0639 42.0156C35.6271 40.5397 38.6725 38.0404 40.8152 34.8336C42.9579 31.6269 44.1016 27.8567 44.1016 24C44.0961 18.83 42.0399 13.8732 38.3841 10.2174C34.7283 6.56167 29.7716 4.50546 24.6016 4.5ZM41.1016 24C41.1032 26.1168 40.6957 28.214 39.9016 30.1763L31.5203 25.0219C31.164 24.802 30.7653 24.6595 30.3503 24.6038L26.0716 24.0262C25.482 23.9494 24.8828 24.0482 24.3492 24.3104C23.8155 24.5725 23.3711 24.9864 23.0716 25.5H21.4366L20.7241 24.0262C20.5271 23.6159 20.2388 23.256 19.8813 22.9743C19.5238 22.6925 19.1066 22.4963 18.6616 22.4006L17.1616 22.0763L18.6278 19.5H21.7609C22.2679 19.499 22.7665 19.37 23.2103 19.125L25.5072 17.8575C25.709 17.745 25.8976 17.6104 26.0697 17.4562L31.1153 12.8925C31.6212 12.4391 31.9574 11.8269 32.0686 11.1568C32.1797 10.4866 32.059 9.79862 31.7266 9.20625L31.6591 9.08438C34.4824 10.4231 36.8683 12.5351 38.5396 15.1752C40.211 17.8153 41.0993 20.8753 41.1016 24ZM27.4722 7.75125L29.1016 10.6688L24.0559 15.2325L21.7609 16.5H18.6278C18.1005 16.4992 17.5822 16.6375 17.1253 16.9008C16.6684 17.1642 16.289 17.5433 16.0253 18L14.3884 20.8556L12.4853 15.7856L14.5366 10.935C16.3522 9.53211 18.4409 8.52393 20.6687 7.97504C22.8966 7.42615 25.2145 7.34864 27.4741 7.7475L27.4722 7.75125ZM8.10157 24C8.09907 21.5475 8.64622 19.1257 9.70282 16.9125L11.8291 22.5881C12.0063 23.058 12.2986 23.476 12.6793 23.8036C13.0599 24.1312 13.5167 24.3579 14.0078 24.4631L18.0259 25.3275L18.7403 26.8125C18.9882 27.3176 19.3725 27.7432 19.8496 28.0414C20.3267 28.3396 20.8777 28.4985 21.4403 28.5H21.7178L20.3622 31.5431C20.1233 32.079 20.0468 32.6731 20.1421 33.2519C20.2375 33.8308 20.5004 34.369 20.8984 34.8L20.9247 34.8263L24.6016 38.6138L24.2378 40.4888C19.9287 40.3885 15.8295 38.6081 12.8148 35.5275C9.80011 32.447 8.10872 28.3102 8.10157 24ZM27.3353 40.2712L27.5472 39.1819C27.6343 38.7191 27.6118 38.2423 27.4816 37.7897C27.3513 37.3372 27.117 36.9214 26.7972 36.5756C26.788 36.5674 26.7792 36.5586 26.7709 36.5494L23.1016 32.7638L25.6703 27L29.9491 27.5775L38.5216 32.85C37.2796 34.8004 35.6423 36.4687 33.7155 37.747C31.7887 39.0253 29.6152 39.8852 27.3353 40.2712Z" fill="url(#paint1_linear_4411_3946)"/>
<defs>
<linearGradient id="paint0_linear_4411_3946" x1="-687.802" y1="45.812" x2="-685.711" y2="-24.9982" gradientUnits="userSpaceOnUse">
<stop stop-color="#E8DF38"/>
<stop offset="1" stop-color="#41D882"/>
</linearGradient>
<linearGradient id="paint1_linear_4411_3946" x1="-916.445" y1="47.6544" x2="-914.582" y2="-29.1223" gradientUnits="userSpaceOnUse">
<stop stop-color="#E8DF38"/>
<stop offset="1" stop-color="#41D882"/>
</linearGradient>
</defs>
</svg>
