<svg width="38" height="38" viewBox="0 0 38 38" fill="none" xmlns="http://www.w3.org/2000/svg">
<path d="M22.9375 13.75H15.0625C14.7144 13.75 14.3806 13.8883 14.1344 14.1344C13.8883 14.3806 13.75 14.7144 13.75 15.0625V22.9375C13.75 23.2856 13.8883 23.6194 14.1344 23.8656C14.3806 24.1117 14.7144 24.25 15.0625 24.25H22.9375C23.2856 24.25 23.6194 24.1117 23.8656 23.8656C24.1117 23.6194 24.25 23.2856 24.25 22.9375V15.0625C24.25 14.7144 24.1117 14.3806 23.8656 14.1344C23.6194 13.8883 23.2856 13.75 22.9375 13.75ZM21.625 21.625H16.375V16.375H21.625V21.625ZM36.0625 21.625H33.4375V16.375H36.0625C36.4106 16.375 36.7444 16.2367 36.9906 15.9906C37.2367 15.7444 37.375 15.4106 37.375 15.0625C37.375 14.7144 37.2367 14.3806 36.9906 14.1344C36.7444 13.8883 36.4106 13.75 36.0625 13.75H33.4375V7.1875C33.4375 6.49131 33.1609 5.82363 32.6687 5.33134C32.1764 4.83906 31.5087 4.5625 30.8125 4.5625H24.25V1.9375C24.25 1.5894 24.1117 1.25556 23.8656 1.00942C23.6194 0.763281 23.2856 0.625 22.9375 0.625C22.5894 0.625 22.2556 0.763281 22.0094 1.00942C21.7633 1.25556 21.625 1.5894 21.625 1.9375V4.5625H16.375V1.9375C16.375 1.5894 16.2367 1.25556 15.9906 1.00942C15.7444 0.763281 15.4106 0.625 15.0625 0.625C14.7144 0.625 14.3806 0.763281 14.1344 1.00942C13.8883 1.25556 13.75 1.5894 13.75 1.9375V4.5625H7.1875C6.49131 4.5625 5.82363 4.83906 5.33134 5.33134C4.83906 5.82363 4.5625 6.49131 4.5625 7.1875V13.75H1.9375C1.5894 13.75 1.25556 13.8883 1.00942 14.1344C0.763281 14.3806 0.625 14.7144 0.625 15.0625C0.625 15.4106 0.763281 15.7444 1.00942 15.9906C1.25556 16.2367 1.5894 16.375 1.9375 16.375H4.5625V21.625H1.9375C1.5894 21.625 1.25556 21.7633 1.00942 22.0094C0.763281 22.2556 0.625 22.5894 0.625 22.9375C0.625 23.2856 0.763281 23.6194 1.00942 23.8656C1.25556 24.1117 1.5894 24.25 1.9375 24.25H4.5625V30.8125C4.5625 31.5087 4.83906 32.1764 5.33134 32.6687C5.82363 33.1609 6.49131 33.4375 7.1875 33.4375H13.75V36.0625C13.75 36.4106 13.8883 36.7444 14.1344 36.9906C14.3806 37.2367 14.7144 37.375 15.0625 37.375C15.4106 37.375 15.7444 37.2367 15.9906 36.9906C16.2367 36.7444 16.375 36.4106 16.375 36.0625V33.4375H21.625V36.0625C21.625 36.4106 21.7633 36.7444 22.0094 36.9906C22.2556 37.2367 22.5894 37.375 22.9375 37.375C23.2856 37.375 23.6194 37.2367 23.8656 36.9906C24.1117 36.7444 24.25 36.4106 24.25 36.0625V33.4375H30.8125C31.5087 33.4375 32.1764 33.1609 32.6687 32.6687C33.1609 32.1764 33.4375 31.5087 33.4375 30.8125V24.25H36.0625C36.4106 24.25 36.7444 24.1117 36.9906 23.8656C37.2367 23.6194 37.375 23.2856 37.375 22.9375C37.375 22.5894 37.2367 22.2556 36.9906 22.0094C36.7444 21.7633 36.4106 21.625 36.0625 21.625ZM30.8125 30.8125H7.1875V7.1875H30.8125V22.9162C30.8125 22.9162 30.8125 22.9309 30.8125 22.9375C30.8125 22.9441 30.8125 22.9523 30.8125 22.9588V30.8125Z" fill="url(#paint0_linear_4050_2178)"/>
<defs>
<linearGradient id="paint0_linear_4050_2178" x1="-867.755" y1="41.2897" x2="-865.999" y2="-31.0575" gradientUnits="userSpaceOnUse">
<stop stop-color="#E8DF38"/>
<stop offset="1" stop-color="#41D882"/>
</linearGradient>
</defs>
</svg>
