<svg width="148" height="35" viewBox="0 0 148 35" fill="none" xmlns="http://www.w3.org/2000/svg">
<g clip-path="url(#clip0_4050_3549)">
<path d="M42.0719 14.3589C41.031 13.6583 38.2966 13.3596 36.3086 13.8948C36.2017 11.9144 35.1804 10.2453 33.3119 8.79005L32.6208 8.32592L32.1598 9.02211C31.2542 10.3969 30.8724 12.2295 31.007 13.8954C31.1139 14.9218 31.4705 16.0752 32.1598 16.9123C29.5719 18.4134 27.1871 18.0726 16.6241 18.0726H0.316171C0.268375 20.458 0.652003 25.0458 3.56946 28.7808C3.89146 29.1934 4.2449 29.5927 4.62853 29.977C7.00073 32.3523 10.5848 34.0944 15.9443 34.0988C24.12 34.1063 31.1253 29.6864 35.3867 19.0008C36.7891 19.0241 40.4902 19.2518 42.3014 15.7519C42.3454 15.6928 42.7624 14.8237 42.7624 14.8237L42.0719 14.3596V14.3589ZM10.959 11.8974H6.37309V16.4834H10.959V11.8974ZM16.8839 11.8974H12.2979V16.4834H16.8839V11.8974ZM22.8087 11.8974H18.2228V16.4834H22.8087V11.8974ZM28.7336 11.8974H24.1476V16.4834H28.7336V11.8974ZM5.03542 11.8974H0.44824V16.4834H5.03417V11.8974H5.03542ZM10.9603 6.10465H6.37435V10.6906H10.9603V6.10465ZM16.8851 6.10465H12.2992V10.6906H16.8851V6.10465ZM22.81 6.10465H18.224V10.6906H22.81V6.10465ZM22.8081 0.3125H18.2222V4.89843H22.8081V0.3125Z" fill="#1D63ED"/>
<path d="M146.84 27.0243C146.84 28.2155 145.904 29.1507 144.688 29.1507C143.472 29.1507 142.523 28.2155 142.523 27.0243C142.523 25.8332 143.484 24.9238 144.688 24.9238C145.892 24.9238 146.84 25.859 146.84 27.0243ZM143.061 27.0243C143.061 27.9595 143.753 28.7022 144.701 28.7022C145.648 28.7022 146.302 27.9595 146.302 27.0376C146.302 26.1156 145.623 25.3464 144.689 25.3464C143.755 25.3464 143.062 26.1024 143.062 27.0243H143.061ZM144.355 28.1262H143.869V26.0257C144.06 25.9873 144.33 25.9615 144.675 25.9615C145.072 25.9615 145.251 26.0257 145.405 26.1156C145.521 26.2049 145.61 26.3716 145.61 26.5766C145.61 26.8074 145.431 26.9866 145.175 27.0633V27.0891C145.379 27.1652 145.495 27.3193 145.559 27.601C145.623 27.9212 145.661 28.0495 145.713 28.1262H145.188C145.124 28.0495 145.085 27.8576 145.021 27.6136C144.983 27.3835 144.855 27.2809 144.586 27.2809H144.355V28.1268V28.1262ZM144.368 26.935H144.598C144.867 26.935 145.085 26.8457 145.085 26.6281C145.085 26.4357 144.945 26.3068 144.637 26.3068C144.509 26.3068 144.419 26.32 144.368 26.3338V26.935Z" fill="white"/>
<path d="M64.3138 5.76627C64.0125 5.47194 63.6509 5.32227 63.2176 5.32227C62.7843 5.32227 62.412 5.47194 62.122 5.76627C61.8315 6.06059 61.6894 6.43793 61.6894 6.88759V14.3966C60.1989 13.1646 58.4788 12.5433 56.5223 12.5433C54.2482 12.5433 52.3037 13.3646 50.6924 15.013C49.0812 16.6556 48.2812 18.643 48.2812 20.9737C48.2812 23.3043 49.0869 25.286 50.6924 26.9343C52.3037 28.577 54.2432 29.404 56.5223 29.404C58.8015 29.404 60.7196 28.5827 62.3522 26.9343C63.9635 25.308 64.7634 23.3213 64.7634 20.9737V6.88696C64.7634 6.4373 64.6156 6.05996 64.3138 5.76564V5.76627ZM61.2837 23.005V23.0163C61.0152 23.6546 60.6479 24.215 60.1825 24.6923C59.7171 25.1753 59.1687 25.5527 58.5442 25.8357C57.9141 26.1187 57.2456 26.2577 56.528 26.2577C55.8104 26.2577 55.1256 26.1187 54.4954 25.8357C53.8652 25.5527 53.3225 25.1753 52.8628 24.698C52.4024 24.2207 52.0358 23.6603 51.7672 23.022C51.4987 22.378 51.3616 21.6956 51.3616 20.9737C51.3616 20.2517 51.4987 19.5693 51.7672 18.9253C52.0358 18.2813 52.4031 17.7267 52.8628 17.2493C53.3231 16.772 53.8709 16.3946 54.4954 16.1116C55.1256 15.8286 55.7997 15.6897 56.528 15.6897C57.2563 15.6897 57.9141 15.8286 58.5442 16.1116C59.1744 16.3946 59.7171 16.772 60.1825 17.255C60.6479 17.738 61.0152 18.2983 61.2837 18.931C61.5523 19.5693 61.6894 20.2466 61.6894 20.968C61.6894 21.6893 61.5523 22.3723 61.2837 23.005Z" fill="white"/>
<path d="M132.398 17.7385C131.998 16.7392 131.389 15.8348 130.589 15.0242L130.579 15.0185C128.951 13.3758 127.005 12.5488 124.749 12.5488C122.492 12.5488 120.53 13.3702 118.918 15.0185C117.307 16.6612 116.508 18.6485 116.508 20.9792C116.508 23.3099 117.313 25.2916 118.918 26.9399C120.53 28.5826 122.47 29.4096 124.749 29.4096C126.819 29.4096 128.611 28.7272 130.135 27.3619C130.43 27.0512 130.579 26.6739 130.579 26.2349C130.579 25.7959 130.437 25.4079 130.145 25.1136C129.856 24.8193 129.488 24.6696 129.05 24.6696C128.667 24.6809 128.327 24.8086 128.037 25.0639C127.576 25.4633 127.078 25.7689 126.536 25.9689C125.993 26.1689 125.401 26.2689 124.755 26.2689C124.185 26.2689 123.637 26.1802 123.117 25.9972C122.596 25.8142 122.109 25.5639 121.675 25.2368C121.237 24.9092 120.859 24.5212 120.536 24.0602C120.213 23.6049 119.966 23.0999 119.802 22.5452H131.457C131.889 22.5452 132.25 22.3955 132.552 22.1012C132.854 21.8068 133.002 21.4295 133.002 20.9798C133.002 19.8145 132.798 18.7322 132.399 17.7385H132.398ZM119.79 19.4145C119.949 18.8649 120.19 18.3598 120.513 17.8995C120.837 17.4442 121.22 17.0505 121.658 16.7228C122.102 16.3952 122.584 16.1455 123.116 15.9625C123.646 15.7795 124.189 15.6908 124.749 15.6908C125.309 15.6908 125.85 15.7795 126.375 15.9625C126.902 16.1455 127.385 16.3952 127.817 16.7228C128.256 17.0505 128.639 17.4385 128.962 17.8995C129.29 18.3548 129.538 18.8598 129.708 19.4145H119.789H119.79Z" fill="white"/>
<path d="M146.717 13.6017C146.443 13.3301 146.098 13.1187 145.682 12.9634C145.265 12.8081 144.811 12.7024 144.312 12.6414C143.819 12.5804 143.353 12.5527 142.921 12.5527C141.939 12.5527 141.019 12.7137 140.154 13.0357C139.288 13.3577 138.488 13.8181 137.753 14.4174V14.1181C137.753 13.6854 137.605 13.3187 137.303 13.0137C137.003 12.7087 136.646 12.5534 136.225 12.5534C135.804 12.5534 135.43 12.7087 135.129 13.0137C134.827 13.3187 134.68 13.691 134.68 14.1181V27.8438C134.68 28.2764 134.827 28.6431 135.129 28.9481C135.43 29.2531 135.792 29.4085 136.225 29.4085C136.658 29.4085 137.008 29.2531 137.303 28.9481C137.605 28.6431 137.753 28.2708 137.753 27.8438V20.9781C137.753 20.2454 137.89 19.5574 138.159 18.9134C138.427 18.2694 138.795 17.7147 139.26 17.2374C139.727 16.7601 140.274 16.3827 140.898 16.1104C141.528 15.8331 142.198 15.6941 142.916 15.6941C143.634 15.6941 144.312 15.8217 144.932 16.0714C145.178 16.1827 145.392 16.2381 145.578 16.2381C145.792 16.2381 145.995 16.1991 146.181 16.1161C146.367 16.0331 146.532 15.9217 146.669 15.7777C146.806 15.6337 146.915 15.467 146.997 15.2727C147.08 15.084 147.124 14.8784 147.124 14.6564C147.124 14.2237 146.987 13.874 146.713 13.6017H146.718H146.717Z" fill="white"/>
<path d="M82.3806 17.7435C81.9806 16.7499 81.3831 15.8399 80.5781 15.0185C78.9512 13.3758 77.006 12.5488 74.7483 12.5488C72.4905 12.5488 70.5296 13.3702 68.9184 15.0185C67.3071 16.6612 66.5078 18.6485 66.5078 20.9792C66.5078 23.3099 67.3134 25.2916 68.9184 26.9399C70.5296 28.5826 72.4691 29.4096 74.7483 29.4096C77.0274 29.4096 78.9455 28.5882 80.5781 26.9399C82.1894 25.3136 82.9894 23.3269 82.9894 20.9792C82.978 19.8139 82.7755 18.7372 82.3812 17.7435H82.3806ZM79.5097 23.0049V23.0162C79.2411 23.6545 78.8738 24.2149 78.4085 24.6922C77.9431 25.1752 77.3947 25.5526 76.7702 25.8356C76.1457 26.1186 75.4715 26.2575 74.7539 26.2575C74.0364 26.2575 73.3515 26.1186 72.7213 25.8356C72.0912 25.5526 71.5484 25.1752 71.0887 24.6979C70.6284 24.2205 70.2617 23.6602 69.9932 23.0219C69.7246 22.3779 69.5875 21.6955 69.5875 20.9735C69.5875 20.2516 69.7246 19.5692 69.9932 18.9252C70.2617 18.2812 70.629 17.7265 71.0887 17.2492C71.5491 16.7719 72.0968 16.3945 72.7213 16.1115C73.3515 15.8285 74.0257 15.6895 74.7539 15.6895C75.4822 15.6895 76.14 15.8285 76.7702 16.1115C77.4003 16.3945 77.9431 16.7719 78.4085 17.2549C78.8738 17.7379 79.2411 18.2982 79.5097 18.9309C79.7782 19.5692 79.9153 20.2465 79.9153 20.9679C79.9153 21.6892 79.7782 22.3722 79.5097 23.0049Z" fill="white"/>
<path d="M115.341 14.1134C115.341 13.9028 115.297 13.7028 115.215 13.5141C115.133 13.3254 115.023 13.1537 114.886 13.0091C114.749 12.8651 114.585 12.7481 114.399 12.6707C114.213 12.5934 114.01 12.5487 113.797 12.5487C113.49 12.5487 113.215 12.6267 112.975 12.7877L104.175 18.6434V6.89809C104.175 6.45408 104.027 6.0824 103.726 5.77676C103.425 5.47174 103.069 5.31641 102.647 5.31641C102.225 5.31641 101.852 5.47174 101.551 5.77676C101.249 6.08178 101.102 6.45408 101.102 6.89809V27.8222C101.102 28.2548 101.249 28.6271 101.551 28.9378C101.852 29.2485 102.213 29.4038 102.647 29.4038C103.08 29.4038 103.43 29.2485 103.726 28.9378C104.027 28.6271 104.175 28.2548 104.175 27.8222V22.3885L105.972 21.1841L112.772 28.9932C113.046 29.2649 113.391 29.3982 113.802 29.3982C114.016 29.3982 114.218 29.3592 114.405 29.2762C114.591 29.1982 114.756 29.0818 114.892 28.9378C115.029 28.7938 115.139 28.6271 115.221 28.4328C115.303 28.2441 115.347 28.0385 115.347 27.8335C115.347 27.4228 115.205 27.0562 114.919 26.7348L108.59 19.4478L114.754 15.3517C115.149 15.0801 115.34 14.6637 115.34 14.1027V14.1141L115.341 14.1134Z" fill="white"/>
<path d="M89.2934 17.2387C89.7644 16.7613 90.3128 16.384 90.943 16.1117C91.5731 15.8343 92.2416 15.6953 92.9592 15.6953C93.6057 15.6953 94.2032 15.8067 94.7566 16.028C95.3044 16.25 95.8308 16.5777 96.3288 17.0047C96.6244 17.2431 96.959 17.3651 97.3313 17.3651C97.7753 17.3651 98.1369 17.2154 98.4275 16.9154C98.718 16.6154 98.8602 16.2381 98.8602 15.7884C98.8602 15.3388 98.6847 14.9224 98.3287 14.6011C96.8162 13.2357 95.0251 12.5527 92.9592 12.5527C90.6851 12.5527 88.7406 13.3741 87.1293 15.0224C85.5181 16.6651 84.7188 18.6524 84.7188 20.9831C84.7188 23.3138 85.5244 25.2955 87.1293 26.9438C88.7406 28.5865 90.6801 29.4135 92.9592 29.4135C95.0195 29.4135 96.8112 28.7311 98.3287 27.3652C98.652 27.0325 98.8168 26.6495 98.8168 26.2055C98.8168 25.7615 98.674 25.3785 98.3841 25.0842C98.0935 24.7898 97.7269 24.6402 97.2885 24.6402C96.9162 24.6515 96.5924 24.7622 96.3188 24.9728C95.8257 25.4055 95.3107 25.7275 94.7572 25.9439C94.2095 26.1602 93.612 26.2659 92.9598 26.2659C92.2423 26.2659 91.5737 26.1269 90.9436 25.8495C90.3134 25.5722 89.7657 25.1948 89.294 24.7232C88.8229 24.2515 88.45 23.6855 88.1815 23.0472C87.9129 22.4032 87.7758 21.7152 87.7758 20.9825C87.7758 20.2498 87.9129 19.5618 88.1815 18.9178C88.45 18.2738 88.8223 17.7191 89.294 17.2418V17.2361L89.2934 17.2387Z" fill="white"/>
</g>
<defs>
<clipPath id="clip0_4050_3549">
<rect width="146.812" height="33.7857" fill="white" transform="translate(0.3125 0.3125)"/>
</clipPath>
</defs>
</svg>
