<svg width="40" height="26" viewBox="0 0 40 26" fill="none" xmlns="http://www.w3.org/2000/svg">
<path d="M37.0625 0.1875H2.9375C2.24131 0.1875 1.57363 0.464062 1.08134 0.956345C0.589062 1.44863 0.3125 2.11631 0.3125 2.8125V23.8125C0.3125 24.1606 0.450781 24.4944 0.696922 24.7406C0.943064 24.9867 1.2769 25.125 1.625 25.125C1.9731 25.125 2.30694 24.9867 2.55308 24.7406C2.79922 24.4944 2.9375 24.1606 2.9375 23.8125V21.1875H5.5625V23.8125C5.5625 24.1606 5.70078 24.4944 5.94692 24.7406C6.19306 24.9867 6.5269 25.125 6.875 25.125C7.2231 25.125 7.55694 24.9867 7.80308 24.7406C8.04922 24.4944 8.1875 24.1606 8.1875 23.8125V21.1875H10.8125V23.8125C10.8125 24.1606 10.9508 24.4944 11.1969 24.7406C11.4431 24.9867 11.7769 25.125 12.125 25.125C12.4731 25.125 12.8069 24.9867 13.0531 24.7406C13.2992 24.4944 13.4375 24.1606 13.4375 23.8125V21.1875H16.0625V23.8125C16.0625 24.1606 16.2008 24.4944 16.4469 24.7406C16.6931 24.9867 17.0269 25.125 17.375 25.125C17.7231 25.125 18.0569 24.9867 18.3031 24.7406C18.5492 24.4944 18.6875 24.1606 18.6875 23.8125V21.1875H21.3125V23.8125C21.3125 24.1606 21.4508 24.4944 21.6969 24.7406C21.9431 24.9867 22.2769 25.125 22.625 25.125C22.9731 25.125 23.3069 24.9867 23.5531 24.7406C23.7992 24.4944 23.9375 24.1606 23.9375 23.8125V21.1875H26.5625V23.8125C26.5625 24.1606 26.7008 24.4944 26.9469 24.7406C27.1931 24.9867 27.5269 25.125 27.875 25.125C28.2231 25.125 28.5569 24.9867 28.8031 24.7406C29.0492 24.4944 29.1875 24.1606 29.1875 23.8125V21.1875H31.8125V23.8125C31.8125 24.1606 31.9508 24.4944 32.1969 24.7406C32.4431 24.9867 32.7769 25.125 33.125 25.125C33.4731 25.125 33.8069 24.9867 34.0531 24.7406C34.2992 24.4944 34.4375 24.1606 34.4375 23.8125V21.1875H37.0625V23.8125C37.0625 24.1606 37.2008 24.4944 37.4469 24.7406C37.6931 24.9867 38.0269 25.125 38.375 25.125C38.7231 25.125 39.0569 24.9867 39.3031 24.7406C39.5492 24.4944 39.6875 24.1606 39.6875 23.8125V2.8125C39.6875 2.11631 39.4109 1.44863 38.9187 0.956345C38.4264 0.464062 37.7587 0.1875 37.0625 0.1875ZM2.9375 2.8125H37.0625V18.5625H2.9375V2.8125ZM17.375 15.9375C17.7231 15.9375 18.0569 15.7992 18.3031 15.5531C18.5492 15.3069 18.6875 14.9731 18.6875 14.625V6.75C18.6875 6.4019 18.5492 6.06806 18.3031 5.82192C18.0569 5.57578 17.7231 5.4375 17.375 5.4375H6.875C6.5269 5.4375 6.19306 5.57578 5.94692 5.82192C5.70078 6.06806 5.5625 6.4019 5.5625 6.75V14.625C5.5625 14.9731 5.70078 15.3069 5.94692 15.5531C6.19306 15.7992 6.5269 15.9375 6.875 15.9375H17.375ZM8.1875 8.0625H16.0625V13.3125H8.1875V8.0625ZM22.625 15.9375H33.125C33.4731 15.9375 33.8069 15.7992 34.0531 15.5531C34.2992 15.3069 34.4375 14.9731 34.4375 14.625V6.75C34.4375 6.4019 34.2992 6.06806 34.0531 5.82192C33.8069 5.57578 33.4731 5.4375 33.125 5.4375H22.625C22.2769 5.4375 21.9431 5.57578 21.6969 5.82192C21.4508 6.06806 21.3125 6.4019 21.3125 6.75V14.625C21.3125 14.9731 21.4508 15.3069 21.6969 15.5531C21.9431 15.7992 22.2769 15.9375 22.625 15.9375ZM23.9375 8.0625H31.8125V13.3125H23.9375V8.0625Z" fill="#FFBD22"/>
</svg>
