<svg width="42" height="42" viewBox="0 0 42 42" fill="none" xmlns="http://www.w3.org/2000/svg">
<path d="M32.4858 23.0352C27.3456 23.0352 23.1641 27.2173 23.1641 32.3569C23.1641 37.4971 27.3463 41.6786 32.4858 41.6786C37.626 41.6786 41.8082 37.4971 41.8082 32.3569C41.8075 27.2167 37.6253 23.0352 32.4858 23.0352ZM32.4858 40.3061C28.1025 40.3061 24.5366 36.7402 24.5366 32.3569C24.5366 27.9736 28.1025 24.4077 32.4858 24.4077C36.8691 24.4077 40.4357 27.9736 40.4357 32.3569C40.435 36.7402 36.8691 40.3061 32.4858 40.3061Z" fill="url(#paint0_linear_4050_1662)"/>
<path d="M41.8173 23.6289H38.6562C39.2286 24.0338 39.7577 24.4943 40.2402 25.0015H41.8173V23.6289Z" fill="url(#paint1_linear_4050_1662)"/>
<path d="M21.7978 32.356C21.7978 29.8888 22.6453 27.6214 24.0542 25.8096H16.8284V16.6917H25.9463V23.9175C27.7581 22.5093 30.0256 21.6617 32.4921 21.6617C34.1618 21.6617 35.7375 22.0577 37.1464 22.7426V21.9369H41.8138V20.5644H37.1464V18.872H41.8138V17.4994H37.1464V15.8071H41.8138V14.4345H37.1464V12.7422H41.8138V11.3696H37.1464V9.67723H41.8138V8.30467H37.1464V5.4916H34.3333V0.824219H32.9608V5.4916H31.2684V0.824219H29.8959V5.4916H28.2035V0.824219H26.8309V5.4916H25.1386V0.824219H23.766V5.4916H22.0736V0.824219H20.7011V5.4916H19.0087V0.824219H17.6362V5.4916H15.9438V0.824219H14.5712V5.4916H12.8789V0.824219H11.5063V5.4916H9.81394V0.824219H8.44139V5.4916H5.62832V8.30467H0.960938V9.67723H5.62832V11.3696H0.960938V12.7422H5.62832V14.4345H0.960938V15.8071H5.62832V17.4994H0.960938V18.872H5.62832V20.5644H0.960938V21.9369H5.62832V23.6293H0.960938V25.0018H5.62832V26.6942H0.960938V28.0668H5.62832V29.7591H0.960938V31.1317H5.62832V32.8241H0.960938V34.1966H5.62832V37.0097H8.44139V41.6771H9.81394V37.0097H11.5063V41.6771H12.8789V37.0097H14.5712V41.6771H15.9438V37.0097H17.6362V41.6771H19.0087V37.0097H20.7011V41.6771H22.0736V37.0097H22.8786C22.1937 35.6007 21.7978 34.0257 21.7978 32.356Z" fill="url(#paint2_linear_4050_1662)"/>
<path d="M35.5442 33.5763C35.6759 33.2462 35.7494 32.8886 35.7679 32.5167C36.0795 32.481 36.4082 32.4378 36.7802 32.3787C38.2282 32.1495 39.189 31.9532 40.1011 31.4228C39.9041 29.8148 39.2082 28.3633 38.1733 27.22C37.4596 28.4738 36.6923 29.1217 35.4405 30.0577C35.3074 30.1573 35.1866 30.243 35.0658 30.3295C34.8407 30.044 34.5772 29.7935 34.2711 29.5952C34.3953 29.309 34.5209 29.0036 34.6547 28.6543C35.1818 27.2831 35.4893 26.3511 35.4845 25.2943C34.5648 24.9031 33.5526 24.6855 32.4923 24.6855C31.9385 24.6855 31.3997 24.7473 30.8788 24.8592C31.6118 26.1089 31.7895 27.0978 31.9755 28.6543C31.9947 28.8183 32.0091 28.9659 32.0229 29.1127C31.6557 29.1656 31.3112 29.2788 30.9934 29.4428C30.8061 29.1896 30.605 28.9268 30.3669 28.6323C29.4459 27.4952 28.7967 26.7615 27.8839 26.2379C26.6369 27.1795 25.683 28.4868 25.1923 30.0056C26.6411 29.9953 27.5861 30.3364 29.0266 30.954C29.1755 31.0178 29.3073 31.0782 29.4397 31.1386C29.3073 31.4687 29.2338 31.8256 29.2153 32.1982C28.9037 32.2339 28.575 32.2779 28.2037 32.3362C26.755 32.5661 25.7942 32.7617 24.8828 33.2922C25.0791 34.9001 25.7757 36.3516 26.8106 37.495C27.525 36.2411 28.2922 35.5933 29.544 34.6572C29.6765 34.5577 29.7973 34.4719 29.9187 34.3854C30.1438 34.6702 30.4074 34.9221 30.7134 35.1197C30.5892 35.4059 30.4636 35.7113 30.3298 36.0606C29.8027 37.4318 29.4953 38.3645 29.5001 39.4213C30.4197 39.8125 31.4313 40.0294 32.4923 40.0294C33.0461 40.0294 33.5848 39.9676 34.1057 39.8551C33.3728 38.6054 33.195 37.6164 33.0097 36.0606C32.9898 35.8966 32.9761 35.7491 32.9624 35.6022C33.3295 35.5494 33.6741 35.4361 33.9918 35.2721C34.1792 35.5253 34.3802 35.7882 34.6184 36.0819C35.5394 37.2198 36.1886 37.9527 37.1006 38.477C38.3476 37.5354 39.3022 36.2281 39.7922 34.7093C38.3442 34.7196 37.3985 34.3792 35.958 33.7616C35.8077 33.6964 35.6759 33.636 35.5442 33.5763ZM32.4916 34.2763C31.4327 34.2763 30.5714 33.415 30.5714 32.3568C30.5714 31.2979 31.4327 30.4366 32.4916 30.4366C33.5505 30.4366 34.4118 31.2979 34.4118 32.3568C34.4111 33.4157 33.5505 34.2763 32.4916 34.2763Z" fill="url(#paint3_linear_4050_1662)"/>
<defs>
<linearGradient id="paint0_linear_4050_1662" x1="-417.386" y1="43.6646" x2="-416.495" y2="6.96243" gradientUnits="userSpaceOnUse">
<stop stop-color="#E8DF38"/>
<stop offset="1" stop-color="#41D882"/>
</linearGradient>
<linearGradient id="paint1_linear_4050_1662" x1="-36.0364" y1="25.1477" x2="-36.0079" y2="22.4443" gradientUnits="userSpaceOnUse">
<stop stop-color="#E8DF38"/>
<stop offset="1" stop-color="#41D882"/>
</linearGradient>
<linearGradient id="paint2_linear_4050_1662" x1="-964.367" y1="46.0288" x2="-962.415" y2="-34.3954" gradientUnits="userSpaceOnUse">
<stop stop-color="#E8DF38"/>
<stop offset="1" stop-color="#41D882"/>
</linearGradient>
<linearGradient id="paint3_linear_4050_1662" x1="-334.715" y1="41.6638" x2="-333.976" y2="11.4578" gradientUnits="userSpaceOnUse">
<stop stop-color="#E8DF38"/>
<stop offset="1" stop-color="#41D882"/>
</linearGradient>
</defs>
</svg>
