<svg width="36" height="48" viewBox="0 0 36 48" fill="none" xmlns="http://www.w3.org/2000/svg">
<path d="M7.42187 17.9113C7.42187 20.6245 9.62049 22.8223 12.3328 22.8223C15.0452 22.8223 17.2438 20.6236 17.2438 17.9113C17.2438 15.1989 15.0452 13.0003 12.3328 13.0003C9.62049 13.0003 7.42187 15.1989 7.42187 17.9113ZM14.6029 18.9787C14.9355 19.3113 14.9355 19.8488 14.6029 20.1814C14.2704 20.5139 13.7328 20.5139 13.4003 20.1814C13.0677 19.8488 13.0677 19.3113 13.4003 18.9787C13.7328 18.6462 14.2704 18.6462 14.6029 18.9787ZM11.2654 18.9787C11.598 19.3113 11.598 19.8488 11.2654 20.1814C10.9329 20.5139 10.3953 20.5139 10.0628 20.1814C9.73021 19.8488 9.73021 19.3113 10.0628 18.9787C10.3953 18.6462 10.9329 18.6462 11.2654 18.9787ZM14.6029 15.6412C14.9355 15.9738 14.9355 16.5113 14.6029 16.8439C14.2704 17.1764 13.7328 17.1764 13.4003 16.8439C13.0677 16.5113 13.0677 15.9738 13.4003 15.6412C13.7328 15.3087 14.2704 15.3087 14.6029 15.6412ZM11.2654 15.6412C11.598 15.9738 11.598 16.5113 11.2654 16.8439C10.9329 17.1764 10.3953 17.1764 10.0628 16.8439C9.73021 16.5113 9.73021 15.9738 10.0628 15.6412C10.3953 15.3087 10.9329 15.3087 11.2654 15.6412Z" fill="url(#paint0_linear_4050_1694)"/>
<path d="M26.8822 29.4446C27.2148 29.7763 27.7532 29.7763 28.0849 29.4446C28.4174 29.112 28.4174 28.5736 28.0849 28.2419C27.7532 27.9094 27.2148 27.9094 26.8822 28.2419C26.5497 28.5728 26.5497 29.112 26.8822 29.4446Z" fill="url(#paint1_linear_4050_1694)"/>
<path d="M34.7538 0.597656H1.8271C1.35675 0.597656 0.976562 0.978695 0.976562 1.44819V47.053C0.976562 47.5225 1.35675 47.9035 1.8271 47.9035H34.7538C35.2241 47.9035 35.6043 47.5225 35.6043 47.053V1.44819C35.6043 0.979546 35.2241 0.597656 34.7538 0.597656ZM2.67849 1.44819C3.14798 1.44819 3.52902 1.82923 3.52902 2.29872C3.52902 2.76907 3.14798 3.14926 2.67849 3.14926C2.20814 3.14926 1.82795 2.76907 1.82795 2.29872C1.82795 1.83008 2.20814 1.44819 2.67849 1.44819ZM2.67849 47.0538C2.20814 47.0538 1.82795 46.6728 1.82795 46.2033C1.82795 45.7329 2.20814 45.3527 2.67849 45.3527C3.14798 45.3527 3.52902 45.7329 3.52902 46.2033C3.52902 46.6719 3.14713 47.0538 2.67849 47.0538ZM18.2909 33.7778C16.0404 33.7778 13.9089 33.2871 11.9791 32.4238L10.2559 34.915C10.096 35.2331 9.89696 35.5129 9.66562 35.7468C9.04813 36.3634 8.22992 36.702 7.35982 36.702C6.35534 36.702 5.42059 36.2469 4.79459 35.4525C4.23835 34.7466 4.02233 33.7949 4.20009 32.8423C4.39742 31.7842 4.96556 31.0136 5.88839 30.5492L7.52991 29.4129C4.62364 26.5985 2.81032 22.6622 2.81032 18.2981C2.81032 9.7477 9.74046 2.81754 18.2909 2.81754C26.8404 2.81754 33.7714 9.7477 33.7714 18.2981C33.7714 26.8468 26.8404 33.7778 18.2909 33.7778ZM33.9033 47.0538C33.4338 47.0538 33.0527 46.6728 33.0527 46.2033C33.0527 45.7329 33.4338 45.3527 33.9033 45.3527C34.3736 45.3527 34.7538 45.7329 34.7538 46.2033C34.7538 46.6719 34.3736 47.0538 33.9033 47.0538ZM33.9033 3.14926C33.4338 3.14926 33.0527 2.76907 33.0527 2.29872C33.0527 1.82923 33.4338 1.44819 33.9033 1.44819C34.3736 1.44819 34.7538 1.82923 34.7538 2.29872C34.7538 2.76907 34.3736 3.14926 33.9033 3.14926Z" fill="url(#paint2_linear_4050_1694)"/>
<path d="M19.5699 21.5731L25.3187 29.8811C25.6011 30.4679 26.0774 30.9868 27.0342 31.1654C27.7036 31.2904 28.4265 31.1611 28.9624 30.7393C30.1165 29.8292 30.1897 28.1485 29.1818 27.1398C28.9845 26.9425 28.7582 26.797 28.5201 26.6822L20.2112 20.9326C19.7894 20.6417 19.279 21.152 19.5699 21.5731ZM28.6613 27.6595C29.3153 28.3127 29.3153 29.3716 28.6613 30.0248C28.0081 30.6772 26.9491 30.6772 26.2959 30.0248C25.6427 29.3708 25.6427 28.3118 26.2959 27.6595C26.9491 27.0054 28.0089 27.0054 28.6613 27.6595Z" fill="url(#paint3_linear_4050_1694)"/>
<defs>
<linearGradient id="paint0_linear_4050_1694" x1="18.2901" y1="254.909" x2="-1.04571" y2="254.44" gradientUnits="userSpaceOnUse">
<stop stop-color="#E8DF38"/>
<stop offset="1" stop-color="#41D882"/>
</linearGradient>
<linearGradient id="paint1_linear_4050_1694" x1="28.5156" y1="69.8836" x2="25.1659" y2="69.8022" gradientUnits="userSpaceOnUse">
<stop stop-color="#E8DF38"/>
<stop offset="1" stop-color="#41D882"/>
</linearGradient>
<linearGradient id="paint2_linear_4050_1694" x1="-817.257" y1="52.9426" x2="-814.17" y2="-40.1377" gradientUnits="userSpaceOnUse">
<stop stop-color="#E8DF38"/>
<stop offset="1" stop-color="#41D882"/>
</linearGradient>
<linearGradient id="paint3_linear_4050_1694" x1="30.9946" y1="276.103" x2="10.5166" y2="275.604" gradientUnits="userSpaceOnUse">
<stop stop-color="#E8DF38"/>
<stop offset="1" stop-color="#41D882"/>
</linearGradient>
</defs>
</svg>
