<svg width="61" height="28" viewBox="0 0 61 28" fill="none" xmlns="http://www.w3.org/2000/svg">
<path d="M60.8557 6.66391V2.33993C60.8557 1.47199 60.1513 0.767578 59.2833 0.767578H1.69736C0.828629 0.767578 0.125 1.47199 0.125 2.33993V6.66391H2.48353V8.23627H0.125V26.1619C0.125 26.985 0.759447 27.6525 1.56449 27.7201V24.9174H3.13685V27.7343H4.87509V24.9174H6.44744V27.7343H8.18568V24.9174H9.75804V27.7343H11.4963V24.9174H13.0686V27.7343H14.8069V24.9174H16.3792V27.7343H18.1175V24.9174H19.6898V27.7343H21.4281V24.9174H23.0004V27.7343H24.7387V24.9174H26.311V27.7343H28.0493V24.9174H29.6216V27.7343H31.3599V24.9174H32.9322V27.7343H34.6115V24.9174H36.1838V27.7343H37.9803V24.9174H39.5526V27.7343H41.2908V24.9174H42.8632V27.7343H44.6014V24.9174H46.1738V27.7343H47.912V24.9174H49.4844V27.7343H51.2226V24.9174H52.795V27.7343H54.5332V24.9174H56.1056V27.7343H57.8438V24.9174H59.4162V27.7201C60.2212 27.6517 60.8565 26.9842 60.8565 26.1619V8.23627H58.4979V6.66391H60.8557ZM14.1253 17.657H7.35312V7.6993H14.1253V17.657ZM27.2929 17.657H20.5208V7.6993H27.2929V17.657ZM40.4606 17.657H33.6885V7.6993H40.4606V17.657ZM53.6283 17.657H46.8562V7.6993H53.6283V17.657Z" fill="url(#paint0_linear_4050_1677)"/>
<defs>
<linearGradient id="paint0_linear_4050_1677" x1="-1434.92" y1="30.6068" x2="-1434.35" y2="-22.5058" gradientUnits="userSpaceOnUse">
<stop stop-color="#E8DF38"/>
<stop offset="1" stop-color="#41D882"/>
</linearGradient>
</defs>
</svg>
