<svg width="68" height="68" viewBox="0 0 68 68" fill="none" xmlns="http://www.w3.org/2000/svg">
<g clip-path="url(#clip0_3301_12388)">
<path opacity="0.2" d="M50.5215 41.398V62.4345C50.5215 62.9658 50.0817 63.4754 49.299 63.8512C48.5162 64.2269 47.4546 64.438 46.3476 64.438H21.3042C20.1972 64.438 19.1355 64.2269 18.3528 63.8512C17.57 63.4754 17.1302 62.9658 17.1302 62.4345V41.398C17.1302 40.8667 17.57 40.3571 18.3528 39.9813C19.1355 39.6056 20.1972 39.3945 21.3042 39.3945H46.3476C47.4546 39.3945 48.5162 39.6056 49.299 39.9813C50.0817 40.3571 50.5215 40.8667 50.5215 41.398Z" fill="url(#paint0_linear_3301_12388)"/>
<path d="M39.7766 34.8184C39.9639 35.1212 40.0706 35.4669 40.0866 35.8226C40.1026 36.1783 40.0273 36.5322 39.8679 36.8506L35.694 45.1984C35.4463 45.6938 35.012 46.0705 34.4865 46.2456C33.9611 46.4208 33.3876 46.38 32.8922 46.1323C32.3969 45.8846 32.0202 45.4503 31.845 44.9249C31.6699 44.3994 31.7106 43.826 31.9583 43.3306L34.6244 38.0036H29.6522C29.2963 38.0039 28.9463 37.9131 28.6353 37.7399C28.3244 37.5668 28.0629 37.3169 27.8757 37.0142C27.6885 36.7115 27.5819 36.3659 27.5659 36.0104C27.5499 35.6548 27.6252 35.3011 27.7844 34.9828L31.9583 26.635C32.206 26.1396 32.6404 25.7629 33.1658 25.5877C33.6912 25.4126 34.2647 25.4534 34.7601 25.701C35.2554 25.9487 35.6321 26.3831 35.8073 26.9085C35.9824 27.4339 35.9417 28.0074 35.694 28.5028L33.0279 33.8297H38.0001C38.3559 33.8294 38.7059 33.9201 39.0169 34.0931C39.3278 34.2662 39.5893 34.5158 39.7766 34.8184ZM25.4783 4.61238H42.174C42.7275 4.61238 43.2583 4.39251 43.6497 4.00113C44.041 3.60975 44.2609 3.07892 44.2609 2.52543C44.2609 1.97194 44.041 1.44111 43.6497 1.04973C43.2583 0.658351 42.7275 0.438477 42.174 0.438477L25.4783 0.438477C24.9248 0.438477 24.394 0.658351 24.0026 1.04973C23.6113 1.44111 23.3914 1.97194 23.3914 2.52543C23.3914 3.07892 23.6113 3.60975 24.0026 4.00113C24.394 4.39251 24.9248 4.61238 25.4783 4.61238ZM52.6087 15.0471V58.8732C52.6087 60.5336 51.9491 62.1261 50.775 63.3003C49.6008 64.4744 48.0084 65.134 46.3479 65.134H21.3044C19.644 65.134 18.0515 64.4744 16.8773 63.3003C15.7032 62.1261 15.0436 60.5336 15.0436 58.8732V15.0471C15.0436 13.3867 15.7032 11.7942 16.8773 10.6201C18.0515 9.44591 19.644 8.78629 21.3044 8.78629H46.3479C48.0084 8.78629 49.6008 9.44591 50.775 10.6201C51.9491 11.7942 52.6087 13.3867 52.6087 15.0471ZM48.4348 15.0471C48.4348 14.4937 48.215 13.9628 47.8236 13.5714C47.4322 13.1801 46.9014 12.9602 46.3479 12.9602H21.3044C20.7509 12.9602 20.2201 13.1801 19.8287 13.5714C19.4374 13.9628 19.2175 14.4937 19.2175 15.0471V58.8732C19.2175 59.4267 19.4374 59.9575 19.8287 60.3489C20.2201 60.7402 20.7509 60.9601 21.3044 60.9601H46.3479C46.9014 60.9601 47.4322 60.7402 47.8236 60.3489C48.215 59.9575 48.4348 59.4267 48.4348 58.8732V15.0471Z" fill="url(#paint1_linear_3301_12388)"/>
</g>
<defs>
<linearGradient id="paint0_linear_3301_12388" x1="-771.885" y1="67.1057" x2="-770.987" y2="17.7916" gradientUnits="userSpaceOnUse">
<stop stop-color="#E8DF38"/>
<stop offset="1" stop-color="#41D882"/>
</linearGradient>
<linearGradient id="paint1_linear_3301_12388" x1="-872.598" y1="72.0255" x2="-867.28" y2="-55.1889" gradientUnits="userSpaceOnUse">
<stop stop-color="#E8DF38"/>
<stop offset="1" stop-color="#41D882"/>
</linearGradient>
<clipPath id="clip0_3301_12388">
<rect width="66.7825" height="66.7825" fill="white" transform="translate(0.435181 0.438477)"/>
</clipPath>
</defs>
</svg>
