<svg width="67" height="67" viewBox="0 0 67 67" fill="none" xmlns="http://www.w3.org/2000/svg">
<path opacity="0.2" d="M31.764 26.2236V53.8869H9.07645C8.66829 53.8872 8.26922 53.7664 7.92974 53.5398C7.59027 53.3132 7.32566 52.991 7.16942 52.6139C7.01318 52.2368 6.97233 51.8219 7.05205 51.4216C7.13177 51.0213 7.32846 50.6537 7.61723 50.3652L31.764 26.2236Z" fill="url(#paint0_linear_3301_12409)"/>
<path d="M51.9043 6.76606C51.1506 6.45339 50.3212 6.37125 49.5209 6.53003C48.7205 6.68882 47.9852 7.08139 47.408 7.65809L6.15804 48.9081C5.58138 49.4851 5.18876 50.2202 5.02984 51.0204C4.87091 51.8205 4.95282 52.6498 5.26519 53.4035C5.57756 54.1571 6.10638 54.8011 6.78478 55.2542C7.46317 55.7073 8.26068 55.9491 9.07647 55.9489H50.3265C51.4205 55.9489 52.4697 55.5143 53.2433 54.7408C54.0169 53.9672 54.4515 52.918 54.4515 51.8239V10.5739C54.4529 9.75808 54.2113 8.96027 53.7577 8.28213C53.3041 7.60399 52.6589 7.07623 51.9043 6.76606ZM29.7015 31.1989V51.8239H9.07647L29.7015 31.1989ZM50.3265 51.8239H33.8265V27.0739L50.3265 10.5739V51.8239Z" fill="url(#paint1_linear_3301_12409)"/>
<defs>
<linearGradient id="paint0_linear_3301_12409" x1="-577.854" y1="56.8337" x2="-576.377" y2="2.38282" gradientUnits="userSpaceOnUse">
<stop stop-color="#E8DF38"/>
<stop offset="1" stop-color="#41D882"/>
</linearGradient>
<linearGradient id="paint1_linear_3301_12409" x1="-1164.72" y1="61.2216" x2="-1162.36" y2="-36.2214" gradientUnits="userSpaceOnUse">
<stop stop-color="#E8DF38"/>
<stop offset="1" stop-color="#41D882"/>
</linearGradient>
</defs>
</svg>
