<svg width="67" height="67" viewBox="0 0 67 67" fill="none" xmlns="http://www.w3.org/2000/svg">
<path opacity="0.2" d="M54.4514 37.3457C54.4514 42.8158 52.2784 48.0618 48.4105 51.9298C44.5426 55.7977 39.2965 57.9707 33.8264 57.9707C28.3563 57.9707 23.1103 55.7977 19.2423 51.9298C15.3744 48.0618 13.2014 42.8158 13.2014 37.3457C13.2014 29.4644 16.9191 22.3255 21.1936 16.7207L29.7014 24.9707L36.4742 6.4082C42.0403 11.0282 54.4514 22.9469 54.4514 37.3457Z" fill="url(#paint0_linear_3301_12402)"/>
<path d="M37.7916 4.82224C37.5373 4.61085 37.236 4.46369 36.9129 4.39317C36.5899 4.32264 36.2546 4.33081 35.9354 4.417C35.6162 4.50319 35.3224 4.66486 35.0787 4.88839C34.8351 5.11192 34.6487 5.39075 34.5354 5.70138L28.8635 21.2758L22.6348 15.2404C22.4256 15.0376 22.1758 14.8813 21.9018 14.782C21.6279 14.6826 21.336 14.6425 21.0454 14.6642C20.7548 14.6859 20.4721 14.7689 20.2159 14.9077C19.9597 15.0466 19.7358 15.2382 19.5591 15.4699C13.9749 22.7866 11.1389 30.1472 11.1389 37.3453C11.1389 43.3624 13.5292 49.133 17.7839 53.3878C22.0387 57.6425 27.8093 60.0328 33.8264 60.0328C39.8435 60.0328 45.6142 57.6425 49.8689 53.3878C54.1236 49.133 56.5139 43.3624 56.5139 37.3453C56.5139 22.0183 43.4196 9.50154 37.7916 4.82224ZM33.8264 55.9078C28.905 55.9023 24.1867 53.9449 20.7068 50.4649C17.2268 46.985 15.2694 42.2667 15.2639 37.3453C15.2639 31.6734 17.3496 25.7979 21.4669 19.8553L28.2654 26.4501C28.5123 26.6899 28.8153 26.8641 29.1467 26.9568C29.4782 27.0495 29.8276 27.0578 30.1631 26.9809C30.4985 26.904 30.8094 26.7444 31.0674 26.5166C31.3254 26.2888 31.5223 26.0001 31.6402 25.6767L37.3816 9.93208C43.1618 15.194 52.3889 25.4627 52.3889 37.3453C52.3835 42.2667 50.426 46.985 46.9461 50.4649C43.4661 53.9449 38.7478 55.9023 33.8264 55.9078Z" fill="url(#paint1_linear_3301_12402)"/>
<defs>
<linearGradient id="paint0_linear_3301_12402" x1="-961.511" y1="63.4633" x2="-958.433" y2="-38.0107" gradientUnits="userSpaceOnUse">
<stop stop-color="#E8DF38"/>
<stop offset="1" stop-color="#41D882"/>
</linearGradient>
<linearGradient id="paint1_linear_3301_12402" x1="-1061.05" y1="65.9647" x2="-1057.78" y2="-43.63" gradientUnits="userSpaceOnUse">
<stop stop-color="#E8DF38"/>
<stop offset="1" stop-color="#41D882"/>
</linearGradient>
</defs>
</svg>
