<svg width="14" height="13" viewBox="0 0 14 13" fill="none" xmlns="http://www.w3.org/2000/svg">
<path d="M11.5828 4.74107L11.4389 5.07105C11.3337 5.31263 10.9996 5.31263 10.8943 5.07105L10.7505 4.74107C10.4941 4.1527 10.0323 3.68425 9.45612 3.42797L9.01296 3.23089C8.77338 3.12432 8.77338 2.77565 9.01296 2.66908L9.43133 2.48301C10.0224 2.22014 10.4924 1.73435 10.7444 1.12599L10.8921 0.769401C10.995 0.520877 11.3382 0.520877 11.4411 0.769401L11.5888 1.12599C11.8408 1.73435 12.3109 2.22014 12.9019 2.48301L13.3202 2.66908C13.5599 2.77565 13.5599 3.12432 13.3202 3.23089L12.8771 3.42797C12.3009 3.68425 11.8392 4.1527 11.5828 4.74107ZM0.666626 2.33301C0.666626 2.01084 0.927796 1.74968 1.24996 1.74968H7.66663V2.91634H1.83329V11.083H11.1666V6.41634H12.3333V11.6663C12.3333 11.9885 12.0721 12.2497 11.75 12.2497H1.24996C0.927796 12.2497 0.666626 11.9885 0.666626 11.6663V2.33301ZM3.58329 7.58301H4.74996V9.91634H3.58329V7.58301ZM5.91663 4.08301H7.08329V9.91634H5.91663V4.08301ZM8.24996 5.83301H9.41663V9.91634H8.24996V5.83301Z" fill="white" fill-opacity="0.3"/>
</svg>
