<svg width="67" height="67" viewBox="0 0 67 67" fill="none" xmlns="http://www.w3.org/2000/svg">
<path opacity="0.2" d="M60.6389 33.3027V49.8027H44.1389L60.6389 33.3027Z" fill="url(#paint0_linear_3301_12416)"/>
<path d="M61.4279 31.3977C61.051 31.2413 60.6363 31.2003 60.2362 31.2797C59.836 31.3591 59.4683 31.5553 59.1797 31.8437L52.389 38.637L37.3482 23.5937C37.1566 23.4019 36.9292 23.2498 36.6788 23.146C36.4284 23.0422 36.16 22.9888 35.889 22.9888C35.6179 22.9888 35.3495 23.0422 35.0991 23.146C34.8488 23.2498 34.6213 23.4019 34.4297 23.5937L25.5765 32.4495L8.47318 15.3437C8.08617 14.9567 7.56128 14.7393 7.01396 14.7393C6.46665 14.7393 5.94175 14.9567 5.55475 15.3437C5.16774 15.7307 4.95032 16.2556 4.95032 16.8029C4.95032 17.3502 5.16774 17.8751 5.55475 18.2621L24.1172 36.8246C24.3088 37.0164 24.5363 37.1685 24.7866 37.2723C25.037 37.3761 25.3054 37.4295 25.5765 37.4295C25.8475 37.4295 26.1159 37.3761 26.3663 37.2723C26.6167 37.1685 26.8441 37.0164 27.0357 36.8246L35.889 27.9688L49.4731 41.5529L42.6797 48.3437C42.391 48.6321 42.1943 48.9998 42.1146 49.4001C42.0348 49.8004 42.0757 50.2153 42.2319 50.5924C42.3882 50.9695 42.6528 51.2917 42.9923 51.5183C43.3317 51.7449 43.7308 51.8657 44.139 51.8654H60.639C61.186 51.8654 61.7106 51.6481 62.0974 51.2613C62.4842 50.8745 62.7015 50.3499 62.7015 49.8029V33.3029C62.7014 32.895 62.5803 32.4962 62.3536 32.1571C62.1269 31.818 61.8048 31.5537 61.4279 31.3977ZM58.5765 47.7404H49.1173L58.5765 38.2813V47.7404Z" fill="url(#paint1_linear_3301_12416)"/>
<defs>
<linearGradient id="paint0_linear_3301_12416" x1="-345.746" y1="51.5604" x2="-344.958" y2="19.0779" gradientUnits="userSpaceOnUse">
<stop stop-color="#E8DF38"/>
<stop offset="1" stop-color="#41D882"/>
</linearGradient>
<linearGradient id="paint1_linear_3301_12416" x1="-1359.67" y1="55.8202" x2="-1358.53" y2="-17.2928" gradientUnits="userSpaceOnUse">
<stop stop-color="#E8DF38"/>
<stop offset="1" stop-color="#41D882"/>
</linearGradient>
</defs>
</svg>
