<svg width="67" height="67" viewBox="0 0 67 67" fill="none" xmlns="http://www.w3.org/2000/svg">
<path opacity="0.2" d="M56.3747 55.8671H11.2781C8.02456 55.8671 5.98268 52.4614 7.56307 49.7028L30.1114 10.5488C31.7356 7.71289 35.9173 7.71289 37.5415 10.5488L60.0898 49.7028C61.6702 52.4614 59.6283 55.8671 56.3747 55.8671Z" fill="url(#paint0_linear_3301_12395)"/>
<path d="M61.8764 48.6718L39.3307 9.51783C38.7673 8.55857 37.963 7.7632 36.9975 7.21056C36.032 6.65792 34.9388 6.36719 33.8264 6.36719C32.7139 6.36719 31.6208 6.65792 30.6553 7.21056C29.6898 7.7632 28.8855 8.55857 28.3221 9.51783L5.77637 48.6718C5.23429 49.5996 4.94861 50.6549 4.94861 51.7295C4.94861 52.804 5.23429 53.8593 5.77637 54.7871C6.33255 55.7522 7.13548 56.5519 8.10277 57.1042C9.07006 57.6564 10.1669 57.9414 11.2807 57.9299H56.3721C57.485 57.9405 58.5807 57.6551 59.547 57.1029C60.5133 56.5506 61.3155 55.7514 61.8712 54.7871C62.4141 53.8598 62.7007 52.8047 62.7016 51.7302C62.7025 50.6556 62.4177 49.6001 61.8764 48.6718ZM58.3005 52.722C58.104 53.0573 57.8218 53.3343 57.4829 53.5246C57.144 53.7149 56.7607 53.8116 56.3721 53.8049H11.2807C10.8921 53.8116 10.5087 53.7149 10.1698 53.5246C9.83096 53.3343 9.54878 53.0573 9.35223 52.722C9.1742 52.4206 9.08029 52.077 9.08029 51.7269C9.08029 51.3768 9.1742 51.0332 9.35223 50.7317L31.8979 11.5777C32.0985 11.2441 32.3819 10.968 32.7207 10.7763C33.0596 10.5846 33.4422 10.4838 33.8315 10.4838C34.2208 10.4838 34.6035 10.5846 34.9423 10.7763C35.2811 10.968 35.5646 11.2441 35.7651 11.5777L58.3108 50.7317C58.4873 51.0341 58.5794 51.3782 58.5776 51.7283C58.5758 52.0784 58.4801 52.4215 58.3005 52.722ZM31.7639 37.3049V26.9924C31.7639 26.4453 31.9812 25.9207 32.368 25.5339C32.7548 25.1472 33.2794 24.9299 33.8264 24.9299C34.3734 24.9299 34.898 25.1472 35.2848 25.5339C35.6716 25.9207 35.8889 26.4453 35.8889 26.9924V37.3049C35.8889 37.8519 35.6716 38.3765 35.2848 38.7633C34.898 39.1501 34.3734 39.3674 33.8264 39.3674C33.2794 39.3674 32.7548 39.1501 32.368 38.7633C31.9812 38.3765 31.7639 37.8519 31.7639 37.3049ZM36.9201 46.5861C36.9201 47.198 36.7387 47.7961 36.3987 48.3049C36.0588 48.8137 35.5756 49.2102 35.0103 49.4444C34.445 49.6785 33.8229 49.7398 33.2228 49.6204C32.6227 49.501 32.0714 49.2064 31.6388 48.7737C31.2061 48.341 30.9114 47.7898 30.7921 47.1897C30.6727 46.5895 30.734 45.9675 30.9681 45.4022C31.2023 44.8369 31.5988 44.3537 32.1076 44.0137C32.6163 43.6738 33.2145 43.4924 33.8264 43.4924C34.6469 43.4924 35.4338 43.8183 36.014 44.3985C36.5942 44.9787 36.9201 45.7656 36.9201 46.5861Z" fill="url(#paint1_linear_3301_12395)"/>
<defs>
<linearGradient id="paint0_linear_3301_12395" x1="-1259.93" y1="60.9211" x2="-1257.92" y2="-32.4931" gradientUnits="userSpaceOnUse">
<stop stop-color="#E8DF38"/>
<stop offset="1" stop-color="#41D882"/>
</linearGradient>
<linearGradient id="paint1_linear_3301_12395" x1="-1359.72" y1="63.4228" x2="-1357.52" y2="-38.0979" gradientUnits="userSpaceOnUse">
<stop stop-color="#E8DF38"/>
<stop offset="1" stop-color="#41D882"/>
</linearGradient>
</defs>
</svg>
