<svg width="1915" height="1208" viewBox="0 0 1915 1208" fill="none" xmlns="http://www.w3.org/2000/svg">
<g clip-path="url(#clip0_4492_1503)">
<rect width="1915" height="1208" fill="#0B131F"/>
<g opacity="0.75">
<g opacity="0.5" filter="url(#filter0_f_4492_1503)">
<circle cx="141.049" cy="1064.63" r="216.37" fill="#2BBA69" fill-opacity="0.34"/>
</g>
<g opacity="0.5" filter="url(#filter1_f_4492_1503)">
<circle cx="521.077" cy="439.426" r="216.37" fill="#2BBA69" fill-opacity="0.34"/>
</g>
<g opacity="0.5" filter="url(#filter2_f_4492_1503)">
<circle cx="1548.28" cy="23.1234" r="153.123" fill="#2BBA69"/>
</g>
<g opacity="0.5" clip-path="url(#clip1_4492_1503)">
<mask id="mask0_4492_1503" style="mask-type:alpha" maskUnits="userSpaceOnUse" x="-33" y="77" width="1766" height="1766">
<rect width="1765.28" height="1467.39" transform="translate(-32.4141 77.1836)" fill="url(#paint0_radial_4492_1503)"/>
</mask>
<g mask="url(#mask0_4492_1503)">
<g clip-path="url(#clip2_4492_1503)">
<mask id="path-6-inside-1_4492_1503" fill="white">
<path d="M-91.2617 77.1836H26.4238V194.869H-91.2617V77.1836Z"/>
</mask>
<path d="M26.4238 194.869V196.095H27.6497V194.869H26.4238ZM25.1979 77.1836V194.869H27.6497V77.1836H25.1979ZM26.4238 193.643H-91.2617V196.095H26.4238V193.643Z" fill="white" fill-opacity="0.25" mask="url(#path-6-inside-1_4492_1503)"/>
<mask id="path-8-inside-2_4492_1503" fill="white">
<path d="M26.4219 77.1836H144.107V194.869H26.4219V77.1836Z"/>
</mask>
<path d="M144.107 194.869V196.095H145.333V194.869H144.107ZM142.881 77.1836V194.869H145.333V77.1836H142.881ZM144.107 193.643H26.4219V196.095H144.107V193.643Z" fill="white" fill-opacity="0.25" mask="url(#path-8-inside-2_4492_1503)"/>
<mask id="path-10-inside-3_4492_1503" fill="white">
<path d="M144.109 77.1836H261.795V194.869H144.109V77.1836Z"/>
</mask>
<path d="M261.795 194.869V196.095H263.021V194.869H261.795ZM260.569 77.1836V194.869H263.021V77.1836H260.569ZM261.795 193.643H144.109V196.095H261.795V193.643Z" fill="white" fill-opacity="0.25" mask="url(#path-10-inside-3_4492_1503)"/>
<mask id="path-12-inside-4_4492_1503" fill="white">
<path d="M261.793 77.1836H379.478V194.869H261.793V77.1836Z"/>
</mask>
<path d="M379.478 194.869V196.095H380.704V194.869H379.478ZM378.253 77.1836V194.869H380.704V77.1836H378.253ZM379.478 193.643H261.793V196.095H379.478V193.643Z" fill="white" fill-opacity="0.25" mask="url(#path-12-inside-4_4492_1503)"/>
<mask id="path-14-inside-5_4492_1503" fill="white">
<path d="M379.48 77.1836H497.166V194.869H379.48V77.1836Z"/>
</mask>
<path d="M497.166 194.869V196.095H498.392V194.869H497.166ZM495.94 77.1836V194.869H498.392V77.1836H495.94ZM497.166 193.643H379.48V196.095H497.166V193.643Z" fill="white" fill-opacity="0.25" mask="url(#path-14-inside-5_4492_1503)"/>
<mask id="path-16-inside-6_4492_1503" fill="white">
<path d="M497.164 77.1836H614.85V194.869H497.164V77.1836Z"/>
</mask>
<path d="M614.85 194.869V196.095H616.075V194.869H614.85ZM613.624 77.1836V194.869H616.075V77.1836H613.624ZM614.85 193.643H497.164V196.095H614.85V193.643Z" fill="white" fill-opacity="0.25" mask="url(#path-16-inside-6_4492_1503)"/>
<mask id="path-18-inside-7_4492_1503" fill="white">
<path d="M614.852 77.1836H732.537V194.869H614.852V77.1836Z"/>
</mask>
<path d="M732.537 194.869V196.095H733.763V194.869H732.537ZM731.311 77.1836V194.869H733.763V77.1836H731.311ZM732.537 193.643H614.852V196.095H732.537V193.643Z" fill="white" fill-opacity="0.25" mask="url(#path-18-inside-7_4492_1503)"/>
<mask id="path-20-inside-8_4492_1503" fill="white">
<path d="M732.535 77.1836H850.221V194.869H732.535V77.1836Z"/>
</mask>
<path d="M850.221 194.869V196.095H851.447V194.869H850.221ZM848.995 77.1836V194.869H851.447V77.1836H848.995ZM850.221 193.643H732.535V196.095H850.221V193.643Z" fill="white" fill-opacity="0.25" mask="url(#path-20-inside-8_4492_1503)"/>
<mask id="path-22-inside-9_4492_1503" fill="white">
<path d="M850.223 77.1836H967.908V194.869H850.223V77.1836Z"/>
</mask>
<path d="M967.908 194.869V196.095H969.134V194.869H967.908ZM966.682 77.1836V194.869H969.134V77.1836H966.682ZM967.908 193.643H850.223V196.095H967.908V193.643Z" fill="white" fill-opacity="0.25" mask="url(#path-22-inside-9_4492_1503)"/>
<mask id="path-24-inside-10_4492_1503" fill="white">
<path d="M967.906 77.1836H1085.59V194.869H967.906V77.1836Z"/>
</mask>
<path d="M1085.59 194.869V196.095H1086.82V194.869H1085.59ZM1084.37 77.1836V194.869H1086.82V77.1836H1084.37ZM1085.59 193.643H967.906V196.095H1085.59V193.643Z" fill="white" fill-opacity="0.25" mask="url(#path-24-inside-10_4492_1503)"/>
<mask id="path-26-inside-11_4492_1503" fill="white">
<path d="M1085.59 77.1836H1203.28V194.869H1085.59V77.1836Z"/>
</mask>
<path d="M1203.28 194.869V196.095H1204.51V194.869H1203.28ZM1202.05 77.1836V194.869H1204.51V77.1836H1202.05ZM1203.28 193.643H1085.59V196.095H1203.28V193.643Z" fill="white" fill-opacity="0.25" mask="url(#path-26-inside-11_4492_1503)"/>
<mask id="path-28-inside-12_4492_1503" fill="white">
<path d="M1203.28 77.1836H1320.96V194.869H1203.28V77.1836Z"/>
</mask>
<path d="M1320.96 194.869V196.095H1322.19V194.869H1320.96ZM1319.74 77.1836V194.869H1322.19V77.1836H1319.74ZM1320.96 193.643H1203.28V196.095H1320.96V193.643Z" fill="white" fill-opacity="0.25" mask="url(#path-28-inside-12_4492_1503)"/>
<mask id="path-30-inside-13_4492_1503" fill="white">
<path d="M1320.96 77.1836H1438.65V194.869H1320.96V77.1836Z"/>
</mask>
<path d="M1438.65 194.869V196.095H1439.88V194.869H1438.65ZM1437.42 77.1836V194.869H1439.88V77.1836H1437.42ZM1438.65 193.643H1320.96V196.095H1438.65V193.643Z" fill="white" fill-opacity="0.25" mask="url(#path-30-inside-13_4492_1503)"/>
<mask id="path-32-inside-14_4492_1503" fill="white">
<path d="M1438.65 77.1836H1556.33V194.869H1438.65V77.1836Z"/>
</mask>
<path d="M1556.33 194.869V196.095H1557.56V194.869H1556.33ZM1555.11 77.1836V194.869H1557.56V77.1836H1555.11ZM1556.33 193.643H1438.65V196.095H1556.33V193.643Z" fill="white" fill-opacity="0.25" mask="url(#path-32-inside-14_4492_1503)"/>
<mask id="path-34-inside-15_4492_1503" fill="white">
<path d="M1556.34 77.1836H1674.02V194.869H1556.34V77.1836Z"/>
</mask>
<path d="M1674.02 194.869V196.095H1675.25V194.869H1674.02ZM1672.8 77.1836V194.869H1675.25V77.1836H1672.8ZM1674.02 193.643H1556.34V196.095H1674.02V193.643Z" fill="white" fill-opacity="0.25" mask="url(#path-34-inside-15_4492_1503)"/>
<mask id="path-36-inside-16_4492_1503" fill="white">
<path d="M1674.02 77.1836H1791.71V194.869H1674.02V77.1836Z"/>
</mask>
<path d="M1791.71 194.869V196.095H1792.93V194.869H1791.71ZM1790.48 77.1836V194.869H1792.93V77.1836H1790.48ZM1791.71 193.643H1674.02V196.095H1791.71V193.643Z" fill="white" fill-opacity="0.25" mask="url(#path-36-inside-16_4492_1503)"/>
<mask id="path-38-inside-17_4492_1503" fill="white">
<path d="M-91.2617 194.869H26.4238V312.555H-91.2617V194.869Z"/>
</mask>
<path d="M26.4238 312.555V313.781H27.6497V312.555H26.4238ZM25.1979 194.869V312.555H27.6497V194.869H25.1979ZM26.4238 311.329H-91.2617V313.781H26.4238V311.329Z" fill="white" fill-opacity="0.25" mask="url(#path-38-inside-17_4492_1503)"/>
<mask id="path-40-inside-18_4492_1503" fill="white">
<path d="M26.4219 194.869H144.107V312.555H26.4219V194.869Z"/>
</mask>
<path d="M144.107 312.555V313.781H145.333V312.555H144.107ZM142.881 194.869V312.555H145.333V194.869H142.881ZM144.107 311.329H26.4219V313.781H144.107V311.329Z" fill="white" fill-opacity="0.25" mask="url(#path-40-inside-18_4492_1503)"/>
<mask id="path-42-inside-19_4492_1503" fill="white">
<path d="M144.109 194.869H261.795V312.555H144.109V194.869Z"/>
</mask>
<path d="M261.795 312.555V313.781H263.021V312.555H261.795ZM260.569 194.869V312.555H263.021V194.869H260.569ZM261.795 311.329H144.109V313.781H261.795V311.329Z" fill="white" fill-opacity="0.25" mask="url(#path-42-inside-19_4492_1503)"/>
<mask id="path-44-inside-20_4492_1503" fill="white">
<path d="M261.793 194.869H379.478V312.555H261.793V194.869Z"/>
</mask>
<path d="M261.793 194.869H379.478V312.555H261.793V194.869Z" fill="white" fill-opacity="0.2"/>
<path d="M379.478 312.555V313.781H380.704V312.555H379.478ZM378.253 194.869V312.555H380.704V194.869H378.253ZM379.478 311.329H261.793V313.781H379.478V311.329Z" fill="white" fill-opacity="0.25" mask="url(#path-44-inside-20_4492_1503)"/>
<mask id="path-46-inside-21_4492_1503" fill="white">
<path d="M379.48 194.869H497.166V312.555H379.48V194.869Z"/>
</mask>
<path d="M497.166 312.555V313.781H498.392V312.555H497.166ZM495.94 194.869V312.555H498.392V194.869H495.94ZM497.166 311.329H379.48V313.781H497.166V311.329Z" fill="white" fill-opacity="0.25" mask="url(#path-46-inside-21_4492_1503)"/>
<mask id="path-48-inside-22_4492_1503" fill="white">
<path d="M497.164 194.869H614.85V312.555H497.164V194.869Z"/>
</mask>
<path d="M614.85 312.555V313.781H616.075V312.555H614.85ZM613.624 194.869V312.555H616.075V194.869H613.624ZM614.85 311.329H497.164V313.781H614.85V311.329Z" fill="white" fill-opacity="0.25" mask="url(#path-48-inside-22_4492_1503)"/>
<mask id="path-50-inside-23_4492_1503" fill="white">
<path d="M614.852 194.869H732.537V312.555H614.852V194.869Z"/>
</mask>
<path d="M732.537 312.555V313.781H733.763V312.555H732.537ZM731.311 194.869V312.555H733.763V194.869H731.311ZM732.537 311.329H614.852V313.781H732.537V311.329Z" fill="white" fill-opacity="0.25" mask="url(#path-50-inside-23_4492_1503)"/>
<mask id="path-52-inside-24_4492_1503" fill="white">
<path d="M732.535 194.869H850.221V312.555H732.535V194.869Z"/>
</mask>
<path d="M850.221 312.555V313.781H851.447V312.555H850.221ZM848.995 194.869V312.555H851.447V194.869H848.995ZM850.221 311.329H732.535V313.781H850.221V311.329Z" fill="white" fill-opacity="0.25" mask="url(#path-52-inside-24_4492_1503)"/>
<mask id="path-54-inside-25_4492_1503" fill="white">
<path d="M850.223 194.869H967.908V312.555H850.223V194.869Z"/>
</mask>
<path d="M967.908 312.555V313.781H969.134V312.555H967.908ZM966.682 194.869V312.555H969.134V194.869H966.682ZM967.908 311.329H850.223V313.781H967.908V311.329Z" fill="white" fill-opacity="0.25" mask="url(#path-54-inside-25_4492_1503)"/>
<mask id="path-56-inside-26_4492_1503" fill="white">
<path d="M967.906 194.869H1085.59V312.555H967.906V194.869Z"/>
</mask>
<path d="M1085.59 312.555V313.781H1086.82V312.555H1085.59ZM1084.37 194.869V312.555H1086.82V194.869H1084.37ZM1085.59 311.329H967.906V313.781H1085.59V311.329Z" fill="white" fill-opacity="0.25" mask="url(#path-56-inside-26_4492_1503)"/>
<mask id="path-58-inside-27_4492_1503" fill="white">
<path d="M1085.59 194.869H1203.28V312.555H1085.59V194.869Z"/>
</mask>
<path d="M1203.28 312.555V313.781H1204.51V312.555H1203.28ZM1202.05 194.869V312.555H1204.51V194.869H1202.05ZM1203.28 311.329H1085.59V313.781H1203.28V311.329Z" fill="white" fill-opacity="0.25" mask="url(#path-58-inside-27_4492_1503)"/>
<mask id="path-60-inside-28_4492_1503" fill="white">
<path d="M1203.28 194.869H1320.96V312.555H1203.28V194.869Z"/>
</mask>
<path d="M1320.96 312.555V313.781H1322.19V312.555H1320.96ZM1319.74 194.869V312.555H1322.19V194.869H1319.74ZM1320.96 311.329H1203.28V313.781H1320.96V311.329Z" fill="white" fill-opacity="0.25" mask="url(#path-60-inside-28_4492_1503)"/>
<mask id="path-62-inside-29_4492_1503" fill="white">
<path d="M1320.96 194.869H1438.65V312.555H1320.96V194.869Z"/>
</mask>
<path d="M1320.96 194.869H1438.65V312.555H1320.96V194.869Z" fill="white" fill-opacity="0.2"/>
<path d="M1438.65 312.555V313.781H1439.88V312.555H1438.65ZM1437.42 194.869V312.555H1439.88V194.869H1437.42ZM1438.65 311.329H1320.96V313.781H1438.65V311.329Z" fill="white" fill-opacity="0.25" mask="url(#path-62-inside-29_4492_1503)"/>
<mask id="path-64-inside-30_4492_1503" fill="white">
<path d="M1438.65 194.869H1556.33V312.555H1438.65V194.869Z"/>
</mask>
<path d="M1556.33 312.555V313.781H1557.56V312.555H1556.33ZM1555.11 194.869V312.555H1557.56V194.869H1555.11ZM1556.33 311.329H1438.65V313.781H1556.33V311.329Z" fill="white" fill-opacity="0.25" mask="url(#path-64-inside-30_4492_1503)"/>
<mask id="path-66-inside-31_4492_1503" fill="white">
<path d="M1556.34 194.869H1674.02V312.555H1556.34V194.869Z"/>
</mask>
<path d="M1674.02 312.555V313.781H1675.25V312.555H1674.02ZM1672.8 194.869V312.555H1675.25V194.869H1672.8ZM1674.02 311.329H1556.34V313.781H1674.02V311.329Z" fill="white" fill-opacity="0.25" mask="url(#path-66-inside-31_4492_1503)"/>
<mask id="path-68-inside-32_4492_1503" fill="white">
<path d="M1674.02 194.869H1791.71V312.555H1674.02V194.869Z"/>
</mask>
<path d="M1791.71 312.555V313.781H1792.93V312.555H1791.71ZM1790.48 194.869V312.555H1792.93V194.869H1790.48ZM1791.71 311.329H1674.02V313.781H1791.71V311.329Z" fill="white" fill-opacity="0.25" mask="url(#path-68-inside-32_4492_1503)"/>
<mask id="path-70-inside-33_4492_1503" fill="white">
<path d="M-91.2617 312.555H26.4238V430.24H-91.2617V312.555Z"/>
</mask>
<path d="M26.4238 430.24V431.466H27.6497V430.24H26.4238ZM25.1979 312.555V430.24H27.6497V312.555H25.1979ZM26.4238 429.014H-91.2617V431.466H26.4238V429.014Z" fill="white" fill-opacity="0.25" mask="url(#path-70-inside-33_4492_1503)"/>
<mask id="path-72-inside-34_4492_1503" fill="white">
<path d="M26.4219 312.555H144.107V430.24H26.4219V312.555Z"/>
</mask>
<path d="M144.107 430.24V431.466H145.333V430.24H144.107ZM142.881 312.555V430.24H145.333V312.555H142.881ZM144.107 429.014H26.4219V431.466H144.107V429.014Z" fill="white" fill-opacity="0.25" mask="url(#path-72-inside-34_4492_1503)"/>
<mask id="path-74-inside-35_4492_1503" fill="white">
<path d="M144.109 312.555H261.795V430.24H144.109V312.555Z"/>
</mask>
<path d="M261.795 430.24V431.466H263.021V430.24H261.795ZM260.569 312.555V430.24H263.021V312.555H260.569ZM261.795 429.014H144.109V431.466H261.795V429.014Z" fill="white" fill-opacity="0.25" mask="url(#path-74-inside-35_4492_1503)"/>
<mask id="path-76-inside-36_4492_1503" fill="white">
<path d="M261.793 312.555H379.478V430.24H261.793V312.555Z"/>
</mask>
<path d="M379.478 430.24V431.466H380.704V430.24H379.478ZM378.253 312.555V430.24H380.704V312.555H378.253ZM379.478 429.014H261.793V431.466H379.478V429.014Z" fill="white" fill-opacity="0.25" mask="url(#path-76-inside-36_4492_1503)"/>
<mask id="path-78-inside-37_4492_1503" fill="white">
<path d="M379.48 312.555H497.166V430.24H379.48V312.555Z"/>
</mask>
<path d="M497.166 430.24V431.466H498.392V430.24H497.166ZM495.94 312.555V430.24H498.392V312.555H495.94ZM497.166 429.014H379.48V431.466H497.166V429.014Z" fill="white" fill-opacity="0.25" mask="url(#path-78-inside-37_4492_1503)"/>
<mask id="path-80-inside-38_4492_1503" fill="white">
<path d="M497.164 312.555H614.85V430.24H497.164V312.555Z"/>
</mask>
<path d="M497.164 312.555H614.85V430.24H497.164V312.555Z" fill="white" fill-opacity="0.2"/>
<path d="M614.85 430.24V431.466H616.075V430.24H614.85ZM613.624 312.555V430.24H616.075V312.555H613.624ZM614.85 429.014H497.164V431.466H614.85V429.014Z" fill="white" fill-opacity="0.25" mask="url(#path-80-inside-38_4492_1503)"/>
<mask id="path-82-inside-39_4492_1503" fill="white">
<path d="M614.852 312.555H732.537V430.24H614.852V312.555Z"/>
</mask>
<path d="M732.537 430.24V431.466H733.763V430.24H732.537ZM731.311 312.555V430.24H733.763V312.555H731.311ZM732.537 429.014H614.852V431.466H732.537V429.014Z" fill="white" fill-opacity="0.25" mask="url(#path-82-inside-39_4492_1503)"/>
<mask id="path-84-inside-40_4492_1503" fill="white">
<path d="M732.535 312.555H850.221V430.24H732.535V312.555Z"/>
</mask>
<path d="M850.221 430.24V431.466H851.447V430.24H850.221ZM848.995 312.555V430.24H851.447V312.555H848.995ZM850.221 429.014H732.535V431.466H850.221V429.014Z" fill="white" fill-opacity="0.25" mask="url(#path-84-inside-40_4492_1503)"/>
<mask id="path-86-inside-41_4492_1503" fill="white">
<path d="M850.223 312.555H967.908V430.24H850.223V312.555Z"/>
</mask>
<path d="M967.908 430.24V431.466H969.134V430.24H967.908ZM966.682 312.555V430.24H969.134V312.555H966.682ZM967.908 429.014H850.223V431.466H967.908V429.014Z" fill="white" fill-opacity="0.25" mask="url(#path-86-inside-41_4492_1503)"/>
<mask id="path-88-inside-42_4492_1503" fill="white">
<path d="M967.906 312.555H1085.59V430.24H967.906V312.555Z"/>
</mask>
<path d="M967.906 312.555H1085.59V430.24H967.906V312.555Z" fill="white" fill-opacity="0.2"/>
<path d="M1085.59 430.24V431.466H1086.82V430.24H1085.59ZM1084.37 312.555V430.24H1086.82V312.555H1084.37ZM1085.59 429.014H967.906V431.466H1085.59V429.014Z" fill="white" fill-opacity="0.25" mask="url(#path-88-inside-42_4492_1503)"/>
<mask id="path-90-inside-43_4492_1503" fill="white">
<path d="M1085.59 312.555H1203.28V430.24H1085.59V312.555Z"/>
</mask>
<path d="M1203.28 430.24V431.466H1204.51V430.24H1203.28ZM1202.05 312.555V430.24H1204.51V312.555H1202.05ZM1203.28 429.014H1085.59V431.466H1203.28V429.014Z" fill="white" fill-opacity="0.25" mask="url(#path-90-inside-43_4492_1503)"/>
<mask id="path-92-inside-44_4492_1503" fill="white">
<path d="M1203.28 312.555H1320.96V430.24H1203.28V312.555Z"/>
</mask>
<path d="M1320.96 430.24V431.466H1322.19V430.24H1320.96ZM1319.74 312.555V430.24H1322.19V312.555H1319.74ZM1320.96 429.014H1203.28V431.466H1320.96V429.014Z" fill="white" fill-opacity="0.25" mask="url(#path-92-inside-44_4492_1503)"/>
<mask id="path-94-inside-45_4492_1503" fill="white">
<path d="M1320.96 312.555H1438.65V430.24H1320.96V312.555Z"/>
</mask>
<path d="M1438.65 430.24V431.466H1439.88V430.24H1438.65ZM1437.42 312.555V430.24H1439.88V312.555H1437.42ZM1438.65 429.014H1320.96V431.466H1438.65V429.014Z" fill="white" fill-opacity="0.25" mask="url(#path-94-inside-45_4492_1503)"/>
<mask id="path-96-inside-46_4492_1503" fill="white">
<path d="M1438.65 312.555H1556.33V430.24H1438.65V312.555Z"/>
</mask>
<path d="M1556.33 430.24V431.466H1557.56V430.24H1556.33ZM1555.11 312.555V430.24H1557.56V312.555H1555.11ZM1556.33 429.014H1438.65V431.466H1556.33V429.014Z" fill="white" fill-opacity="0.25" mask="url(#path-96-inside-46_4492_1503)"/>
<mask id="path-98-inside-47_4492_1503" fill="white">
<path d="M1556.34 312.555H1674.02V430.24H1556.34V312.555Z"/>
</mask>
<path d="M1674.02 430.24V431.466H1675.25V430.24H1674.02ZM1672.8 312.555V430.24H1675.25V312.555H1672.8ZM1674.02 429.014H1556.34V431.466H1674.02V429.014Z" fill="white" fill-opacity="0.25" mask="url(#path-98-inside-47_4492_1503)"/>
<mask id="path-100-inside-48_4492_1503" fill="white">
<path d="M1674.02 312.555H1791.71V430.24H1674.02V312.555Z"/>
</mask>
<path d="M1791.71 430.24V431.466H1792.93V430.24H1791.71ZM1790.48 312.555V430.24H1792.93V312.555H1790.48ZM1791.71 429.014H1674.02V431.466H1791.71V429.014Z" fill="white" fill-opacity="0.25" mask="url(#path-100-inside-48_4492_1503)"/>
<mask id="path-102-inside-49_4492_1503" fill="white">
<path d="M-91.2617 430.24H26.4238V547.926H-91.2617V430.24Z"/>
</mask>
<path d="M-91.2617 430.24H26.4238V547.926H-91.2617V430.24Z" fill="white" fill-opacity="0.2"/>
<path d="M26.4238 547.926V549.152H27.6497V547.926H26.4238ZM25.1979 430.24V547.926H27.6497V430.24H25.1979ZM26.4238 546.7H-91.2617V549.152H26.4238V546.7Z" fill="white" fill-opacity="0.25" mask="url(#path-102-inside-49_4492_1503)"/>
<mask id="path-104-inside-50_4492_1503" fill="white">
<path d="M26.4219 430.24H144.107V547.926H26.4219V430.24Z"/>
</mask>
<path d="M144.107 547.926V549.152H145.333V547.926H144.107ZM142.881 430.24V547.926H145.333V430.24H142.881ZM144.107 546.7H26.4219V549.152H144.107V546.7Z" fill="white" fill-opacity="0.25" mask="url(#path-104-inside-50_4492_1503)"/>
<mask id="path-106-inside-51_4492_1503" fill="white">
<path d="M144.109 430.24H261.795V547.926H144.109V430.24Z"/>
</mask>
<path d="M261.795 547.926V549.152H263.021V547.926H261.795ZM260.569 430.24V547.926H263.021V430.24H260.569ZM261.795 546.7H144.109V549.152H261.795V546.7Z" fill="white" fill-opacity="0.25" mask="url(#path-106-inside-51_4492_1503)"/>
<mask id="path-108-inside-52_4492_1503" fill="white">
<path d="M261.793 430.24H379.478V547.926H261.793V430.24Z"/>
</mask>
<path d="M379.478 547.926V549.152H380.704V547.926H379.478ZM378.253 430.24V547.926H380.704V430.24H378.253ZM379.478 546.7H261.793V549.152H379.478V546.7Z" fill="white" fill-opacity="0.25" mask="url(#path-108-inside-52_4492_1503)"/>
<mask id="path-110-inside-53_4492_1503" fill="white">
<path d="M379.48 430.24H497.166V547.926H379.48V430.24Z"/>
</mask>
<path d="M497.166 547.926V549.152H498.392V547.926H497.166ZM495.94 430.24V547.926H498.392V430.24H495.94ZM497.166 546.7H379.48V549.152H497.166V546.7Z" fill="white" fill-opacity="0.25" mask="url(#path-110-inside-53_4492_1503)"/>
<mask id="path-112-inside-54_4492_1503" fill="white">
<path d="M497.164 430.24H614.85V547.926H497.164V430.24Z"/>
</mask>
<path d="M614.85 547.926V549.152H616.075V547.926H614.85ZM613.624 430.24V547.926H616.075V430.24H613.624ZM614.85 546.7H497.164V549.152H614.85V546.7Z" fill="white" fill-opacity="0.25" mask="url(#path-112-inside-54_4492_1503)"/>
<mask id="path-114-inside-55_4492_1503" fill="white">
<path d="M614.852 430.24H732.537V547.926H614.852V430.24Z"/>
</mask>
<path d="M732.537 547.926V549.152H733.763V547.926H732.537ZM731.311 430.24V547.926H733.763V430.24H731.311ZM732.537 546.7H614.852V549.152H732.537V546.7Z" fill="white" fill-opacity="0.25" mask="url(#path-114-inside-55_4492_1503)"/>
<mask id="path-116-inside-56_4492_1503" fill="white">
<path d="M732.535 430.24H850.221V547.926H732.535V430.24Z"/>
</mask>
<path d="M850.221 547.926V549.152H851.447V547.926H850.221ZM848.995 430.24V547.926H851.447V430.24H848.995ZM850.221 546.7H732.535V549.152H850.221V546.7Z" fill="white" fill-opacity="0.25" mask="url(#path-116-inside-56_4492_1503)"/>
<mask id="path-118-inside-57_4492_1503" fill="white">
<path d="M850.223 430.24H967.908V547.926H850.223V430.24Z"/>
</mask>
<path d="M967.908 547.926V549.152H969.134V547.926H967.908ZM966.682 430.24V547.926H969.134V430.24H966.682ZM967.908 546.7H850.223V549.152H967.908V546.7Z" fill="white" fill-opacity="0.25" mask="url(#path-118-inside-57_4492_1503)"/>
<mask id="path-120-inside-58_4492_1503" fill="white">
<path d="M967.906 430.24H1085.59V547.926H967.906V430.24Z"/>
</mask>
<path d="M1085.59 547.926V549.152H1086.82V547.926H1085.59ZM1084.37 430.24V547.926H1086.82V430.24H1084.37ZM1085.59 546.7H967.906V549.152H1085.59V546.7Z" fill="white" fill-opacity="0.25" mask="url(#path-120-inside-58_4492_1503)"/>
<mask id="path-122-inside-59_4492_1503" fill="white">
<path d="M1085.59 430.24H1203.28V547.926H1085.59V430.24Z"/>
</mask>
<path d="M1203.28 547.926V549.152H1204.51V547.926H1203.28ZM1202.05 430.24V547.926H1204.51V430.24H1202.05ZM1203.28 546.7H1085.59V549.152H1203.28V546.7Z" fill="white" fill-opacity="0.25" mask="url(#path-122-inside-59_4492_1503)"/>
<mask id="path-124-inside-60_4492_1503" fill="white">
<path d="M1203.28 430.24H1320.96V547.926H1203.28V430.24Z"/>
</mask>
<path d="M1320.96 547.926V549.152H1322.19V547.926H1320.96ZM1319.74 430.24V547.926H1322.19V430.24H1319.74ZM1320.96 546.7H1203.28V549.152H1320.96V546.7Z" fill="white" fill-opacity="0.25" mask="url(#path-124-inside-60_4492_1503)"/>
<mask id="path-126-inside-61_4492_1503" fill="white">
<path d="M1320.96 430.24H1438.65V547.926H1320.96V430.24Z"/>
</mask>
<path d="M1320.96 430.24H1438.65V547.926H1320.96V430.24Z" fill="white" fill-opacity="0.2"/>
<path d="M1438.65 547.926V549.152H1439.88V547.926H1438.65ZM1437.42 430.24V547.926H1439.88V430.24H1437.42ZM1438.65 546.7H1320.96V549.152H1438.65V546.7Z" fill="white" fill-opacity="0.25" mask="url(#path-126-inside-61_4492_1503)"/>
<mask id="path-128-inside-62_4492_1503" fill="white">
<path d="M1438.65 430.24H1556.33V547.926H1438.65V430.24Z"/>
</mask>
<path d="M1556.33 547.926V549.152H1557.56V547.926H1556.33ZM1555.11 430.24V547.926H1557.56V430.24H1555.11ZM1556.33 546.7H1438.65V549.152H1556.33V546.7Z" fill="white" fill-opacity="0.25" mask="url(#path-128-inside-62_4492_1503)"/>
<mask id="path-130-inside-63_4492_1503" fill="white">
<path d="M1556.34 430.24H1674.02V547.926H1556.34V430.24Z"/>
</mask>
<path d="M1674.02 547.926V549.152H1675.25V547.926H1674.02ZM1672.8 430.24V547.926H1675.25V430.24H1672.8ZM1674.02 546.7H1556.34V549.152H1674.02V546.7Z" fill="white" fill-opacity="0.25" mask="url(#path-130-inside-63_4492_1503)"/>
<mask id="path-132-inside-64_4492_1503" fill="white">
<path d="M1674.02 430.24H1791.71V547.926H1674.02V430.24Z"/>
</mask>
<path d="M1791.71 547.926V549.152H1792.93V547.926H1791.71ZM1790.48 430.24V547.926H1792.93V430.24H1790.48ZM1791.71 546.7H1674.02V549.152H1791.71V546.7Z" fill="white" fill-opacity="0.25" mask="url(#path-132-inside-64_4492_1503)"/>
<mask id="path-134-inside-65_4492_1503" fill="white">
<path d="M-91.2617 547.926H26.4238V665.611H-91.2617V547.926Z"/>
</mask>
<path d="M26.4238 665.611V666.837H27.6497V665.611H26.4238ZM25.1979 547.926V665.611H27.6497V547.926H25.1979ZM26.4238 664.385H-91.2617V666.837H26.4238V664.385Z" fill="white" fill-opacity="0.25" mask="url(#path-134-inside-65_4492_1503)"/>
<mask id="path-136-inside-66_4492_1503" fill="white">
<path d="M26.4219 547.926H144.107V665.611H26.4219V547.926Z"/>
</mask>
<path d="M144.107 665.611V666.837H145.333V665.611H144.107ZM142.881 547.926V665.611H145.333V547.926H142.881ZM144.107 664.385H26.4219V666.837H144.107V664.385Z" fill="white" fill-opacity="0.25" mask="url(#path-136-inside-66_4492_1503)"/>
<mask id="path-138-inside-67_4492_1503" fill="white">
<path d="M144.109 547.926H261.795V665.611H144.109V547.926Z"/>
</mask>
<path d="M261.795 665.611V666.837H263.021V665.611H261.795ZM260.569 547.926V665.611H263.021V547.926H260.569ZM261.795 664.385H144.109V666.837H261.795V664.385Z" fill="white" fill-opacity="0.25" mask="url(#path-138-inside-67_4492_1503)"/>
<mask id="path-140-inside-68_4492_1503" fill="white">
<path d="M261.793 547.926H379.478V665.611H261.793V547.926Z"/>
</mask>
<path d="M379.478 665.611V666.837H380.704V665.611H379.478ZM378.253 547.926V665.611H380.704V547.926H378.253ZM379.478 664.385H261.793V666.837H379.478V664.385Z" fill="white" fill-opacity="0.25" mask="url(#path-140-inside-68_4492_1503)"/>
<mask id="path-142-inside-69_4492_1503" fill="white">
<path d="M379.48 547.926H497.166V665.611H379.48V547.926Z"/>
</mask>
<path d="M497.166 665.611V666.837H498.392V665.611H497.166ZM495.94 547.926V665.611H498.392V547.926H495.94ZM497.166 664.385H379.48V666.837H497.166V664.385Z" fill="white" fill-opacity="0.25" mask="url(#path-142-inside-69_4492_1503)"/>
<mask id="path-144-inside-70_4492_1503" fill="white">
<path d="M497.164 547.926H614.85V665.611H497.164V547.926Z"/>
</mask>
<path d="M614.85 665.611V666.837H616.075V665.611H614.85ZM613.624 547.926V665.611H616.075V547.926H613.624ZM614.85 664.385H497.164V666.837H614.85V664.385Z" fill="white" fill-opacity="0.25" mask="url(#path-144-inside-70_4492_1503)"/>
<mask id="path-146-inside-71_4492_1503" fill="white">
<path d="M614.852 547.926H732.537V665.611H614.852V547.926Z"/>
</mask>
<path d="M614.852 547.926H732.537V665.611H614.852V547.926Z" fill="white" fill-opacity="0.2"/>
<path d="M732.537 665.611V666.837H733.763V665.611H732.537ZM731.311 547.926V665.611H733.763V547.926H731.311ZM732.537 664.385H614.852V666.837H732.537V664.385Z" fill="white" fill-opacity="0.25" mask="url(#path-146-inside-71_4492_1503)"/>
<mask id="path-148-inside-72_4492_1503" fill="white">
<path d="M732.535 547.926H850.221V665.611H732.535V547.926Z"/>
</mask>
<path d="M850.221 665.611V666.837H851.447V665.611H850.221ZM848.995 547.926V665.611H851.447V547.926H848.995ZM850.221 664.385H732.535V666.837H850.221V664.385Z" fill="white" fill-opacity="0.25" mask="url(#path-148-inside-72_4492_1503)"/>
<mask id="path-150-inside-73_4492_1503" fill="white">
<path d="M850.223 547.926H967.908V665.611H850.223V547.926Z"/>
</mask>
<path d="M967.908 665.611V666.837H969.134V665.611H967.908ZM966.682 547.926V665.611H969.134V547.926H966.682ZM967.908 664.385H850.223V666.837H967.908V664.385Z" fill="white" fill-opacity="0.25" mask="url(#path-150-inside-73_4492_1503)"/>
<mask id="path-152-inside-74_4492_1503" fill="white">
<path d="M967.906 547.926H1085.59V665.611H967.906V547.926Z"/>
</mask>
<path d="M1085.59 665.611V666.837H1086.82V665.611H1085.59ZM1084.37 547.926V665.611H1086.82V547.926H1084.37ZM1085.59 664.385H967.906V666.837H1085.59V664.385Z" fill="white" fill-opacity="0.25" mask="url(#path-152-inside-74_4492_1503)"/>
<mask id="path-154-inside-75_4492_1503" fill="white">
<path d="M1085.59 547.926H1203.28V665.611H1085.59V547.926Z"/>
</mask>
<path d="M1203.28 665.611V666.837H1204.51V665.611H1203.28ZM1202.05 547.926V665.611H1204.51V547.926H1202.05ZM1203.28 664.385H1085.59V666.837H1203.28V664.385Z" fill="white" fill-opacity="0.25" mask="url(#path-154-inside-75_4492_1503)"/>
<mask id="path-156-inside-76_4492_1503" fill="white">
<path d="M1203.28 547.926H1320.96V665.611H1203.28V547.926Z"/>
</mask>
<path d="M1320.96 665.611V666.837H1322.19V665.611H1320.96ZM1319.74 547.926V665.611H1322.19V547.926H1319.74ZM1320.96 664.385H1203.28V666.837H1320.96V664.385Z" fill="white" fill-opacity="0.25" mask="url(#path-156-inside-76_4492_1503)"/>
<mask id="path-158-inside-77_4492_1503" fill="white">
<path d="M1320.96 547.926H1438.65V665.611H1320.96V547.926Z"/>
</mask>
<path d="M1438.65 665.611V666.837H1439.88V665.611H1438.65ZM1437.42 547.926V665.611H1439.88V547.926H1437.42ZM1438.65 664.385H1320.96V666.837H1438.65V664.385Z" fill="white" fill-opacity="0.25" mask="url(#path-158-inside-77_4492_1503)"/>
<mask id="path-160-inside-78_4492_1503" fill="white">
<path d="M1438.65 547.926H1556.33V665.611H1438.65V547.926Z"/>
</mask>
<path d="M1556.33 665.611V666.837H1557.56V665.611H1556.33ZM1555.11 547.926V665.611H1557.56V547.926H1555.11ZM1556.33 664.385H1438.65V666.837H1556.33V664.385Z" fill="white" fill-opacity="0.25" mask="url(#path-160-inside-78_4492_1503)"/>
<mask id="path-162-inside-79_4492_1503" fill="white">
<path d="M1556.34 547.926H1674.02V665.611H1556.34V547.926Z"/>
</mask>
<path d="M1674.02 665.611V666.837H1675.25V665.611H1674.02ZM1672.8 547.926V665.611H1675.25V547.926H1672.8ZM1674.02 664.385H1556.34V666.837H1674.02V664.385Z" fill="white" fill-opacity="0.25" mask="url(#path-162-inside-79_4492_1503)"/>
<mask id="path-164-inside-80_4492_1503" fill="white">
<path d="M1674.02 547.926H1791.71V665.611H1674.02V547.926Z"/>
</mask>
<path d="M1791.71 665.611V666.837H1792.93V665.611H1791.71ZM1790.48 547.926V665.611H1792.93V547.926H1790.48ZM1791.71 664.385H1674.02V666.837H1791.71V664.385Z" fill="white" fill-opacity="0.25" mask="url(#path-164-inside-80_4492_1503)"/>
<mask id="path-166-inside-81_4492_1503" fill="white">
<path d="M-91.2617 665.611H26.4238V783.297H-91.2617V665.611Z"/>
</mask>
<path d="M26.4238 783.297V784.523H27.6497V783.297H26.4238ZM25.1979 665.611V783.297H27.6497V665.611H25.1979ZM26.4238 782.071H-91.2617V784.523H26.4238V782.071Z" fill="white" fill-opacity="0.25" mask="url(#path-166-inside-81_4492_1503)"/>
<mask id="path-168-inside-82_4492_1503" fill="white">
<path d="M26.4219 665.611H144.107V783.297H26.4219V665.611Z"/>
</mask>
<path d="M144.107 783.297V784.523H145.333V783.297H144.107ZM142.881 665.611V783.297H145.333V665.611H142.881ZM144.107 782.071H26.4219V784.523H144.107V782.071Z" fill="white" fill-opacity="0.25" mask="url(#path-168-inside-82_4492_1503)"/>
<mask id="path-170-inside-83_4492_1503" fill="white">
<path d="M144.109 665.611H261.795V783.297H144.109V665.611Z"/>
</mask>
<path d="M261.795 783.297V784.523H263.021V783.297H261.795ZM260.569 665.611V783.297H263.021V665.611H260.569ZM261.795 782.071H144.109V784.523H261.795V782.071Z" fill="white" fill-opacity="0.25" mask="url(#path-170-inside-83_4492_1503)"/>
<mask id="path-172-inside-84_4492_1503" fill="white">
<path d="M261.793 665.611H379.478V783.297H261.793V665.611Z"/>
</mask>
<path d="M261.793 665.611H379.478V783.297H261.793V665.611Z" fill="white" fill-opacity="0.2"/>
<path d="M379.478 783.297V784.523H380.704V783.297H379.478ZM378.253 665.611V783.297H380.704V665.611H378.253ZM379.478 782.071H261.793V784.523H379.478V782.071Z" fill="white" fill-opacity="0.25" mask="url(#path-172-inside-84_4492_1503)"/>
<mask id="path-174-inside-85_4492_1503" fill="white">
<path d="M379.48 665.611H497.166V783.297H379.48V665.611Z"/>
</mask>
<path d="M497.166 783.297V784.523H498.392V783.297H497.166ZM495.94 665.611V783.297H498.392V665.611H495.94ZM497.166 782.071H379.48V784.523H497.166V782.071Z" fill="white" fill-opacity="0.25" mask="url(#path-174-inside-85_4492_1503)"/>
<mask id="path-176-inside-86_4492_1503" fill="white">
<path d="M497.164 665.611H614.85V783.297H497.164V665.611Z"/>
</mask>
<path d="M614.85 783.297V784.523H616.075V783.297H614.85ZM613.624 665.611V783.297H616.075V665.611H613.624ZM614.85 782.071H497.164V784.523H614.85V782.071Z" fill="white" fill-opacity="0.25" mask="url(#path-176-inside-86_4492_1503)"/>
<mask id="path-178-inside-87_4492_1503" fill="white">
<path d="M614.852 665.611H732.537V783.297H614.852V665.611Z"/>
</mask>
<path d="M732.537 783.297V784.523H733.763V783.297H732.537ZM731.311 665.611V783.297H733.763V665.611H731.311ZM732.537 782.071H614.852V784.523H732.537V782.071Z" fill="white" fill-opacity="0.25" mask="url(#path-178-inside-87_4492_1503)"/>
<mask id="path-180-inside-88_4492_1503" fill="white">
<path d="M732.535 665.611H850.221V783.297H732.535V665.611Z"/>
</mask>
<path d="M850.221 783.297V784.523H851.447V783.297H850.221ZM848.995 665.611V783.297H851.447V665.611H848.995ZM850.221 782.071H732.535V784.523H850.221V782.071Z" fill="white" fill-opacity="0.25" mask="url(#path-180-inside-88_4492_1503)"/>
<mask id="path-182-inside-89_4492_1503" fill="white">
<path d="M850.223 665.611H967.908V783.297H850.223V665.611Z"/>
</mask>
<path d="M967.908 783.297V784.523H969.134V783.297H967.908ZM966.682 665.611V783.297H969.134V665.611H966.682ZM967.908 782.071H850.223V784.523H967.908V782.071Z" fill="white" fill-opacity="0.25" mask="url(#path-182-inside-89_4492_1503)"/>
<mask id="path-184-inside-90_4492_1503" fill="white">
<path d="M967.906 665.611H1085.59V783.297H967.906V665.611Z"/>
</mask>
<path d="M967.906 665.611H1085.59V783.297H967.906V665.611Z" fill="white" fill-opacity="0.2"/>
<path d="M1085.59 783.297V784.523H1086.82V783.297H1085.59ZM1084.37 665.611V783.297H1086.82V665.611H1084.37ZM1085.59 782.071H967.906V784.523H1085.59V782.071Z" fill="white" fill-opacity="0.25" mask="url(#path-184-inside-90_4492_1503)"/>
<mask id="path-186-inside-91_4492_1503" fill="white">
<path d="M1085.59 665.611H1203.28V783.297H1085.59V665.611Z"/>
</mask>
<path d="M1203.28 783.297V784.523H1204.51V783.297H1203.28ZM1202.05 665.611V783.297H1204.51V665.611H1202.05ZM1203.28 782.071H1085.59V784.523H1203.28V782.071Z" fill="white" fill-opacity="0.25" mask="url(#path-186-inside-91_4492_1503)"/>
<mask id="path-188-inside-92_4492_1503" fill="white">
<path d="M1203.28 665.611H1320.96V783.297H1203.28V665.611Z"/>
</mask>
<path d="M1320.96 783.297V784.523H1322.19V783.297H1320.96ZM1319.74 665.611V783.297H1322.19V665.611H1319.74ZM1320.96 782.071H1203.28V784.523H1320.96V782.071Z" fill="white" fill-opacity="0.25" mask="url(#path-188-inside-92_4492_1503)"/>
<mask id="path-190-inside-93_4492_1503" fill="white">
<path d="M1320.96 665.611H1438.65V783.297H1320.96V665.611Z"/>
</mask>
<path d="M1438.65 783.297V784.523H1439.88V783.297H1438.65ZM1437.42 665.611V783.297H1439.88V665.611H1437.42ZM1438.65 782.071H1320.96V784.523H1438.65V782.071Z" fill="white" fill-opacity="0.25" mask="url(#path-190-inside-93_4492_1503)"/>
<mask id="path-192-inside-94_4492_1503" fill="white">
<path d="M1438.65 665.611H1556.33V783.297H1438.65V665.611Z"/>
</mask>
<path d="M1556.33 783.297V784.523H1557.56V783.297H1556.33ZM1555.11 665.611V783.297H1557.56V665.611H1555.11ZM1556.33 782.071H1438.65V784.523H1556.33V782.071Z" fill="white" fill-opacity="0.25" mask="url(#path-192-inside-94_4492_1503)"/>
<mask id="path-194-inside-95_4492_1503" fill="white">
<path d="M1556.34 665.611H1674.02V783.297H1556.34V665.611Z"/>
</mask>
<path d="M1674.02 783.297V784.523H1675.25V783.297H1674.02ZM1672.8 665.611V783.297H1675.25V665.611H1672.8ZM1674.02 782.071H1556.34V784.523H1674.02V782.071Z" fill="white" fill-opacity="0.25" mask="url(#path-194-inside-95_4492_1503)"/>
<mask id="path-196-inside-96_4492_1503" fill="white">
<path d="M1674.02 665.611H1791.71V783.297H1674.02V665.611Z"/>
</mask>
<path d="M1791.71 783.297V784.523H1792.93V783.297H1791.71ZM1790.48 665.611V783.297H1792.93V665.611H1790.48ZM1791.71 782.071H1674.02V784.523H1791.71V782.071Z" fill="white" fill-opacity="0.25" mask="url(#path-196-inside-96_4492_1503)"/>
<mask id="path-198-inside-97_4492_1503" fill="white">
<path d="M-91.2617 783.297H26.4238V900.982H-91.2617V783.297Z"/>
</mask>
<path d="M26.4238 900.982V902.208H27.6497V900.982H26.4238ZM25.1979 783.297V900.982H27.6497V783.297H25.1979ZM26.4238 899.756H-91.2617V902.208H26.4238V899.756Z" fill="white" fill-opacity="0.25" mask="url(#path-198-inside-97_4492_1503)"/>
<mask id="path-200-inside-98_4492_1503" fill="white">
<path d="M26.4219 783.297H144.107V900.982H26.4219V783.297Z"/>
</mask>
<path d="M26.4219 783.297H144.107V900.982H26.4219V783.297Z" fill="white" fill-opacity="0.2"/>
<path d="M144.107 900.982V902.208H145.333V900.982H144.107ZM142.881 783.297V900.982H145.333V783.297H142.881ZM144.107 899.756H26.4219V902.208H144.107V899.756Z" fill="white" fill-opacity="0.25" mask="url(#path-200-inside-98_4492_1503)"/>
<mask id="path-202-inside-99_4492_1503" fill="white">
<path d="M144.109 783.297H261.795V900.982H144.109V783.297Z"/>
</mask>
<path d="M261.795 900.982V902.208H263.021V900.982H261.795ZM260.569 783.297V900.982H263.021V783.297H260.569ZM261.795 899.756H144.109V902.208H261.795V899.756Z" fill="white" fill-opacity="0.25" mask="url(#path-202-inside-99_4492_1503)"/>
<mask id="path-204-inside-100_4492_1503" fill="white">
<path d="M261.793 783.297H379.478V900.982H261.793V783.297Z"/>
</mask>
<path d="M379.478 900.982V902.208H380.704V900.982H379.478ZM378.253 783.297V900.982H380.704V783.297H378.253ZM379.478 899.756H261.793V902.208H379.478V899.756Z" fill="white" fill-opacity="0.25" mask="url(#path-204-inside-100_4492_1503)"/>
<mask id="path-206-inside-101_4492_1503" fill="white">
<path d="M379.48 783.297H497.166V900.982H379.48V783.297Z"/>
</mask>
<path d="M497.166 900.982V902.208H498.392V900.982H497.166ZM495.94 783.297V900.982H498.392V783.297H495.94ZM497.166 899.756H379.48V902.208H497.166V899.756Z" fill="white" fill-opacity="0.25" mask="url(#path-206-inside-101_4492_1503)"/>
<mask id="path-208-inside-102_4492_1503" fill="white">
<path d="M497.164 783.297H614.85V900.982H497.164V783.297Z"/>
</mask>
<path d="M614.85 900.982V902.208H616.075V900.982H614.85ZM613.624 783.297V900.982H616.075V783.297H613.624ZM614.85 899.756H497.164V902.208H614.85V899.756Z" fill="white" fill-opacity="0.25" mask="url(#path-208-inside-102_4492_1503)"/>
<mask id="path-210-inside-103_4492_1503" fill="white">
<path d="M614.852 783.297H732.537V900.982H614.852V783.297Z"/>
</mask>
<path d="M732.537 900.982V902.208H733.763V900.982H732.537ZM731.311 783.297V900.982H733.763V783.297H731.311ZM732.537 899.756H614.852V902.208H732.537V899.756Z" fill="white" fill-opacity="0.25" mask="url(#path-210-inside-103_4492_1503)"/>
<mask id="path-212-inside-104_4492_1503" fill="white">
<path d="M732.535 783.297H850.221V900.982H732.535V783.297Z"/>
</mask>
<path d="M850.221 900.982V902.208H851.447V900.982H850.221ZM848.995 783.297V900.982H851.447V783.297H848.995ZM850.221 899.756H732.535V902.208H850.221V899.756Z" fill="white" fill-opacity="0.25" mask="url(#path-212-inside-104_4492_1503)"/>
<mask id="path-214-inside-105_4492_1503" fill="white">
<path d="M850.223 783.297H967.908V900.982H850.223V783.297Z"/>
</mask>
<path d="M967.908 900.982V902.208H969.134V900.982H967.908ZM966.682 783.297V900.982H969.134V783.297H966.682ZM967.908 899.756H850.223V902.208H967.908V899.756Z" fill="white" fill-opacity="0.25" mask="url(#path-214-inside-105_4492_1503)"/>
<mask id="path-216-inside-106_4492_1503" fill="white">
<path d="M967.906 783.297H1085.59V900.982H967.906V783.297Z"/>
</mask>
<path d="M1085.59 900.982V902.208H1086.82V900.982H1085.59ZM1084.37 783.297V900.982H1086.82V783.297H1084.37ZM1085.59 899.756H967.906V902.208H1085.59V899.756Z" fill="white" fill-opacity="0.25" mask="url(#path-216-inside-106_4492_1503)"/>
<mask id="path-218-inside-107_4492_1503" fill="white">
<path d="M1085.59 783.297H1203.28V900.982H1085.59V783.297Z"/>
</mask>
<path d="M1203.28 900.982V902.208H1204.51V900.982H1203.28ZM1202.05 783.297V900.982H1204.51V783.297H1202.05ZM1203.28 899.756H1085.59V902.208H1203.28V899.756Z" fill="white" fill-opacity="0.25" mask="url(#path-218-inside-107_4492_1503)"/>
<mask id="path-220-inside-108_4492_1503" fill="white">
<path d="M1203.28 783.297H1320.96V900.982H1203.28V783.297Z"/>
</mask>
<path d="M1320.96 900.982V902.208H1322.19V900.982H1320.96ZM1319.74 783.297V900.982H1322.19V783.297H1319.74ZM1320.96 899.756H1203.28V902.208H1320.96V899.756Z" fill="white" fill-opacity="0.25" mask="url(#path-220-inside-108_4492_1503)"/>
<mask id="path-222-inside-109_4492_1503" fill="white">
<path d="M1320.96 783.297H1438.65V900.982H1320.96V783.297Z"/>
</mask>
<path d="M1438.65 900.982V902.208H1439.88V900.982H1438.65ZM1437.42 783.297V900.982H1439.88V783.297H1437.42ZM1438.65 899.756H1320.96V902.208H1438.65V899.756Z" fill="white" fill-opacity="0.25" mask="url(#path-222-inside-109_4492_1503)"/>
<mask id="path-224-inside-110_4492_1503" fill="white">
<path d="M1438.65 783.297H1556.33V900.982H1438.65V783.297Z"/>
</mask>
<path d="M1556.33 900.982V902.208H1557.56V900.982H1556.33ZM1555.11 783.297V900.982H1557.56V783.297H1555.11ZM1556.33 899.756H1438.65V902.208H1556.33V899.756Z" fill="white" fill-opacity="0.25" mask="url(#path-224-inside-110_4492_1503)"/>
<mask id="path-226-inside-111_4492_1503" fill="white">
<path d="M1556.34 783.297H1674.02V900.982H1556.34V783.297Z"/>
</mask>
<path d="M1556.34 783.297H1674.02V900.982H1556.34V783.297Z" fill="white" fill-opacity="0.2"/>
<path d="M1674.02 900.982V902.208H1675.25V900.982H1674.02ZM1672.8 783.297V900.982H1675.25V783.297H1672.8ZM1674.02 899.756H1556.34V902.208H1674.02V899.756Z" fill="white" fill-opacity="0.25" mask="url(#path-226-inside-111_4492_1503)"/>
<mask id="path-228-inside-112_4492_1503" fill="white">
<path d="M1674.02 783.297H1791.71V900.982H1674.02V783.297Z"/>
</mask>
<path d="M1791.71 900.982V902.208H1792.93V900.982H1791.71ZM1790.48 783.297V900.982H1792.93V783.297H1790.48ZM1791.71 899.756H1674.02V902.208H1791.71V899.756Z" fill="white" fill-opacity="0.25" mask="url(#path-228-inside-112_4492_1503)"/>
<mask id="path-230-inside-113_4492_1503" fill="white">
<path d="M-91.2617 900.982H26.4238V1018.67H-91.2617V900.982Z"/>
</mask>
<path d="M26.4238 1018.67V1019.89H27.6497V1018.67H26.4238ZM25.1979 900.982V1018.67H27.6497V900.982H25.1979ZM26.4238 1017.44H-91.2617V1019.89H26.4238V1017.44Z" fill="white" fill-opacity="0.25" mask="url(#path-230-inside-113_4492_1503)"/>
<mask id="path-232-inside-114_4492_1503" fill="white">
<path d="M26.4219 900.982H144.107V1018.67H26.4219V900.982Z"/>
</mask>
<path d="M144.107 1018.67V1019.89H145.333V1018.67H144.107ZM142.881 900.982V1018.67H145.333V900.982H142.881ZM144.107 1017.44H26.4219V1019.89H144.107V1017.44Z" fill="white" fill-opacity="0.25" mask="url(#path-232-inside-114_4492_1503)"/>
<mask id="path-234-inside-115_4492_1503" fill="white">
<path d="M144.109 900.982H261.795V1018.67H144.109V900.982Z"/>
</mask>
<path d="M261.795 1018.67V1019.89H263.021V1018.67H261.795ZM260.569 900.982V1018.67H263.021V900.982H260.569ZM261.795 1017.44H144.109V1019.89H261.795V1017.44Z" fill="white" fill-opacity="0.25" mask="url(#path-234-inside-115_4492_1503)"/>
<mask id="path-236-inside-116_4492_1503" fill="white">
<path d="M261.793 900.982H379.478V1018.67H261.793V900.982Z"/>
</mask>
<path d="M379.478 1018.67V1019.89H380.704V1018.67H379.478ZM378.253 900.982V1018.67H380.704V900.982H378.253ZM379.478 1017.44H261.793V1019.89H379.478V1017.44Z" fill="white" fill-opacity="0.25" mask="url(#path-236-inside-116_4492_1503)"/>
<mask id="path-238-inside-117_4492_1503" fill="white">
<path d="M379.48 900.982H497.166V1018.67H379.48V900.982Z"/>
</mask>
<path d="M497.166 1018.67V1019.89H498.392V1018.67H497.166ZM495.94 900.982V1018.67H498.392V900.982H495.94ZM497.166 1017.44H379.48V1019.89H497.166V1017.44Z" fill="white" fill-opacity="0.25" mask="url(#path-238-inside-117_4492_1503)"/>
<mask id="path-240-inside-118_4492_1503" fill="white">
<path d="M497.164 900.982H614.85V1018.67H497.164V900.982Z"/>
</mask>
<path d="M614.85 1018.67V1019.89H616.075V1018.67H614.85ZM613.624 900.982V1018.67H616.075V900.982H613.624ZM614.85 1017.44H497.164V1019.89H614.85V1017.44Z" fill="white" fill-opacity="0.25" mask="url(#path-240-inside-118_4492_1503)"/>
<mask id="path-242-inside-119_4492_1503" fill="white">
<path d="M614.852 900.982H732.537V1018.67H614.852V900.982Z"/>
</mask>
<path d="M614.852 900.982H732.537V1018.67H614.852V900.982Z" fill="white" fill-opacity="0.2"/>
<path d="M732.537 1018.67V1019.89H733.763V1018.67H732.537ZM731.311 900.982V1018.67H733.763V900.982H731.311ZM732.537 1017.44H614.852V1019.89H732.537V1017.44Z" fill="white" fill-opacity="0.25" mask="url(#path-242-inside-119_4492_1503)"/>
<mask id="path-244-inside-120_4492_1503" fill="white">
<path d="M732.535 900.982H850.221V1018.67H732.535V900.982Z"/>
</mask>
<path d="M850.221 1018.67V1019.89H851.447V1018.67H850.221ZM848.995 900.982V1018.67H851.447V900.982H848.995ZM850.221 1017.44H732.535V1019.89H850.221V1017.44Z" fill="white" fill-opacity="0.25" mask="url(#path-244-inside-120_4492_1503)"/>
<mask id="path-246-inside-121_4492_1503" fill="white">
<path d="M850.223 900.982H967.908V1018.67H850.223V900.982Z"/>
</mask>
<path d="M967.908 1018.67V1019.89H969.134V1018.67H967.908ZM966.682 900.982V1018.67H969.134V900.982H966.682ZM967.908 1017.44H850.223V1019.89H967.908V1017.44Z" fill="white" fill-opacity="0.25" mask="url(#path-246-inside-121_4492_1503)"/>
<mask id="path-248-inside-122_4492_1503" fill="white">
<path d="M967.906 900.982H1085.59V1018.67H967.906V900.982Z"/>
</mask>
<path d="M1085.59 1018.67V1019.89H1086.82V1018.67H1085.59ZM1084.37 900.982V1018.67H1086.82V900.982H1084.37ZM1085.59 1017.44H967.906V1019.89H1085.59V1017.44Z" fill="white" fill-opacity="0.25" mask="url(#path-248-inside-122_4492_1503)"/>
<mask id="path-250-inside-123_4492_1503" fill="white">
<path d="M1085.59 900.982H1203.28V1018.67H1085.59V900.982Z"/>
</mask>
<path d="M1203.28 1018.67V1019.89H1204.51V1018.67H1203.28ZM1202.05 900.982V1018.67H1204.51V900.982H1202.05ZM1203.28 1017.44H1085.59V1019.89H1203.28V1017.44Z" fill="white" fill-opacity="0.25" mask="url(#path-250-inside-123_4492_1503)"/>
<mask id="path-252-inside-124_4492_1503" fill="white">
<path d="M1203.28 900.982H1320.96V1018.67H1203.28V900.982Z"/>
</mask>
<path d="M1320.96 1018.67V1019.89H1322.19V1018.67H1320.96ZM1319.74 900.982V1018.67H1322.19V900.982H1319.74ZM1320.96 1017.44H1203.28V1019.89H1320.96V1017.44Z" fill="white" fill-opacity="0.25" mask="url(#path-252-inside-124_4492_1503)"/>
<mask id="path-254-inside-125_4492_1503" fill="white">
<path d="M1320.96 900.982H1438.65V1018.67H1320.96V900.982Z"/>
</mask>
<path d="M1320.96 900.982H1438.65V1018.67H1320.96V900.982Z" fill="white" fill-opacity="0.2"/>
<path d="M1438.65 1018.67V1019.89H1439.88V1018.67H1438.65ZM1437.42 900.982V1018.67H1439.88V900.982H1437.42ZM1438.65 1017.44H1320.96V1019.89H1438.65V1017.44Z" fill="white" fill-opacity="0.25" mask="url(#path-254-inside-125_4492_1503)"/>
<mask id="path-256-inside-126_4492_1503" fill="white">
<path d="M1438.65 900.982H1556.33V1018.67H1438.65V900.982Z"/>
</mask>
<path d="M1556.33 1018.67V1019.89H1557.56V1018.67H1556.33ZM1555.11 900.982V1018.67H1557.56V900.982H1555.11ZM1556.33 1017.44H1438.65V1019.89H1556.33V1017.44Z" fill="white" fill-opacity="0.25" mask="url(#path-256-inside-126_4492_1503)"/>
<mask id="path-258-inside-127_4492_1503" fill="white">
<path d="M1556.34 900.982H1674.02V1018.67H1556.34V900.982Z"/>
</mask>
<path d="M1674.02 1018.67V1019.89H1675.25V1018.67H1674.02ZM1672.8 900.982V1018.67H1675.25V900.982H1672.8ZM1674.02 1017.44H1556.34V1019.89H1674.02V1017.44Z" fill="white" fill-opacity="0.25" mask="url(#path-258-inside-127_4492_1503)"/>
<mask id="path-260-inside-128_4492_1503" fill="white">
<path d="M1674.02 900.982H1791.71V1018.67H1674.02V900.982Z"/>
</mask>
<path d="M1791.71 1018.67V1019.89H1792.93V1018.67H1791.71ZM1790.48 900.982V1018.67H1792.93V900.982H1790.48ZM1791.71 1017.44H1674.02V1019.89H1791.71V1017.44Z" fill="white" fill-opacity="0.25" mask="url(#path-260-inside-128_4492_1503)"/>
<mask id="path-262-inside-129_4492_1503" fill="white">
<path d="M-91.2617 1018.67H26.4238V1136.35H-91.2617V1018.67Z"/>
</mask>
<path d="M26.4238 1136.35V1137.58H27.6497V1136.35H26.4238ZM25.1979 1018.67V1136.35H27.6497V1018.67H25.1979ZM26.4238 1135.13H-91.2617V1137.58H26.4238V1135.13Z" fill="white" fill-opacity="0.25" mask="url(#path-262-inside-129_4492_1503)"/>
<mask id="path-264-inside-130_4492_1503" fill="white">
<path d="M26.4219 1018.67H144.107V1136.35H26.4219V1018.67Z"/>
</mask>
<path d="M144.107 1136.35V1137.58H145.333V1136.35H144.107ZM142.881 1018.67V1136.35H145.333V1018.67H142.881ZM144.107 1135.13H26.4219V1137.58H144.107V1135.13Z" fill="white" fill-opacity="0.25" mask="url(#path-264-inside-130_4492_1503)"/>
<mask id="path-266-inside-131_4492_1503" fill="white">
<path d="M144.109 1018.67H261.795V1136.35H144.109V1018.67Z"/>
</mask>
<path d="M261.795 1136.35V1137.58H263.021V1136.35H261.795ZM260.569 1018.67V1136.35H263.021V1018.67H260.569ZM261.795 1135.13H144.109V1137.58H261.795V1135.13Z" fill="white" fill-opacity="0.25" mask="url(#path-266-inside-131_4492_1503)"/>
<mask id="path-268-inside-132_4492_1503" fill="white">
<path d="M261.793 1018.67H379.478V1136.35H261.793V1018.67Z"/>
</mask>
<path d="M261.793 1018.67H379.478V1136.35H261.793V1018.67Z" fill="white" fill-opacity="0.2"/>
<path d="M379.478 1136.35V1137.58H380.704V1136.35H379.478ZM378.253 1018.67V1136.35H380.704V1018.67H378.253ZM379.478 1135.13H261.793V1137.58H379.478V1135.13Z" fill="white" fill-opacity="0.25" mask="url(#path-268-inside-132_4492_1503)"/>
<mask id="path-270-inside-133_4492_1503" fill="white">
<path d="M379.48 1018.67H497.166V1136.35H379.48V1018.67Z"/>
</mask>
<path d="M497.166 1136.35V1137.58H498.392V1136.35H497.166ZM495.94 1018.67V1136.35H498.392V1018.67H495.94ZM497.166 1135.13H379.48V1137.58H497.166V1135.13Z" fill="white" fill-opacity="0.25" mask="url(#path-270-inside-133_4492_1503)"/>
<mask id="path-272-inside-134_4492_1503" fill="white">
<path d="M497.164 1018.67H614.85V1136.35H497.164V1018.67Z"/>
</mask>
<path d="M614.85 1136.35V1137.58H616.075V1136.35H614.85ZM613.624 1018.67V1136.35H616.075V1018.67H613.624ZM614.85 1135.13H497.164V1137.58H614.85V1135.13Z" fill="white" fill-opacity="0.25" mask="url(#path-272-inside-134_4492_1503)"/>
<mask id="path-274-inside-135_4492_1503" fill="white">
<path d="M614.852 1018.67H732.537V1136.35H614.852V1018.67Z"/>
</mask>
<path d="M732.537 1136.35V1137.58H733.763V1136.35H732.537ZM731.311 1018.67V1136.35H733.763V1018.67H731.311ZM732.537 1135.13H614.852V1137.58H732.537V1135.13Z" fill="white" fill-opacity="0.25" mask="url(#path-274-inside-135_4492_1503)"/>
<mask id="path-276-inside-136_4492_1503" fill="white">
<path d="M732.535 1018.67H850.221V1136.35H732.535V1018.67Z"/>
</mask>
<path d="M850.221 1136.35V1137.58H851.447V1136.35H850.221ZM848.995 1018.67V1136.35H851.447V1018.67H848.995ZM850.221 1135.13H732.535V1137.58H850.221V1135.13Z" fill="white" fill-opacity="0.25" mask="url(#path-276-inside-136_4492_1503)"/>
<mask id="path-278-inside-137_4492_1503" fill="white">
<path d="M850.223 1018.67H967.908V1136.35H850.223V1018.67Z"/>
</mask>
<path d="M967.908 1136.35V1137.58H969.134V1136.35H967.908ZM966.682 1018.67V1136.35H969.134V1018.67H966.682ZM967.908 1135.13H850.223V1137.58H967.908V1135.13Z" fill="white" fill-opacity="0.25" mask="url(#path-278-inside-137_4492_1503)"/>
<mask id="path-280-inside-138_4492_1503" fill="white">
<path d="M967.906 1018.67H1085.59V1136.35H967.906V1018.67Z"/>
</mask>
<path d="M967.906 1018.67H1085.59V1136.35H967.906V1018.67Z" fill="white" fill-opacity="0.2"/>
<path d="M1085.59 1136.35V1137.58H1086.82V1136.35H1085.59ZM1084.37 1018.67V1136.35H1086.82V1018.67H1084.37ZM1085.59 1135.13H967.906V1137.58H1085.59V1135.13Z" fill="white" fill-opacity="0.25" mask="url(#path-280-inside-138_4492_1503)"/>
<mask id="path-282-inside-139_4492_1503" fill="white">
<path d="M1085.59 1018.67H1203.28V1136.35H1085.59V1018.67Z"/>
</mask>
<path d="M1203.28 1136.35V1137.58H1204.51V1136.35H1203.28ZM1202.05 1018.67V1136.35H1204.51V1018.67H1202.05ZM1203.28 1135.13H1085.59V1137.58H1203.28V1135.13Z" fill="white" fill-opacity="0.25" mask="url(#path-282-inside-139_4492_1503)"/>
<mask id="path-284-inside-140_4492_1503" fill="white">
<path d="M1203.28 1018.67H1320.96V1136.35H1203.28V1018.67Z"/>
</mask>
<path d="M1320.96 1136.35V1137.58H1322.19V1136.35H1320.96ZM1319.74 1018.67V1136.35H1322.19V1018.67H1319.74ZM1320.96 1135.13H1203.28V1137.58H1320.96V1135.13Z" fill="white" fill-opacity="0.25" mask="url(#path-284-inside-140_4492_1503)"/>
<mask id="path-286-inside-141_4492_1503" fill="white">
<path d="M1320.96 1018.67H1438.65V1136.35H1320.96V1018.67Z"/>
</mask>
<path d="M1438.65 1136.35V1137.58H1439.88V1136.35H1438.65ZM1437.42 1018.67V1136.35H1439.88V1018.67H1437.42ZM1438.65 1135.13H1320.96V1137.58H1438.65V1135.13Z" fill="white" fill-opacity="0.25" mask="url(#path-286-inside-141_4492_1503)"/>
<mask id="path-288-inside-142_4492_1503" fill="white">
<path d="M1438.65 1018.67H1556.33V1136.35H1438.65V1018.67Z"/>
</mask>
<path d="M1556.33 1136.35V1137.58H1557.56V1136.35H1556.33ZM1555.11 1018.67V1136.35H1557.56V1018.67H1555.11ZM1556.33 1135.13H1438.65V1137.58H1556.33V1135.13Z" fill="white" fill-opacity="0.25" mask="url(#path-288-inside-142_4492_1503)"/>
<mask id="path-290-inside-143_4492_1503" fill="white">
<path d="M1556.34 1018.67H1674.02V1136.35H1556.34V1018.67Z"/>
</mask>
<path d="M1674.02 1136.35V1137.58H1675.25V1136.35H1674.02ZM1672.8 1018.67V1136.35H1675.25V1018.67H1672.8ZM1674.02 1135.13H1556.34V1137.58H1674.02V1135.13Z" fill="white" fill-opacity="0.25" mask="url(#path-290-inside-143_4492_1503)"/>
<mask id="path-292-inside-144_4492_1503" fill="white">
<path d="M1674.02 1018.67H1791.71V1136.35H1674.02V1018.67Z"/>
</mask>
<path d="M1791.71 1136.35V1137.58H1792.93V1136.35H1791.71ZM1790.48 1018.67V1136.35H1792.93V1018.67H1790.48ZM1791.71 1135.13H1674.02V1137.58H1791.71V1135.13Z" fill="white" fill-opacity="0.25" mask="url(#path-292-inside-144_4492_1503)"/>
<mask id="path-294-inside-145_4492_1503" fill="white">
<path d="M-91.2617 1136.35H26.4238V1254.04H-91.2617V1136.35Z"/>
</mask>
<path d="M26.4238 1254.04V1255.26H27.6497V1254.04H26.4238ZM25.1979 1136.35V1254.04H27.6497V1136.35H25.1979ZM26.4238 1252.81H-91.2617V1255.26H26.4238V1252.81Z" fill="white" fill-opacity="0.25" mask="url(#path-294-inside-145_4492_1503)"/>
<mask id="path-296-inside-146_4492_1503" fill="white">
<path d="M26.4219 1136.35H144.107V1254.04H26.4219V1136.35Z"/>
</mask>
<path d="M144.107 1254.04V1255.26H145.333V1254.04H144.107ZM142.881 1136.35V1254.04H145.333V1136.35H142.881ZM144.107 1252.81H26.4219V1255.26H144.107V1252.81Z" fill="white" fill-opacity="0.25" mask="url(#path-296-inside-146_4492_1503)"/>
<mask id="path-298-inside-147_4492_1503" fill="white">
<path d="M144.109 1136.35H261.795V1254.04H144.109V1136.35Z"/>
</mask>
<path d="M261.795 1254.04V1255.26H263.021V1254.04H261.795ZM260.569 1136.35V1254.04H263.021V1136.35H260.569ZM261.795 1252.81H144.109V1255.26H261.795V1252.81Z" fill="white" fill-opacity="0.25" mask="url(#path-298-inside-147_4492_1503)"/>
<mask id="path-300-inside-148_4492_1503" fill="white">
<path d="M261.793 1136.35H379.478V1254.04H261.793V1136.35Z"/>
</mask>
<path d="M379.478 1254.04V1255.26H380.704V1254.04H379.478ZM378.253 1136.35V1254.04H380.704V1136.35H378.253ZM379.478 1252.81H261.793V1255.26H379.478V1252.81Z" fill="white" fill-opacity="0.25" mask="url(#path-300-inside-148_4492_1503)"/>
<mask id="path-302-inside-149_4492_1503" fill="white">
<path d="M379.48 1136.35H497.166V1254.04H379.48V1136.35Z"/>
</mask>
<path d="M497.166 1254.04V1255.26H498.392V1254.04H497.166ZM495.94 1136.35V1254.04H498.392V1136.35H495.94ZM497.166 1252.81H379.48V1255.26H497.166V1252.81Z" fill="white" fill-opacity="0.25" mask="url(#path-302-inside-149_4492_1503)"/>
<mask id="path-304-inside-150_4492_1503" fill="white">
<path d="M497.164 1136.35H614.85V1254.04H497.164V1136.35Z"/>
</mask>
<path d="M614.85 1254.04V1255.26H616.075V1254.04H614.85ZM613.624 1136.35V1254.04H616.075V1136.35H613.624ZM614.85 1252.81H497.164V1255.26H614.85V1252.81Z" fill="white" fill-opacity="0.25" mask="url(#path-304-inside-150_4492_1503)"/>
<mask id="path-306-inside-151_4492_1503" fill="white">
<path d="M614.852 1136.35H732.537V1254.04H614.852V1136.35Z"/>
</mask>
<path d="M732.537 1254.04V1255.26H733.763V1254.04H732.537ZM731.311 1136.35V1254.04H733.763V1136.35H731.311ZM732.537 1252.81H614.852V1255.26H732.537V1252.81Z" fill="white" fill-opacity="0.25" mask="url(#path-306-inside-151_4492_1503)"/>
<mask id="path-308-inside-152_4492_1503" fill="white">
<path d="M732.535 1136.35H850.221V1254.04H732.535V1136.35Z"/>
</mask>
<path d="M850.221 1254.04V1255.26H851.447V1254.04H850.221ZM848.995 1136.35V1254.04H851.447V1136.35H848.995ZM850.221 1252.81H732.535V1255.26H850.221V1252.81Z" fill="white" fill-opacity="0.25" mask="url(#path-308-inside-152_4492_1503)"/>
<mask id="path-310-inside-153_4492_1503" fill="white">
<path d="M850.223 1136.35H967.908V1254.04H850.223V1136.35Z"/>
</mask>
<path d="M967.908 1254.04V1255.26H969.134V1254.04H967.908ZM966.682 1136.35V1254.04H969.134V1136.35H966.682ZM967.908 1252.81H850.223V1255.26H967.908V1252.81Z" fill="white" fill-opacity="0.25" mask="url(#path-310-inside-153_4492_1503)"/>
<mask id="path-312-inside-154_4492_1503" fill="white">
<path d="M967.906 1136.35H1085.59V1254.04H967.906V1136.35Z"/>
</mask>
<path d="M1085.59 1254.04V1255.26H1086.82V1254.04H1085.59ZM1084.37 1136.35V1254.04H1086.82V1136.35H1084.37ZM1085.59 1252.81H967.906V1255.26H1085.59V1252.81Z" fill="white" fill-opacity="0.25" mask="url(#path-312-inside-154_4492_1503)"/>
<mask id="path-314-inside-155_4492_1503" fill="white">
<path d="M1085.59 1136.35H1203.28V1254.04H1085.59V1136.35Z"/>
</mask>
<path d="M1203.28 1254.04V1255.26H1204.51V1254.04H1203.28ZM1202.05 1136.35V1254.04H1204.51V1136.35H1202.05ZM1203.28 1252.81H1085.59V1255.26H1203.28V1252.81Z" fill="white" fill-opacity="0.25" mask="url(#path-314-inside-155_4492_1503)"/>
<mask id="path-316-inside-156_4492_1503" fill="white">
<path d="M1203.28 1136.35H1320.96V1254.04H1203.28V1136.35Z"/>
</mask>
<path d="M1320.96 1254.04V1255.26H1322.19V1254.04H1320.96ZM1319.74 1136.35V1254.04H1322.19V1136.35H1319.74ZM1320.96 1252.81H1203.28V1255.26H1320.96V1252.81Z" fill="white" fill-opacity="0.25" mask="url(#path-316-inside-156_4492_1503)"/>
<mask id="path-318-inside-157_4492_1503" fill="white">
<path d="M1320.96 1136.35H1438.65V1254.04H1320.96V1136.35Z"/>
</mask>
<path d="M1438.65 1254.04V1255.26H1439.88V1254.04H1438.65ZM1437.42 1136.35V1254.04H1439.88V1136.35H1437.42ZM1438.65 1252.81H1320.96V1255.26H1438.65V1252.81Z" fill="white" fill-opacity="0.25" mask="url(#path-318-inside-157_4492_1503)"/>
<mask id="path-320-inside-158_4492_1503" fill="white">
<path d="M1438.65 1136.35H1556.33V1254.04H1438.65V1136.35Z"/>
</mask>
<path d="M1556.33 1254.04V1255.26H1557.56V1254.04H1556.33ZM1555.11 1136.35V1254.04H1557.56V1136.35H1555.11ZM1556.33 1252.81H1438.65V1255.26H1556.33V1252.81Z" fill="white" fill-opacity="0.25" mask="url(#path-320-inside-158_4492_1503)"/>
<mask id="path-322-inside-159_4492_1503" fill="white">
<path d="M1556.34 1136.35H1674.02V1254.04H1556.34V1136.35Z"/>
</mask>
<path d="M1674.02 1254.04V1255.26H1675.25V1254.04H1674.02ZM1672.8 1136.35V1254.04H1675.25V1136.35H1672.8ZM1674.02 1252.81H1556.34V1255.26H1674.02V1252.81Z" fill="white" fill-opacity="0.25" mask="url(#path-322-inside-159_4492_1503)"/>
<mask id="path-324-inside-160_4492_1503" fill="white">
<path d="M1674.02 1136.35H1791.71V1254.04H1674.02V1136.35Z"/>
</mask>
<path d="M1674.02 1136.35H1791.71V1254.04H1674.02V1136.35Z" fill="white" fill-opacity="0.2"/>
<path d="M1791.71 1254.04V1255.26H1792.93V1254.04H1791.71ZM1790.48 1136.35V1254.04H1792.93V1136.35H1790.48ZM1791.71 1252.81H1674.02V1255.26H1791.71V1252.81Z" fill="white" fill-opacity="0.25" mask="url(#path-324-inside-160_4492_1503)"/>
</g>
<rect x="-326.02" y="77.7965" width="2352.48" height="1764.06" stroke="white" stroke-opacity="0.32" stroke-width="1.22589"/>
</g>
</g>
</g>
<g style="mix-blend-mode:plus-lighter" filter="url(#filter3_f_4492_1503)">
<ellipse cx="2153.88" cy="320.059" rx="376.5" ry="376" transform="rotate(-120 2153.88 320.059)" fill="#74D960"/>
</g>
<g style="mix-blend-mode:plus-lighter" filter="url(#filter4_f_4492_1503)">
<ellipse cx="-287.124" cy="1048.06" rx="376.5" ry="376" transform="rotate(-120 -287.124 1048.06)" fill="#74D960"/>
</g>
</g>
<defs>
<filter id="filter0_f_4492_1503" x="-565.677" y="357.904" width="1413.45" height="1413.45" filterUnits="userSpaceOnUse" color-interpolation-filters="sRGB">
<feFlood flood-opacity="0" result="BackgroundImageFix"/>
<feBlend mode="normal" in="SourceGraphic" in2="BackgroundImageFix" result="shape"/>
<feGaussianBlur stdDeviation="245.178" result="effect1_foregroundBlur_4492_1503"/>
</filter>
<filter id="filter1_f_4492_1503" x="-185.649" y="-267.3" width="1413.45" height="1413.45" filterUnits="userSpaceOnUse" color-interpolation-filters="sRGB">
<feFlood flood-opacity="0" result="BackgroundImageFix"/>
<feBlend mode="normal" in="SourceGraphic" in2="BackgroundImageFix" result="shape"/>
<feGaussianBlur stdDeviation="245.178" result="effect1_foregroundBlur_4492_1503"/>
</filter>
<filter id="filter2_f_4492_1503" x="904.796" y="-620.356" width="1286.96" height="1286.96" filterUnits="userSpaceOnUse" color-interpolation-filters="sRGB">
<feFlood flood-opacity="0" result="BackgroundImageFix"/>
<feBlend mode="normal" in="SourceGraphic" in2="BackgroundImageFix" result="shape"/>
<feGaussianBlur stdDeviation="245.178" result="effect1_foregroundBlur_4492_1503"/>
</filter>
<filter id="filter3_f_4492_1503" x="1377.69" y="-456.379" width="1552.38" height="1552.88" filterUnits="userSpaceOnUse" color-interpolation-filters="sRGB">
<feFlood flood-opacity="0" result="BackgroundImageFix"/>
<feBlend mode="normal" in="SourceGraphic" in2="BackgroundImageFix" result="shape"/>
<feGaussianBlur stdDeviation="200" result="effect1_foregroundBlur_4492_1503"/>
</filter>
<filter id="filter4_f_4492_1503" x="-1063.31" y="271.621" width="1552.38" height="1552.88" filterUnits="userSpaceOnUse" color-interpolation-filters="sRGB">
<feFlood flood-opacity="0" result="BackgroundImageFix"/>
<feBlend mode="normal" in="SourceGraphic" in2="BackgroundImageFix" result="shape"/>
<feGaussianBlur stdDeviation="200" result="effect1_foregroundBlur_4492_1503"/>
</filter>
<radialGradient id="paint0_radial_4492_1503" cx="0" cy="0" r="1" gradientUnits="userSpaceOnUse" gradientTransform="translate(882.641 -0.000174927) rotate(90) scale(1467.39 921.364)">
<stop/>
<stop offset="0.953125" stop-opacity="0"/>
</radialGradient>
<clipPath id="clip0_4492_1503">
<rect width="1915" height="1208" fill="white"/>
</clipPath>
<clipPath id="clip1_4492_1503">
<rect width="1759.86" height="1203.82" fill="white" transform="translate(-29.9609 77.1836)"/>
</clipPath>
<clipPath id="clip2_4492_1503">
<rect x="-326.633" y="77.1836" width="2353.71" height="1765.28" fill="white"/>
</clipPath>
</defs>
</svg>
