<svg width="49" height="48" viewBox="0 0 49 48" fill="none" xmlns="http://www.w3.org/2000/svg">
<path opacity="0.2" d="M42.75 12L40.47 24.5363C40.3444 25.2275 39.9802 25.8527 39.4409 26.303C38.9016 26.7532 38.2213 26.9999 37.5188 27H13.9781L11.25 12H42.75Z" fill="url(#paint0_linear_4347_2049)"/>
<path d="M43.9012 11.0381C43.7604 10.8696 43.5844 10.7341 43.3854 10.6411C43.1865 10.5481 42.9696 10.5 42.75 10.5H12.5025L11.3625 4.23187C11.2997 3.88625 11.1176 3.57363 10.8479 3.34851C10.5783 3.12339 10.2382 3.00005 9.88688 3H5.25C4.85218 3 4.47064 3.15804 4.18934 3.43934C3.90804 3.72064 3.75 4.10218 3.75 4.5C3.75 4.89782 3.90804 5.27936 4.18934 5.56066C4.47064 5.84196 4.85218 6 5.25 6H8.625L13.4175 32.3044C13.5587 33.0845 13.9034 33.8135 14.4169 34.4175C13.7082 35.0794 13.1967 35.9247 12.9391 36.8595C12.6815 37.7944 12.6878 38.7823 12.9574 39.7138C13.227 40.6453 13.7493 41.4839 14.4664 42.1366C15.1835 42.7894 16.0674 43.2308 17.02 43.4119C17.9727 43.5929 18.9569 43.5067 19.8635 43.1625C20.7701 42.8184 21.5636 42.23 22.1562 41.4624C22.7488 40.6948 23.1172 39.7781 23.2205 38.8139C23.3239 37.8497 23.1582 36.8758 22.7419 36H31.2581C30.9225 36.7025 30.7489 37.4714 30.75 38.25C30.75 39.2884 31.0579 40.3034 31.6348 41.1667C32.2117 42.0301 33.0316 42.703 33.9909 43.1004C34.9502 43.4977 36.0058 43.6017 37.0242 43.3991C38.0426 43.1966 38.9781 42.6965 39.7123 41.9623C40.4465 41.2281 40.9466 40.2926 41.1491 39.2742C41.3517 38.2558 41.2477 37.2002 40.8504 36.2409C40.453 35.2816 39.7801 34.4617 38.9167 33.8848C38.0534 33.3079 37.0384 33 36 33H17.8444C17.4931 32.9999 17.153 32.8766 16.8833 32.6515C16.6136 32.4264 16.4315 32.1137 16.3688 31.7681L15.7744 28.5H37.5244C38.5782 28.4998 39.5986 28.1298 40.4076 27.4545C41.2166 26.7791 41.7629 25.8412 41.9513 24.8044L44.2312 12.2681C44.2698 12.0514 44.2603 11.8289 44.2033 11.6164C44.1462 11.4038 44.0431 11.2064 43.9012 11.0381ZM20.25 38.25C20.25 38.695 20.118 39.13 19.8708 39.5C19.6236 39.87 19.2722 40.1584 18.861 40.3287C18.4499 40.499 17.9975 40.5436 17.561 40.4568C17.1246 40.3699 16.7237 40.1557 16.409 39.841C16.0943 39.5263 15.88 39.1254 15.7932 38.689C15.7064 38.2525 15.751 37.8001 15.9213 37.389C16.0916 36.9778 16.38 36.6264 16.75 36.3792C17.12 36.132 17.555 36 18 36C18.5967 36 19.169 36.2371 19.591 36.659C20.0129 37.081 20.25 37.6533 20.25 38.25ZM38.25 38.25C38.25 38.695 38.118 39.13 37.8708 39.5C37.6236 39.87 37.2722 40.1584 36.861 40.3287C36.4499 40.499 35.9975 40.5436 35.561 40.4568C35.1246 40.3699 34.7237 40.1557 34.409 39.841C34.0943 39.5263 33.88 39.1254 33.7932 38.689C33.7064 38.2525 33.751 37.8001 33.9213 37.389C34.0916 36.9778 34.38 36.6264 34.75 36.3792C35.12 36.132 35.555 36 36 36C36.5967 36 37.169 36.2371 37.591 36.659C38.0129 37.081 38.25 37.6533 38.25 38.25ZM39 24.2681C38.937 24.6147 38.7541 24.9281 38.4833 25.1533C38.2125 25.3785 37.871 25.5013 37.5188 25.5H15.2288L13.0481 13.5H40.9519L39 24.2681Z" fill="url(#paint1_linear_4347_2049)"/>
<defs>
<linearGradient id="paint0_linear_4347_2049" x1="-733.076" y1="28.5978" x2="-732.735" y2="-0.945103" gradientUnits="userSpaceOnUse">
<stop stop-color="#E8DF38"/>
<stop offset="1" stop-color="#41D882"/>
</linearGradient>
<linearGradient id="paint1_linear_4347_2049" x1="-953.347" y1="47.8188" x2="-951.411" y2="-31.9191" gradientUnits="userSpaceOnUse">
<stop stop-color="#E8DF38"/>
<stop offset="1" stop-color="#41D882"/>
</linearGradient>
</defs>
</svg>
