<svg width="48" height="48" viewBox="0 0 48 48" fill="none" xmlns="http://www.w3.org/2000/svg">
<path opacity="0.2" d="M42 13.5V22.5H30C30 24.0913 29.3679 25.6174 28.2426 26.7426C27.1174 27.8679 25.5913 28.5 24 28.5C22.4087 28.5 20.8826 27.8679 19.7574 26.7426C18.6321 25.6174 18 24.0913 18 22.5H6V13.5C6 12.7044 6.31607 11.9413 6.87868 11.3787C7.44129 10.8161 8.20435 10.5 9 10.5H39C39.7957 10.5 40.5587 10.8161 41.1213 11.3787C41.6839 11.9413 42 12.7044 42 13.5Z" fill="url(#paint0_linear_4347_2359)"/>
<path d="M39 9H9C7.80653 9 6.66193 9.47411 5.81802 10.318C4.97411 11.1619 4.5 12.3065 4.5 13.5V34.5C4.5 35.6935 4.97411 36.8381 5.81802 37.682C6.66193 38.5259 7.80653 39 9 39H39C40.1935 39 41.3381 38.5259 42.182 37.682C43.0259 36.8381 43.5 35.6935 43.5 34.5V13.5C43.5 12.3065 43.0259 11.1619 42.182 10.318C41.3381 9.47411 40.1935 9 39 9ZM7.5 18H40.5V21H30C29.6022 21 29.2206 21.158 28.9393 21.4393C28.658 21.7206 28.5 22.1022 28.5 22.5C28.5 23.6935 28.0259 24.8381 27.182 25.682C26.3381 26.5259 25.1935 27 24 27C22.8065 27 21.6619 26.5259 20.818 25.682C19.9741 24.8381 19.5 23.6935 19.5 22.5C19.5 22.1022 19.342 21.7206 19.0607 21.4393C18.7794 21.158 18.3978 21 18 21H7.5V18ZM9 12H39C39.3978 12 39.7794 12.158 40.0607 12.4393C40.342 12.7206 40.5 13.1022 40.5 13.5V15H7.5V13.5C7.5 13.1022 7.65804 12.7206 7.93934 12.4393C8.22064 12.158 8.60218 12 9 12ZM39 36H9C8.60218 36 8.22064 35.842 7.93934 35.5607C7.65804 35.2794 7.5 34.8978 7.5 34.5V24H16.65C16.9943 25.6954 17.9141 27.2197 19.2536 28.3146C20.5931 29.4094 22.27 30.0075 24 30.0075C25.73 30.0075 27.4069 29.4094 28.7464 28.3146C30.0859 27.2197 31.0057 25.6954 31.35 24H40.5V34.5C40.5 34.8978 40.342 35.2794 40.0607 35.5607C39.7794 35.842 39.3978 36 39 36Z" fill="url(#paint1_linear_4347_2359)"/>
<defs>
<linearGradient id="paint0_linear_4347_2359" x1="-844.658" y1="30.4174" x2="-844.228" y2="-5.03364" gradientUnits="userSpaceOnUse">
<stop stop-color="#E8DF38"/>
<stop offset="1" stop-color="#41D882"/>
</linearGradient>
<linearGradient id="paint1_linear_4347_2359" x1="-917.047" y1="42.1957" x2="-915.944" y2="-16.8775" gradientUnits="userSpaceOnUse">
<stop stop-color="#E8DF38"/>
<stop offset="1" stop-color="#41D882"/>
</linearGradient>
</defs>
</svg>
