<svg width="49" height="48" viewBox="0 0 49 48" fill="none" xmlns="http://www.w3.org/2000/svg">
<path opacity="0.2" d="M41 25.5C41 28.7634 40.0323 31.9535 38.2193 34.6669C36.4062 37.3803 33.8293 39.4952 30.8143 40.744C27.7993 41.9929 24.4817 42.3196 21.281 41.683C18.0803 41.0463 15.1403 39.4748 12.8327 37.1673C10.5252 34.8597 8.95371 31.9197 8.31705 28.719C7.68039 25.5183 8.00715 22.2007 9.256 19.1857C10.5048 16.1707 12.6197 13.5938 15.3331 11.7808C18.0465 9.96771 21.2366 9 24.5 9C28.8761 9 33.0729 10.7384 36.1673 13.8327C39.2616 16.9271 41 21.1239 41 25.5Z" fill="url(#paint0_linear_4347_2053)"/>
<path d="M24.5008 7.50083C20.9408 7.50083 17.4607 8.55652 14.5006 10.5344C11.5405 12.5122 9.23338 15.3235 7.871 18.6125C6.50862 21.9016 6.15216 25.5208 6.8467 29.0125C7.54123 32.5041 9.25557 35.7114 11.7729 38.2288C14.2903 40.7461 17.4976 42.4604 20.9892 43.155C24.4809 43.8495 28.1001 43.493 31.3891 42.1307C34.6782 40.7683 37.4894 38.4612 39.4673 35.5011C41.4452 32.541 42.5008 29.0609 42.5008 25.5008C42.4954 20.7286 40.5972 16.1534 37.2227 12.7789C33.8483 9.40447 29.2731 7.50629 24.5008 7.50083ZM24.5008 40.5008C21.5341 40.5008 18.634 39.6211 16.1673 37.9729C13.7005 36.3247 11.778 33.982 10.6426 31.2411C9.50733 28.5002 9.21028 25.4842 9.78905 22.5745C10.3678 19.6648 11.7964 16.992 13.8942 14.8942C15.992 12.7964 18.6648 11.3678 21.5745 10.7891C24.4842 10.2103 27.5002 10.5073 30.2411 11.6426C32.982 12.778 35.3247 14.7005 36.9729 17.1673C38.6211 19.634 39.5008 22.5341 39.5008 25.5008C39.4964 29.4777 37.9146 33.2904 35.1025 36.1025C32.2904 38.9146 28.4777 40.4964 24.5008 40.5008ZM12.0621 7.06208L6.06208 13.0621C5.78062 13.3435 5.39888 13.5017 5.00083 13.5017C4.60279 13.5017 4.22105 13.3435 3.93958 13.0621C3.65812 12.7806 3.5 12.3989 3.5 12.0008C3.5 11.6028 3.65812 11.221 3.93958 10.9396L9.93958 4.93958C10.221 4.65812 10.6028 4.5 11.0008 4.5C11.3989 4.5 11.7806 4.65812 12.0621 4.93958C12.3435 5.22104 12.5017 5.60279 12.5017 6.00083C12.5017 6.39888 12.3435 6.78062 12.0621 7.06208ZM45.0621 13.0621C44.9228 13.2015 44.7573 13.3122 44.5752 13.3877C44.3932 13.4632 44.198 13.502 44.0008 13.502C43.8037 13.502 43.6085 13.4632 43.4264 13.3877C43.2443 13.3122 43.0789 13.2015 42.9396 13.0621L36.9396 7.06208C36.6581 6.78062 36.5 6.39888 36.5 6.00083C36.5 5.60279 36.6581 5.22104 36.9396 4.93958C37.221 4.65812 37.6028 4.5 38.0008 4.5C38.3989 4.5 38.7806 4.65812 39.0621 4.93958L45.0621 10.9396C45.2015 11.0789 45.3122 11.2443 45.3877 11.4264C45.4632 11.6085 45.502 11.8037 45.502 12.0008C45.502 12.198 45.4632 12.3931 45.3877 12.5752C45.3122 12.7573 45.2015 12.9228 45.0621 13.0621ZM35.0008 24.0008C35.3987 24.0008 35.7802 24.1589 36.0615 24.4402C36.3428 24.7215 36.5008 25.103 36.5008 25.5008C36.5008 25.8987 36.3428 26.2802 36.0615 26.5615C35.7802 26.8428 35.3987 27.0008 35.0008 27.0008H24.5008C24.103 27.0008 23.7215 26.8428 23.4402 26.5615C23.1589 26.2802 23.0008 25.8987 23.0008 25.5008V15.0008C23.0008 14.603 23.1589 14.2215 23.4402 13.9402C23.7215 13.6589 24.103 13.5008 24.5008 13.5008C24.8987 13.5008 25.2802 13.6589 25.5615 13.9402C25.8428 14.2215 26.0008 14.603 26.0008 15.0008V24.0008H35.0008Z" fill="url(#paint1_linear_4347_2053)"/>
<defs>
<linearGradient id="paint0_linear_4347_2053" x1="-771.77" y1="45.5152" x2="-770.193" y2="-19.4496" gradientUnits="userSpaceOnUse">
<stop stop-color="#E8DF38"/>
<stop offset="1" stop-color="#41D882"/>
</linearGradient>
<linearGradient id="paint1_linear_4347_2053" x1="-988.982" y1="47.6553" x2="-987.252" y2="-29.1293" gradientUnits="userSpaceOnUse">
<stop stop-color="#E8DF38"/>
<stop offset="1" stop-color="#41D882"/>
</linearGradient>
</defs>
</svg>
