<svg width="49" height="48" viewBox="0 0 49 48" fill="none" xmlns="http://www.w3.org/2000/svg">
<path opacity="0.2" d="M25.75 6.00113V40.5011H7.75V16.0043C7.74984 15.7572 7.81069 15.514 7.92713 15.2962C8.04358 15.0783 8.21202 14.8926 8.4175 14.7555L23.4175 4.75613C23.6432 4.60556 23.9055 4.51901 24.1765 4.50571C24.4475 4.49241 24.717 4.55286 24.9563 4.68061C25.1957 4.80837 25.3959 4.99865 25.5357 5.23119C25.6754 5.46373 25.7495 5.72982 25.75 6.00113Z" fill="url(#paint0_linear_4347_2057)"/>
<path d="M45.25 39.002H42.25V18.002C42.25 17.2063 41.9339 16.4432 41.3713 15.8806C40.8087 15.318 40.0457 15.002 39.25 15.002H27.25V6.00195C27.2504 5.45869 27.1032 4.92554 26.8242 4.45939C26.5452 3.99324 26.1449 3.61159 25.666 3.35518C25.187 3.09877 24.6474 2.97723 24.1048 3.00352C23.5622 3.0298 23.0369 3.20294 22.585 3.50445L7.585 13.502C7.17351 13.7765 6.83629 14.1485 6.60337 14.5849C6.37046 15.0213 6.24906 15.5085 6.25 16.0032V39.002H3.25C2.85218 39.002 2.47064 39.16 2.18934 39.4413C1.90804 39.7226 1.75 40.1041 1.75 40.502C1.75 40.8998 1.90804 41.2813 2.18934 41.5626C2.47064 41.8439 2.85218 42.002 3.25 42.002H45.25C45.6478 42.002 46.0294 41.8439 46.3107 41.5626C46.592 41.2813 46.75 40.8998 46.75 40.502C46.75 40.1041 46.592 39.7226 46.3107 39.4413C46.0294 39.16 45.6478 39.002 45.25 39.002ZM39.25 18.002V39.002H27.25V18.002H39.25ZM9.25 16.0032L24.25 6.00195V39.002H9.25V16.0032ZM21.25 21.002V24.002C21.25 24.3998 21.092 24.7813 20.8107 25.0626C20.5294 25.3439 20.1478 25.502 19.75 25.502C19.3522 25.502 18.9706 25.3439 18.6893 25.0626C18.408 24.7813 18.25 24.3998 18.25 24.002V21.002C18.25 20.6041 18.408 20.2226 18.6893 19.9413C18.9706 19.66 19.3522 19.502 19.75 19.502C20.1478 19.502 20.5294 19.66 20.8107 19.9413C21.092 20.2226 21.25 20.6041 21.25 21.002ZM15.25 21.002V24.002C15.25 24.3998 15.092 24.7813 14.8107 25.0626C14.5294 25.3439 14.1478 25.502 13.75 25.502C13.3522 25.502 12.9706 25.3439 12.6893 25.0626C12.408 24.7813 12.25 24.3998 12.25 24.002V21.002C12.25 20.6041 12.408 20.2226 12.6893 19.9413C12.9706 19.66 13.3522 19.502 13.75 19.502C14.1478 19.502 14.5294 19.66 14.8107 19.9413C15.092 20.2226 15.25 20.6041 15.25 21.002ZM15.25 31.502V34.502C15.25 34.8998 15.092 35.2813 14.8107 35.5626C14.5294 35.8439 14.1478 36.002 13.75 36.002C13.3522 36.002 12.9706 35.8439 12.6893 35.5626C12.408 35.2813 12.25 34.8998 12.25 34.502V31.502C12.25 31.1041 12.408 30.7226 12.6893 30.4413C12.9706 30.16 13.3522 30.002 13.75 30.002C14.1478 30.002 14.5294 30.16 14.8107 30.4413C15.092 30.7226 15.25 31.1041 15.25 31.502ZM21.25 31.502V34.502C21.25 34.8998 21.092 35.2813 20.8107 35.5626C20.5294 35.8439 20.1478 36.002 19.75 36.002C19.3522 36.002 18.9706 35.8439 18.6893 35.5626C18.408 35.2813 18.25 34.8998 18.25 34.502V31.502C18.25 31.1041 18.408 30.7226 18.6893 30.4413C18.9706 30.16 19.3522 30.002 19.75 30.002C20.1478 30.002 20.5294 30.16 20.8107 30.4413C21.092 30.7226 21.25 31.1041 21.25 31.502Z" fill="url(#paint1_linear_4347_2057)"/>
<defs>
<linearGradient id="paint0_linear_4347_2057" x1="-417.579" y1="44.3356" x2="-414.145" y2="-26.4047" gradientUnits="userSpaceOnUse">
<stop stop-color="#E8DF38"/>
<stop offset="1" stop-color="#41D882"/>
</linearGradient>
<linearGradient id="paint1_linear_4347_2057" x1="-1061.57" y1="46.1565" x2="-1059.96" y2="-30.6352" gradientUnits="userSpaceOnUse">
<stop stop-color="#E8DF38"/>
<stop offset="1" stop-color="#41D882"/>
</linearGradient>
</defs>
</svg>
