<svg width="48" height="48" viewBox="0 0 48 48" fill="none" xmlns="http://www.w3.org/2000/svg">
<path opacity="0.2" d="M3 12.9767V35.4767C20.1825 27.0823 27.8175 43.4173 45 35.0229V12.5229C27.8175 20.9173 20.1825 4.58231 3 12.9767ZM24 28.4998C23.11 28.4998 22.24 28.2359 21.4999 27.7414C20.7599 27.247 20.1831 26.5442 19.8425 25.7219C19.5019 24.8996 19.4128 23.9948 19.5865 23.1219C19.7601 22.249 20.1887 21.4472 20.818 20.8178C21.4474 20.1885 22.2492 19.7599 23.1221 19.5863C23.995 19.4126 24.8998 19.5018 25.7221 19.8424C26.5443 20.1829 27.2471 20.7597 27.7416 21.4997C28.2361 22.2398 28.5 23.1098 28.5 23.9998C28.5 25.1933 28.0259 26.3379 27.182 27.1818C26.3381 28.0257 25.1935 28.4998 24 28.4998Z" fill="url(#paint0_linear_4347_2362)"/>
<path d="M45.795 11.2497C45.5791 11.115 45.3324 11.0374 45.0781 11.0242C44.8239 11.0111 44.5706 11.0629 44.3419 11.1747C36.2925 15.1122 30.5438 13.2672 24.4669 11.321C18.0919 9.27912 11.4825 7.16974 2.35125 11.6285C2.09612 11.7509 1.88081 11.9429 1.73018 12.1825C1.57955 12.422 1.49976 12.6993 1.5 12.9822V35.4691C1.49996 35.7236 1.56469 35.974 1.68807 36.1965C1.81146 36.4191 1.98945 36.6067 2.2053 36.7415C2.42115 36.8763 2.66776 36.954 2.92192 36.9673C3.17608 36.9805 3.42943 36.9289 3.65813 36.8172C11.7075 32.8797 17.4562 34.7247 23.5425 36.671C27.15 37.8241 30.825 38.9997 34.98 38.9997C38.1844 38.9997 41.6794 38.3022 45.6506 36.3635C45.9029 36.2403 46.1155 36.0489 46.2643 35.8109C46.4131 35.5729 46.4922 35.2979 46.4925 35.0172V12.5304C46.4948 12.2752 46.4319 12.0237 46.3098 11.7996C46.1878 11.5755 46.0106 11.3863 45.795 11.2497ZM43.5 34.0629C35.8875 37.4697 30.3281 35.6922 24.4575 33.8154C20.85 32.6622 17.175 31.4866 13.02 31.4866C10.1008 31.5008 7.21133 32.0736 4.5075 33.1741V13.9366C12.12 10.5297 17.6794 12.3072 23.55 14.1841C29.4206 16.061 35.4637 17.9997 43.5 14.8291V34.0629ZM24 17.9997C22.8133 17.9997 21.6533 18.3516 20.6666 19.0109C19.6799 19.6702 18.9108 20.6073 18.4567 21.7036C18.0026 22.8 17.8838 24.0064 18.1153 25.1703C18.3468 26.3342 18.9182 27.4033 19.7574 28.2424C20.5965 29.0815 21.6656 29.6529 22.8295 29.8845C23.9933 30.116 25.1997 29.9971 26.2961 29.543C27.3925 29.0889 28.3295 28.3199 28.9888 27.3332C29.6481 26.3465 30 25.1864 30 23.9997C30 22.4084 29.3679 20.8823 28.2426 19.7571C27.1174 18.6319 25.5913 17.9997 24 17.9997ZM24 26.9997C23.4067 26.9997 22.8266 26.8238 22.3333 26.4942C21.8399 26.1645 21.4554 25.696 21.2284 25.1478C21.0013 24.5996 20.9419 23.9964 21.0576 23.4145C21.1734 22.8325 21.4591 22.298 21.8787 21.8784C22.2982 21.4589 22.8328 21.1731 23.4147 21.0574C23.9967 20.9416 24.5999 21.001 25.1481 21.2281C25.6962 21.4552 26.1648 21.8397 26.4944 22.333C26.8241 22.8264 27 23.4064 27 23.9997C27 24.7954 26.6839 25.5585 26.1213 26.1211C25.5587 26.6837 24.7956 26.9997 24 26.9997ZM10.5 17.9997V26.9997C10.5 27.3976 10.342 27.7791 10.0607 28.0604C9.77936 28.3417 9.39783 28.4997 9 28.4997C8.60218 28.4997 8.22065 28.3417 7.93934 28.0604C7.65804 27.7791 7.5 27.3976 7.5 26.9997V17.9997C7.5 17.6019 7.65804 17.2204 7.93934 16.9391C8.22065 16.6578 8.60218 16.4997 9 16.4997C9.39783 16.4997 9.77936 16.6578 10.0607 16.9391C10.342 17.2204 10.5 17.6019 10.5 17.9997ZM37.5 29.9997V20.9997C37.5 20.6019 37.658 20.2204 37.9393 19.9391C38.2206 19.6578 38.6022 19.4997 39 19.4997C39.3978 19.4997 39.7794 19.6578 40.0607 19.9391C40.342 20.2204 40.5 20.6019 40.5 20.9997V29.9997C40.5 30.3976 40.342 30.7791 40.0607 31.0604C39.7794 31.3417 39.3978 31.4997 39 31.4997C38.6022 31.4997 38.2206 31.3417 37.9393 31.0604C37.658 30.7791 37.5 30.3976 37.5 29.9997Z" fill="url(#paint1_linear_4347_2362)"/>
<defs>
<linearGradient id="paint0_linear_4347_2362" x1="-989.435" y1="40.3757" x2="-988.605" y2="-12.795" gradientUnits="userSpaceOnUse">
<stop stop-color="#E8DF38"/>
<stop offset="1" stop-color="#41D882"/>
</linearGradient>
<linearGradient id="paint1_linear_4347_2362" x1="-1061.65" y1="42.1962" x2="-1060.69" y2="-16.8969" gradientUnits="userSpaceOnUse">
<stop stop-color="#E8DF38"/>
<stop offset="1" stop-color="#41D882"/>
</linearGradient>
</defs>
</svg>
