<svg width="48" height="48" viewBox="0 0 48 48" fill="none" xmlns="http://www.w3.org/2000/svg">
<path opacity="0.2" d="M43.0602 25.0524L25.0602 43.0524C24.9219 43.191 24.7577 43.3009 24.5769 43.3759C24.3961 43.4509 24.2022 43.4895 24.0065 43.4895C23.8107 43.4895 23.6169 43.4509 23.4361 43.3759C23.2552 43.3009 23.091 43.191 22.9527 43.0524L4.95272 25.0524C4.81416 24.9141 4.70423 24.7499 4.62923 24.5691C4.55423 24.3882 4.51562 24.1944 4.51562 23.9987C4.51562 23.8029 4.55423 23.6091 4.62923 23.4282C4.70423 23.2474 4.81416 23.0832 4.95272 22.9449L22.9621 4.9449C23.1004 4.80635 23.2646 4.69642 23.4454 4.62142C23.6263 4.54642 23.8201 4.50781 24.0158 4.50781C24.2116 4.50781 24.4054 4.54642 24.5862 4.62142C24.7671 4.69642 24.9313 4.80635 25.0696 4.9449L43.0696 22.9543C43.3453 23.2344 43.4991 23.6122 43.4973 24.0053C43.4956 24.3983 43.3384 24.7747 43.0602 25.0524Z" fill="url(#paint0_linear_4347_2356)"/>
<path d="M44.1249 21.8836L26.1136 3.87238C25.5515 3.31363 24.7912 3 23.9986 3C23.2061 3 22.4457 3.31363 21.8836 3.87238L3.87238 21.8836C3.31363 22.4457 3 23.2061 3 23.9986C3 24.7912 3.31363 25.5515 3.87238 26.1136L21.8836 44.1249C22.4457 44.6836 23.2061 44.9973 23.9986 44.9973C24.7912 44.9973 25.5515 44.6836 26.1136 44.1249L44.1249 26.1136C44.6836 25.5515 44.9973 24.7912 44.9973 23.9986C44.9973 23.2061 44.6836 22.4457 44.1249 21.8836ZM23.9986 5.99863L34.4986 16.4986H29.9986C29.8016 16.4985 29.6064 16.5371 29.4244 16.6124C29.2423 16.6877 29.0768 16.7981 28.9374 16.9374L23.9986 21.8761L19.0599 16.9374C18.9205 16.7981 18.755 16.6877 18.5729 16.6124C18.3908 16.5371 18.1957 16.4985 17.9986 16.4986H13.4986L23.9986 5.99863ZM10.4986 19.4986H17.3761L21.8761 23.9986L17.3761 28.4986H10.4986L5.99863 23.9986L10.4986 19.4986ZM23.9986 41.9986L13.4986 31.4986H17.9986C18.1957 31.4988 18.3908 31.4601 18.5729 31.3848C18.755 31.3095 18.9205 31.1991 19.0599 31.0599L23.9986 26.1193L28.9374 31.0599C29.0768 31.1991 29.2423 31.3095 29.4244 31.3848C29.6064 31.4601 29.8016 31.4988 29.9986 31.4986H34.4986L23.9986 41.9986ZM37.4986 28.4986H30.6211L26.1211 23.9986L30.6211 19.4986H37.4986L41.9986 23.9986L37.4986 28.4986Z" fill="url(#paint1_linear_4347_2356)"/>
<defs>
<linearGradient id="paint0_linear_4347_2356" x1="-916.599" y1="47.6419" x2="-914.736" y2="-29.0987" gradientUnits="userSpaceOnUse">
<stop stop-color="#E8DF38"/>
<stop offset="1" stop-color="#41D882"/>
</linearGradient>
<linearGradient id="paint1_linear_4347_2356" x1="-989.37" y1="49.4709" x2="-987.363" y2="-33.2063" gradientUnits="userSpaceOnUse">
<stop stop-color="#E8DF38"/>
<stop offset="1" stop-color="#41D882"/>
</linearGradient>
</defs>
</svg>
