<svg width="90" height="91" viewBox="0 0 90 91" fill="none" xmlns="http://www.w3.org/2000/svg">
<path opacity="0.2" d="M78.75 23L74.475 46.5055C74.2395 47.8016 73.5566 48.9739 72.5454 49.8181C71.5342 50.6623 70.2587 51.1248 68.9414 51.125H24.8027L19.6875 23H78.75Z" fill="url(#paint0_linear_4494_2189)"/>
<path d="M80.9086 21.1965C80.6446 20.8806 80.3144 20.6264 79.9414 20.4521C79.5684 20.2778 79.1617 20.1874 78.75 20.1875H22.0359L19.8984 8.43477C19.7807 7.78672 19.4393 7.20055 18.9336 6.77845C18.428 6.35635 17.7903 6.1251 17.1316 6.125H8.4375C7.69158 6.125 6.97621 6.42132 6.44876 6.94876C5.92132 7.47621 5.625 8.19158 5.625 8.9375C5.625 9.68342 5.92132 10.3988 6.44876 10.9262C6.97621 11.4537 7.69158 11.75 8.4375 11.75H14.7656L23.7516 61.0707C24.0163 62.5334 24.6627 63.9002 25.6254 65.0328C24.2966 66.2739 23.3376 67.8587 22.8546 69.6116C22.3716 71.3644 22.3835 73.2168 22.8889 74.9633C23.3944 76.7099 24.3737 78.2823 25.7183 79.5062C27.0629 80.7301 28.7201 81.5577 30.5063 81.8972C32.2925 82.2368 34.1379 82.075 35.8378 81.4298C37.5376 80.7846 39.0256 79.6812 40.1366 78.242C41.2477 76.8027 41.9384 75.0839 42.1323 73.2761C42.3261 71.4683 42.0155 69.6421 41.2348 68H57.2027C56.5735 69.3173 56.2479 70.7589 56.25 72.2188C56.25 74.1657 56.8273 76.0688 57.909 77.6876C58.9906 79.3064 60.528 80.5681 62.3267 81.3132C64.1254 82.0582 66.1047 82.2532 68.0142 81.8734C69.9237 81.4935 71.6777 80.556 73.0543 79.1793C74.431 77.8027 75.3685 76.0487 75.7484 74.1392C76.1282 72.2297 75.9332 70.2504 75.1882 68.4517C74.4431 66.653 73.1814 65.1156 71.5626 64.034C69.9438 62.9523 68.0407 62.375 66.0938 62.375H32.052C31.3933 62.3749 30.7556 62.1437 30.25 61.7215C29.7443 61.2994 29.4029 60.7133 29.2852 60.0652L28.1707 53.9375H68.952C70.9279 53.9372 72.8411 53.2434 74.358 51.9771C75.8748 50.7108 76.8991 48.9523 77.2523 47.0082L81.5273 23.5027C81.5997 23.0965 81.5818 22.6793 81.4749 22.2807C81.3679 21.8821 81.1746 21.512 80.9086 21.1965ZM36.5625 72.2188C36.5625 73.0531 36.3151 73.8688 35.8515 74.5626C35.388 75.2563 34.7291 75.7971 33.9582 76.1164C33.1873 76.4357 32.3391 76.5192 31.5207 76.3564C30.7024 76.1937 29.9506 75.7919 29.3606 75.2019C28.7706 74.6119 28.3688 73.8601 28.2061 73.0418C28.0433 72.2234 28.1268 71.3752 28.4461 70.6043C28.7654 69.8334 29.3062 69.1746 29.9999 68.711C30.6937 68.2474 31.5094 68 32.3438 68C33.4626 68 34.5357 68.4445 35.3269 69.2356C36.118 70.0268 36.5625 71.0999 36.5625 72.2188ZM70.3125 72.2188C70.3125 73.0531 70.0651 73.8688 69.6015 74.5626C69.1379 75.2563 68.4791 75.7971 67.7082 76.1164C66.9373 76.4357 66.0891 76.5192 65.2707 76.3564C64.4524 76.1937 63.7006 75.7919 63.1106 75.2019C62.5206 74.6119 62.1188 73.8601 61.9561 73.0418C61.7933 72.2234 61.8768 71.3752 62.1961 70.6043C62.5154 69.8334 63.0562 69.1746 63.7499 68.711C64.4437 68.2474 65.2594 68 66.0938 68C67.2126 68 68.2857 68.4445 69.0769 69.2356C69.868 70.0268 70.3125 71.0999 70.3125 72.2188ZM71.7188 46.0027C71.6007 46.6526 71.2577 47.2401 70.7499 47.6624C70.2421 48.0847 69.6019 48.3149 68.9414 48.3125H27.1477L23.059 25.8125H75.3785L71.7188 46.0027Z" fill="url(#paint1_linear_4494_2189)"/>
<defs>
<linearGradient id="paint0_linear_4494_2189" x1="-1375.92" y1="54.1209" x2="-1375.28" y2="-1.27207" gradientUnits="userSpaceOnUse">
<stop stop-color="#E8DF38"/>
<stop offset="1" stop-color="#41D882"/>
</linearGradient>
<linearGradient id="paint1_linear_4494_2189" x1="-1788.93" y1="90.1603" x2="-1785.3" y2="-59.3483" gradientUnits="userSpaceOnUse">
<stop stop-color="#E8DF38"/>
<stop offset="1" stop-color="#41D882"/>
</linearGradient>
</defs>
</svg>
