<svg width="20" height="20" viewBox="0 0 20 20" fill="none" xmlns="http://www.w3.org/2000/svg">
<path opacity="0.2" d="M16.875 10.625C16.875 11.9847 16.4718 13.314 15.7164 14.4445C14.9609 15.5751 13.8872 16.4563 12.631 16.9767C11.3747 17.497 9.99238 17.6332 8.65876 17.3679C7.32514 17.1026 6.10013 16.4478 5.13864 15.4864C4.17716 14.5249 3.52238 13.2999 3.2571 11.9662C2.99183 10.6326 3.12798 9.25029 3.64833 7.99405C4.16868 6.73781 5.04987 5.66408 6.18046 4.90865C7.31105 4.15321 8.64026 3.75 10 3.75C11.8234 3.75 13.5721 4.47433 14.8614 5.76364C16.1507 7.05295 16.875 8.80164 16.875 10.625Z" fill="#FF3C4F"/>
<path d="M10.0003 3.12535C8.51699 3.12535 7.06694 3.56521 5.83357 4.38933C4.6002 5.21344 3.63891 6.38478 3.07125 7.75522C2.50359 9.12567 2.35507 10.6337 2.64446 12.0885C2.93385 13.5434 3.64815 14.8798 4.69705 15.9286C5.74594 16.9775 7.08231 17.6918 8.53717 17.9812C9.99203 18.2706 11.5 18.1221 12.8705 17.5544C14.2409 16.9868 15.4123 16.0255 16.2364 14.7921C17.0605 13.5588 17.5003 12.1087 17.5003 10.6253C17.4981 8.63692 16.7072 6.73059 15.3011 5.32456C13.8951 3.91853 11.9888 3.12762 10.0003 3.12535ZM10.0003 16.8753C8.76421 16.8753 7.55584 16.5088 6.52803 15.822C5.50023 15.1353 4.69915 14.1592 4.2261 13.0171C3.75305 11.8751 3.62928 10.6184 3.87044 9.40603C4.1116 8.19365 4.70685 7.08001 5.58093 6.20593C6.45501 5.33185 7.56865 4.7366 8.78103 4.49544C9.99341 4.25428 11.2501 4.37805 12.3921 4.8511C13.5342 5.32415 14.5103 6.12523 15.197 7.15303C15.8838 8.18084 16.2503 9.38921 16.2503 10.6253C16.2485 12.2824 15.5894 13.871 14.4177 15.0427C13.246 16.2144 11.6574 16.8735 10.0003 16.8753ZM4.81753 2.94253L2.31754 5.44253C2.20026 5.55981 2.0412 5.62569 1.87535 5.62569C1.7095 5.62569 1.55044 5.55981 1.43316 5.44253C1.31588 5.32526 1.25 5.1662 1.25 5.00035C1.25 4.83449 1.31588 4.67544 1.43316 4.55816L3.93316 2.05816C4.05044 1.94088 4.2095 1.875 4.37535 1.875C4.5412 1.875 4.70026 1.94088 4.81753 2.05816C4.93481 2.17544 5.00069 2.33449 5.00069 2.50035C5.00069 2.6662 4.93481 2.82526 4.81753 2.94253ZM18.5675 5.44253C18.5095 5.50065 18.4406 5.54674 18.3647 5.5782C18.2888 5.60965 18.2075 5.62584 18.1253 5.62584C18.0432 5.62584 17.9619 5.60965 17.886 5.5782C17.8101 5.54674 17.7412 5.50065 17.6832 5.44253L15.1832 2.94253C15.0659 2.82526 15 2.6662 15 2.50035C15 2.33449 15.0659 2.17544 15.1832 2.05816C15.3004 1.94088 15.4595 1.875 15.6253 1.875C15.7912 1.875 15.9503 1.94088 16.0675 2.05816L18.5675 4.55816C18.6256 4.61621 18.6717 4.68514 18.7032 4.76101C18.7347 4.83688 18.7508 4.91821 18.7508 5.00035C18.7508 5.08248 18.7347 5.16381 18.7032 5.23968C18.6717 5.31556 18.6256 5.38449 18.5675 5.44253ZM14.3753 10.0003C14.5411 10.0003 14.7001 10.0662 14.8173 10.1834C14.9345 10.3006 15.0003 10.4596 15.0003 10.6253C15.0003 10.7911 14.9345 10.9501 14.8173 11.0673C14.7001 11.1845 14.5411 11.2503 14.3753 11.2503H10.0003C9.83459 11.2503 9.67562 11.1845 9.55841 11.0673C9.4412 10.9501 9.37535 10.7911 9.37535 10.6253V6.25035C9.37535 6.08459 9.4412 5.92562 9.55841 5.80841C9.67562 5.6912 9.83459 5.62535 10.0003 5.62535C10.1661 5.62535 10.3251 5.6912 10.4423 5.80841C10.5595 5.92562 10.6253 6.08459 10.6253 6.25035V10.0003H14.3753Z" fill="#FF3C4F"/>
</svg>
