<svg width="44" height="42" viewBox="0 0 44 42" fill="none" xmlns="http://www.w3.org/2000/svg">
<path d="M39.5667 0H3.9876C3.04398 0 2.13901 0.368749 1.47177 1.02513C0.804537 1.6815 0.429688 2.57174 0.429688 3.5V38.5C0.429688 39.4283 0.804537 40.3185 1.47177 40.9749C2.13901 41.6312 3.04398 42 3.9876 42H39.5667C40.5103 42 41.4153 41.6312 42.0825 40.9749C42.7497 40.3185 43.1246 39.4283 43.1246 38.5V3.5C43.1246 2.57174 42.7497 1.6815 42.0825 1.02513C41.4153 0.368749 40.5103 0 39.5667 0ZM12.8824 28C13.2342 28 13.5782 28.1026 13.8707 28.2949C14.1633 28.4872 14.3913 28.7605 14.5259 29.0803C14.6606 29.4001 14.6958 29.7519 14.6271 30.0914C14.5585 30.4309 14.3891 30.7427 14.1403 30.9874C13.8915 31.2322 13.5745 31.3988 13.2294 31.4664C12.8843 31.5339 12.5267 31.4992 12.2016 31.3668C11.8765 31.2343 11.5987 31.01 11.4032 30.7222C11.2077 30.4345 11.1034 30.0961 11.1034 29.75C11.1034 29.2859 11.2908 28.8407 11.6245 28.5126C11.9581 28.1844 12.4106 28 12.8824 28ZM3.9876 3.5H11.1034V24.8019C9.91647 25.2147 8.91609 26.027 8.27909 27.0952C7.64209 28.1634 7.40947 29.4188 7.62236 30.6394C7.83525 31.86 8.47994 32.9673 9.44248 33.7656C10.405 34.5638 11.6234 35.0016 12.8824 35.0016C14.1413 35.0016 15.3597 34.5638 16.3223 33.7656C17.2848 32.9673 17.9295 31.86 18.1424 30.6394C18.3553 29.4188 18.1226 28.1634 17.4856 27.0952C16.8486 26.027 15.8483 25.2147 14.6613 24.8019V18.2241L25.335 28.7241V38.5H3.9876V3.5ZM39.5667 38.5H28.893V28C28.8931 27.7701 28.8473 27.5425 28.758 27.33C28.6687 27.1176 28.5378 26.9245 28.3726 26.7619L14.6613 13.2759V3.5H21.7771V8.75C21.777 8.97988 21.8228 9.20755 21.9121 9.41999C22.0014 9.63243 22.1323 9.82549 22.2975 9.98813L25.8554 13.4881C25.5108 14.1939 25.333 14.9671 25.335 15.75C25.335 16.7884 25.648 17.8034 26.2345 18.6667C26.8209 19.5301 27.6544 20.203 28.6296 20.6004C29.6048 20.9977 30.6778 21.1017 31.7131 20.8991C32.7483 20.6966 33.6993 20.1965 34.4456 19.4623C35.192 18.7281 35.7003 17.7926 35.9062 16.7742C36.1122 15.7558 36.0065 14.7002 35.6025 13.7409C35.1986 12.7816 34.5146 11.9617 33.6369 11.3848C32.7593 10.8079 31.7274 10.5 30.6719 10.5C29.8759 10.4986 29.0898 10.6744 28.3726 11.0141L25.335 8.02594V3.5H39.5667V38.5ZM30.6719 14C31.0238 14 31.3677 14.1026 31.6602 14.2949C31.9528 14.4872 32.1808 14.7605 32.3155 15.0803C32.4501 15.4001 32.4853 15.7519 32.4167 16.0914C32.348 16.4309 32.1786 16.7427 31.9298 16.9874C31.681 17.2322 31.3641 17.3988 31.019 17.4664C30.6739 17.5339 30.3162 17.4992 29.9911 17.3668C29.6661 17.2343 29.3882 17.01 29.1928 16.7222C28.9973 16.4345 28.893 16.0961 28.893 15.75C28.893 15.2859 29.0804 14.8408 29.414 14.5126C29.7476 14.1844 30.2001 14 30.6719 14Z" fill="black"/>
<path d="M39.5667 0H3.9876C3.04398 0 2.13901 0.368749 1.47177 1.02513C0.804537 1.6815 0.429688 2.57174 0.429688 3.5V38.5C0.429688 39.4283 0.804537 40.3185 1.47177 40.9749C2.13901 41.6312 3.04398 42 3.9876 42H39.5667C40.5103 42 41.4153 41.6312 42.0825 40.9749C42.7497 40.3185 43.1246 39.4283 43.1246 38.5V3.5C43.1246 2.57174 42.7497 1.6815 42.0825 1.02513C41.4153 0.368749 40.5103 0 39.5667 0ZM12.8824 28C13.2342 28 13.5782 28.1026 13.8707 28.2949C14.1633 28.4872 14.3913 28.7605 14.5259 29.0803C14.6606 29.4001 14.6958 29.7519 14.6271 30.0914C14.5585 30.4309 14.3891 30.7427 14.1403 30.9874C13.8915 31.2322 13.5745 31.3988 13.2294 31.4664C12.8843 31.5339 12.5267 31.4992 12.2016 31.3668C11.8765 31.2343 11.5987 31.01 11.4032 30.7222C11.2077 30.4345 11.1034 30.0961 11.1034 29.75C11.1034 29.2859 11.2908 28.8407 11.6245 28.5126C11.9581 28.1844 12.4106 28 12.8824 28ZM3.9876 3.5H11.1034V24.8019C9.91647 25.2147 8.91609 26.027 8.27909 27.0952C7.64209 28.1634 7.40947 29.4188 7.62236 30.6394C7.83525 31.86 8.47994 32.9673 9.44248 33.7656C10.405 34.5638 11.6234 35.0016 12.8824 35.0016C14.1413 35.0016 15.3597 34.5638 16.3223 33.7656C17.2848 32.9673 17.9295 31.86 18.1424 30.6394C18.3553 29.4188 18.1226 28.1634 17.4856 27.0952C16.8486 26.027 15.8483 25.2147 14.6613 24.8019V18.2241L25.335 28.7241V38.5H3.9876V3.5ZM39.5667 38.5H28.893V28C28.8931 27.7701 28.8473 27.5425 28.758 27.33C28.6687 27.1176 28.5378 26.9245 28.3726 26.7619L14.6613 13.2759V3.5H21.7771V8.75C21.777 8.97988 21.8228 9.20755 21.9121 9.41999C22.0014 9.63243 22.1323 9.82549 22.2975 9.98813L25.8554 13.4881C25.5108 14.1939 25.333 14.9671 25.335 15.75C25.335 16.7884 25.648 17.8034 26.2345 18.6667C26.8209 19.5301 27.6544 20.203 28.6296 20.6004C29.6048 20.9977 30.6778 21.1017 31.7131 20.8991C32.7483 20.6966 33.6993 20.1965 34.4456 19.4623C35.192 18.7281 35.7003 17.7926 35.9062 16.7742C36.1122 15.7558 36.0065 14.7002 35.6025 13.7409C35.1986 12.7816 34.5146 11.9617 33.6369 11.3848C32.7593 10.8079 31.7274 10.5 30.6719 10.5C29.8759 10.4986 29.0898 10.6744 28.3726 11.0141L25.335 8.02594V3.5H39.5667V38.5ZM30.6719 14C31.0238 14 31.3677 14.1026 31.6602 14.2949C31.9528 14.4872 32.1808 14.7605 32.3155 15.0803C32.4501 15.4001 32.4853 15.7519 32.4167 16.0914C32.348 16.4309 32.1786 16.7427 31.9298 16.9874C31.681 17.2322 31.3641 17.3988 31.019 17.4664C30.6739 17.5339 30.3162 17.4992 29.9911 17.3668C29.6661 17.2343 29.3882 17.01 29.1928 16.7222C28.9973 16.4345 28.893 16.0961 28.893 15.75C28.893 15.2859 29.0804 14.8408 29.414 14.5126C29.7476 14.1844 30.2001 14 30.6719 14Z" fill="url(#paint0_linear_3459_2040)"/>
<defs>
<linearGradient id="paint0_linear_3459_2040" x1="-1008.43" y1="46.4739" x2="-1006.45" y2="-36.2102" gradientUnits="userSpaceOnUse">
<stop stop-color="#E8DF38"/>
<stop offset="1" stop-color="#41D882"/>
</linearGradient>
</defs>
</svg>
