<svg width="46" height="46" viewBox="0 0 46 46" fill="none" xmlns="http://www.w3.org/2000/svg">
<path opacity="0.2" d="M41.6308 21.3702V10.113C41.6308 9.73982 41.4825 9.3819 41.2186 9.11801C40.9547 8.85412 40.5968 8.70587 40.2236 8.70587H6.45207C6.07887 8.70587 5.72096 8.85412 5.45707 9.11801C5.19317 9.3819 5.04492 9.73982 5.04492 10.113V21.3702C5.04492 21.7434 5.19317 22.1013 5.45707 22.3652C5.72096 22.6291 6.07887 22.7773 6.45207 22.7773H40.2236C40.5968 22.7773 40.9547 22.6291 41.2186 22.3652C41.4825 22.1013 41.6308 21.7434 41.6308 21.3702Z" fill="white"/>
<path d="M43.0369 21.3702V10.113C43.0369 9.36662 42.7403 8.65079 42.2126 8.12301C41.6848 7.59523 40.969 7.29872 40.2226 7.29872H6.45101C5.70462 7.29872 4.98879 7.59523 4.46101 8.12301C3.93322 8.65079 3.63672 9.36662 3.63672 10.113V21.3702C3.63672 22.1166 3.93322 22.8324 4.46101 23.3602C4.98879 23.888 5.70462 24.1845 6.45101 24.1845H14.8939C15.2671 24.1845 15.625 24.0362 15.8889 23.7723C16.1528 23.5085 16.301 23.1505 16.301 22.7773C16.301 22.4041 16.1528 22.0462 15.8889 21.7823C15.625 21.5184 15.2671 21.3702 14.8939 21.3702H6.45101V10.113H40.2226V21.3702H31.7797C31.4065 21.3702 31.0486 21.5184 30.7847 21.7823C30.5208 22.0462 30.3725 22.4041 30.3725 22.7773C30.3725 23.1505 30.5208 23.5085 30.7847 23.7723C31.0486 24.0362 31.4065 24.1845 31.7797 24.1845H40.2226C40.969 24.1845 41.6848 23.888 42.2126 23.3602C42.7403 22.8324 43.0369 22.1166 43.0369 21.3702ZM15.8895 31.6318L21.9296 37.6738V22.7773C21.9296 22.4041 22.0779 22.0462 22.3418 21.7823C22.6057 21.5184 22.9636 21.3702 23.3368 21.3702C23.71 21.3702 24.0679 21.5184 24.3318 21.7823C24.5957 22.0462 24.7439 22.4041 24.7439 22.7773V37.6738L30.7841 31.6318C31.0482 31.3678 31.4063 31.2194 31.7797 31.2194C32.1531 31.2194 32.5112 31.3678 32.7752 31.6318C33.0393 31.8959 33.1876 32.254 33.1876 32.6274C33.1876 33.0008 33.0393 33.3589 32.7752 33.6229L24.3323 42.0658C24.2017 42.1966 24.0465 42.3004 23.8756 42.3713C23.7048 42.4421 23.5217 42.4785 23.3368 42.4785C23.1519 42.4785 22.9688 42.4421 22.7979 42.3713C22.6271 42.3004 22.4719 42.1966 22.3412 42.0658L13.8983 33.6229C13.6343 33.3589 13.486 33.0008 13.486 32.6274C13.486 32.254 13.6343 31.8959 13.8983 31.6318C14.1624 31.3678 14.5205 31.2194 14.8939 31.2194C15.2673 31.2194 15.6254 31.3678 15.8895 31.6318ZM36.0011 15.7416C36.0011 16.1591 35.8773 16.5672 35.6454 16.9143C35.4135 17.2614 35.0838 17.5319 34.6981 17.6917C34.3124 17.8514 33.8881 17.8932 33.4786 17.8118C33.0692 17.7303 32.6931 17.5293 32.3979 17.2341C32.1027 16.9389 31.9017 16.5628 31.8202 16.1534C31.7388 15.7439 31.7806 15.3196 31.9403 14.9339C32.1001 14.5482 32.3706 14.2185 32.7177 13.9866C33.0648 13.7547 33.4729 13.6309 33.8904 13.6309C34.4502 13.6309 34.9871 13.8533 35.3829 14.2491C35.7787 14.6449 36.0011 15.1818 36.0011 15.7416Z" fill="white"/>
</svg>
