<svg width="56" height="56" viewBox="0 0 56 56" fill="none" xmlns="http://www.w3.org/2000/svg">
<path opacity="0.2" d="M29.8596 32.9121C30.0676 34.4755 29.9483 36.0651 29.5091 37.5799C29.0699 39.0947 28.3205 40.5016 27.3085 41.7113C26.2965 42.921 25.0439 43.907 23.6304 44.6068C22.2169 45.3065 20.6734 45.7046 19.0978 45.7758C17.5222 45.8471 15.949 45.5899 14.4782 45.0206C13.0073 44.4513 11.6709 43.5824 10.5538 42.4689C9.43675 41.3555 8.56343 40.022 7.98933 38.553C7.41523 37.084 7.15289 35.5116 7.21897 33.9358L22.9493 29.4427C23.2627 30.5403 23.9253 31.5058 24.8368 32.1931C25.7482 32.8803 26.8588 33.2517 28.0002 33.2511C28.6357 33.2521 29.2659 33.1364 29.8596 32.9099V32.9121ZM22.818 27.1568C22.9349 26.4397 23.1993 25.7547 23.5946 25.1451C23.9898 24.5355 24.5073 24.0145 25.1143 23.6152C25.7213 23.2159 26.4045 22.947 27.1208 22.8253C27.8371 22.7037 28.5708 22.7321 29.2755 22.9086L33.2502 7.03832C31.9184 6.19759 30.4264 5.64261 28.8689 5.40854C27.3113 5.17447 25.7221 5.26641 24.202 5.67854C22.6818 6.09066 21.2638 6.81399 20.0378 7.80271C18.8118 8.79142 17.8044 10.024 17.0796 11.4223C16.3547 12.8206 15.9282 14.3542 15.8269 15.926C15.7257 17.4978 15.9519 19.0735 16.4914 20.5532C17.0308 22.033 17.8717 23.3846 18.9608 24.5224C20.0498 25.6603 21.3633 26.5596 22.818 27.1633V27.1568ZM43.969 23.0793C42.0133 21.9497 39.7657 21.4278 37.5125 21.5802C35.2592 21.7325 33.1023 22.5521 31.3165 23.9346C31.8786 24.3943 32.3392 24.9656 32.6692 25.6124C32.9992 26.2592 33.1915 26.9674 33.2338 27.6923C33.2762 28.4172 33.1677 29.143 32.9152 29.8238C32.6628 30.5046 32.2718 31.1257 31.7671 31.6477L43.5227 43.0227C45.3335 42.0822 46.858 40.672 47.9365 38.9398C49.0149 37.2077 49.6075 35.2173 49.6523 33.1773C49.697 31.1374 49.1922 29.1229 48.1907 27.3451C47.1893 25.5673 45.7281 24.0916 43.9602 23.0727L43.969 23.0793Z" fill="#DF3D3D"/>
<path d="M50.9679 29.5319C50.438 27.5524 49.4519 25.7244 48.0886 24.1945C46.7253 22.6645 45.0227 21.475 43.1172 20.7212C41.2116 19.9675 39.156 19.6704 37.115 19.8537C35.074 20.0371 33.1043 20.6958 31.3636 21.7772L34.9489 7.46218C35.0378 7.10653 35.0128 6.73192 34.8774 6.39123C34.742 6.05055 34.503 5.76099 34.1942 5.56343C32.7058 4.62358 31.0435 3.99274 29.3063 3.70844C27.5691 3.42414 25.7925 3.4922 24.0822 3.90855C22.3718 4.32491 20.7627 5.08107 19.3505 6.13202C17.9384 7.18298 16.7521 8.50726 15.8622 10.0261C14.9723 11.5449 14.397 13.2272 14.1706 14.9728C13.9442 16.7185 14.0712 18.4919 14.5442 20.1875C15.0171 21.8831 15.8263 23.4662 16.9236 24.8426C18.0209 26.2191 19.3838 27.3607 20.9314 28.1997L6.74105 32.2531C6.38852 32.3535 6.07641 32.5621 5.84877 32.8494C5.62112 33.1367 5.48944 33.4882 5.4723 33.8544C5.33762 36.8423 6.22751 39.7866 7.9946 42.1998C9.76169 44.6129 12.3 46.3501 15.1892 47.1237C16.3035 47.4229 17.4522 47.5752 18.6061 47.5766C20.3643 47.5719 22.1037 47.2145 23.7212 46.5254C25.3388 45.8363 26.8016 44.8296 28.0231 43.5649C29.2445 42.3002 30.1997 40.8033 30.8321 39.1627C31.4646 37.5222 31.7613 35.7714 31.7048 34.0141L42.3098 44.2778C42.5735 44.533 42.9108 44.6988 43.2739 44.7518C43.637 44.8047 44.0076 44.7423 44.3332 44.5731C46.9867 43.1964 49.0907 40.955 50.2972 38.2199C51.5037 35.4848 51.7403 32.4198 50.9679 29.5319ZM24.4992 28.0006C24.4992 27.3084 24.7045 26.6317 25.089 26.0561C25.4736 25.4806 26.0202 25.0319 26.6598 24.767C27.2993 24.5021 28.0031 24.4328 28.682 24.5679C29.3609 24.7029 29.9846 25.0363 30.4741 25.5257C30.9635 26.0152 31.2969 26.6389 31.4319 27.3178C31.567 27.9967 31.4977 28.7005 31.2328 29.34C30.9679 29.9796 30.5193 30.5262 29.9437 30.9108C29.3681 31.2953 28.6914 31.5006 27.9992 31.5006C27.0709 31.5006 26.1807 31.1319 25.5243 30.4755C24.8679 29.8191 24.4992 28.9289 24.4992 28.0006ZM17.4992 16.6256C17.4986 15.0038 17.9079 13.4081 18.689 11.9868C19.4701 10.5654 20.5977 9.36453 21.9671 8.49554C23.3364 7.62656 24.9032 7.1177 26.5218 7.0162C28.1405 6.91471 29.7585 7.22388 31.2257 7.915L27.9489 21.0006C26.695 21.01 25.4667 21.3561 24.3923 22.0025C23.3179 22.649 22.4369 23.5722 21.8414 24.6756C20.5046 23.8014 19.4073 22.6073 18.649 21.2015C17.8907 19.7957 17.4955 18.2229 17.4992 16.6256ZM23.4054 42.7816C22.0012 43.5929 20.4147 44.0363 18.7933 44.0706C17.1719 44.1048 15.5681 43.7288 14.1309 42.9775C12.6937 42.2261 11.4696 41.1238 10.5724 39.7728C9.67509 38.4219 9.13373 36.8661 8.99855 35.25L21.9726 31.5444C22.5895 32.5951 23.4699 33.4667 24.5269 34.0729C25.5838 34.6791 26.7807 34.9989 27.9992 35.0006H28.1982C28.1102 36.594 27.6257 38.1403 26.7888 39.499C25.9518 40.8578 24.7889 41.9861 23.4054 42.7816ZM46.6301 37.7503C45.922 38.9785 44.9509 40.0348 43.7864 40.8434L34.0914 31.4612C34.7118 30.3716 35.0272 29.1349 35.0045 27.8812C34.9818 26.6275 34.6218 25.4031 33.9623 24.3366C35.8133 23.4021 37.9166 23.0904 39.959 23.4479C42.0015 23.8053 43.8739 24.8127 45.2975 26.3202C46.7212 27.8277 47.62 29.7547 47.8601 31.8142C48.1002 33.8737 47.6688 35.9557 46.6301 37.7503Z" fill="black"/>
<path d="M50.9679 29.5319C50.438 27.5524 49.4519 25.7244 48.0886 24.1945C46.7253 22.6645 45.0227 21.475 43.1172 20.7212C41.2116 19.9675 39.156 19.6704 37.115 19.8537C35.074 20.0371 33.1043 20.6958 31.3636 21.7772L34.9489 7.46218C35.0378 7.10653 35.0128 6.73192 34.8774 6.39123C34.742 6.05055 34.503 5.76099 34.1942 5.56343C32.7058 4.62358 31.0435 3.99274 29.3063 3.70844C27.5691 3.42414 25.7925 3.4922 24.0822 3.90855C22.3718 4.32491 20.7627 5.08107 19.3505 6.13202C17.9384 7.18298 16.7521 8.50726 15.8622 10.0261C14.9723 11.5449 14.397 13.2272 14.1706 14.9728C13.9442 16.7185 14.0712 18.4919 14.5442 20.1875C15.0171 21.8831 15.8263 23.4662 16.9236 24.8426C18.0209 26.2191 19.3838 27.3607 20.9314 28.1997L6.74105 32.2531C6.38852 32.3535 6.07641 32.5621 5.84877 32.8494C5.62112 33.1367 5.48944 33.4882 5.4723 33.8544C5.33762 36.8423 6.22751 39.7866 7.9946 42.1998C9.76169 44.6129 12.3 46.3501 15.1892 47.1237C16.3035 47.4229 17.4522 47.5752 18.6061 47.5766C20.3643 47.5719 22.1037 47.2145 23.7212 46.5254C25.3388 45.8363 26.8016 44.8296 28.0231 43.5649C29.2445 42.3002 30.1997 40.8033 30.8321 39.1627C31.4646 37.5222 31.7613 35.7714 31.7048 34.0141L42.3098 44.2778C42.5735 44.533 42.9108 44.6988 43.2739 44.7518C43.637 44.8047 44.0076 44.7423 44.3332 44.5731C46.9867 43.1964 49.0907 40.955 50.2972 38.2199C51.5037 35.4848 51.7403 32.4198 50.9679 29.5319ZM24.4992 28.0006C24.4992 27.3084 24.7045 26.6317 25.089 26.0561C25.4736 25.4806 26.0202 25.0319 26.6598 24.767C27.2993 24.5021 28.0031 24.4328 28.682 24.5679C29.3609 24.7029 29.9846 25.0363 30.4741 25.5257C30.9635 26.0152 31.2969 26.6389 31.4319 27.3178C31.567 27.9967 31.4977 28.7005 31.2328 29.34C30.9679 29.9796 30.5193 30.5262 29.9437 30.9108C29.3681 31.2953 28.6914 31.5006 27.9992 31.5006C27.0709 31.5006 26.1807 31.1319 25.5243 30.4755C24.8679 29.8191 24.4992 28.9289 24.4992 28.0006ZM17.4992 16.6256C17.4986 15.0038 17.9079 13.4081 18.689 11.9868C19.4701 10.5654 20.5977 9.36453 21.9671 8.49554C23.3364 7.62656 24.9032 7.1177 26.5218 7.0162C28.1405 6.91471 29.7585 7.22388 31.2257 7.915L27.9489 21.0006C26.695 21.01 25.4667 21.3561 24.3923 22.0025C23.3179 22.649 22.4369 23.5722 21.8414 24.6756C20.5046 23.8014 19.4073 22.6073 18.649 21.2015C17.8907 19.7957 17.4955 18.2229 17.4992 16.6256ZM23.4054 42.7816C22.0012 43.5929 20.4147 44.0363 18.7933 44.0706C17.1719 44.1048 15.5681 43.7288 14.1309 42.9775C12.6937 42.2261 11.4696 41.1238 10.5724 39.7728C9.67509 38.4219 9.13373 36.8661 8.99855 35.25L21.9726 31.5444C22.5895 32.5951 23.4699 33.4667 24.5269 34.0729C25.5838 34.6791 26.7807 34.9989 27.9992 35.0006H28.1982C28.1102 36.594 27.6257 38.1403 26.7888 39.499C25.9518 40.8578 24.7889 41.9861 23.4054 42.7816ZM46.6301 37.7503C45.922 38.9785 44.9509 40.0348 43.7864 40.8434L34.0914 31.4612C34.7118 30.3716 35.0272 29.1349 35.0045 27.8812C34.9818 26.6275 34.6218 25.4031 33.9623 24.3366C35.8133 23.4021 37.9166 23.0904 39.959 23.4479C42.0015 23.8053 43.8739 24.8127 45.2975 26.3202C46.7212 27.8277 47.62 29.7547 47.8601 31.8142C48.1002 33.8737 47.6688 35.9557 46.6301 37.7503Z" fill="#DF3D3D"/>
</svg>
