<svg width="54" height="34" viewBox="0 0 54 34" fill="none" xmlns="http://www.w3.org/2000/svg">
<path d="M49.8674 0.25H3.61455C2.67093 0.25 1.76597 0.618749 1.09873 1.27513C0.431491 1.9315 0.0566406 2.82174 0.0566406 3.75V31.75C0.0566406 32.2141 0.244066 32.6592 0.577684 32.9874C0.911303 33.3156 1.36379 33.5 1.83559 33.5C2.3074 33.5 2.75989 33.3156 3.09351 32.9874C3.42712 32.6592 3.61455 32.2141 3.61455 31.75V28.25H7.17246V31.75C7.17246 32.2141 7.35988 32.6592 7.6935 32.9874C8.02712 33.3156 8.4796 33.5 8.95141 33.5C9.42322 33.5 9.8757 33.3156 10.2093 32.9874C10.5429 32.6592 10.7304 32.2141 10.7304 31.75V28.25H14.2883V31.75C14.2883 32.2141 14.4757 32.6592 14.8093 32.9874C15.1429 33.3156 15.5954 33.5 16.0672 33.5C16.539 33.5 16.9915 33.3156 17.3251 32.9874C17.6588 32.6592 17.8462 32.2141 17.8462 31.75V28.25H21.4041V31.75C21.4041 32.2141 21.5915 32.6592 21.9251 32.9874C22.2588 33.3156 22.7112 33.5 23.183 33.5C23.6549 33.5 24.1073 33.3156 24.441 32.9874C24.7746 32.6592 24.962 32.2141 24.962 31.75V28.25H28.5199V31.75C28.5199 32.2141 28.7073 32.6592 29.041 32.9874C29.3746 33.3156 29.8271 33.5 30.2989 33.5C30.7707 33.5 31.2232 33.3156 31.5568 32.9874C31.8904 32.6592 32.0778 32.2141 32.0778 31.75V28.25H35.6357V31.75C35.6357 32.2141 35.8232 32.6592 36.1568 32.9874C36.4904 33.3156 36.9429 33.5 37.4147 33.5C37.8865 33.5 38.339 33.3156 38.6726 32.9874C39.0062 32.6592 39.1936 32.2141 39.1936 31.75V28.25H42.7515V31.75C42.7515 32.2141 42.939 32.6592 43.2726 32.9874C43.6062 33.3156 44.0587 33.5 44.5305 33.5C45.0023 33.5 45.4548 33.3156 45.7884 32.9874C46.122 32.6592 46.3095 32.2141 46.3095 31.75V28.25H49.8674V31.75C49.8674 32.2141 50.0548 32.6592 50.3884 32.9874C50.722 33.3156 51.1745 33.5 51.6463 33.5C52.1181 33.5 52.5706 33.3156 52.9042 32.9874C53.2378 32.6592 53.4253 32.2141 53.4253 31.75V3.75C53.4253 2.82174 53.0504 1.9315 52.3832 1.27513C51.7159 0.618749 50.811 0.25 49.8674 0.25ZM3.61455 3.75H49.8674V24.75H3.61455V3.75ZM23.183 21.25C23.6549 21.25 24.1073 21.0656 24.441 20.7374C24.7746 20.4093 24.962 19.9641 24.962 19.5V9C24.962 8.53587 24.7746 8.09075 24.441 7.76256C24.1073 7.43437 23.6549 7.25 23.183 7.25H8.95141C8.4796 7.25 8.02712 7.43437 7.6935 7.76256C7.35988 8.09075 7.17246 8.53587 7.17246 9V19.5C7.17246 19.9641 7.35988 20.4093 7.6935 20.7374C8.02712 21.0656 8.4796 21.25 8.95141 21.25H23.183ZM10.7304 10.75H21.4041V17.75H10.7304V10.75ZM30.2989 21.25H44.5305C45.0023 21.25 45.4548 21.0656 45.7884 20.7374C46.122 20.4093 46.3095 19.9641 46.3095 19.5V9C46.3095 8.53587 46.122 8.09075 45.7884 7.76256C45.4548 7.43437 45.0023 7.25 44.5305 7.25H30.2989C29.8271 7.25 29.3746 7.43437 29.041 7.76256C28.7073 8.09075 28.5199 8.53587 28.5199 9V19.5C28.5199 19.9641 28.7073 20.4093 29.041 20.7374C29.3746 21.0656 29.8271 21.25 30.2989 21.25ZM32.0778 10.75H42.7515V17.75H32.0778V10.75Z" fill="black"/>
<path d="M49.8674 0.25H3.61455C2.67093 0.25 1.76597 0.618749 1.09873 1.27513C0.431491 1.9315 0.0566406 2.82174 0.0566406 3.75V31.75C0.0566406 32.2141 0.244066 32.6592 0.577684 32.9874C0.911303 33.3156 1.36379 33.5 1.83559 33.5C2.3074 33.5 2.75989 33.3156 3.09351 32.9874C3.42712 32.6592 3.61455 32.2141 3.61455 31.75V28.25H7.17246V31.75C7.17246 32.2141 7.35988 32.6592 7.6935 32.9874C8.02712 33.3156 8.4796 33.5 8.95141 33.5C9.42322 33.5 9.8757 33.3156 10.2093 32.9874C10.5429 32.6592 10.7304 32.2141 10.7304 31.75V28.25H14.2883V31.75C14.2883 32.2141 14.4757 32.6592 14.8093 32.9874C15.1429 33.3156 15.5954 33.5 16.0672 33.5C16.539 33.5 16.9915 33.3156 17.3251 32.9874C17.6588 32.6592 17.8462 32.2141 17.8462 31.75V28.25H21.4041V31.75C21.4041 32.2141 21.5915 32.6592 21.9251 32.9874C22.2588 33.3156 22.7112 33.5 23.183 33.5C23.6549 33.5 24.1073 33.3156 24.441 32.9874C24.7746 32.6592 24.962 32.2141 24.962 31.75V28.25H28.5199V31.75C28.5199 32.2141 28.7073 32.6592 29.041 32.9874C29.3746 33.3156 29.8271 33.5 30.2989 33.5C30.7707 33.5 31.2232 33.3156 31.5568 32.9874C31.8904 32.6592 32.0778 32.2141 32.0778 31.75V28.25H35.6357V31.75C35.6357 32.2141 35.8232 32.6592 36.1568 32.9874C36.4904 33.3156 36.9429 33.5 37.4147 33.5C37.8865 33.5 38.339 33.3156 38.6726 32.9874C39.0062 32.6592 39.1936 32.2141 39.1936 31.75V28.25H42.7515V31.75C42.7515 32.2141 42.939 32.6592 43.2726 32.9874C43.6062 33.3156 44.0587 33.5 44.5305 33.5C45.0023 33.5 45.4548 33.3156 45.7884 32.9874C46.122 32.6592 46.3095 32.2141 46.3095 31.75V28.25H49.8674V31.75C49.8674 32.2141 50.0548 32.6592 50.3884 32.9874C50.722 33.3156 51.1745 33.5 51.6463 33.5C52.1181 33.5 52.5706 33.3156 52.9042 32.9874C53.2378 32.6592 53.4253 32.2141 53.4253 31.75V3.75C53.4253 2.82174 53.0504 1.9315 52.3832 1.27513C51.7159 0.618749 50.811 0.25 49.8674 0.25ZM3.61455 3.75H49.8674V24.75H3.61455V3.75ZM23.183 21.25C23.6549 21.25 24.1073 21.0656 24.441 20.7374C24.7746 20.4093 24.962 19.9641 24.962 19.5V9C24.962 8.53587 24.7746 8.09075 24.441 7.76256C24.1073 7.43437 23.6549 7.25 23.183 7.25H8.95141C8.4796 7.25 8.02712 7.43437 7.6935 7.76256C7.35988 8.09075 7.17246 8.53587 7.17246 9V19.5C7.17246 19.9641 7.35988 20.4093 7.6935 20.7374C8.02712 21.0656 8.4796 21.25 8.95141 21.25H23.183ZM10.7304 10.75H21.4041V17.75H10.7304V10.75ZM30.2989 21.25H44.5305C45.0023 21.25 45.4548 21.0656 45.7884 20.7374C46.122 20.4093 46.3095 19.9641 46.3095 19.5V9C46.3095 8.53587 46.122 8.09075 45.7884 7.76256C45.4548 7.43437 45.0023 7.25 44.5305 7.25H30.2989C29.8271 7.25 29.3746 7.43437 29.041 7.76256C28.7073 8.09075 28.5199 8.53587 28.5199 9V19.5C28.5199 19.9641 28.7073 20.4093 29.041 20.7374C29.3746 21.0656 29.8271 21.25 30.2989 21.25ZM32.0778 10.75H42.7515V17.75H32.0778V10.75Z" fill="url(#paint0_linear_3459_2047)"/>
<defs>
<linearGradient id="paint0_linear_3459_2047" x1="-1261.01" y1="37.0419" x2="-1260.02" y2="-28.4388" gradientUnits="userSpaceOnUse">
<stop stop-color="#E8DF38"/>
<stop offset="1" stop-color="#41D882"/>
</linearGradient>
</defs>
</svg>
