<svg width="56" height="56" viewBox="0 0 56 56" fill="none" xmlns="http://www.w3.org/2000/svg">
<path opacity="0.2" d="M33.25 30.1875V10.5C33.25 8.64349 32.5125 6.86301 31.1997 5.55025C29.887 4.2375 28.1065 3.5 26.25 3.5C24.3935 3.5 22.613 4.2375 21.3003 5.55025C19.9875 6.86301 19.25 8.64349 19.25 10.5V30.1875C17.1098 31.6778 15.501 33.8122 14.6579 36.2801C13.8147 38.748 13.7812 41.4206 14.5622 43.9088C15.3431 46.3971 16.8978 48.5712 19 50.1147C21.1021 51.6582 23.642 52.4905 26.25 52.4905C28.858 52.4905 31.3979 51.6582 33.5 50.1147C35.6022 48.5712 37.1569 46.3971 37.9378 43.9088C38.7188 41.4206 38.6853 38.748 37.8421 36.2801C36.999 33.8122 35.3902 31.6778 33.25 30.1875ZM26.25 45.5C25.2116 45.5 24.1966 45.1921 23.3333 44.6152C22.4699 44.0383 21.797 43.2184 21.3996 42.2591C21.0023 41.2998 20.8983 40.2442 21.1009 39.2258C21.3034 38.2074 21.8035 37.2719 22.5377 36.5377C23.2719 35.8035 24.2074 35.3035 25.2258 35.1009C26.2442 34.8983 27.2998 35.0023 28.2591 35.3996C29.2184 35.797 30.0383 36.4699 30.6152 37.3333C31.1921 38.1966 31.5 39.2117 31.5 40.25C31.5 41.6424 30.9469 42.9777 29.9623 43.9623C28.9777 44.9469 27.6424 45.5 26.25 45.5Z" fill="#DF3D3D"/>
<path d="M28 33.4688V10.5C28 10.0359 27.8156 9.59075 27.4874 9.26256C27.1592 8.93437 26.7141 8.75 26.25 8.75C25.7859 8.75 25.3408 8.93437 25.0126 9.26256C24.6844 9.59075 24.5 10.0359 24.5 10.5V33.4688C22.8503 33.8947 21.4127 34.9076 20.4564 36.3178C19.5002 37.7279 19.0911 39.4383 19.3058 41.1285C19.5205 42.8187 20.3442 44.3725 21.6226 45.4988C22.901 46.6251 24.5462 47.2465 26.25 47.2465C27.9538 47.2465 29.599 46.6251 30.8774 45.4988C32.1558 44.3725 32.9795 42.8187 33.1942 41.1285C33.4089 39.4383 32.9998 37.7279 32.0436 36.3178C31.0873 34.9076 29.6497 33.8947 28 33.4688ZM26.25 43.75C25.5578 43.75 24.8811 43.5447 24.3055 43.1601C23.7299 42.7756 23.2813 42.2289 23.0164 41.5894C22.7515 40.9499 22.6822 40.2461 22.8173 39.5672C22.9523 38.8883 23.2856 38.2646 23.7751 37.7751C24.2646 37.2856 24.8883 36.9523 25.5672 36.8173C26.2461 36.6822 26.9499 36.7515 27.5894 37.0164C28.2289 37.2813 28.7756 37.7299 29.1601 38.3055C29.5447 38.8811 29.75 39.5578 29.75 40.25C29.75 41.1783 29.3813 42.0685 28.7249 42.7249C28.0685 43.3812 27.1783 43.75 26.25 43.75ZM35 29.3125V10.5C35 8.17936 34.0781 5.95376 32.4372 4.31282C30.7962 2.67187 28.5706 1.75 26.25 1.75C23.9294 1.75 21.7038 2.67187 20.0628 4.31282C18.4219 5.95376 17.5 8.17936 17.5 10.5V29.3125C15.2358 31.1253 13.5905 33.5967 12.7916 36.3851C11.9926 39.1734 12.0795 42.1411 13.0401 44.8779C14.0007 47.6148 15.7877 49.9857 18.1541 51.663C20.5205 53.3403 23.3495 54.2412 26.25 54.2412C29.1506 54.2412 31.9795 53.3403 34.3459 51.663C36.7123 49.9857 38.4993 47.6148 39.4599 44.8779C40.4205 42.1411 40.5074 39.1734 39.7084 36.3851C38.9095 33.5967 37.2642 31.1253 35 29.3125ZM26.25 50.75C24.0143 50.7502 21.8368 50.0367 20.0347 48.7135C18.2326 47.3903 16.8999 45.5263 16.2306 43.3931C15.5614 41.2599 15.5905 38.9687 16.3138 36.8532C17.037 34.7377 18.4167 32.9082 20.2519 31.6313C20.4841 31.4691 20.6735 31.253 20.8038 31.0015C20.9341 30.7501 21.0014 30.4707 21 30.1875V10.5C21 9.10761 21.5531 7.77226 22.5377 6.78769C23.5223 5.80312 24.8576 5.25 26.25 5.25C27.6424 5.25 28.9777 5.80312 29.9623 6.78769C30.9469 7.77226 31.5 9.10761 31.5 10.5V30.1875C31.5 30.4692 31.568 30.7468 31.6982 30.9967C31.8285 31.2465 32.0171 31.4612 32.2481 31.6225C34.0871 32.8982 35.4704 34.7281 36.1961 36.8453C36.9219 38.9625 36.9521 41.2562 36.2824 43.3918C35.6127 45.5274 34.2781 47.3931 32.4734 48.7168C30.6686 50.0405 28.4881 50.7529 26.25 50.75ZM38.7844 17.6684C38.5309 17.2797 38.4422 16.8062 38.5378 16.3521C38.6334 15.898 38.9054 15.5004 39.2941 15.2469C42.5753 13.1053 45.1719 14.2078 47.0619 15.015C48.7812 15.75 49.8225 16.1875 51.5441 15.0697C51.9331 14.8162 52.4068 14.7275 52.8612 14.8233C53.3155 14.9191 53.7132 15.1915 53.9667 15.5805C54.2202 15.9695 54.3089 16.4432 54.2131 16.8976C54.1173 17.3519 53.8449 17.7496 53.4559 18.0031C52.0362 18.9284 50.75 19.25 49.5884 19.25C48.0572 19.25 46.7622 18.6944 45.6881 18.2372C43.9688 17.5 42.9275 17.0625 41.2059 18.1803C41.0133 18.3057 40.7979 18.392 40.572 18.4341C40.346 18.4763 40.114 18.4735 39.8891 18.426C39.6643 18.3784 39.451 18.2871 39.2614 18.1571C39.0718 18.0271 38.9098 17.8611 38.7844 17.6684ZM53.9656 22.5816C54.2191 22.9703 54.3078 23.4438 54.2122 23.8979C54.1166 24.352 53.8446 24.7496 53.4559 25.0031C52.0362 25.9284 50.75 26.25 49.5884 26.25C48.0572 26.25 46.7622 25.6944 45.6881 25.2372C43.9666 24.5022 42.9275 24.0603 41.2059 25.1825C41.0133 25.308 40.7979 25.3944 40.5719 25.4367C40.3459 25.4789 40.1138 25.4763 39.8888 25.4289C39.6639 25.3814 39.4504 25.2902 39.2607 25.1602C39.0711 25.0303 38.9088 24.8643 38.7833 24.6717C38.5298 24.2827 38.4411 23.8089 38.5369 23.3546C38.6327 22.9003 38.9051 22.5026 39.2941 22.2491C42.5753 20.1075 45.1719 21.21 47.0619 22.0172C48.7834 22.7522 49.8225 23.1963 51.5441 22.0719C51.9328 21.8184 52.4063 21.7297 52.8604 21.8253C53.3145 21.9209 53.7121 22.1929 53.9656 22.5816Z" fill="#DF3D3D"/>
</svg>
