<svg width="46" height="46" viewBox="0 0 46 46" fill="none" xmlns="http://www.w3.org/2000/svg">
<path opacity="0.2" d="M41.0878 24.1845V35.4417C41.0878 35.8149 40.9395 36.1728 40.6756 36.4367C40.4118 36.7006 40.0538 36.8488 39.6806 36.8488H5.9091C5.5359 36.8488 5.17799 36.7006 4.9141 36.4367C4.65021 36.1728 4.50195 35.8149 4.50195 35.4417V24.1845C4.50195 23.8113 4.65021 23.4534 4.9141 23.1895C5.17799 22.9256 5.5359 22.7773 5.9091 22.7773H39.6806C40.0538 22.7773 40.4118 22.9256 40.6756 23.1895C40.9395 23.4534 41.0878 23.8113 41.0878 24.1845Z" fill="white"/>
<path d="M42.4958 24.1835V35.4407C42.4958 36.1871 42.1993 36.9029 41.6715 37.4307C41.1438 37.9585 40.4279 38.255 39.6815 38.255H5.91C5.1636 38.255 4.44777 37.9585 3.91999 37.4307C3.39221 36.9029 3.0957 36.1871 3.0957 35.4407V24.1835C3.0957 23.4371 3.39221 22.7213 3.91999 22.1935C4.44777 21.6657 5.1636 21.3692 5.91 21.3692H14.3529C14.7261 21.3692 15.084 21.5175 15.3479 21.7814C15.6118 22.0453 15.76 22.4032 15.76 22.7764C15.76 23.1496 15.6118 23.5075 15.3479 23.7714C15.084 24.0353 14.7261 24.1835 14.3529 24.1835H5.91V35.4407H39.6815V24.1835H31.2387C30.8655 24.1835 30.5075 24.0353 30.2437 23.7714C29.9798 23.5075 29.8315 23.1496 29.8315 22.7764C29.8315 22.4032 29.9798 22.0453 30.2437 21.7814C30.5075 21.5175 30.8655 21.3692 31.2387 21.3692H39.6815C40.4279 21.3692 41.1438 21.6657 41.6715 22.1935C42.1993 22.7213 42.4958 23.4371 42.4958 24.1835ZM15.3484 13.9219L21.3886 7.87995V22.7764C21.3886 23.1496 21.5369 23.5075 21.8008 23.7714C22.0647 24.0353 22.4226 24.1835 22.7958 24.1835C23.169 24.1835 23.5269 24.0353 23.7908 23.7714C24.0547 23.5075 24.2029 23.1496 24.2029 22.7764V7.87995L30.2431 13.9219C30.5071 14.1859 30.8652 14.3343 31.2387 14.3343C31.6121 14.3343 31.9702 14.1859 32.2342 13.9219C32.4983 13.6579 32.6466 13.2997 32.6466 12.9263C32.6466 12.5529 32.4983 12.1948 32.2342 11.9308L23.7913 3.48789C23.6606 3.35706 23.5054 3.25327 23.3346 3.18246C23.1638 3.11164 22.9807 3.0752 22.7958 3.0752C22.6108 3.0752 22.4277 3.11164 22.2569 3.18246C22.0861 3.25327 21.9309 3.35706 21.8002 3.48789L13.3573 11.9308C13.0933 12.1948 12.945 12.5529 12.945 12.9263C12.945 13.2997 13.0933 13.6579 13.3573 13.9219C13.6214 14.1859 13.9795 14.3343 14.3529 14.3343C14.7263 14.3343 15.0844 14.1859 15.3484 13.9219ZM35.4601 29.8121C35.4601 29.3946 35.3363 28.9866 35.1044 28.6395C34.8724 28.2923 34.5428 28.0218 34.1571 27.8621C33.7714 27.7023 33.347 27.6605 32.9376 27.7419C32.5282 27.8234 32.1521 28.0244 31.8569 28.3196C31.5617 28.6148 31.3607 28.9909 31.2792 29.4003C31.1978 29.8098 31.2396 30.2342 31.3993 30.6198C31.5591 31.0055 31.8296 31.3352 32.1767 31.5671C32.5238 31.799 32.9319 31.9228 33.3494 31.9228C33.9092 31.9228 34.446 31.7004 34.8419 31.3046C35.2377 30.9088 35.4601 30.3719 35.4601 29.8121Z" fill="white"/>
</svg>
