<svg width="63" height="63" viewBox="0 0 63 63" fill="none" xmlns="http://www.w3.org/2000/svg">
<path opacity="0.2" d="M52.9168 33.1127C52.9168 37.3413 51.6629 41.475 49.3136 44.991C46.9643 48.5069 43.6252 51.2473 39.7184 52.8655C35.8117 54.4837 31.5128 54.9071 27.3655 54.0822C23.2181 53.2572 19.4085 51.2209 16.4184 48.2309C13.4283 45.2408 11.392 41.4312 10.5671 37.2838C9.74211 33.1364 10.1655 28.8376 11.7837 24.9308C13.402 21.0241 16.1423 17.6849 19.6583 15.3356C23.1743 12.9864 27.3079 11.7324 31.5365 11.7324C37.2069 11.7324 42.6451 13.985 46.6547 17.9946C50.6643 22.0041 52.9168 27.4423 52.9168 33.1127Z" fill="url(#paint0_linear_4625_5410)"/>
<path d="M31.5405 9.79075C26.9274 9.79075 22.418 11.1587 18.5824 13.7215C14.7468 16.2844 11.7573 19.9271 9.99196 24.189C8.22662 28.4509 7.76473 33.1406 8.66469 37.665C9.56465 42.1894 11.786 46.3453 15.048 49.6072C18.3099 52.8691 22.4658 55.0905 26.9902 55.9905C31.5146 56.8904 36.2043 56.4285 40.4662 54.6632C44.7281 52.8979 48.3708 49.9084 50.9336 46.0728C53.4965 42.2372 54.8644 37.7277 54.8644 33.1147C54.8573 26.931 52.3977 21.0025 48.0252 16.63C43.6526 12.2574 37.7242 9.79782 31.5405 9.79075ZM31.5405 52.5513C27.6963 52.5513 23.9384 51.4114 20.7421 49.2756C17.5457 47.1399 15.0545 44.1043 13.5834 40.5528C12.1123 37.0012 11.7274 33.0931 12.4773 29.3228C13.2273 25.5525 15.0784 22.0892 17.7967 19.3709C20.515 16.6527 23.9782 14.8015 27.7486 14.0515C31.5189 13.3016 35.427 13.6865 38.9785 15.1576C42.5301 16.6287 45.5657 19.1199 47.7014 22.3163C49.8372 25.5126 50.9771 29.2705 50.9771 33.1147C50.9713 38.2678 48.9217 43.2082 45.2778 46.8521C41.634 50.4959 36.6936 52.5455 31.5405 52.5513ZM15.4227 9.22223L7.64801 16.9969C7.2833 17.3616 6.78865 17.5665 6.27287 17.5665C5.75709 17.5665 5.26244 17.3616 4.89773 16.9969C4.53302 16.6322 4.32813 16.1375 4.32812 15.6217C4.32812 15.106 4.53302 14.6113 4.89773 14.2466L12.6724 6.47195C13.0371 6.10724 13.5317 5.90234 14.0475 5.90234C14.5633 5.90234 15.0579 6.10724 15.4227 6.47195C15.7874 6.83666 15.9923 7.33131 15.9923 7.84709C15.9923 8.36286 15.7874 8.85752 15.4227 9.22223ZM58.1832 16.9969C58.0027 17.1776 57.7883 17.321 57.5524 17.4188C57.3164 17.5166 57.0635 17.5669 56.8081 17.5669C56.5527 17.5669 56.2997 17.5166 56.0638 17.4188C55.8278 17.321 55.6135 17.1776 55.4329 16.9969L47.6583 9.22223C47.2936 8.85752 47.0887 8.36286 47.0887 7.84709C47.0887 7.33131 47.2936 6.83666 47.6583 6.47195C48.023 6.10724 48.5177 5.90234 49.0334 5.90234C49.5492 5.90234 50.0439 6.10724 50.4086 6.47195L58.1832 14.2466C58.3639 14.4271 58.5073 14.6415 58.6051 14.8774C58.7029 15.1134 58.7533 15.3663 58.7533 15.6217C58.7533 15.8772 58.7029 16.1301 58.6051 16.366C58.5073 16.602 58.3639 16.8164 58.1832 16.9969ZM45.1461 31.171C45.6616 31.171 46.156 31.3758 46.5205 31.7403C46.885 32.1048 47.0898 32.5992 47.0898 33.1147C47.0898 33.6302 46.885 34.1246 46.5205 34.4891C46.156 34.8536 45.6616 35.0584 45.1461 35.0584H31.5405C31.025 35.0584 30.5306 34.8536 30.1661 34.4891C29.8016 34.1246 29.5968 33.6302 29.5968 33.1147V19.5091C29.5968 18.9936 29.8016 18.4992 30.1661 18.1347C30.5306 17.7702 31.025 17.5654 31.5405 17.5654C32.056 17.5654 32.5503 17.7702 32.9149 18.1347C33.2794 18.4992 33.4841 18.9936 33.4841 19.5091V31.171H45.1461Z" fill="url(#paint1_linear_4625_5410)"/>
<defs>
<linearGradient id="paint0_linear_4625_5410" x1="-1000.25" y1="59.048" x2="-998.207" y2="-25.1319" gradientUnits="userSpaceOnUse">
<stop stop-color="#E8DF38"/>
<stop offset="1" stop-color="#41D882"/>
</linearGradient>
<linearGradient id="paint1_linear_4625_5410" x1="-1281.71" y1="61.8219" x2="-1279.46" y2="-37.6736" gradientUnits="userSpaceOnUse">
<stop stop-color="#E8DF38"/>
<stop offset="1" stop-color="#41D882"/>
</linearGradient>
</defs>
</svg>
