<svg width="73" height="73" viewBox="0 0 73 73" fill="none" xmlns="http://www.w3.org/2000/svg">
<path opacity="0.2" d="M54.7344 52.0176V61.0176C54.7344 61.6143 54.4973 62.1866 54.0754 62.6086C53.6534 63.0305 53.0811 63.2676 52.4844 63.2676H20.9844C20.3876 63.2676 19.8153 63.0305 19.3934 62.6086C18.9714 62.1866 18.7344 61.6143 18.7344 61.0176V52.0176H54.7344Z" fill="url(#paint0_linear_4625_5394)"/>
<path d="M56.9844 21.5413V11.5176C56.9844 10.3241 56.5103 9.17951 55.6664 8.3356C54.8224 7.49168 53.6778 7.01758 52.4844 7.01758H20.9844C19.7909 7.01758 18.6463 7.49168 17.8024 8.3356C16.9585 9.17951 16.4844 10.3241 16.4844 11.5176V21.6426C16.4859 22.3409 16.6492 23.0294 16.9615 23.654C17.2738 24.2786 17.7266 24.8224 18.2844 25.2426L32.9853 36.2676L18.2844 47.2926C17.7266 47.7128 17.2738 48.2565 16.9615 48.8811C16.6492 49.5058 16.4859 50.1942 16.4844 50.8926V61.0176C16.4844 62.2111 16.9585 63.3556 17.8024 64.1996C18.6463 65.0435 19.7909 65.5176 20.9844 65.5176H52.4844C53.6778 65.5176 54.8224 65.0435 55.6664 64.1996C56.5103 63.3556 56.9844 62.2111 56.9844 61.0176V50.9938C56.9826 50.2986 56.8205 49.6132 56.5107 48.9908C56.201 48.3684 55.7519 47.8258 55.1984 47.4051L40.4666 36.2676L55.1984 25.1329C55.7522 24.7118 56.2013 24.1687 56.5111 23.5458C56.8208 22.9229 56.9828 22.237 56.9844 21.5413ZM50.8616 49.7676H22.4834L36.7344 39.0801L50.8616 49.7676ZM20.9844 61.0176V54.2676H52.4844V61.0176H20.9844ZM52.4844 21.5413L36.7344 33.4551L20.9844 21.6426V11.5176H52.4844V21.5413Z" fill="url(#paint1_linear_4625_5394)"/>
<defs>
<linearGradient id="paint0_linear_4625_5394" x1="-831.924" y1="64.466" x2="-831.756" y2="42.3071" gradientUnits="userSpaceOnUse">
<stop stop-color="#E8DF38"/>
<stop offset="1" stop-color="#41D882"/>
</linearGradient>
<linearGradient id="paint1_linear_4625_5394" x1="-940.506" y1="71.7491" x2="-936.471" y2="-43.3422" gradientUnits="userSpaceOnUse">
<stop stop-color="#E8DF38"/>
<stop offset="1" stop-color="#41D882"/>
</linearGradient>
</defs>
</svg>
