<svg width="73" height="73" viewBox="0 0 73 73" fill="none" xmlns="http://www.w3.org/2000/svg">
<path opacity="0.2" d="M29.8359 47.5176C29.8359 49.7426 29.1761 51.9177 27.94 53.7677C26.7038 55.6178 24.9468 57.0597 22.8911 57.9112C20.8355 58.7627 18.5735 58.9855 16.3912 58.5514C14.2089 58.1173 12.2043 57.0459 10.631 55.4725C9.05765 53.8992 7.98619 51.8946 7.55211 49.7123C7.11802 47.5301 7.34081 45.2681 8.1923 43.2124C9.04378 41.1567 10.4857 39.3997 12.3358 38.1635C14.1858 36.9274 16.3609 36.2676 18.5859 36.2676C21.5696 36.2676 24.4311 37.4528 26.5409 39.5626C28.6507 41.6724 29.8359 44.5339 29.8359 47.5176ZM54.5859 36.2676C52.3609 36.2676 50.1858 36.9274 48.3358 38.1635C46.4857 39.3997 45.0438 41.1567 44.1923 43.2124C43.3408 45.2681 43.118 47.5301 43.5521 49.7123C43.9862 51.8946 45.0577 53.8992 46.631 55.4725C48.2043 57.0459 50.2089 58.1173 52.3912 58.5514C54.5735 58.9855 56.8355 58.7627 58.8911 57.9112C60.9468 57.0597 62.7038 55.6178 63.94 53.7677C65.1761 51.9177 65.8359 49.7426 65.8359 47.5176C65.8359 44.5339 64.6507 41.6724 62.5409 39.5626C60.4311 37.4528 57.5696 36.2676 54.5859 36.2676Z" fill="url(#paint0_linear_4625_5402)"/>
<path d="M67.2984 42.9792C67.1106 42.4549 66.8898 41.9429 66.6375 41.4464L54.9403 14.8345C54.8297 14.5782 54.6712 14.3453 54.4734 14.1483C53.6377 13.3123 52.6454 12.6492 51.5534 12.1968C50.4613 11.7443 49.2908 11.5115 48.1087 11.5115C46.9267 11.5115 45.7562 11.7443 44.6641 12.1968C43.5721 12.6492 42.5798 13.3123 41.7441 14.1483C41.3236 14.5692 41.087 15.1395 41.0859 15.7345V22.7657H32.0859V15.7345C32.0862 15.4389 32.0282 15.1462 31.9152 14.8731C31.8023 14.5999 31.6367 14.3517 31.4278 14.1426C30.5921 13.3067 29.5998 12.6436 28.5078 12.1911C27.4157 11.7387 26.2452 11.5059 25.0631 11.5059C23.8811 11.5059 22.7106 11.7387 21.6185 12.1911C20.5264 12.6436 19.5342 13.3067 18.6984 14.1426C18.5007 14.3397 18.3422 14.5726 18.2316 14.8289L6.53438 41.4407C6.28206 41.9373 6.06131 42.4492 5.87344 42.9736C5.21109 44.8268 4.96196 46.8025 5.14349 48.7621C5.32502 50.7218 5.93282 52.6181 6.92431 54.3182C7.91581 56.0182 9.26702 57.4809 10.8833 58.6038C12.4996 59.7267 14.3418 60.4827 16.281 60.8187C18.2201 61.1547 20.2093 61.0627 22.1092 60.5491C24.009 60.0355 25.7736 59.1127 27.2793 57.8453C28.785 56.578 29.9954 54.9968 30.8257 53.2124C31.656 51.4281 32.0861 49.4838 32.0859 47.5157V27.2657H41.0859V47.5157C41.0849 49.484 41.5144 51.4287 42.3441 53.2136C43.1739 54.9985 44.3839 56.5803 45.8894 57.8482C47.3948 59.1162 49.1594 60.0396 51.0593 60.5538C52.9593 61.068 54.9487 61.1605 56.8881 60.8248C58.8276 60.4892 60.6702 59.7335 62.2868 58.6107C63.9035 57.4879 65.2551 56.0252 66.2469 54.325C67.2386 52.6248 67.8467 50.7284 68.0283 48.7685C68.21 46.8086 67.9609 44.8327 67.2984 42.9792ZM22.1606 17.0704C22.9108 16.4388 23.8467 16.0695 24.8261 16.0188C25.8054 15.968 26.7745 16.2385 27.5859 16.7892V37.4639C25.8293 35.8865 23.6889 34.7984 21.3793 34.3088C19.0696 33.8191 16.6719 33.945 14.4263 34.6739L22.1606 17.0704ZM18.5859 56.5157C16.8059 56.5157 15.0658 55.9879 13.5858 54.999C12.1058 54.01 10.9522 52.6044 10.271 50.9599C9.58983 49.3154 9.4116 47.5058 9.75887 45.7599C10.1061 44.0141 10.9633 42.4105 12.222 41.1518C13.4806 39.8931 15.0843 39.0359 16.8301 38.6887C18.576 38.3414 20.3856 38.5196 22.0301 39.2008C23.6746 39.882 25.0802 41.0356 26.0692 42.5156C27.0581 43.9957 27.5859 45.7357 27.5859 47.5157C27.5859 49.9027 26.6377 52.1919 24.9499 53.8797C23.2621 55.5675 20.9729 56.5157 18.5859 56.5157ZM45.5859 16.7864C46.3974 16.2357 47.3665 15.9652 48.3458 16.0159C49.3252 16.0667 50.2611 16.436 51.0112 17.0676L58.7456 34.6682C56.4997 33.9398 54.1019 33.8143 51.7922 34.3045C49.4826 34.7946 47.3423 35.8832 45.5859 37.4611V16.7864ZM54.5859 56.5157C52.8059 56.5157 51.0658 55.9879 49.5858 54.999C48.1058 54.01 46.9522 52.6044 46.271 50.9599C45.5898 49.3154 45.4116 47.5058 45.7589 45.7599C46.1061 44.0141 46.9633 42.4105 48.222 41.1518C49.4807 39.8931 51.0843 39.0359 52.8301 38.6887C54.576 38.3414 56.3856 38.5196 58.0301 39.2008C59.6746 39.882 61.0802 41.0356 62.0692 42.5156C63.0581 43.9957 63.5859 45.7357 63.5859 47.5157C63.5859 49.9027 62.6377 52.1919 60.9499 53.8797C59.2621 55.5675 56.9729 56.5157 54.5859 56.5157Z" fill="url(#paint1_linear_4625_5402)"/>
<defs>
<linearGradient id="paint0_linear_4625_5402" x1="-1374.98" y1="61.1643" x2="-1374.57" y2="16.8479" gradientUnits="userSpaceOnUse">
<stop stop-color="#E8DF38"/>
<stop offset="1" stop-color="#41D882"/>
</linearGradient>
<linearGradient id="paint1_linear_4625_5402" x1="-1483.57" y1="66.2972" x2="-1481.71" y2="-31.2049" gradientUnits="userSpaceOnUse">
<stop stop-color="#E8DF38"/>
<stop offset="1" stop-color="#41D882"/>
</linearGradient>
</defs>
</svg>
