<svg width="1775" height="924" viewBox="0 0 1775 924" fill="none" xmlns="http://www.w3.org/2000/svg">
<g clip-path="url(#clip0_4208_1471)">
<rect width="1775" height="924" fill="#0B131F"/>
<g opacity="0.75">
<g opacity="0.5" filter="url(#filter0_f_4208_1471)">
<circle cx="201.049" cy="1064.63" r="216.37" fill="#2BBA69" fill-opacity="0.34"/>
</g>
<g opacity="0.5" filter="url(#filter1_f_4208_1471)">
<circle cx="581.073" cy="439.426" r="216.37" fill="#2BBA69" fill-opacity="0.34"/>
</g>
<g opacity="0.5" filter="url(#filter2_f_4208_1471)">
<circle cx="1608.28" cy="23.1234" r="153.123" fill="#2BBA69"/>
</g>
<g opacity="0.5" clip-path="url(#clip1_4208_1471)">
<mask id="mask0_4208_1471" style="mask-type:alpha" maskUnits="userSpaceOnUse" x="27" y="77" width="1766" height="1766">
<rect width="1765.28" height="1467.39" transform="translate(27.5859 77.1836)" fill="url(#paint0_radial_4208_1471)"/>
</mask>
<g mask="url(#mask0_4208_1471)">
<g clip-path="url(#clip2_4208_1471)">
<mask id="path-6-inside-1_4208_1471" fill="white">
<path d="M-31.2578 77.1836H86.4277V194.869H-31.2578V77.1836Z"/>
</mask>
<path d="M86.4277 194.869V196.095H87.6536V194.869H86.4277ZM85.2018 77.1836V194.869H87.6536V77.1836H85.2018ZM86.4277 193.643H-31.2578V196.095H86.4277V193.643Z" fill="white" fill-opacity="0.25" mask="url(#path-6-inside-1_4208_1471)"/>
<mask id="path-8-inside-2_4208_1471" fill="white">
<path d="M86.4297 77.1836H204.115V194.869H86.4297V77.1836Z"/>
</mask>
<path d="M204.115 194.869V196.095H205.341V194.869H204.115ZM202.889 77.1836V194.869H205.341V77.1836H202.889ZM204.115 193.643H86.4297V196.095H204.115V193.643Z" fill="white" fill-opacity="0.25" mask="url(#path-8-inside-2_4208_1471)"/>
<mask id="path-10-inside-3_4208_1471" fill="white">
<path d="M204.117 77.1836H321.803V194.869H204.117V77.1836Z"/>
</mask>
<path d="M321.803 194.869V196.095H323.029V194.869H321.803ZM320.577 77.1836V194.869H323.029V77.1836H320.577ZM321.803 193.643H204.117V196.095H321.803V193.643Z" fill="white" fill-opacity="0.25" mask="url(#path-10-inside-3_4208_1471)"/>
<mask id="path-12-inside-4_4208_1471" fill="white">
<path d="M321.805 77.1836H439.49V194.869H321.805V77.1836Z"/>
</mask>
<path d="M439.49 194.869V196.095H440.716V194.869H439.49ZM438.264 77.1836V194.869H440.716V77.1836H438.264ZM439.49 193.643H321.805V196.095H439.49V193.643Z" fill="white" fill-opacity="0.25" mask="url(#path-12-inside-4_4208_1471)"/>
<mask id="path-14-inside-5_4208_1471" fill="white">
<path d="M439.484 77.1836H557.17V194.869H439.484V77.1836Z"/>
</mask>
<path d="M557.17 194.869V196.095H558.396V194.869H557.17ZM555.944 77.1836V194.869H558.396V77.1836H555.944ZM557.17 193.643H439.484V196.095H557.17V193.643Z" fill="white" fill-opacity="0.25" mask="url(#path-14-inside-5_4208_1471)"/>
<mask id="path-16-inside-6_4208_1471" fill="white">
<path d="M557.172 77.1836H674.857V194.869H557.172V77.1836Z"/>
</mask>
<path d="M674.857 194.869V196.095H676.083V194.869H674.857ZM673.631 77.1836V194.869H676.083V77.1836H673.631ZM674.857 193.643H557.172V196.095H674.857V193.643Z" fill="white" fill-opacity="0.25" mask="url(#path-16-inside-6_4208_1471)"/>
<mask id="path-18-inside-7_4208_1471" fill="white">
<path d="M674.859 77.1836H792.545V194.869H674.859V77.1836Z"/>
</mask>
<path d="M792.545 194.869V196.095H793.771V194.869H792.545ZM791.319 77.1836V194.869H793.771V77.1836H791.319ZM792.545 193.643H674.859V196.095H792.545V193.643Z" fill="white" fill-opacity="0.25" mask="url(#path-18-inside-7_4208_1471)"/>
<mask id="path-20-inside-8_4208_1471" fill="white">
<path d="M792.547 77.1836H910.232V194.869H792.547V77.1836Z"/>
</mask>
<path d="M910.232 194.869V196.095H911.458V194.869H910.232ZM909.006 77.1836V194.869H911.458V77.1836H909.006ZM910.232 193.643H792.547V196.095H910.232V193.643Z" fill="white" fill-opacity="0.25" mask="url(#path-20-inside-8_4208_1471)"/>
<mask id="path-22-inside-9_4208_1471" fill="white">
<path d="M910.227 77.1836H1027.91V194.869H910.227V77.1836Z"/>
</mask>
<path d="M1027.91 194.869V196.095H1029.14V194.869H1027.91ZM1026.69 77.1836V194.869H1029.14V77.1836H1026.69ZM1027.91 193.643H910.227V196.095H1027.91V193.643Z" fill="white" fill-opacity="0.25" mask="url(#path-22-inside-9_4208_1471)"/>
<mask id="path-24-inside-10_4208_1471" fill="white">
<path d="M1027.91 77.1836H1145.6V194.869H1027.91V77.1836Z"/>
</mask>
<path d="M1145.6 194.869V196.095H1146.83V194.869H1145.6ZM1144.37 77.1836V194.869H1146.83V77.1836H1144.37ZM1145.6 193.643H1027.91V196.095H1145.6V193.643Z" fill="white" fill-opacity="0.25" mask="url(#path-24-inside-10_4208_1471)"/>
<mask id="path-26-inside-11_4208_1471" fill="white">
<path d="M1145.6 77.1836H1263.29V194.869H1145.6V77.1836Z"/>
</mask>
<path d="M1263.29 194.869V196.095H1264.51V194.869H1263.29ZM1262.06 77.1836V194.869H1264.51V77.1836H1262.06ZM1263.29 193.643H1145.6V196.095H1263.29V193.643Z" fill="white" fill-opacity="0.25" mask="url(#path-26-inside-11_4208_1471)"/>
<mask id="path-28-inside-12_4208_1471" fill="white">
<path d="M1263.29 77.1836H1380.97V194.869H1263.29V77.1836Z"/>
</mask>
<path d="M1380.97 194.869V196.095H1382.2V194.869H1380.97ZM1379.75 77.1836V194.869H1382.2V77.1836H1379.75ZM1380.97 193.643H1263.29V196.095H1380.97V193.643Z" fill="white" fill-opacity="0.25" mask="url(#path-28-inside-12_4208_1471)"/>
<mask id="path-30-inside-13_4208_1471" fill="white">
<path d="M1380.97 77.1836H1498.65V194.869H1380.97V77.1836Z"/>
</mask>
<path d="M1498.65 194.869V196.095H1499.88V194.869H1498.65ZM1497.43 77.1836V194.869H1499.88V77.1836H1497.43ZM1498.65 193.643H1380.97V196.095H1498.65V193.643Z" fill="white" fill-opacity="0.25" mask="url(#path-30-inside-13_4208_1471)"/>
<mask id="path-32-inside-14_4208_1471" fill="white">
<path d="M1498.66 77.1836H1616.34V194.869H1498.66V77.1836Z"/>
</mask>
<path d="M1616.34 194.869V196.095H1617.57V194.869H1616.34ZM1615.12 77.1836V194.869H1617.57V77.1836H1615.12ZM1616.34 193.643H1498.66V196.095H1616.34V193.643Z" fill="white" fill-opacity="0.25" mask="url(#path-32-inside-14_4208_1471)"/>
<mask id="path-34-inside-15_4208_1471" fill="white">
<path d="M1616.34 77.1836H1734.03V194.869H1616.34V77.1836Z"/>
</mask>
<path d="M1734.03 194.869V196.095H1735.26V194.869H1734.03ZM1732.8 77.1836V194.869H1735.26V77.1836H1732.8ZM1734.03 193.643H1616.34V196.095H1734.03V193.643Z" fill="white" fill-opacity="0.25" mask="url(#path-34-inside-15_4208_1471)"/>
<mask id="path-36-inside-16_4208_1471" fill="white">
<path d="M1734.03 77.1836H1851.72V194.869H1734.03V77.1836Z"/>
</mask>
<path d="M1851.72 194.869V196.095H1852.94V194.869H1851.72ZM1850.49 77.1836V194.869H1852.94V77.1836H1850.49ZM1851.72 193.643H1734.03V196.095H1851.72V193.643Z" fill="white" fill-opacity="0.25" mask="url(#path-36-inside-16_4208_1471)"/>
<mask id="path-38-inside-17_4208_1471" fill="white">
<path d="M-31.2578 194.869H86.4277V312.555H-31.2578V194.869Z"/>
</mask>
<path d="M86.4277 312.555V313.781H87.6536V312.555H86.4277ZM85.2018 194.869V312.555H87.6536V194.869H85.2018ZM86.4277 311.329H-31.2578V313.781H86.4277V311.329Z" fill="white" fill-opacity="0.25" mask="url(#path-38-inside-17_4208_1471)"/>
<mask id="path-40-inside-18_4208_1471" fill="white">
<path d="M86.4297 194.869H204.115V312.555H86.4297V194.869Z"/>
</mask>
<path d="M204.115 312.555V313.781H205.341V312.555H204.115ZM202.889 194.869V312.555H205.341V194.869H202.889ZM204.115 311.329H86.4297V313.781H204.115V311.329Z" fill="white" fill-opacity="0.25" mask="url(#path-40-inside-18_4208_1471)"/>
<mask id="path-42-inside-19_4208_1471" fill="white">
<path d="M204.117 194.869H321.803V312.555H204.117V194.869Z"/>
</mask>
<path d="M321.803 312.555V313.781H323.029V312.555H321.803ZM320.577 194.869V312.555H323.029V194.869H320.577ZM321.803 311.329H204.117V313.781H321.803V311.329Z" fill="white" fill-opacity="0.25" mask="url(#path-42-inside-19_4208_1471)"/>
<mask id="path-44-inside-20_4208_1471" fill="white">
<path d="M321.805 194.869H439.49V312.555H321.805V194.869Z"/>
</mask>
<path d="M321.805 194.869H439.49V312.555H321.805V194.869Z" fill="white" fill-opacity="0.2"/>
<path d="M439.49 312.555V313.781H440.716V312.555H439.49ZM438.264 194.869V312.555H440.716V194.869H438.264ZM439.49 311.329H321.805V313.781H439.49V311.329Z" fill="white" fill-opacity="0.25" mask="url(#path-44-inside-20_4208_1471)"/>
<mask id="path-46-inside-21_4208_1471" fill="white">
<path d="M439.484 194.869H557.17V312.555H439.484V194.869Z"/>
</mask>
<path d="M557.17 312.555V313.781H558.396V312.555H557.17ZM555.944 194.869V312.555H558.396V194.869H555.944ZM557.17 311.329H439.484V313.781H557.17V311.329Z" fill="white" fill-opacity="0.25" mask="url(#path-46-inside-21_4208_1471)"/>
<mask id="path-48-inside-22_4208_1471" fill="white">
<path d="M557.172 194.869H674.857V312.555H557.172V194.869Z"/>
</mask>
<path d="M674.857 312.555V313.781H676.083V312.555H674.857ZM673.631 194.869V312.555H676.083V194.869H673.631ZM674.857 311.329H557.172V313.781H674.857V311.329Z" fill="white" fill-opacity="0.25" mask="url(#path-48-inside-22_4208_1471)"/>
<mask id="path-50-inside-23_4208_1471" fill="white">
<path d="M674.859 194.869H792.545V312.555H674.859V194.869Z"/>
</mask>
<path d="M792.545 312.555V313.781H793.771V312.555H792.545ZM791.319 194.869V312.555H793.771V194.869H791.319ZM792.545 311.329H674.859V313.781H792.545V311.329Z" fill="white" fill-opacity="0.25" mask="url(#path-50-inside-23_4208_1471)"/>
<mask id="path-52-inside-24_4208_1471" fill="white">
<path d="M792.547 194.869H910.232V312.555H792.547V194.869Z"/>
</mask>
<path d="M910.232 312.555V313.781H911.458V312.555H910.232ZM909.006 194.869V312.555H911.458V194.869H909.006ZM910.232 311.329H792.547V313.781H910.232V311.329Z" fill="white" fill-opacity="0.25" mask="url(#path-52-inside-24_4208_1471)"/>
<mask id="path-54-inside-25_4208_1471" fill="white">
<path d="M910.227 194.869H1027.91V312.555H910.227V194.869Z"/>
</mask>
<path d="M1027.91 312.555V313.781H1029.14V312.555H1027.91ZM1026.69 194.869V312.555H1029.14V194.869H1026.69ZM1027.91 311.329H910.227V313.781H1027.91V311.329Z" fill="white" fill-opacity="0.25" mask="url(#path-54-inside-25_4208_1471)"/>
<mask id="path-56-inside-26_4208_1471" fill="white">
<path d="M1027.91 194.869H1145.6V312.555H1027.91V194.869Z"/>
</mask>
<path d="M1145.6 312.555V313.781H1146.83V312.555H1145.6ZM1144.37 194.869V312.555H1146.83V194.869H1144.37ZM1145.6 311.329H1027.91V313.781H1145.6V311.329Z" fill="white" fill-opacity="0.25" mask="url(#path-56-inside-26_4208_1471)"/>
<mask id="path-58-inside-27_4208_1471" fill="white">
<path d="M1145.6 194.869H1263.29V312.555H1145.6V194.869Z"/>
</mask>
<path d="M1263.29 312.555V313.781H1264.51V312.555H1263.29ZM1262.06 194.869V312.555H1264.51V194.869H1262.06ZM1263.29 311.329H1145.6V313.781H1263.29V311.329Z" fill="white" fill-opacity="0.25" mask="url(#path-58-inside-27_4208_1471)"/>
<mask id="path-60-inside-28_4208_1471" fill="white">
<path d="M1263.29 194.869H1380.97V312.555H1263.29V194.869Z"/>
</mask>
<path d="M1380.97 312.555V313.781H1382.2V312.555H1380.97ZM1379.75 194.869V312.555H1382.2V194.869H1379.75ZM1380.97 311.329H1263.29V313.781H1380.97V311.329Z" fill="white" fill-opacity="0.25" mask="url(#path-60-inside-28_4208_1471)"/>
<mask id="path-62-inside-29_4208_1471" fill="white">
<path d="M1380.97 194.869H1498.65V312.555H1380.97V194.869Z"/>
</mask>
<path d="M1380.97 194.869H1498.65V312.555H1380.97V194.869Z" fill="white" fill-opacity="0.2"/>
<path d="M1498.65 312.555V313.781H1499.88V312.555H1498.65ZM1497.43 194.869V312.555H1499.88V194.869H1497.43ZM1498.65 311.329H1380.97V313.781H1498.65V311.329Z" fill="white" fill-opacity="0.25" mask="url(#path-62-inside-29_4208_1471)"/>
<mask id="path-64-inside-30_4208_1471" fill="white">
<path d="M1498.66 194.869H1616.34V312.555H1498.66V194.869Z"/>
</mask>
<path d="M1616.34 312.555V313.781H1617.57V312.555H1616.34ZM1615.12 194.869V312.555H1617.57V194.869H1615.12ZM1616.34 311.329H1498.66V313.781H1616.34V311.329Z" fill="white" fill-opacity="0.25" mask="url(#path-64-inside-30_4208_1471)"/>
<mask id="path-66-inside-31_4208_1471" fill="white">
<path d="M1616.34 194.869H1734.03V312.555H1616.34V194.869Z"/>
</mask>
<path d="M1734.03 312.555V313.781H1735.26V312.555H1734.03ZM1732.8 194.869V312.555H1735.26V194.869H1732.8ZM1734.03 311.329H1616.34V313.781H1734.03V311.329Z" fill="white" fill-opacity="0.25" mask="url(#path-66-inside-31_4208_1471)"/>
<mask id="path-68-inside-32_4208_1471" fill="white">
<path d="M1734.03 194.869H1851.72V312.555H1734.03V194.869Z"/>
</mask>
<path d="M1851.72 312.555V313.781H1852.94V312.555H1851.72ZM1850.49 194.869V312.555H1852.94V194.869H1850.49ZM1851.72 311.329H1734.03V313.781H1851.72V311.329Z" fill="white" fill-opacity="0.25" mask="url(#path-68-inside-32_4208_1471)"/>
<mask id="path-70-inside-33_4208_1471" fill="white">
<path d="M-31.2578 312.555H86.4277V430.24H-31.2578V312.555Z"/>
</mask>
<path d="M86.4277 430.24V431.466H87.6536V430.24H86.4277ZM85.2018 312.555V430.24H87.6536V312.555H85.2018ZM86.4277 429.014H-31.2578V431.466H86.4277V429.014Z" fill="white" fill-opacity="0.25" mask="url(#path-70-inside-33_4208_1471)"/>
<mask id="path-72-inside-34_4208_1471" fill="white">
<path d="M86.4297 312.555H204.115V430.24H86.4297V312.555Z"/>
</mask>
<path d="M204.115 430.24V431.466H205.341V430.24H204.115ZM202.889 312.555V430.24H205.341V312.555H202.889ZM204.115 429.014H86.4297V431.466H204.115V429.014Z" fill="white" fill-opacity="0.25" mask="url(#path-72-inside-34_4208_1471)"/>
<mask id="path-74-inside-35_4208_1471" fill="white">
<path d="M204.117 312.555H321.803V430.24H204.117V312.555Z"/>
</mask>
<path d="M321.803 430.24V431.466H323.029V430.24H321.803ZM320.577 312.555V430.24H323.029V312.555H320.577ZM321.803 429.014H204.117V431.466H321.803V429.014Z" fill="white" fill-opacity="0.25" mask="url(#path-74-inside-35_4208_1471)"/>
<mask id="path-76-inside-36_4208_1471" fill="white">
<path d="M321.805 312.555H439.49V430.24H321.805V312.555Z"/>
</mask>
<path d="M439.49 430.24V431.466H440.716V430.24H439.49ZM438.264 312.555V430.24H440.716V312.555H438.264ZM439.49 429.014H321.805V431.466H439.49V429.014Z" fill="white" fill-opacity="0.25" mask="url(#path-76-inside-36_4208_1471)"/>
<mask id="path-78-inside-37_4208_1471" fill="white">
<path d="M439.484 312.555H557.17V430.24H439.484V312.555Z"/>
</mask>
<path d="M557.17 430.24V431.466H558.396V430.24H557.17ZM555.944 312.555V430.24H558.396V312.555H555.944ZM557.17 429.014H439.484V431.466H557.17V429.014Z" fill="white" fill-opacity="0.25" mask="url(#path-78-inside-37_4208_1471)"/>
<mask id="path-80-inside-38_4208_1471" fill="white">
<path d="M557.172 312.555H674.857V430.24H557.172V312.555Z"/>
</mask>
<path d="M557.172 312.555H674.857V430.24H557.172V312.555Z" fill="white" fill-opacity="0.2"/>
<path d="M674.857 430.24V431.466H676.083V430.24H674.857ZM673.631 312.555V430.24H676.083V312.555H673.631ZM674.857 429.014H557.172V431.466H674.857V429.014Z" fill="white" fill-opacity="0.25" mask="url(#path-80-inside-38_4208_1471)"/>
<mask id="path-82-inside-39_4208_1471" fill="white">
<path d="M674.859 312.555H792.545V430.24H674.859V312.555Z"/>
</mask>
<path d="M792.545 430.24V431.466H793.771V430.24H792.545ZM791.319 312.555V430.24H793.771V312.555H791.319ZM792.545 429.014H674.859V431.466H792.545V429.014Z" fill="white" fill-opacity="0.25" mask="url(#path-82-inside-39_4208_1471)"/>
<mask id="path-84-inside-40_4208_1471" fill="white">
<path d="M792.547 312.555H910.232V430.24H792.547V312.555Z"/>
</mask>
<path d="M910.232 430.24V431.466H911.458V430.24H910.232ZM909.006 312.555V430.24H911.458V312.555H909.006ZM910.232 429.014H792.547V431.466H910.232V429.014Z" fill="white" fill-opacity="0.25" mask="url(#path-84-inside-40_4208_1471)"/>
<mask id="path-86-inside-41_4208_1471" fill="white">
<path d="M910.227 312.555H1027.91V430.24H910.227V312.555Z"/>
</mask>
<path d="M1027.91 430.24V431.466H1029.14V430.24H1027.91ZM1026.69 312.555V430.24H1029.14V312.555H1026.69ZM1027.91 429.014H910.227V431.466H1027.91V429.014Z" fill="white" fill-opacity="0.25" mask="url(#path-86-inside-41_4208_1471)"/>
<mask id="path-88-inside-42_4208_1471" fill="white">
<path d="M1027.91 312.555H1145.6V430.24H1027.91V312.555Z"/>
</mask>
<path d="M1027.91 312.555H1145.6V430.24H1027.91V312.555Z" fill="white" fill-opacity="0.2"/>
<path d="M1145.6 430.24V431.466H1146.83V430.24H1145.6ZM1144.37 312.555V430.24H1146.83V312.555H1144.37ZM1145.6 429.014H1027.91V431.466H1145.6V429.014Z" fill="white" fill-opacity="0.25" mask="url(#path-88-inside-42_4208_1471)"/>
<mask id="path-90-inside-43_4208_1471" fill="white">
<path d="M1145.6 312.555H1263.29V430.24H1145.6V312.555Z"/>
</mask>
<path d="M1263.29 430.24V431.466H1264.51V430.24H1263.29ZM1262.06 312.555V430.24H1264.51V312.555H1262.06ZM1263.29 429.014H1145.6V431.466H1263.29V429.014Z" fill="white" fill-opacity="0.25" mask="url(#path-90-inside-43_4208_1471)"/>
<mask id="path-92-inside-44_4208_1471" fill="white">
<path d="M1263.29 312.555H1380.97V430.24H1263.29V312.555Z"/>
</mask>
<path d="M1380.97 430.24V431.466H1382.2V430.24H1380.97ZM1379.75 312.555V430.24H1382.2V312.555H1379.75ZM1380.97 429.014H1263.29V431.466H1380.97V429.014Z" fill="white" fill-opacity="0.25" mask="url(#path-92-inside-44_4208_1471)"/>
<mask id="path-94-inside-45_4208_1471" fill="white">
<path d="M1380.97 312.555H1498.65V430.24H1380.97V312.555Z"/>
</mask>
<path d="M1498.65 430.24V431.466H1499.88V430.24H1498.65ZM1497.43 312.555V430.24H1499.88V312.555H1497.43ZM1498.65 429.014H1380.97V431.466H1498.65V429.014Z" fill="white" fill-opacity="0.25" mask="url(#path-94-inside-45_4208_1471)"/>
<mask id="path-96-inside-46_4208_1471" fill="white">
<path d="M1498.66 312.555H1616.34V430.24H1498.66V312.555Z"/>
</mask>
<path d="M1616.34 430.24V431.466H1617.57V430.24H1616.34ZM1615.12 312.555V430.24H1617.57V312.555H1615.12ZM1616.34 429.014H1498.66V431.466H1616.34V429.014Z" fill="white" fill-opacity="0.25" mask="url(#path-96-inside-46_4208_1471)"/>
<mask id="path-98-inside-47_4208_1471" fill="white">
<path d="M1616.34 312.555H1734.03V430.24H1616.34V312.555Z"/>
</mask>
<path d="M1734.03 430.24V431.466H1735.26V430.24H1734.03ZM1732.8 312.555V430.24H1735.26V312.555H1732.8ZM1734.03 429.014H1616.34V431.466H1734.03V429.014Z" fill="white" fill-opacity="0.25" mask="url(#path-98-inside-47_4208_1471)"/>
<mask id="path-100-inside-48_4208_1471" fill="white">
<path d="M1734.03 312.555H1851.72V430.24H1734.03V312.555Z"/>
</mask>
<path d="M1851.72 430.24V431.466H1852.94V430.24H1851.72ZM1850.49 312.555V430.24H1852.94V312.555H1850.49ZM1851.72 429.014H1734.03V431.466H1851.72V429.014Z" fill="white" fill-opacity="0.25" mask="url(#path-100-inside-48_4208_1471)"/>
<mask id="path-102-inside-49_4208_1471" fill="white">
<path d="M-31.2578 430.24H86.4277V547.926H-31.2578V430.24Z"/>
</mask>
<path d="M-31.2578 430.24H86.4277V547.926H-31.2578V430.24Z" fill="white" fill-opacity="0.2"/>
<path d="M86.4277 547.926V549.152H87.6536V547.926H86.4277ZM85.2018 430.24V547.926H87.6536V430.24H85.2018ZM86.4277 546.7H-31.2578V549.152H86.4277V546.7Z" fill="white" fill-opacity="0.25" mask="url(#path-102-inside-49_4208_1471)"/>
<mask id="path-104-inside-50_4208_1471" fill="white">
<path d="M86.4297 430.24H204.115V547.926H86.4297V430.24Z"/>
</mask>
<path d="M204.115 547.926V549.152H205.341V547.926H204.115ZM202.889 430.24V547.926H205.341V430.24H202.889ZM204.115 546.7H86.4297V549.152H204.115V546.7Z" fill="white" fill-opacity="0.25" mask="url(#path-104-inside-50_4208_1471)"/>
<mask id="path-106-inside-51_4208_1471" fill="white">
<path d="M204.117 430.24H321.803V547.926H204.117V430.24Z"/>
</mask>
<path d="M321.803 547.926V549.152H323.029V547.926H321.803ZM320.577 430.24V547.926H323.029V430.24H320.577ZM321.803 546.7H204.117V549.152H321.803V546.7Z" fill="white" fill-opacity="0.25" mask="url(#path-106-inside-51_4208_1471)"/>
<mask id="path-108-inside-52_4208_1471" fill="white">
<path d="M321.805 430.24H439.49V547.926H321.805V430.24Z"/>
</mask>
<path d="M439.49 547.926V549.152H440.716V547.926H439.49ZM438.264 430.24V547.926H440.716V430.24H438.264ZM439.49 546.7H321.805V549.152H439.49V546.7Z" fill="white" fill-opacity="0.25" mask="url(#path-108-inside-52_4208_1471)"/>
<mask id="path-110-inside-53_4208_1471" fill="white">
<path d="M439.484 430.24H557.17V547.926H439.484V430.24Z"/>
</mask>
<path d="M557.17 547.926V549.152H558.396V547.926H557.17ZM555.944 430.24V547.926H558.396V430.24H555.944ZM557.17 546.7H439.484V549.152H557.17V546.7Z" fill="white" fill-opacity="0.25" mask="url(#path-110-inside-53_4208_1471)"/>
<mask id="path-112-inside-54_4208_1471" fill="white">
<path d="M557.172 430.24H674.857V547.926H557.172V430.24Z"/>
</mask>
<path d="M674.857 547.926V549.152H676.083V547.926H674.857ZM673.631 430.24V547.926H676.083V430.24H673.631ZM674.857 546.7H557.172V549.152H674.857V546.7Z" fill="white" fill-opacity="0.25" mask="url(#path-112-inside-54_4208_1471)"/>
<mask id="path-114-inside-55_4208_1471" fill="white">
<path d="M674.859 430.24H792.545V547.926H674.859V430.24Z"/>
</mask>
<path d="M792.545 547.926V549.152H793.771V547.926H792.545ZM791.319 430.24V547.926H793.771V430.24H791.319ZM792.545 546.7H674.859V549.152H792.545V546.7Z" fill="white" fill-opacity="0.25" mask="url(#path-114-inside-55_4208_1471)"/>
<mask id="path-116-inside-56_4208_1471" fill="white">
<path d="M792.547 430.24H910.232V547.926H792.547V430.24Z"/>
</mask>
<path d="M910.232 547.926V549.152H911.458V547.926H910.232ZM909.006 430.24V547.926H911.458V430.24H909.006ZM910.232 546.7H792.547V549.152H910.232V546.7Z" fill="white" fill-opacity="0.25" mask="url(#path-116-inside-56_4208_1471)"/>
<mask id="path-118-inside-57_4208_1471" fill="white">
<path d="M910.227 430.24H1027.91V547.926H910.227V430.24Z"/>
</mask>
<path d="M1027.91 547.926V549.152H1029.14V547.926H1027.91ZM1026.69 430.24V547.926H1029.14V430.24H1026.69ZM1027.91 546.7H910.227V549.152H1027.91V546.7Z" fill="white" fill-opacity="0.25" mask="url(#path-118-inside-57_4208_1471)"/>
<mask id="path-120-inside-58_4208_1471" fill="white">
<path d="M1027.91 430.24H1145.6V547.926H1027.91V430.24Z"/>
</mask>
<path d="M1145.6 547.926V549.152H1146.83V547.926H1145.6ZM1144.37 430.24V547.926H1146.83V430.24H1144.37ZM1145.6 546.7H1027.91V549.152H1145.6V546.7Z" fill="white" fill-opacity="0.25" mask="url(#path-120-inside-58_4208_1471)"/>
<mask id="path-122-inside-59_4208_1471" fill="white">
<path d="M1145.6 430.24H1263.29V547.926H1145.6V430.24Z"/>
</mask>
<path d="M1263.29 547.926V549.152H1264.51V547.926H1263.29ZM1262.06 430.24V547.926H1264.51V430.24H1262.06ZM1263.29 546.7H1145.6V549.152H1263.29V546.7Z" fill="white" fill-opacity="0.25" mask="url(#path-122-inside-59_4208_1471)"/>
<mask id="path-124-inside-60_4208_1471" fill="white">
<path d="M1263.29 430.24H1380.97V547.926H1263.29V430.24Z"/>
</mask>
<path d="M1380.97 547.926V549.152H1382.2V547.926H1380.97ZM1379.75 430.24V547.926H1382.2V430.24H1379.75ZM1380.97 546.7H1263.29V549.152H1380.97V546.7Z" fill="white" fill-opacity="0.25" mask="url(#path-124-inside-60_4208_1471)"/>
<mask id="path-126-inside-61_4208_1471" fill="white">
<path d="M1380.97 430.24H1498.65V547.926H1380.97V430.24Z"/>
</mask>
<path d="M1380.97 430.24H1498.65V547.926H1380.97V430.24Z" fill="white" fill-opacity="0.2"/>
<path d="M1498.65 547.926V549.152H1499.88V547.926H1498.65ZM1497.43 430.24V547.926H1499.88V430.24H1497.43ZM1498.65 546.7H1380.97V549.152H1498.65V546.7Z" fill="white" fill-opacity="0.25" mask="url(#path-126-inside-61_4208_1471)"/>
<mask id="path-128-inside-62_4208_1471" fill="white">
<path d="M1498.66 430.24H1616.34V547.926H1498.66V430.24Z"/>
</mask>
<path d="M1616.34 547.926V549.152H1617.57V547.926H1616.34ZM1615.12 430.24V547.926H1617.57V430.24H1615.12ZM1616.34 546.7H1498.66V549.152H1616.34V546.7Z" fill="white" fill-opacity="0.25" mask="url(#path-128-inside-62_4208_1471)"/>
<mask id="path-130-inside-63_4208_1471" fill="white">
<path d="M1616.34 430.24H1734.03V547.926H1616.34V430.24Z"/>
</mask>
<path d="M1734.03 547.926V549.152H1735.26V547.926H1734.03ZM1732.8 430.24V547.926H1735.26V430.24H1732.8ZM1734.03 546.7H1616.34V549.152H1734.03V546.7Z" fill="white" fill-opacity="0.25" mask="url(#path-130-inside-63_4208_1471)"/>
<mask id="path-132-inside-64_4208_1471" fill="white">
<path d="M1734.03 430.24H1851.72V547.926H1734.03V430.24Z"/>
</mask>
<path d="M1851.72 547.926V549.152H1852.94V547.926H1851.72ZM1850.49 430.24V547.926H1852.94V430.24H1850.49ZM1851.72 546.7H1734.03V549.152H1851.72V546.7Z" fill="white" fill-opacity="0.25" mask="url(#path-132-inside-64_4208_1471)"/>
<mask id="path-134-inside-65_4208_1471" fill="white">
<path d="M-31.2578 547.926H86.4277V665.611H-31.2578V547.926Z"/>
</mask>
<path d="M86.4277 665.611V666.837H87.6536V665.611H86.4277ZM85.2018 547.926V665.611H87.6536V547.926H85.2018ZM86.4277 664.385H-31.2578V666.837H86.4277V664.385Z" fill="white" fill-opacity="0.25" mask="url(#path-134-inside-65_4208_1471)"/>
<mask id="path-136-inside-66_4208_1471" fill="white">
<path d="M86.4297 547.926H204.115V665.611H86.4297V547.926Z"/>
</mask>
<path d="M204.115 665.611V666.837H205.341V665.611H204.115ZM202.889 547.926V665.611H205.341V547.926H202.889ZM204.115 664.385H86.4297V666.837H204.115V664.385Z" fill="white" fill-opacity="0.25" mask="url(#path-136-inside-66_4208_1471)"/>
<mask id="path-138-inside-67_4208_1471" fill="white">
<path d="M204.117 547.926H321.803V665.611H204.117V547.926Z"/>
</mask>
<path d="M321.803 665.611V666.837H323.029V665.611H321.803ZM320.577 547.926V665.611H323.029V547.926H320.577ZM321.803 664.385H204.117V666.837H321.803V664.385Z" fill="white" fill-opacity="0.25" mask="url(#path-138-inside-67_4208_1471)"/>
<mask id="path-140-inside-68_4208_1471" fill="white">
<path d="M321.805 547.926H439.49V665.611H321.805V547.926Z"/>
</mask>
<path d="M439.49 665.611V666.837H440.716V665.611H439.49ZM438.264 547.926V665.611H440.716V547.926H438.264ZM439.49 664.385H321.805V666.837H439.49V664.385Z" fill="white" fill-opacity="0.25" mask="url(#path-140-inside-68_4208_1471)"/>
<mask id="path-142-inside-69_4208_1471" fill="white">
<path d="M439.484 547.926H557.17V665.611H439.484V547.926Z"/>
</mask>
<path d="M557.17 665.611V666.837H558.396V665.611H557.17ZM555.944 547.926V665.611H558.396V547.926H555.944ZM557.17 664.385H439.484V666.837H557.17V664.385Z" fill="white" fill-opacity="0.25" mask="url(#path-142-inside-69_4208_1471)"/>
<mask id="path-144-inside-70_4208_1471" fill="white">
<path d="M557.172 547.926H674.857V665.611H557.172V547.926Z"/>
</mask>
<path d="M674.857 665.611V666.837H676.083V665.611H674.857ZM673.631 547.926V665.611H676.083V547.926H673.631ZM674.857 664.385H557.172V666.837H674.857V664.385Z" fill="white" fill-opacity="0.25" mask="url(#path-144-inside-70_4208_1471)"/>
<mask id="path-146-inside-71_4208_1471" fill="white">
<path d="M674.859 547.926H792.545V665.611H674.859V547.926Z"/>
</mask>
<path d="M674.859 547.926H792.545V665.611H674.859V547.926Z" fill="white" fill-opacity="0.2"/>
<path d="M792.545 665.611V666.837H793.771V665.611H792.545ZM791.319 547.926V665.611H793.771V547.926H791.319ZM792.545 664.385H674.859V666.837H792.545V664.385Z" fill="white" fill-opacity="0.25" mask="url(#path-146-inside-71_4208_1471)"/>
<mask id="path-148-inside-72_4208_1471" fill="white">
<path d="M792.547 547.926H910.232V665.611H792.547V547.926Z"/>
</mask>
<path d="M910.232 665.611V666.837H911.458V665.611H910.232ZM909.006 547.926V665.611H911.458V547.926H909.006ZM910.232 664.385H792.547V666.837H910.232V664.385Z" fill="white" fill-opacity="0.25" mask="url(#path-148-inside-72_4208_1471)"/>
<mask id="path-150-inside-73_4208_1471" fill="white">
<path d="M910.227 547.926H1027.91V665.611H910.227V547.926Z"/>
</mask>
<path d="M1027.91 665.611V666.837H1029.14V665.611H1027.91ZM1026.69 547.926V665.611H1029.14V547.926H1026.69ZM1027.91 664.385H910.227V666.837H1027.91V664.385Z" fill="white" fill-opacity="0.25" mask="url(#path-150-inside-73_4208_1471)"/>
<mask id="path-152-inside-74_4208_1471" fill="white">
<path d="M1027.91 547.926H1145.6V665.611H1027.91V547.926Z"/>
</mask>
<path d="M1145.6 665.611V666.837H1146.83V665.611H1145.6ZM1144.37 547.926V665.611H1146.83V547.926H1144.37ZM1145.6 664.385H1027.91V666.837H1145.6V664.385Z" fill="white" fill-opacity="0.25" mask="url(#path-152-inside-74_4208_1471)"/>
<mask id="path-154-inside-75_4208_1471" fill="white">
<path d="M1145.6 547.926H1263.29V665.611H1145.6V547.926Z"/>
</mask>
<path d="M1263.29 665.611V666.837H1264.51V665.611H1263.29ZM1262.06 547.926V665.611H1264.51V547.926H1262.06ZM1263.29 664.385H1145.6V666.837H1263.29V664.385Z" fill="white" fill-opacity="0.25" mask="url(#path-154-inside-75_4208_1471)"/>
<mask id="path-156-inside-76_4208_1471" fill="white">
<path d="M1263.29 547.926H1380.97V665.611H1263.29V547.926Z"/>
</mask>
<path d="M1380.97 665.611V666.837H1382.2V665.611H1380.97ZM1379.75 547.926V665.611H1382.2V547.926H1379.75ZM1380.97 664.385H1263.29V666.837H1380.97V664.385Z" fill="white" fill-opacity="0.25" mask="url(#path-156-inside-76_4208_1471)"/>
<mask id="path-158-inside-77_4208_1471" fill="white">
<path d="M1380.97 547.926H1498.65V665.611H1380.97V547.926Z"/>
</mask>
<path d="M1498.65 665.611V666.837H1499.88V665.611H1498.65ZM1497.43 547.926V665.611H1499.88V547.926H1497.43ZM1498.65 664.385H1380.97V666.837H1498.65V664.385Z" fill="white" fill-opacity="0.25" mask="url(#path-158-inside-77_4208_1471)"/>
<mask id="path-160-inside-78_4208_1471" fill="white">
<path d="M1498.66 547.926H1616.34V665.611H1498.66V547.926Z"/>
</mask>
<path d="M1616.34 665.611V666.837H1617.57V665.611H1616.34ZM1615.12 547.926V665.611H1617.57V547.926H1615.12ZM1616.34 664.385H1498.66V666.837H1616.34V664.385Z" fill="white" fill-opacity="0.25" mask="url(#path-160-inside-78_4208_1471)"/>
<mask id="path-162-inside-79_4208_1471" fill="white">
<path d="M1616.34 547.926H1734.03V665.611H1616.34V547.926Z"/>
</mask>
<path d="M1734.03 665.611V666.837H1735.26V665.611H1734.03ZM1732.8 547.926V665.611H1735.26V547.926H1732.8ZM1734.03 664.385H1616.34V666.837H1734.03V664.385Z" fill="white" fill-opacity="0.25" mask="url(#path-162-inside-79_4208_1471)"/>
<mask id="path-164-inside-80_4208_1471" fill="white">
<path d="M1734.03 547.926H1851.72V665.611H1734.03V547.926Z"/>
</mask>
<path d="M1851.72 665.611V666.837H1852.94V665.611H1851.72ZM1850.49 547.926V665.611H1852.94V547.926H1850.49ZM1851.72 664.385H1734.03V666.837H1851.72V664.385Z" fill="white" fill-opacity="0.25" mask="url(#path-164-inside-80_4208_1471)"/>
<mask id="path-166-inside-81_4208_1471" fill="white">
<path d="M-31.2578 665.611H86.4277V783.297H-31.2578V665.611Z"/>
</mask>
<path d="M86.4277 783.297V784.523H87.6536V783.297H86.4277ZM85.2018 665.611V783.297H87.6536V665.611H85.2018ZM86.4277 782.071H-31.2578V784.523H86.4277V782.071Z" fill="white" fill-opacity="0.25" mask="url(#path-166-inside-81_4208_1471)"/>
<mask id="path-168-inside-82_4208_1471" fill="white">
<path d="M86.4297 665.611H204.115V783.297H86.4297V665.611Z"/>
</mask>
<path d="M204.115 783.297V784.523H205.341V783.297H204.115ZM202.889 665.611V783.297H205.341V665.611H202.889ZM204.115 782.071H86.4297V784.523H204.115V782.071Z" fill="white" fill-opacity="0.25" mask="url(#path-168-inside-82_4208_1471)"/>
<mask id="path-170-inside-83_4208_1471" fill="white">
<path d="M204.117 665.611H321.803V783.297H204.117V665.611Z"/>
</mask>
<path d="M321.803 783.297V784.523H323.029V783.297H321.803ZM320.577 665.611V783.297H323.029V665.611H320.577ZM321.803 782.071H204.117V784.523H321.803V782.071Z" fill="white" fill-opacity="0.25" mask="url(#path-170-inside-83_4208_1471)"/>
<mask id="path-172-inside-84_4208_1471" fill="white">
<path d="M321.805 665.611H439.49V783.297H321.805V665.611Z"/>
</mask>
<path d="M321.805 665.611H439.49V783.297H321.805V665.611Z" fill="white" fill-opacity="0.2"/>
<path d="M439.49 783.297V784.523H440.716V783.297H439.49ZM438.264 665.611V783.297H440.716V665.611H438.264ZM439.49 782.071H321.805V784.523H439.49V782.071Z" fill="white" fill-opacity="0.25" mask="url(#path-172-inside-84_4208_1471)"/>
<mask id="path-174-inside-85_4208_1471" fill="white">
<path d="M439.484 665.611H557.17V783.297H439.484V665.611Z"/>
</mask>
<path d="M557.17 783.297V784.523H558.396V783.297H557.17ZM555.944 665.611V783.297H558.396V665.611H555.944ZM557.17 782.071H439.484V784.523H557.17V782.071Z" fill="white" fill-opacity="0.25" mask="url(#path-174-inside-85_4208_1471)"/>
<mask id="path-176-inside-86_4208_1471" fill="white">
<path d="M557.172 665.611H674.857V783.297H557.172V665.611Z"/>
</mask>
<path d="M674.857 783.297V784.523H676.083V783.297H674.857ZM673.631 665.611V783.297H676.083V665.611H673.631ZM674.857 782.071H557.172V784.523H674.857V782.071Z" fill="white" fill-opacity="0.25" mask="url(#path-176-inside-86_4208_1471)"/>
<mask id="path-178-inside-87_4208_1471" fill="white">
<path d="M674.859 665.611H792.545V783.297H674.859V665.611Z"/>
</mask>
<path d="M792.545 783.297V784.523H793.771V783.297H792.545ZM791.319 665.611V783.297H793.771V665.611H791.319ZM792.545 782.071H674.859V784.523H792.545V782.071Z" fill="white" fill-opacity="0.25" mask="url(#path-178-inside-87_4208_1471)"/>
<mask id="path-180-inside-88_4208_1471" fill="white">
<path d="M792.547 665.611H910.232V783.297H792.547V665.611Z"/>
</mask>
<path d="M910.232 783.297V784.523H911.458V783.297H910.232ZM909.006 665.611V783.297H911.458V665.611H909.006ZM910.232 782.071H792.547V784.523H910.232V782.071Z" fill="white" fill-opacity="0.25" mask="url(#path-180-inside-88_4208_1471)"/>
<mask id="path-182-inside-89_4208_1471" fill="white">
<path d="M910.227 665.611H1027.91V783.297H910.227V665.611Z"/>
</mask>
<path d="M1027.91 783.297V784.523H1029.14V783.297H1027.91ZM1026.69 665.611V783.297H1029.14V665.611H1026.69ZM1027.91 782.071H910.227V784.523H1027.91V782.071Z" fill="white" fill-opacity="0.25" mask="url(#path-182-inside-89_4208_1471)"/>
<mask id="path-184-inside-90_4208_1471" fill="white">
<path d="M1027.91 665.611H1145.6V783.297H1027.91V665.611Z"/>
</mask>
<path d="M1027.91 665.611H1145.6V783.297H1027.91V665.611Z" fill="white" fill-opacity="0.2"/>
<path d="M1145.6 783.297V784.523H1146.83V783.297H1145.6ZM1144.37 665.611V783.297H1146.83V665.611H1144.37ZM1145.6 782.071H1027.91V784.523H1145.6V782.071Z" fill="white" fill-opacity="0.25" mask="url(#path-184-inside-90_4208_1471)"/>
<mask id="path-186-inside-91_4208_1471" fill="white">
<path d="M1145.6 665.611H1263.29V783.297H1145.6V665.611Z"/>
</mask>
<path d="M1263.29 783.297V784.523H1264.51V783.297H1263.29ZM1262.06 665.611V783.297H1264.51V665.611H1262.06ZM1263.29 782.071H1145.6V784.523H1263.29V782.071Z" fill="white" fill-opacity="0.25" mask="url(#path-186-inside-91_4208_1471)"/>
<mask id="path-188-inside-92_4208_1471" fill="white">
<path d="M1263.29 665.611H1380.97V783.297H1263.29V665.611Z"/>
</mask>
<path d="M1380.97 783.297V784.523H1382.2V783.297H1380.97ZM1379.75 665.611V783.297H1382.2V665.611H1379.75ZM1380.97 782.071H1263.29V784.523H1380.97V782.071Z" fill="white" fill-opacity="0.25" mask="url(#path-188-inside-92_4208_1471)"/>
<mask id="path-190-inside-93_4208_1471" fill="white">
<path d="M1380.97 665.611H1498.65V783.297H1380.97V665.611Z"/>
</mask>
<path d="M1498.65 783.297V784.523H1499.88V783.297H1498.65ZM1497.43 665.611V783.297H1499.88V665.611H1497.43ZM1498.65 782.071H1380.97V784.523H1498.65V782.071Z" fill="white" fill-opacity="0.25" mask="url(#path-190-inside-93_4208_1471)"/>
<mask id="path-192-inside-94_4208_1471" fill="white">
<path d="M1498.66 665.611H1616.34V783.297H1498.66V665.611Z"/>
</mask>
<path d="M1616.34 783.297V784.523H1617.57V783.297H1616.34ZM1615.12 665.611V783.297H1617.57V665.611H1615.12ZM1616.34 782.071H1498.66V784.523H1616.34V782.071Z" fill="white" fill-opacity="0.25" mask="url(#path-192-inside-94_4208_1471)"/>
<mask id="path-194-inside-95_4208_1471" fill="white">
<path d="M1616.34 665.611H1734.03V783.297H1616.34V665.611Z"/>
</mask>
<path d="M1734.03 783.297V784.523H1735.26V783.297H1734.03ZM1732.8 665.611V783.297H1735.26V665.611H1732.8ZM1734.03 782.071H1616.34V784.523H1734.03V782.071Z" fill="white" fill-opacity="0.25" mask="url(#path-194-inside-95_4208_1471)"/>
<mask id="path-196-inside-96_4208_1471" fill="white">
<path d="M1734.03 665.611H1851.72V783.297H1734.03V665.611Z"/>
</mask>
<path d="M1851.72 783.297V784.523H1852.94V783.297H1851.72ZM1850.49 665.611V783.297H1852.94V665.611H1850.49ZM1851.72 782.071H1734.03V784.523H1851.72V782.071Z" fill="white" fill-opacity="0.25" mask="url(#path-196-inside-96_4208_1471)"/>
<mask id="path-198-inside-97_4208_1471" fill="white">
<path d="M-31.2578 783.297H86.4277V900.982H-31.2578V783.297Z"/>
</mask>
<path d="M86.4277 900.982V902.208H87.6536V900.982H86.4277ZM85.2018 783.297V900.982H87.6536V783.297H85.2018ZM86.4277 899.756H-31.2578V902.208H86.4277V899.756Z" fill="white" fill-opacity="0.25" mask="url(#path-198-inside-97_4208_1471)"/>
<mask id="path-200-inside-98_4208_1471" fill="white">
<path d="M86.4297 783.297H204.115V900.982H86.4297V783.297Z"/>
</mask>
<path d="M86.4297 783.297H204.115V900.982H86.4297V783.297Z" fill="white" fill-opacity="0.2"/>
<path d="M204.115 900.982V902.208H205.341V900.982H204.115ZM202.889 783.297V900.982H205.341V783.297H202.889ZM204.115 899.756H86.4297V902.208H204.115V899.756Z" fill="white" fill-opacity="0.25" mask="url(#path-200-inside-98_4208_1471)"/>
<mask id="path-202-inside-99_4208_1471" fill="white">
<path d="M204.117 783.297H321.803V900.982H204.117V783.297Z"/>
</mask>
<path d="M321.803 900.982V902.208H323.029V900.982H321.803ZM320.577 783.297V900.982H323.029V783.297H320.577ZM321.803 899.756H204.117V902.208H321.803V899.756Z" fill="white" fill-opacity="0.25" mask="url(#path-202-inside-99_4208_1471)"/>
<mask id="path-204-inside-100_4208_1471" fill="white">
<path d="M321.805 783.297H439.49V900.982H321.805V783.297Z"/>
</mask>
<path d="M439.49 900.982V902.208H440.716V900.982H439.49ZM438.264 783.297V900.982H440.716V783.297H438.264ZM439.49 899.756H321.805V902.208H439.49V899.756Z" fill="white" fill-opacity="0.25" mask="url(#path-204-inside-100_4208_1471)"/>
<mask id="path-206-inside-101_4208_1471" fill="white">
<path d="M439.484 783.297H557.17V900.982H439.484V783.297Z"/>
</mask>
<path d="M557.17 900.982V902.208H558.396V900.982H557.17ZM555.944 783.297V900.982H558.396V783.297H555.944ZM557.17 899.756H439.484V902.208H557.17V899.756Z" fill="white" fill-opacity="0.25" mask="url(#path-206-inside-101_4208_1471)"/>
<mask id="path-208-inside-102_4208_1471" fill="white">
<path d="M557.172 783.297H674.857V900.982H557.172V783.297Z"/>
</mask>
<path d="M674.857 900.982V902.208H676.083V900.982H674.857ZM673.631 783.297V900.982H676.083V783.297H673.631ZM674.857 899.756H557.172V902.208H674.857V899.756Z" fill="white" fill-opacity="0.25" mask="url(#path-208-inside-102_4208_1471)"/>
<mask id="path-210-inside-103_4208_1471" fill="white">
<path d="M674.859 783.297H792.545V900.982H674.859V783.297Z"/>
</mask>
<path d="M792.545 900.982V902.208H793.771V900.982H792.545ZM791.319 783.297V900.982H793.771V783.297H791.319ZM792.545 899.756H674.859V902.208H792.545V899.756Z" fill="white" fill-opacity="0.25" mask="url(#path-210-inside-103_4208_1471)"/>
<mask id="path-212-inside-104_4208_1471" fill="white">
<path d="M792.547 783.297H910.232V900.982H792.547V783.297Z"/>
</mask>
<path d="M910.232 900.982V902.208H911.458V900.982H910.232ZM909.006 783.297V900.982H911.458V783.297H909.006ZM910.232 899.756H792.547V902.208H910.232V899.756Z" fill="white" fill-opacity="0.25" mask="url(#path-212-inside-104_4208_1471)"/>
<mask id="path-214-inside-105_4208_1471" fill="white">
<path d="M910.227 783.297H1027.91V900.982H910.227V783.297Z"/>
</mask>
<path d="M1027.91 900.982V902.208H1029.14V900.982H1027.91ZM1026.69 783.297V900.982H1029.14V783.297H1026.69ZM1027.91 899.756H910.227V902.208H1027.91V899.756Z" fill="white" fill-opacity="0.25" mask="url(#path-214-inside-105_4208_1471)"/>
<mask id="path-216-inside-106_4208_1471" fill="white">
<path d="M1027.91 783.297H1145.6V900.982H1027.91V783.297Z"/>
</mask>
<path d="M1145.6 900.982V902.208H1146.83V900.982H1145.6ZM1144.37 783.297V900.982H1146.83V783.297H1144.37ZM1145.6 899.756H1027.91V902.208H1145.6V899.756Z" fill="white" fill-opacity="0.25" mask="url(#path-216-inside-106_4208_1471)"/>
<mask id="path-218-inside-107_4208_1471" fill="white">
<path d="M1145.6 783.297H1263.29V900.982H1145.6V783.297Z"/>
</mask>
<path d="M1263.29 900.982V902.208H1264.51V900.982H1263.29ZM1262.06 783.297V900.982H1264.51V783.297H1262.06ZM1263.29 899.756H1145.6V902.208H1263.29V899.756Z" fill="white" fill-opacity="0.25" mask="url(#path-218-inside-107_4208_1471)"/>
<mask id="path-220-inside-108_4208_1471" fill="white">
<path d="M1263.29 783.297H1380.97V900.982H1263.29V783.297Z"/>
</mask>
<path d="M1380.97 900.982V902.208H1382.2V900.982H1380.97ZM1379.75 783.297V900.982H1382.2V783.297H1379.75ZM1380.97 899.756H1263.29V902.208H1380.97V899.756Z" fill="white" fill-opacity="0.25" mask="url(#path-220-inside-108_4208_1471)"/>
<mask id="path-222-inside-109_4208_1471" fill="white">
<path d="M1380.97 783.297H1498.65V900.982H1380.97V783.297Z"/>
</mask>
<path d="M1498.65 900.982V902.208H1499.88V900.982H1498.65ZM1497.43 783.297V900.982H1499.88V783.297H1497.43ZM1498.65 899.756H1380.97V902.208H1498.65V899.756Z" fill="white" fill-opacity="0.25" mask="url(#path-222-inside-109_4208_1471)"/>
<mask id="path-224-inside-110_4208_1471" fill="white">
<path d="M1498.66 783.297H1616.34V900.982H1498.66V783.297Z"/>
</mask>
<path d="M1616.34 900.982V902.208H1617.57V900.982H1616.34ZM1615.12 783.297V900.982H1617.57V783.297H1615.12ZM1616.34 899.756H1498.66V902.208H1616.34V899.756Z" fill="white" fill-opacity="0.25" mask="url(#path-224-inside-110_4208_1471)"/>
<mask id="path-226-inside-111_4208_1471" fill="white">
<path d="M1616.34 783.297H1734.03V900.982H1616.34V783.297Z"/>
</mask>
<path d="M1616.34 783.297H1734.03V900.982H1616.34V783.297Z" fill="white" fill-opacity="0.2"/>
<path d="M1734.03 900.982V902.208H1735.26V900.982H1734.03ZM1732.8 783.297V900.982H1735.26V783.297H1732.8ZM1734.03 899.756H1616.34V902.208H1734.03V899.756Z" fill="white" fill-opacity="0.25" mask="url(#path-226-inside-111_4208_1471)"/>
<mask id="path-228-inside-112_4208_1471" fill="white">
<path d="M1734.03 783.297H1851.72V900.982H1734.03V783.297Z"/>
</mask>
<path d="M1851.72 900.982V902.208H1852.94V900.982H1851.72ZM1850.49 783.297V900.982H1852.94V783.297H1850.49ZM1851.72 899.756H1734.03V902.208H1851.72V899.756Z" fill="white" fill-opacity="0.25" mask="url(#path-228-inside-112_4208_1471)"/>
<mask id="path-230-inside-113_4208_1471" fill="white">
<path d="M-31.2578 900.982H86.4277V1018.67H-31.2578V900.982Z"/>
</mask>
<path d="M86.4277 1018.67V1019.89H87.6536V1018.67H86.4277ZM85.2018 900.982V1018.67H87.6536V900.982H85.2018ZM86.4277 1017.44H-31.2578V1019.89H86.4277V1017.44Z" fill="white" fill-opacity="0.25" mask="url(#path-230-inside-113_4208_1471)"/>
<mask id="path-232-inside-114_4208_1471" fill="white">
<path d="M86.4297 900.982H204.115V1018.67H86.4297V900.982Z"/>
</mask>
<path d="M204.115 1018.67V1019.89H205.341V1018.67H204.115ZM202.889 900.982V1018.67H205.341V900.982H202.889ZM204.115 1017.44H86.4297V1019.89H204.115V1017.44Z" fill="white" fill-opacity="0.25" mask="url(#path-232-inside-114_4208_1471)"/>
<mask id="path-234-inside-115_4208_1471" fill="white">
<path d="M204.117 900.982H321.803V1018.67H204.117V900.982Z"/>
</mask>
<path d="M321.803 1018.67V1019.89H323.029V1018.67H321.803ZM320.577 900.982V1018.67H323.029V900.982H320.577ZM321.803 1017.44H204.117V1019.89H321.803V1017.44Z" fill="white" fill-opacity="0.25" mask="url(#path-234-inside-115_4208_1471)"/>
<mask id="path-236-inside-116_4208_1471" fill="white">
<path d="M321.805 900.982H439.49V1018.67H321.805V900.982Z"/>
</mask>
<path d="M439.49 1018.67V1019.89H440.716V1018.67H439.49ZM438.264 900.982V1018.67H440.716V900.982H438.264ZM439.49 1017.44H321.805V1019.89H439.49V1017.44Z" fill="white" fill-opacity="0.25" mask="url(#path-236-inside-116_4208_1471)"/>
<mask id="path-238-inside-117_4208_1471" fill="white">
<path d="M439.484 900.982H557.17V1018.67H439.484V900.982Z"/>
</mask>
<path d="M557.17 1018.67V1019.89H558.396V1018.67H557.17ZM555.944 900.982V1018.67H558.396V900.982H555.944ZM557.17 1017.44H439.484V1019.89H557.17V1017.44Z" fill="white" fill-opacity="0.25" mask="url(#path-238-inside-117_4208_1471)"/>
<mask id="path-240-inside-118_4208_1471" fill="white">
<path d="M557.172 900.982H674.857V1018.67H557.172V900.982Z"/>
</mask>
<path d="M674.857 1018.67V1019.89H676.083V1018.67H674.857ZM673.631 900.982V1018.67H676.083V900.982H673.631ZM674.857 1017.44H557.172V1019.89H674.857V1017.44Z" fill="white" fill-opacity="0.25" mask="url(#path-240-inside-118_4208_1471)"/>
<mask id="path-242-inside-119_4208_1471" fill="white">
<path d="M674.859 900.982H792.545V1018.67H674.859V900.982Z"/>
</mask>
<path d="M674.859 900.982H792.545V1018.67H674.859V900.982Z" fill="white" fill-opacity="0.2"/>
<path d="M792.545 1018.67V1019.89H793.771V1018.67H792.545ZM791.319 900.982V1018.67H793.771V900.982H791.319ZM792.545 1017.44H674.859V1019.89H792.545V1017.44Z" fill="white" fill-opacity="0.25" mask="url(#path-242-inside-119_4208_1471)"/>
<mask id="path-244-inside-120_4208_1471" fill="white">
<path d="M792.547 900.982H910.232V1018.67H792.547V900.982Z"/>
</mask>
<path d="M910.232 1018.67V1019.89H911.458V1018.67H910.232ZM909.006 900.982V1018.67H911.458V900.982H909.006ZM910.232 1017.44H792.547V1019.89H910.232V1017.44Z" fill="white" fill-opacity="0.25" mask="url(#path-244-inside-120_4208_1471)"/>
<mask id="path-246-inside-121_4208_1471" fill="white">
<path d="M910.227 900.982H1027.91V1018.67H910.227V900.982Z"/>
</mask>
<path d="M1027.91 1018.67V1019.89H1029.14V1018.67H1027.91ZM1026.69 900.982V1018.67H1029.14V900.982H1026.69ZM1027.91 1017.44H910.227V1019.89H1027.91V1017.44Z" fill="white" fill-opacity="0.25" mask="url(#path-246-inside-121_4208_1471)"/>
<mask id="path-248-inside-122_4208_1471" fill="white">
<path d="M1027.91 900.982H1145.6V1018.67H1027.91V900.982Z"/>
</mask>
<path d="M1145.6 1018.67V1019.89H1146.83V1018.67H1145.6ZM1144.37 900.982V1018.67H1146.83V900.982H1144.37ZM1145.6 1017.44H1027.91V1019.89H1145.6V1017.44Z" fill="white" fill-opacity="0.25" mask="url(#path-248-inside-122_4208_1471)"/>
<mask id="path-250-inside-123_4208_1471" fill="white">
<path d="M1145.6 900.982H1263.29V1018.67H1145.6V900.982Z"/>
</mask>
<path d="M1263.29 1018.67V1019.89H1264.51V1018.67H1263.29ZM1262.06 900.982V1018.67H1264.51V900.982H1262.06ZM1263.29 1017.44H1145.6V1019.89H1263.29V1017.44Z" fill="white" fill-opacity="0.25" mask="url(#path-250-inside-123_4208_1471)"/>
<mask id="path-252-inside-124_4208_1471" fill="white">
<path d="M1263.29 900.982H1380.97V1018.67H1263.29V900.982Z"/>
</mask>
<path d="M1380.97 1018.67V1019.89H1382.2V1018.67H1380.97ZM1379.75 900.982V1018.67H1382.2V900.982H1379.75ZM1380.97 1017.44H1263.29V1019.89H1380.97V1017.44Z" fill="white" fill-opacity="0.25" mask="url(#path-252-inside-124_4208_1471)"/>
<mask id="path-254-inside-125_4208_1471" fill="white">
<path d="M1380.97 900.982H1498.65V1018.67H1380.97V900.982Z"/>
</mask>
<path d="M1380.97 900.982H1498.65V1018.67H1380.97V900.982Z" fill="white" fill-opacity="0.2"/>
<path d="M1498.65 1018.67V1019.89H1499.88V1018.67H1498.65ZM1497.43 900.982V1018.67H1499.88V900.982H1497.43ZM1498.65 1017.44H1380.97V1019.89H1498.65V1017.44Z" fill="white" fill-opacity="0.25" mask="url(#path-254-inside-125_4208_1471)"/>
<mask id="path-256-inside-126_4208_1471" fill="white">
<path d="M1498.66 900.982H1616.34V1018.67H1498.66V900.982Z"/>
</mask>
<path d="M1616.34 1018.67V1019.89H1617.57V1018.67H1616.34ZM1615.12 900.982V1018.67H1617.57V900.982H1615.12ZM1616.34 1017.44H1498.66V1019.89H1616.34V1017.44Z" fill="white" fill-opacity="0.25" mask="url(#path-256-inside-126_4208_1471)"/>
<mask id="path-258-inside-127_4208_1471" fill="white">
<path d="M1616.34 900.982H1734.03V1018.67H1616.34V900.982Z"/>
</mask>
<path d="M1734.03 1018.67V1019.89H1735.26V1018.67H1734.03ZM1732.8 900.982V1018.67H1735.26V900.982H1732.8ZM1734.03 1017.44H1616.34V1019.89H1734.03V1017.44Z" fill="white" fill-opacity="0.25" mask="url(#path-258-inside-127_4208_1471)"/>
<mask id="path-260-inside-128_4208_1471" fill="white">
<path d="M1734.03 900.982H1851.72V1018.67H1734.03V900.982Z"/>
</mask>
<path d="M1851.72 1018.67V1019.89H1852.94V1018.67H1851.72ZM1850.49 900.982V1018.67H1852.94V900.982H1850.49ZM1851.72 1017.44H1734.03V1019.89H1851.72V1017.44Z" fill="white" fill-opacity="0.25" mask="url(#path-260-inside-128_4208_1471)"/>
</g>
<rect x="-266.012" y="77.7965" width="2352.48" height="1764.06" stroke="white" stroke-opacity="0.32" stroke-width="1.22589"/>
</g>
</g>
</g>
<g opacity="0.7">
<g style="mix-blend-mode:plus-lighter" filter="url(#filter3_f_4208_1471)">
<ellipse cx="909.643" cy="1521.5" rx="645.5" ry="644.643" transform="rotate(-90 909.643 1521.5)" fill="#74D960"/>
</g>
<g style="mix-blend-mode:plus-lighter" opacity="0.5" filter="url(#filter4_f_4208_1471)">
<ellipse cx="909.643" cy="1521.5" rx="645.5" ry="644.643" transform="rotate(-90 909.643 1521.5)" fill="#74D960"/>
</g>
</g>
</g>
<defs>
<filter id="filter0_f_4208_1471" x="-505.677" y="357.904" width="1413.45" height="1413.45" filterUnits="userSpaceOnUse" color-interpolation-filters="sRGB">
<feFlood flood-opacity="0" result="BackgroundImageFix"/>
<feBlend mode="normal" in="SourceGraphic" in2="BackgroundImageFix" result="shape"/>
<feGaussianBlur stdDeviation="245.178" result="effect1_foregroundBlur_4208_1471"/>
</filter>
<filter id="filter1_f_4208_1471" x="-125.653" y="-267.3" width="1413.45" height="1413.45" filterUnits="userSpaceOnUse" color-interpolation-filters="sRGB">
<feFlood flood-opacity="0" result="BackgroundImageFix"/>
<feBlend mode="normal" in="SourceGraphic" in2="BackgroundImageFix" result="shape"/>
<feGaussianBlur stdDeviation="245.178" result="effect1_foregroundBlur_4208_1471"/>
</filter>
<filter id="filter2_f_4208_1471" x="964.8" y="-620.356" width="1286.96" height="1286.96" filterUnits="userSpaceOnUse" color-interpolation-filters="sRGB">
<feFlood flood-opacity="0" result="BackgroundImageFix"/>
<feBlend mode="normal" in="SourceGraphic" in2="BackgroundImageFix" result="shape"/>
<feGaussianBlur stdDeviation="245.178" result="effect1_foregroundBlur_4208_1471"/>
</filter>
<filter id="filter3_f_4208_1471" x="-135" y="476" width="2089.29" height="2091" filterUnits="userSpaceOnUse" color-interpolation-filters="sRGB">
<feFlood flood-opacity="0" result="BackgroundImageFix"/>
<feBlend mode="normal" in="SourceGraphic" in2="BackgroundImageFix" result="shape"/>
<feGaussianBlur stdDeviation="200" result="effect1_foregroundBlur_4208_1471"/>
</filter>
<filter id="filter4_f_4208_1471" x="-135" y="476" width="2089.29" height="2091" filterUnits="userSpaceOnUse" color-interpolation-filters="sRGB">
<feFlood flood-opacity="0" result="BackgroundImageFix"/>
<feBlend mode="normal" in="SourceGraphic" in2="BackgroundImageFix" result="shape"/>
<feGaussianBlur stdDeviation="200" result="effect1_foregroundBlur_4208_1471"/>
</filter>
<radialGradient id="paint0_radial_4208_1471" cx="0" cy="0" r="1" gradientUnits="userSpaceOnUse" gradientTransform="translate(882.641 -0.000174927) rotate(90) scale(1467.39 921.364)">
<stop/>
<stop offset="0.953125" stop-opacity="0"/>
</radialGradient>
<clipPath id="clip0_4208_1471">
<rect width="1775" height="924" fill="white"/>
</clipPath>
<clipPath id="clip1_4208_1471">
<rect width="1759.86" height="1203.82" fill="white" transform="translate(30.0391 77.1836)"/>
</clipPath>
<clipPath id="clip2_4208_1471">
<rect x="-266.625" y="77.1836" width="2353.71" height="1765.28" fill="white"/>
</clipPath>
</defs>
</svg>
