<svg width="32" height="33" viewBox="0 0 32 33" fill="none" xmlns="http://www.w3.org/2000/svg">
<g clip-path="url(#clip0_4625_5243)">
<path d="M6.43572 12.9959L6.10966 13.7439C5.87105 14.2915 5.11363 14.2915 4.87502 13.7439L4.54899 12.9959C3.96783 11.6622 2.92108 10.6003 1.61492 10.0193L0.61046 9.57259C0.0673468 9.33101 0.0673468 8.54064 0.61046 8.29907L1.55876 7.87727C2.8985 7.2814 3.96401 6.1802 4.53518 4.80116L4.86999 3.99283C5.10333 3.42947 5.88137 3.42947 6.1147 3.99283L6.4495 4.80116C7.02067 6.1802 8.08621 7.2814 9.426 7.87727L10.3742 8.29907C10.9175 8.54064 10.9175 9.33101 10.3742 9.57259L9.36978 10.0193C8.06363 10.6003 7.01685 11.6622 6.43572 12.9959ZM13.4263 8.85957C13.4263 13.2413 9.87415 16.7935 5.49238 16.7935C4.04728 16.7935 2.69241 16.4071 1.52544 15.732V26.0497C1.52544 26.78 2.11747 27.372 2.84775 27.372H21.3601C22.0905 27.372 22.6825 26.78 22.6825 26.0497V20.4959L29.5761 25.3215C29.6872 25.3992 29.8195 25.441 29.9552 25.441C30.3203 25.441 30.6163 25.1449 30.6163 24.7798V8.80711C30.6163 8.67146 30.5746 8.53909 30.4968 8.42797C30.2875 8.12882 29.8752 8.05606 29.5761 8.26547L22.6825 13.091V7.53725C22.6825 6.80697 22.0905 6.21494 21.3601 6.21494H12.9748C13.2672 7.04213 13.4263 7.93227 13.4263 8.85957Z" fill="url(#paint0_linear_4625_5243)"/>
</g>
<defs>
<linearGradient id="paint0_linear_4625_5243" x1="-718.443" y1="29.9074" x2="-717.553" y2="-16.96" gradientUnits="userSpaceOnUse">
<stop stop-color="#E8DF38"/>
<stop offset="1" stop-color="#41D882"/>
</linearGradient>
<clipPath id="clip0_4625_5243">
<rect width="31.7355" height="31.7355" fill="white" transform="translate(0.203125 0.925781)"/>
</clipPath>
</defs>
</svg>
