<svg width="70" height="70" viewBox="0 0 70 70" fill="none" xmlns="http://www.w3.org/2000/svg">
<path d="M53.8068 38.2227C45.0949 38.2227 38.0078 45.3109 38.0078 54.0217C38.0078 62.7336 45.096 69.8207 53.8068 69.8207C62.5188 69.8207 69.607 62.7336 69.607 54.0217C69.6059 45.3097 62.5176 38.2227 53.8068 38.2227ZM53.8068 67.4944C46.3778 67.4944 40.3341 61.4507 40.3341 54.0217C40.3341 46.5927 46.3778 40.5489 53.8068 40.5489C61.2359 40.5489 67.2807 46.5927 67.2807 54.0217C67.2796 61.4507 61.2359 67.4944 53.8068 67.4944Z" fill="url(#paint0_linear_4625_5216)"/>
<path d="M69.6231 39.2285H64.2656C65.2357 39.9148 66.1325 40.6952 66.9502 41.5548H69.6231V39.2285Z" fill="url(#paint1_linear_4625_5216)"/>
<path d="M35.6983 54.0201C35.6983 49.8385 37.1348 45.9955 39.5227 42.9248H27.2759V27.4712H42.7295V39.718C45.8002 37.3312 49.6432 35.8947 53.8236 35.8947C56.6535 35.8947 59.3241 36.5659 61.712 37.7267V36.3612H69.6226V34.0349H61.712V31.1665H69.6226V28.8403H61.712V25.9719H69.6226V23.6456H61.712V20.7773H69.6226V18.451H61.712V15.5827H69.6226V13.2564H61.712V8.48868H56.9443V0.578125H54.618V8.48868H51.7497V0.578125H49.4234V8.48868H46.5551V0.578125H44.2288V8.48868H41.3605V0.578125H39.0342V8.48868H36.1659V0.578125H33.8396V8.48868H30.9712V0.578125H28.6449V8.48868H25.7766V0.578125H23.4503V8.48868H20.582V0.578125H18.2557V8.48868H15.3874V0.578125H13.0611V8.48868H8.29337V13.2564H0.382812V15.5827H8.29337V18.451H0.382812V20.7773H8.29337V23.6456H0.382812V25.9719H8.29337V28.8403H0.382812V31.1665H8.29337V34.0349H0.382812V36.3612H8.29337V39.2295H0.382812V41.5558H8.29337V44.4241H0.382812V46.7504H8.29337V49.6187H0.382812V51.945H8.29337V54.8133H0.382812V57.1396H8.29337V61.9073H13.0611V69.8179H15.3874V61.9073H18.2557V69.8179H20.582V61.9073H23.4503V69.8179H25.7766V61.9073H28.6449V69.8179H30.9712V61.9073H33.8396V69.8179H36.1659V61.9073H37.5302C36.3694 59.5194 35.6983 56.85 35.6983 54.0201Z" fill="url(#paint2_linear_4625_5216)"/>
<path d="M58.9992 56.0881C59.2225 55.5286 59.347 54.9226 59.3784 54.2922C59.9064 54.2317 60.4636 54.1584 61.094 54.0584C63.5482 53.6699 65.1766 53.3373 66.7225 52.4381C66.3886 49.7129 65.2092 47.2528 63.4552 45.315C62.2455 47.4401 60.9451 48.5381 58.8235 50.1246C58.5979 50.2933 58.3932 50.4387 58.1885 50.5852C57.8069 50.1014 57.3603 49.6768 56.8415 49.3407C57.0521 48.8556 57.2649 48.3381 57.4917 47.746C58.385 45.422 58.9061 43.8425 58.898 42.0512C57.3394 41.3882 55.6237 41.0195 53.8267 41.0195C52.888 41.0195 51.9749 41.1242 51.0921 41.3138C52.3343 43.4319 52.6356 45.108 52.9508 47.746C52.9834 48.024 53.0078 48.2741 53.0311 48.523C52.4088 48.6126 51.8249 48.8045 51.2863 49.0825C50.9688 48.6533 50.628 48.2078 50.2244 47.7088C48.6634 45.7815 47.5631 44.5381 46.0161 43.6506C43.9027 45.2464 42.2859 47.4622 41.4543 50.0362C43.9097 50.0188 45.5113 50.5969 47.9528 51.6437C48.2052 51.7519 48.4285 51.8542 48.653 51.9566C48.4285 52.5161 48.304 53.1209 48.2726 53.7525C47.7446 53.813 47.1874 53.8874 46.5582 53.9863C44.1027 54.3759 42.4743 54.7074 40.9297 55.6066C41.2623 58.3318 42.4429 60.7919 44.197 62.7297C45.4078 60.6046 46.7082 59.5066 48.8298 57.92C49.0543 57.7514 49.259 57.606 49.4649 57.4594C49.8464 57.9422 50.293 58.369 50.8118 58.704C50.6013 59.189 50.3884 59.7066 50.1616 60.2987C49.2683 62.6227 48.7472 64.2034 48.7553 65.9946C50.314 66.6576 52.0284 67.0252 53.8267 67.0252C54.7653 67.0252 55.6784 66.9205 56.5612 66.7297C55.319 64.6116 55.0177 62.9355 54.7037 60.2987C54.6699 60.0207 54.6467 59.7706 54.6234 59.5217C55.2457 59.4321 55.8296 59.2402 56.3681 58.9622C56.6857 59.3914 57.0265 59.8369 57.4301 60.3347C58.991 62.2632 60.0914 63.5055 61.6372 64.3941C63.7506 62.7983 65.3686 60.5825 66.199 58.0085C63.7448 58.0259 62.142 57.449 59.7006 56.4021C59.4458 56.2916 59.2225 56.1893 58.9992 56.0881ZM53.8255 57.2745C52.0308 57.2745 50.571 55.8148 50.571 54.0212C50.571 52.2265 52.0308 50.7667 53.8255 50.7667C55.6202 50.7667 57.08 52.2265 57.08 54.0212C57.0788 55.8159 55.6202 57.2745 53.8255 57.2745Z" fill="url(#paint3_linear_4625_5216)"/>
<defs>
<linearGradient id="paint0_linear_4625_5216" x1="-708.662" y1="73.1866" x2="-707.153" y2="10.9817" gradientUnits="userSpaceOnUse">
<stop stop-color="#E8DF38"/>
<stop offset="1" stop-color="#41D882"/>
</linearGradient>
<linearGradient id="paint1_linear_4625_5216" x1="-62.3278" y1="41.8026" x2="-62.2796" y2="37.2208" gradientUnits="userSpaceOnUse">
<stop stop-color="#E8DF38"/>
<stop offset="1" stop-color="#41D882"/>
</linearGradient>
<linearGradient id="paint2_linear_4625_5216" x1="-1635.71" y1="77.1935" x2="-1632.4" y2="-59.1142" gradientUnits="userSpaceOnUse">
<stop stop-color="#E8DF38"/>
<stop offset="1" stop-color="#41D882"/>
</linearGradient>
<linearGradient id="paint3_linear_4625_5216" x1="-568.538" y1="69.7953" x2="-567.285" y2="18.6003" gradientUnits="userSpaceOnUse">
<stop stop-color="#E8DF38"/>
<stop offset="1" stop-color="#41D882"/>
</linearGradient>
</defs>
</svg>
