<svg width="60" height="81" viewBox="0 0 60 81" fill="none" xmlns="http://www.w3.org/2000/svg">
<path d="M11.8437 29.4559C11.8437 34.0544 15.5701 37.7793 20.1672 37.7793C24.7642 37.7793 28.4906 34.0529 28.4906 29.4559C28.4906 24.8588 24.7642 21.1325 20.1672 21.1325C15.5701 21.1325 11.8437 24.8588 11.8437 29.4559ZM24.0146 31.265C24.5783 31.8287 24.5783 32.7397 24.0146 33.3034C23.451 33.867 22.5399 33.867 21.9763 33.3034C21.4126 32.7397 21.4126 31.8287 21.9763 31.265C22.5399 30.7014 23.451 30.7014 24.0146 31.265ZM18.358 31.265C18.9217 31.8287 18.9217 32.7397 18.358 33.3034C17.7944 33.867 16.8833 33.867 16.3197 33.3034C15.756 32.7397 15.756 31.8287 16.3197 31.265C16.8833 30.7014 17.7944 30.7014 18.358 31.265ZM24.0146 25.6084C24.5783 26.1721 24.5783 27.0831 24.0146 27.6468C23.451 28.2104 22.5399 28.2104 21.9763 27.6468C21.4126 27.0831 21.4126 26.1721 21.9763 25.6084C22.5399 25.0448 23.451 25.0448 24.0146 25.6084ZM18.358 25.6084C18.9217 26.1721 18.9217 27.0831 18.358 27.6468C17.7944 28.2104 16.8833 28.2104 16.3197 27.6468C15.756 27.0831 15.756 26.1721 16.3197 25.6084C16.8833 25.0448 17.7944 25.0448 18.358 25.6084Z" fill="url(#paint0_linear_4625_5230)"/>
<path d="M44.829 49.0022C45.3926 49.5644 46.3051 49.5644 46.8673 49.0022C47.431 48.4385 47.431 47.526 46.8673 46.9638C46.3051 46.4002 45.3926 46.4002 44.829 46.9638C44.2653 47.5246 44.2653 48.4385 44.829 49.0022Z" fill="url(#paint1_linear_4625_5230)"/>
<path d="M58.1695 0.111328H2.36341C1.56624 0.111328 0.921875 0.757136 0.921875 1.55286V78.8465C0.921875 79.6422 1.56624 80.288 2.36341 80.288H58.1695C58.9667 80.288 59.611 79.6422 59.611 78.8465V1.55286C59.611 0.758577 58.9667 0.111328 58.1695 0.111328ZM3.8064 1.55286C4.60212 1.55286 5.24793 2.19867 5.24793 2.9944C5.24793 3.79157 4.60212 4.43593 3.8064 4.43593C3.00923 4.43593 2.36486 3.79157 2.36486 2.9944C2.36486 2.20011 3.00923 1.55286 3.8064 1.55286ZM3.8064 78.8479C3.00923 78.8479 2.36486 78.2021 2.36486 77.4064C2.36486 76.6092 3.00923 75.9649 3.8064 75.9649C4.60212 75.9649 5.24793 76.6092 5.24793 77.4064C5.24793 78.2007 4.60068 78.8479 3.8064 78.8479ZM30.2672 56.347C26.4529 56.347 22.8404 55.5153 19.5696 54.0521L16.649 58.2743C16.378 58.8135 16.0407 59.2877 15.6486 59.6842C14.602 60.7293 13.2153 61.303 11.7406 61.303C10.0381 61.303 8.45387 60.5318 7.3929 59.1854C6.45014 57.9889 6.08402 56.3759 6.3853 54.7614C6.71974 52.9681 7.68266 51.662 9.24673 50.875L12.0289 48.9491C7.10316 44.179 4.02983 37.5076 4.02983 30.1111C4.02983 15.6194 15.7754 3.87371 30.2672 3.87371C44.7575 3.87371 56.5045 15.6194 56.5045 30.1111C56.5045 44.6 44.7575 56.347 30.2672 56.347ZM56.728 78.8479C55.9322 78.8479 55.2864 78.2021 55.2864 77.4064C55.2864 76.6092 55.9322 75.9649 56.728 75.9649C57.5251 75.9649 58.1695 76.6092 58.1695 77.4064C58.1695 78.2007 57.5251 78.8479 56.728 78.8479ZM56.728 4.43593C55.9322 4.43593 55.2864 3.79157 55.2864 2.9944C55.2864 2.19867 55.9322 1.55286 56.728 1.55286C57.5251 1.55286 58.1695 2.19867 58.1695 2.9944C58.1695 3.79157 57.5251 4.43593 56.728 4.43593Z" fill="url(#paint2_linear_4625_5230)"/>
<path d="M32.434 35.6593L42.1774 49.7402C42.656 50.7349 43.4632 51.6142 45.085 51.9169C46.2194 52.1288 47.4447 51.9097 48.3529 51.1947C50.3091 49.6523 50.433 46.8038 48.7248 45.0942C48.3904 44.7597 48.007 44.5132 47.6033 44.3186L33.521 34.5738C32.806 34.0808 31.941 34.9457 32.434 35.6593ZM47.8426 45.9749C48.9511 47.082 48.9511 48.8767 47.8426 49.9838C46.7355 51.0895 44.9408 51.0895 43.8337 49.9838C42.7266 48.8753 42.7266 47.0806 43.8337 45.9749C44.9408 44.8664 46.7369 44.8664 47.8426 45.9749Z" fill="url(#paint3_linear_4625_5230)"/>
<defs>
<linearGradient id="paint0_linear_4625_5230" x1="30.2638" y1="431.133" x2="-2.50761" y2="430.338" gradientUnits="userSpaceOnUse">
<stop stop-color="#E8DF38"/>
<stop offset="1" stop-color="#41D882"/>
</linearGradient>
<linearGradient id="paint1_linear_4625_5230" x1="47.5972" y1="117.541" x2="41.9201" y2="117.403" gradientUnits="userSpaceOnUse">
<stop stop-color="#E8DF38"/>
<stop offset="1" stop-color="#41D882"/>
</linearGradient>
<linearGradient id="paint2_linear_4625_5230" x1="-1385.87" y1="88.8286" x2="-1380.64" y2="-68.9293" gradientUnits="userSpaceOnUse">
<stop stop-color="#E8DF38"/>
<stop offset="1" stop-color="#41D882"/>
</linearGradient>
<linearGradient id="paint3_linear_4625_5230" x1="51.7973" y1="467.052" x2="17.09" y2="466.206" gradientUnits="userSpaceOnUse">
<stop stop-color="#E8DF38"/>
<stop offset="1" stop-color="#41D882"/>
</linearGradient>
</defs>
</svg>
