<svg width="56" height="56" viewBox="0 0 56 56" fill="none" xmlns="http://www.w3.org/2000/svg">
<path opacity="0.2" d="M45.4644 26.947L49.135 22.3532C48.6399 20.4921 47.8991 18.7052 46.9322 17.0398L41.0916 16.3835C40.625 15.8578 40.1275 15.3604 39.6019 14.8938L38.9456 9.05102C37.2783 8.08989 35.4908 7.35431 33.63 6.86352L29.0362 10.532C28.3339 10.4904 27.6298 10.4904 26.9275 10.532L22.3337 6.86133C20.4787 7.35788 18.6978 8.09863 17.0378 9.06414L16.3816 14.9048C15.8559 15.3713 15.3585 15.8688 14.8919 16.3945L9.04906 17.0507C8.08794 18.718 7.35235 20.5055 6.86156 22.3663L10.53 26.9601C10.4884 27.6624 10.4884 28.3665 10.53 29.0688L6.85938 33.6626C7.35447 35.5237 8.09525 37.3105 9.06219 38.976L14.9028 39.6323C15.3694 40.1579 15.8668 40.6554 16.3925 41.122L17.0487 46.9648C18.716 47.9259 20.5035 48.6615 22.3644 49.1523L26.9581 45.4838C27.6604 45.5254 28.3646 45.5254 29.0669 45.4838L33.6606 49.1545C35.5217 48.6594 37.3086 47.9186 38.9741 46.9516L39.6303 41.111C40.156 40.6444 40.6534 40.147 41.12 39.6213L46.9628 38.9651C47.9239 37.2978 48.6595 35.5103 49.1503 33.6495L45.4819 29.0557C45.5176 28.3531 45.5118 27.6489 45.4644 26.947ZM27.995 36.7513C26.2644 36.7513 24.5727 36.2381 23.1338 35.2767C21.6948 34.3152 20.5733 32.9487 19.9111 31.3498C19.2488 29.751 19.0755 27.9916 19.4131 26.2943C19.7507 24.597 20.5841 23.0379 21.8078 21.8141C23.0315 20.5904 24.5906 19.7571 26.288 19.4195C27.9853 19.0818 29.7446 19.2551 31.3435 19.9174C32.9423 20.5796 34.3089 21.7012 35.2704 23.1401C36.2318 24.579 36.745 26.2707 36.745 28.0013C36.745 30.322 35.8231 32.5476 34.1822 34.1885C32.5412 35.8295 30.3156 36.7513 27.995 36.7513Z" fill="black"/>
<path d="M27.9996 17.4996C25.9229 17.4996 23.8928 18.1154 22.1661 19.2692C20.4394 20.4229 19.0936 22.0628 18.2989 23.9814C17.5042 25.9001 17.2962 28.0113 17.7014 30.0481C18.1065 32.0849 19.1065 33.9558 20.575 35.4242C22.0434 36.8927 23.9144 37.8927 25.9512 38.2979C27.988 38.703 30.0992 38.4951 32.0178 37.7003C33.9364 36.9056 35.5763 35.5598 36.73 33.8331C37.8838 32.1064 38.4996 30.0763 38.4996 27.9996C38.4967 25.2157 37.3895 22.5467 35.421 20.5782C33.4525 18.6097 30.7835 17.5025 27.9996 17.4996ZM27.9996 34.9996C26.6151 34.9996 25.2618 34.5891 24.1106 33.8199C22.9595 33.0507 22.0623 31.9575 21.5325 30.6784C21.0026 29.3993 20.864 27.9918 21.1341 26.634C21.4042 25.2761 22.0709 24.0288 23.0499 23.0499C24.0288 22.0709 25.2761 21.4042 26.634 21.1341C27.9918 20.864 29.3993 21.0026 30.6784 21.5325C31.9575 22.0623 33.0507 22.9595 33.8199 24.1106C34.5891 25.2618 34.9996 26.6151 34.9996 27.9996C34.9996 29.8561 34.2621 31.6366 32.9494 32.9494C31.6366 34.2621 29.8561 34.9996 27.9996 34.9996ZM47.2496 28.4721C47.2584 28.1571 47.2584 27.8421 47.2496 27.5271L50.5134 23.4496C50.6845 23.2355 50.8029 22.9842 50.8592 22.716C50.9154 22.4477 50.9079 22.17 50.8371 21.9052C50.3011 19.8944 49.5008 17.9635 48.4571 16.163C48.3203 15.9275 48.1305 15.7271 47.9026 15.5779C47.6747 15.4286 47.4152 15.3346 47.1446 15.3034L41.9559 14.7259C41.74 14.4984 41.5213 14.2796 41.2996 14.0696L40.6871 8.86774C40.6556 8.59695 40.5613 8.33727 40.4116 8.1094C40.262 7.88152 40.0612 7.69176 39.8252 7.55524C38.0249 6.51234 36.0939 5.71347 34.083 5.17961C33.8183 5.10887 33.5406 5.10131 33.2723 5.15754C33.0041 5.21378 32.7528 5.33223 32.5387 5.50336L28.4721 8.74961C28.1571 8.74961 27.8421 8.74961 27.5271 8.74961L23.4496 5.49242C23.2355 5.32129 22.9842 5.20284 22.716 5.1466C22.4477 5.09037 22.17 5.09793 21.9052 5.16867C19.8944 5.70467 17.9635 6.50498 16.163 7.54867C15.9275 7.68545 15.7271 7.87532 15.5779 8.10318C15.4286 8.33104 15.3346 8.59059 15.3034 8.86117L14.7259 14.0587C14.4984 14.276 14.2796 14.4947 14.0696 14.7149L8.86774 15.3121C8.59695 15.3436 8.33727 15.4379 8.1094 15.5876C7.88152 15.7372 7.69176 15.938 7.55524 16.174C6.51256 17.9747 5.713 19.9055 5.17742 21.9162C5.10698 22.1811 5.09977 22.4589 5.15639 22.7272C5.213 22.9955 5.33186 23.2467 5.50336 23.4605L8.74961 27.5271C8.74961 27.8421 8.74961 28.1571 8.74961 28.4721L5.49242 32.5496C5.32129 32.7637 5.20284 33.015 5.1466 33.2832C5.09037 33.5515 5.09793 33.8292 5.16867 34.094C5.70467 36.1048 6.50498 38.0357 7.54867 39.8362C7.68545 40.0717 7.87532 40.2721 8.10318 40.4214C8.33104 40.5706 8.59059 40.6646 8.86117 40.6959L14.0499 41.2734C14.2672 41.5009 14.486 41.7196 14.7062 41.9296L15.3121 47.1315C15.3436 47.4023 15.4379 47.662 15.5876 47.8898C15.7372 48.1177 15.938 48.3075 16.174 48.444C17.9747 49.4867 19.9055 50.2862 21.9162 50.8218C22.1811 50.8922 22.4589 50.8994 22.7272 50.8428C22.9955 50.7862 23.2467 50.6674 23.4605 50.4959L27.5271 47.2496C27.8421 47.2584 28.1571 47.2584 28.4721 47.2496L32.5496 50.5134C32.7637 50.6845 33.015 50.8029 33.2832 50.8592C33.5515 50.9154 33.8292 50.9079 34.094 50.8371C36.1052 50.3021 38.0362 49.5017 39.8362 48.4571C40.0717 48.3203 40.2721 48.1305 40.4214 47.9026C40.5706 47.6747 40.6646 47.4152 40.6959 47.1446L41.2734 41.9559C41.5009 41.74 41.7196 41.5213 41.9296 41.2996L47.1315 40.6871C47.4023 40.6556 47.662 40.5613 47.8898 40.4116C48.1177 40.262 48.3075 40.0612 48.444 39.8252C49.4867 38.0246 50.2862 36.0937 50.8218 34.083C50.8922 33.8181 50.8994 33.5403 50.8428 33.272C50.7862 33.0038 50.6674 32.7526 50.4959 32.5387L47.2496 28.4721ZM43.7277 27.0502C43.7649 27.6826 43.7649 28.3166 43.7277 28.949C43.7017 29.3819 43.8373 29.8091 44.1084 30.1477L47.2124 34.0262C46.8562 35.1581 46.4002 36.2562 45.8496 37.3074L40.9059 37.8674C40.4753 37.9152 40.0778 38.121 39.7902 38.4449C39.3692 38.9185 38.9207 39.367 38.4471 39.788C38.1232 40.0756 37.9174 40.4731 37.8696 40.9037L37.3205 45.8431C36.2694 46.3939 35.1714 46.85 34.0393 47.2059L30.1587 44.1018C29.8481 43.8537 29.4624 43.7187 29.0649 43.719H28.9599C28.3276 43.7562 27.6935 43.7562 27.0612 43.719C26.6284 43.6942 26.2016 43.8297 25.8624 44.0996L21.973 47.2059C20.8411 46.8497 19.743 46.3936 18.6918 45.8431L18.1318 40.9059C18.084 40.4753 17.8782 40.0778 17.5543 39.7902C17.0807 39.3692 16.6322 38.9207 16.2112 38.4471C15.9236 38.1232 15.5261 37.9174 15.0955 37.8696L10.1562 37.3184C9.60534 36.2673 9.14927 35.1692 8.79336 34.0371L11.8974 30.1565C12.1685 29.8179 12.3041 29.3907 12.278 28.9577C12.2409 28.3254 12.2409 27.6914 12.278 27.059C12.3041 26.626 12.1685 26.1988 11.8974 25.8602L8.79336 21.973C9.14954 20.8411 9.60561 19.743 10.1562 18.6918L15.0934 18.1318C15.5239 18.084 15.9214 17.8782 16.209 17.5543C16.6301 17.0807 17.0785 16.6322 17.5521 16.2112C17.8773 15.9234 18.084 15.525 18.1318 15.0934L18.6809 10.1562C19.732 9.60534 20.8301 9.14927 21.9621 8.79336L25.8427 11.8974C26.1813 12.1685 26.6085 12.3041 27.0415 12.278C27.6739 12.2409 28.3079 12.2409 28.9402 12.278C29.373 12.3029 29.7998 12.1674 30.139 11.8974L34.0262 8.79336C35.1581 9.14954 36.2562 9.60561 37.3074 10.1562L37.8674 15.0934C37.9152 15.5239 38.121 15.9214 38.4449 16.209C38.9185 16.6301 39.367 17.0785 39.788 17.5521C40.0756 17.8761 40.4731 18.0818 40.9037 18.1296L45.8431 18.6787C46.3939 19.7298 46.85 20.8279 47.2059 21.9599L44.1018 25.8405C43.8281 26.182 43.6923 26.6136 43.7212 27.0502H43.7277Z" fill="black"/>
<path d="M27.9996 17.4996C25.9229 17.4996 23.8928 18.1154 22.1661 19.2692C20.4394 20.4229 19.0936 22.0628 18.2989 23.9814C17.5042 25.9001 17.2962 28.0113 17.7014 30.0481C18.1065 32.0849 19.1065 33.9558 20.575 35.4242C22.0434 36.8927 23.9144 37.8927 25.9512 38.2979C27.988 38.703 30.0992 38.4951 32.0178 37.7003C33.9364 36.9056 35.5763 35.5598 36.73 33.8331C37.8838 32.1064 38.4996 30.0763 38.4996 27.9996C38.4967 25.2157 37.3895 22.5467 35.421 20.5782C33.4525 18.6097 30.7835 17.5025 27.9996 17.4996ZM27.9996 34.9996C26.6151 34.9996 25.2618 34.5891 24.1106 33.8199C22.9595 33.0507 22.0623 31.9575 21.5325 30.6784C21.0026 29.3993 20.864 27.9918 21.1341 26.634C21.4042 25.2761 22.0709 24.0288 23.0499 23.0499C24.0288 22.0709 25.2761 21.4042 26.634 21.1341C27.9918 20.864 29.3993 21.0026 30.6784 21.5325C31.9575 22.0623 33.0507 22.9595 33.8199 24.1106C34.5891 25.2618 34.9996 26.6151 34.9996 27.9996C34.9996 29.8561 34.2621 31.6366 32.9494 32.9494C31.6366 34.2621 29.8561 34.9996 27.9996 34.9996ZM47.2496 28.4721C47.2584 28.1571 47.2584 27.8421 47.2496 27.5271L50.5134 23.4496C50.6845 23.2355 50.8029 22.9842 50.8592 22.716C50.9154 22.4477 50.9079 22.17 50.8371 21.9052C50.3011 19.8944 49.5008 17.9635 48.4571 16.163C48.3203 15.9275 48.1305 15.7271 47.9026 15.5779C47.6747 15.4286 47.4152 15.3346 47.1446 15.3034L41.9559 14.7259C41.74 14.4984 41.5213 14.2796 41.2996 14.0696L40.6871 8.86774C40.6556 8.59695 40.5613 8.33727 40.4116 8.1094C40.262 7.88152 40.0612 7.69176 39.8252 7.55524C38.0249 6.51234 36.0939 5.71347 34.083 5.17961C33.8183 5.10887 33.5406 5.10131 33.2723 5.15754C33.0041 5.21378 32.7528 5.33223 32.5387 5.50336L28.4721 8.74961C28.1571 8.74961 27.8421 8.74961 27.5271 8.74961L23.4496 5.49242C23.2355 5.32129 22.9842 5.20284 22.716 5.1466C22.4477 5.09037 22.17 5.09793 21.9052 5.16867C19.8944 5.70467 17.9635 6.50498 16.163 7.54867C15.9275 7.68545 15.7271 7.87532 15.5779 8.10318C15.4286 8.33104 15.3346 8.59059 15.3034 8.86117L14.7259 14.0587C14.4984 14.276 14.2796 14.4947 14.0696 14.7149L8.86774 15.3121C8.59695 15.3436 8.33727 15.4379 8.1094 15.5876C7.88152 15.7372 7.69176 15.938 7.55524 16.174C6.51256 17.9747 5.713 19.9055 5.17742 21.9162C5.10698 22.1811 5.09977 22.4589 5.15639 22.7272C5.213 22.9955 5.33186 23.2467 5.50336 23.4605L8.74961 27.5271C8.74961 27.8421 8.74961 28.1571 8.74961 28.4721L5.49242 32.5496C5.32129 32.7637 5.20284 33.015 5.1466 33.2832C5.09037 33.5515 5.09793 33.8292 5.16867 34.094C5.70467 36.1048 6.50498 38.0357 7.54867 39.8362C7.68545 40.0717 7.87532 40.2721 8.10318 40.4214C8.33104 40.5706 8.59059 40.6646 8.86117 40.6959L14.0499 41.2734C14.2672 41.5009 14.486 41.7196 14.7062 41.9296L15.3121 47.1315C15.3436 47.4023 15.4379 47.662 15.5876 47.8898C15.7372 48.1177 15.938 48.3075 16.174 48.444C17.9747 49.4867 19.9055 50.2862 21.9162 50.8218C22.1811 50.8922 22.4589 50.8994 22.7272 50.8428C22.9955 50.7862 23.2467 50.6674 23.4605 50.4959L27.5271 47.2496C27.8421 47.2584 28.1571 47.2584 28.4721 47.2496L32.5496 50.5134C32.7637 50.6845 33.015 50.8029 33.2832 50.8592C33.5515 50.9154 33.8292 50.9079 34.094 50.8371C36.1052 50.3021 38.0362 49.5017 39.8362 48.4571C40.0717 48.3203 40.2721 48.1305 40.4214 47.9026C40.5706 47.6747 40.6646 47.4152 40.6959 47.1446L41.2734 41.9559C41.5009 41.74 41.7196 41.5213 41.9296 41.2996L47.1315 40.6871C47.4023 40.6556 47.662 40.5613 47.8898 40.4116C48.1177 40.262 48.3075 40.0612 48.444 39.8252C49.4867 38.0246 50.2862 36.0937 50.8218 34.083C50.8922 33.8181 50.8994 33.5403 50.8428 33.272C50.7862 33.0038 50.6674 32.7526 50.4959 32.5387L47.2496 28.4721ZM43.7277 27.0502C43.7649 27.6826 43.7649 28.3166 43.7277 28.949C43.7017 29.3819 43.8373 29.8091 44.1084 30.1477L47.2124 34.0262C46.8562 35.1581 46.4002 36.2562 45.8496 37.3074L40.9059 37.8674C40.4753 37.9152 40.0778 38.121 39.7902 38.4449C39.3692 38.9185 38.9207 39.367 38.4471 39.788C38.1232 40.0756 37.9174 40.4731 37.8696 40.9037L37.3205 45.8431C36.2694 46.3939 35.1714 46.85 34.0393 47.2059L30.1587 44.1018C29.8481 43.8537 29.4624 43.7187 29.0649 43.719H28.9599C28.3276 43.7562 27.6935 43.7562 27.0612 43.719C26.6284 43.6942 26.2016 43.8297 25.8624 44.0996L21.973 47.2059C20.8411 46.8497 19.743 46.3936 18.6918 45.8431L18.1318 40.9059C18.084 40.4753 17.8782 40.0778 17.5543 39.7902C17.0807 39.3692 16.6322 38.9207 16.2112 38.4471C15.9236 38.1232 15.5261 37.9174 15.0955 37.8696L10.1562 37.3184C9.60534 36.2673 9.14927 35.1692 8.79336 34.0371L11.8974 30.1565C12.1685 29.8179 12.3041 29.3907 12.278 28.9577C12.2409 28.3254 12.2409 27.6914 12.278 27.059C12.3041 26.626 12.1685 26.1988 11.8974 25.8602L8.79336 21.973C9.14954 20.8411 9.60561 19.743 10.1562 18.6918L15.0934 18.1318C15.5239 18.084 15.9214 17.8782 16.209 17.5543C16.6301 17.0807 17.0785 16.6322 17.5521 16.2112C17.8773 15.9234 18.084 15.525 18.1318 15.0934L18.6809 10.1562C19.732 9.60534 20.8301 9.14927 21.9621 8.79336L25.8427 11.8974C26.1813 12.1685 26.6085 12.3041 27.0415 12.278C27.6739 12.2409 28.3079 12.2409 28.9402 12.278C29.373 12.3029 29.7998 12.1674 30.139 11.8974L34.0262 8.79336C35.1581 9.14954 36.2562 9.60561 37.3074 10.1562L37.8674 15.0934C37.9152 15.5239 38.121 15.9214 38.4449 16.209C38.9185 16.6301 39.367 17.0785 39.788 17.5521C40.0756 17.8761 40.4731 18.0818 40.9037 18.1296L45.8431 18.6787C46.3939 19.7298 46.85 20.8279 47.2059 21.9599L44.1018 25.8405C43.8281 26.182 43.6923 26.6136 43.7212 27.0502H43.7277Z" fill="url(#paint0_linear_4625_5168)"/>
<defs>
<linearGradient id="paint0_linear_4625_5168" x1="-1076.81" y1="55.7738" x2="-1074.62" y2="-34.3641" gradientUnits="userSpaceOnUse">
<stop stop-color="#E8DF38"/>
<stop offset="1" stop-color="#41D882"/>
</linearGradient>
</defs>
</svg>
