<svg width="104" height="47" viewBox="0 0 104 47" fill="none" xmlns="http://www.w3.org/2000/svg">
<path d="M103.203 10.3411V3.01258C103.203 1.54154 102.009 0.347656 100.538 0.347656H2.93836C1.46599 0.347656 0.273438 1.54154 0.273438 3.01258V10.3411H4.27082V13.006H0.273438V43.3874C0.273438 44.7825 1.34873 45.9138 2.71317 46.0284V41.2782H5.37809V46.0524H8.32416V41.2782H10.9891V46.0524H13.9352V41.2782H16.6001V46.0524H19.5461V41.2782H22.2111V46.0524H25.1571V41.2782H27.8221V46.0524H30.7681V41.2782H33.433V46.0524H36.3791V41.2782H39.044V46.0524H41.9901V41.2782H44.655V46.0524H47.6011V41.2782H50.266V46.0524H53.2121V41.2782H55.877V46.0524H58.7231V41.2782H61.3881V46.0524H64.4327V41.2782H67.0977V46.0524H70.0437V41.2782H72.7086V46.0524H75.6547V41.2782H78.3196V46.0524H81.2657V41.2782H83.9306V46.0524H86.8767V41.2782H89.5416V46.0524H92.4877V41.2782H95.1526V46.0524H98.0987V41.2782H100.764V46.0284C102.128 45.9125 103.205 44.7812 103.205 43.3874V13.006H99.2073V10.3411H103.203ZM24.0019 28.9729H12.5241V12.0959H24.0019V28.9729ZM46.3193 28.9729H34.8415V12.0959H46.3193V28.9729ZM68.6366 28.9729H57.1588V12.0959H68.6366V28.9729ZM90.954 28.9729H79.4762V12.0959H90.954V28.9729Z" fill="url(#paint0_linear_4625_5207)"/>
<defs>
<linearGradient id="paint0_linear_4625_5207" x1="-2431.93" y1="50.9209" x2="-2430.96" y2="-39.0974" gradientUnits="userSpaceOnUse">
<stop stop-color="#E8DF38"/>
<stop offset="1" stop-color="#41D882"/>
</linearGradient>
</defs>
</svg>
