<svg width="48" height="48" viewBox="0 0 48 48" fill="none" xmlns="http://www.w3.org/2000/svg">
<path opacity="0.2" d="M39.9474 32.34C38.4931 35.1219 36.3365 37.4751 33.6917 39.166C31.0469 40.857 28.0059 41.8268 24.8705 41.9794L25.4649 38.8969C25.5091 38.6655 25.4982 38.4269 25.4331 38.2005C25.3679 37.9741 25.2504 37.7663 25.0899 37.5938L21.3887 33.7819C21.1891 33.5665 21.0572 33.2973 21.0092 33.0077C20.9612 32.7181 20.9993 32.4207 21.1187 32.1525L23.6874 26.3888C23.8195 26.0926 24.0439 25.8472 24.3272 25.6893C24.6105 25.5314 24.9373 25.4696 25.2587 25.5131L29.5374 26.0906C29.7446 26.119 29.9438 26.1899 30.1224 26.2988L39.9474 32.34ZM21.8762 17.8125L24.1805 16.545C24.2822 16.49 24.3767 16.4226 24.4618 16.3444L29.5074 11.7825C29.7585 11.5541 29.9248 11.2473 29.9789 10.9121C30.0331 10.577 29.972 10.2334 29.8055 9.93752L27.8368 6.41065C26.5738 6.13708 25.2853 5.99942 23.993 6.00002C19.8843 5.99375 15.8982 7.39904 12.7018 9.98065L10.493 15.2025C10.3438 15.556 10.3358 15.9533 10.4705 16.3125L12.6268 22.0631C12.7154 22.2981 12.8615 22.5071 13.0519 22.6709C13.2422 22.8347 13.4706 22.9481 13.7162 23.0006L14.2205 23.1094L16.718 18.75C16.8499 18.5217 17.0396 18.3321 17.268 18.2004C17.4965 18.0688 17.7556 17.9996 18.0193 18H21.1524C21.4057 18.0004 21.6549 17.9359 21.8762 17.8125Z" fill="url(#paint0_linear_4625_5184)"/>
<path d="M24 4.5C20.1433 4.5 16.3731 5.64366 13.1664 7.78634C9.95963 9.92903 7.46027 12.9745 5.98436 16.5377C4.50845 20.1008 4.12228 24.0216 4.8747 27.8043C5.62711 31.5869 7.4843 35.0615 10.2114 37.7886C12.9386 40.5157 16.4131 42.3729 20.1957 43.1253C23.9784 43.8777 27.8992 43.4916 31.4623 42.0156C35.0255 40.5397 38.071 38.0404 40.2137 34.8336C42.3564 31.6269 43.5 27.8567 43.5 24C43.4945 18.83 41.4383 13.8732 37.7826 10.2174C34.1268 6.56167 29.1701 4.50546 24 4.5ZM40.5 24C40.5016 26.1168 40.0942 28.214 39.3 30.1763L30.9188 25.0219C30.5624 24.802 30.1638 24.6595 29.7488 24.6038L25.47 24.0262C24.8804 23.9494 24.2813 24.0482 23.7476 24.3104C23.2139 24.5725 22.7695 24.9864 22.47 25.5H20.835L20.1225 24.0262C19.9255 23.6159 19.6373 23.256 19.2798 22.9743C18.9223 22.6925 18.505 22.4963 18.06 22.4006L16.56 22.0763L18.0263 19.5H21.1594C21.6664 19.499 22.1649 19.37 22.6088 19.125L24.9056 17.8575C25.1074 17.745 25.2961 17.6104 25.4681 17.4562L30.5138 12.8925C31.0196 12.4391 31.3559 11.8269 31.467 11.1568C31.5781 10.4866 31.4575 9.79862 31.125 9.20625L31.0575 9.08438C33.8809 10.4231 36.2667 12.5351 37.938 15.1752C39.6094 17.8153 40.4978 20.8753 40.5 24ZM26.8706 7.75125L28.5 10.6688L23.4544 15.2325L21.1594 16.5H18.0263C17.4989 16.4992 16.9807 16.6375 16.5238 16.9008C16.0668 17.1642 15.6874 17.5433 15.4238 18L13.7869 20.8556L11.8838 15.7856L13.935 10.935C15.7506 9.53211 17.8393 8.52393 20.0672 7.97504C22.295 7.42615 24.613 7.34864 26.8725 7.7475L26.8706 7.75125ZM7.50001 24C7.4975 21.5475 8.04466 19.1257 9.10126 16.9125L11.2275 22.5881C11.4047 23.058 11.697 23.476 12.0777 23.8036C12.4584 24.1312 12.9152 24.3579 13.4063 24.4631L17.4244 25.3275L18.1388 26.8125C18.3867 27.3176 18.7709 27.7432 19.248 28.0414C19.7251 28.3396 20.2761 28.4985 20.8388 28.5H21.1163L19.7606 31.5431C19.5218 32.079 19.4453 32.6731 19.5406 33.2519C19.6359 33.8308 19.8988 34.369 20.2969 34.8L20.3231 34.8263L24 38.6138L23.6363 40.4888C19.3272 40.3885 15.2279 38.6081 12.2132 35.5275C9.19854 32.447 7.50716 28.3102 7.50001 24ZM26.7338 40.2712L26.9456 39.1819C27.0327 38.7191 27.0102 38.2423 26.88 37.7897C26.7498 37.3372 26.5154 36.9214 26.1956 36.5756C26.1864 36.5674 26.1777 36.5586 26.1694 36.5494L22.5 32.7638L25.0688 27L29.3475 27.5775L37.92 32.85C36.678 34.8004 35.0408 36.4687 33.114 37.747C31.1871 39.0253 29.0136 39.8852 26.7338 40.2712Z" fill="url(#paint1_linear_4625_5184)"/>
<defs>
<linearGradient id="paint0_linear_4625_5184" x1="-688.403" y1="45.812" x2="-686.312" y2="-24.9982" gradientUnits="userSpaceOnUse">
<stop stop-color="#E8DF38"/>
<stop offset="1" stop-color="#41D882"/>
</linearGradient>
<linearGradient id="paint1_linear_4625_5184" x1="-917.047" y1="47.6544" x2="-915.183" y2="-29.1223" gradientUnits="userSpaceOnUse">
<stop stop-color="#E8DF38"/>
<stop offset="1" stop-color="#41D882"/>
</linearGradient>
</defs>
</svg>
