<svg width="61" height="61" viewBox="0 0 61 61" fill="none" xmlns="http://www.w3.org/2000/svg">
<path opacity="0.2" d="M53.2344 26.5176H8.23438L15.2398 10.7559C15.3872 10.4245 15.6274 10.1429 15.9315 9.94535C16.2356 9.74775 16.5905 9.64258 16.9531 9.64258H44.5156C44.8783 9.64258 45.2331 9.74775 45.5372 9.94535C45.8413 10.1429 46.0816 10.4245 46.2289 10.7559L53.2344 26.5176Z" fill="url(#paint0_linear_4640_1837)"/>
<path d="M56.9844 24.6426H54.4531L47.9422 9.99414C47.6475 9.33139 47.167 8.76831 46.5588 8.37312C45.9507 7.97793 45.2409 7.76759 44.5156 7.76758H16.9531C16.2278 7.76759 15.5181 7.97793 14.9099 8.37312C14.3017 8.76831 13.8212 9.33139 13.5266 9.99414L7.01562 24.6426H4.48438C3.98709 24.6426 3.51018 24.8401 3.15855 25.1918C2.80692 25.5434 2.60938 26.0203 2.60938 26.5176C2.60938 27.0149 2.80692 27.4918 3.15855 27.8434C3.51018 28.195 3.98709 28.3926 4.48438 28.3926H6.35938V47.1426C6.35938 48.1371 6.75446 49.091 7.45772 49.7942C8.16099 50.4975 9.11481 50.8926 10.1094 50.8926H15.7344C16.7289 50.8926 17.6828 50.4975 18.386 49.7942C19.0893 49.091 19.4844 48.1371 19.4844 47.1426V43.3926H41.9844V47.1426C41.9844 48.1371 42.3795 49.091 43.0827 49.7942C43.786 50.4975 44.7398 50.8926 45.7344 50.8926H51.3594C52.3539 50.8926 53.3078 50.4975 54.011 49.7942C54.7143 49.091 55.1094 48.1371 55.1094 47.1426V28.3926H56.9844C57.4817 28.3926 57.9586 28.195 58.3102 27.8434C58.6618 27.4918 58.8594 27.0149 58.8594 26.5176C58.8594 26.0203 58.6618 25.5434 58.3102 25.1918C57.9586 24.8401 57.4817 24.6426 56.9844 24.6426ZM16.9531 11.5176H44.5156L50.3492 24.6426H11.1195L16.9531 11.5176ZM51.3594 47.1426H45.7344V41.5176C45.7344 41.0203 45.5368 40.5434 45.1852 40.1917C44.8336 39.8401 44.3567 39.6426 43.8594 39.6426H17.6094C17.1121 39.6426 16.6352 39.8401 16.2836 40.1917C15.9319 40.5434 15.7344 41.0203 15.7344 41.5176V47.1426H10.1094V28.3926H51.3594V47.1426Z" fill="url(#paint1_linear_4640_1837)"/>
<defs>
<linearGradient id="paint0_linear_4640_1837" x1="-1055.09" y1="28.3151" x2="-1054.79" y2="-4.92235" gradientUnits="userSpaceOnUse">
<stop stop-color="#E8DF38"/>
<stop offset="1" stop-color="#41D882"/>
</linearGradient>
<linearGradient id="paint1_linear_4640_1837" x1="-1326.54" y1="55.4864" x2="-1324.96" y2="-29.4315" gradientUnits="userSpaceOnUse">
<stop stop-color="#E8DF38"/>
<stop offset="1" stop-color="#41D882"/>
</linearGradient>
</defs>
</svg>
