<svg width="61" height="61" viewBox="0 0 61 61" fill="none" xmlns="http://www.w3.org/2000/svg">
<path opacity="0.2" d="M40.1094 13.3926V50.8926H13.8594V13.3926C13.8594 12.398 14.2545 11.4442 14.9577 10.7409C15.661 10.0377 16.6148 9.64258 17.6094 9.64258H36.3594C37.3539 9.64258 38.3078 10.0377 39.011 10.7409C39.7143 11.4442 40.1094 12.398 40.1094 13.3926Z" fill="url(#paint0_linear_4638_4128)"/>
<path d="M32.2859 29.2152C32.4581 29.4689 32.5655 29.761 32.5986 30.0658C32.6317 30.3706 32.5895 30.6789 32.4758 30.9637L28.7258 40.3387C28.5402 40.8005 28.1788 41.1697 27.721 41.3651C27.2633 41.5605 26.7466 41.566 26.2848 41.3805C25.8229 41.1949 25.4537 40.8335 25.2583 40.3757C25.0629 39.9179 25.0574 39.4013 25.243 38.9395L27.9641 32.1426H23.2344C22.9271 32.1431 22.6244 32.0681 22.3528 31.9242C22.0813 31.7802 21.8494 31.5717 21.6774 31.3171C21.5054 31.0624 21.3986 30.7694 21.3664 30.4638C21.3343 30.1582 21.3777 29.8493 21.493 29.5645L25.243 20.1895C25.3353 19.9608 25.4718 19.7525 25.6446 19.5766C25.8174 19.4006 26.0232 19.2604 26.2502 19.164C26.4772 19.0676 26.721 19.0169 26.9676 19.0147C27.2142 19.0124 27.4588 19.0588 27.6875 19.1512C27.9162 19.2435 28.1244 19.38 28.3004 19.5528C28.4763 19.7256 28.6165 19.9314 28.7129 20.1584C28.8093 20.3854 28.8601 20.6292 28.8623 20.8758C28.8645 21.1224 28.8181 21.367 28.7258 21.5957L26.0047 28.3926H30.7344C31.0405 28.3926 31.342 28.4676 31.6124 28.611C31.8829 28.7544 32.1141 28.9619 32.2859 29.2152ZM58.8594 20.5715V39.6426C58.8594 41.1344 58.2667 42.5652 57.2119 43.6201C56.157 44.6749 54.7262 45.2676 53.2344 45.2676C51.7425 45.2676 50.3118 44.6749 49.2569 43.6201C48.202 42.5652 47.6094 41.1344 47.6094 39.6426V30.2676C47.6094 29.7703 47.4118 29.2934 47.0602 28.9418C46.7086 28.5901 46.2317 28.3926 45.7344 28.3926H41.9844V49.0176H45.7344C46.2317 49.0176 46.7086 49.2151 47.0602 49.5667C47.4118 49.9184 47.6094 50.3953 47.6094 50.8926C47.6094 51.3899 47.4118 51.8668 47.0602 52.2184C46.7086 52.57 46.2317 52.7676 45.7344 52.7676H8.23438C7.73709 52.7676 7.26018 52.57 6.90855 52.2184C6.55692 51.8668 6.35938 51.3899 6.35938 50.8926C6.35938 50.3953 6.55692 49.9184 6.90855 49.5667C7.26018 49.2151 7.73709 49.0176 8.23438 49.0176H11.9844V13.3926C11.9844 11.9007 12.577 10.47 13.6319 9.4151C14.6868 8.36021 16.1175 7.76758 17.6094 7.76758H36.3594C37.8512 7.76758 39.282 8.36021 40.3369 9.4151C41.3917 10.47 41.9844 11.9007 41.9844 13.3926V24.6426H45.7344C47.2262 24.6426 48.657 25.2352 49.7119 26.2901C50.7667 27.345 51.3594 28.7757 51.3594 30.2676V39.6426C51.3594 40.1399 51.5569 40.6168 51.9085 40.9684C52.2602 41.32 52.7371 41.5176 53.2344 41.5176C53.7317 41.5176 54.2086 41.32 54.5602 40.9684C54.9118 40.6168 55.1094 40.1399 55.1094 39.6426V20.5715C55.1079 20.0765 54.9108 19.6022 54.5609 19.252L50.0328 14.7191C49.681 14.3673 49.4833 13.8901 49.4833 13.3926C49.4833 12.895 49.681 12.4178 50.0328 12.066C50.3846 11.7142 50.8618 11.5165 51.3594 11.5165C51.8569 11.5165 52.3341 11.7142 52.6859 12.066L57.2188 16.5941C57.7414 17.1159 58.1555 17.736 58.4371 18.4186C58.7187 19.1013 58.8622 19.833 58.8594 20.5715ZM38.2344 49.0176V13.3926C38.2344 12.8953 38.0368 12.4184 37.6852 12.0668C37.3336 11.7151 36.8567 11.5176 36.3594 11.5176H17.6094C17.1121 11.5176 16.6352 11.7151 16.2836 12.0668C15.9319 12.4184 15.7344 12.8953 15.7344 13.3926V49.0176H38.2344Z" fill="url(#paint1_linear_4638_4128)"/>
<defs>
<linearGradient id="paint0_linear_4638_4128" x1="-606.412" y1="55.2866" x2="-603.318" y2="-25.8493" gradientUnits="userSpaceOnUse">
<stop stop-color="#E8DF38"/>
<stop offset="1" stop-color="#41D882"/>
</linearGradient>
<linearGradient id="paint1_linear_4638_4128" x1="-1234.18" y1="57.5611" x2="-1232.34" y2="-31.0412" gradientUnits="userSpaceOnUse">
<stop stop-color="#E8DF38"/>
<stop offset="1" stop-color="#41D882"/>
</linearGradient>
</defs>
</svg>
