<svg width="71" height="71" viewBox="0 0 71 71" fill="none" xmlns="http://www.w3.org/2000/svg">
<path opacity="0.2" d="M26.4297 66.4023L30.8047 44.5273L13.3047 37.9648L43.9297 5.15234L39.5547 27.0273L57.0547 33.5898L26.4297 66.4023Z" fill="url(#paint0_linear_4638_3595)"/>
<path d="M59.1664 33.0922C59.0836 32.7416 58.9155 32.4168 58.677 32.1469C58.4384 31.8769 58.1369 31.67 57.7992 31.5445L42.0465 25.6355L46.0551 5.58435C46.1459 5.11847 46.0826 4.63571 45.875 4.20891C45.6673 3.78212 45.3265 3.43444 44.9039 3.21836C44.4813 3.00227 43.9998 2.9295 43.5322 3.01103C43.0647 3.09255 42.6363 3.32394 42.3117 3.67029L11.6867 36.4828C11.438 36.7449 11.2581 37.0645 11.163 37.4131C11.0679 37.7617 11.0607 38.1284 11.142 38.4805C11.2232 38.8326 11.3904 39.159 11.6286 39.4307C11.8668 39.7024 12.1686 39.9109 12.507 40.0375L28.2653 45.9465L24.2676 65.9758C24.1768 66.4416 24.24 66.9244 24.4477 67.3512C24.6554 67.778 24.9962 68.1257 25.4188 68.3418C25.8414 68.5578 26.3229 68.6306 26.7904 68.5491C27.258 68.4676 27.6864 68.2362 28.011 67.8898L58.636 35.0773C58.8802 34.8152 59.0563 34.4971 59.1488 34.1509C59.2413 33.8048 59.2473 33.4412 59.1664 33.0922ZM30.0672 59.2957L32.9301 44.973C33.0326 44.4651 32.9514 43.9372 32.701 43.4835C32.4506 43.0298 32.0473 42.6798 31.5629 42.4957L17.1145 37.068L40.2528 12.2781L37.3926 26.6008C37.2901 27.1087 37.3713 27.6366 37.6217 28.0903C37.8721 28.5439 38.2754 28.894 38.7598 29.0781L53.1973 34.4922L30.0672 59.2957Z" fill="url(#paint1_linear_4638_3595)"/>
<defs>
<linearGradient id="paint0_linear_4638_3595" x1="-1020.48" y1="72.9268" x2="-1016.39" y2="-47.5838" gradientUnits="userSpaceOnUse">
<stop stop-color="#E8DF38"/>
<stop offset="1" stop-color="#41D882"/>
</linearGradient>
<linearGradient id="paint1_linear_4638_3595" x1="-1126.36" y1="75.5698" x2="-1122.09" y2="-53.5134" gradientUnits="userSpaceOnUse">
<stop stop-color="#E8DF38"/>
<stop offset="1" stop-color="#41D882"/>
</linearGradient>
</defs>
</svg>
