<svg width="61" height="61" viewBox="0 0 61 61" fill="none" xmlns="http://www.w3.org/2000/svg">
<path opacity="0.2" d="M49.4844 47.1426C49.4844 48.6259 49.0445 50.076 48.2204 51.3094C47.3963 52.5427 46.225 53.504 44.8545 54.0717C43.4841 54.6393 41.9761 54.7879 40.5212 54.4985C39.0663 54.2091 37.73 53.4948 36.6811 52.4459C35.6322 51.397 34.9179 50.0606 34.6285 48.6058C34.3391 47.1509 34.4876 45.6429 35.0553 44.2725C35.6229 42.902 36.5842 41.7307 37.8176 40.9066C39.051 40.0825 40.501 39.6426 41.9844 39.6426C43.9735 39.6426 45.8812 40.4328 47.2877 41.8393C48.6942 43.2458 49.4844 45.1535 49.4844 47.1426ZM41.9844 20.8926C43.4677 20.8926 44.9178 20.4527 46.1512 19.6286C47.3845 18.8045 48.3458 17.6332 48.9135 16.2627C49.4811 14.8923 49.6297 13.3843 49.3403 11.9294C49.0509 10.4745 48.3366 9.13817 47.2877 8.08928C46.2388 7.04039 44.9024 6.32608 43.4476 6.03669C41.9927 5.7473 40.4847 5.89583 39.1143 6.46349C37.7438 7.03114 36.5725 7.99244 35.7484 9.2258C34.9242 10.4592 34.4844 11.9092 34.4844 13.3926C34.4844 15.3817 35.2746 17.2894 36.6811 18.6959C38.0876 20.1024 39.9953 20.8926 41.9844 20.8926Z" fill="url(#paint0_linear_4640_1850)"/>
<path d="M41.9923 37.7653C40.7415 37.7649 39.5033 38.0155 38.3511 38.5022C37.199 38.9889 36.1561 39.7019 35.2845 40.5989L24.4798 33.6544C25.3297 31.4749 25.3297 29.0557 24.4798 26.8763L35.2845 19.9317C36.9074 21.5942 39.0898 22.5948 41.4086 22.7396C43.7274 22.8844 46.0173 22.163 47.8345 20.7154C49.6516 19.2677 50.8665 17.1969 51.2435 14.9044C51.6206 12.6119 51.133 10.261 49.8753 8.3076C48.6175 6.35418 46.6793 4.93737 44.4363 4.33184C42.1933 3.72631 39.8053 3.97522 37.7354 5.03029C35.6655 6.08537 34.0611 7.87145 33.2332 10.0422C32.4054 12.2131 32.413 14.6139 33.2548 16.7794L22.4501 23.7239C21.149 22.3882 19.4791 21.4707 17.6539 21.0889C15.8287 20.7071 13.9311 20.8783 12.2037 21.5806C10.4763 22.2828 8.99757 23.4842 7.95651 25.0313C6.91545 26.5783 6.35938 28.4006 6.35938 30.2653C6.35937 32.13 6.91545 33.9524 7.95651 35.4994C8.99757 37.0464 10.4763 38.2478 12.2037 38.9501C13.9311 39.6523 15.8287 39.8235 17.6539 39.4417C19.4791 39.0599 21.149 38.1425 22.4501 36.8067L33.2548 43.7513C32.5309 45.6181 32.4238 47.6677 32.9491 49.5998C33.4744 51.532 34.6045 53.2452 36.1739 54.4886C37.7433 55.732 39.6696 56.4402 41.6707 56.5097C43.6717 56.5791 45.6425 56.0061 47.2943 54.8744C48.9461 53.7428 50.1922 52.112 50.8502 50.2209C51.5081 48.3299 51.5433 46.2778 50.9506 44.3653C50.3579 42.4527 49.1685 40.7802 47.5565 39.5925C45.9445 38.4049 43.9945 37.7646 41.9923 37.7653ZM41.9923 7.76532C43.1048 7.76532 44.1923 8.09522 45.1173 8.7133C46.0424 9.33139 46.7633 10.2099 47.1891 11.2377C47.6148 12.2656 47.7262 13.3966 47.5092 14.4877C47.2921 15.5788 46.7564 16.5811 45.9697 17.3678C45.1831 18.1545 44.1808 18.6902 43.0896 18.9072C41.9985 19.1243 40.8675 19.0129 39.8397 18.5871C38.8118 18.1614 37.9333 17.4404 37.3152 16.5154C36.6972 15.5904 36.3673 14.5028 36.3673 13.3903C36.3673 11.8985 36.9599 10.4677 38.0148 9.41284C39.0697 8.35795 40.5004 7.76532 41.9923 7.76532ZM15.7423 35.8903C14.6297 35.8903 13.5422 35.5604 12.6172 34.9423C11.6922 34.3243 10.9712 33.4457 10.5454 32.4179C10.1197 31.3901 10.0083 30.2591 10.2253 29.1679C10.4424 28.0768 10.9781 27.0745 11.7648 26.2878C12.5515 25.5012 13.5537 24.9654 14.6449 24.7484C15.736 24.5314 16.867 24.6428 17.8949 25.0685C18.9227 25.4942 19.8012 26.2152 20.4193 27.1402C21.0374 28.0653 21.3673 29.1528 21.3673 30.2653C21.3673 31.7572 20.7746 33.1879 19.7197 34.2428C18.6648 35.2977 17.2341 35.8903 15.7423 35.8903ZM41.9923 52.7653C40.8797 52.7653 39.7922 52.4354 38.8672 51.8173C37.9422 51.1993 37.2212 50.3207 36.7954 49.2929C36.3697 48.2651 36.2583 47.1341 36.4753 46.0429C36.6924 44.9518 37.2281 43.9495 38.0148 43.1628C38.8015 42.3762 39.8037 41.8404 40.8949 41.6234C41.986 41.4064 43.117 41.5178 44.1449 41.9435C45.1727 42.3692 46.0512 43.0902 46.6693 44.0152C47.2874 44.9403 47.6173 46.0278 47.6173 47.1403C47.6173 48.6322 47.0246 50.0629 45.9697 51.1178C44.9148 52.1727 43.4841 52.7653 41.9923 52.7653Z" fill="url(#paint1_linear_4640_1850)"/>
<defs>
<linearGradient id="paint0_linear_4640_1850" x1="-319.957" y1="59.8356" x2="-312.429" y2="-35.598" gradientUnits="userSpaceOnUse">
<stop stop-color="#E8DF38"/>
<stop offset="1" stop-color="#41D882"/>
</linearGradient>
<linearGradient id="paint1_linear_4640_1850" x1="-1057.23" y1="62.1085" x2="-1054.31" y2="-41.2375" gradientUnits="userSpaceOnUse">
<stop stop-color="#E8DF38"/>
<stop offset="1" stop-color="#41D882"/>
</linearGradient>
</defs>
</svg>
