<svg width="71" height="71" viewBox="0 0 71 71" fill="none" xmlns="http://www.w3.org/2000/svg">
<g clip-path="url(#clip0_4638_4124)">
<path opacity="0.2" d="M59.2266 22.375V48.625C59.2266 49.7853 58.7656 50.8981 57.9452 51.7186C57.1247 52.5391 56.0119 53 54.8516 53H8.91406C7.75374 53 6.64094 52.5391 5.82047 51.7186C5 50.8981 4.53906 49.7853 4.53906 48.625V22.375C4.53906 21.2147 5 20.1019 5.82047 19.2814C6.64094 18.4609 7.75374 18 8.91406 18H54.8516C56.0119 18 57.1247 18.4609 57.9452 19.2814C58.7656 20.1019 59.2266 21.2147 59.2266 22.375Z" fill="url(#paint0_linear_4638_4124)"/>
<path d="M54.8516 15.8125H8.91406C7.17358 15.8125 5.50438 16.5039 4.27367 17.7346C3.04297 18.9653 2.35156 20.6345 2.35156 22.375V48.625C2.35156 50.3655 3.04297 52.0347 4.27367 53.2654C5.50438 54.4961 7.17358 55.1875 8.91406 55.1875H54.8516C56.592 55.1875 58.2612 54.4961 59.492 53.2654C60.7227 52.0347 61.4141 50.3655 61.4141 48.625V22.375C61.4141 20.6345 60.7227 18.9653 59.492 17.7346C58.2612 16.5039 56.592 15.8125 54.8516 15.8125ZM57.0391 48.625C57.0391 49.2052 56.8086 49.7616 56.3984 50.1718C55.9881 50.582 55.4317 50.8125 54.8516 50.8125H8.91406C8.3339 50.8125 7.7775 50.582 7.36727 50.1718C6.95703 49.7616 6.72656 49.2052 6.72656 48.625V22.375C6.72656 21.7948 6.95703 21.2384 7.36727 20.8282C7.7775 20.418 8.3339 20.1875 8.91406 20.1875H54.8516C55.4317 20.1875 55.9881 20.418 56.3984 20.8282C56.8086 21.2384 57.0391 21.7948 57.0391 22.375V48.625ZM70.1641 26.75V44.25C70.1641 44.8302 69.9336 45.3866 69.5234 45.7968C69.1131 46.207 68.5567 46.4375 67.9766 46.4375C67.3964 46.4375 66.84 46.207 66.4298 45.7968C66.0195 45.3866 65.7891 44.8302 65.7891 44.25V26.75C65.7891 26.1698 66.0195 25.6134 66.4298 25.2032C66.84 24.793 67.3964 24.5625 67.9766 24.5625C68.5567 24.5625 69.1131 24.793 69.5234 25.2032C69.9336 25.6134 70.1641 26.1698 70.1641 26.75ZM38.1199 34.3488C38.3163 34.6662 38.4281 35.0286 38.4449 35.4014C38.4616 35.7743 38.3827 36.1452 38.2156 36.4789L33.8406 45.2289C33.7121 45.486 33.5341 45.7153 33.317 45.9036C33.0998 46.092 32.8477 46.2357 32.575 46.3266C32.3023 46.4175 32.0144 46.4538 31.7276 46.4334C31.4409 46.413 31.161 46.3364 30.9039 46.2078C30.6468 46.0793 30.4175 45.9013 30.2292 45.6842C30.0409 45.467 29.8971 45.2149 29.8062 44.9422C29.7153 44.6695 29.679 44.3816 29.6994 44.0948C29.7198 43.8081 29.7964 43.5282 29.925 43.2711L32.7195 37.6875H27.5078C27.1347 37.6878 26.7678 37.5926 26.4419 37.4111C26.116 37.2296 25.8419 36.9677 25.6457 36.6504C25.4495 36.3331 25.3377 35.9709 25.321 35.5982C25.3042 35.2255 25.3831 34.8547 25.55 34.5211L29.925 25.7711C30.0536 25.514 30.2315 25.2847 30.4486 25.0964C30.6658 24.908 30.9179 24.7643 31.1906 24.6734C31.4633 24.5825 31.7513 24.5462 32.038 24.5666C32.3247 24.587 32.6046 24.6636 32.8617 24.7922C33.1188 24.9207 33.3481 25.0987 33.5364 25.3158C33.7248 25.533 33.8685 25.7851 33.9594 26.0578C34.0503 26.3305 34.0866 26.6184 34.0662 26.9052C34.0458 27.1919 33.9692 27.4718 33.8406 27.7289L31.0461 33.3125H36.2578C36.6308 33.3122 36.9977 33.4072 37.3236 33.5886C37.6495 33.77 37.9236 34.0317 38.1199 34.3488Z" fill="url(#paint1_linear_4638_4124)"/>
</g>
<defs>
<linearGradient id="paint0_linear_4638_4124" x1="-1287.69" y1="56.7283" x2="-1286.62" y2="-12.1978" gradientUnits="userSpaceOnUse">
<stop stop-color="#E8DF38"/>
<stop offset="1" stop-color="#41D882"/>
</linearGradient>
<linearGradient id="paint1_linear_4638_4124" x1="-1600.02" y1="59.3818" x2="-1598.92" y2="-18.1634" gradientUnits="userSpaceOnUse">
<stop stop-color="#E8DF38"/>
<stop offset="1" stop-color="#41D882"/>
</linearGradient>
<clipPath id="clip0_4638_4124">
<rect width="70" height="70" fill="white" transform="translate(0.164062 0.5)"/>
</clipPath>
</defs>
</svg>
