<svg width="61" height="61" viewBox="0 0 61 61" fill="none" xmlns="http://www.w3.org/2000/svg">
<g clip-path="url(#clip0_4638_3782)">
<path opacity="0.2" d="M43.4917 26.7935L44.6355 27.9396C44.9838 28.2878 45.2601 28.7012 45.4486 29.1563C45.6371 29.6113 45.7341 30.099 45.7341 30.5915C45.7341 31.084 45.6371 31.5718 45.4486 32.0268C45.2601 32.4818 44.9838 32.8952 44.6355 33.2435L42.5261 35.3528C42.1745 35.7042 41.6978 35.9016 41.2007 35.9016C40.7036 35.9016 40.2269 35.7042 39.8753 35.3528L25.6581 21.1286C25.3067 20.777 25.1094 20.3003 25.1094 19.8032C25.1094 19.3062 25.3067 18.8294 25.6581 18.4778L27.7675 16.3685C28.1157 16.0202 28.5292 15.7439 28.9842 15.5554C29.4392 15.3668 29.9269 15.2698 30.4194 15.2698C30.912 15.2698 31.3997 15.3668 31.8547 15.5554C32.3097 15.7439 32.7232 16.0202 33.0714 16.3685L34.2175 17.5122L40.0769 11.6294C42.6058 9.10051 46.7261 8.94582 49.3206 11.395C49.9584 11.9976 50.4688 12.722 50.8218 13.5253C51.1747 14.3286 51.363 15.1946 51.3754 16.0719C51.3879 16.9492 51.2243 17.8201 50.8943 18.6332C50.5643 19.4462 50.0746 20.1847 49.4542 20.8052L43.4917 26.7935Z" fill="url(#paint0_linear_4638_3782)"/>
<path d="M43.4917 26.7935L44.6355 27.9396C44.9838 28.2878 45.2601 28.7012 45.4486 29.1563C45.6371 29.6113 45.7341 30.099 45.7341 30.5915C45.7341 31.0841 45.6371 31.5718 45.4486 32.0268C45.2601 32.4818 44.9838 32.8952 44.6355 33.2435L42.5261 35.3528C42.1745 35.7042 41.6978 35.9016 41.2007 35.9016C40.7036 35.9016 40.2269 35.7042 39.8753 35.3528L25.6581 21.1286C25.3067 20.777 25.1094 20.3003 25.1094 19.8032C25.1094 19.3062 25.3067 18.8294 25.6581 18.4778L27.7675 16.3685C28.1157 16.0202 28.5292 15.7439 28.9842 15.5554C29.4392 15.3668 29.9269 15.2698 30.4194 15.2698C30.912 15.2698 31.3997 15.3668 31.8547 15.5554C32.3097 15.7439 32.7232 16.0202 33.0714 16.3685L34.2175 17.5122L40.0769 11.6294C42.6058 9.10051 46.7261 8.94582 49.3206 11.395C49.9584 11.9976 50.4688 12.722 50.8218 13.5253C51.1747 14.3286 51.363 15.1946 51.3754 16.0719C51.3879 16.9492 51.2243 17.8201 50.8943 18.6332C50.5643 19.4462 50.0746 20.1847 49.4542 20.8052L43.4917 26.7935Z" stroke="url(#paint1_linear_4638_3782)" stroke-width="3.75" stroke-linecap="round" stroke-linejoin="round"/>
<path d="M38.066 33.5355L24.7816 46.8223C23.8182 47.7888 22.6094 48.4743 21.2853 48.8047C19.9612 49.1351 18.5721 49.0979 17.2675 48.6973L12.58 50.7457C12.2347 50.8968 11.8518 50.9402 11.4813 50.8704C11.1109 50.8006 10.7701 50.6207 10.5035 50.3543C10.3121 50.1629 10.1829 49.9183 10.1327 49.6524C10.0825 49.3865 10.1137 49.1116 10.2222 48.8637L12.3761 43.9277C11.929 42.603 11.861 41.1797 12.1799 39.8184C12.4988 38.4571 13.1918 37.2121 14.1808 36.2238L27.4675 22.9395" stroke="url(#paint2_linear_4638_3782)" stroke-width="3.75" stroke-linecap="round" stroke-linejoin="round"/>
</g>
<defs>
<linearGradient id="paint0_linear_4638_3782" x1="-595.557" y1="38.6988" x2="-594.303" y2="-12.9956" gradientUnits="userSpaceOnUse">
<stop stop-color="#E8DF38"/>
<stop offset="1" stop-color="#41D882"/>
</linearGradient>
<linearGradient id="paint1_linear_4638_3782" x1="-595.557" y1="38.6988" x2="-594.303" y2="-12.9956" gradientUnits="userSpaceOnUse">
<stop stop-color="#E8DF38"/>
<stop offset="1" stop-color="#41D882"/>
</linearGradient>
<linearGradient id="paint2_linear_4638_3782" x1="-650.488" y1="53.8816" x2="-649.151" y2="-1.16805" gradientUnits="userSpaceOnUse">
<stop stop-color="#E8DF38"/>
<stop offset="1" stop-color="#41D882"/>
</linearGradient>
<clipPath id="clip0_4638_3782">
<rect width="60" height="60" fill="white" transform="translate(0.734375 0.267578)"/>
</clipPath>
</defs>
</svg>
