<svg width="61" height="61" viewBox="0 0 61 61" fill="none" xmlns="http://www.w3.org/2000/svg">
<path opacity="0.2" d="M55.1102 35.8936C55.1132 38.6579 54.6456 41.4026 53.7274 44.01C53.5993 44.3782 53.3595 44.6973 53.0415 44.9228C52.7235 45.1484 52.3431 45.2693 51.9532 45.2686H9.51493C9.12432 45.2669 8.74387 45.144 8.42607 44.9169C8.10828 44.6897 7.86881 44.3696 7.74071 44.0006C6.80354 41.3358 6.33644 38.5284 6.36024 35.7037C6.46337 22.2998 17.547 11.399 30.9696 11.5186C37.3936 11.5803 43.5334 14.1756 48.054 18.7402C52.5747 23.3047 55.1105 29.4693 55.1102 35.8936Z" fill="url(#paint0_linear_4640_1604)"/>
<path d="M27.5341 36.441L50.0341 13.941C50.2083 13.7668 50.4151 13.6286 50.6427 13.5343C50.8703 13.4401 51.1143 13.3915 51.3606 13.3915C51.607 13.3915 51.8509 13.4401 52.0786 13.5343C52.3062 13.6286 52.513 13.7668 52.6872 13.941C52.8614 14.1152 52.9996 14.322 53.0939 14.5496C53.1881 14.7773 53.2367 15.0212 53.2367 15.2676C53.2367 15.5139 53.1881 15.7579 53.0939 15.9855C52.9996 16.2131 52.8614 16.4199 52.6872 16.5941L30.1872 39.0941C30.013 39.2683 29.8062 39.4065 29.5786 39.5008C29.3509 39.5951 29.107 39.6436 28.8606 39.6436C28.6143 39.6436 28.3703 39.5951 28.1427 39.5008C27.9151 39.4065 27.7083 39.2683 27.5341 39.0941C27.3599 38.9199 27.2217 38.7131 27.1274 38.4855C27.0331 38.2579 26.9846 38.0139 26.9846 37.7676C26.9846 37.5212 27.0331 37.2773 27.1274 37.0496C27.2217 36.822 27.3599 36.6152 27.5341 36.441ZM30.7356 20.8926C32.3643 20.8905 33.9824 21.1541 35.5263 21.673C35.7607 21.7561 36.0092 21.7918 36.2575 21.7779C36.5058 21.764 36.7489 21.7009 36.9726 21.5921C37.1962 21.4834 37.396 21.3313 37.5603 21.1446C37.7246 20.9579 37.8501 20.7404 37.9296 20.5047C38.009 20.2691 38.0408 20.02 38.023 19.7719C38.0052 19.5238 37.9383 19.2818 37.8261 19.0599C37.7139 18.8379 37.5587 18.6405 37.3694 18.4792C37.1802 18.3178 36.9608 18.1957 36.7239 18.1199C33.7359 17.1126 30.5421 16.8751 27.438 17.4294C24.3339 17.9837 21.4197 19.3119 18.965 21.2911C16.5103 23.2703 14.5944 25.8366 13.3945 28.7527C12.1947 31.6687 11.7496 34.8402 12.1005 37.9738C12.1512 38.4321 12.369 38.8557 12.7123 39.1635C13.0556 39.4714 13.5003 39.6419 13.9614 39.6426C14.0294 39.6426 14.0997 39.6426 14.17 39.6309C14.6641 39.5761 15.1163 39.3273 15.427 38.9392C15.7378 38.5511 15.8816 38.0555 15.827 37.5613C15.766 37.0072 15.7355 36.4501 15.7356 35.8926C15.74 31.9157 17.3217 28.1029 20.1338 25.2908C22.9459 22.4787 26.7587 20.8969 30.7356 20.8926ZM54.1122 23.9395C53.9999 23.7203 53.8454 23.5254 53.6578 23.366C53.4701 23.2065 53.2529 23.0856 53.0185 23.01C52.7841 22.9345 52.5372 22.9059 52.2917 22.9258C52.0462 22.9458 51.8071 23.0138 51.588 23.1262C51.3688 23.2385 51.174 23.3929 51.0145 23.5806C50.855 23.7682 50.7341 23.9855 50.6586 24.2198C50.583 24.4542 50.5544 24.7012 50.5743 24.9467C50.5943 25.1921 50.6623 25.4312 50.7747 25.6504C52.1619 28.3745 52.9811 31.352 53.1825 34.4023C53.384 37.4526 52.9635 40.5121 51.9466 43.3949L9.50126 43.3785C8.31702 39.9839 7.96138 36.3554 8.46399 32.7954C8.9666 29.2355 10.3129 25.8472 12.3906 22.9132C14.4684 19.9791 17.2174 17.5842 20.4085 15.9281C23.5996 14.272 27.1404 13.4026 30.7356 13.3926H30.9419C34.4339 13.4145 37.8718 14.2575 40.9778 15.8535C41.1976 15.9745 41.4393 16.0501 41.6888 16.0759C41.9383 16.1017 42.1905 16.0772 42.4303 16.0039C42.6702 15.9305 42.8929 15.8097 43.0852 15.6488C43.2776 15.4878 43.4357 15.2899 43.5502 15.0667C43.6646 14.8435 43.7332 14.5996 43.7517 14.3495C43.7703 14.0994 43.7385 13.8481 43.6581 13.6104C43.5778 13.3728 43.4506 13.1537 43.2841 12.9662C43.1176 12.7786 42.9152 12.6263 42.6888 12.5184C39.0625 10.6529 35.0479 9.66776 30.97 9.64258H30.7356C26.5383 9.64425 22.4025 10.652 18.6749 12.5813C14.9472 14.5106 11.7363 17.3053 9.31124 20.7311C6.88616 24.157 5.31756 28.1142 4.7369 32.2712C4.15623 36.4282 4.58042 40.6638 5.97391 44.623C6.23156 45.3574 6.71038 45.994 7.34454 46.4452C7.97869 46.8963 8.73705 47.14 9.51532 47.1426H51.9536C52.7313 47.1431 53.4899 46.9017 54.1244 46.452C54.7589 46.0023 55.2379 45.3664 55.495 44.6324C56.6776 41.2689 57.1648 37.7003 56.9271 34.1429C56.6894 30.5855 55.7317 27.1134 54.1122 23.9371V23.9395Z" fill="url(#paint1_linear_4640_1604)"/>
<defs>
<linearGradient id="paint0_linear_4640_1604" x1="-1145.59" y1="48.8638" x2="-1144.48" y2="-17.5999" gradientUnits="userSpaceOnUse">
<stop stop-color="#E8DF38"/>
<stop offset="1" stop-color="#41D882"/>
</linearGradient>
<linearGradient id="paint1_linear_4640_1604" x1="-1236.09" y1="51.1372" x2="-1234.81" y2="-22.7079" gradientUnits="userSpaceOnUse">
<stop stop-color="#E8DF38"/>
<stop offset="1" stop-color="#41D882"/>
</linearGradient>
</defs>
</svg>
