<svg width="61" height="61" viewBox="0 0 61 61" fill="none" xmlns="http://www.w3.org/2000/svg">
<path opacity="0.2" d="M47.6094 20.8922C47.6094 24.0261 46.7368 27.0982 45.0893 29.7641C43.4417 32.43 41.0843 34.5844 38.2813 35.986L30.7344 20.8922L23.1875 35.986C20.4997 34.642 18.2196 32.6048 16.5827 30.0847C14.9458 27.5646 14.0115 24.6531 13.8764 21.6511C13.7414 18.649 14.4104 15.6654 15.8144 13.0085C17.2183 10.3516 19.3063 8.11776 21.8626 6.5379C24.4188 4.95803 27.3506 4.08943 30.3549 4.02185C33.3592 3.95426 36.327 4.69016 38.9517 6.15347C41.5764 7.61679 43.7627 9.75445 45.2848 12.3455C46.8068 14.9366 47.6093 17.8872 47.6094 20.8922Z" fill="url(#paint0_linear_4640_1844)"/>
<path d="M32.4138 20.0569C32.2583 19.7449 32.0189 19.4824 31.7225 19.2989C31.426 19.1154 31.0843 19.0183 30.7357 19.0183C30.3871 19.0183 30.0454 19.1154 29.7489 19.2989C29.4525 19.4824 29.2131 19.7449 29.0576 20.0569L12.1826 53.8069C11.96 54.2516 11.9233 54.7666 12.0804 55.2384C12.2376 55.7103 12.5757 56.1004 13.0205 56.3229C13.4652 56.5454 13.9802 56.5822 14.452 56.425C14.9239 56.2679 15.3139 55.9298 15.5365 55.485L18.7826 49.0209H42.7123L45.9443 55.485C46.0993 55.7947 46.337 56.0555 46.6312 56.2384C46.9253 56.4212 47.2644 56.519 47.6107 56.5209C47.9303 56.5208 48.2445 56.4389 48.5235 56.2832C48.8026 56.1274 49.0372 55.9029 49.2051 55.631C49.373 55.3591 49.4686 55.0488 49.4828 54.7295C49.4971 54.4103 49.4295 54.0927 49.2865 53.8069L32.4138 20.0569ZM30.7357 25.0889L37.0779 37.7709H24.3935L30.7357 25.0889ZM20.6576 45.2709L22.5326 41.5209H38.9623L40.8373 45.2709H20.6576ZM38.1279 22.2413C38.321 21.1616 38.275 20.0528 37.9931 18.9929C37.7112 17.933 37.2003 16.9478 36.4964 16.1068C35.7924 15.2658 34.9126 14.5894 33.9189 14.1253C32.9252 13.6612 31.8418 13.4206 30.7451 13.4206C29.6483 13.4206 28.5649 13.6612 27.5712 14.1253C26.5775 14.5894 25.6977 15.2658 24.9938 16.1068C24.2898 16.9478 23.7789 17.933 23.497 18.9929C23.2152 20.0528 23.1691 21.1616 23.3623 22.2413C23.4123 22.486 23.4129 22.7382 23.3641 22.9832C23.3153 23.2282 23.218 23.4609 23.078 23.6678C22.938 23.8746 22.7581 24.0514 22.5488 24.1878C22.3395 24.3241 22.1051 24.4173 21.8593 24.4618C21.6135 24.5063 21.3613 24.5012 21.1175 24.4469C20.8737 24.3926 20.6432 24.2901 20.4396 24.1455C20.2359 24.0009 20.0632 23.817 19.9316 23.6047C19.8 23.3924 19.7122 23.1559 19.6732 22.9092C19.3793 21.2883 19.445 19.6226 19.8656 18.0299C20.2862 16.4371 21.0515 14.9562 22.1073 13.6917C23.1632 12.4272 24.4838 11.41 25.976 10.712C27.4681 10.014 29.0954 9.65224 30.7427 9.65224C32.3901 9.65224 34.0173 10.014 35.5095 10.712C37.0016 11.41 38.3223 12.4272 39.3782 13.6917C40.434 14.9562 41.1993 16.4371 41.6199 18.0299C42.0405 19.6226 42.1061 21.2883 41.8123 22.9092C41.7343 23.3413 41.5073 23.7323 41.1706 24.0141C40.834 24.2959 40.4091 24.4507 39.9701 24.4514C39.8577 24.4505 39.7456 24.4403 39.6349 24.4209C39.3919 24.378 39.1597 24.2874 38.9517 24.1545C38.7437 24.0216 38.564 23.849 38.4229 23.6465C38.2818 23.444 38.1821 23.2156 38.1294 22.9744C38.0768 22.7333 38.0723 22.4841 38.1162 22.2413H38.1279ZM15.7709 32.1952C13.6699 29.412 12.3867 26.0982 12.0655 22.626C11.7442 19.1537 12.3975 15.6607 13.9521 12.5393C15.5067 9.41799 17.901 6.792 20.8658 4.95642C23.8307 3.12085 27.2486 2.14844 30.7357 2.14844C34.2228 2.14844 37.6407 3.12085 40.6056 4.95642C43.5704 6.792 45.9647 9.41799 47.5193 12.5393C49.0739 15.6607 49.7272 19.1537 49.406 22.626C49.0847 26.0982 47.8015 29.412 45.7006 32.1952C45.3976 32.5832 44.9542 32.8366 44.4661 32.9005C43.9779 32.9645 43.4842 32.8339 43.0915 32.5369C42.6989 32.24 42.4388 31.8005 42.3674 31.3134C42.296 30.8263 42.419 30.3306 42.7099 29.9334C44.3899 27.7068 45.4157 25.0558 45.6722 22.2783C45.9286 19.5008 45.4055 16.7068 44.1617 14.2102C42.9178 11.7135 41.0025 9.61318 38.6308 8.14505C36.2591 6.67692 33.525 5.89917 30.7357 5.89917C27.9464 5.89917 25.2123 6.67692 22.8406 8.14505C20.4689 9.61318 18.5536 11.7135 17.3097 14.2102C16.0659 16.7068 15.5428 19.5008 15.7992 22.2783C16.0557 25.0558 17.0815 27.7068 18.7615 29.9334C19.0524 30.3306 19.1754 30.8263 19.104 31.3134C19.0326 31.8005 18.7725 32.24 18.3799 32.5369C17.9872 32.8339 17.4935 32.9645 17.0053 32.9005C16.5172 32.8366 16.0738 32.5832 15.7709 32.1952Z" fill="url(#paint1_linear_4640_1844)"/>
<defs>
<linearGradient id="paint0_linear_4640_1844" x1="-783.633" y1="39.3913" x2="-782.186" y2="-23.5465" gradientUnits="userSpaceOnUse">
<stop stop-color="#E8DF38"/>
<stop offset="1" stop-color="#41D882"/>
</linearGradient>
<linearGradient id="paint1_linear_4640_1844" x1="-874.15" y1="62.313" x2="-870.385" y2="-44.6574" gradientUnits="userSpaceOnUse">
<stop stop-color="#E8DF38"/>
<stop offset="1" stop-color="#41D882"/>
</linearGradient>
</defs>
</svg>
