<svg width="61" height="61" viewBox="0 0 61 61" fill="none" xmlns="http://www.w3.org/2000/svg">
<g clip-path="url(#clip0_4638_4141)">
<path opacity="0.2" d="M36.3594 32.6113V11.5176C36.3594 9.52845 35.5692 7.6208 34.1627 6.21428C32.7562 4.80775 30.8485 4.01758 28.8594 4.01758C26.8703 4.01758 24.9626 4.80775 23.5561 6.21428C22.1496 7.6208 21.3594 9.52845 21.3594 11.5176V32.6113C19.0663 34.208 17.3426 36.4949 16.4392 39.1391C15.5359 41.7833 15.4999 44.6467 16.3367 47.3127C17.1734 49.9788 18.8392 52.3081 21.0915 53.9619C23.3438 55.6156 26.0651 56.5074 28.8594 56.5074C31.6536 56.5074 34.3749 55.6156 36.6272 53.9619C38.8796 52.3081 40.5453 49.9788 41.3821 47.3127C42.2188 44.6467 42.1829 41.7833 41.2795 39.1391C40.3761 36.4949 38.6525 34.208 36.3594 32.6113ZM28.8594 49.0176C27.7469 49.0176 26.6593 48.6877 25.7343 48.0696C24.8093 47.4515 24.0883 46.573 23.6626 45.5452C23.2368 44.5173 23.1254 43.3863 23.3425 42.2952C23.5595 41.2041 24.0952 40.2018 24.8819 39.4151C25.6686 38.6284 26.6708 38.0927 27.762 37.8757C28.8531 37.6586 29.9841 37.77 31.012 38.1958C32.0398 38.6215 32.9183 39.3425 33.5364 40.2675C34.1545 41.1925 34.4844 42.2801 34.4844 43.3926C34.4844 44.8844 33.8917 46.3152 32.8369 47.3701C31.782 48.4249 30.3512 49.0176 28.8594 49.0176Z" fill="url(#paint0_linear_4638_4141)"/>
<path d="M59.0727 18.4832L54.3852 20.0043L57.2773 23.9887C57.4302 24.1873 57.5417 24.4145 57.6052 24.6569C57.6687 24.8993 57.683 25.152 57.6472 25.4C57.6115 25.6481 57.5263 25.8864 57.3968 26.101C57.2674 26.3155 57.0962 26.502 56.8934 26.6492C56.6907 26.7965 56.4605 26.9017 56.2164 26.9585C55.9723 27.0153 55.7193 27.0225 55.4724 26.9799C55.2254 26.9373 54.9896 26.8455 54.7787 26.7102C54.5678 26.5748 54.3861 26.3985 54.2445 26.1918L51.3594 22.2074L48.4672 26.1918C48.1694 26.5788 47.7324 26.8343 47.2491 26.904C46.7658 26.9737 46.2744 26.8522 45.8793 26.5652C45.4843 26.2782 45.2167 25.8485 45.1337 25.3673C45.0506 24.8861 45.1584 24.3915 45.4344 23.9887L48.3266 20.0043L43.6391 18.4832C43.166 18.3297 42.7734 17.9945 42.5474 17.5515C42.3215 17.1084 42.2808 16.5937 42.4344 16.1207C42.5879 15.6477 42.9231 15.255 43.3661 15.0291C43.8092 14.8031 44.3238 14.7625 44.7969 14.916L49.4844 16.4395V11.5176C49.4844 11.0203 49.6819 10.5434 50.0335 10.1918C50.3852 9.84012 50.8621 9.64258 51.3594 9.64258C51.8567 9.64258 52.3336 9.84012 52.6852 10.1918C53.0368 10.5434 53.2344 11.0203 53.2344 11.5176V16.4395L57.9219 14.9184C58.3949 14.7645 58.9097 14.8049 59.353 15.0306C59.7962 15.2563 60.1317 15.6488 60.2855 16.1219C60.4394 16.5949 60.399 17.1097 60.1733 17.553C59.9476 17.9962 59.5551 18.3317 59.082 18.4855L59.0727 18.4832ZM36.3594 43.3926C36.3587 44.7952 35.9647 46.1695 35.2221 47.3594C34.4796 48.5493 33.4182 49.5071 32.1587 50.1241C30.8991 50.7411 29.4917 50.9926 28.0964 50.8499C26.7011 50.7072 25.3737 50.1761 24.2651 49.3169C23.1565 48.4577 22.311 47.3049 21.8246 45.9893C21.3383 44.6737 21.2307 43.2481 21.5139 41.8744C21.7971 40.5007 22.4598 39.234 23.4268 38.218C24.3938 37.202 25.6263 36.4776 26.9844 36.127V28.3926C26.9844 27.8953 27.1819 27.4184 27.5336 27.0668C27.8852 26.7151 28.3621 26.5176 28.8594 26.5176C29.3567 26.5176 29.8336 26.7151 30.1852 27.0668C30.5368 27.4184 30.7344 27.8953 30.7344 28.3926V36.127C32.3437 36.545 33.769 37.485 34.7869 38.7998C35.8048 40.1146 36.3578 41.7298 36.3594 43.3926ZM32.6094 43.3926C32.6094 42.6509 32.3894 41.9259 31.9774 41.3092C31.5653 40.6925 30.9797 40.2119 30.2944 39.928C29.6092 39.6442 28.8552 39.5699 28.1278 39.7146C27.4004 39.8593 26.7322 40.2165 26.2077 40.7409C25.6833 41.2654 25.3261 41.9336 25.1814 42.661C25.0367 43.3884 25.111 44.1424 25.3948 44.8276C25.6787 45.5129 26.1593 46.0985 26.776 46.5106C27.3927 46.9226 28.1177 47.1426 28.8594 47.1426C29.8539 47.1426 30.8078 46.7475 31.511 46.0442C32.2143 45.341 32.6094 44.3871 32.6094 43.3926ZM43.8594 43.3926C43.8578 45.9289 43.2131 48.4235 41.9855 50.643C40.7579 52.8625 38.9876 54.7345 36.84 56.0839C34.6925 57.4334 32.2378 58.2163 29.7054 58.3593C27.1731 58.5024 24.6459 58.001 22.36 56.902C20.0741 55.803 18.1042 54.1423 16.6344 52.0752C15.1647 50.008 14.2431 47.602 13.9559 45.0819C13.6686 42.5619 14.0251 40.0102 14.9919 37.6653C15.9588 35.3205 17.5044 33.2591 19.4844 31.6738V11.5176C19.4844 9.03117 20.4721 6.64661 22.2303 4.88845C23.9884 3.1303 26.373 2.14258 28.8594 2.14258C31.3458 2.14258 33.7303 3.1303 35.4885 4.88845C37.2467 6.64661 38.2344 9.03117 38.2344 11.5176V31.6738C39.9899 33.0811 41.4068 34.8648 42.3804 36.8931C43.354 38.9215 43.8594 41.1427 43.8594 43.3926ZM40.1094 43.3926C40.1079 41.5788 39.6686 39.7922 38.8289 38.1845C37.9891 36.5768 36.7737 35.1956 35.2859 34.1582C35.0371 33.9845 34.8342 33.753 34.6946 33.4835C34.555 33.2141 34.4828 32.9148 34.4844 32.6113V11.5176C34.4844 10.0257 33.8917 8.595 32.8369 7.5401C31.782 6.48521 30.3512 5.89258 28.8594 5.89258C27.3675 5.89258 25.9368 6.48521 24.8819 7.5401C23.827 8.595 23.2344 10.0257 23.2344 11.5176V32.6113C23.2344 32.9132 23.1615 33.2106 23.022 33.4783C22.8824 33.746 22.6803 33.976 22.4328 34.1488C20.8453 35.2537 19.5695 36.7492 18.7285 38.4909C17.8876 40.2326 17.5098 42.1617 17.6318 44.092C17.7537 46.0222 18.3713 47.8884 19.4248 49.5104C20.4783 51.1325 21.9322 52.4555 23.6461 53.3517C25.36 54.248 27.2761 54.6873 29.2092 54.6271C31.1424 54.567 33.0274 54.0094 34.6823 53.0083C36.3372 52.0073 37.706 50.5964 38.6567 48.9121C39.6073 47.2277 40.1077 45.3267 40.1094 43.3926Z" fill="url(#paint1_linear_4638_4141)"/>
</g>
<defs>
<linearGradient id="paint0_linear_4638_4141" x1="-604.537" y1="62.0987" x2="-599.531" y2="-41.0523" gradientUnits="userSpaceOnUse">
<stop stop-color="#E8DF38"/>
<stop offset="1" stop-color="#41D882"/>
</linearGradient>
<linearGradient id="paint1_linear_4638_4141" x1="-1085.34" y1="64.3741" x2="-1082.09" y2="-46.3129" gradientUnits="userSpaceOnUse">
<stop stop-color="#E8DF38"/>
<stop offset="1" stop-color="#41D882"/>
</linearGradient>
<clipPath id="clip0_4638_4141">
<rect width="60" height="60" fill="white" transform="translate(0.734375 0.267578)"/>
</clipPath>
</defs>
</svg>
