<svg width="61" height="61" viewBox="0 0 61 61" fill="none" xmlns="http://www.w3.org/2000/svg">
<path opacity="0.2" d="M50.6686 40.6926C48.8507 44.17 46.155 47.1115 42.849 49.2251C39.5431 51.3388 35.7418 52.5511 31.8225 52.7418L32.5655 48.8887C32.6208 48.5994 32.6071 48.3012 32.5257 48.0182C32.4443 47.7353 32.2973 47.4754 32.0968 47.2598L27.4702 42.4949C27.2208 42.2257 27.0559 41.8893 26.9959 41.5272C26.9359 41.1652 26.9835 40.7935 27.1327 40.4582L30.3436 33.2535C30.5087 32.8833 30.7893 32.5765 31.1434 32.3792C31.4975 32.1819 31.906 32.1046 32.3077 32.159L37.6561 32.8809C37.9152 32.9164 38.1641 33.0049 38.3874 33.141L50.6686 40.6926ZM28.0796 22.5332L30.96 20.9489C31.0871 20.8801 31.2052 20.7959 31.3116 20.6981L37.6186 14.9957C37.9326 14.7102 38.1403 14.3266 38.208 13.9077C38.2757 13.4888 38.1993 13.0593 37.9913 12.6895L35.5304 8.28089C33.9517 7.93892 32.341 7.76685 30.7257 7.7676C25.5898 7.75977 20.6071 9.51638 16.6116 12.7434L13.8507 19.2707C13.6642 19.7126 13.6541 20.2092 13.8225 20.6582L16.5179 27.8465C16.6286 28.1402 16.8113 28.4014 17.0492 28.6062C17.2871 28.8109 17.5726 28.9526 17.8796 29.0184L18.51 29.1543L21.6319 23.7051C21.7967 23.4197 22.0338 23.1827 22.3194 23.0181C22.605 22.8535 22.9289 22.7671 23.2585 22.7676H27.1749C27.4915 22.7681 27.803 22.6874 28.0796 22.5332Z" fill="url(#paint0_linear_4640_1841)"/>
<path d="M30.7344 5.89258C25.9135 5.89258 21.2008 7.32215 17.1924 10.0005C13.1839 12.6789 10.0597 16.4857 8.21482 20.9397C6.36994 25.3936 5.88723 30.2946 6.82774 35.0229C7.76826 39.7512 10.0898 44.0944 13.4987 47.5033C16.9076 50.9122 21.2508 53.2337 25.9791 54.1742C30.7073 55.1147 35.6083 54.632 40.0623 52.7871C44.5162 50.9423 48.3231 47.818 51.0015 43.8096C53.6798 39.8012 55.1094 35.0885 55.1094 30.2676C55.1026 23.805 52.5323 17.6091 47.9626 13.0394C43.3929 8.46967 37.1969 5.8994 30.7344 5.89258ZM51.3594 30.2676C51.3614 32.9136 50.8521 35.5351 49.8594 37.9879L39.3828 31.5449C38.9374 31.27 38.4391 31.092 37.9203 31.0223L32.5719 30.3004C31.8349 30.2043 31.0859 30.3278 30.4189 30.6555C29.7518 30.9832 29.1963 31.5005 28.8219 32.1426H26.7781L25.8875 30.3004C25.6413 29.7874 25.281 29.3376 24.8341 28.9854C24.3872 28.6332 23.8657 28.3879 23.3094 28.2684L21.4344 27.8629L23.2672 24.6426H27.1836C27.8173 24.6413 28.4405 24.4801 28.9953 24.1738L31.8664 22.5895C32.1187 22.4488 32.3545 22.2806 32.5695 22.0879L38.8766 16.3832C39.5089 15.8165 39.9292 15.0512 40.0681 14.2135C40.207 13.3759 40.0562 12.5158 39.6406 11.7754L39.5563 11.623C43.0855 13.2965 46.0677 15.9365 48.1569 19.2366C50.2461 22.5368 51.3566 26.3617 51.3594 30.2676ZM34.3227 9.95664L36.3594 13.6035L30.0524 19.3082L27.1836 20.8926H23.2672C22.608 20.8916 21.9602 21.0644 21.3891 21.3936C20.8179 21.7228 20.3437 22.1967 20.0141 22.7676L17.968 26.3371L15.5891 19.9996L18.1531 13.9363C20.4227 12.1827 23.0335 10.9225 25.8183 10.2364C28.6031 9.55026 31.5006 9.45338 34.325 9.95195L34.3227 9.95664ZM10.1094 30.2676C10.1063 27.202 10.7902 24.1747 12.1109 21.4082L14.7688 28.5027C14.9903 29.0901 15.3557 29.6125 15.8315 30.022C16.3073 30.4315 16.8783 30.715 17.4922 30.8465L22.5149 31.927L23.4078 33.7832C23.7177 34.4145 24.198 34.9466 24.7944 35.3194C25.3908 35.6921 26.0795 35.8907 26.7828 35.8926H27.1297L25.4352 39.6965C25.1366 40.3663 25.041 41.1089 25.1601 41.8325C25.2792 42.5561 25.6079 43.2289 26.1055 43.7676L26.1383 43.8004L30.7344 48.5348L30.2797 50.8785C24.8934 50.7532 19.7693 48.5277 16.0009 44.677C12.2326 40.8263 10.1183 35.6554 10.1094 30.2676ZM34.1516 50.6066L34.4164 49.2449C34.5253 48.6664 34.4972 48.0704 34.3344 47.5047C34.1716 46.939 33.8786 46.4193 33.4789 45.9871C33.4674 45.9768 33.4564 45.9658 33.4461 45.9543L28.8594 41.2223L32.0703 34.0176L37.4188 34.7395L48.1344 41.3301C46.5819 43.7681 44.5353 45.8534 42.1268 47.4513C39.7183 49.0492 37.0014 50.1241 34.1516 50.6066Z" fill="url(#paint1_linear_4640_1841)"/>
<defs>
<linearGradient id="paint0_linear_4640_1841" x1="-859.77" y1="57.5326" x2="-857.156" y2="-30.9801" gradientUnits="userSpaceOnUse">
<stop stop-color="#E8DF38"/>
<stop offset="1" stop-color="#41D882"/>
</linearGradient>
<linearGradient id="paint1_linear_4640_1841" x1="-1145.57" y1="59.8356" x2="-1143.24" y2="-36.1353" gradientUnits="userSpaceOnUse">
<stop stop-color="#E8DF38"/>
<stop offset="1" stop-color="#41D882"/>
</linearGradient>
</defs>
</svg>
