<svg width="56" height="56" viewBox="0 0 56 56" fill="none" xmlns="http://www.w3.org/2000/svg">
<g id="AlignLeft">
<path id="Vector" opacity="0.2" d="M15.75 22.75V14C15.75 13.5359 15.9344 13.0908 16.2626 12.7626C16.5908 12.4344 17.0359 12.25 17.5 12.25H38.5C38.9641 12.25 39.4093 12.4344 39.7374 12.7626C40.0656 13.0908 40.25 13.5359 40.25 14V22.75C40.25 23.2141 40.0656 23.6592 39.7374 23.9874C39.4093 24.3156 38.9641 24.5 38.5 24.5H17.5C17.0359 24.5 16.5908 24.3156 16.2626 23.9874C15.9344 23.6592 15.75 23.2141 15.75 22.75ZM47.25 31.5H17.5C17.0359 31.5 16.5908 31.6844 16.2626 32.0126C15.9344 32.3407 15.75 32.7859 15.75 33.25V42C15.75 42.4641 15.9344 42.9093 16.2626 43.2374C16.5908 43.5656 17.0359 43.75 17.5 43.75H47.25C47.7141 43.75 48.1592 43.5656 48.4874 43.2374C48.8156 42.9093 49 42.4641 49 42V33.25C49 32.7859 48.8156 32.3407 48.4874 32.0126C48.1592 31.6844 47.7141 31.5 47.25 31.5Z" fill="url(#paint0_linear_3464_2007)"/>
<path id="Vector_2" d="M47.25 29.75H17.5C16.5717 29.75 15.6815 30.1187 15.0251 30.7751C14.3687 31.4315 14 32.3217 14 33.25V42C14 42.9283 14.3687 43.8185 15.0251 44.4749C15.6815 45.1312 16.5717 45.5 17.5 45.5H47.25C48.1783 45.5 49.0685 45.1312 49.7249 44.4749C50.3812 43.8185 50.75 42.9283 50.75 42V33.25C50.75 32.3217 50.3812 31.4315 49.7249 30.7751C49.0685 30.1187 48.1783 29.75 47.25 29.75ZM47.25 42H17.5V33.25H47.25V42ZM10.5 8.75V47.25C10.5 47.7141 10.3156 48.1592 9.98744 48.4874C9.65925 48.8156 9.21413 49 8.75 49C8.28587 49 7.84075 48.8156 7.51256 48.4874C7.18437 48.1592 7 47.7141 7 47.25V8.75C7 8.28587 7.18437 7.84075 7.51256 7.51256C7.84075 7.18437 8.28587 7 8.75 7C9.21413 7 9.65925 7.18437 9.98744 7.51256C10.3156 7.84075 10.5 8.28587 10.5 8.75ZM17.5 26.25H38.5C39.4283 26.25 40.3185 25.8813 40.9749 25.2249C41.6312 24.5685 42 23.6783 42 22.75V14C42 13.0717 41.6312 12.1815 40.9749 11.5251C40.3185 10.8687 39.4283 10.5 38.5 10.5H17.5C16.5717 10.5 15.6815 10.8687 15.0251 11.5251C14.3687 12.1815 14 13.0717 14 14V22.75C14 23.6783 14.3687 24.5685 15.0251 25.2249C15.6815 25.8813 16.5717 26.25 17.5 26.25ZM17.5 14H38.5V22.75H17.5V14Z" fill="url(#paint1_linear_3464_2007)"/>
</g>
<defs>
<linearGradient id="paint0_linear_3464_2007" x1="-769.927" y1="47.1055" x2="-768.501" y2="-14.9102" gradientUnits="userSpaceOnUse">
<stop stop-color="#E8DF38"/>
<stop offset="1" stop-color="#41D882"/>
</linearGradient>
<linearGradient id="paint1_linear_3464_2007" x1="-1026.79" y1="53.4739" x2="-1024.86" y2="-29.2124" gradientUnits="userSpaceOnUse">
<stop stop-color="#E8DF38"/>
<stop offset="1" stop-color="#41D882"/>
</linearGradient>
</defs>
</svg>
