<svg width="56" height="56" viewBox="0 0 56 56" fill="none" xmlns="http://www.w3.org/2000/svg">
<g id="Binoculars">
<path id="Vector" opacity="0.2" d="M22.75 36.75C22.75 38.4806 22.2368 40.1723 21.2754 41.6112C20.3139 43.0502 18.9473 44.1717 17.3485 44.8339C15.7496 45.4962 13.9903 45.6695 12.293 45.3319C10.5956 44.9942 9.03653 44.1609 7.81282 42.9372C6.58911 41.7135 5.75575 40.1544 5.41813 38.457C5.08051 36.7597 5.25379 35.0004 5.91606 33.4015C6.57832 31.8027 7.69983 30.4361 9.13876 29.4746C10.5777 28.5132 12.2694 28 14 28C16.3206 28 18.5462 28.9219 20.1872 30.5628C21.8281 32.2038 22.75 34.4294 22.75 36.75ZM42 28C40.2694 28 38.5777 28.5132 37.1388 29.4746C35.6998 30.4361 34.5783 31.8027 33.9161 33.4015C33.2538 35.0004 33.0805 36.7597 33.4181 38.457C33.7558 40.1544 34.5891 41.7135 35.8128 42.9372C37.0365 44.1609 38.5956 44.9942 40.293 45.3319C41.9903 45.6695 43.7496 45.4962 45.3485 44.8339C46.9473 44.1717 48.3139 43.0502 49.2754 41.6112C50.2368 40.1723 50.75 38.4806 50.75 36.75C50.75 34.4294 49.8281 32.2038 48.1872 30.5628C46.5462 28.9219 44.3206 28 42 28Z" fill="black"/>
<path id="Vector_2" d="M51.8875 33.2224C51.7414 32.8146 51.5697 32.4164 51.3734 32.0302L42.2756 11.3321C42.1896 11.1328 42.0663 10.9516 41.9125 10.7984C41.2625 10.1482 40.4907 9.63242 39.6413 9.28054C38.792 8.92865 37.8816 8.74754 36.9622 8.74754C36.0428 8.74754 35.1324 8.92865 34.283 9.28054C33.4337 9.63242 32.6619 10.1482 32.0119 10.7984C31.6848 11.1258 31.5008 11.5694 31.5 12.0321V17.5009H24.5V12.0321C24.5002 11.8022 24.4551 11.5746 24.3672 11.3621C24.2794 11.1497 24.1506 10.9566 23.9881 10.794C23.3381 10.1438 22.5664 9.62804 21.717 9.27616C20.8676 8.92428 19.9572 8.74316 19.0378 8.74316C18.1184 8.74316 17.208 8.92428 16.3587 9.27616C15.5093 9.62804 14.7375 10.1438 14.0875 10.794C13.9337 10.9472 13.8104 11.1284 13.7244 11.3277L4.62656 32.0259C4.43032 32.4121 4.25862 32.8102 4.1125 33.218C3.59734 34.6595 3.40357 36.1961 3.54476 37.7203C3.68595 39.2445 4.15868 40.7194 4.92985 42.0416C5.70101 43.3639 6.75195 44.5016 8.00905 45.3749C9.26615 46.2483 10.699 46.8363 12.2072 47.0976C13.7155 47.359 15.2626 47.2874 16.7403 46.8879C18.218 46.4884 19.5904 45.7707 20.7615 44.785C21.9326 43.7993 22.874 42.5694 23.5198 41.1816C24.1656 39.7938 24.5001 38.2816 24.5 36.7509V21.0009H31.5V36.7509C31.4992 38.2818 31.8332 39.7943 32.4786 41.1825C33.1239 42.5707 34.0651 43.801 35.236 44.7872C36.4069 45.7734 37.7793 46.4916 39.2571 46.8916C40.7348 47.2915 42.2821 47.3634 43.7906 47.1024C45.2991 46.8413 46.7322 46.2535 47.9896 45.3802C49.247 44.507 50.2982 43.3693 51.0696 42.0469C51.841 40.7246 52.3139 39.2496 52.4552 37.7252C52.5965 36.2008 52.4027 34.664 51.8875 33.2224ZM16.7803 13.0712C17.3638 12.5799 18.0917 12.2927 18.8534 12.2532C19.6151 12.2137 20.3689 12.4241 21 12.8524V28.9327C19.6337 27.7059 17.9689 26.8596 16.1726 26.4788C14.3762 26.0979 12.5113 26.1958 10.7647 26.7627L16.7803 13.0712ZM14 43.7509C12.6155 43.7509 11.2622 43.3403 10.111 42.5711C8.95987 41.802 8.06266 40.7087 7.53284 39.4296C7.00303 38.1506 6.86441 36.7431 7.1345 35.3852C7.4046 34.0274 8.07129 32.7801 9.05025 31.8011C10.0292 30.8221 11.2765 30.1555 12.6344 29.8854C13.9922 29.6153 15.3997 29.7539 16.6788 30.2837C17.9579 30.8135 19.0511 31.7107 19.8203 32.8619C20.5895 34.013 21 35.3664 21 36.7509C21 38.6074 20.2625 40.3878 18.9497 41.7006C17.637 43.0134 15.8565 43.7509 14 43.7509ZM35 12.8502C35.6311 12.4219 36.3849 12.2115 37.1466 12.251C37.9083 12.2905 38.6362 12.5777 39.2197 13.069L45.2353 26.7584C43.4885 26.1918 41.6235 26.0942 39.8271 26.4754C38.0307 26.8567 36.3661 27.7033 35 28.9305V12.8502ZM42 43.7509C40.6155 43.7509 39.2622 43.3403 38.111 42.5711C36.9599 41.802 36.0627 40.7087 35.5328 39.4296C35.003 38.1506 34.8644 36.7431 35.1345 35.3852C35.4046 34.0274 36.0713 32.7801 37.0503 31.8011C38.0292 30.8221 39.2765 30.1555 40.6344 29.8854C41.9922 29.6153 43.3997 29.7539 44.6788 30.2837C45.9579 30.8135 47.0511 31.7107 47.8203 32.8619C48.5895 34.013 49 35.3664 49 36.7509C49 38.6074 48.2625 40.3878 46.9497 41.7006C45.637 43.0134 43.8565 43.7509 42 43.7509Z" fill="url(#paint0_linear_3464_2907)"/>
</g>
<defs>
<linearGradient id="paint0_linear_3464_2907" x1="-1154.34" y1="51.3587" x2="-1152.89" y2="-24.4764" gradientUnits="userSpaceOnUse">
<stop stop-color="#E8DF38"/>
<stop offset="1" stop-color="#41D882"/>
</linearGradient>
</defs>
</svg>
