<svg width="52" height="40" viewBox="0 0 52 40" fill="none" xmlns="http://www.w3.org/2000/svg">
<path d="M36.3825 28.2381L32.5165 24.2241V37.5C32.5165 37.9641 32.3389 38.4092 32.0226 38.7374C31.7064 39.0656 31.2774 39.25 30.8302 39.25C30.3829 39.25 29.954 39.0656 29.6377 38.7374C29.3215 38.4092 29.1438 37.9641 29.1438 37.5V24.2241L25.2778 28.2381C25.1211 28.4007 24.9351 28.5297 24.7304 28.6177C24.5257 28.7057 24.3063 28.751 24.0847 28.751C23.8631 28.751 23.6437 28.7057 23.439 28.6177C23.2343 28.5297 23.0483 28.4007 22.8916 28.2381C22.7349 28.0755 22.6107 27.8825 22.5259 27.6701C22.4411 27.4576 22.3974 27.2299 22.3974 27C22.3974 26.7701 22.4411 26.5424 22.5259 26.3299C22.6107 26.1175 22.7349 25.9245 22.8916 25.7619L29.6371 18.7619C29.7937 18.5992 29.9797 18.4701 30.1844 18.382C30.3891 18.294 30.6086 18.2486 30.8302 18.2486C31.0518 18.2486 31.2712 18.294 31.476 18.382C31.6807 18.4701 31.8667 18.5992 32.0233 18.7619L38.7687 25.7619C38.9254 25.9245 39.0497 26.1175 39.1345 26.3299C39.2193 26.5424 39.2629 26.7701 39.2629 27C39.2629 27.2299 39.2193 27.4576 39.1345 27.6701C39.0497 27.8825 38.9254 28.0755 38.7687 28.2381C38.6121 28.4007 38.4261 28.5297 38.2213 28.6177C38.0166 28.7057 37.7972 28.751 37.5756 28.751C37.3541 28.751 37.1346 28.7057 36.9299 28.6177C36.7252 28.5297 36.5392 28.4007 36.3825 28.2381ZM32.5165 0.75C29.0712 0.752697 25.6946 1.75016 22.7644 3.6308C19.8342 5.51143 17.466 8.20106 15.9248 11.3988C14.0899 11.1189 12.2191 11.2347 10.4292 11.7389C8.63937 12.2431 6.96892 13.1249 5.52219 14.3291C4.07545 15.5333 2.88353 17.0342 2.02085 18.7379C1.15817 20.4417 0.643271 22.3117 0.508305 24.2312C0.37334 26.1507 0.621209 28.0785 1.23643 29.8941C1.85165 31.7098 2.82102 33.3743 4.08397 34.7837C5.34693 36.1931 6.87636 37.3171 8.57674 38.0856C10.2771 38.854 12.1119 39.2504 13.9665 39.25H22.3984C22.8456 39.25 23.2745 39.0656 23.5908 38.7374C23.9071 38.4092 24.0847 37.9641 24.0847 37.5C24.0847 37.0359 23.9071 36.5908 23.5908 36.2626C23.2745 35.9344 22.8456 35.75 22.3984 35.75H13.9665C11.283 35.75 8.70944 34.6438 6.81191 32.6746C4.91438 30.7055 3.84836 28.0348 3.84836 25.25C3.84836 22.4652 4.91438 19.7945 6.81191 17.8254C8.70944 15.8562 11.283 14.75 13.9665 14.75C14.1984 14.75 14.4303 14.75 14.6601 14.7763C14.1991 16.4762 13.9657 18.234 13.9665 20C13.9665 20.4641 14.1442 20.9093 14.4605 21.2374C14.7767 21.5656 15.2057 21.75 15.6529 21.75C16.1002 21.75 16.5291 21.5656 16.8453 21.2374C17.1616 20.9093 17.3393 20.4641 17.3393 20C17.3397 17.1605 18.0798 14.374 19.4813 11.9353C20.8828 9.49655 22.8935 7.49635 25.3007 6.14636C27.7078 4.79636 30.4219 4.14678 33.1557 4.26636C35.8895 4.38594 38.5413 5.27023 40.8304 6.82564C43.1196 8.38106 44.961 10.5498 46.1597 13.1022C47.3585 15.6547 47.87 18.496 47.6402 21.3254C47.4103 24.1548 46.4477 26.8671 44.8541 29.1753C43.2605 31.4835 41.0952 33.3017 38.5875 34.4375C38.2314 34.5977 37.9394 34.8804 37.7609 35.238C37.5823 35.5957 37.5281 36.0062 37.6073 36.4005C37.6866 36.7948 37.8945 37.1486 38.1959 37.4023C38.4974 37.656 38.8739 37.794 39.262 37.7931C39.4944 37.7929 39.7242 37.7423 39.9365 37.6444C43.8433 35.8759 47.044 32.7652 49.0003 28.8356C50.9567 24.9059 51.5493 20.397 50.6785 16.0672C49.8077 11.7374 47.5267 7.85084 44.219 5.06126C40.9113 2.27167 36.7788 0.749232 32.5165 0.75Z" fill="black"/>
<path d="M36.3825 28.2381L32.5165 24.2241V37.5C32.5165 37.9641 32.3389 38.4092 32.0226 38.7374C31.7064 39.0656 31.2774 39.25 30.8302 39.25C30.3829 39.25 29.954 39.0656 29.6377 38.7374C29.3215 38.4092 29.1438 37.9641 29.1438 37.5V24.2241L25.2778 28.2381C25.1211 28.4007 24.9351 28.5297 24.7304 28.6177C24.5257 28.7057 24.3063 28.751 24.0847 28.751C23.8631 28.751 23.6437 28.7057 23.439 28.6177C23.2343 28.5297 23.0483 28.4007 22.8916 28.2381C22.7349 28.0755 22.6107 27.8825 22.5259 27.6701C22.4411 27.4576 22.3974 27.2299 22.3974 27C22.3974 26.7701 22.4411 26.5424 22.5259 26.3299C22.6107 26.1175 22.7349 25.9245 22.8916 25.7619L29.6371 18.7619C29.7937 18.5992 29.9797 18.4701 30.1844 18.382C30.3891 18.294 30.6086 18.2486 30.8302 18.2486C31.0518 18.2486 31.2712 18.294 31.476 18.382C31.6807 18.4701 31.8667 18.5992 32.0233 18.7619L38.7687 25.7619C38.9254 25.9245 39.0497 26.1175 39.1345 26.3299C39.2193 26.5424 39.2629 26.7701 39.2629 27C39.2629 27.2299 39.2193 27.4576 39.1345 27.6701C39.0497 27.8825 38.9254 28.0755 38.7687 28.2381C38.6121 28.4007 38.4261 28.5297 38.2213 28.6177C38.0166 28.7057 37.7972 28.751 37.5756 28.751C37.3541 28.751 37.1346 28.7057 36.9299 28.6177C36.7252 28.5297 36.5392 28.4007 36.3825 28.2381ZM32.5165 0.75C29.0712 0.752697 25.6946 1.75016 22.7644 3.6308C19.8342 5.51143 17.466 8.20106 15.9248 11.3988C14.0899 11.1189 12.2191 11.2347 10.4292 11.7389C8.63937 12.2431 6.96892 13.1249 5.52219 14.3291C4.07545 15.5333 2.88353 17.0342 2.02085 18.7379C1.15817 20.4417 0.643271 22.3117 0.508305 24.2312C0.37334 26.1507 0.621209 28.0785 1.23643 29.8941C1.85165 31.7098 2.82102 33.3743 4.08397 34.7837C5.34693 36.1931 6.87636 37.3171 8.57674 38.0856C10.2771 38.854 12.1119 39.2504 13.9665 39.25H22.3984C22.8456 39.25 23.2745 39.0656 23.5908 38.7374C23.9071 38.4092 24.0847 37.9641 24.0847 37.5C24.0847 37.0359 23.9071 36.5908 23.5908 36.2626C23.2745 35.9344 22.8456 35.75 22.3984 35.75H13.9665C11.283 35.75 8.70944 34.6438 6.81191 32.6746C4.91438 30.7055 3.84836 28.0348 3.84836 25.25C3.84836 22.4652 4.91438 19.7945 6.81191 17.8254C8.70944 15.8562 11.283 14.75 13.9665 14.75C14.1984 14.75 14.4303 14.75 14.6601 14.7763C14.1991 16.4762 13.9657 18.234 13.9665 20C13.9665 20.4641 14.1442 20.9093 14.4605 21.2374C14.7767 21.5656 15.2057 21.75 15.6529 21.75C16.1002 21.75 16.5291 21.5656 16.8453 21.2374C17.1616 20.9093 17.3393 20.4641 17.3393 20C17.3397 17.1605 18.0798 14.374 19.4813 11.9353C20.8828 9.49655 22.8935 7.49635 25.3007 6.14636C27.7078 4.79636 30.4219 4.14678 33.1557 4.26636C35.8895 4.38594 38.5413 5.27023 40.8304 6.82564C43.1196 8.38106 44.961 10.5498 46.1597 13.1022C47.3585 15.6547 47.87 18.496 47.6402 21.3254C47.4103 24.1548 46.4477 26.8671 44.8541 29.1753C43.2605 31.4835 41.0952 33.3017 38.5875 34.4375C38.2314 34.5977 37.9394 34.8804 37.7609 35.238C37.5823 35.5957 37.5281 36.0062 37.6073 36.4005C37.6866 36.7948 37.8945 37.1486 38.1959 37.4023C38.4974 37.656 38.8739 37.794 39.262 37.7931C39.4944 37.7929 39.7242 37.7423 39.9365 37.6444C43.8433 35.8759 47.044 32.7652 49.0003 28.8356C50.9567 24.9059 51.5493 20.397 50.6785 16.0672C49.8077 11.7374 47.5267 7.85084 44.219 5.06126C40.9113 2.27167 36.7788 0.749232 32.5165 0.75Z" fill="url(#paint0_linear_3301_18841)"/>
<defs>
<linearGradient id="paint0_linear_3301_18841" x1="-1195.11" y1="43.3511" x2="-1193.71" y2="-32.46" gradientUnits="userSpaceOnUse">
<stop stop-color="#E8DF38"/>
<stop offset="1" stop-color="#41D882"/>
</linearGradient>
</defs>
</svg>
