<svg width="55" height="56" viewBox="0 0 55 56" fill="none" xmlns="http://www.w3.org/2000/svg">
<g opacity="0.2">
<path d="M50.9 27.9997C50.9 32.641 49.1233 37.0921 45.9608 40.374C42.7982 43.6559 38.5089 45.4997 34.0364 45.4997H15.4864C13.8126 45.4975 12.1584 45.126 10.6335 44.4098C9.1086 43.6936 7.74792 42.649 6.64174 41.3454C5.53556 40.0419 4.70917 38.5091 4.2174 36.8488C3.72563 35.1885 3.57973 33.4386 3.78937 31.7153C3.99902 29.992 4.55943 28.3347 5.4334 26.8533C6.30738 25.372 7.47494 24.1004 8.85861 23.123C10.2423 22.1456 11.8104 21.4848 13.459 21.1843C15.1076 20.8839 16.7989 20.9507 18.4207 21.3803V21.4022C19.8963 17.646 22.5836 14.5385 26.0228 12.6109C29.4621 10.6834 33.4398 10.0555 37.2759 10.8347C41.1119 11.6139 44.5679 13.7518 47.053 16.8828C49.5381 20.0137 50.898 23.9433 50.9 27.9997Z" fill="black"/>
<path d="M50.9 27.9997C50.9 32.641 49.1233 37.0921 45.9608 40.374C42.7982 43.6559 38.5089 45.4997 34.0364 45.4997H15.4864C13.8126 45.4975 12.1584 45.126 10.6335 44.4098C9.1086 43.6936 7.74792 42.649 6.64174 41.3454C5.53556 40.0419 4.70917 38.5091 4.2174 36.8488C3.72563 35.1885 3.57973 33.4386 3.78937 31.7153C3.99902 29.992 4.55943 28.3347 5.4334 26.8533C6.30738 25.372 7.47494 24.1004 8.85861 23.123C10.2423 22.1456 11.8104 21.4848 13.459 21.1843C15.1076 20.8839 16.7989 20.9507 18.4207 21.3803V21.4022C19.8963 17.646 22.5836 14.5385 26.0228 12.6109C29.4621 10.6834 33.4398 10.0555 37.2759 10.8347C41.1119 11.6139 44.5679 13.7518 47.053 16.8828C49.5381 20.0137 50.898 23.9433 50.9 27.9997Z" fill="url(#paint0_linear_3301_18835)"/>
</g>
<path d="M52.5863 28.0004C52.5969 32.168 51.294 36.2248 48.8763 39.5526C48.7432 39.7364 48.5764 39.8913 48.3856 40.0083C48.1948 40.1252 47.9837 40.2021 47.7642 40.2344C47.5448 40.2667 47.3214 40.2538 47.1068 40.1965C46.8921 40.1392 46.6905 40.0386 46.5133 39.9004C46.3361 39.7622 46.1869 39.5892 46.0742 39.3912C45.9615 39.1932 45.8874 38.974 45.8563 38.7463C45.8252 38.5186 45.8376 38.2868 45.8928 38.0641C45.948 37.8413 46.045 37.6321 46.1781 37.4482C48.1571 34.7275 49.2233 31.4092 49.2136 28.0004C49.2136 23.8232 47.6146 19.8172 44.7683 16.8635C41.922 13.9098 38.0616 12.2504 34.0363 12.2504C30.0111 12.2504 26.1507 13.9098 23.3044 16.8635C20.4581 19.8172 18.859 23.8232 18.859 28.0004C18.859 28.4645 18.6814 28.9096 18.3651 29.2378C18.0489 29.566 17.6199 29.7504 17.1727 29.7504C16.7254 29.7504 16.2965 29.566 15.9802 29.2378C15.664 28.9096 15.4863 28.4645 15.4863 28.0004C15.4855 26.2344 15.7189 24.4766 16.1798 22.7766C15.9501 22.7504 15.7182 22.7504 15.4863 22.7504C12.8028 22.7504 10.2292 23.8566 8.33168 25.8258C6.43416 27.7949 5.36814 30.4656 5.36814 33.2504C5.36814 36.0352 6.43416 38.7059 8.33168 40.675C10.2292 42.6442 12.8028 43.7504 15.4863 43.7504H20.5454C20.9927 43.7504 21.4216 43.9348 21.7378 44.263C22.0541 44.5911 22.2318 45.0363 22.2318 45.5004C22.2318 45.9645 22.0541 46.4096 21.7378 46.7378C21.4216 47.066 20.9927 47.2504 20.5454 47.2504H15.4863C13.6317 47.2508 11.7969 46.8545 10.0965 46.086C8.39614 45.3175 6.86671 44.1935 5.60375 42.7841C4.34079 41.3747 3.37143 39.7102 2.75621 37.8945C2.14098 36.0789 1.89312 34.1511 2.02808 32.2316C2.16305 30.3121 2.67795 28.4421 3.54063 26.7383C4.4033 25.0346 5.59523 23.5337 7.04196 22.3295C8.48869 21.1253 10.1592 20.2435 11.949 19.7393C13.7389 19.2351 15.6097 19.1193 17.4446 19.3991C19.3131 15.5211 22.3885 12.4111 26.1726 10.5731C29.9568 8.73506 34.2281 8.27658 38.2947 9.27191C42.3612 10.2672 45.9849 12.6581 48.5788 16.0572C51.1726 19.4563 52.5847 23.6646 52.5863 28.0004ZM37.9023 37.2623L34.0363 41.2763V28.0004C34.0363 27.5363 33.8587 27.0912 33.5424 26.763C33.2261 26.4348 32.7972 26.2504 32.35 26.2504C31.9027 26.2504 31.4738 26.4348 31.1575 26.763C30.8413 27.0912 30.6636 27.5363 30.6636 28.0004V41.2763L26.7976 37.2623C26.4812 36.9339 26.052 36.7494 25.6045 36.7494C25.157 36.7494 24.7278 36.9339 24.4114 37.2623C24.095 37.5906 23.9172 38.036 23.9172 38.5004C23.9172 38.9648 24.095 39.4102 24.4114 39.7385L31.1569 46.7385C31.3135 46.9012 31.4995 47.0303 31.7042 47.1184C31.9089 47.2064 32.1283 47.2518 32.35 47.2518C32.5716 47.2518 32.791 47.2064 32.9957 47.1184C33.2005 47.0303 33.3864 46.9012 33.5431 46.7385L40.2885 39.7385C40.6049 39.4102 40.7827 38.9648 40.7827 38.5004C40.7827 38.036 40.6049 37.5906 40.2885 37.2623C39.9721 36.9339 39.5429 36.7494 39.0954 36.7494C38.6479 36.7494 38.2187 36.9339 37.9023 37.2623Z" fill="black"/>
<path d="M52.5863 28.0004C52.5969 32.168 51.294 36.2248 48.8763 39.5526C48.7432 39.7364 48.5764 39.8913 48.3856 40.0083C48.1948 40.1252 47.9837 40.2021 47.7642 40.2344C47.5448 40.2667 47.3214 40.2538 47.1068 40.1965C46.8921 40.1392 46.6905 40.0386 46.5133 39.9004C46.3361 39.7622 46.1869 39.5892 46.0742 39.3912C45.9615 39.1932 45.8874 38.974 45.8563 38.7463C45.8252 38.5186 45.8376 38.2868 45.8928 38.0641C45.948 37.8413 46.045 37.6321 46.1781 37.4482C48.1571 34.7275 49.2233 31.4092 49.2136 28.0004C49.2136 23.8232 47.6146 19.8172 44.7683 16.8635C41.922 13.9098 38.0616 12.2504 34.0363 12.2504C30.0111 12.2504 26.1507 13.9098 23.3044 16.8635C20.4581 19.8172 18.859 23.8232 18.859 28.0004C18.859 28.4645 18.6814 28.9096 18.3651 29.2378C18.0489 29.566 17.6199 29.7504 17.1727 29.7504C16.7254 29.7504 16.2965 29.566 15.9802 29.2378C15.664 28.9096 15.4863 28.4645 15.4863 28.0004C15.4855 26.2344 15.7189 24.4766 16.1798 22.7766C15.9501 22.7504 15.7182 22.7504 15.4863 22.7504C12.8028 22.7504 10.2292 23.8566 8.33168 25.8258C6.43416 27.7949 5.36814 30.4656 5.36814 33.2504C5.36814 36.0352 6.43416 38.7059 8.33168 40.675C10.2292 42.6442 12.8028 43.7504 15.4863 43.7504H20.5454C20.9927 43.7504 21.4216 43.9348 21.7378 44.263C22.0541 44.5911 22.2318 45.0363 22.2318 45.5004C22.2318 45.9645 22.0541 46.4096 21.7378 46.7378C21.4216 47.066 20.9927 47.2504 20.5454 47.2504H15.4863C13.6317 47.2508 11.7969 46.8545 10.0965 46.086C8.39614 45.3175 6.86671 44.1935 5.60375 42.7841C4.34079 41.3747 3.37143 39.7102 2.75621 37.8945C2.14098 36.0789 1.89312 34.1511 2.02808 32.2316C2.16305 30.3121 2.67795 28.4421 3.54063 26.7383C4.4033 25.0346 5.59523 23.5337 7.04196 22.3295C8.48869 21.1253 10.1592 20.2435 11.949 19.7393C13.7389 19.2351 15.6097 19.1193 17.4446 19.3991C19.3131 15.5211 22.3885 12.4111 26.1726 10.5731C29.9568 8.73506 34.2281 8.27658 38.2947 9.27191C42.3612 10.2672 45.9849 12.6581 48.5788 16.0572C51.1726 19.4563 52.5847 23.6646 52.5863 28.0004ZM37.9023 37.2623L34.0363 41.2763V28.0004C34.0363 27.5363 33.8587 27.0912 33.5424 26.763C33.2261 26.4348 32.7972 26.2504 32.35 26.2504C31.9027 26.2504 31.4738 26.4348 31.1575 26.763C30.8413 27.0912 30.6636 27.5363 30.6636 28.0004V41.2763L26.7976 37.2623C26.4812 36.9339 26.052 36.7494 25.6045 36.7494C25.157 36.7494 24.7278 36.9339 24.4114 37.2623C24.095 37.5906 23.9172 38.036 23.9172 38.5004C23.9172 38.9648 24.095 39.4102 24.4114 39.7385L31.1569 46.7385C31.3135 46.9012 31.4995 47.0303 31.7042 47.1184C31.9089 47.2064 32.1283 47.2518 32.35 47.2518C32.5716 47.2518 32.791 47.2064 32.9957 47.1184C33.2005 47.0303 33.3864 46.9012 33.5431 46.7385L40.2885 39.7385C40.6049 39.4102 40.7827 38.9648 40.7827 38.5004C40.7827 38.036 40.6049 37.5906 40.2885 37.2623C39.9721 36.9339 39.5429 36.7494 39.0954 36.7494C38.6479 36.7494 38.2187 36.9339 37.9023 37.2623Z" fill="url(#paint1_linear_3301_18835)"/>
<defs>
<linearGradient id="paint0_linear_3301_18835" x1="-1111.7" y1="49.227" x2="-1110.46" y2="-19.6755" gradientUnits="userSpaceOnUse">
<stop stop-color="#E8DF38"/>
<stop offset="1" stop-color="#41D882"/>
</linearGradient>
<linearGradient id="paint1_linear_3301_18835" x1="-1193.52" y1="51.3522" x2="-1192.12" y2="-24.447" gradientUnits="userSpaceOnUse">
<stop stop-color="#E8DF38"/>
<stop offset="1" stop-color="#41D882"/>
</linearGradient>
</defs>
</svg>
