<svg width="46" height="40" viewBox="0 0 46 40" fill="none" xmlns="http://www.w3.org/2000/svg">
<path d="M42.25 0.75H3.75C2.82174 0.75 1.9315 1.11875 1.27513 1.77513C0.618749 2.4315 0.25 3.32174 0.25 4.25V37.5C0.250159 37.7983 0.326551 38.0915 0.471921 38.352C0.617292 38.6124 0.826818 38.8314 1.08061 38.9881C1.33439 39.1448 1.62402 39.234 1.92199 39.2473C2.21996 39.2606 2.51639 39.1975 2.78313 39.0641L9 35.9556L15.2169 39.0641C15.46 39.1857 15.7281 39.2491 16 39.2491C16.2719 39.2491 16.54 39.1857 16.7831 39.0641L23 35.9556L29.2169 39.0641C29.46 39.1857 29.7281 39.2491 30 39.2491C30.2719 39.2491 30.54 39.1857 30.7831 39.0641L37 35.9556L43.2169 39.0641C43.4836 39.1975 43.78 39.2606 44.078 39.2473C44.376 39.234 44.6656 39.1448 44.9194 38.9881C45.1732 38.8314 45.3827 38.6124 45.5281 38.352C45.6735 38.0915 45.7498 37.7983 45.75 37.5V4.25C45.75 3.32174 45.3812 2.4315 44.7249 1.77513C44.0685 1.11875 43.1783 0.75 42.25 0.75ZM42.25 34.6694L37.7831 32.4338C37.54 32.3121 37.2719 32.2487 37 32.2487C36.7281 32.2487 36.46 32.3121 36.2169 32.4338L30 35.5444L23.7831 32.4338C23.54 32.3121 23.2719 32.2487 23 32.2487C22.7281 32.2487 22.46 32.3121 22.2169 32.4338L16 35.5444L9.78312 32.4338C9.54 32.3121 9.27187 32.2487 9 32.2487C8.72813 32.2487 8.46 32.3121 8.21687 32.4338L3.75 34.6694V4.25H42.25V34.6694ZM16.5119 22.2619L20.5259 18.25L16.5119 14.2381C16.1835 13.9098 15.999 13.4644 15.999 13C15.999 12.5356 16.1835 12.0902 16.5119 11.7619C16.8402 11.4335 17.2856 11.249 17.75 11.249C18.2144 11.249 18.6598 11.4335 18.9881 11.7619L23 15.7759L27.0119 11.7619C27.1745 11.5993 27.3675 11.4703 27.5799 11.3823C27.7924 11.2943 28.0201 11.249 28.25 11.249C28.4799 11.249 28.7076 11.2943 28.9201 11.3823C29.1325 11.4703 29.3255 11.5993 29.4881 11.7619C29.6507 11.9245 29.7797 12.1175 29.8677 12.3299C29.9557 12.5424 30.001 12.7701 30.001 13C30.001 13.2299 29.9557 13.4576 29.8677 13.6701C29.7797 13.8825 29.6507 14.0755 29.4881 14.2381L25.4741 18.25L29.4881 22.2619C29.6507 22.4245 29.7797 22.6175 29.8677 22.8299C29.9557 23.0424 30.001 23.2701 30.001 23.5C30.001 23.7299 29.9557 23.9576 29.8677 24.1701C29.7797 24.3825 29.6507 24.5755 29.4881 24.7381C29.3255 24.9007 29.1325 25.0297 28.9201 25.1177C28.7076 25.2057 28.4799 25.251 28.25 25.251C28.0201 25.251 27.7924 25.2057 27.5799 25.1177C27.3675 25.0297 27.1745 24.9007 27.0119 24.7381L23 20.7241L18.9881 24.7381C18.8255 24.9007 18.6325 25.0297 18.4201 25.1177C18.2076 25.2057 17.9799 25.251 17.75 25.251C17.5201 25.251 17.2924 25.2057 17.0799 25.1177C16.8675 25.0297 16.6745 24.9007 16.5119 24.7381C16.3493 24.5755 16.2203 24.3825 16.1323 24.1701C16.0443 23.9576 15.999 23.7299 15.999 23.5C15.999 23.2701 16.0443 23.0424 16.1323 22.8299C16.2203 22.6175 16.3493 22.4245 16.5119 22.2619Z" fill="black"/>
<path d="M42.25 0.75H3.75C2.82174 0.75 1.9315 1.11875 1.27513 1.77513C0.618749 2.4315 0.25 3.32174 0.25 4.25V37.5C0.250159 37.7983 0.326551 38.0915 0.471921 38.352C0.617292 38.6124 0.826818 38.8314 1.08061 38.9881C1.33439 39.1448 1.62402 39.234 1.92199 39.2473C2.21996 39.2606 2.51639 39.1975 2.78313 39.0641L9 35.9556L15.2169 39.0641C15.46 39.1857 15.7281 39.2491 16 39.2491C16.2719 39.2491 16.54 39.1857 16.7831 39.0641L23 35.9556L29.2169 39.0641C29.46 39.1857 29.7281 39.2491 30 39.2491C30.2719 39.2491 30.54 39.1857 30.7831 39.0641L37 35.9556L43.2169 39.0641C43.4836 39.1975 43.78 39.2606 44.078 39.2473C44.376 39.234 44.6656 39.1448 44.9194 38.9881C45.1732 38.8314 45.3827 38.6124 45.5281 38.352C45.6735 38.0915 45.7498 37.7983 45.75 37.5V4.25C45.75 3.32174 45.3812 2.4315 44.7249 1.77513C44.0685 1.11875 43.1783 0.75 42.25 0.75ZM42.25 34.6694L37.7831 32.4338C37.54 32.3121 37.2719 32.2487 37 32.2487C36.7281 32.2487 36.46 32.3121 36.2169 32.4338L30 35.5444L23.7831 32.4338C23.54 32.3121 23.2719 32.2487 23 32.2487C22.7281 32.2487 22.46 32.3121 22.2169 32.4338L16 35.5444L9.78312 32.4338C9.54 32.3121 9.27187 32.2487 9 32.2487C8.72813 32.2487 8.46 32.3121 8.21687 32.4338L3.75 34.6694V4.25H42.25V34.6694ZM16.5119 22.2619L20.5259 18.25L16.5119 14.2381C16.1835 13.9098 15.999 13.4644 15.999 13C15.999 12.5356 16.1835 12.0902 16.5119 11.7619C16.8402 11.4335 17.2856 11.249 17.75 11.249C18.2144 11.249 18.6598 11.4335 18.9881 11.7619L23 15.7759L27.0119 11.7619C27.1745 11.5993 27.3675 11.4703 27.5799 11.3823C27.7924 11.2943 28.0201 11.249 28.25 11.249C28.4799 11.249 28.7076 11.2943 28.9201 11.3823C29.1325 11.4703 29.3255 11.5993 29.4881 11.7619C29.6507 11.9245 29.7797 12.1175 29.8677 12.3299C29.9557 12.5424 30.001 12.7701 30.001 13C30.001 13.2299 29.9557 13.4576 29.8677 13.6701C29.7797 13.8825 29.6507 14.0755 29.4881 14.2381L25.4741 18.25L29.4881 22.2619C29.6507 22.4245 29.7797 22.6175 29.8677 22.8299C29.9557 23.0424 30.001 23.2701 30.001 23.5C30.001 23.7299 29.9557 23.9576 29.8677 24.1701C29.7797 24.3825 29.6507 24.5755 29.4881 24.7381C29.3255 24.9007 29.1325 25.0297 28.9201 25.1177C28.7076 25.2057 28.4799 25.251 28.25 25.251C28.0201 25.251 27.7924 25.2057 27.5799 25.1177C27.3675 25.0297 27.1745 24.9007 27.0119 24.7381L23 20.7241L18.9881 24.7381C18.8255 24.9007 18.6325 25.0297 18.4201 25.1177C18.2076 25.2057 17.9799 25.251 17.75 25.251C17.5201 25.251 17.2924 25.2057 17.0799 25.1177C16.8675 25.0297 16.6745 24.9007 16.5119 24.7381C16.3493 24.5755 16.2203 24.3825 16.1323 24.1701C16.0443 23.9576 15.999 23.7299 15.999 23.5C15.999 23.2701 16.0443 23.0424 16.1323 22.8299C16.2203 22.6175 16.3493 22.4245 16.5119 22.2619Z" fill="url(#paint0_linear_3301_18848)"/>
<defs>
<linearGradient id="paint0_linear_3301_18848" x1="-1074.89" y1="43.3501" x2="-1073.33" y2="-32.4531" gradientUnits="userSpaceOnUse">
<stop stop-color="#E8DF38"/>
<stop offset="1" stop-color="#41D882"/>
</linearGradient>
</defs>
</svg>
