<svg width="18" height="20" viewBox="0 0 18 20" fill="none" xmlns="http://www.w3.org/2000/svg">
<path d="M17.0163 4.0475L13.2663 0.2975C13.1966 0.227874 13.1139 0.172664 13.0229 0.135023C12.9318 0.0973819 12.8342 0.0780478 12.7357 0.0781252H5.23572C4.83789 0.0781252 4.45636 0.23616 4.17506 0.517465C3.89375 0.79877 3.73572 1.1803 3.73572 1.57813V3.07813H2.23572C1.83789 3.07813 1.45636 3.23616 1.17506 3.51747C0.893753 3.79877 0.735718 4.1803 0.735718 4.57813V18.0781C0.735718 18.476 0.893753 18.8575 1.17506 19.1388C1.45636 19.4201 1.83789 19.5781 2.23572 19.5781H12.7357C13.1335 19.5781 13.5151 19.4201 13.7964 19.1388C14.0777 18.8575 14.2357 18.476 14.2357 18.0781V16.5781H15.7357C16.1335 16.5781 16.5151 16.4201 16.7964 16.1388C17.0777 15.8575 17.2357 15.4759 17.2357 15.0781V4.57813C17.2358 4.4796 17.2165 4.38203 17.1788 4.29099C17.1412 4.19994 17.086 4.1172 17.0163 4.0475ZM12.7357 18.0781H2.23572V4.57813H9.42541L12.7357 7.88844V15.8131C12.7357 15.8187 12.7357 15.8234 12.7357 15.8281C12.7357 15.8328 12.7357 15.8375 12.7357 15.8431V18.0781ZM15.7357 15.0781H14.2357V7.57812C14.2358 7.4796 14.2165 7.38203 14.1788 7.29099C14.1412 7.19994 14.086 7.1172 14.0163 7.0475L10.2663 3.2975C10.1966 3.22787 10.1139 3.17266 10.0229 3.13502C9.93181 3.09738 9.83424 3.07805 9.73572 3.07813H5.23572V1.57813H12.4254L15.7357 4.88844V15.0781ZM10.4857 12.0781C10.4857 12.277 10.4067 12.4678 10.266 12.6085C10.1254 12.7491 9.93463 12.8281 9.73572 12.8281H5.23572C5.03681 12.8281 4.84604 12.7491 4.70539 12.6085C4.56474 12.4678 4.48572 12.277 4.48572 12.0781C4.48572 11.8792 4.56474 11.6884 4.70539 11.5478C4.84604 11.4071 5.03681 11.3281 5.23572 11.3281H9.73572C9.93463 11.3281 10.1254 11.4071 10.266 11.5478C10.4067 11.6884 10.4857 11.8792 10.4857 12.0781ZM10.4857 15.0781C10.4857 15.277 10.4067 15.4678 10.266 15.6085C10.1254 15.7491 9.93463 15.8281 9.73572 15.8281H5.23572C5.03681 15.8281 4.84604 15.7491 4.70539 15.6085C4.56474 15.4678 4.48572 15.277 4.48572 15.0781C4.48572 14.8792 4.56474 14.6884 4.70539 14.5478C4.84604 14.4071 5.03681 14.3281 5.23572 14.3281H9.73572C9.93463 14.3281 10.1254 14.4071 10.266 14.5478C10.4067 14.6884 10.4857 14.8792 10.4857 15.0781Z" fill="url(#paint0_linear_3301_19307)"/>
<defs>
<linearGradient id="paint0_linear_3301_19307" x1="-389.149" y1="21.6553" x2="-388.048" y2="-16.7241" gradientUnits="userSpaceOnUse">
<stop stop-color="#E8DF38"/>
<stop offset="1" stop-color="#41D882"/>
</linearGradient>
</defs>
</svg>
