<svg width="21" height="20" viewBox="0 0 21 20" fill="none" xmlns="http://www.w3.org/2000/svg">
<path d="M10.6571 0.192383C8.72874 0.192383 6.84368 0.76421 5.2403 1.83555C3.63692 2.9069 2.38724 4.42964 1.64928 6.21122C0.911329 7.9928 0.718246 9.9532 1.09445 11.8445C1.47066 13.7358 2.39926 15.4731 3.76282 16.8367C5.12638 18.2002 6.86366 19.1288 8.75498 19.505C10.6463 19.8812 12.6067 19.6882 14.3883 18.9502C16.1699 18.2123 17.6926 16.9626 18.7639 15.3592C19.8353 13.7558 20.4071 11.8708 20.4071 9.94238C20.4044 7.35736 19.3763 4.87899 17.5484 3.05111C15.7205 1.22322 13.2421 0.195113 10.6571 0.192383ZM10.6571 18.1924C9.02541 18.1924 7.43036 17.7085 6.07365 16.802C4.71695 15.8955 3.65953 14.607 3.0351 13.0995C2.41068 11.592 2.2473 9.93323 2.56563 8.33289C2.88396 6.73254 3.66969 5.26254 4.82348 4.10875C5.97726 2.95497 7.44727 2.16923 9.04761 1.8509C10.648 1.53258 12.3068 1.69595 13.8142 2.32038C15.3217 2.9448 16.6102 4.00222 17.5167 5.35893C18.4233 6.71563 18.9071 8.31069 18.9071 9.94238C18.9046 12.1297 18.0346 14.2266 16.488 15.7733C14.9414 17.3199 12.8444 18.1899 10.6571 18.1924ZM9.90711 10.6924V5.44238C9.90711 5.24347 9.98613 5.05271 10.1268 4.91205C10.2674 4.7714 10.4582 4.69238 10.6571 4.69238C10.856 4.69238 11.0468 4.7714 11.1874 4.91205C11.3281 5.05271 11.4071 5.24347 11.4071 5.44238V10.6924C11.4071 10.8913 11.3281 11.0821 11.1874 11.2227C11.0468 11.3634 10.856 11.4424 10.6571 11.4424C10.4582 11.4424 10.2674 11.3634 10.1268 11.2227C9.98613 11.0821 9.90711 10.8913 9.90711 10.6924ZM11.7821 14.0674C11.7821 14.2899 11.7161 14.5074 11.5925 14.6924C11.4689 14.8774 11.2932 15.0216 11.0876 15.1067C10.8821 15.1919 10.6559 15.2142 10.4376 15.1708C10.2194 15.1274 10.0189 15.0202 9.86161 14.8629C9.70428 14.7055 9.59713 14.5051 9.55373 14.2869C9.51032 14.0686 9.5326 13.8424 9.61774 13.6369C9.70289 13.4313 9.84709 13.2556 10.0321 13.132C10.2171 13.0084 10.4346 12.9424 10.6571 12.9424C10.9555 12.9424 11.2416 13.0609 11.4526 13.2719C11.6636 13.4829 11.7821 13.769 11.7821 14.0674Z" fill="#FF4040"/>
</svg>
