<svg width="29" height="29" viewBox="0 0 29 29" fill="none" xmlns="http://www.w3.org/2000/svg">
<g clip-path="url(#clip0_3689_822)">
<path opacity="0.2" d="M20.9821 14.9424C20.9821 16.1538 20.6228 17.338 19.9498 18.3453C19.2768 19.3525 18.3202 20.1376 17.201 20.6011C16.0818 21.0647 14.8503 21.186 13.6621 20.9497C12.474 20.7134 11.3826 20.13 10.526 19.2734C9.66943 18.4168 9.08608 17.3254 8.84975 16.1373C8.61341 14.9492 8.73471 13.7176 9.1983 12.5984C9.66188 11.4792 10.4469 10.5227 11.4542 9.84963C12.4614 9.17661 13.6456 8.81738 14.8571 8.81738C16.4815 8.81738 18.0394 9.46269 19.1881 10.6114C20.3367 11.76 20.9821 13.3179 20.9821 14.9424Z" fill="url(#paint0_linear_3689_822)"/>
<path d="M13.9821 5.31738V2.69238C13.9821 2.46032 14.0742 2.23776 14.2383 2.07366C14.4024 1.90957 14.625 1.81738 14.8571 1.81738C15.0891 1.81738 15.3117 1.90957 15.4758 2.07366C15.6399 2.23776 15.7321 2.46032 15.7321 2.69238V5.31738C15.7321 5.54945 15.6399 5.77201 15.4758 5.9361C15.3117 6.1002 15.0891 6.19238 14.8571 6.19238C14.625 6.19238 14.4024 6.1002 14.2383 5.9361C14.0742 5.77201 13.9821 5.54945 13.9821 5.31738ZM21.8571 14.9424C21.8571 16.3269 21.4465 17.6802 20.6773 18.8314C19.9082 19.9825 18.8149 20.8797 17.5358 21.4095C16.2568 21.9394 14.8493 22.078 13.4914 21.8079C12.1336 21.5378 10.8863 20.8711 9.90731 19.8921C8.92834 18.9132 8.26166 17.6659 7.99156 16.308C7.72146 14.9501 7.86009 13.5427 8.3899 12.2636C8.91971 10.9845 9.81692 9.89126 10.9681 9.12209C12.1192 8.35292 13.4726 7.94238 14.8571 7.94238C16.7129 7.94441 18.4922 8.68256 19.8046 9.99487C21.1169 11.3072 21.855 13.0865 21.8571 14.9424ZM20.1071 14.9424C20.1071 13.904 19.7991 12.889 19.2223 12.0256C18.6454 11.1623 17.8255 10.4894 16.8661 10.092C15.9068 9.69466 14.8512 9.59069 13.8328 9.79326C12.8144 9.99583 11.879 10.4958 11.1447 11.2301C10.4105 11.9643 9.91051 12.8998 9.70793 13.9182C9.50536 14.9366 9.60933 15.9922 10.0067 16.9515C10.404 17.9108 11.077 18.7307 11.9403 19.3076C12.8037 19.8845 13.8187 20.1924 14.8571 20.1924C16.249 20.1909 17.5835 19.6373 18.5678 18.6531C19.552 17.6688 20.1056 16.3343 20.1071 14.9424ZM7.23799 8.56145C7.40218 8.72563 7.62486 8.81787 7.85706 8.81787C8.08925 8.81787 8.31193 8.72563 8.47612 8.56145C8.6403 8.39726 8.73254 8.17458 8.73254 7.94238C8.73254 7.71019 8.6403 7.48751 8.47612 7.32332L6.72612 5.57332C6.56193 5.40913 6.33925 5.3169 6.10706 5.3169C5.87486 5.3169 5.65218 5.40913 5.48799 5.57332C5.32381 5.73751 5.23157 5.96019 5.23157 6.19238C5.23157 6.42458 5.32381 6.64726 5.48799 6.81144L7.23799 8.56145ZM7.23799 21.3233L5.48799 23.0733C5.32381 23.2375 5.23157 23.4602 5.23157 23.6924C5.23157 23.9246 5.32381 24.1473 5.48799 24.3114C5.65218 24.4756 5.87486 24.5679 6.10706 24.5679C6.33925 24.5679 6.56193 24.4756 6.72612 24.3114L8.47612 22.5614C8.55742 22.4801 8.6219 22.3836 8.6659 22.2774C8.7099 22.1712 8.73254 22.0574 8.73254 21.9424C8.73254 21.8274 8.7099 21.7136 8.6659 21.6073C8.6219 21.5011 8.55742 21.4046 8.47612 21.3233C8.39482 21.242 8.29831 21.1775 8.19209 21.1335C8.08587 21.0895 7.97203 21.0669 7.85706 21.0669C7.74208 21.0669 7.62824 21.0895 7.52202 21.1335C7.4158 21.1775 7.31929 21.242 7.23799 21.3233ZM21.8571 8.81738C21.972 8.81747 22.0858 8.79492 22.192 8.751C22.2983 8.70709 22.3948 8.64268 22.4761 8.56145L24.2261 6.81144C24.3903 6.64726 24.4825 6.42458 24.4825 6.19238C24.4825 5.96019 24.3903 5.73751 24.2261 5.57332C24.0619 5.40913 23.8392 5.3169 23.6071 5.3169C23.3749 5.3169 23.1522 5.40913 22.988 5.57332L21.238 7.32332C21.1155 7.44569 21.032 7.60167 20.9982 7.77149C20.9644 7.94131 20.9817 8.11735 21.048 8.27732C21.1143 8.43729 21.2266 8.574 21.3706 8.67014C21.5146 8.76627 21.6839 8.81752 21.8571 8.81738ZM22.4761 21.3233C22.3119 21.1591 22.0892 21.0669 21.8571 21.0669C21.6249 21.0669 21.4022 21.1591 21.238 21.3233C21.0738 21.4875 20.9816 21.7102 20.9816 21.9424C20.9816 22.1746 21.0738 22.3973 21.238 22.5614L22.988 24.3114C23.0693 24.3927 23.1658 24.4572 23.272 24.5012C23.3782 24.5452 23.4921 24.5679 23.6071 24.5679C23.722 24.5679 23.8359 24.5452 23.9421 24.5012C24.0483 24.4572 24.1448 24.3927 24.2261 24.3114C24.3074 24.2301 24.3719 24.1336 24.4159 24.0274C24.4599 23.9212 24.4825 23.8074 24.4825 23.6924C24.4825 23.5774 24.4599 23.4636 24.4159 23.3573C24.3719 23.2511 24.3074 23.1546 24.2261 23.0733L22.4761 21.3233ZM6.10706 14.9424C6.10706 14.7103 6.01487 14.4878 5.85077 14.3237C5.68668 14.1596 5.46412 14.0674 5.23206 14.0674H2.60706C2.37499 14.0674 2.15243 14.1596 1.98834 14.3237C1.82424 14.4878 1.73206 14.7103 1.73206 14.9424C1.73206 15.1744 1.82424 15.397 1.98834 15.5611C2.15243 15.7252 2.37499 15.8174 2.60706 15.8174H5.23206C5.46412 15.8174 5.68668 15.7252 5.85077 15.5611C6.01487 15.397 6.10706 15.1744 6.10706 14.9424ZM14.8571 23.6924C14.625 23.6924 14.4024 23.7846 14.2383 23.9487C14.0742 24.1128 13.9821 24.3353 13.9821 24.5674V27.1924C13.9821 27.4244 14.0742 27.647 14.2383 27.8111C14.4024 27.9752 14.625 28.0674 14.8571 28.0674C15.0891 28.0674 15.3117 27.9752 15.4758 27.8111C15.6399 27.647 15.7321 27.4244 15.7321 27.1924V24.5674C15.7321 24.3353 15.6399 24.1128 15.4758 23.9487C15.3117 23.7846 15.0891 23.6924 14.8571 23.6924ZM27.1071 14.0674H24.4821C24.25 14.0674 24.0274 14.1596 23.8633 14.3237C23.6992 14.4878 23.6071 14.7103 23.6071 14.9424C23.6071 15.1744 23.6992 15.397 23.8633 15.5611C24.0274 15.7252 24.25 15.8174 24.4821 15.8174H27.1071C27.3391 15.8174 27.5617 15.7252 27.7258 15.5611C27.8899 15.397 27.9821 15.1744 27.9821 14.9424C27.9821 14.7103 27.8899 14.4878 27.7258 14.3237C27.5617 14.1596 27.3391 14.0674 27.1071 14.0674Z" fill="black"/>
<path d="M13.9821 5.31738V2.69238C13.9821 2.46032 14.0742 2.23776 14.2383 2.07366C14.4024 1.90957 14.625 1.81738 14.8571 1.81738C15.0891 1.81738 15.3117 1.90957 15.4758 2.07366C15.6399 2.23776 15.7321 2.46032 15.7321 2.69238V5.31738C15.7321 5.54945 15.6399 5.77201 15.4758 5.9361C15.3117 6.1002 15.0891 6.19238 14.8571 6.19238C14.625 6.19238 14.4024 6.1002 14.2383 5.9361C14.0742 5.77201 13.9821 5.54945 13.9821 5.31738ZM21.8571 14.9424C21.8571 16.3269 21.4465 17.6802 20.6773 18.8314C19.9082 19.9825 18.8149 20.8797 17.5358 21.4095C16.2568 21.9394 14.8493 22.078 13.4914 21.8079C12.1336 21.5378 10.8863 20.8711 9.90731 19.8921C8.92834 18.9132 8.26166 17.6659 7.99156 16.308C7.72146 14.9501 7.86009 13.5427 8.3899 12.2636C8.91971 10.9845 9.81692 9.89126 10.9681 9.12209C12.1192 8.35292 13.4726 7.94238 14.8571 7.94238C16.7129 7.94441 18.4922 8.68256 19.8046 9.99487C21.1169 11.3072 21.855 13.0865 21.8571 14.9424ZM20.1071 14.9424C20.1071 13.904 19.7991 12.889 19.2223 12.0256C18.6454 11.1623 17.8255 10.4894 16.8661 10.092C15.9068 9.69466 14.8512 9.59069 13.8328 9.79326C12.8144 9.99583 11.879 10.4958 11.1447 11.2301C10.4105 11.9643 9.91051 12.8998 9.70793 13.9182C9.50536 14.9366 9.60933 15.9922 10.0067 16.9515C10.404 17.9108 11.077 18.7307 11.9403 19.3076C12.8037 19.8845 13.8187 20.1924 14.8571 20.1924C16.249 20.1909 17.5835 19.6373 18.5678 18.6531C19.552 17.6688 20.1056 16.3343 20.1071 14.9424ZM7.23799 8.56145C7.40218 8.72563 7.62486 8.81787 7.85706 8.81787C8.08925 8.81787 8.31193 8.72563 8.47612 8.56145C8.6403 8.39726 8.73254 8.17458 8.73254 7.94238C8.73254 7.71019 8.6403 7.48751 8.47612 7.32332L6.72612 5.57332C6.56193 5.40913 6.33925 5.3169 6.10706 5.3169C5.87486 5.3169 5.65218 5.40913 5.48799 5.57332C5.32381 5.73751 5.23157 5.96019 5.23157 6.19238C5.23157 6.42458 5.32381 6.64726 5.48799 6.81144L7.23799 8.56145ZM7.23799 21.3233L5.48799 23.0733C5.32381 23.2375 5.23157 23.4602 5.23157 23.6924C5.23157 23.9246 5.32381 24.1473 5.48799 24.3114C5.65218 24.4756 5.87486 24.5679 6.10706 24.5679C6.33925 24.5679 6.56193 24.4756 6.72612 24.3114L8.47612 22.5614C8.55742 22.4801 8.6219 22.3836 8.6659 22.2774C8.7099 22.1712 8.73254 22.0574 8.73254 21.9424C8.73254 21.8274 8.7099 21.7136 8.6659 21.6073C8.6219 21.5011 8.55742 21.4046 8.47612 21.3233C8.39482 21.242 8.29831 21.1775 8.19209 21.1335C8.08587 21.0895 7.97203 21.0669 7.85706 21.0669C7.74208 21.0669 7.62824 21.0895 7.52202 21.1335C7.4158 21.1775 7.31929 21.242 7.23799 21.3233ZM21.8571 8.81738C21.972 8.81747 22.0858 8.79492 22.192 8.751C22.2983 8.70709 22.3948 8.64268 22.4761 8.56145L24.2261 6.81144C24.3903 6.64726 24.4825 6.42458 24.4825 6.19238C24.4825 5.96019 24.3903 5.73751 24.2261 5.57332C24.0619 5.40913 23.8392 5.3169 23.6071 5.3169C23.3749 5.3169 23.1522 5.40913 22.988 5.57332L21.238 7.32332C21.1155 7.44569 21.032 7.60167 20.9982 7.77149C20.9644 7.94131 20.9817 8.11735 21.048 8.27732C21.1143 8.43729 21.2266 8.574 21.3706 8.67014C21.5146 8.76627 21.6839 8.81752 21.8571 8.81738ZM22.4761 21.3233C22.3119 21.1591 22.0892 21.0669 21.8571 21.0669C21.6249 21.0669 21.4022 21.1591 21.238 21.3233C21.0738 21.4875 20.9816 21.7102 20.9816 21.9424C20.9816 22.1746 21.0738 22.3973 21.238 22.5614L22.988 24.3114C23.0693 24.3927 23.1658 24.4572 23.272 24.5012C23.3782 24.5452 23.4921 24.5679 23.6071 24.5679C23.722 24.5679 23.8359 24.5452 23.9421 24.5012C24.0483 24.4572 24.1448 24.3927 24.2261 24.3114C24.3074 24.2301 24.3719 24.1336 24.4159 24.0274C24.4599 23.9212 24.4825 23.8074 24.4825 23.6924C24.4825 23.5774 24.4599 23.4636 24.4159 23.3573C24.3719 23.2511 24.3074 23.1546 24.2261 23.0733L22.4761 21.3233ZM6.10706 14.9424C6.10706 14.7103 6.01487 14.4878 5.85077 14.3237C5.68668 14.1596 5.46412 14.0674 5.23206 14.0674H2.60706C2.37499 14.0674 2.15243 14.1596 1.98834 14.3237C1.82424 14.4878 1.73206 14.7103 1.73206 14.9424C1.73206 15.1744 1.82424 15.397 1.98834 15.5611C2.15243 15.7252 2.37499 15.8174 2.60706 15.8174H5.23206C5.46412 15.8174 5.68668 15.7252 5.85077 15.5611C6.01487 15.397 6.10706 15.1744 6.10706 14.9424ZM14.8571 23.6924C14.625 23.6924 14.4024 23.7846 14.2383 23.9487C14.0742 24.1128 13.9821 24.3353 13.9821 24.5674V27.1924C13.9821 27.4244 14.0742 27.647 14.2383 27.8111C14.4024 27.9752 14.625 28.0674 14.8571 28.0674C15.0891 28.0674 15.3117 27.9752 15.4758 27.8111C15.6399 27.647 15.7321 27.4244 15.7321 27.1924V24.5674C15.7321 24.3353 15.6399 24.1128 15.4758 23.9487C15.3117 23.7846 15.0891 23.6924 14.8571 23.6924ZM27.1071 14.0674H24.4821C24.25 14.0674 24.0274 14.1596 23.8633 14.3237C23.6992 14.4878 23.6071 14.7103 23.6071 14.9424C23.6071 15.1744 23.6992 15.397 23.8633 15.5611C24.0274 15.7252 24.25 15.8174 24.4821 15.8174H27.1071C27.3391 15.8174 27.5617 15.7252 27.7258 15.5611C27.8899 15.397 27.9821 15.1744 27.9821 14.9424C27.9821 14.7103 27.8899 14.4878 27.7258 14.3237C27.5617 14.1596 27.3391 14.0674 27.1071 14.0674Z" fill="url(#paint1_linear_3689_822)"/>
</g>
<defs>
<linearGradient id="paint0_linear_3689_822" x1="-280.728" y1="22.3723" x2="-280.143" y2="-1.74347" gradientUnits="userSpaceOnUse">
<stop stop-color="#E8DF38"/>
<stop offset="1" stop-color="#41D882"/>
</linearGradient>
<linearGradient id="paint1_linear_3689_822" x1="-618.54" y1="30.8636" x2="-617.285" y2="-20.813" gradientUnits="userSpaceOnUse">
<stop stop-color="#E8DF38"/>
<stop offset="1" stop-color="#41D882"/>
</linearGradient>
<clipPath id="clip0_3689_822">
<rect width="28" height="28" fill="white" transform="translate(0.857056 0.942383)"/>
</clipPath>
</defs>
</svg>
