<svg width="36" height="50" viewBox="0 0 36 50" fill="none" xmlns="http://www.w3.org/2000/svg">
<path d="M35.5 25C35.4994 22.2526 34.8514 19.5441 33.6086 17.0939C32.3658 14.6436 30.5632 12.5207 28.3469 10.8972L26.9819 3.37656C26.8358 2.56971 26.4111 1.83974 25.7818 1.31402C25.1526 0.788307 24.3587 0.500211 23.5388 0.5H12.4613C11.6413 0.500211 10.8474 0.788307 10.2182 1.31402C9.58889 1.83974 9.16418 2.56971 9.01813 3.37656L7.65312 10.8972C5.43618 12.5202 3.6331 14.643 2.39017 17.0933C1.14725 19.5436 0.499512 22.2525 0.499512 25C0.499512 27.7475 1.14725 30.4564 2.39017 32.9067C3.6331 35.357 5.43618 37.4798 7.65312 39.1028L9.01813 46.6234C9.16418 47.4303 9.58889 48.1603 10.2182 48.686C10.8474 49.2117 11.6413 49.4998 12.4613 49.5H23.5388C24.3587 49.4998 25.1526 49.2117 25.7818 48.686C26.4111 48.1603 26.8358 47.4303 26.9819 46.6234L28.3469 39.1028C30.5632 37.4793 32.3658 35.3564 33.6086 32.9061C34.8514 30.4559 35.4994 27.7474 35.5 25ZM12.4613 4H23.5388L24.3941 8.71406C20.285 7.09537 15.715 7.09537 11.6059 8.71406L12.4613 4ZM4 25C4 22.2311 4.82109 19.5243 6.35943 17.222C7.89777 14.9197 10.0843 13.1253 12.6424 12.0657C15.2006 11.0061 18.0155 10.7288 20.7313 11.269C23.447 11.8092 25.9416 13.1426 27.8995 15.1005C29.8574 17.0584 31.1908 19.553 31.731 22.2687C32.2712 24.9845 31.9939 27.7994 30.9343 30.3576C29.8747 32.9157 28.0803 35.1022 25.778 36.6406C23.4757 38.1789 20.7689 39 18 39C14.2882 38.9959 10.7296 37.5196 8.10498 34.895C5.48035 32.2704 4.00405 28.7118 4 25ZM23.5388 46H12.4613L11.6059 41.2859C15.715 42.9046 20.285 42.9046 24.3941 41.2859L23.5388 46ZM16.25 25V16.25C16.25 15.7859 16.4344 15.3408 16.7626 15.0126C17.0908 14.6844 17.5359 14.5 18 14.5C18.4641 14.5 18.9093 14.6844 19.2374 15.0126C19.5656 15.3408 19.75 15.7859 19.75 16.25V23.25H26.75C27.2141 23.25 27.6593 23.4344 27.9874 23.7626C28.3156 24.0908 28.5 24.5359 28.5 25C28.5 25.4641 28.3156 25.9093 27.9874 26.2374C27.6593 26.5656 27.2141 26.75 26.75 26.75H18C17.5359 26.75 17.0908 26.5656 16.7626 26.2374C16.4344 25.9093 16.25 25.4641 16.25 25Z" fill="black"/>
<path d="M35.5 25C35.4994 22.2526 34.8514 19.5441 33.6086 17.0939C32.3658 14.6436 30.5632 12.5207 28.3469 10.8972L26.9819 3.37656C26.8358 2.56971 26.4111 1.83974 25.7818 1.31402C25.1526 0.788307 24.3587 0.500211 23.5388 0.5H12.4613C11.6413 0.500211 10.8474 0.788307 10.2182 1.31402C9.58889 1.83974 9.16418 2.56971 9.01813 3.37656L7.65312 10.8972C5.43618 12.5202 3.6331 14.643 2.39017 17.0933C1.14725 19.5436 0.499512 22.2525 0.499512 25C0.499512 27.7475 1.14725 30.4564 2.39017 32.9067C3.6331 35.357 5.43618 37.4798 7.65312 39.1028L9.01813 46.6234C9.16418 47.4303 9.58889 48.1603 10.2182 48.686C10.8474 49.2117 11.6413 49.4998 12.4613 49.5H23.5388C24.3587 49.4998 25.1526 49.2117 25.7818 48.686C26.4111 48.1603 26.8358 47.4303 26.9819 46.6234L28.3469 39.1028C30.5632 37.4793 32.3658 35.3564 33.6086 32.9061C34.8514 30.4559 35.4994 27.7474 35.5 25ZM12.4613 4H23.5388L24.3941 8.71406C20.285 7.09537 15.715 7.09537 11.6059 8.71406L12.4613 4ZM4 25C4 22.2311 4.82109 19.5243 6.35943 17.222C7.89777 14.9197 10.0843 13.1253 12.6424 12.0657C15.2006 11.0061 18.0155 10.7288 20.7313 11.269C23.447 11.8092 25.9416 13.1426 27.8995 15.1005C29.8574 17.0584 31.1908 19.553 31.731 22.2687C32.2712 24.9845 31.9939 27.7994 30.9343 30.3576C29.8747 32.9157 28.0803 35.1022 25.778 36.6406C23.4757 38.1789 20.7689 39 18 39C14.2882 38.9959 10.7296 37.5196 8.10498 34.895C5.48035 32.2704 4.00405 28.7118 4 25ZM23.5388 46H12.4613L11.6059 41.2859C15.715 42.9046 20.285 42.9046 24.3941 41.2859L23.5388 46ZM16.25 25V16.25C16.25 15.7859 16.4344 15.3408 16.7626 15.0126C17.0908 14.6844 17.5359 14.5 18 14.5C18.4641 14.5 18.9093 14.6844 19.2374 15.0126C19.5656 15.3408 19.75 15.7859 19.75 16.25V23.25H26.75C27.2141 23.25 27.6593 23.4344 27.9874 23.7626C28.3156 24.0908 28.5 24.5359 28.5 25C28.5 25.4641 28.3156 25.9093 27.9874 26.2374C27.6593 26.5656 27.2141 26.75 26.75 26.75H18C17.5359 26.75 17.0908 26.5656 16.7626 26.2374C16.4344 25.9093 16.25 25.4641 16.25 25Z" fill="url(#paint0_linear_3301_18855)"/>
<defs>
<linearGradient id="paint0_linear_3301_18855" x1="-826.541" y1="54.7196" x2="-823.265" y2="-41.6889" gradientUnits="userSpaceOnUse">
<stop stop-color="#E8DF38"/>
<stop offset="1" stop-color="#41D882"/>
</linearGradient>
</defs>
</svg>
