<svg width="62" height="62" viewBox="0 0 62 62" fill="none" xmlns="http://www.w3.org/2000/svg">
<g clip-path="url(#clip0_4016_3559)">
<path opacity="0.2" d="M38.8243 12.0078C35.034 12.0077 31.3297 13.1375 28.1847 15.2528C25.0396 17.3682 22.5966 20.3731 21.1676 23.8837V23.8599C19.3342 23.3919 17.4221 23.3192 15.5584 23.6466C13.6947 23.974 11.9219 24.694 10.3578 25.7589C8.7936 26.8238 7.47381 28.2092 6.48599 29.8232C5.49816 31.4371 4.8649 33.2427 4.62822 35.1201C4.39155 36.9975 4.55688 38.9037 5.11323 40.7124C5.66959 42.521 6.60425 44.1906 7.85518 45.6104C9.10611 47.0302 10.6447 48.1676 12.3689 48.9474C14.093 49.7271 15.9633 50.1312 17.8555 50.1328H38.8243C43.88 50.1328 48.7286 48.1244 52.3035 44.5495C55.8784 40.9746 57.8868 36.126 57.8868 31.0703C57.8868 26.0146 55.8784 21.166 52.3035 17.5911C48.7286 14.0162 43.88 12.0078 38.8243 12.0078Z" fill="url(#paint0_linear_4016_3559)"/>
<path d="M19.757 31.0703C19.757 27.3001 20.875 23.6146 22.9696 20.4798C25.0642 17.345 28.0414 14.9017 31.5246 13.4589C35.0078 12.0161 38.8406 11.6386 42.5384 12.3741C46.2361 13.1096 49.6328 14.9252 52.2987 17.5911C54.9646 20.257 56.7802 23.6536 57.5157 27.3514C58.2512 31.0492 57.8737 34.882 56.4309 38.3652C54.9881 41.8484 52.5448 44.8256 49.41 46.9202C46.2752 49.0148 42.5897 50.1328 38.8195 50.1328H17.8507C15.9587 50.1305 14.0888 49.7258 12.365 48.9456C10.6413 48.1655 9.10323 47.0277 7.85281 45.6077C6.60239 44.1877 5.66825 42.5181 5.11235 40.7095C4.55646 38.901 4.39154 36.9949 4.62852 35.1177C4.86551 33.2406 5.49898 31.4353 6.48692 29.8217C7.47485 28.208 8.79465 26.8229 10.3587 25.7583C11.9228 24.6936 13.6955 23.9738 15.559 23.6465C17.4225 23.3192 19.3343 23.392 21.1676 23.8599" stroke="url(#paint1_linear_4016_3559)" stroke-width="3.8125" stroke-linecap="round" stroke-linejoin="round"/>
<path d="M29.2891 32.9766L35.0078 38.6953L46.4453 27.2578" stroke="url(#paint2_linear_4016_3559)" stroke-width="3.8125" stroke-linecap="round" stroke-linejoin="round"/>
</g>
<defs>
<linearGradient id="paint0_linear_4016_3559" x1="-1256.42" y1="54.194" x2="-1255.12" y2="-20.8818" gradientUnits="userSpaceOnUse">
<stop stop-color="#E8DF38"/>
<stop offset="1" stop-color="#41D882"/>
</linearGradient>
<linearGradient id="paint1_linear_4016_3559" x1="-1256.31" y1="54.194" x2="-1255" y2="-20.8818" gradientUnits="userSpaceOnUse">
<stop stop-color="#E8DF38"/>
<stop offset="1" stop-color="#41D882"/>
</linearGradient>
<linearGradient id="paint2_linear_4016_3559" x1="-376.103" y1="39.9137" x2="-375.738" y2="17.3901" gradientUnits="userSpaceOnUse">
<stop stop-color="#E8DF38"/>
<stop offset="1" stop-color="#41D882"/>
</linearGradient>
<clipPath id="clip0_4016_3559">
<rect width="61" height="61" fill="white" transform="translate(0.695312 0.570312)"/>
</clipPath>
</defs>
</svg>
