<svg width="62" height="62" viewBox="0 0 62 62" fill="none" xmlns="http://www.w3.org/2000/svg">
<path opacity="0.2" d="M48.3516 10.5195V52.457C48.3516 52.9626 48.1507 53.4475 47.7932 53.805C47.4357 54.1624 46.9509 54.3633 46.4453 54.3633H15.9453C15.4397 54.3633 14.9549 54.1624 14.5974 53.805C14.2399 53.4475 14.0391 52.9626 14.0391 52.457V10.5195C14.0391 10.014 14.2399 9.5291 14.5974 9.17161C14.9549 8.81412 15.4397 8.61328 15.9453 8.61328H46.4453C46.9509 8.61328 47.4357 8.81412 47.7932 9.17161C48.1507 9.5291 48.3516 10.014 48.3516 10.5195Z" fill="url(#paint0_linear_4016_4248)"/>
<path d="M21.6641 18.1445C21.6641 17.639 21.8649 17.1541 22.2224 16.7966C22.5799 16.4391 23.0647 16.2383 23.5703 16.2383H38.8203C39.3259 16.2383 39.8107 16.4391 40.1682 16.7966C40.5257 17.1541 40.7266 17.639 40.7266 18.1445C40.7266 18.6501 40.5257 19.135 40.1682 19.4925C39.8107 19.8499 39.3259 20.0508 38.8203 20.0508H23.5703C23.0647 20.0508 22.5799 19.8499 22.2224 19.4925C21.8649 19.135 21.6641 18.6501 21.6641 18.1445ZM23.5703 27.6758H38.8203C39.3259 27.6758 39.8107 27.4749 40.1682 27.1175C40.5257 26.76 40.7266 26.2751 40.7266 25.7695C40.7266 25.264 40.5257 24.7791 40.1682 24.4216C39.8107 24.0641 39.3259 23.8633 38.8203 23.8633H23.5703C23.0647 23.8633 22.5799 24.0641 22.2224 24.4216C21.8649 24.7791 21.6641 25.264 21.6641 25.7695C21.6641 26.2751 21.8649 26.76 22.2224 27.1175C22.5799 27.4749 23.0647 27.6758 23.5703 27.6758ZM50.2578 10.5195V52.457C50.2578 53.4682 49.8561 54.4379 49.1412 55.1529C48.4262 55.8679 47.4565 56.2695 46.4453 56.2695H15.9453C14.9342 56.2695 13.9645 55.8679 13.2495 55.1529C12.5345 54.4379 12.1328 53.4682 12.1328 52.457V10.5195C12.1328 9.50839 12.5345 8.53867 13.2495 7.82369C13.9645 7.1087 14.9342 6.70703 15.9453 6.70703H46.4453C47.4565 6.70703 48.4262 7.1087 49.1412 7.82369C49.8561 8.53867 50.2578 9.50839 50.2578 10.5195ZM46.4453 10.5195H15.9453V52.457H46.4453V10.5195ZM31.1953 41.0195C30.6298 41.0195 30.077 41.1872 29.6067 41.5014C29.1365 41.8156 28.77 42.2622 28.5536 42.7847C28.3372 43.3072 28.2806 43.8821 28.3909 44.4367C28.5012 44.9914 28.7735 45.5009 29.1734 45.9008C29.5733 46.3007 30.0828 46.573 30.6375 46.6833C31.1921 46.7937 31.7671 46.737 32.2895 46.5206C32.812 46.3042 33.2586 45.9377 33.5728 45.4675C33.887 44.9973 34.0547 44.4444 34.0547 43.8789C34.0547 43.1206 33.7534 42.3933 33.2172 41.857C32.681 41.3208 31.9537 41.0195 31.1953 41.0195Z" fill="url(#paint1_linear_4016_4248)"/>
<defs>
<linearGradient id="paint0_linear_4016_4248" x1="-796.745" y1="59.2367" x2="-793.831" y2="-30.787" gradientUnits="userSpaceOnUse">
<stop stop-color="#E8DF38"/>
<stop offset="1" stop-color="#41D882"/>
</linearGradient>
<linearGradient id="paint1_linear_4016_4248" x1="-888.738" y1="61.549" x2="-885.661" y2="-35.9817" gradientUnits="userSpaceOnUse">
<stop stop-color="#E8DF38"/>
<stop offset="1" stop-color="#41D882"/>
</linearGradient>
</defs>
</svg>
