<svg width="62" height="62" viewBox="0 0 62 62" fill="none" xmlns="http://www.w3.org/2000/svg">
<g clip-path="url(#clip0_4016_3138)">
<path opacity="0.2" d="M13.7969 10.5195H49.0625C49.4766 10.5196 49.8794 10.6545 50.21 10.9039C50.5406 11.1532 50.781 11.5034 50.8949 11.9016L54.3047 23.8633H8.55469L11.9716 11.9016C12.0852 11.5046 12.3245 11.1553 12.6537 10.906C12.9828 10.6568 13.384 10.5212 13.7969 10.5195Z" fill="#FF4444"/>
<path opacity="0.2" d="M23.8047 23.8633V27.6758C23.8047 29.6981 23.0013 31.6375 21.5714 33.0675C20.1414 34.4974 18.202 35.3008 16.1797 35.3008C14.1574 35.3008 12.218 34.4974 10.788 33.0675C9.35803 31.6375 8.55469 29.6981 8.55469 27.6758V23.8633H23.8047Z" fill="#FF4444"/>
<path opacity="0.2" d="M54.3047 23.8633V27.6758C54.3047 29.6981 53.5013 31.6375 52.0714 33.0675C50.6414 34.4974 48.702 35.3008 46.6797 35.3008C44.6574 35.3008 42.718 34.4974 41.288 33.0675C39.858 31.6375 39.0547 29.6981 39.0547 27.6758V23.8633H54.3047Z" fill="#FF4444"/>
<path d="M12.3672 34.25V52.4571H50.4922V34.25" stroke="#FF4444" stroke-width="3.8125" stroke-linecap="round" stroke-linejoin="round"/>
<path d="M13.7969 10.5195H49.0625C49.4766 10.5196 49.8794 10.6545 50.21 10.9039C50.5406 11.1532 50.781 11.5034 50.8949 11.9016L54.3047 23.8633H8.55469L11.9716 11.9016C12.0852 11.5046 12.3245 11.1553 12.6537 10.906C12.9828 10.6568 13.384 10.5212 13.7969 10.5195Z" stroke="#FF4444" stroke-width="3.8125" stroke-linecap="round" stroke-linejoin="round"/>
<path d="M23.8047 23.8633V27.6758C23.8047 29.6981 23.0013 31.6375 21.5714 33.0675C20.1414 34.4974 18.202 35.3008 16.1797 35.3008C14.1574 35.3008 12.218 34.4974 10.788 33.0675C9.35803 31.6375 8.55469 29.6981 8.55469 27.6758V23.8633" stroke="#FF4444" stroke-width="3.8125" stroke-linecap="round" stroke-linejoin="round"/>
<path d="M39.0547 23.8633V27.6758C39.0547 29.6981 38.2513 31.6375 36.8214 33.0675C35.3914 34.4974 33.452 35.3008 31.4297 35.3008C29.4074 35.3008 27.468 34.4974 26.038 33.0675C24.608 31.6375 23.8047 29.6981 23.8047 27.6758V23.8633" stroke="#FF4444" stroke-width="3.8125" stroke-linecap="round" stroke-linejoin="round"/>
<path d="M54.3047 23.8633V27.6758C54.3047 29.6981 53.5013 31.6375 52.0714 33.0675C50.6414 34.4974 48.702 35.3008 46.6797 35.3008C44.6574 35.3008 42.718 34.4974 41.288 33.0675C39.858 31.6375 39.0547 29.6981 39.0547 27.6758V23.8633" stroke="#FF4444" stroke-width="3.8125" stroke-linecap="round" stroke-linejoin="round"/>
</g>
<defs>
<clipPath id="clip0_4016_3138">
<rect width="61" height="61" fill="white" transform="translate(0.929688 0.988281)"/>
</clipPath>
</defs>
</svg>
