<svg width="62" height="62" viewBox="0 0 62 62" fill="none" xmlns="http://www.w3.org/2000/svg">
<g clip-path="url(#clip0_4016_3127)">
<path opacity="0.2" d="M13.5625 10.5195H48.8281C49.2422 10.5196 49.645 10.6545 49.9756 10.9039C50.3062 11.1532 50.5466 11.5034 50.6605 11.9016L54.0703 23.8633H8.32031L11.7373 11.9016C11.8508 11.5046 12.0901 11.1553 12.4193 10.906C12.7485 10.6568 13.1496 10.5212 13.5625 10.5195Z" fill="url(#paint0_linear_4016_3127)"/>
<path opacity="0.2" d="M23.5703 23.8633V27.6758C23.5703 29.6981 22.767 31.6375 21.337 33.0675C19.907 34.4974 17.9676 35.3008 15.9453 35.3008C13.923 35.3008 11.9836 34.4974 10.5536 33.0675C9.12366 31.6375 8.32031 29.6981 8.32031 27.6758V23.8633H23.5703Z" fill="url(#paint1_linear_4016_3127)"/>
<path opacity="0.2" d="M54.0703 23.8633V27.6758C54.0703 29.6981 53.267 31.6375 51.837 33.0675C50.407 34.4974 48.4676 35.3008 46.4453 35.3008C44.423 35.3008 42.4836 34.4974 41.0536 33.0675C39.6237 31.6375 38.8203 29.6981 38.8203 27.6758V23.8633H54.0703Z" fill="url(#paint2_linear_4016_3127)"/>
<path d="M12.1328 34.25V52.4571H50.2578V34.25" stroke="url(#paint3_linear_4016_3127)" stroke-width="3.8125" stroke-linecap="round" stroke-linejoin="round"/>
<path d="M13.5625 10.5195H48.8281C49.2422 10.5196 49.645 10.6545 49.9756 10.9039C50.3062 11.1532 50.5466 11.5034 50.6605 11.9016L54.0703 23.8633H8.32031L11.7373 11.9016C11.8508 11.5046 12.0901 11.1553 12.4193 10.906C12.7485 10.6568 13.1496 10.5212 13.5625 10.5195Z" stroke="url(#paint4_linear_4016_3127)" stroke-width="3.8125" stroke-linecap="round" stroke-linejoin="round"/>
<path d="M23.5703 23.8633V27.6758C23.5703 29.6981 22.767 31.6375 21.337 33.0675C19.907 34.4974 17.9676 35.3008 15.9453 35.3008C13.923 35.3008 11.9836 34.4974 10.5536 33.0675C9.12366 31.6375 8.32031 29.6981 8.32031 27.6758V23.8633" stroke="url(#paint5_linear_4016_3127)" stroke-width="3.8125" stroke-linecap="round" stroke-linejoin="round"/>
<path d="M38.8203 23.8633V27.6758C38.8203 29.6981 38.017 31.6375 36.587 33.0675C35.157 34.4974 33.2176 35.3008 31.1953 35.3008C29.173 35.3008 27.2336 34.4974 25.8036 33.0675C24.3737 31.6375 23.5703 29.6981 23.5703 27.6758V23.8633" stroke="url(#paint6_linear_4016_3127)" stroke-width="3.8125" stroke-linecap="round" stroke-linejoin="round"/>
<path d="M54.0703 23.8633V27.6758C54.0703 29.6981 53.267 31.6375 51.837 33.0675C50.407 34.4974 48.4676 35.3008 46.4453 35.3008C44.423 35.3008 42.4836 34.4974 41.0536 33.0675C39.6237 31.6375 38.8203 29.6981 38.8203 27.6758V23.8633" stroke="url(#paint7_linear_4016_3127)" stroke-width="3.8125" stroke-linecap="round" stroke-linejoin="round"/>
</g>
<defs>
<linearGradient id="paint0_linear_4016_3127" x1="-1072.72" y1="25.2847" x2="-1072.54" y2="-0.99841" gradientUnits="userSpaceOnUse">
<stop stop-color="#E8DF38"/>
<stop offset="1" stop-color="#41D882"/>
</linearGradient>
<linearGradient id="paint1_linear_4016_3127" x1="-352.028" y1="36.5191" x2="-351.618" y2="13.9971" gradientUnits="userSpaceOnUse">
<stop stop-color="#E8DF38"/>
<stop offset="1" stop-color="#41D882"/>
</linearGradient>
<linearGradient id="paint2_linear_4016_3127" x1="-321.528" y1="36.5191" x2="-321.118" y2="13.9971" gradientUnits="userSpaceOnUse">
<stop stop-color="#E8DF38"/>
<stop offset="1" stop-color="#41D882"/>
</linearGradient>
<linearGradient id="paint3_linear_4016_3127" x1="-888.738" y1="54.3965" x2="-888.322" y2="18.5372" gradientUnits="userSpaceOnUse">
<stop stop-color="#E8DF38"/>
<stop offset="1" stop-color="#41D882"/>
</linearGradient>
<linearGradient id="paint4_linear_4016_3127" x1="-1072.72" y1="25.2847" x2="-1072.54" y2="-0.99841" gradientUnits="userSpaceOnUse">
<stop stop-color="#E8DF38"/>
<stop offset="1" stop-color="#41D882"/>
</linearGradient>
<linearGradient id="paint5_linear_4016_3127" x1="-352.028" y1="36.5191" x2="-351.618" y2="13.9971" gradientUnits="userSpaceOnUse">
<stop stop-color="#E8DF38"/>
<stop offset="1" stop-color="#41D882"/>
</linearGradient>
<linearGradient id="paint6_linear_4016_3127" x1="-336.778" y1="36.5191" x2="-336.368" y2="13.9971" gradientUnits="userSpaceOnUse">
<stop stop-color="#E8DF38"/>
<stop offset="1" stop-color="#41D882"/>
</linearGradient>
<linearGradient id="paint7_linear_4016_3127" x1="-321.528" y1="36.5191" x2="-321.118" y2="13.9971" gradientUnits="userSpaceOnUse">
<stop stop-color="#E8DF38"/>
<stop offset="1" stop-color="#41D882"/>
</linearGradient>
<clipPath id="clip0_4016_3127">
<rect width="61" height="61" fill="white" transform="translate(0.695312 0.988281)"/>
</clipPath>
</defs>
</svg>
