<svg width="62" height="62" viewBox="0 0 62 62" fill="none" xmlns="http://www.w3.org/2000/svg">
<g clip-path="url(#clip0_4016_4465)">
<path d="M37.1484 11.5898C40.3545 12.4341 43.2791 14.1142 45.6235 16.4586C47.9678 18.8029 49.6479 21.7275 50.4922 24.9336" stroke="url(#paint0_linear_4016_4465)" stroke-width="3.8125" stroke-linecap="round" stroke-linejoin="round"/>
<path d="M35.2422 19.2148C39.1786 20.268 41.814 22.9034 42.8672 26.8398" stroke="url(#paint1_linear_4016_4465)" stroke-width="3.8125" stroke-linecap="round" stroke-linejoin="round"/>
<path opacity="0.2" d="M38.1945 36.6894C38.4585 36.5137 38.7621 36.4067 39.0779 36.378C39.3937 36.3493 39.7117 36.3998 40.0031 36.525L51.2404 41.5599C51.6191 41.7217 51.9352 42.0019 52.1414 42.3584C52.3476 42.7149 52.4327 43.1286 52.3841 43.5376C52.014 46.3042 50.6516 48.8421 48.5504 50.6795C46.4492 52.5168 43.7522 53.5285 40.9609 53.5264C32.3663 53.5264 24.1236 50.1121 18.0463 44.0348C11.9689 37.9574 8.55469 29.7148 8.55469 21.1201C8.55256 18.3289 9.56424 15.6319 11.4016 13.5307C13.2389 11.4295 15.7769 10.0671 18.5434 9.69691C18.9524 9.64832 19.3661 9.73349 19.7226 9.93967C20.0792 10.1459 20.3593 10.462 20.5212 10.8407L25.5561 22.0875C25.6798 22.3764 25.7301 22.6914 25.7027 23.0044C25.6753 23.3174 25.5709 23.6188 25.3988 23.8818L20.3067 29.9365C20.1261 30.2091 20.0193 30.5238 19.9967 30.85C19.9742 31.1762 20.0367 31.5027 20.1781 31.7975C22.1486 35.8316 26.3186 39.9515 30.3646 41.903C30.661 42.0438 30.9889 42.1049 31.3161 42.0802C31.6433 42.0555 31.9584 41.946 32.2303 41.7624L38.1945 36.6894Z" fill="url(#paint2_linear_4016_4465)"/>
<path d="M38.1945 36.6894C38.4585 36.5137 38.7621 36.4067 39.0779 36.378C39.3937 36.3493 39.7117 36.3998 40.0031 36.525L51.2404 41.5599C51.6191 41.7217 51.9352 42.0019 52.1414 42.3584C52.3476 42.7149 52.4327 43.1286 52.3841 43.5376C52.0139 46.3042 50.6516 48.8421 48.5504 50.6795C46.4492 52.5168 43.7522 53.5285 40.9609 53.5264C32.3663 53.5264 24.1236 50.1121 18.0463 44.0348C11.9689 37.9574 8.55469 29.7148 8.55469 21.1201C8.55256 18.3289 9.56424 15.6319 11.4016 13.5307C13.2389 11.4295 15.7769 10.0671 18.5434 9.69691C18.9524 9.64832 19.3661 9.73349 19.7226 9.93967C20.0792 10.1459 20.3593 10.462 20.5212 10.8407L25.5561 22.0875C25.6798 22.3764 25.7301 22.6914 25.7027 23.0044C25.6753 23.3174 25.5709 23.6188 25.3988 23.8818L20.3067 29.9365C20.1261 30.2091 20.0193 30.5238 19.9967 30.85C19.9742 31.1762 20.0367 31.5027 20.1781 31.7975C22.1486 35.8316 26.3186 39.9515 30.3646 41.903C30.661 42.0438 30.9889 42.1049 31.3161 42.0802C31.6433 42.0555 31.9584 41.946 32.2303 41.7624L38.1945 36.6894Z" stroke="url(#paint3_linear_4016_4465)" stroke-width="3.8125" stroke-linecap="round" stroke-linejoin="round"/>
</g>
<defs>
<linearGradient id="paint0_linear_4016_4465" x1="-278.156" y1="26.355" x2="-277.519" y2="0.0860609" gradientUnits="userSpaceOnUse">
<stop stop-color="#E8DF38"/>
<stop offset="1" stop-color="#41D882"/>
</linearGradient>
<linearGradient id="paint1_linear_4016_4465" x1="-144.932" y1="27.6521" x2="-144.568" y2="12.6413" gradientUnits="userSpaceOnUse">
<stop stop-color="#E8DF38"/>
<stop offset="1" stop-color="#41D882"/>
</linearGradient>
<linearGradient id="paint2_linear_4016_4465" x1="-1027.42" y1="58.1966" x2="-1025.33" y2="-28.1137" gradientUnits="userSpaceOnUse">
<stop stop-color="#E8DF38"/>
<stop offset="1" stop-color="#41D882"/>
</linearGradient>
<linearGradient id="paint3_linear_4016_4465" x1="-1027.42" y1="58.1966" x2="-1025.33" y2="-28.1137" gradientUnits="userSpaceOnUse">
<stop stop-color="#E8DF38"/>
<stop offset="1" stop-color="#41D882"/>
</linearGradient>
<clipPath id="clip0_4016_4465">
<rect width="61" height="61" fill="white" transform="translate(0.929688 0.152344)"/>
</clipPath>
</defs>
</svg>
