<svg width="62" height="62" viewBox="0 0 62 62" fill="none" xmlns="http://www.w3.org/2000/svg">
<g clip-path="url(#clip0_4016_3520)">
<path opacity="0.2" d="M50.4922 35.3008H12.3672C11.3144 35.3008 10.4609 36.1542 10.4609 37.207V48.6445C10.4609 49.6973 11.3144 50.5508 12.3672 50.5508H50.4922C51.545 50.5508 52.3984 49.6973 52.3984 48.6445V37.207C52.3984 36.1542 51.545 35.3008 50.4922 35.3008Z" fill="url(#paint0_linear_4016_3520)"/>
<path opacity="0.2" d="M50.4922 12.4258H12.3672C11.3144 12.4258 10.4609 13.2792 10.4609 14.332V25.7695C10.4609 26.8223 11.3144 27.6758 12.3672 27.6758H50.4922C51.545 27.6758 52.3984 26.8223 52.3984 25.7695V14.332C52.3984 13.2792 51.545 12.4258 50.4922 12.4258Z" fill="url(#paint1_linear_4016_3520)"/>
<path d="M50.4922 35.3008H12.3672C11.3144 35.3008 10.4609 36.1542 10.4609 37.207V48.6445C10.4609 49.6973 11.3144 50.5508 12.3672 50.5508H50.4922C51.545 50.5508 52.3984 49.6973 52.3984 48.6445V37.207C52.3984 36.1542 51.545 35.3008 50.4922 35.3008Z" stroke="url(#paint2_linear_4016_3520)" stroke-width="3.8125" stroke-linecap="round" stroke-linejoin="round"/>
<path d="M50.4922 12.4258H12.3672C11.3144 12.4258 10.4609 13.2792 10.4609 14.332V25.7695C10.4609 26.8223 11.3144 27.6758 12.3672 27.6758H50.4922C51.545 27.6758 52.3984 26.8223 52.3984 25.7695V14.332C52.3984 13.2792 51.545 12.4258 50.4922 12.4258Z" stroke="url(#paint3_linear_4016_3520)" stroke-width="3.8125" stroke-linecap="round" stroke-linejoin="round"/>
<path d="M43.8203 22.9102C45.3995 22.9102 46.6797 21.63 46.6797 20.0508C46.6797 18.4716 45.3995 17.1914 43.8203 17.1914C42.2411 17.1914 40.9609 18.4716 40.9609 20.0508C40.9609 21.63 42.2411 22.9102 43.8203 22.9102Z" fill="url(#paint4_linear_4016_3520)"/>
<path d="M43.8203 45.7852C45.3995 45.7852 46.6797 44.505 46.6797 42.9258C46.6797 41.3466 45.3995 40.0664 43.8203 40.0664C42.2411 40.0664 40.9609 41.3466 40.9609 42.9258C40.9609 44.505 42.2411 45.7852 43.8203 45.7852Z" fill="url(#paint5_linear_4016_3520)"/>
</g>
<defs>
<linearGradient id="paint0_linear_4016_3520" x1="-980.497" y1="52.1752" x2="-980.232" y2="22.1383" gradientUnits="userSpaceOnUse">
<stop stop-color="#E8DF38"/>
<stop offset="1" stop-color="#41D882"/>
</linearGradient>
<linearGradient id="paint1_linear_4016_3520" x1="-980.497" y1="29.3002" x2="-980.232" y2="-0.736746" gradientUnits="userSpaceOnUse">
<stop stop-color="#E8DF38"/>
<stop offset="1" stop-color="#41D882"/>
</linearGradient>
<linearGradient id="paint2_linear_4016_3520" x1="-980.497" y1="52.1752" x2="-980.232" y2="22.1383" gradientUnits="userSpaceOnUse">
<stop stop-color="#E8DF38"/>
<stop offset="1" stop-color="#41D882"/>
</linearGradient>
<linearGradient id="paint3_linear_4016_3520" x1="-980.497" y1="29.3002" x2="-980.232" y2="-0.736746" gradientUnits="userSpaceOnUse">
<stop stop-color="#E8DF38"/>
<stop offset="1" stop-color="#41D882"/>
</linearGradient>
<linearGradient id="paint4_linear_4016_3520" x1="-94.1697" y1="23.5193" x2="-93.8964" y2="12.2612" gradientUnits="userSpaceOnUse">
<stop stop-color="#E8DF38"/>
<stop offset="1" stop-color="#41D882"/>
</linearGradient>
<linearGradient id="paint5_linear_4016_3520" x1="-94.1697" y1="46.3943" x2="-93.8964" y2="35.1362" gradientUnits="userSpaceOnUse">
<stop stop-color="#E8DF38"/>
<stop offset="1" stop-color="#41D882"/>
</linearGradient>
<clipPath id="clip0_4016_3520">
<rect width="61" height="61" fill="white" transform="translate(0.929688 0.988281)"/>
</clipPath>
</defs>
</svg>
