<svg width="15" height="14" viewBox="0 0 15 14" fill="none" xmlns="http://www.w3.org/2000/svg">
<g clip-path="url(#clip0_3301_12430)">
<path d="M12.5828 4.74107L12.4389 5.07105C12.3337 5.31263 11.9996 5.31263 11.8943 5.07105L11.7505 4.74107C11.4941 4.1527 11.0323 3.68425 10.4561 3.42797L10.013 3.23089C9.77338 3.12432 9.77338 2.77565 10.013 2.66908L10.4313 2.48301C11.0224 2.22014 11.4924 1.73435 11.7444 1.12599L11.8921 0.769401C11.995 0.520877 12.3382 0.520877 12.4411 0.769401L12.5888 1.12599C12.8408 1.73435 13.3109 2.22014 13.9019 2.48301L14.3202 2.66908C14.5599 2.77565 14.5599 3.12432 14.3202 3.23089L13.8771 3.42797C13.3009 3.68425 12.8392 4.1527 12.5828 4.74107ZM1.66663 2.33301C1.66663 2.01084 1.9278 1.74968 2.24996 1.74968H8.66663V2.91634H2.83329V11.083H12.1666V6.41634H13.3333V11.6663C13.3333 11.9885 13.0721 12.2497 12.75 12.2497H2.24996C1.9278 12.2497 1.66663 11.9885 1.66663 11.6663V2.33301ZM4.58329 7.58301H5.74996V9.91634H4.58329V7.58301ZM6.91663 4.08301H8.08329V9.91634H6.91663V4.08301ZM9.24996 5.83301H10.4166V9.91634H9.24996V5.83301Z" fill="white" fill-opacity="0.3"/>
</g>
<defs>
<clipPath id="clip0_3301_12430">
<rect width="14" height="14" fill="white" transform="translate(0.5)"/>
</clipPath>
</defs>
</svg>
