<svg width="57" height="56" viewBox="0 0 57 56" fill="none" xmlns="http://www.w3.org/2000/svg">
<g opacity="0.2">
<path d="M46.2526 8.75H10.6735C10.2017 8.75 9.74919 8.93437 9.41558 9.26256C9.08196 9.59075 8.89453 10.0359 8.89453 10.5V45.5C8.89453 45.9641 9.08196 46.4092 9.41558 46.7374C9.74919 47.0656 10.2017 47.25 10.6735 47.25H46.2526C46.7244 47.25 47.1769 47.0656 47.5105 46.7374C47.8441 46.4092 48.0315 45.9641 48.0315 45.5V10.5C48.0315 10.0359 47.8441 9.59075 47.5105 9.26256C47.1769 8.93437 46.7244 8.75 46.2526 8.75ZM19.5683 40.25C18.8646 40.25 18.1767 40.0447 17.5916 39.6601C17.0065 39.2756 16.5505 38.7289 16.2812 38.0894C16.0119 37.4499 15.9414 36.7461 16.0787 36.0672C16.216 35.3883 16.5549 34.7646 17.0524 34.2751C17.55 33.7856 18.184 33.4523 18.8741 33.3173C19.5643 33.1822 20.2797 33.2515 20.9298 33.5164C21.5799 33.7813 22.1356 34.2299 22.5265 34.8055C22.9175 35.3811 23.1262 36.0578 23.1262 36.75C23.1262 37.6783 22.7513 38.5685 22.0841 39.2249C21.4168 39.8813 20.5119 40.25 19.5683 40.25ZM37.3578 26.25C36.6541 26.25 35.9662 26.0447 35.3811 25.6601C34.796 25.2756 34.34 24.7289 34.0707 24.0894C33.8014 23.4499 33.731 22.7461 33.8683 22.0672C34.0055 21.3883 34.3444 20.7646 34.842 20.2751C35.3396 19.7856 35.9735 19.4523 36.6637 19.3173C37.3539 19.1822 38.0692 19.2515 38.7194 19.5164C39.3695 19.7813 39.9251 20.2299 40.3161 20.8055C40.707 21.3811 40.9157 22.0578 40.9157 22.75C40.9157 23.6783 40.5409 24.5685 39.8736 25.2249C39.2064 25.8813 38.3014 26.25 37.3578 26.25Z" fill="black"/>
<path d="M46.2526 8.75H10.6735C10.2017 8.75 9.74919 8.93437 9.41558 9.26256C9.08196 9.59075 8.89453 10.0359 8.89453 10.5V45.5C8.89453 45.9641 9.08196 46.4092 9.41558 46.7374C9.74919 47.0656 10.2017 47.25 10.6735 47.25H46.2526C46.7244 47.25 47.1769 47.0656 47.5105 46.7374C47.8441 46.4092 48.0315 45.9641 48.0315 45.5V10.5C48.0315 10.0359 47.8441 9.59075 47.5105 9.26256C47.1769 8.93437 46.7244 8.75 46.2526 8.75ZM19.5683 40.25C18.8646 40.25 18.1767 40.0447 17.5916 39.6601C17.0065 39.2756 16.5505 38.7289 16.2812 38.0894C16.0119 37.4499 15.9414 36.7461 16.0787 36.0672C16.216 35.3883 16.5549 34.7646 17.0524 34.2751C17.55 33.7856 18.184 33.4523 18.8741 33.3173C19.5643 33.1822 20.2797 33.2515 20.9298 33.5164C21.5799 33.7813 22.1356 34.2299 22.5265 34.8055C22.9175 35.3811 23.1262 36.0578 23.1262 36.75C23.1262 37.6783 22.7513 38.5685 22.0841 39.2249C21.4168 39.8813 20.5119 40.25 19.5683 40.25ZM37.3578 26.25C36.6541 26.25 35.9662 26.0447 35.3811 25.6601C34.796 25.2756 34.34 24.7289 34.0707 24.0894C33.8014 23.4499 33.731 22.7461 33.8683 22.0672C34.0055 21.3883 34.3444 20.7646 34.842 20.2751C35.3396 19.7856 35.9735 19.4523 36.6637 19.3173C37.3539 19.1822 38.0692 19.2515 38.7194 19.5164C39.3695 19.7813 39.9251 20.2299 40.3161 20.8055C40.707 21.3811 40.9157 22.0578 40.9157 22.75C40.9157 23.6783 40.5409 24.5685 39.8736 25.2249C39.2064 25.8813 38.3014 26.25 37.3578 26.25Z" fill="url(#paint0_linear_3464_1796)"/>
</g>
<path d="M46.2522 7H10.6731C9.72953 7 8.82456 7.36875 8.15732 8.02513C7.49008 8.6815 7.11523 9.57174 7.11523 10.5V45.5C7.11523 46.4283 7.49008 47.3185 8.15732 47.9749C8.82456 48.6312 9.72953 49 10.6731 49H46.2522C47.1958 49 48.1008 48.6312 48.7681 47.9749C49.4353 47.3185 49.8101 46.4283 49.8101 45.5V10.5C49.8101 9.57174 49.4353 8.6815 48.7681 8.02513C48.1008 7.36875 47.1958 7 46.2522 7ZM19.5679 35C19.9198 35 20.2637 35.1026 20.5562 35.2949C20.8488 35.4872 21.0768 35.7605 21.2115 36.0803C21.3461 36.4001 21.3813 36.7519 21.3127 37.0914C21.244 37.4309 21.0746 37.7427 20.8258 37.9874C20.577 38.2322 20.2601 38.3988 19.915 38.4664C19.5699 38.5339 19.2122 38.4992 18.8871 38.3668C18.5621 38.2343 18.2842 38.01 18.0888 37.7222C17.8933 37.4345 17.789 37.0961 17.789 36.75C17.789 36.2859 17.9764 35.8407 18.31 35.5126C18.6436 35.1844 19.0961 35 19.5679 35ZM10.6731 10.5H17.789V31.8019C16.602 32.2147 15.6016 33.027 14.9646 34.0952C14.3276 35.1634 14.095 36.4188 14.3079 37.6394C14.5208 38.86 15.1655 39.9673 16.128 40.7656C17.0906 41.5638 18.309 42.0016 19.5679 42.0016C20.8269 42.0016 22.0453 41.5638 23.0078 40.7656C23.9703 39.9673 24.615 38.86 24.8279 37.6394C25.0408 36.4188 24.8082 35.1634 24.1712 34.0952C23.5342 33.027 22.5338 32.2147 21.3469 31.8019V25.2241L32.0206 35.7241V45.5H10.6731V10.5ZM46.2522 45.5H35.5785V35C35.5787 34.7701 35.5328 34.5425 35.4435 34.33C35.3543 34.1176 35.2233 33.9245 35.0582 33.7619L21.3469 20.2759V10.5H28.4627V15.75C28.4625 15.9799 28.5084 16.2075 28.5976 16.42C28.6869 16.6324 28.8179 16.8255 28.983 16.9881L32.5409 20.4881C32.1964 21.1939 32.0185 21.9671 32.0206 22.75C32.0206 23.7884 32.3336 24.8034 32.92 25.6667C33.5064 26.5301 34.3399 27.203 35.3151 27.6004C36.2903 27.9977 37.3634 28.1017 38.3986 27.8991C39.4339 27.6966 40.3848 27.1965 41.1312 26.4623C41.8776 25.7281 42.3859 24.7926 42.5918 23.7742C42.7977 22.7558 42.692 21.7002 42.2881 20.7409C41.8841 19.7816 41.2001 18.9617 40.3225 18.3848C39.4448 17.8079 38.413 17.5 37.3575 17.5C36.5614 17.4986 35.7754 17.6744 35.0582 18.0141L32.0206 15.0259V10.5H46.2522V45.5ZM37.3575 21C37.7093 21 38.0532 21.1026 38.3458 21.2949C38.6383 21.4872 38.8664 21.7605 39.001 22.0803C39.1356 22.4001 39.1709 22.7519 39.1022 23.0914C39.0336 23.4309 38.8642 23.7427 38.6154 23.9874C38.3666 24.2322 38.0496 24.3988 37.7045 24.4664C37.3594 24.5339 37.0017 24.4992 36.6767 24.3668C36.3516 24.2343 36.0738 24.01 35.8783 23.7222C35.6828 23.4345 35.5785 23.0961 35.5785 22.75C35.5785 22.2859 35.7659 21.8408 36.0995 21.5126C36.4332 21.1844 36.8857 21 37.3575 21Z" fill="black"/>
<path d="M46.2522 7H10.6731C9.72953 7 8.82456 7.36875 8.15732 8.02513C7.49008 8.6815 7.11523 9.57174 7.11523 10.5V45.5C7.11523 46.4283 7.49008 47.3185 8.15732 47.9749C8.82456 48.6312 9.72953 49 10.6731 49H46.2522C47.1958 49 48.1008 48.6312 48.7681 47.9749C49.4353 47.3185 49.8101 46.4283 49.8101 45.5V10.5C49.8101 9.57174 49.4353 8.6815 48.7681 8.02513C48.1008 7.36875 47.1958 7 46.2522 7ZM19.5679 35C19.9198 35 20.2637 35.1026 20.5562 35.2949C20.8488 35.4872 21.0768 35.7605 21.2115 36.0803C21.3461 36.4001 21.3813 36.7519 21.3127 37.0914C21.244 37.4309 21.0746 37.7427 20.8258 37.9874C20.577 38.2322 20.2601 38.3988 19.915 38.4664C19.5699 38.5339 19.2122 38.4992 18.8871 38.3668C18.5621 38.2343 18.2842 38.01 18.0888 37.7222C17.8933 37.4345 17.789 37.0961 17.789 36.75C17.789 36.2859 17.9764 35.8407 18.31 35.5126C18.6436 35.1844 19.0961 35 19.5679 35ZM10.6731 10.5H17.789V31.8019C16.602 32.2147 15.6016 33.027 14.9646 34.0952C14.3276 35.1634 14.095 36.4188 14.3079 37.6394C14.5208 38.86 15.1655 39.9673 16.128 40.7656C17.0906 41.5638 18.309 42.0016 19.5679 42.0016C20.8269 42.0016 22.0453 41.5638 23.0078 40.7656C23.9703 39.9673 24.615 38.86 24.8279 37.6394C25.0408 36.4188 24.8082 35.1634 24.1712 34.0952C23.5342 33.027 22.5338 32.2147 21.3469 31.8019V25.2241L32.0206 35.7241V45.5H10.6731V10.5ZM46.2522 45.5H35.5785V35C35.5787 34.7701 35.5328 34.5425 35.4435 34.33C35.3543 34.1176 35.2233 33.9245 35.0582 33.7619L21.3469 20.2759V10.5H28.4627V15.75C28.4625 15.9799 28.5084 16.2075 28.5976 16.42C28.6869 16.6324 28.8179 16.8255 28.983 16.9881L32.5409 20.4881C32.1964 21.1939 32.0185 21.9671 32.0206 22.75C32.0206 23.7884 32.3336 24.8034 32.92 25.6667C33.5064 26.5301 34.3399 27.203 35.3151 27.6004C36.2903 27.9977 37.3634 28.1017 38.3986 27.8991C39.4339 27.6966 40.3848 27.1965 41.1312 26.4623C41.8776 25.7281 42.3859 24.7926 42.5918 23.7742C42.7977 22.7558 42.692 21.7002 42.2881 20.7409C41.8841 19.7816 41.2001 18.9617 40.3225 18.3848C39.4448 17.8079 38.413 17.5 37.3575 17.5C36.5614 17.4986 35.7754 17.6744 35.0582 18.0141L32.0206 15.0259V10.5H46.2522V45.5ZM37.3575 21C37.7093 21 38.0532 21.1026 38.3458 21.2949C38.6383 21.4872 38.8664 21.7605 39.001 22.0803C39.1356 22.4001 39.1709 22.7519 39.1022 23.0914C39.0336 23.4309 38.8642 23.7427 38.6154 23.9874C38.3666 24.2322 38.0496 24.3988 37.7045 24.4664C37.3594 24.5339 37.0017 24.4992 36.6767 24.3668C36.3516 24.2343 36.0738 24.01 35.8783 23.7222C35.6828 23.4345 35.5785 23.0961 35.5785 22.75C35.5785 22.2859 35.7659 21.8408 36.0995 21.5126C36.4332 21.1844 36.8857 21 37.3575 21Z" fill="url(#paint1_linear_3464_1796)"/>
<defs>
<linearGradient id="paint0_linear_3464_1796" x1="-915.889" y1="51.3511" x2="-914.079" y2="-24.4427" gradientUnits="userSpaceOnUse">
<stop stop-color="#E8DF38"/>
<stop offset="1" stop-color="#41D882"/>
</linearGradient>
<linearGradient id="paint1_linear_3464_1796" x1="-1001.74" y1="53.4739" x2="-999.765" y2="-29.2102" gradientUnits="userSpaceOnUse">
<stop stop-color="#E8DF38"/>
<stop offset="1" stop-color="#41D882"/>
</linearGradient>
</defs>
</svg>
