<svg width="91" height="90" viewBox="0 0 91 90" fill="none" xmlns="http://www.w3.org/2000/svg">
<g opacity="0.2">
<path d="M84.8781 44.999C84.8781 52.4582 81.9149 59.6119 76.6404 64.8864C71.366 70.1608 64.2123 73.124 56.7531 73.124H25.8156C23.024 73.1206 20.2651 72.5235 17.7219 71.3724C15.1787 70.2214 12.9094 68.5426 11.0645 66.4476C9.21965 64.3526 7.8414 61.8891 7.02124 59.2208C6.20107 56.5524 5.95774 53.7402 6.30739 50.9706C6.65704 48.201 7.59167 45.5375 9.04928 43.1567C10.5069 40.7759 12.4541 38.7323 14.7618 37.1615C17.0695 35.5908 19.6848 34.5287 22.4343 34.0458C25.1838 33.5629 28.0045 33.6703 30.7093 34.3607V34.3959C33.1704 28.3592 37.6521 23.365 43.3881 20.2671C49.1241 17.1693 55.7581 16.1602 62.1558 17.4125C68.5535 18.6648 74.3174 22.1007 78.4621 27.1326C82.6067 32.1645 84.8747 38.4799 84.8781 44.999Z" fill="black"/>
<path d="M84.8781 44.999C84.8781 52.4582 81.9149 59.6119 76.6404 64.8864C71.366 70.1608 64.2123 73.124 56.7531 73.124H25.8156C23.024 73.1206 20.2651 72.5235 17.7219 71.3724C15.1787 70.2214 12.9094 68.5426 11.0645 66.4476C9.21965 64.3526 7.8414 61.8891 7.02124 59.2208C6.20107 56.5524 5.95774 53.7402 6.30739 50.9706C6.65704 48.201 7.59167 45.5375 9.04928 43.1567C10.5069 40.7759 12.4541 38.7323 14.7618 37.1615C17.0695 35.5908 19.6848 34.5287 22.4343 34.0458C25.1838 33.5629 28.0045 33.6703 30.7093 34.3607V34.3959C33.1704 28.3592 37.6521 23.365 43.3881 20.2671C49.1241 17.1693 55.7581 16.1602 62.1558 17.4125C68.5535 18.6648 74.3174 22.1007 78.4621 27.1326C82.6067 32.1645 84.8747 38.4799 84.8781 44.999Z" fill="url(#paint0_linear_5301_1061)"/>
</g>
<path d="M56.7506 14.0625C51.005 14.0669 45.3739 15.6696 40.487 18.6914C35.6002 21.7131 31.6503 26.0348 29.0791 31.173C26.0204 30.7269 22.9026 30.9159 19.9201 31.7281C16.9376 32.5403 14.1545 33.9583 11.7443 35.8937C9.33405 37.8291 7.34849 40.2404 5.91143 42.9771C4.47436 45.7139 3.61661 48.7174 3.39168 51.8003C3.16675 54.8832 3.57947 57.9793 4.60409 60.8957C5.62871 63.812 7.24325 66.486 9.34701 68.7507C11.4508 71.0154 13.9986 72.8224 16.8316 74.0589C19.6646 75.2954 22.722 75.9349 25.8131 75.9375H56.7506C64.9558 75.9375 72.8248 72.678 78.6267 66.8761C84.4287 61.0742 87.6881 53.2051 87.6881 45C87.6881 36.7949 84.4287 28.9258 78.6267 23.1239C72.8248 17.322 64.9558 14.0625 56.7506 14.0625ZM56.7506 70.3125H25.8131C21.3376 70.3125 17.0454 68.5346 13.8807 65.3699C10.716 62.2052 8.93814 57.913 8.93814 53.4375C8.93814 48.962 10.716 44.6697 13.8807 41.5051C17.0454 38.3404 21.3376 36.5625 25.8131 36.5625C26.1999 36.5625 26.5866 36.5625 26.9698 36.6012C26.2006 39.3344 25.8114 42.1606 25.8131 45C25.8131 45.7459 26.1094 46.4613 26.6369 46.9887C27.1643 47.5162 27.8797 47.8125 28.6256 47.8125C29.3716 47.8125 30.0869 47.5162 30.6144 46.9887C31.1418 46.4613 31.4381 45.7459 31.4381 45C31.4381 39.9937 32.9227 35.0997 35.7041 30.9371C38.4854 26.7745 42.4387 23.5301 47.064 21.6143C51.6892 19.6985 56.7787 19.1972 61.6889 20.1739C66.599 21.1506 71.1093 23.5613 74.6493 27.1014C78.1893 30.6414 80.6001 35.1516 81.5768 40.0618C82.5534 44.9719 82.0522 50.0614 80.1363 54.6867C78.2205 59.3119 74.9761 63.2652 70.8135 66.0466C66.6509 68.8279 61.757 70.3125 56.7506 70.3125ZM69.9905 37.3852C70.252 37.6464 70.4594 37.9565 70.601 38.298C70.7425 38.6394 70.8153 39.0054 70.8153 39.375C70.8153 39.7446 70.7425 40.1106 70.601 40.452C70.4594 40.7934 70.252 41.1036 69.9905 41.3648L53.1155 58.2398C52.8543 58.5013 52.5441 58.7088 52.2027 58.8503C51.8612 58.9919 51.4952 59.0647 51.1256 59.0647C50.756 59.0647 50.39 58.9919 50.0486 58.8503C49.7072 58.7088 49.397 58.5013 49.1358 58.2398L40.6983 49.8023C40.1705 49.2746 39.8741 48.5588 39.8741 47.8125C39.8741 47.0662 40.1705 46.3504 40.6983 45.8227C41.226 45.2949 41.9418 44.9984 42.6881 44.9984C43.4345 44.9984 44.1502 45.2949 44.678 45.8227L51.1256 52.2738L66.0108 37.3852C66.272 37.1237 66.5822 36.9162 66.9236 36.7747C67.265 36.6331 67.631 36.5603 68.0006 36.5603C68.3702 36.5603 68.7362 36.6331 69.0777 36.7747C69.4191 36.9162 69.7293 37.1237 69.9905 37.3852Z" fill="black"/>
<path d="M56.7506 14.0625C51.005 14.0669 45.3739 15.6696 40.487 18.6914C35.6002 21.7131 31.6503 26.0348 29.0791 31.173C26.0204 30.7269 22.9026 30.9159 19.9201 31.7281C16.9376 32.5403 14.1545 33.9583 11.7443 35.8937C9.33405 37.8291 7.34849 40.2404 5.91143 42.9771C4.47436 45.7139 3.61661 48.7174 3.39168 51.8003C3.16675 54.8832 3.57947 57.9793 4.60409 60.8957C5.62871 63.812 7.24325 66.486 9.34701 68.7507C11.4508 71.0154 13.9986 72.8224 16.8316 74.0589C19.6646 75.2954 22.722 75.9349 25.8131 75.9375H56.7506C64.9558 75.9375 72.8248 72.678 78.6267 66.8761C84.4287 61.0742 87.6881 53.2051 87.6881 45C87.6881 36.7949 84.4287 28.9258 78.6267 23.1239C72.8248 17.322 64.9558 14.0625 56.7506 14.0625ZM56.7506 70.3125H25.8131C21.3376 70.3125 17.0454 68.5346 13.8807 65.3699C10.716 62.2052 8.93814 57.913 8.93814 53.4375C8.93814 48.962 10.716 44.6697 13.8807 41.5051C17.0454 38.3404 21.3376 36.5625 25.8131 36.5625C26.1999 36.5625 26.5866 36.5625 26.9698 36.6012C26.2006 39.3344 25.8114 42.1606 25.8131 45C25.8131 45.7459 26.1094 46.4613 26.6369 46.9887C27.1643 47.5162 27.8797 47.8125 28.6256 47.8125C29.3716 47.8125 30.0869 47.5162 30.6144 46.9887C31.1418 46.4613 31.4381 45.7459 31.4381 45C31.4381 39.9937 32.9227 35.0997 35.7041 30.9371C38.4854 26.7745 42.4387 23.5301 47.064 21.6143C51.6892 19.6985 56.7787 19.1972 61.6889 20.1739C66.599 21.1506 71.1093 23.5613 74.6493 27.1014C78.1893 30.6414 80.6001 35.1516 81.5768 40.0618C82.5534 44.9719 82.0522 50.0614 80.1363 54.6867C78.2205 59.3119 74.9761 63.2652 70.8135 66.0466C66.6509 68.8279 61.757 70.3125 56.7506 70.3125ZM69.9905 37.3852C70.252 37.6464 70.4594 37.9565 70.601 38.298C70.7425 38.6394 70.8153 39.0054 70.8153 39.375C70.8153 39.7446 70.7425 40.1106 70.601 40.452C70.4594 40.7934 70.252 41.1036 69.9905 41.3648L53.1155 58.2398C52.8543 58.5013 52.5441 58.7088 52.2027 58.8503C51.8612 58.9919 51.4952 59.0647 51.1256 59.0647C50.756 59.0647 50.39 58.9919 50.0486 58.8503C49.7072 58.7088 49.397 58.5013 49.1358 58.2398L40.6983 49.8023C40.1705 49.2746 39.8741 48.5588 39.8741 47.8125C39.8741 47.0662 40.1705 46.3504 40.6983 45.8227C41.226 45.2949 41.9418 44.9984 42.6881 44.9984C43.4345 44.9984 44.1502 45.2949 44.678 45.8227L51.1256 52.2738L66.0108 37.3852C66.272 37.1237 66.5822 36.9162 66.9236 36.7747C67.265 36.6331 67.631 36.5603 68.0006 36.5603C68.3702 36.5603 68.7362 36.6331 69.0777 36.7747C69.4191 36.9162 69.7293 37.1237 69.9905 37.3852Z" fill="url(#paint1_linear_5301_1061)"/>
<defs>
<linearGradient id="paint0_linear_5301_1061" x1="-1854.09" y1="79.1143" x2="-1852.17" y2="-31.6243" gradientUnits="userSpaceOnUse">
<stop stop-color="#E8DF38"/>
<stop offset="1" stop-color="#41D882"/>
</linearGradient>
<linearGradient id="paint1_linear_5301_1061" x1="-1989.95" y1="82.5286" x2="-1987.78" y2="-39.3137" gradientUnits="userSpaceOnUse">
<stop stop-color="#E8DF38"/>
<stop offset="1" stop-color="#41D882"/>
</linearGradient>
</defs>
</svg>
