<svg width="72" height="73" viewBox="0 0 72 73" fill="none" xmlns="http://www.w3.org/2000/svg">
<path d="M55.6717 39.6035C46.7284 39.6035 39.4531 46.88 39.4531 55.8221C39.4531 64.7655 46.7296 72.0407 55.6717 72.0407C64.6151 72.0407 71.8915 64.7655 71.8915 55.8221C71.8903 46.8788 64.6139 39.6035 55.6717 39.6035ZM55.6717 69.6526C48.0454 69.6526 41.8412 63.4484 41.8412 55.8221C41.8412 48.1958 48.0454 41.9916 55.6717 41.9916C63.298 41.9916 69.5035 48.1958 69.5035 55.8221C69.5023 63.4484 63.298 69.6526 55.6717 69.6526Z" fill="url(#paint0_linear_3820_4690)"/>
<path d="M71.8904 40.6387H66.3906C67.3865 41.3432 68.3071 42.1444 69.1465 43.0267H71.8904V40.6387Z" fill="url(#paint1_linear_3820_4690)"/>
<path d="M37.0658 55.8221C37.0658 51.5296 38.5405 47.5845 40.9918 44.4322H28.4198V28.5683H44.2838V41.1403C47.4361 38.6901 51.3811 37.2155 55.6725 37.2155C58.5776 37.2155 61.3191 37.9044 63.7705 39.0961V37.6943H71.8911V35.3062H63.7705V32.3617H71.8911V29.9736H63.7705V27.0291H71.8911V24.6411H63.7705V21.6966H71.8911V19.3085H63.7705V16.364H71.8911V13.9759H63.7705V9.08158H58.8761V0.960938H56.488V9.08158H53.5436V0.960938H51.1555V9.08158H48.211V0.960938H45.8229V9.08158H42.8784V0.960938H40.4903V9.08158H37.5458V0.960938H35.1578V9.08158H32.2133V0.960938H29.8252V9.08158H26.8807V0.960938H24.4926V9.08158H21.5481V0.960938H19.1601V9.08158H16.2156V0.960938H13.8275V9.08158H8.93314V13.9759H0.8125V16.364H8.93314V19.3085H0.8125V21.6966H8.93314V24.6411H0.8125V27.0291H8.93314V29.9736H0.8125V32.3617H8.93314V35.3062H0.8125V37.6943H8.93314V40.6388H0.8125V43.0269H8.93314V45.9713H0.8125V48.3594H8.93314V51.3039H0.8125V53.692H8.93314V56.6365H0.8125V59.0246H8.93314V63.9189H13.8275V72.0396H16.2156V63.9189H19.1601V72.0396H21.5481V63.9189H24.4926V72.0396H26.8807V63.9189H29.8252V72.0396H32.2133V63.9189H35.1578V72.0396H37.5458V63.9189H38.9464C37.7548 61.4676 37.0658 58.7272 37.0658 55.8221Z" fill="url(#paint2_linear_3820_4690)"/>
<path d="M60.9869 57.9434C61.2161 57.369 61.3439 56.7469 61.3761 56.0998C61.9182 56.0377 62.4902 55.9624 63.1373 55.8598C65.6567 55.461 67.3284 55.1195 68.9153 54.1965C68.5726 51.3988 67.3618 48.8735 65.5612 46.8842C64.3194 49.0657 62.9845 50.1929 60.8066 51.8215C60.5749 51.9947 60.3648 52.1439 60.1546 52.2944C59.763 51.7976 59.3045 51.3618 58.7719 51.0167C58.988 50.5188 59.2066 49.9875 59.4394 49.3797C60.3564 46.994 60.8913 45.3725 60.883 43.5337C59.283 42.8531 57.5218 42.4746 55.677 42.4746C54.7134 42.4746 53.7761 42.5821 52.8698 42.7767C54.145 44.951 54.4543 46.6717 54.7779 49.3797C54.8113 49.6651 54.8364 49.9218 54.8603 50.1773C54.2214 50.2693 53.622 50.4663 53.0692 50.7517C52.7432 50.3111 52.3934 49.8538 51.979 49.3415C50.3766 47.363 49.2471 46.0866 47.659 45.1755C45.4895 46.8137 43.8297 49.0884 42.976 51.7308C45.4966 51.7129 47.1408 52.3063 49.6471 53.3809C49.9062 53.492 50.1355 53.5971 50.3659 53.7021C50.1355 54.2765 50.0077 54.8974 49.9754 55.5457C49.4334 55.6078 48.8614 55.6842 48.2154 55.7857C45.6948 56.1857 44.0232 56.526 42.4375 57.449C42.779 60.2467 43.9909 62.772 45.7915 64.7613C47.0345 62.5798 48.3695 61.4526 50.5474 59.824C50.7778 59.6508 50.988 59.5016 51.1993 59.3511C51.591 59.8467 52.0495 60.2849 52.582 60.6287C52.3659 61.1267 52.1474 61.658 51.9146 62.2658C50.9975 64.6515 50.4626 66.2742 50.471 68.113C52.071 68.7936 53.831 69.1709 55.677 69.1709C56.6406 69.1709 57.5779 69.0634 58.4842 68.8676C57.2089 66.6933 56.8997 64.9727 56.5773 62.2658C56.5427 61.9804 56.5188 61.7237 56.4949 61.4682C57.1337 61.3762 57.7331 61.1792 58.2859 60.8938C58.6119 61.3344 58.9618 61.7917 59.3761 62.3028C60.9785 64.2825 62.1081 65.5577 63.6949 66.47C65.8645 64.8318 67.5254 62.5571 68.3779 59.9147C65.8585 59.9326 64.2132 59.3404 61.7069 58.2657C61.4454 58.1523 61.2161 58.0472 60.9869 57.9434ZM55.6758 59.1613C53.8334 59.1613 52.3349 57.6628 52.3349 55.8216C52.3349 53.9792 53.8334 52.4806 55.6758 52.4806C57.5182 52.4806 59.0167 53.9792 59.0167 55.8216C59.0155 57.664 57.5182 59.1613 55.6758 59.1613Z" fill="url(#paint3_linear_3820_4690)"/>
<defs>
<linearGradient id="paint0_linear_3820_4690" x1="-727.047" y1="75.496" x2="-725.497" y2="11.6391" gradientUnits="userSpaceOnUse">
<stop stop-color="#E8DF38"/>
<stop offset="1" stop-color="#41D882"/>
</linearGradient>
<linearGradient id="paint1_linear_3820_4690" x1="-63.5648" y1="43.2811" x2="-63.5153" y2="38.5776" gradientUnits="userSpaceOnUse">
<stop stop-color="#E8DF38"/>
<stop offset="1" stop-color="#41D882"/>
</linearGradient>
<linearGradient id="paint2_linear_3820_4690" x1="-1678.73" y1="79.611" x2="-1675.34" y2="-60.3167" gradientUnits="userSpaceOnUse">
<stop stop-color="#E8DF38"/>
<stop offset="1" stop-color="#41D882"/>
</linearGradient>
<linearGradient id="paint3_linear_3820_4690" x1="-583.216" y1="72.0146" x2="-581.93" y2="19.46" gradientUnits="userSpaceOnUse">
<stop stop-color="#E8DF38"/>
<stop offset="1" stop-color="#41D882"/>
</linearGradient>
</defs>
</svg>
