<svg width="72" height="97" viewBox="0 0 72 97" fill="none" xmlns="http://www.w3.org/2000/svg">
<path d="M14.0742 35.499C14.0742 41.0621 18.5822 45.5684 24.1436 45.5684C29.7049 45.5684 34.2129 41.0604 34.2129 35.499C34.2129 29.9377 29.7049 25.4297 24.1436 25.4297C18.5822 25.4297 14.0742 29.9377 14.0742 35.499ZM28.7981 37.6876C29.48 38.3695 29.48 39.4717 28.7981 40.1535C28.1162 40.8354 27.0141 40.8354 26.3322 40.1535C25.6503 39.4717 25.6503 38.3695 26.3322 37.6876C27.0141 37.0058 28.1162 37.0058 28.7981 37.6876ZM21.9549 37.6876C22.6368 38.3695 22.6368 39.4717 21.9549 40.1535C21.2731 40.8354 20.1709 40.8354 19.489 40.1535C18.8072 39.4717 18.8072 38.3695 19.489 37.6876C20.1709 37.0058 21.2731 37.0058 21.9549 37.6876ZM28.7981 30.8445C29.48 31.5264 29.48 32.6285 28.7981 33.3104C28.1162 33.9923 27.0141 33.9923 26.3322 33.3104C25.6503 32.6285 25.6503 31.5264 26.3322 30.8445C27.0141 30.1626 28.1162 30.1626 28.7981 30.8445ZM21.9549 30.8445C22.6368 31.5264 22.6368 32.6285 21.9549 33.3104C21.2731 33.9923 20.1709 33.9923 19.489 33.3104C18.8072 32.6285 18.8072 31.5264 19.489 30.8445C20.1709 30.1626 21.2731 30.1626 21.9549 30.8445Z" fill="url(#paint0_linear_3820_4708)"/>
<path d="M53.9684 59.1462C54.6503 59.8263 55.7542 59.8263 56.4343 59.1462C57.1162 58.4643 57.1162 57.3604 56.4343 56.6803C55.7542 55.9984 54.6503 55.9984 53.9684 56.6803C53.2866 57.3586 53.2866 58.4643 53.9684 59.1462Z" fill="url(#paint1_linear_3820_4708)"/>
<path d="M70.1076 0.00195312H2.59548C1.63109 0.00195312 0.851562 0.783227 0.851562 1.74587V95.2528C0.851562 96.2155 1.63109 96.9968 2.59548 96.9968H70.1076C71.072 96.9968 71.8516 96.2155 71.8516 95.2528V1.74587C71.8516 0.784971 71.072 0.00195312 70.1076 0.00195312ZM4.34115 1.74587C5.30379 1.74587 6.08506 2.52714 6.08506 3.48978C6.08506 4.45417 5.30379 5.2337 4.34115 5.2337C3.37676 5.2337 2.59723 4.45417 2.59723 3.48978C2.59723 2.52889 3.37676 1.74587 4.34115 1.74587ZM4.34115 95.2546C3.37676 95.2546 2.59723 94.4733 2.59723 93.5107C2.59723 92.5463 3.37676 91.7668 4.34115 91.7668C5.30379 91.7668 6.08506 92.5463 6.08506 93.5107C6.08506 94.4716 5.30205 95.2546 4.34115 95.2546ZM36.3524 68.0338C31.738 68.0338 27.3678 67.0276 23.4109 65.2575L19.8777 70.3654C19.5498 71.0177 19.1418 71.5914 18.6674 72.071C17.4013 73.3353 15.7237 74.0294 13.9397 74.0294C11.8801 74.0294 9.96349 73.0964 8.67997 71.4676C7.53945 70.0202 7.09654 68.0687 7.46102 66.1155C7.8656 63.9461 9.03051 62.3661 10.9227 61.4139L14.2884 59.0841C8.32945 53.3134 4.61145 45.2426 4.61145 36.2946C4.61145 18.763 18.8209 4.55355 36.3524 4.55355C53.8823 4.55355 68.0934 18.763 68.0934 36.2946C68.0934 53.8227 53.8823 68.0338 36.3524 68.0338ZM68.3637 95.2546C67.4011 95.2546 66.6198 94.4733 66.6198 93.5107C66.6198 92.5463 67.4011 91.7668 68.3637 91.7668C69.3281 91.7668 70.1076 92.5463 70.1076 93.5107C70.1076 94.4716 69.3281 95.2546 68.3637 95.2546ZM68.3637 5.2337C67.4011 5.2337 66.6198 4.45417 66.6198 3.48978C66.6198 2.52714 67.4011 1.74587 68.3637 1.74587C69.3281 1.74587 70.1076 2.52714 70.1076 3.48978C70.1076 4.45417 69.3281 5.2337 68.3637 5.2337Z" fill="url(#paint2_linear_3820_4708)"/>
<path d="M38.9801 43.0102L50.7672 60.0448C51.3462 61.2481 52.3228 62.3119 54.2847 62.6781C55.6572 62.9344 57.1395 62.6694 58.2381 61.8044C60.6046 59.9384 60.7546 56.4924 58.6881 54.4241C58.2835 54.0196 57.8196 53.7213 57.3313 53.4859L40.295 41.697C39.43 41.1006 38.3837 42.147 38.9801 43.0102ZM57.6208 55.4897C58.9619 56.829 58.9619 59.0002 57.6208 60.3395C56.2815 61.6771 54.1103 61.6771 52.771 60.3395C51.4316 58.9984 51.4316 56.8272 52.771 55.4897C54.1103 54.1486 56.2832 54.1486 57.6208 55.4897Z" fill="url(#paint3_linear_3820_4708)"/>
<defs>
<linearGradient id="paint0_linear_3820_4708" x1="36.3581" y1="521.433" x2="-3.28753" y2="520.471" gradientUnits="userSpaceOnUse">
<stop stop-color="#E8DF38"/>
<stop offset="1" stop-color="#41D882"/>
</linearGradient>
<linearGradient id="paint1_linear_3820_4708" x1="57.3174" y1="142.061" x2="50.4494" y2="141.895" gradientUnits="userSpaceOnUse">
<stop stop-color="#E8DF38"/>
<stop offset="1" stop-color="#41D882"/>
</linearGradient>
<linearGradient id="paint2_linear_3820_4708" x1="-1676.84" y1="107.329" x2="-1670.51" y2="-83.5209" gradientUnits="userSpaceOnUse">
<stop stop-color="#E8DF38"/>
<stop offset="1" stop-color="#41D882"/>
</linearGradient>
<linearGradient id="paint3_linear_3820_4708" x1="62.4051" y1="564.893" x2="20.4174" y2="563.87" gradientUnits="userSpaceOnUse">
<stop stop-color="#E8DF38"/>
<stop offset="1" stop-color="#41D882"/>
</linearGradient>
</defs>
</svg>
