<svg width="56" height="56" viewBox="0 0 56 56" fill="none" xmlns="http://www.w3.org/2000/svg">
<path opacity="0.2" d="M45.4683 26.947L49.1389 22.3532C48.6438 20.4921 47.903 18.7052 46.9361 17.0398L41.0955 16.3835C40.6289 15.8578 40.1314 15.3604 39.6058 14.8938L38.9495 9.05102C37.2822 8.08989 35.4948 7.35431 33.6339 6.86352L29.0402 10.532C28.3379 10.4904 27.6337 10.4904 26.9314 10.532L22.3377 6.86133C20.4826 7.35788 18.7017 8.09863 17.0417 9.06414L16.3855 14.9048C15.8598 15.3713 15.3624 15.8688 14.8958 16.3945L9.05297 17.0507C8.09185 18.718 7.35626 20.5055 6.86547 22.3663L10.5339 26.9601C10.4923 27.6624 10.4923 28.3665 10.5339 29.0688L6.86328 33.6626C7.35837 35.5237 8.09916 37.3105 9.06609 38.976L14.9067 39.6323C15.3733 40.1579 15.8707 40.6554 16.3964 41.122L17.0527 46.9648C18.72 47.9259 20.5074 48.6615 22.3683 49.1523L26.962 45.4838C27.6643 45.5254 28.3685 45.5254 29.0708 45.4838L33.6645 49.1545C35.5256 48.6594 37.3125 47.9186 38.978 46.9516L39.6342 41.111C40.1599 40.6444 40.6573 40.147 41.1239 39.6213L46.9667 38.9651C47.9278 37.2978 48.6634 35.5103 49.1542 33.6495L45.4858 29.0557C45.5215 28.3531 45.5157 27.6489 45.4683 26.947ZM27.9989 36.7513C26.2683 36.7513 24.5766 36.2381 23.1377 35.2767C21.6987 34.3152 20.5772 32.9487 19.915 31.3498C19.2527 29.751 19.0794 27.9916 19.417 26.2943C19.7547 24.597 20.588 23.0379 21.8117 21.8141C23.0354 20.5904 24.5945 19.7571 26.2919 19.4195C27.9892 19.0818 29.7485 19.2551 31.3474 19.9174C32.9462 20.5796 34.3128 21.7012 35.2743 23.1401C36.2357 24.579 36.7489 26.2707 36.7489 28.0013C36.7489 30.322 35.827 32.5476 34.1861 34.1885C32.5451 35.8295 30.3195 36.7513 27.9989 36.7513Z" fill="black"/>
<path d="M27.9996 17.4986C25.9229 17.4986 23.8928 18.1145 22.1661 19.2682C20.4394 20.422 19.0936 22.0618 18.2989 23.9805C17.5042 25.8991 17.2962 28.0103 17.7014 30.0471C18.1065 32.0839 19.1065 33.9548 20.575 35.4233C22.0434 36.8917 23.9144 37.8917 25.9512 38.2969C27.988 38.702 30.0992 38.4941 32.0178 37.6994C33.9364 36.9047 35.5763 35.5588 36.73 33.8321C37.8838 32.1054 38.4996 30.0753 38.4996 27.9986C38.4967 25.2148 37.3895 22.5457 35.421 20.5772C33.4525 18.6087 30.7835 17.5015 27.9996 17.4986ZM27.9996 34.9986C26.6151 34.9986 25.2618 34.5881 24.1106 33.8189C22.9595 33.0498 22.0623 31.9565 21.5325 30.6774C21.0026 29.3983 20.864 27.9909 21.1341 26.633C21.4042 25.2751 22.0709 24.0279 23.0499 23.0489C24.0288 22.0699 25.2761 21.4032 26.634 21.1331C27.9918 20.863 29.3993 21.0017 30.6784 21.5315C31.9575 22.0613 33.0507 22.9585 33.8199 24.1096C34.5891 25.2608 34.9996 26.6142 34.9996 27.9986C34.9996 29.8552 34.2621 31.6356 32.9494 32.9484C31.6366 34.2611 29.8561 34.9986 27.9996 34.9986ZM47.2496 28.4711C47.2584 28.1561 47.2584 27.8411 47.2496 27.5261L50.5134 23.4486C50.6845 23.2345 50.8029 22.9833 50.8592 22.715C50.9154 22.4468 50.9079 22.1691 50.8371 21.9043C50.3011 19.8934 49.5008 17.9625 48.4571 16.1621C48.3203 15.9265 48.1305 15.7261 47.9026 15.5769C47.6747 15.4276 47.4152 15.3337 47.1446 15.3024L41.9559 14.7249C41.74 14.4974 41.5213 14.2786 41.2996 14.0686L40.6871 8.86676C40.6556 8.59597 40.5613 8.33629 40.4116 8.10842C40.262 7.88055 40.0612 7.69078 39.8252 7.55426C38.0249 6.51137 36.0939 5.71249 34.083 5.17864C33.8183 5.10789 33.5406 5.10033 33.2723 5.15657C33.0041 5.2128 32.7528 5.33125 32.5387 5.50238L28.4721 8.74863C28.1571 8.74863 27.8421 8.74863 27.5271 8.74863L23.4496 5.49145C23.2355 5.32032 22.9842 5.20186 22.716 5.14563C22.4477 5.08939 22.17 5.09695 21.9052 5.1677C19.8944 5.70369 17.9635 6.504 16.163 7.5477C15.9275 7.68447 15.7271 7.87435 15.5779 8.1022C15.4286 8.33006 15.3346 8.58961 15.3034 8.8602L14.7259 14.0577C14.4984 14.275 14.2796 14.4937 14.0696 14.7139L8.86774 15.3111C8.59695 15.3426 8.33727 15.437 8.1094 15.5866C7.88152 15.7362 7.69176 15.937 7.55524 16.173C6.51256 17.9737 5.713 19.9045 5.17742 21.9152C5.10698 22.1802 5.09977 22.458 5.15639 22.7262C5.213 22.9945 5.33186 23.2457 5.50336 23.4596L8.74961 27.5261C8.74961 27.8411 8.74961 28.1561 8.74961 28.4711L5.49242 32.5486C5.32129 32.7627 5.20284 33.014 5.1466 33.2823C5.09037 33.5505 5.09793 33.8282 5.16867 34.093C5.70467 36.1039 6.50498 38.0348 7.54867 39.8352C7.68545 40.0708 7.87532 40.2711 8.10318 40.4204C8.33104 40.5696 8.59059 40.6636 8.86117 40.6949L14.0499 41.2724C14.2672 41.4999 14.486 41.7186 14.7062 41.9286L15.3121 47.1305C15.3436 47.4013 15.4379 47.661 15.5876 47.8889C15.7372 48.1167 15.938 48.3065 16.174 48.443C17.9747 49.4857 19.9055 50.2852 21.9162 50.8208C22.1811 50.8913 22.4589 50.8985 22.7272 50.8419C22.9955 50.7852 23.2467 50.6664 23.4605 50.4949L27.5271 47.2486C27.8421 47.2574 28.1571 47.2574 28.4721 47.2486L32.5496 50.5124C32.7637 50.6835 33.015 50.802 33.2832 50.8582C33.5515 50.9144 33.8292 50.9069 34.094 50.8361C36.1052 50.3011 38.0362 49.5007 39.8362 48.4561C40.0717 48.3194 40.2721 48.1295 40.4214 47.9016C40.5706 47.6738 40.6646 47.4142 40.6959 47.1436L41.2734 41.9549C41.5009 41.7391 41.7196 41.5203 41.9296 41.2986L47.1315 40.6861C47.4023 40.6546 47.662 40.5603 47.8898 40.4107C48.1177 40.261 48.3075 40.0602 48.444 39.8243C49.4867 38.0236 50.2862 36.0927 50.8218 34.0821C50.8922 33.8171 50.8994 33.5393 50.8428 33.2711C50.7862 33.0028 50.6674 32.7516 50.4959 32.5377L47.2496 28.4711ZM43.7277 27.0493C43.7649 27.6816 43.7649 28.3156 43.7277 28.948C43.7017 29.381 43.8373 29.8082 44.1084 30.1468L47.2124 34.0252C46.8562 35.1572 46.4002 36.2552 45.8496 37.3064L40.9059 37.8664C40.4753 37.9142 40.0778 38.12 39.7902 38.4439C39.3692 38.9175 38.9207 39.366 38.4471 39.7871C38.1232 40.0747 37.9174 40.4722 37.8696 40.9027L37.3205 45.8421C36.2694 46.3929 35.1714 46.849 34.0393 47.2049L30.1587 44.1008C29.8481 43.8527 29.4624 43.7177 29.0649 43.718H28.9599C28.3276 43.7552 27.6935 43.7552 27.0612 43.718C26.6284 43.6932 26.2016 43.8287 25.8624 44.0986L21.973 47.2049C20.8411 46.8487 19.743 46.3926 18.6918 45.8421L18.1318 40.9049C18.084 40.4744 17.8782 40.0768 17.5543 39.7893C17.0807 39.3682 16.6322 38.9197 16.2112 38.4461C15.9236 38.1222 15.5261 37.9164 15.0955 37.8686L10.1562 37.3174C9.60534 36.2663 9.14927 35.1682 8.79336 34.0361L11.8974 30.1555C12.1685 29.8169 12.3041 29.3897 12.278 28.9568C12.2409 28.3244 12.2409 27.6904 12.278 27.058C12.3041 26.6251 12.1685 26.1979 11.8974 25.8593L8.79336 21.9721C9.14954 20.8401 9.60561 19.742 10.1562 18.6908L15.0934 18.1308C15.5239 18.083 15.9214 17.8773 16.209 17.5533C16.6301 17.0797 17.0785 16.6313 17.5521 16.2102C17.8773 15.9224 18.084 15.524 18.1318 15.0924L18.6809 10.1552C19.732 9.60437 20.8301 9.14829 21.9621 8.79239L25.8427 11.8964C26.1813 12.1675 26.6085 12.3031 27.0415 12.2771C27.6739 12.2399 28.3079 12.2399 28.9402 12.2771C29.373 12.3019 29.7998 12.1664 30.139 11.8964L34.0262 8.79239C35.1581 9.14857 36.2562 9.60463 37.3074 10.1552L37.8674 15.0924C37.9152 15.5229 38.121 15.9204 38.4449 16.208C38.9185 16.6291 39.367 17.0776 39.788 17.5511C40.0756 17.8751 40.4731 18.0808 40.9037 18.1286L45.8431 18.6777C46.3939 19.7288 46.85 20.8269 47.2059 21.9589L44.1018 25.8396C43.8281 26.181 43.6923 26.6126 43.7212 27.0493H43.7277Z" fill="black"/>
<path d="M27.9996 17.4986C25.9229 17.4986 23.8928 18.1145 22.1661 19.2682C20.4394 20.422 19.0936 22.0618 18.2989 23.9805C17.5042 25.8991 17.2962 28.0103 17.7014 30.0471C18.1065 32.0839 19.1065 33.9548 20.575 35.4233C22.0434 36.8917 23.9144 37.8917 25.9512 38.2969C27.988 38.702 30.0992 38.4941 32.0178 37.6994C33.9364 36.9047 35.5763 35.5588 36.73 33.8321C37.8838 32.1054 38.4996 30.0753 38.4996 27.9986C38.4967 25.2148 37.3895 22.5457 35.421 20.5772C33.4525 18.6087 30.7835 17.5015 27.9996 17.4986ZM27.9996 34.9986C26.6151 34.9986 25.2618 34.5881 24.1106 33.8189C22.9595 33.0498 22.0623 31.9565 21.5325 30.6774C21.0026 29.3983 20.864 27.9909 21.1341 26.633C21.4042 25.2751 22.0709 24.0279 23.0499 23.0489C24.0288 22.0699 25.2761 21.4032 26.634 21.1331C27.9918 20.863 29.3993 21.0017 30.6784 21.5315C31.9575 22.0613 33.0507 22.9585 33.8199 24.1096C34.5891 25.2608 34.9996 26.6142 34.9996 27.9986C34.9996 29.8552 34.2621 31.6356 32.9494 32.9484C31.6366 34.2611 29.8561 34.9986 27.9996 34.9986ZM47.2496 28.4711C47.2584 28.1561 47.2584 27.8411 47.2496 27.5261L50.5134 23.4486C50.6845 23.2345 50.8029 22.9833 50.8592 22.715C50.9154 22.4468 50.9079 22.1691 50.8371 21.9043C50.3011 19.8934 49.5008 17.9625 48.4571 16.1621C48.3203 15.9265 48.1305 15.7261 47.9026 15.5769C47.6747 15.4276 47.4152 15.3337 47.1446 15.3024L41.9559 14.7249C41.74 14.4974 41.5213 14.2786 41.2996 14.0686L40.6871 8.86676C40.6556 8.59597 40.5613 8.33629 40.4116 8.10842C40.262 7.88055 40.0612 7.69078 39.8252 7.55426C38.0249 6.51137 36.0939 5.71249 34.083 5.17864C33.8183 5.10789 33.5406 5.10033 33.2723 5.15657C33.0041 5.2128 32.7528 5.33125 32.5387 5.50238L28.4721 8.74863C28.1571 8.74863 27.8421 8.74863 27.5271 8.74863L23.4496 5.49145C23.2355 5.32032 22.9842 5.20186 22.716 5.14563C22.4477 5.08939 22.17 5.09695 21.9052 5.1677C19.8944 5.70369 17.9635 6.504 16.163 7.5477C15.9275 7.68447 15.7271 7.87435 15.5779 8.1022C15.4286 8.33006 15.3346 8.58961 15.3034 8.8602L14.7259 14.0577C14.4984 14.275 14.2796 14.4937 14.0696 14.7139L8.86774 15.3111C8.59695 15.3426 8.33727 15.437 8.1094 15.5866C7.88152 15.7362 7.69176 15.937 7.55524 16.173C6.51256 17.9737 5.713 19.9045 5.17742 21.9152C5.10698 22.1802 5.09977 22.458 5.15639 22.7262C5.213 22.9945 5.33186 23.2457 5.50336 23.4596L8.74961 27.5261C8.74961 27.8411 8.74961 28.1561 8.74961 28.4711L5.49242 32.5486C5.32129 32.7627 5.20284 33.014 5.1466 33.2823C5.09037 33.5505 5.09793 33.8282 5.16867 34.093C5.70467 36.1039 6.50498 38.0348 7.54867 39.8352C7.68545 40.0708 7.87532 40.2711 8.10318 40.4204C8.33104 40.5696 8.59059 40.6636 8.86117 40.6949L14.0499 41.2724C14.2672 41.4999 14.486 41.7186 14.7062 41.9286L15.3121 47.1305C15.3436 47.4013 15.4379 47.661 15.5876 47.8889C15.7372 48.1167 15.938 48.3065 16.174 48.443C17.9747 49.4857 19.9055 50.2852 21.9162 50.8208C22.1811 50.8913 22.4589 50.8985 22.7272 50.8419C22.9955 50.7852 23.2467 50.6664 23.4605 50.4949L27.5271 47.2486C27.8421 47.2574 28.1571 47.2574 28.4721 47.2486L32.5496 50.5124C32.7637 50.6835 33.015 50.802 33.2832 50.8582C33.5515 50.9144 33.8292 50.9069 34.094 50.8361C36.1052 50.3011 38.0362 49.5007 39.8362 48.4561C40.0717 48.3194 40.2721 48.1295 40.4214 47.9016C40.5706 47.6738 40.6646 47.4142 40.6959 47.1436L41.2734 41.9549C41.5009 41.7391 41.7196 41.5203 41.9296 41.2986L47.1315 40.6861C47.4023 40.6546 47.662 40.5603 47.8898 40.4107C48.1177 40.261 48.3075 40.0602 48.444 39.8243C49.4867 38.0236 50.2862 36.0927 50.8218 34.0821C50.8922 33.8171 50.8994 33.5393 50.8428 33.2711C50.7862 33.0028 50.6674 32.7516 50.4959 32.5377L47.2496 28.4711ZM43.7277 27.0493C43.7649 27.6816 43.7649 28.3156 43.7277 28.948C43.7017 29.381 43.8373 29.8082 44.1084 30.1468L47.2124 34.0252C46.8562 35.1572 46.4002 36.2552 45.8496 37.3064L40.9059 37.8664C40.4753 37.9142 40.0778 38.12 39.7902 38.4439C39.3692 38.9175 38.9207 39.366 38.4471 39.7871C38.1232 40.0747 37.9174 40.4722 37.8696 40.9027L37.3205 45.8421C36.2694 46.3929 35.1714 46.849 34.0393 47.2049L30.1587 44.1008C29.8481 43.8527 29.4624 43.7177 29.0649 43.718H28.9599C28.3276 43.7552 27.6935 43.7552 27.0612 43.718C26.6284 43.6932 26.2016 43.8287 25.8624 44.0986L21.973 47.2049C20.8411 46.8487 19.743 46.3926 18.6918 45.8421L18.1318 40.9049C18.084 40.4744 17.8782 40.0768 17.5543 39.7893C17.0807 39.3682 16.6322 38.9197 16.2112 38.4461C15.9236 38.1222 15.5261 37.9164 15.0955 37.8686L10.1562 37.3174C9.60534 36.2663 9.14927 35.1682 8.79336 34.0361L11.8974 30.1555C12.1685 29.8169 12.3041 29.3897 12.278 28.9568C12.2409 28.3244 12.2409 27.6904 12.278 27.058C12.3041 26.6251 12.1685 26.1979 11.8974 25.8593L8.79336 21.9721C9.14954 20.8401 9.60561 19.742 10.1562 18.6908L15.0934 18.1308C15.5239 18.083 15.9214 17.8773 16.209 17.5533C16.6301 17.0797 17.0785 16.6313 17.5521 16.2102C17.8773 15.9224 18.084 15.524 18.1318 15.0924L18.6809 10.1552C19.732 9.60437 20.8301 9.14829 21.9621 8.79239L25.8427 11.8964C26.1813 12.1675 26.6085 12.3031 27.0415 12.2771C27.6739 12.2399 28.3079 12.2399 28.9402 12.2771C29.373 12.3019 29.7998 12.1664 30.139 11.8964L34.0262 8.79239C35.1581 9.14857 36.2562 9.60463 37.3074 10.1552L37.8674 15.0924C37.9152 15.5229 38.121 15.9204 38.4449 16.208C38.9185 16.6291 39.367 17.0776 39.788 17.5511C40.0756 17.8751 40.4731 18.0808 40.9037 18.1286L45.8431 18.6777C46.3939 19.7288 46.85 20.8269 47.2059 21.9589L44.1018 25.8396C43.8281 26.181 43.6923 26.6126 43.7212 27.0493H43.7277Z" fill="url(#paint0_linear_3464_1808)"/>
<defs>
<linearGradient id="paint0_linear_3464_1808" x1="-1076.81" y1="55.7728" x2="-1074.62" y2="-34.3651" gradientUnits="userSpaceOnUse">
<stop stop-color="#E8DF38"/>
<stop offset="1" stop-color="#41D882"/>
</linearGradient>
</defs>
</svg>
