<svg width="307" height="306" viewBox="0 0 307 306" fill="none" xmlns="http://www.w3.org/2000/svg">
<path d="M153.348 0.000267976C127.599 0.000269102 102.266 6.50454 79.7019 18.9095C57.1373 31.3145 38.0718 49.2182 24.2744 70.9593L28.1467 73.4167C41.5301 52.3278 60.0236 34.9612 81.9113 22.9284C103.799 10.8956 128.371 4.58642 153.348 4.58642L153.348 0.000267976Z" fill="white" fill-opacity="0.05"/>
<path d="M153.348 0.000267976C127.599 0.000269102 102.266 6.50454 79.7019 18.9095C57.1373 31.3145 38.0718 49.2182 24.2744 70.9593L28.1467 73.4167C41.5301 52.3278 60.0236 34.9612 81.9113 22.9284C103.799 10.8956 128.371 4.58642 153.348 4.58642L153.348 0.000267976Z" fill="url(#paint0_linear_3820_3742)"/>
<path d="M153.348 0.256127C237.777 0.256124 306.22 68.6992 306.22 153.128C306.22 237.557 237.777 306 153.348 306C68.9197 306 0.47656 237.557 0.476556 153.128C0.476552 68.6992 68.9196 0.256131 153.348 0.256127ZM153.348 301.414C235.244 301.414 301.634 235.024 301.634 153.128C301.634 71.2321 235.244 4.84227 153.348 4.84228C71.4525 4.84228 5.0627 71.2321 5.06271 153.128C5.06271 235.024 71.4525 301.414 153.348 301.414Z" fill="white" fill-opacity="0.05"/>
<defs>
<linearGradient id="paint0_linear_3820_3742" x1="338.789" y1="7530.29" x2="-263.108" y2="7515.68" gradientUnits="userSpaceOnUse">
<stop stop-color="#E8DF38"/>
<stop offset="1" stop-color="#41D882"/>
</linearGradient>
</defs>
</svg>
