<svg width="87" height="30" viewBox="0 0 87 30" fill="none" xmlns="http://www.w3.org/2000/svg">
<g clip-path="url(#clip0_3464_1395)">
<path d="M40.9921 22.4638V4.53711H37.6055V21.8804C39.0021 23.2838 39.7855 24.0671 41.1788 25.4638H49.5055V22.4638H40.9921Z" fill="white"/>
<path d="M64.6379 19.3434C64.2579 20.3668 63.6746 21.2001 62.8846 21.8501C62.0946 22.5001 61.0712 22.8201 59.8112 22.8201C58.1912 22.8201 56.9246 22.2668 56.0046 21.1701C55.0879 20.0668 54.6246 18.5368 54.6246 16.5968V13.4034C54.6246 11.4634 55.0879 9.93342 56.0046 8.83009C56.9212 7.73342 58.1912 7.18009 59.8112 7.18009C61.0346 7.18009 62.0212 7.47009 62.7679 8.06009C63.5146 8.65009 64.0746 9.44676 64.4313 10.4401L67.2746 8.88676C66.5813 7.32676 65.6179 6.15676 64.3879 5.36342C63.1579 4.57342 61.6346 4.17676 59.8146 4.17676C58.4579 4.17676 57.2312 4.41676 56.1446 4.87676C55.0546 5.34676 54.1379 6.04009 53.3746 6.96676C52.6146 7.88342 52.0312 9.01009 51.6346 10.3468C51.2312 11.6901 51.0312 13.2334 51.0312 14.9968C51.0312 18.5101 51.8146 21.1968 53.3746 23.0401C54.9346 24.8901 57.0746 25.8168 59.8146 25.8168C61.6346 25.8168 63.1712 25.3901 64.4346 24.5401C65.6946 23.6901 66.6746 22.5034 67.3746 20.9868L64.6446 19.3368L64.6379 19.3434Z" fill="white"/>
<path d="M84.4523 6.24711C83.3923 5.10711 81.8923 4.53711 79.9523 4.53711H70.959V25.4604H74.3456V7.53711H79.7423C80.599 7.53711 81.2723 7.76044 81.749 8.20044C82.2357 8.64711 82.4723 9.29044 82.4723 10.1171V11.5438C82.4723 12.3804 82.2323 13.0138 81.749 13.4604C81.2723 13.9071 80.599 14.1338 79.7423 14.1338H75.079L76.8023 17.1271H79.9523C81.8923 17.1271 83.3923 16.5604 84.4523 15.4171C85.5123 14.2838 86.0423 12.7538 86.0423 10.8338C86.0423 8.91378 85.5123 7.38711 84.4523 6.24378V6.24711Z" fill="white"/>
<path d="M32.9047 30H6.74805V4.71C8.58805 2.87 9.61805 1.84 11.458 0H32.9047V30Z" fill="#007777"/>
<path d="M6.7476 30L0.960938 23.7467V0L6.7476 4.71V30Z" fill="#41D882"/>
<path d="M15.9328 4.53613V7.35613H22.7594V19.4295C22.7594 20.5628 22.4894 21.4228 21.9528 21.9828C21.4161 22.5428 20.6928 22.8195 19.7961 22.8195C18.8994 22.8195 18.1628 22.5661 17.6528 22.0428C17.1394 21.5195 16.7961 20.8128 16.6161 19.9161L13.4961 20.6028C13.7794 22.1628 14.4428 23.4228 15.4894 24.3795C16.5428 25.3428 17.9761 25.8195 19.7961 25.8195C20.7528 25.8195 21.6228 25.6761 22.4161 25.3861C23.2061 25.0961 23.8794 24.6861 24.4228 24.1561C24.9761 23.6261 25.3994 22.9928 25.6994 22.2528C25.9994 21.5128 26.1461 20.6861 26.1461 19.7661V4.53613H15.9294H15.9328Z" fill="white"/>
<path d="M22.7603 7.35947L26.1503 4.53613H15.9336V7.35947H22.7603Z" fill="white"/>
<path d="M0.960938 0H11.4543L6.7476 4.71L0.960938 0Z" fill="#E8DF38"/>
</g>
<defs>
<clipPath id="clip0_3464_1395">
<rect width="85.08" height="30" fill="white" transform="translate(0.960938)"/>
</clipPath>
</defs>
</svg>
