<svg width="113" height="51" viewBox="0 0 113 51" fill="none" xmlns="http://www.w3.org/2000/svg">
<path d="M112.654 11.4326V3.41537C112.654 1.80608 111.348 0.5 109.739 0.5H2.96615C1.35541 0.5 0.0507812 1.80608 0.0507812 3.41537V11.4326H4.42383V14.348H0.0507812V47.5846C0.0507812 49.1108 1.22713 50.3484 2.7198 50.4738V45.2771H5.63517V50.5H8.85811V45.2771H11.7735V50.5H14.9964V45.2771H17.9118V50.5H21.1347V45.2771H24.0501V50.5H27.273V45.2771H30.1884V50.5H33.4113V45.2771H36.3267V50.5H39.5496V45.2771H42.465V50.5H45.6879V45.2771H48.6033V50.5H51.8262V45.2771H54.7416V50.5H57.9646V45.2771H60.8799V50.5H63.9935V45.2771H66.9089V50.5H70.2397V45.2771H73.1551V50.5H76.378V45.2771H79.2934V50.5H82.5163V45.2771H85.4317V50.5H88.6546V45.2771H91.57V50.5H94.7929V45.2771H97.7083V50.5H100.931V45.2771H103.847V50.5H107.07V45.2771H109.985V50.4738C111.478 50.3469 112.655 49.1094 112.655 47.5846V14.348H108.282V11.4326H112.654ZM26.0092 31.8154H13.4527V13.3524H26.0092V31.8154ZM50.424 31.8154H37.8675V13.3524H50.424V31.8154ZM74.8387 31.8154H62.2822V13.3524H74.8387V31.8154ZM99.2534 31.8154H86.697V13.3524H99.2534V31.8154Z" fill="url(#paint0_linear_3820_4688)"/>
<defs>
<linearGradient id="paint0_linear_3820_4688" x1="-2660.73" y1="55.8261" x2="-2659.67" y2="-42.6521" gradientUnits="userSpaceOnUse">
<stop stop-color="#E8DF38"/>
<stop offset="1" stop-color="#41D882"/>
</linearGradient>
</defs>
</svg>
