<svg width="57" height="56" viewBox="0 0 57 56" fill="none" xmlns="http://www.w3.org/2000/svg">
<g opacity="0.2">
<path d="M51.6197 14H5.36684C4.89504 14 4.44255 14.1844 4.10893 14.5126C3.77532 14.8408 3.58789 15.2859 3.58789 15.75V38.5H53.3986V15.75C53.3986 15.2859 53.2112 14.8408 52.8776 14.5126C52.5439 14.1844 52.0915 14 51.6197 14ZM24.9353 31.5H10.7037V21H24.9353V31.5ZM46.2828 31.5H32.0512V21H46.2828V31.5Z" fill="black"/>
<path d="M51.6197 14H5.36684C4.89504 14 4.44255 14.1844 4.10893 14.5126C3.77532 14.8408 3.58789 15.2859 3.58789 15.75V38.5H53.3986V15.75C53.3986 15.2859 53.2112 14.8408 52.8776 14.5126C52.5439 14.1844 52.0915 14 51.6197 14ZM24.9353 31.5H10.7037V21H24.9353V31.5ZM46.2828 31.5H32.0512V21H46.2828V31.5Z" fill="url(#paint0_linear_3464_2539)"/>
</g>
<path d="M51.6193 12.25H5.3665C4.42289 12.25 3.51792 12.6187 2.85068 13.2751C2.18344 13.9315 1.80859 14.8217 1.80859 15.75V43.75C1.80859 44.2141 1.99602 44.6592 2.32964 44.9874C2.66326 45.3156 3.11574 45.5 3.58755 45.5C4.05936 45.5 4.51184 45.3156 4.84546 44.9874C5.17908 44.6592 5.3665 44.2141 5.3665 43.75V40.25H8.92441V43.75C8.92441 44.2141 9.11184 44.6592 9.44545 44.9874C9.77907 45.3156 10.2316 45.5 10.7034 45.5C11.1752 45.5 11.6277 45.3156 11.9613 44.9874C12.2949 44.6592 12.4823 44.2141 12.4823 43.75V40.25H16.0402V43.75C16.0402 44.2141 16.2277 44.6592 16.5613 44.9874C16.8949 45.3156 17.3474 45.5 17.8192 45.5C18.291 45.5 18.7435 45.3156 19.0771 44.9874C19.4107 44.6592 19.5981 44.2141 19.5981 43.75V40.25H23.156V43.75C23.156 44.2141 23.3435 44.6592 23.6771 44.9874C24.0107 45.3156 24.4632 45.5 24.935 45.5C25.4068 45.5 25.8593 45.3156 26.1929 44.9874C26.5265 44.6592 26.714 44.2141 26.714 43.75V40.25H30.2719V43.75C30.2719 44.2141 30.4593 44.6592 30.7929 44.9874C31.1265 45.3156 31.579 45.5 32.0508 45.5C32.5226 45.5 32.9751 45.3156 33.3087 44.9874C33.6423 44.6592 33.8298 44.2141 33.8298 43.75V40.25H37.3877V43.75C37.3877 44.2141 37.5751 44.6592 37.9087 44.9874C38.2423 45.3156 38.6948 45.5 39.1666 45.5C39.6384 45.5 40.0909 45.3156 40.4245 44.9874C40.7582 44.6592 40.9456 44.2141 40.9456 43.75V40.25H44.5035V43.75C44.5035 44.2141 44.6909 44.6592 45.0245 44.9874C45.3582 45.3156 45.8106 45.5 46.2825 45.5C46.7543 45.5 47.2067 45.3156 47.5404 44.9874C47.874 44.6592 48.0614 44.2141 48.0614 43.75V40.25H51.6193V43.75C51.6193 44.2141 51.8067 44.6592 52.1404 44.9874C52.474 45.3156 52.9265 45.5 53.3983 45.5C53.8701 45.5 54.3226 45.3156 54.6562 44.9874C54.9898 44.6592 55.1772 44.2141 55.1772 43.75V15.75C55.1772 14.8217 54.8024 13.9315 54.1351 13.2751C53.4679 12.6187 52.5629 12.25 51.6193 12.25ZM5.3665 15.75H51.6193V36.75H5.3665V15.75ZM24.935 33.25C25.4068 33.25 25.8593 33.0656 26.1929 32.7374C26.5265 32.4093 26.714 31.9641 26.714 31.5V21C26.714 20.5359 26.5265 20.0908 26.1929 19.7626C25.8593 19.4344 25.4068 19.25 24.935 19.25H10.7034C10.2316 19.25 9.77907 19.4344 9.44545 19.7626C9.11184 20.0908 8.92441 20.5359 8.92441 21V31.5C8.92441 31.9641 9.11184 32.4093 9.44545 32.7374C9.77907 33.0656 10.2316 33.25 10.7034 33.25H24.935ZM12.4823 22.75H23.156V29.75H12.4823V22.75ZM32.0508 33.25H46.2825C46.7543 33.25 47.2067 33.0656 47.5404 32.7374C47.874 32.4093 48.0614 31.9641 48.0614 31.5V21C48.0614 20.5359 47.874 20.0908 47.5404 19.7626C47.2067 19.4344 46.7543 19.25 46.2825 19.25H32.0508C31.579 19.25 31.1265 19.4344 30.7929 19.7626C30.4593 20.0908 30.2719 20.5359 30.2719 21V31.5C30.2719 31.9641 30.4593 32.4093 30.7929 32.7374C31.1265 33.0656 31.579 33.25 32.0508 33.25ZM33.8298 22.75H44.5035V29.75H33.8298V22.75Z" fill="black"/>
<path d="M51.6193 12.25H5.3665C4.42289 12.25 3.51792 12.6187 2.85068 13.2751C2.18344 13.9315 1.80859 14.8217 1.80859 15.75V43.75C1.80859 44.2141 1.99602 44.6592 2.32964 44.9874C2.66326 45.3156 3.11574 45.5 3.58755 45.5C4.05936 45.5 4.51184 45.3156 4.84546 44.9874C5.17908 44.6592 5.3665 44.2141 5.3665 43.75V40.25H8.92441V43.75C8.92441 44.2141 9.11184 44.6592 9.44545 44.9874C9.77907 45.3156 10.2316 45.5 10.7034 45.5C11.1752 45.5 11.6277 45.3156 11.9613 44.9874C12.2949 44.6592 12.4823 44.2141 12.4823 43.75V40.25H16.0402V43.75C16.0402 44.2141 16.2277 44.6592 16.5613 44.9874C16.8949 45.3156 17.3474 45.5 17.8192 45.5C18.291 45.5 18.7435 45.3156 19.0771 44.9874C19.4107 44.6592 19.5981 44.2141 19.5981 43.75V40.25H23.156V43.75C23.156 44.2141 23.3435 44.6592 23.6771 44.9874C24.0107 45.3156 24.4632 45.5 24.935 45.5C25.4068 45.5 25.8593 45.3156 26.1929 44.9874C26.5265 44.6592 26.714 44.2141 26.714 43.75V40.25H30.2719V43.75C30.2719 44.2141 30.4593 44.6592 30.7929 44.9874C31.1265 45.3156 31.579 45.5 32.0508 45.5C32.5226 45.5 32.9751 45.3156 33.3087 44.9874C33.6423 44.6592 33.8298 44.2141 33.8298 43.75V40.25H37.3877V43.75C37.3877 44.2141 37.5751 44.6592 37.9087 44.9874C38.2423 45.3156 38.6948 45.5 39.1666 45.5C39.6384 45.5 40.0909 45.3156 40.4245 44.9874C40.7582 44.6592 40.9456 44.2141 40.9456 43.75V40.25H44.5035V43.75C44.5035 44.2141 44.6909 44.6592 45.0245 44.9874C45.3582 45.3156 45.8106 45.5 46.2825 45.5C46.7543 45.5 47.2067 45.3156 47.5404 44.9874C47.874 44.6592 48.0614 44.2141 48.0614 43.75V40.25H51.6193V43.75C51.6193 44.2141 51.8067 44.6592 52.1404 44.9874C52.474 45.3156 52.9265 45.5 53.3983 45.5C53.8701 45.5 54.3226 45.3156 54.6562 44.9874C54.9898 44.6592 55.1772 44.2141 55.1772 43.75V15.75C55.1772 14.8217 54.8024 13.9315 54.1351 13.2751C53.4679 12.6187 52.5629 12.25 51.6193 12.25ZM5.3665 15.75H51.6193V36.75H5.3665V15.75ZM24.935 33.25C25.4068 33.25 25.8593 33.0656 26.1929 32.7374C26.5265 32.4093 26.714 31.9641 26.714 31.5V21C26.714 20.5359 26.5265 20.0908 26.1929 19.7626C25.8593 19.4344 25.4068 19.25 24.935 19.25H10.7034C10.2316 19.25 9.77907 19.4344 9.44545 19.7626C9.11184 20.0908 8.92441 20.5359 8.92441 21V31.5C8.92441 31.9641 9.11184 32.4093 9.44545 32.7374C9.77907 33.0656 10.2316 33.25 10.7034 33.25H24.935ZM12.4823 22.75H23.156V29.75H12.4823V22.75ZM32.0508 33.25H46.2825C46.7543 33.25 47.2067 33.0656 47.5404 32.7374C47.874 32.4093 48.0614 31.9641 48.0614 31.5V21C48.0614 20.5359 47.874 20.0908 47.5404 19.7626C47.2067 19.4344 46.7543 19.25 46.2825 19.25H32.0508C31.579 19.25 31.1265 19.4344 30.7929 19.7626C30.4593 20.0908 30.2719 20.5359 30.2719 21V31.5C30.2719 31.9641 30.4593 32.4093 30.7929 32.7374C31.1265 33.0656 31.579 33.25 32.0508 33.25ZM33.8298 22.75H44.5035V29.75H33.8298V22.75Z" fill="url(#paint1_linear_3464_2539)"/>
<defs>
<linearGradient id="paint0_linear_3464_2539" x1="-1173.41" y1="41.1098" x2="-1172.83" y2="-7.14324" gradientUnits="userSpaceOnUse">
<stop stop-color="#E8DF38"/>
<stop offset="1" stop-color="#41D882"/>
</linearGradient>
<linearGradient id="paint1_linear_3464_2539" x1="-1259.26" y1="49.0419" x2="-1258.27" y2="-16.4388" gradientUnits="userSpaceOnUse">
<stop stop-color="#E8DF38"/>
<stop offset="1" stop-color="#41D882"/>
</linearGradient>
</defs>
</svg>
