<svg width="15" height="14" viewBox="0 0 15 14" fill="none" xmlns="http://www.w3.org/2000/svg">
<path d="M12.1666 7.58333C12.1666 8.87197 11.6443 10.0386 10.7998 10.8832L11.6248 11.7081C12.6804 10.6525 13.3333 9.19415 13.3333 7.58333C13.3333 4.36167 10.7216 1.75 7.49996 1.75C4.2783 1.75 1.66663 4.36167 1.66663 7.58333C1.66663 9.19415 2.31955 10.6525 3.37517 11.7081L4.20013 10.8832C3.35563 10.0386 2.83329 8.87197 2.83329 7.58333C2.83329 5.006 4.92263 2.91667 7.49996 2.91667C10.0773 2.91667 12.1666 5.006 12.1666 7.58333ZM9.42088 4.83757L6.79588 7.46258L7.62083 8.28753L10.2458 5.66252L9.42088 4.83757Z" fill="white" fill-opacity="0.3"/>
</svg>
